G04*
G04 #@! TF.GenerationSoftware,Altium Limited,Altium Designer,20.1.10 (176)*
G04*
G04 Layer_Color=32896*
%FSAX42Y42*%
%MOMM*%
G71*
G04*
G04 #@! TF.SameCoordinates,9C08BAFA-1892-4BA1-9AB8-C06810583842*
G04*
G04*
G04 #@! TF.FilePolarity,Positive*
G04*
G01*
G75*
%ADD10C,0.20*%
%ADD11C,0.25*%
%ADD13C,0.15*%
D10*
X004453Y004319D02*
X004463Y004329D01*
X004483D01*
X004493Y004319D01*
Y004279D01*
X004483Y004269D01*
X004463D01*
X004453Y004279D01*
X004403Y004269D02*
Y004329D01*
X004433Y004299D01*
X004393D01*
X004373Y004269D02*
X004353D01*
X004363D01*
Y004329D01*
X004373Y004319D01*
X004008Y003895D02*
X004018Y003905D01*
X004038D01*
X004048Y003895D01*
Y003855D01*
X004038Y003845D01*
X004018D01*
X004008Y003855D01*
X003988Y003895D02*
X003978Y003905D01*
X003958D01*
X003948Y003895D01*
Y003885D01*
X003958Y003875D01*
X003968D01*
X003958D01*
X003948Y003865D01*
Y003855D01*
X003958Y003845D01*
X003978D01*
X003988Y003855D01*
X003928Y003895D02*
X003918Y003905D01*
X003898D01*
X003888Y003895D01*
Y003885D01*
X003898Y003875D01*
X003888Y003865D01*
Y003855D01*
X003898Y003845D01*
X003918D01*
X003928Y003855D01*
Y003865D01*
X003918Y003875D01*
X003928Y003885D01*
Y003895D01*
X003918Y003875D02*
X003898D01*
X004473Y005432D02*
X004483Y005442D01*
X004503D01*
X004513Y005432D01*
Y005392D01*
X004503Y005382D01*
X004483D01*
X004473Y005392D01*
X004453Y005432D02*
X004443Y005442D01*
X004423D01*
X004413Y005432D01*
Y005422D01*
X004423Y005412D01*
X004433D01*
X004423D01*
X004413Y005402D01*
Y005392D01*
X004423Y005382D01*
X004443D01*
X004453Y005392D01*
X004363Y005382D02*
Y005442D01*
X004393Y005412D01*
X004353D01*
X003980Y005020D02*
X003990Y005030D01*
X004010D01*
X004020Y005020D01*
Y004980D01*
X004010Y004970D01*
X003990D01*
X003980Y004980D01*
X003960Y005020D02*
X003950Y005030D01*
X003930D01*
X003920Y005020D01*
Y005010D01*
X003930Y005000D01*
X003940D01*
X003930D01*
X003920Y004990D01*
Y004980D01*
X003930Y004970D01*
X003950D01*
X003960Y004980D01*
X003900Y004970D02*
X003880D01*
X003890D01*
Y005030D01*
X003900Y005020D01*
X001275Y005025D02*
X001285Y005035D01*
X001305D01*
X001315Y005025D01*
Y004985D01*
X001305Y004975D01*
X001285D01*
X001275Y004985D01*
X001215Y004975D02*
X001255D01*
X001215Y005015D01*
Y005025D01*
X001225Y005035D01*
X001245D01*
X001255Y005025D01*
X001195Y005035D02*
X001155D01*
Y005025D01*
X001195Y004985D01*
Y004975D01*
X001739Y005449D02*
X001749Y005459D01*
X001769D01*
X001779Y005449D01*
Y005409D01*
X001769Y005399D01*
X001749D01*
X001739Y005409D01*
X001680Y005399D02*
X001719D01*
X001680Y005439D01*
Y005449D01*
X001689Y005459D01*
X001709D01*
X001719Y005449D01*
X001630Y005399D02*
Y005459D01*
X001660Y005429D01*
X001620D01*
X004234Y002590D02*
X004244Y002600D01*
X004264D01*
X004274Y002590D01*
Y002550D01*
X004264Y002540D01*
X004244D01*
X004234Y002550D01*
X004174Y002540D02*
X004214D01*
X004174Y002580D01*
Y002590D01*
X004184Y002600D01*
X004204D01*
X004214Y002590D01*
X004154D02*
X004144Y002600D01*
X004124D01*
X004114Y002590D01*
Y002550D01*
X004124Y002540D01*
X004144D01*
X004154Y002550D01*
Y002590D01*
X004689Y003014D02*
X004699Y003024D01*
X004719D01*
X004729Y003014D01*
Y002974D01*
X004719Y002964D01*
X004699D01*
X004689Y002974D01*
X004669Y002964D02*
X004649D01*
X004659D01*
Y003024D01*
X004669Y003014D01*
X004619Y003024D02*
X004579D01*
Y003014D01*
X004619Y002974D01*
Y002964D01*
X004225Y001470D02*
X004235Y001480D01*
X004255D01*
X004265Y001470D01*
Y001430D01*
X004255Y001420D01*
X004235D01*
X004225Y001430D01*
X004205Y001420D02*
X004185D01*
X004195D01*
Y001480D01*
X004205Y001470D01*
X004155D02*
X004145Y001480D01*
X004125D01*
X004115Y001470D01*
Y001460D01*
X004125Y001450D01*
X004135D01*
X004125D01*
X004115Y001440D01*
Y001430D01*
X004125Y001420D01*
X004145D01*
X004155Y001430D01*
X004689Y001894D02*
X004699Y001904D01*
X004719D01*
X004729Y001894D01*
Y001854D01*
X004719Y001844D01*
X004699D01*
X004689Y001854D01*
X004669Y001844D02*
X004650D01*
X004660D01*
Y001904D01*
X004669Y001894D01*
X004620D02*
X004610Y001904D01*
X004590D01*
X004580Y001894D01*
Y001854D01*
X004590Y001844D01*
X004610D01*
X004620Y001854D01*
Y001894D01*
X007410Y001995D02*
X007420Y002005D01*
X007440D01*
X007450Y001995D01*
Y001955D01*
X007440Y001945D01*
X007420D01*
X007410Y001955D01*
X007350Y002005D02*
X007370Y001995D01*
X007390Y001975D01*
Y001955D01*
X007380Y001945D01*
X007360D01*
X007350Y001955D01*
Y001965D01*
X007360Y001975D01*
X007390D01*
X006950Y001620D02*
X006960Y001630D01*
X006980D01*
X006990Y001620D01*
Y001580D01*
X006980Y001570D01*
X006960D01*
X006950Y001580D01*
X006930Y001620D02*
X006920Y001630D01*
X006900D01*
X006890Y001620D01*
Y001610D01*
X006900Y001600D01*
X006910D01*
X006900D01*
X006890Y001590D01*
Y001580D01*
X006900Y001570D01*
X006920D01*
X006930Y001580D01*
X003555Y001595D02*
Y001655D01*
X003525D01*
X003515Y001645D01*
Y001625D01*
X003525Y001615D01*
X003555D01*
X003535D02*
X003515Y001595D01*
X003495Y001655D02*
Y001595D01*
Y001615D01*
X003455Y001655D01*
X003485Y001625D01*
X003455Y001595D01*
X003395D02*
X003435D01*
X003395Y001635D01*
Y001645D01*
X003405Y001655D01*
X003425D01*
X003435Y001645D01*
X003380Y002170D02*
Y002230D01*
X003350D01*
X003340Y002220D01*
Y002200D01*
X003350Y002190D01*
X003380D01*
X003360D02*
X003340Y002170D01*
X003320Y002230D02*
X003280D01*
Y002220D01*
X003320Y002180D01*
Y002170D01*
X003260Y002220D02*
X003250Y002230D01*
X003230D01*
X003220Y002220D01*
Y002180D01*
X003230Y002170D01*
X003250D01*
X003260Y002180D01*
Y002220D01*
X005555Y004220D02*
Y004280D01*
X005525D01*
X005515Y004270D01*
Y004250D01*
X005525Y004240D01*
X005555D01*
X005535D02*
X005515Y004220D01*
X005455Y004280D02*
X005475Y004270D01*
X005495Y004250D01*
Y004230D01*
X005485Y004220D01*
X005465D01*
X005455Y004230D01*
Y004240D01*
X005465Y004250D01*
X005495D01*
X005435Y004230D02*
X005425Y004220D01*
X005405D01*
X005395Y004230D01*
Y004270D01*
X005405Y004280D01*
X005425D01*
X005435Y004270D01*
Y004260D01*
X005425Y004250D01*
X005395D01*
X005345Y004870D02*
Y004930D01*
X005315D01*
X005305Y004920D01*
Y004900D01*
X005315Y004890D01*
X005345D01*
X005325D02*
X005305Y004870D01*
X005285Y004930D02*
Y004870D01*
Y004890D01*
X005245Y004930D01*
X005275Y004900D01*
X005245Y004870D01*
X005225D02*
X005205D01*
X005215D01*
Y004930D01*
X005225Y004920D01*
D11*
X005417Y004756D02*
Y005074D01*
Y004756D02*
X005556D01*
Y005074D01*
X005417D02*
X005556D01*
Y004756D02*
X005912D01*
Y005074D01*
X005556D02*
X005912D01*
X003344Y001416D02*
Y001734D01*
X003204D02*
X003344D01*
X003204Y001416D02*
Y001734D01*
Y001416D02*
X003344D01*
X002848Y001734D02*
X003204D01*
X002848Y001416D02*
Y001734D01*
Y001416D02*
X003204D01*
D13*
X004002Y004726D02*
X004065D01*
X004002Y004879D02*
X004065D01*
X003875Y004739D02*
Y004866D01*
X004192Y004739D02*
Y004866D01*
X007471Y001763D02*
X007535D01*
X007471Y001916D02*
X007535D01*
X007344Y001776D02*
Y001903D01*
X007662Y001776D02*
Y001903D01*
X005417Y004683D02*
X005544D01*
X005417Y004366D02*
X005544D01*
X005404Y004493D02*
Y004556D01*
X005556Y004493D02*
Y004556D01*
X004468Y004038D02*
X004531D01*
X004468Y004191D02*
X004531D01*
X004341Y004051D02*
Y004178D01*
X004658Y004051D02*
Y004178D01*
X004002Y003613D02*
X004065D01*
X004002Y003766D02*
X004065D01*
X003875Y003626D02*
Y003753D01*
X004192Y003626D02*
Y003753D01*
X004101Y002322D02*
Y002449D01*
X004418Y002322D02*
Y002449D01*
X004228Y002309D02*
X004291D01*
X004228Y002461D02*
X004291D01*
X004567Y002747D02*
Y002874D01*
X004884Y002747D02*
Y002874D01*
X004694Y002734D02*
X004757D01*
X004694Y002886D02*
X004757D01*
X001141Y004757D02*
Y004884D01*
X001458Y004757D02*
Y004884D01*
X001268Y004744D02*
X001331D01*
X001268Y004897D02*
X001331D01*
X001607Y005182D02*
Y005309D01*
X001924Y005182D02*
Y005309D01*
X001734Y005169D02*
X001797D01*
X001734Y005322D02*
X001797D01*
X004658Y005164D02*
Y005291D01*
X004341Y005164D02*
Y005291D01*
X004468Y005304D02*
X004531D01*
X004468Y005151D02*
X004531D01*
X004694Y001767D02*
X004757D01*
X004694Y001614D02*
X004757D01*
X004884Y001627D02*
Y001754D01*
X004567Y001627D02*
Y001754D01*
X004228Y001342D02*
X004292D01*
X004228Y001189D02*
X004292D01*
X004419Y001202D02*
Y001329D01*
X004101Y001202D02*
Y001329D01*
X007005Y001338D02*
X007069D01*
X007005Y001491D02*
X007069D01*
X006878Y001351D02*
Y001478D01*
X007196Y001351D02*
Y001478D01*
X003217Y001795D02*
X003344D01*
X003217Y002113D02*
X003344D01*
X003356Y001922D02*
Y001986D01*
X003204Y001922D02*
Y001986D01*
M02*
