G04*
G04 #@! TF.GenerationSoftware,Altium Limited,Altium Designer,20.1.10 (176)*
G04*
G04 Layer_Physical_Order=4*
G04 Layer_Color=16737819*
%FSAX42Y42*%
%MOMM*%
G71*
G04*
G04 #@! TF.SameCoordinates,9C08BAFA-1892-4BA1-9AB8-C06810583842*
G04*
G04*
G04 #@! TF.FilePolarity,Positive*
G04*
G01*
G75*
%ADD10C,0.20*%
%ADD29R,0.80X1.30*%
%ADD30R,1.30X0.80*%
%ADD33C,0.30*%
%ADD35C,0.75*%
%ADD37C,1.02*%
%ADD38C,1.20*%
%ADD39P,1.70X4X270.0*%
%ADD40C,1.37*%
%ADD41R,1.37X1.37*%
%ADD42C,3.05*%
%ADD43C,2.79*%
%ADD44R,3.05X3.05*%
%ADD45C,0.50*%
%ADD46C,0.70*%
%ADD47C,2.80*%
%ADD48C,4.00*%
G36*
X002173Y006333D02*
X002101Y006264D01*
X002064Y006189D01*
X002050Y006050D01*
X002050Y006050D01*
X002046Y006028D01*
X002030Y005988D01*
X002008Y005950D01*
X001979Y005917D01*
X001945Y005889D01*
X001907Y005867D01*
X001866Y005853D01*
X001822Y005845D01*
X001801Y005845D01*
X001218Y005845D01*
X001213Y005857D01*
X001567Y006217D01*
X001575Y006225D01*
X001575Y006225D01*
X001584Y006239D01*
X001606Y006264D01*
X001631Y006286D01*
X001658Y006305D01*
X001687Y006321D01*
X001718Y006333D01*
X001751Y006341D01*
X001784Y006345D01*
X001800Y006345D01*
X002168Y006345D01*
X002173Y006333D01*
D02*
G37*
G36*
X005522Y006329D02*
X005567Y006311D01*
X005608Y006283D01*
X005643Y006248D01*
X005670Y006208D01*
X005689Y006162D01*
X005699Y006114D01*
X005699Y006089D01*
X005699Y005723D01*
X005687Y005719D01*
X005664Y005746D01*
X005664Y005746D01*
X005664D01*
X005652Y005759D01*
X005626Y005782D01*
X005597Y005802D01*
X005566Y005817D01*
X005550Y005823D01*
X005522Y005828D01*
X005465Y005838D01*
X005410Y005849D01*
X005354Y005863D01*
X005327Y005871D01*
X005153Y006045D01*
X005153Y006045D01*
X005140Y006053D01*
X005112Y006067D01*
X005082Y006078D01*
X005052Y006087D01*
X005021Y006093D01*
X004990Y006095D01*
X004958Y006095D01*
X004927Y006092D01*
X004912Y006089D01*
X004881Y006088D01*
X004819Y006087D01*
X004757Y006087D01*
X004695Y006089D01*
X004679Y006089D01*
X004675Y006094D01*
X004672Y006102D01*
X004675Y006106D01*
X004680Y006112D01*
X004682Y006115D01*
X004776Y006245D01*
X004839Y006307D01*
X004946Y006339D01*
X005449Y006339D01*
X005449Y006339D01*
X005449Y006339D01*
X005473Y006339D01*
X005522Y006329D01*
D02*
G37*
G36*
X003820Y006314D02*
Y006314D01*
X003832Y006314D01*
X003863Y006311D01*
X003904Y006298D01*
X003942Y006278D01*
X003975Y006250D01*
X004003Y006217D01*
X004014Y006196D01*
X004014Y006196D01*
X004014D01*
X004021Y006185D01*
X004023Y006180D01*
X004055Y006133D01*
X004092Y006090D01*
X004134Y006053D01*
X004181Y006022D01*
X004232Y005997D01*
X004285Y005979D01*
X004340Y005968D01*
X004397Y005964D01*
X004453Y005968D01*
X004508Y005979D01*
X004562Y005997D01*
X004612Y006022D01*
X004659Y006053D01*
X004671Y006063D01*
X004952D01*
X004964Y006063D01*
X004964Y006063D01*
X004964Y006063D01*
X004986Y006065D01*
X005028Y006061D01*
X005069Y006051D01*
X005108Y006035D01*
X005144Y006013D01*
X005176Y005986D01*
X005204Y005953D01*
X005211Y005942D01*
X005211D01*
X005212Y005941D01*
X005219Y005930D01*
X005248Y005896D01*
X005282Y005868D01*
X005319Y005845D01*
X005360Y005828D01*
X005403Y005818D01*
X005447Y005814D01*
Y005814D01*
X005459Y005814D01*
X005489Y005811D01*
X005530Y005801D01*
X005569Y005785D01*
X005605Y005763D01*
X005637Y005736D01*
X005665Y005703D01*
X005666Y005701D01*
Y003895D01*
X005666Y003895D01*
X005666D01*
X005669Y003851D01*
X005680Y003808D01*
X005696Y003767D01*
X005719Y003730D01*
X005748Y003696D01*
X005782Y003668D01*
X005819Y003645D01*
X005860Y003628D01*
X005903Y003618D01*
X005947Y003614D01*
Y003614D01*
X005947Y003614D01*
X007747D01*
X007747Y003614D01*
Y003614D01*
X007791Y003618D01*
X007833Y003628D01*
X007874Y003645D01*
X007912Y003668D01*
X007945Y003696D01*
X007974Y003730D01*
X007997Y003767D01*
X008014Y003808D01*
X008024Y003851D01*
X008028Y003895D01*
X008027D01*
X008027Y003895D01*
Y004138D01*
X008034Y004148D01*
X008061Y004181D01*
X008093Y004208D01*
X008129Y004230D01*
X008168Y004246D01*
X008209Y004256D01*
X008251Y004260D01*
X008252Y004259D01*
X008447D01*
X008447Y004260D01*
X008489Y004256D01*
X008530Y004246D01*
X008569Y004230D01*
X008605Y004208D01*
X008637Y004181D01*
X008665Y004148D01*
X008666Y004146D01*
Y001849D01*
X008666Y001849D01*
X008666D01*
X008665Y001836D01*
X008662Y001806D01*
X008650Y001764D01*
X008629Y001726D01*
X008610Y001703D01*
X008602Y001693D01*
X008602Y001693D01*
X008602Y001693D01*
X007585Y000676D01*
X007573Y000675D01*
X007572Y000676D01*
X006993D01*
Y000676D01*
X006949Y000672D01*
X006906Y000662D01*
X006866Y000645D01*
X006828Y000622D01*
X006794Y000594D01*
X006766Y000560D01*
X006743Y000523D01*
X006726Y000482D01*
X006716Y000439D01*
X006712Y000395D01*
X006712D01*
X006712Y000383D01*
X006709Y000353D01*
X006699Y000312D01*
X006683Y000273D01*
X006661Y000237D01*
X006634Y000204D01*
X006602Y000177D01*
X006599Y000176D01*
X004973D01*
X004973Y000176D01*
Y000176D01*
X004961Y000176D01*
X004930Y000179D01*
X004889Y000192D01*
X004851Y000212D01*
X004818Y000240D01*
X004791Y000273D01*
X004779Y000294D01*
X004779Y000294D01*
X004779D01*
X004773Y000305D01*
X004770Y000310D01*
X004739Y000357D01*
X004701Y000400D01*
X004659Y000437D01*
X004612Y000468D01*
X004562Y000493D01*
X004508Y000511D01*
X004453Y000522D01*
X004397Y000526D01*
X004340Y000522D01*
X004285Y000511D01*
X004232Y000493D01*
X004181Y000468D01*
X004134Y000437D01*
X004121Y000426D01*
X003820D01*
X003808Y000426D01*
X003808Y000426D01*
X003808Y000426D01*
Y000426D01*
X003795Y000426D01*
X003765Y000429D01*
X003724Y000439D01*
X003685Y000455D01*
X003649Y000477D01*
X003617Y000504D01*
X003590Y000537D01*
X003582Y000548D01*
X003582D01*
X003581Y000549D01*
X003574Y000560D01*
X003545Y000594D01*
X003512Y000622D01*
X003474Y000645D01*
X003433Y000662D01*
X003391Y000672D01*
X003359Y000675D01*
X003347Y000676D01*
X003334Y000676D01*
X003306Y000679D01*
X003301Y000680D01*
X003263Y000689D01*
X003224Y000705D01*
X003188Y000727D01*
X003156Y000754D01*
X003129Y000787D01*
X003127Y000789D01*
Y002595D01*
X003127Y002595D01*
X003128D01*
X003124Y002639D01*
X003114Y002682D01*
X003097Y002723D01*
X003074Y002760D01*
X003045Y002794D01*
X003012Y002822D01*
X002974Y002845D01*
X002933Y002862D01*
X002891Y002872D01*
X002847Y002876D01*
Y002876D01*
X002847Y002876D01*
X001047D01*
X001047Y002876D01*
Y002876D01*
X001003Y002872D01*
X000960Y002862D01*
X000919Y002845D01*
X000882Y002822D01*
X000848Y002794D01*
X000819Y002760D01*
X000796Y002723D01*
X000780Y002682D01*
X000769Y002639D01*
X000766Y002595D01*
X000766D01*
X000766Y002595D01*
Y002352D01*
X000760Y002342D01*
X000732Y002309D01*
X000700Y002282D01*
X000664Y002260D01*
X000625Y002244D01*
X000584Y002234D01*
X000542Y002230D01*
X000542Y002231D01*
X000347D01*
X000346Y002230D01*
X000304Y002234D01*
X000263Y002244D01*
X000224Y002260D01*
X000188Y002282D01*
X000156Y002309D01*
X000129Y002342D01*
X000127Y002344D01*
Y004641D01*
X000127Y004641D01*
X000127D01*
X000128Y004654D01*
X000131Y004684D01*
X000144Y004726D01*
X000164Y004764D01*
X000183Y004787D01*
X000191Y004797D01*
X000192Y004797D01*
X000200Y004806D01*
X001210Y005815D01*
X001800D01*
X001801Y005814D01*
Y005814D01*
X001844Y005818D01*
X001887Y005828D01*
X001928Y005845D01*
X001966Y005868D01*
X001999Y005896D01*
X002028Y005930D01*
X002051Y005968D01*
X002068Y006008D01*
X002078Y006051D01*
X002081Y006095D01*
X002081D01*
X002082Y006108D01*
X002084Y006137D01*
X002094Y006178D01*
X002110Y006217D01*
X002132Y006253D01*
X002160Y006286D01*
X002192Y006313D01*
X002194Y006314D01*
X003820D01*
X003820Y006314D01*
D02*
G37*
G36*
X008247Y004895D02*
X008436Y004895D01*
X008436Y004895D01*
X008436Y004895D01*
X008452Y004895D01*
X008485Y004891D01*
X008518Y004883D01*
X008550Y004872D01*
X008565Y004865D01*
X008580Y004857D01*
X008608Y004838D01*
X008633Y004815D01*
X008654Y004789D01*
X008672Y004760D01*
X008686Y004729D01*
X008695Y004696D01*
X008700Y004663D01*
X008700Y004646D01*
X008700Y004191D01*
X008687Y004185D01*
X008681Y004190D01*
X008642Y004217D01*
X008600Y004240D01*
X008557Y004259D01*
X008512Y004275D01*
X008465Y004286D01*
X008418Y004293D01*
X008370Y004295D01*
X008347Y004295D01*
X008163Y004276D01*
X008163Y004276D01*
X008149Y004273D01*
X008123Y004264D01*
X008097Y004252D01*
X008073Y004237D01*
X008052Y004219D01*
X008032Y004199D01*
X008016Y004176D01*
X008009Y004164D01*
X007997Y004168D01*
X007997Y004645D01*
X007997Y004645D01*
X007997Y004645D01*
X007997Y004670D01*
X008006Y004718D01*
X008025Y004763D01*
X008053Y004804D01*
X008088Y004839D01*
X008129Y004867D01*
X008174Y004885D01*
X008223Y004895D01*
X008247Y004895D01*
D02*
G37*
G36*
X000801Y002321D02*
Y001843D01*
X000801Y001843D01*
X000801Y001819D01*
X000791Y001770D01*
X000772Y001725D01*
X000745Y001684D01*
X000710Y001649D01*
X000669Y001622D01*
X000624Y001603D01*
X000575Y001593D01*
X000551Y001593D01*
X000362Y001593D01*
X000346Y001593D01*
X000312Y001597D01*
X000280Y001605D01*
X000248Y001616D01*
X000233Y001624D01*
X000218Y001631D01*
X000190Y001650D01*
X000165Y001673D01*
X000143Y001699D01*
X000126Y001728D01*
X000112Y001759D01*
X000103Y001792D01*
X000098Y001825D01*
X000098Y001842D01*
X000097Y002306D01*
X000108Y002311D01*
X000114Y002306D01*
X000152Y002275D01*
X000193Y002248D01*
X000236Y002226D01*
X000282Y002210D01*
X000330Y002198D01*
X000378Y002192D01*
X000427Y002191D01*
X000451Y002193D01*
X000635Y002212D01*
X000635Y002212D01*
X000635Y002212D01*
X000648Y002215D01*
X000675Y002224D01*
X000701Y002236D01*
X000724Y002251D01*
X000746Y002269D01*
X000765Y002289D01*
X000782Y002312D01*
X000788Y002324D01*
X000801Y002321D01*
D02*
G37*
G36*
X003134Y000745D02*
X003146Y000732D01*
X003172Y000709D01*
X003201Y000689D01*
X003232Y000674D01*
X003248Y000667D01*
Y000667D01*
X003277Y000663D01*
X003333Y000653D01*
X003388Y000641D01*
X003444Y000628D01*
X003471Y000620D01*
X003645Y000446D01*
X003645Y000446D01*
X003659Y000438D01*
X003687Y000424D01*
X003716Y000412D01*
X003746Y000404D01*
X003777Y000398D01*
X003808Y000395D01*
X003840Y000396D01*
X003871Y000399D01*
X003887Y000402D01*
X003887Y000402D01*
X003918Y000403D01*
X003980Y000403D01*
X004042Y000403D01*
X004103Y000402D01*
X004120Y000402D01*
X004124Y000397D01*
X004126Y000389D01*
X004123Y000385D01*
X004118Y000379D01*
X004116Y000376D01*
X004022Y000246D01*
X003959Y000184D01*
X003852Y000152D01*
X003350Y000152D01*
Y000152D01*
X003325Y000152D01*
X003277Y000161D01*
X003231Y000180D01*
X003190Y000207D01*
X003155Y000242D01*
X003128Y000283D01*
X003109Y000329D01*
X003100Y000377D01*
X003100Y000402D01*
X003100Y000767D01*
X003112Y000772D01*
X003134Y000745D01*
D02*
G37*
G36*
X006998Y000651D02*
X007581Y000651D01*
X007586Y000640D01*
X007224Y000272D01*
X007214Y000258D01*
X007193Y000233D01*
X007168Y000210D01*
X007141Y000191D01*
X007111Y000176D01*
X007080Y000164D01*
X007048Y000156D01*
X007015Y000152D01*
X006998Y000152D01*
X006631Y000152D01*
X006626Y000163D01*
X006698Y000233D01*
X006734Y000307D01*
X006749Y000447D01*
X006749Y000447D01*
X006753Y000468D01*
X006769Y000509D01*
X006791Y000547D01*
X006820Y000580D01*
X006854Y000608D01*
X006892Y000629D01*
X006933Y000644D01*
X006976Y000651D01*
X006998Y000651D01*
D02*
G37*
%LPC*%
G36*
X001800Y006316D02*
X001757Y006312D01*
X001716Y006299D01*
X001677Y006279D01*
X001644Y006251D01*
X001616Y006218D01*
X001596Y006180D01*
X001583Y006138D01*
X001579Y006095D01*
X001583Y006052D01*
X001596Y006010D01*
X001616Y005972D01*
X001644Y005939D01*
X001677Y005911D01*
X001716Y005891D01*
X001757Y005878D01*
X001800Y005874D01*
X001843Y005878D01*
X001885Y005891D01*
X001923Y005911D01*
X001957Y005939D01*
X001984Y005972D01*
X002004Y006010D01*
X002017Y006052D01*
X002021Y006095D01*
X002017Y006138D01*
X002004Y006180D01*
X001984Y006218D01*
X001957Y006251D01*
X001923Y006279D01*
X001885Y006299D01*
X001843Y006312D01*
X001800Y006316D01*
D02*
G37*
G36*
X005447D02*
X005404Y006312D01*
X005362Y006299D01*
X005324Y006279D01*
X005290Y006251D01*
X005263Y006218D01*
X005242Y006180D01*
X005230Y006138D01*
X005226Y006095D01*
X005230Y006052D01*
X005242Y006010D01*
X005263Y005972D01*
X005290Y005939D01*
X005324Y005911D01*
X005362Y005891D01*
X005404Y005878D01*
X005447Y005874D01*
X005490Y005878D01*
X005531Y005891D01*
X005569Y005911D01*
X005603Y005939D01*
X005630Y005972D01*
X005651Y006010D01*
X005663Y006052D01*
X005668Y006095D01*
X005663Y006138D01*
X005651Y006180D01*
X005630Y006218D01*
X005603Y006251D01*
X005569Y006279D01*
X005531Y006299D01*
X005490Y006312D01*
X005447Y006316D01*
D02*
G37*
G36*
X003093Y006192D02*
X003062Y006189D01*
X003032Y006180D01*
X003004Y006165D01*
X002980Y006145D01*
X002960Y006121D01*
X002945Y006093D01*
X002944Y006090D01*
X002839D01*
X002838Y006093D01*
X002823Y006121D01*
X002803Y006145D01*
X002779Y006165D01*
X002751Y006180D01*
X002721Y006189D01*
X002689Y006192D01*
X002658Y006189D01*
X002628Y006180D01*
X002600Y006165D01*
X002576Y006145D01*
X002556Y006121D01*
X002541Y006093D01*
X002532Y006063D01*
X002529Y006031D01*
X002532Y006000D01*
X002541Y005970D01*
X002556Y005942D01*
X002576Y005918D01*
X002600Y005898D01*
X002628Y005883D01*
X002658Y005874D01*
X002689Y005871D01*
X002721Y005874D01*
X002751Y005883D01*
X002779Y005898D01*
X002803Y005918D01*
X002823Y005942D01*
X002838Y005970D01*
X002839Y005973D01*
X002944D01*
X002945Y005970D01*
X002960Y005942D01*
X002980Y005918D01*
X003004Y005898D01*
X003032Y005883D01*
X003062Y005874D01*
X003093Y005871D01*
X003125Y005874D01*
X003155Y005883D01*
X003183Y005898D01*
X003207Y005918D01*
X003227Y005942D01*
X003242Y005970D01*
X003251Y006000D01*
X003254Y006031D01*
X003251Y006063D01*
X003242Y006093D01*
X003227Y006121D01*
X003207Y006145D01*
X003183Y006165D01*
X003155Y006180D01*
X003125Y006189D01*
X003093Y006192D01*
D02*
G37*
G36*
X003113Y005842D02*
Y005703D01*
X003252D01*
X003251Y005714D01*
X003242Y005745D01*
X003227Y005772D01*
X003207Y005797D01*
X003183Y005817D01*
X003155Y005832D01*
X003125Y005841D01*
X003113Y005842D01*
D02*
G37*
G36*
X003073D02*
X003062Y005841D01*
X003032Y005832D01*
X003004Y005817D01*
X002980Y005797D01*
X002960Y005772D01*
X002945Y005745D01*
X002936Y005714D01*
X002934Y005703D01*
X003073D01*
Y005842D01*
D02*
G37*
G36*
X002709D02*
Y005703D01*
X002848D01*
X002847Y005714D01*
X002838Y005745D01*
X002823Y005772D01*
X002803Y005797D01*
X002779Y005817D01*
X002751Y005832D01*
X002721Y005841D01*
X002709Y005842D01*
D02*
G37*
G36*
X002669D02*
X002658Y005841D01*
X002628Y005832D01*
X002600Y005817D01*
X002576Y005797D01*
X002556Y005772D01*
X002541Y005745D01*
X002532Y005714D01*
X002530Y005703D01*
X002669D01*
Y005842D01*
D02*
G37*
G36*
X004269Y005751D02*
X004248Y005747D01*
X004230Y005735D01*
X004218Y005717D01*
X004213Y005695D01*
X004214Y005690D01*
X003810Y005286D01*
X003802Y005274D01*
X003799Y005260D01*
Y003966D01*
X003519Y003686D01*
X003330D01*
X003326Y003698D01*
X003341Y003709D01*
X003354Y003728D01*
X003359Y003750D01*
Y004431D01*
X003354Y004454D01*
X003341Y004473D01*
X003240Y004574D01*
X003242Y004577D01*
X003251Y004607D01*
X003254Y004638D01*
X003251Y004670D01*
X003242Y004700D01*
X003227Y004728D01*
X003207Y004752D01*
X003183Y004772D01*
X003155Y004787D01*
X003125Y004796D01*
X003093Y004799D01*
X003062Y004796D01*
X003032Y004787D01*
X003004Y004772D01*
X002980Y004752D01*
X002960Y004728D01*
X002945Y004700D01*
X002944Y004697D01*
X002839D01*
X002838Y004700D01*
X002823Y004728D01*
X002803Y004752D01*
X002779Y004772D01*
X002751Y004787D01*
X002721Y004796D01*
X002689Y004799D01*
X002658Y004796D01*
X002628Y004787D01*
X002600Y004772D01*
X002576Y004752D01*
X002556Y004728D01*
X002541Y004700D01*
X002532Y004670D01*
X002529Y004638D01*
X002532Y004607D01*
X002541Y004577D01*
X002556Y004549D01*
X002576Y004525D01*
X002600Y004505D01*
X002628Y004490D01*
X002658Y004481D01*
X002689Y004477D01*
X002721Y004481D01*
X002751Y004490D01*
X002779Y004505D01*
X002803Y004525D01*
X002823Y004549D01*
X002838Y004577D01*
X002839Y004580D01*
X002944D01*
X002945Y004577D01*
X002960Y004549D01*
X002980Y004525D01*
X003004Y004505D01*
X003032Y004490D01*
X003062Y004481D01*
X003093Y004477D01*
X003125Y004481D01*
X003155Y004490D01*
X003157Y004491D01*
X003241Y004407D01*
Y004378D01*
X003229Y004375D01*
X003227Y004379D01*
X003207Y004404D01*
X003183Y004424D01*
X003155Y004439D01*
X003125Y004448D01*
X003113Y004449D01*
Y004290D01*
Y004131D01*
X003125Y004132D01*
X003155Y004141D01*
X003183Y004156D01*
X003207Y004176D01*
X003227Y004201D01*
X003229Y004205D01*
X003241Y004202D01*
Y003750D01*
X003246Y003728D01*
X003259Y003709D01*
X003274Y003698D01*
X003270Y003686D01*
X002960D01*
X002894Y003752D01*
X002882Y003760D01*
X002869Y003763D01*
X001227D01*
X001213Y003760D01*
X001202Y003752D01*
X001129Y003679D01*
X000624D01*
X000617Y003692D01*
X000624Y003700D01*
X000628Y003709D01*
X001120D01*
X001134Y003712D01*
X001145Y003720D01*
X001551Y004125D01*
X001559Y004137D01*
X001561Y004151D01*
Y004331D01*
X001568Y004341D01*
X001571Y004359D01*
X001568Y004376D01*
X001558Y004391D01*
X001543Y004401D01*
X001526Y004404D01*
X001508Y004401D01*
X001493Y004391D01*
X001483Y004376D01*
X001480Y004359D01*
X001483Y004341D01*
X001490Y004331D01*
Y004165D01*
X001208Y003884D01*
X001196Y003887D01*
X001196Y003889D01*
X001184Y003908D01*
X001165Y003920D01*
X001144Y003924D01*
X001139Y003923D01*
X000892Y004170D01*
X000881Y004178D01*
X000867Y004181D01*
X000628D01*
X000624Y004190D01*
X000610Y004208D01*
X000591Y004222D01*
X000570Y004231D01*
X000547Y004234D01*
X000524Y004231D01*
X000502Y004222D01*
X000483Y004208D01*
X000469Y004190D01*
X000460Y004168D01*
X000457Y004145D01*
X000460Y004122D01*
X000469Y004100D01*
X000483Y004082D01*
X000502Y004068D01*
X000524Y004059D01*
X000547Y004056D01*
X000570Y004059D01*
X000591Y004068D01*
X000610Y004082D01*
X000624Y004100D01*
X000628Y004109D01*
X000852D01*
X001089Y003873D01*
X001088Y003868D01*
X001092Y003847D01*
X001104Y003828D01*
X001123Y003816D01*
X001124Y003816D01*
X001128Y003804D01*
X001105Y003781D01*
X001028D01*
X001022Y003792D01*
X001026Y003798D01*
X001030Y003819D01*
X001026Y003841D01*
X001014Y003859D01*
X000996Y003871D01*
X000974Y003875D01*
X000953Y003871D01*
X000935Y003859D01*
X000923Y003841D01*
X000918Y003819D01*
X000923Y003798D01*
X000927Y003792D01*
X000921Y003781D01*
X000628D01*
X000624Y003790D01*
X000610Y003808D01*
X000591Y003822D01*
X000570Y003831D01*
X000547Y003834D01*
X000524Y003831D01*
X000502Y003822D01*
X000483Y003808D01*
X000469Y003790D01*
X000460Y003768D01*
X000457Y003745D01*
X000460Y003722D01*
X000469Y003700D01*
X000480Y003687D01*
X000473Y003674D01*
X000445D01*
X000434Y003672D01*
X000424Y003665D01*
X000424Y003665D01*
X000384Y003625D01*
X000370Y003631D01*
X000347Y003634D01*
X000324Y003631D01*
X000302Y003622D01*
X000283Y003608D01*
X000269Y003590D01*
X000260Y003568D01*
X000257Y003545D01*
X000260Y003522D01*
X000269Y003500D01*
X000283Y003482D01*
X000302Y003468D01*
X000324Y003459D01*
X000347Y003456D01*
X000370Y003459D01*
X000391Y003468D01*
X000410Y003482D01*
X000424Y003500D01*
X000433Y003522D01*
X000436Y003545D01*
X000433Y003568D01*
X000427Y003582D01*
X000458Y003613D01*
X000471D01*
X000477Y003600D01*
X000469Y003590D01*
X000460Y003568D01*
X000457Y003545D01*
X000460Y003522D01*
X000469Y003500D01*
X000480Y003487D01*
X000473Y003474D01*
X000445D01*
X000434Y003472D01*
X000424Y003465D01*
X000424Y003465D01*
X000384Y003425D01*
X000370Y003431D01*
X000347Y003434D01*
X000324Y003431D01*
X000302Y003422D01*
X000283Y003408D01*
X000269Y003390D01*
X000260Y003368D01*
X000257Y003345D01*
X000260Y003322D01*
X000269Y003300D01*
X000283Y003282D01*
X000302Y003268D01*
X000324Y003259D01*
X000347Y003256D01*
X000370Y003259D01*
X000391Y003268D01*
X000410Y003282D01*
X000424Y003300D01*
X000433Y003322D01*
X000436Y003345D01*
X000433Y003368D01*
X000427Y003382D01*
X000458Y003413D01*
X000471D01*
X000477Y003400D01*
X000469Y003390D01*
X000460Y003368D01*
X000457Y003345D01*
X000460Y003322D01*
X000469Y003300D01*
X000480Y003287D01*
X000473Y003274D01*
X000445D01*
X000434Y003272D01*
X000424Y003265D01*
X000424Y003265D01*
X000384Y003225D01*
X000370Y003231D01*
X000347Y003234D01*
X000324Y003231D01*
X000302Y003222D01*
X000283Y003208D01*
X000269Y003190D01*
X000260Y003168D01*
X000257Y003145D01*
X000260Y003122D01*
X000269Y003100D01*
X000283Y003082D01*
X000302Y003068D01*
X000324Y003059D01*
X000347Y003056D01*
X000370Y003059D01*
X000391Y003068D01*
X000410Y003082D01*
X000424Y003100D01*
X000433Y003122D01*
X000436Y003145D01*
X000433Y003168D01*
X000427Y003182D01*
X000458Y003213D01*
X000471D01*
X000477Y003200D01*
X000469Y003190D01*
X000460Y003168D01*
X000457Y003145D01*
X000460Y003122D01*
X000469Y003100D01*
X000480Y003087D01*
X000473Y003074D01*
X000445D01*
X000434Y003072D01*
X000424Y003065D01*
X000424Y003065D01*
X000384Y003025D01*
X000370Y003031D01*
X000347Y003034D01*
X000324Y003031D01*
X000302Y003022D01*
X000283Y003008D01*
X000269Y002990D01*
X000260Y002968D01*
X000257Y002945D01*
X000260Y002922D01*
X000269Y002900D01*
X000283Y002882D01*
X000302Y002868D01*
X000324Y002859D01*
X000347Y002856D01*
X000370Y002859D01*
X000391Y002868D01*
X000410Y002882D01*
X000424Y002900D01*
X000433Y002922D01*
X000436Y002945D01*
X000433Y002968D01*
X000427Y002982D01*
X000458Y003013D01*
X000471D01*
X000477Y003000D01*
X000469Y002990D01*
X000460Y002968D01*
X000457Y002945D01*
X000460Y002922D01*
X000469Y002900D01*
X000480Y002887D01*
X000473Y002874D01*
X000445D01*
X000434Y002872D01*
X000424Y002865D01*
X000424Y002865D01*
X000384Y002825D01*
X000370Y002831D01*
X000347Y002834D01*
X000324Y002831D01*
X000302Y002822D01*
X000283Y002808D01*
X000269Y002790D01*
X000260Y002768D01*
X000257Y002745D01*
X000260Y002722D01*
X000269Y002700D01*
X000283Y002682D01*
X000302Y002668D01*
X000324Y002659D01*
X000347Y002656D01*
X000370Y002659D01*
X000391Y002668D01*
X000410Y002682D01*
X000424Y002700D01*
X000433Y002722D01*
X000436Y002745D01*
X000433Y002768D01*
X000427Y002782D01*
X000458Y002813D01*
X000471D01*
X000477Y002800D01*
X000469Y002790D01*
X000460Y002768D01*
X000457Y002745D01*
X000460Y002722D01*
X000469Y002700D01*
X000483Y002682D01*
X000502Y002668D01*
X000524Y002659D01*
X000547Y002656D01*
X000570Y002659D01*
X000591Y002668D01*
X000610Y002682D01*
X000624Y002700D01*
X000628Y002709D01*
X000695D01*
X000709Y002712D01*
X000720Y002720D01*
X000920Y002919D01*
X001138D01*
X001151Y002922D01*
X001163Y002930D01*
X001298Y003064D01*
X002122D01*
X002262Y002925D01*
X002273Y002917D01*
X002287Y002914D01*
X003085D01*
X003250Y002749D01*
Y002342D01*
X003246Y002340D01*
X003234Y002321D01*
X003230Y002300D01*
X003234Y002279D01*
X003246Y002260D01*
X003265Y002248D01*
X003286Y002244D01*
X003304Y002247D01*
X003311Y002236D01*
X003255Y002180D01*
X003247Y002169D01*
X003244Y002155D01*
Y002109D01*
X003195D01*
Y001989D01*
X003365D01*
Y002109D01*
X003316D01*
Y002140D01*
X003400Y002225D01*
X003402Y002227D01*
X003414Y002223D01*
Y001303D01*
X003291Y001180D01*
X003287Y001181D01*
X003265Y001177D01*
X003247Y001165D01*
X003235Y001146D01*
X003230Y001125D01*
X003235Y001104D01*
X003247Y001085D01*
X003265Y001073D01*
X003287Y001069D01*
X003308Y001073D01*
X003326Y001085D01*
X003338Y001104D01*
X003343Y001125D01*
X003342Y001130D01*
X003475Y001263D01*
X003483Y001275D01*
X003486Y001288D01*
Y001314D01*
X003498Y001320D01*
X003502Y001318D01*
X003520Y001314D01*
X003538Y001318D01*
X003548Y001324D01*
X003941D01*
X003942Y001323D01*
X003960Y001320D01*
X003977Y001323D01*
X003992Y001333D01*
X004002Y001347D01*
X004003Y001348D01*
X004014Y001342D01*
Y001075D01*
X004017Y001061D01*
X004025Y001050D01*
X004297Y000778D01*
X004309Y000770D01*
X004322Y000767D01*
X004448D01*
X004451Y000763D01*
X004469Y000751D01*
X004491Y000747D01*
X004512Y000751D01*
X004531Y000763D01*
X004543Y000781D01*
X004547Y000803D01*
X004543Y000824D01*
X004531Y000842D01*
X004512Y000854D01*
X004491Y000859D01*
X004469Y000854D01*
X004451Y000842D01*
X004449Y000838D01*
X004337D01*
X004086Y001090D01*
Y002525D01*
X004083Y002539D01*
X004075Y002550D01*
X003573Y003053D01*
X003578Y003064D01*
X003785D01*
X004368Y002482D01*
X004363Y002470D01*
X004294D01*
Y002405D01*
X004414D01*
Y002419D01*
X004426Y002424D01*
X004539Y002310D01*
Y002160D01*
X004529Y002153D01*
X004517Y002135D01*
X004513Y002113D01*
X004517Y002092D01*
X004529Y002074D01*
X004547Y002062D01*
X004569Y002057D01*
X004590Y002062D01*
X004608Y002074D01*
X004620Y002092D01*
X004625Y002113D01*
X004620Y002135D01*
X004611Y002149D01*
Y002325D01*
X004608Y002339D01*
X004600Y002350D01*
X004498Y002453D01*
X004503Y002464D01*
X005444D01*
X005450Y002453D01*
X005446Y002447D01*
X005441Y002425D01*
Y002052D01*
X005446Y002030D01*
X005459Y002011D01*
X005553Y001917D01*
X005551Y001914D01*
X005542Y001884D01*
X005539Y001852D01*
X005542Y001821D01*
X005551Y001791D01*
X005566Y001763D01*
X005586Y001739D01*
X005611Y001719D01*
X005638Y001704D01*
X005669Y001695D01*
X005700Y001692D01*
X005731Y001695D01*
X005762Y001704D01*
X005789Y001719D01*
X005814Y001739D01*
X005834Y001763D01*
X005849Y001791D01*
X005849Y001794D01*
X005954D01*
X005955Y001791D01*
X005970Y001763D01*
X005990Y001739D01*
X006015Y001719D01*
X006042Y001704D01*
X006072Y001695D01*
X006104Y001692D01*
X006135Y001695D01*
X006165Y001704D01*
X006193Y001719D01*
X006218Y001739D01*
X006238Y001763D01*
X006252Y001791D01*
X006262Y001821D01*
X006265Y001852D01*
X006262Y001884D01*
X006252Y001914D01*
X006238Y001942D01*
X006218Y001966D01*
X006193Y001986D01*
X006165Y002001D01*
X006135Y002010D01*
X006104Y002013D01*
X006072Y002010D01*
X006042Y002001D01*
X006015Y001986D01*
X005990Y001966D01*
X005970Y001942D01*
X005955Y001914D01*
X005954Y001911D01*
X005849D01*
X005849Y001914D01*
X005834Y001942D01*
X005814Y001966D01*
X005789Y001986D01*
X005762Y002001D01*
X005731Y002010D01*
X005700Y002013D01*
X005669Y002010D01*
X005638Y002001D01*
X005636Y002000D01*
X005559Y002077D01*
Y002100D01*
X005571Y002105D01*
X005586Y002086D01*
X005611Y002066D01*
X005638Y002051D01*
X005669Y002042D01*
X005680Y002041D01*
Y002200D01*
Y002359D01*
X005669Y002358D01*
X005638Y002349D01*
X005611Y002334D01*
X005586Y002314D01*
X005571Y002295D01*
X005559Y002300D01*
Y002425D01*
X005554Y002447D01*
X005550Y002453D01*
X005556Y002464D01*
X007010D01*
X007170Y002305D01*
X007169Y002300D01*
X007173Y002279D01*
X007185Y002260D01*
X007204Y002248D01*
X007225Y002244D01*
X007246Y002248D01*
X007265Y002260D01*
X007277Y002279D01*
X007281Y002300D01*
X007277Y002321D01*
X007265Y002340D01*
X007246Y002352D01*
X007225Y002356D01*
X007220Y002355D01*
X007123Y002453D01*
X007128Y002464D01*
X007915D01*
X008431Y001948D01*
X008434Y001936D01*
X008443Y001921D01*
X008458Y001911D01*
X008476Y001907D01*
X008493Y001911D01*
X008508Y001921D01*
X008518Y001936D01*
X008522Y001953D01*
X008518Y001971D01*
X008508Y001986D01*
X008493Y001996D01*
X008482Y001998D01*
X007955Y002525D01*
X007943Y002533D01*
X007929Y002536D01*
X007110D01*
X007071Y002575D01*
X007059Y002583D01*
X007046Y002586D01*
X005437D01*
X005432Y002597D01*
X005676Y002842D01*
X005685Y002843D01*
X005715Y002852D01*
X005743Y002867D01*
X005768Y002887D01*
X005787Y002911D01*
X005802Y002939D01*
X005811Y002969D01*
X005815Y003000D01*
X005811Y003031D01*
X005802Y003061D01*
X005787Y003089D01*
X005768Y003113D01*
X005743Y003133D01*
X005715Y003148D01*
X005685Y003157D01*
X005654Y003160D01*
X005623Y003157D01*
X005593Y003148D01*
X005565Y003133D01*
X005541Y003113D01*
X005521Y003089D01*
X005506Y003061D01*
X005497Y003031D01*
X005494Y003000D01*
X005497Y002969D01*
X005506Y002939D01*
X005521Y002911D01*
X005541Y002887D01*
X005565Y002867D01*
X005578Y002859D01*
X005580Y002847D01*
X005369Y002636D01*
X004527D01*
X004484Y002679D01*
X004488Y002691D01*
X004490Y002691D01*
X004508Y002703D01*
X004520Y002722D01*
X004524Y002743D01*
X004520Y002765D01*
X004508Y002783D01*
X004490Y002795D01*
X004468Y002799D01*
X004447Y002795D01*
X004428Y002783D01*
X004416Y002765D01*
X004416Y002763D01*
X004404Y002759D01*
X003862Y003300D01*
X003851Y003308D01*
X003837Y003311D01*
X003192D01*
X003190Y003315D01*
X003171Y003327D01*
X003150Y003331D01*
X003129Y003327D01*
X003110Y003315D01*
X003098Y003296D01*
X003094Y003275D01*
X003094Y003274D01*
X003082Y003268D01*
X002909Y003441D01*
X002914Y003453D01*
X003032D01*
X003036Y003440D01*
X003035Y003440D01*
X003023Y003421D01*
X003019Y003400D01*
X003023Y003379D01*
X003035Y003360D01*
X003054Y003348D01*
X003075Y003344D01*
X003096Y003348D01*
X003115Y003360D01*
X003117Y003364D01*
X004110D01*
X004124Y003367D01*
X004135Y003375D01*
X004225Y003464D01*
X004318D01*
X004320Y003452D01*
X004312Y003449D01*
X004274Y003429D01*
X004240Y003401D01*
X004213Y003368D01*
X004192Y003330D01*
X004180Y003288D01*
X004176Y003245D01*
X004180Y003202D01*
X004192Y003160D01*
X004213Y003122D01*
X004240Y003089D01*
X004274Y003061D01*
X004312Y003041D01*
X004354Y003028D01*
X004397Y003024D01*
X004440Y003028D01*
X004481Y003041D01*
X004519Y003061D01*
X004553Y003089D01*
X004580Y003122D01*
X004601Y003160D01*
X004613Y003202D01*
X004618Y003245D01*
X004613Y003288D01*
X004601Y003330D01*
X004580Y003368D01*
X004553Y003401D01*
X004519Y003429D01*
X004481Y003449D01*
X004473Y003452D01*
X004475Y003464D01*
X005500D01*
X005506Y003447D01*
X005521Y003419D01*
X005541Y003395D01*
X005565Y003375D01*
X005593Y003360D01*
X005623Y003351D01*
X005654Y003348D01*
X005685Y003351D01*
X005715Y003360D01*
X005743Y003375D01*
X005768Y003395D01*
X005787Y003419D01*
X005802Y003447D01*
X005811Y003477D01*
X005815Y003508D01*
X005811Y003539D01*
X005802Y003569D01*
X005787Y003597D01*
X005768Y003621D01*
X005743Y003641D01*
X005715Y003656D01*
X005685Y003665D01*
X005654Y003668D01*
X005623Y003665D01*
X005593Y003656D01*
X005565Y003641D01*
X005541Y003621D01*
X005521Y003597D01*
X005506Y003569D01*
X005497Y003539D01*
X005496Y003536D01*
X005352D01*
X005348Y003548D01*
X005350Y003550D01*
X005625Y003825D01*
X005633Y003836D01*
X005636Y003850D01*
Y005214D01*
X005633Y005227D01*
X005625Y005239D01*
X005517Y005347D01*
X005515Y005359D01*
X005505Y005374D01*
X005490Y005384D01*
X005472Y005387D01*
X005455Y005384D01*
X005440Y005374D01*
X005430Y005359D01*
X005426Y005341D01*
X005430Y005324D01*
X005440Y005309D01*
X005455Y005299D01*
X005467Y005297D01*
X005564Y005199D01*
Y004680D01*
X005516D01*
Y004758D01*
X005516Y004758D01*
X005530Y004770D01*
X005542Y004784D01*
X005549Y004802D01*
X005551Y004820D01*
X005549Y004838D01*
X005542Y004856D01*
X005530Y004870D01*
X005516Y004882D01*
X005498Y004889D01*
X005480Y004891D01*
X005462Y004889D01*
X005444Y004882D01*
X005430Y004870D01*
X005418Y004856D01*
X005411Y004838D01*
X005409Y004820D01*
X005411Y004802D01*
X005418Y004784D01*
X005430Y004770D01*
X005444Y004758D01*
X005444Y004758D01*
Y004680D01*
X005395D01*
Y004560D01*
X005564D01*
Y004490D01*
X005395D01*
Y004370D01*
X005427D01*
X005432Y004357D01*
X005349Y004275D01*
X005346Y004277D01*
X005325Y004281D01*
X005304Y004277D01*
X005285Y004265D01*
X005273Y004246D01*
X005269Y004225D01*
X005273Y004204D01*
X005285Y004185D01*
X005304Y004173D01*
X005325Y004169D01*
X005346Y004173D01*
X005365Y004185D01*
X005377Y004203D01*
X005383Y004207D01*
X005406Y004230D01*
X005417Y004223D01*
X005421Y004204D01*
X005433Y004185D01*
X005439Y004181D01*
Y003965D01*
X005385Y003911D01*
X003932D01*
X003927Y003922D01*
X004275Y004270D01*
X004283Y004282D01*
X004286Y004296D01*
Y004543D01*
X004286Y004543D01*
X004298Y004561D01*
X004302Y004582D01*
X004298Y004604D01*
X004286Y004622D01*
X004268Y004634D01*
X004246Y004639D01*
X004225Y004634D01*
X004207Y004622D01*
X004195Y004604D01*
X004190Y004582D01*
X004195Y004561D01*
X004207Y004543D01*
X004214Y004538D01*
Y004310D01*
X003882Y003978D01*
X003870Y003983D01*
Y004708D01*
X003879Y004718D01*
X003883Y004718D01*
X003919D01*
Y004803D01*
Y004888D01*
X003883D01*
X003879Y004888D01*
X003870Y004897D01*
Y005246D01*
X004265Y005640D01*
X004269Y005639D01*
X004291Y005643D01*
X004309Y005655D01*
X004321Y005674D01*
X004326Y005695D01*
X004321Y005717D01*
X004309Y005735D01*
X004291Y005747D01*
X004269Y005751D01*
D02*
G37*
G36*
X003252Y005663D02*
X003113D01*
Y005524D01*
X003125Y005525D01*
X003155Y005535D01*
X003183Y005549D01*
X003207Y005569D01*
X003227Y005594D01*
X003242Y005622D01*
X003251Y005652D01*
X003252Y005663D01*
D02*
G37*
G36*
X003073D02*
X002934D01*
X002936Y005652D01*
X002945Y005622D01*
X002960Y005594D01*
X002980Y005569D01*
X003004Y005549D01*
X003032Y005535D01*
X003062Y005525D01*
X003073Y005524D01*
Y005663D01*
D02*
G37*
G36*
X002848D02*
X002709D01*
Y005524D01*
X002721Y005525D01*
X002751Y005535D01*
X002779Y005549D01*
X002803Y005569D01*
X002823Y005594D01*
X002838Y005622D01*
X002847Y005652D01*
X002848Y005663D01*
D02*
G37*
G36*
X002669D02*
X002530D01*
X002532Y005652D01*
X002541Y005622D01*
X002556Y005594D01*
X002576Y005569D01*
X002600Y005549D01*
X002628Y005535D01*
X002658Y005525D01*
X002669Y005524D01*
Y005663D01*
D02*
G37*
G36*
X004359Y005424D02*
X004347Y005415D01*
X004338Y005403D01*
X004359D01*
Y005424D01*
D02*
G37*
G36*
X003093Y005496D02*
X003062Y005492D01*
X003032Y005483D01*
X003004Y005468D01*
X002980Y005448D01*
X002960Y005424D01*
X002945Y005396D01*
X002944Y005393D01*
X002839D01*
X002838Y005396D01*
X002823Y005424D01*
X002803Y005448D01*
X002779Y005468D01*
X002751Y005483D01*
X002721Y005492D01*
X002689Y005496D01*
X002658Y005492D01*
X002628Y005483D01*
X002600Y005468D01*
X002576Y005448D01*
X002556Y005424D01*
X002541Y005396D01*
X002532Y005366D01*
X002529Y005335D01*
X002532Y005303D01*
X002541Y005273D01*
X002556Y005245D01*
X002576Y005221D01*
X002600Y005201D01*
X002628Y005186D01*
X002658Y005177D01*
X002689Y005174D01*
X002721Y005177D01*
X002751Y005186D01*
X002779Y005201D01*
X002803Y005221D01*
X002823Y005245D01*
X002838Y005273D01*
X002839Y005276D01*
X002944D01*
X002945Y005273D01*
X002960Y005245D01*
X002980Y005221D01*
X003004Y005201D01*
X003032Y005186D01*
X003062Y005177D01*
X003093Y005174D01*
X003125Y005177D01*
X003155Y005186D01*
X003183Y005201D01*
X003207Y005221D01*
X003227Y005245D01*
X003242Y005273D01*
X003251Y005303D01*
X003254Y005335D01*
X003251Y005366D01*
X003242Y005396D01*
X003227Y005424D01*
X003207Y005448D01*
X003183Y005468D01*
X003155Y005483D01*
X003125Y005492D01*
X003093Y005496D01*
D02*
G37*
G36*
X001511Y005406D02*
X001499Y005398D01*
X001491Y005385D01*
X001511D01*
Y005406D01*
D02*
G37*
G36*
X001736Y005403D02*
X001724Y005395D01*
X001716Y005382D01*
X001736D01*
Y005403D01*
D02*
G37*
G36*
X001511Y005345D02*
X001491D01*
X001499Y005333D01*
X001511Y005324D01*
Y005345D01*
D02*
G37*
G36*
X001776Y005403D02*
Y005362D01*
Y005318D01*
X001800Y005295D01*
Y005270D01*
X001800Y005267D01*
Y005265D01*
X001920D01*
Y005330D01*
X001864D01*
X001861Y005335D01*
X001814Y005382D01*
X001802Y005390D01*
X001791Y005392D01*
X001789Y005395D01*
X001776Y005403D01*
D02*
G37*
G36*
X001736Y005342D02*
X001716D01*
X001716Y005342D01*
X001710Y005330D01*
X001690D01*
Y005265D01*
X001730D01*
Y005312D01*
X001736Y005315D01*
Y005342D01*
D02*
G37*
G36*
X001551Y005406D02*
Y005365D01*
Y005324D01*
X001559Y005329D01*
X001561D01*
X001610Y005280D01*
Y005265D01*
X001650D01*
Y005341D01*
X001601Y005390D01*
X001589Y005398D01*
X001576Y005401D01*
X001559D01*
X001551Y005406D01*
D02*
G37*
G36*
X004399Y005424D02*
Y005383D01*
X004379D01*
Y005363D01*
X004338D01*
X004347Y005351D01*
X004362Y005341D01*
X004369Y005339D01*
Y005313D01*
X004345D01*
Y005248D01*
X004405D01*
X004465D01*
Y005313D01*
X004440D01*
Y005358D01*
X004438Y005371D01*
X004430Y005383D01*
X004424Y005389D01*
X004422Y005401D01*
X004412Y005415D01*
X004399Y005424D01*
D02*
G37*
G36*
X001920Y005225D02*
X001880D01*
Y005160D01*
X001920D01*
Y005225D01*
D02*
G37*
G36*
X001840D02*
X001800D01*
Y005160D01*
X001840D01*
Y005225D01*
D02*
G37*
G36*
X001730D02*
X001690D01*
Y005160D01*
X001730D01*
Y005225D01*
D02*
G37*
G36*
X001650D02*
X001610D01*
Y005160D01*
X001650D01*
Y005225D01*
D02*
G37*
G36*
X004519Y005429D02*
X004502Y005425D01*
X004487Y005415D01*
X004477Y005401D01*
X004473Y005383D01*
X004477Y005365D01*
X004487Y005351D01*
X004502Y005341D01*
X004513Y005338D01*
X004529Y005323D01*
X004535Y005313D01*
X004535D01*
X004535Y005313D01*
Y005143D01*
X004655D01*
Y005313D01*
X004618D01*
Y005320D01*
X004615Y005334D01*
X004607Y005345D01*
X004564Y005389D01*
X004562Y005401D01*
X004552Y005415D01*
X004537Y005425D01*
X004519Y005429D01*
D02*
G37*
G36*
X004465Y005208D02*
X004425D01*
Y005143D01*
X004465D01*
Y005208D01*
D02*
G37*
G36*
X004385D02*
X004345D01*
Y005143D01*
X004385D01*
Y005208D01*
D02*
G37*
G36*
X001514Y005226D02*
X001492Y005222D01*
X001474Y005210D01*
X001462Y005192D01*
X001458Y005170D01*
X001462Y005149D01*
X001474Y005130D01*
X001492Y005118D01*
X001514Y005114D01*
X001535Y005118D01*
X001553Y005130D01*
X001566Y005149D01*
X001570Y005170D01*
X001566Y005192D01*
X001553Y005210D01*
X001535Y005222D01*
X001514Y005226D01*
D02*
G37*
G36*
X004810Y005176D02*
X004792Y005172D01*
X004778Y005162D01*
X004768Y005148D01*
X004764Y005130D01*
X004768Y005112D01*
X004778Y005098D01*
X004792Y005088D01*
X004810Y005084D01*
X004828Y005088D01*
X004838Y005094D01*
X005107D01*
X005115Y005093D01*
X005195D01*
X005206Y005086D01*
X005223Y005082D01*
X005241Y005086D01*
X005256Y005096D01*
X005266Y005111D01*
X005269Y005128D01*
X005266Y005146D01*
X005256Y005161D01*
X005241Y005170D01*
X005223Y005174D01*
X005206Y005170D01*
X005196Y005164D01*
X005122D01*
X005114Y005166D01*
X004838D01*
X004828Y005172D01*
X004810Y005176D01*
D02*
G37*
G36*
X005500Y005079D02*
Y005031D01*
X005548D01*
X005542Y005046D01*
X005530Y005061D01*
X005516Y005072D01*
X005500Y005079D01*
D02*
G37*
G36*
X005460D02*
X005444Y005072D01*
X005430Y005061D01*
X005418Y005046D01*
X005412Y005031D01*
X005460D01*
Y005079D01*
D02*
G37*
G36*
X003113Y005145D02*
Y005007D01*
X003252D01*
X003251Y005018D01*
X003242Y005048D01*
X003227Y005076D01*
X003207Y005100D01*
X003183Y005120D01*
X003155Y005135D01*
X003125Y005144D01*
X003113Y005145D01*
D02*
G37*
G36*
X003073D02*
X003062Y005144D01*
X003032Y005135D01*
X003004Y005120D01*
X002980Y005100D01*
X002960Y005076D01*
X002945Y005048D01*
X002936Y005018D01*
X002934Y005007D01*
X003073D01*
Y005145D01*
D02*
G37*
G36*
X002709D02*
Y005007D01*
X002848D01*
X002847Y005018D01*
X002838Y005048D01*
X002823Y005076D01*
X002803Y005100D01*
X002779Y005120D01*
X002751Y005135D01*
X002721Y005144D01*
X002709Y005145D01*
D02*
G37*
G36*
X002669D02*
X002658Y005144D01*
X002628Y005135D01*
X002600Y005120D01*
X002576Y005100D01*
X002556Y005076D01*
X002541Y005048D01*
X002532Y005018D01*
X002530Y005007D01*
X002669D01*
Y005145D01*
D02*
G37*
G36*
X001000Y004966D02*
X000983Y004963D01*
X000973Y004956D01*
X000555D01*
X000545Y004963D01*
X000528Y004966D01*
X000510Y004963D01*
X000495Y004953D01*
X000485Y004938D01*
X000482Y004920D01*
X000485Y004903D01*
X000495Y004888D01*
X000510Y004878D01*
X000528Y004874D01*
X000545Y004878D01*
X000555Y004885D01*
X000973D01*
X000983Y004878D01*
X001000Y004874D01*
X001018Y004878D01*
X001033Y004888D01*
X001043Y004903D01*
X001046Y004920D01*
X001043Y004938D01*
X001033Y004953D01*
X001018Y004963D01*
X001000Y004966D01*
D02*
G37*
G36*
X005548Y004990D02*
X005500D01*
Y004942D01*
X005516Y004949D01*
X005530Y004960D01*
X005542Y004975D01*
X005548Y004990D01*
D02*
G37*
G36*
X005460D02*
X005412D01*
X005418Y004975D01*
X005430Y004960D01*
X005444Y004949D01*
X005460Y004942D01*
Y004990D01*
D02*
G37*
G36*
X001454Y004905D02*
X001414D01*
Y004840D01*
X001454D01*
Y004905D01*
D02*
G37*
G36*
X001374D02*
X001334D01*
Y004840D01*
X001374D01*
Y004905D01*
D02*
G37*
G36*
X003252Y004967D02*
X003113D01*
Y004828D01*
X003125Y004829D01*
X003155Y004838D01*
X003183Y004853D01*
X003207Y004873D01*
X003227Y004897D01*
X003242Y004925D01*
X003251Y004955D01*
X003252Y004967D01*
D02*
G37*
G36*
X003073D02*
X002934D01*
X002936Y004955D01*
X002945Y004925D01*
X002960Y004897D01*
X002980Y004873D01*
X003004Y004853D01*
X003032Y004838D01*
X003062Y004829D01*
X003073Y004828D01*
Y004967D01*
D02*
G37*
G36*
X002848D02*
X002709D01*
Y004828D01*
X002721Y004829D01*
X002751Y004838D01*
X002779Y004853D01*
X002803Y004873D01*
X002823Y004897D01*
X002838Y004925D01*
X002847Y004955D01*
X002848Y004967D01*
D02*
G37*
G36*
X002669D02*
X002530D01*
X002532Y004955D01*
X002541Y004925D01*
X002556Y004897D01*
X002576Y004873D01*
X002600Y004853D01*
X002628Y004838D01*
X002658Y004829D01*
X002669Y004828D01*
Y004967D01*
D02*
G37*
G36*
X004189Y004888D02*
X004149D01*
Y004823D01*
X004189D01*
Y004888D01*
D02*
G37*
G36*
X003959D02*
Y004823D01*
X003999D01*
Y004888D01*
X003959D01*
D02*
G37*
G36*
X004109D02*
X004069D01*
Y004823D01*
X004109D01*
Y004888D01*
D02*
G37*
G36*
X004278Y004934D02*
X004257Y004930D01*
X004239Y004918D01*
X004227Y004900D01*
X004222Y004878D01*
X004227Y004857D01*
X004239Y004839D01*
X004257Y004827D01*
X004278Y004822D01*
X004300Y004827D01*
X004318Y004839D01*
X004330Y004857D01*
X004334Y004878D01*
X004330Y004900D01*
X004318Y004918D01*
X004300Y004930D01*
X004278Y004934D01*
D02*
G37*
G36*
X004109Y004783D02*
X004069D01*
Y004746D01*
X004056Y004739D01*
X004049Y004744D01*
Y004703D01*
Y004662D01*
X004062Y004671D01*
X004072Y004685D01*
X004075Y004703D01*
X004074Y004708D01*
X004082Y004718D01*
X004109D01*
Y004783D01*
D02*
G37*
G36*
X004259Y004744D02*
Y004723D01*
X004280D01*
X004272Y004735D01*
X004259Y004744D01*
D02*
G37*
G36*
X004280Y004683D02*
X004259D01*
Y004662D01*
X004272Y004671D01*
X004280Y004683D01*
D02*
G37*
G36*
X004197Y004783D02*
X004149D01*
Y004718D01*
X004150D01*
X004154Y004717D01*
X004164D01*
X004198Y004684D01*
X004199Y004683D01*
X004207Y004671D01*
X004219Y004662D01*
Y004703D01*
Y004763D01*
X004204Y004778D01*
X004197Y004783D01*
D02*
G37*
G36*
X003999D02*
X003959D01*
Y004707D01*
X003988Y004678D01*
X003995Y004673D01*
X003997Y004671D01*
X004009Y004662D01*
Y004703D01*
Y004758D01*
X003999Y004768D01*
Y004783D01*
D02*
G37*
G36*
X000327Y004753D02*
X000309Y004749D01*
X000294Y004739D01*
X000284Y004724D01*
X000281Y004707D01*
X000284Y004689D01*
X000294Y004674D01*
X000309Y004664D01*
X000327Y004661D01*
X000344Y004664D01*
X000359Y004674D01*
X000369Y004689D01*
X000373Y004707D01*
X000369Y004724D01*
X000359Y004739D01*
X000344Y004749D01*
X000327Y004753D01*
D02*
G37*
G36*
X001494Y004640D02*
X001473D01*
Y004619D01*
X001485Y004628D01*
X001494Y004640D01*
D02*
G37*
G36*
X001454Y004800D02*
X001334D01*
Y004735D01*
X001375D01*
Y004710D01*
X001378Y004697D01*
X001385Y004685D01*
X001407Y004663D01*
X001407Y004660D01*
X001410Y004643D01*
X001420Y004628D01*
X001433Y004619D01*
Y004660D01*
X001453D01*
Y004680D01*
X001494D01*
X001485Y004693D01*
X001470Y004702D01*
X001469Y004703D01*
X001449Y004723D01*
X001452Y004735D01*
X001454D01*
Y004800D01*
D02*
G37*
G36*
X001264Y004905D02*
X001144D01*
Y004735D01*
X001194D01*
Y004711D01*
X001197Y004698D01*
X001204Y004686D01*
X001227Y004663D01*
X001227Y004660D01*
X001230Y004643D01*
X001240Y004628D01*
X001255Y004618D01*
X001273Y004614D01*
X001290Y004618D01*
X001305Y004628D01*
X001315Y004643D01*
X001319Y004660D01*
X001315Y004678D01*
X001305Y004693D01*
X001290Y004702D01*
X001289Y004703D01*
X001265Y004726D01*
Y004795D01*
X001264Y004799D01*
Y004905D01*
D02*
G37*
G36*
X003073Y004449D02*
X003062Y004448D01*
X003032Y004439D01*
X003004Y004424D01*
X002980Y004404D01*
X002960Y004379D01*
X002945Y004352D01*
X002936Y004321D01*
X002934Y004310D01*
X003073D01*
Y004449D01*
D02*
G37*
G36*
X002709D02*
Y004310D01*
X002848D01*
X002847Y004321D01*
X002838Y004352D01*
X002823Y004379D01*
X002803Y004404D01*
X002779Y004424D01*
X002751Y004439D01*
X002721Y004448D01*
X002709Y004449D01*
D02*
G37*
G36*
X002669D02*
X002658Y004448D01*
X002628Y004439D01*
X002600Y004424D01*
X002576Y004404D01*
X002556Y004379D01*
X002541Y004352D01*
X002532Y004321D01*
X002530Y004310D01*
X002669D01*
Y004449D01*
D02*
G37*
G36*
X004359Y004311D02*
X004347Y004302D01*
X004338Y004290D01*
X004359D01*
Y004311D01*
D02*
G37*
G36*
X004399D02*
Y004270D01*
X004379D01*
Y004250D01*
X004338D01*
X004347Y004238D01*
X004362Y004228D01*
X004369Y004226D01*
Y004200D01*
X004345D01*
Y004135D01*
X004405D01*
X004465D01*
Y004200D01*
X004440D01*
Y004245D01*
X004438Y004258D01*
X004430Y004270D01*
X004424Y004276D01*
X004422Y004288D01*
X004412Y004302D01*
X004399Y004311D01*
D02*
G37*
G36*
X003073Y004270D02*
X002934D01*
X002936Y004259D01*
X002945Y004228D01*
X002960Y004201D01*
X002980Y004176D01*
X003004Y004156D01*
X003032Y004141D01*
X003062Y004132D01*
X003073Y004131D01*
Y004270D01*
D02*
G37*
G36*
X002848D02*
X002709D01*
Y004131D01*
X002721Y004132D01*
X002751Y004141D01*
X002779Y004156D01*
X002803Y004176D01*
X002823Y004201D01*
X002838Y004228D01*
X002847Y004259D01*
X002848Y004270D01*
D02*
G37*
G36*
X002669D02*
X002530D01*
X002532Y004259D01*
X002541Y004228D01*
X002556Y004201D01*
X002576Y004176D01*
X002600Y004156D01*
X002628Y004141D01*
X002658Y004132D01*
X002669Y004131D01*
Y004270D01*
D02*
G37*
G36*
X005223Y004061D02*
X005206Y004057D01*
X005196Y004051D01*
X004826D01*
X004817Y004057D01*
X004800Y004060D01*
X004782Y004057D01*
X004767Y004047D01*
X004757Y004032D01*
X004754Y004014D01*
X004757Y003997D01*
X004767Y003982D01*
X004782Y003972D01*
X004800Y003968D01*
X004817Y003972D01*
X004828Y003979D01*
X005196D01*
X005206Y003973D01*
X005223Y003969D01*
X005241Y003973D01*
X005256Y003983D01*
X005266Y003998D01*
X005269Y004015D01*
X005266Y004033D01*
X005256Y004048D01*
X005241Y004057D01*
X005223Y004061D01*
D02*
G37*
G36*
X004519Y004316D02*
X004502Y004312D01*
X004487Y004302D01*
X004477Y004288D01*
X004473Y004270D01*
X004477Y004252D01*
X004487Y004238D01*
X004502Y004228D01*
X004513Y004225D01*
X004529Y004210D01*
X004535Y004200D01*
X004535D01*
X004535Y004200D01*
Y004030D01*
X004655D01*
Y004200D01*
X004618D01*
Y004207D01*
X004615Y004221D01*
X004607Y004232D01*
X004564Y004276D01*
X004562Y004288D01*
X004552Y004302D01*
X004537Y004312D01*
X004519Y004316D01*
D02*
G37*
G36*
X004465Y004095D02*
X004425D01*
Y004030D01*
X004465D01*
Y004095D01*
D02*
G37*
G36*
X004385D02*
X004345D01*
Y004030D01*
X004385D01*
Y004095D01*
D02*
G37*
G36*
X000547Y004034D02*
X000524Y004031D01*
X000502Y004022D01*
X000483Y004008D01*
X000469Y003990D01*
X000460Y003968D01*
X000457Y003945D01*
X000460Y003922D01*
X000469Y003900D01*
X000483Y003882D01*
X000502Y003868D01*
X000524Y003859D01*
X000547Y003856D01*
X000570Y003859D01*
X000591Y003868D01*
X000610Y003882D01*
X000624Y003900D01*
X000633Y003922D01*
X000636Y003945D01*
X000633Y003968D01*
X000624Y003990D01*
X000610Y004008D01*
X000591Y004022D01*
X000570Y004031D01*
X000547Y004034D01*
D02*
G37*
G36*
X000225Y004406D02*
X000204Y004402D01*
X000185Y004390D01*
X000173Y004371D01*
X000169Y004350D01*
X000173Y004329D01*
X000185Y004310D01*
X000189Y004308D01*
Y003867D01*
X000192Y003853D01*
X000200Y003841D01*
X000264Y003777D01*
X000260Y003768D01*
X000257Y003745D01*
X000260Y003722D01*
X000269Y003700D01*
X000283Y003682D01*
X000302Y003668D01*
X000324Y003659D01*
X000347Y003656D01*
X000370Y003659D01*
X000391Y003668D01*
X000410Y003682D01*
X000424Y003700D01*
X000433Y003722D01*
X000436Y003745D01*
X000433Y003768D01*
X000424Y003790D01*
X000410Y003808D01*
X000391Y003822D01*
X000370Y003831D01*
X000347Y003834D01*
X000324Y003831D01*
X000315Y003828D01*
X000263Y003879D01*
X000264Y003886D01*
X000278Y003889D01*
X000283Y003882D01*
X000302Y003868D01*
X000324Y003859D01*
X000347Y003856D01*
X000370Y003859D01*
X000391Y003868D01*
X000410Y003882D01*
X000424Y003900D01*
X000433Y003922D01*
X000436Y003945D01*
X000433Y003968D01*
X000424Y003990D01*
X000410Y004008D01*
X000391Y004022D01*
X000370Y004031D01*
X000347Y004034D01*
X000324Y004031D01*
X000302Y004022D01*
X000283Y004008D01*
X000273Y003995D01*
X000261Y003999D01*
Y004056D01*
X000435D01*
Y004234D01*
X000261D01*
Y004308D01*
X000265Y004310D01*
X000277Y004329D01*
X000281Y004350D01*
X000277Y004371D01*
X000265Y004390D01*
X000246Y004402D01*
X000225Y004406D01*
D02*
G37*
G36*
X008410Y003681D02*
X008376Y003678D01*
X008344Y003668D01*
X008314Y003652D01*
X008287Y003630D01*
X008266Y003604D01*
X008250Y003574D01*
X008240Y003542D01*
X008237Y003508D01*
X008240Y003474D01*
X008250Y003442D01*
X008266Y003412D01*
X008287Y003386D01*
X008314Y003364D01*
X008344Y003348D01*
X008376Y003338D01*
X008410Y003335D01*
X008444Y003338D01*
X008476Y003348D01*
X008506Y003364D01*
X008532Y003386D01*
X008554Y003412D01*
X008570Y003442D01*
X008580Y003474D01*
X008583Y003508D01*
X008580Y003542D01*
X008570Y003574D01*
X008554Y003604D01*
X008532Y003630D01*
X008506Y003652D01*
X008476Y003668D01*
X008444Y003678D01*
X008410Y003681D01*
D02*
G37*
G36*
X006403Y003427D02*
X006370Y003424D01*
X006337Y003414D01*
X006307Y003398D01*
X006281Y003376D01*
X006259Y003350D01*
X006243Y003320D01*
X006233Y003288D01*
X006230Y003254D01*
X006233Y003220D01*
X006243Y003188D01*
X006259Y003158D01*
X006281Y003132D01*
X006307Y003110D01*
X006337Y003094D01*
X006370Y003084D01*
X006403Y003081D01*
X006437Y003084D01*
X006470Y003094D01*
X006500Y003110D01*
X006526Y003132D01*
X006547Y003158D01*
X006563Y003188D01*
X006573Y003220D01*
X006577Y003254D01*
X006573Y003288D01*
X006563Y003320D01*
X006547Y003350D01*
X006526Y003376D01*
X006500Y003398D01*
X006470Y003414D01*
X006437Y003424D01*
X006403Y003427D01*
D02*
G37*
G36*
X005413D02*
X005379Y003424D01*
X005346Y003414D01*
X005316Y003398D01*
X005290Y003376D01*
X005269Y003350D01*
X005253Y003320D01*
X005243Y003288D01*
X005240Y003254D01*
X005243Y003220D01*
X005253Y003188D01*
X005269Y003158D01*
X005290Y003132D01*
X005316Y003110D01*
X005346Y003094D01*
X005379Y003084D01*
X005413Y003081D01*
X005447Y003084D01*
X005479Y003094D01*
X005509Y003110D01*
X005535Y003132D01*
X005557Y003158D01*
X005573Y003188D01*
X005583Y003220D01*
X005586Y003254D01*
X005583Y003288D01*
X005573Y003320D01*
X005557Y003350D01*
X005535Y003376D01*
X005509Y003398D01*
X005479Y003414D01*
X005447Y003424D01*
X005413Y003427D01*
D02*
G37*
G36*
X004500Y002950D02*
X004487Y002942D01*
X004479Y002930D01*
X004500D01*
Y002950D01*
D02*
G37*
G36*
X001834Y003031D02*
X001813Y003027D01*
X001794Y003015D01*
X001782Y002996D01*
X001778Y002975D01*
X001782Y002954D01*
X001794Y002935D01*
X001813Y002923D01*
X001834Y002919D01*
X001856Y002923D01*
X001874Y002935D01*
X001886Y002954D01*
X001890Y002975D01*
X001886Y002996D01*
X001874Y003015D01*
X001856Y003027D01*
X001834Y003031D01*
D02*
G37*
G36*
X001431D02*
X001409Y003027D01*
X001391Y003015D01*
X001379Y002996D01*
X001375Y002975D01*
X001379Y002954D01*
X001391Y002935D01*
X001409Y002923D01*
X001431Y002919D01*
X001452Y002923D01*
X001471Y002935D01*
X001483Y002954D01*
X001487Y002975D01*
X001483Y002996D01*
X001471Y003015D01*
X001452Y003027D01*
X001431Y003031D01*
D02*
G37*
G36*
X004710Y002950D02*
X004697Y002942D01*
X004687Y002927D01*
X004684Y002910D01*
X004685Y002905D01*
X004677Y002895D01*
X004650D01*
Y002830D01*
X004690D01*
Y002867D01*
X004703Y002874D01*
X004710Y002869D01*
Y002910D01*
Y002950D01*
D02*
G37*
G36*
X004500Y002890D02*
X004479D01*
X004487Y002877D01*
X004500Y002869D01*
Y002890D01*
D02*
G37*
G36*
X004880Y002895D02*
X004840D01*
Y002830D01*
X004880D01*
Y002895D01*
D02*
G37*
G36*
X004750Y002950D02*
Y002910D01*
Y002855D01*
X004760Y002845D01*
Y002830D01*
X004800D01*
Y002905D01*
X004771Y002935D01*
X004764Y002939D01*
X004762Y002942D01*
X004750Y002950D01*
D02*
G37*
G36*
X004540D02*
Y002910D01*
Y002850D01*
X004555Y002835D01*
X004562Y002830D01*
X004610D01*
Y002895D01*
X004608D01*
X004605Y002896D01*
X004595D01*
X004561Y002929D01*
X004560Y002930D01*
X004552Y002942D01*
X004540Y002950D01*
D02*
G37*
G36*
X008582Y003172D02*
X008238D01*
Y002828D01*
X008582D01*
Y003172D01*
D02*
G37*
G36*
X004880Y002790D02*
X004840D01*
Y002725D01*
X004880D01*
Y002790D01*
D02*
G37*
G36*
X004800D02*
X004760D01*
Y002725D01*
X004800D01*
Y002790D01*
D02*
G37*
G36*
X004690D02*
X004650D01*
Y002725D01*
X004690D01*
Y002790D01*
D02*
G37*
G36*
X004610D02*
X004570D01*
Y002725D01*
X004610D01*
Y002790D01*
D02*
G37*
G36*
X000547Y002634D02*
X000524Y002631D01*
X000502Y002622D01*
X000483Y002608D01*
X000469Y002590D01*
X000460Y002568D01*
X000457Y002545D01*
X000460Y002522D01*
X000469Y002500D01*
X000483Y002482D01*
X000502Y002468D01*
X000524Y002459D01*
X000547Y002456D01*
X000570Y002459D01*
X000591Y002468D01*
X000610Y002482D01*
X000624Y002500D01*
X000633Y002522D01*
X000636Y002545D01*
X000633Y002568D01*
X000624Y002590D01*
X000610Y002608D01*
X000591Y002622D01*
X000570Y002631D01*
X000547Y002634D01*
D02*
G37*
G36*
X000347D02*
X000324Y002631D01*
X000302Y002622D01*
X000283Y002608D01*
X000269Y002590D01*
X000260Y002568D01*
X000257Y002545D01*
X000260Y002522D01*
X000269Y002500D01*
X000283Y002482D01*
X000302Y002468D01*
X000324Y002459D01*
X000347Y002456D01*
X000370Y002459D01*
X000391Y002468D01*
X000410Y002482D01*
X000424Y002500D01*
X000433Y002522D01*
X000436Y002545D01*
X000433Y002568D01*
X000424Y002590D01*
X000410Y002608D01*
X000391Y002622D01*
X000370Y002631D01*
X000347Y002634D01*
D02*
G37*
G36*
X008306Y002463D02*
Y002443D01*
X008327D01*
X008319Y002455D01*
X008306Y002463D01*
D02*
G37*
G36*
X008266D02*
X008254Y002455D01*
X008246Y002443D01*
X008266D01*
Y002463D01*
D02*
G37*
G36*
X008327Y002403D02*
X008306D01*
Y002382D01*
X008319Y002390D01*
X008327Y002403D01*
D02*
G37*
G36*
X008266D02*
X008246D01*
X008254Y002390D01*
X008266Y002382D01*
Y002403D01*
D02*
G37*
G36*
X000567Y002432D02*
Y002365D01*
X000633D01*
X000633Y002368D01*
X000624Y002390D01*
X000610Y002408D01*
X000591Y002422D01*
X000570Y002431D01*
X000567Y002432D01*
D02*
G37*
G36*
X000527D02*
X000524Y002431D01*
X000502Y002422D01*
X000483Y002408D01*
X000469Y002390D01*
X000460Y002368D01*
X000460Y002365D01*
X000527D01*
Y002432D01*
D02*
G37*
G36*
X000633Y002325D02*
X000567D01*
Y002258D01*
X000570Y002259D01*
X000591Y002268D01*
X000610Y002282D01*
X000624Y002300D01*
X000633Y002322D01*
X000633Y002325D01*
D02*
G37*
G36*
X000527D02*
X000460D01*
X000460Y002322D01*
X000469Y002300D01*
X000483Y002282D01*
X000502Y002268D01*
X000524Y002259D01*
X000527Y002258D01*
Y002325D01*
D02*
G37*
G36*
X000347Y002434D02*
X000324Y002431D01*
X000302Y002422D01*
X000283Y002408D01*
X000269Y002390D01*
X000260Y002368D01*
X000257Y002345D01*
X000260Y002322D01*
X000269Y002300D01*
X000283Y002282D01*
X000302Y002268D01*
X000324Y002259D01*
X000347Y002256D01*
X000370Y002259D01*
X000391Y002268D01*
X000410Y002282D01*
X000424Y002300D01*
X000433Y002322D01*
X000436Y002345D01*
X000433Y002368D01*
X000424Y002390D01*
X000410Y002408D01*
X000391Y002422D01*
X000370Y002431D01*
X000347Y002434D01*
D02*
G37*
G36*
X006124Y002359D02*
Y002220D01*
X006263D01*
X006262Y002231D01*
X006252Y002262D01*
X006238Y002289D01*
X006218Y002314D01*
X006193Y002334D01*
X006165Y002349D01*
X006135Y002358D01*
X006124Y002359D01*
D02*
G37*
G36*
X006084D02*
X006072Y002358D01*
X006042Y002349D01*
X006015Y002334D01*
X005990Y002314D01*
X005970Y002289D01*
X005955Y002262D01*
X005946Y002231D01*
X005945Y002220D01*
X006084D01*
Y002359D01*
D02*
G37*
G36*
X005720D02*
Y002220D01*
X005859D01*
X005858Y002231D01*
X005849Y002262D01*
X005834Y002289D01*
X005814Y002314D01*
X005789Y002334D01*
X005762Y002349D01*
X005731Y002358D01*
X005720Y002359D01*
D02*
G37*
G36*
X004420Y002210D02*
X004400D01*
Y002189D01*
X004412Y002197D01*
X004420Y002210D01*
D02*
G37*
G36*
X004414Y002365D02*
X004294D01*
Y002300D01*
X004318D01*
Y002255D01*
X004321Y002242D01*
X004329Y002230D01*
X004335Y002224D01*
X004337Y002212D01*
X004347Y002197D01*
X004360Y002189D01*
Y002230D01*
X004380D01*
Y002250D01*
X004420D01*
X004412Y002262D01*
X004397Y002272D01*
X004390Y002274D01*
Y002300D01*
X004414D01*
Y002365D01*
D02*
G37*
G36*
X004224Y002470D02*
X004104D01*
Y002300D01*
X004141D01*
Y002293D01*
X004144Y002279D01*
X004151Y002267D01*
X004195Y002224D01*
X004197Y002212D01*
X004207Y002197D01*
X004222Y002187D01*
X004240Y002184D01*
X004257Y002187D01*
X004272Y002197D01*
X004282Y002212D01*
X004285Y002230D01*
X004282Y002247D01*
X004272Y002262D01*
X004257Y002272D01*
X004245Y002274D01*
X004230Y002290D01*
X004224Y002300D01*
X004224D01*
X004224Y002300D01*
Y002470D01*
D02*
G37*
G36*
X006263Y002180D02*
X006124D01*
Y002041D01*
X006135Y002042D01*
X006165Y002051D01*
X006193Y002066D01*
X006218Y002086D01*
X006238Y002111D01*
X006252Y002138D01*
X006262Y002169D01*
X006263Y002180D01*
D02*
G37*
G36*
X006084D02*
X005945D01*
X005946Y002169D01*
X005955Y002138D01*
X005970Y002111D01*
X005990Y002086D01*
X006015Y002066D01*
X006042Y002051D01*
X006072Y002042D01*
X006084Y002041D01*
Y002180D01*
D02*
G37*
G36*
X005859D02*
X005720D01*
Y002041D01*
X005731Y002042D01*
X005762Y002051D01*
X005789Y002066D01*
X005814Y002086D01*
X005834Y002111D01*
X005849Y002138D01*
X005858Y002169D01*
X005859Y002180D01*
D02*
G37*
G36*
X007330Y002041D02*
X007318Y002032D01*
X007309Y002020D01*
X007330D01*
Y002041D01*
D02*
G37*
G36*
X007370D02*
Y002000D01*
X007350D01*
Y001980D01*
X007309D01*
X007318Y001968D01*
X007332Y001958D01*
X007344Y001955D01*
X007362Y001937D01*
X007357Y001925D01*
X007348D01*
Y001860D01*
X007408D01*
X007468D01*
Y001925D01*
X007444D01*
Y001942D01*
X007441Y001955D01*
X007434Y001967D01*
X007395Y002006D01*
X007392Y002018D01*
X007382Y002032D01*
X007370Y002041D01*
D02*
G37*
G36*
X004500Y001831D02*
X004488Y001822D01*
X004479Y001810D01*
X004500D01*
Y001831D01*
D02*
G37*
G36*
X004750D02*
Y001790D01*
X004710D01*
Y001831D01*
X004698Y001822D01*
X004688Y001808D01*
X004684Y001790D01*
X004685Y001785D01*
X004677Y001775D01*
X004650D01*
Y001690D01*
Y001605D01*
X004690D01*
Y001698D01*
X004697Y001700D01*
X004703Y001700D01*
X004710Y001690D01*
X004737Y001662D01*
X004749Y001654D01*
X004760Y001652D01*
Y001605D01*
X004800D01*
Y001690D01*
Y001775D01*
X004783D01*
X004775Y001785D01*
X004776Y001790D01*
X004772Y001808D01*
X004762Y001822D01*
X004750Y001831D01*
D02*
G37*
G36*
X008275Y001786D02*
X008257Y001782D01*
X008248Y001776D01*
X007830D01*
X007820Y001782D01*
X007802Y001786D01*
X007785Y001782D01*
X007770Y001772D01*
X007760Y001757D01*
X007756Y001740D01*
X007760Y001722D01*
X007770Y001707D01*
X007785Y001697D01*
X007802Y001694D01*
X007820Y001697D01*
X007830Y001704D01*
X008247D01*
X008257Y001697D01*
X008275Y001694D01*
X008293Y001697D01*
X008307Y001707D01*
X008317Y001722D01*
X008321Y001740D01*
X008317Y001757D01*
X008307Y001772D01*
X008293Y001782D01*
X008275Y001786D01*
D02*
G37*
G36*
X007530Y002046D02*
X007512Y002042D01*
X007498Y002032D01*
X007488Y002018D01*
X007484Y002000D01*
X007488Y001982D01*
X007498Y001968D01*
X007511Y001959D01*
X007534Y001936D01*
X007538Y001925D01*
X007538D01*
X007538Y001925D01*
Y001755D01*
X007658D01*
Y001925D01*
X007624D01*
Y001932D01*
X007621Y001946D01*
X007613Y001957D01*
X007575Y001995D01*
X007576Y002000D01*
X007572Y002018D01*
X007562Y002032D01*
X007548Y002042D01*
X007530Y002046D01*
D02*
G37*
G36*
X007468Y001820D02*
X007428D01*
Y001755D01*
X007468D01*
Y001820D01*
D02*
G37*
G36*
X007388D02*
X007348D01*
Y001755D01*
X007388D01*
Y001820D01*
D02*
G37*
G36*
X004880Y001775D02*
X004840D01*
Y001710D01*
X004880D01*
Y001775D01*
D02*
G37*
G36*
X006350Y002346D02*
X006332Y002342D01*
X006318Y002332D01*
X006308Y002318D01*
X006304Y002300D01*
X006308Y002282D01*
X006314Y002272D01*
Y001778D01*
X006308Y001768D01*
X006304Y001750D01*
X006308Y001732D01*
X006318Y001718D01*
X006332Y001708D01*
X006350Y001704D01*
X006368Y001708D01*
X006382Y001718D01*
X006392Y001732D01*
X006396Y001750D01*
X006392Y001768D01*
X006386Y001778D01*
Y002272D01*
X006392Y002282D01*
X006396Y002300D01*
X006392Y002318D01*
X006382Y002332D01*
X006368Y002342D01*
X006350Y002346D01*
D02*
G37*
G36*
X004540Y001831D02*
Y001790D01*
X004520D01*
Y001770D01*
X004479D01*
X004484Y001762D01*
Y001705D01*
X004487Y001691D01*
X004495Y001680D01*
X004495Y001680D01*
X004488Y001668D01*
X004474Y001671D01*
X004452Y001667D01*
X004434Y001655D01*
X004422Y001636D01*
X004418Y001615D01*
X004422Y001594D01*
X004434Y001575D01*
X004452Y001563D01*
X004474Y001559D01*
X004495Y001563D01*
X004513Y001575D01*
X004526Y001594D01*
X004530Y001615D01*
X004526Y001634D01*
X004533Y001641D01*
X004536Y001642D01*
X004550Y001639D01*
X004570D01*
Y001605D01*
X004610D01*
Y001690D01*
Y001775D01*
X004576D01*
X004565Y001786D01*
X004566Y001790D01*
X004562Y001808D01*
X004552Y001822D01*
X004540Y001831D01*
D02*
G37*
G36*
X004880Y001670D02*
X004840D01*
Y001605D01*
X004880D01*
Y001670D01*
D02*
G37*
G36*
X003365Y001919D02*
X003195D01*
Y001799D01*
X003244D01*
Y001732D01*
X003244Y001732D01*
X003230Y001721D01*
X003218Y001706D01*
X003211Y001689D01*
X003209Y001670D01*
X003211Y001652D01*
X003218Y001635D01*
X003230Y001620D01*
X003244Y001609D01*
X003262Y001602D01*
X003280Y001599D01*
X003298Y001602D01*
X003316Y001609D01*
X003330Y001620D01*
X003342Y001635D01*
X003349Y001652D01*
X003351Y001670D01*
X003349Y001689D01*
X003342Y001706D01*
X003330Y001721D01*
X003316Y001732D01*
X003316Y001732D01*
Y001799D01*
X003365D01*
Y001919D01*
D02*
G37*
G36*
X006124Y001664D02*
Y001525D01*
X006263D01*
X006262Y001536D01*
X006252Y001566D01*
X006238Y001594D01*
X006218Y001619D01*
X006193Y001639D01*
X006165Y001653D01*
X006135Y001663D01*
X006124Y001664D01*
D02*
G37*
G36*
X006084D02*
X006072Y001663D01*
X006042Y001653D01*
X006015Y001639D01*
X005990Y001619D01*
X005970Y001594D01*
X005955Y001566D01*
X005946Y001536D01*
X005945Y001525D01*
X006084D01*
Y001664D01*
D02*
G37*
G36*
X005720D02*
Y001525D01*
X005859D01*
X005858Y001536D01*
X005849Y001566D01*
X005834Y001594D01*
X005814Y001619D01*
X005789Y001639D01*
X005762Y001653D01*
X005731Y001663D01*
X005720Y001664D01*
D02*
G37*
G36*
X005680D02*
X005669Y001663D01*
X005638Y001653D01*
X005611Y001639D01*
X005586Y001619D01*
X005566Y001594D01*
X005551Y001566D01*
X005542Y001536D01*
X005541Y001525D01*
X005680D01*
Y001664D01*
D02*
G37*
G36*
X003300Y001548D02*
Y001500D01*
X003348D01*
X003342Y001516D01*
X003330Y001530D01*
X003316Y001542D01*
X003300Y001548D01*
D02*
G37*
G36*
X003260Y001548D02*
X003244Y001542D01*
X003230Y001530D01*
X003218Y001516D01*
X003212Y001500D01*
X003260D01*
Y001548D01*
D02*
G37*
G36*
X003280Y001480D02*
D01*
D01*
D01*
D02*
G37*
G36*
X007002Y001500D02*
X006962D01*
Y001435D01*
X007002D01*
Y001500D01*
D02*
G37*
G36*
X007192D02*
X007152D01*
Y001435D01*
X007192D01*
Y001500D01*
D02*
G37*
G36*
X007112D02*
X007072D01*
Y001435D01*
X007112D01*
Y001500D01*
D02*
G37*
G36*
X006922D02*
X006882D01*
Y001435D01*
X006922D01*
Y001500D01*
D02*
G37*
G36*
X007289Y001546D02*
X007268Y001542D01*
X007249Y001530D01*
X007237Y001511D01*
X007233Y001490D01*
X007237Y001469D01*
X007249Y001450D01*
X007268Y001438D01*
X007289Y001434D01*
X007311Y001438D01*
X007329Y001450D01*
X007341Y001469D01*
X007345Y001490D01*
X007341Y001511D01*
X007329Y001530D01*
X007311Y001542D01*
X007289Y001546D01*
D02*
G37*
G36*
X003348Y001460D02*
X003300D01*
Y001412D01*
X003316Y001418D01*
X003330Y001430D01*
X003342Y001444D01*
X003348Y001460D01*
D02*
G37*
G36*
X003260D02*
X003212D01*
X003218Y001444D01*
X003230Y001430D01*
X003244Y001418D01*
X003260Y001412D01*
Y001460D01*
D02*
G37*
G36*
X006263Y001485D02*
X006124D01*
Y001346D01*
X006135Y001347D01*
X006165Y001356D01*
X006193Y001371D01*
X006218Y001391D01*
X006238Y001416D01*
X006252Y001443D01*
X006262Y001474D01*
X006263Y001485D01*
D02*
G37*
G36*
X006084D02*
X005945D01*
X005946Y001474D01*
X005955Y001443D01*
X005970Y001416D01*
X005990Y001391D01*
X006015Y001371D01*
X006042Y001356D01*
X006072Y001347D01*
X006084Y001346D01*
Y001485D01*
D02*
G37*
G36*
X005859D02*
X005720D01*
Y001346D01*
X005731Y001347D01*
X005762Y001356D01*
X005789Y001371D01*
X005814Y001391D01*
X005834Y001416D01*
X005849Y001443D01*
X005858Y001474D01*
X005859Y001485D01*
D02*
G37*
G36*
X005680D02*
X005541D01*
X005542Y001474D01*
X005551Y001443D01*
X005566Y001416D01*
X005586Y001391D01*
X005611Y001371D01*
X005638Y001356D01*
X005669Y001347D01*
X005680Y001346D01*
Y001485D01*
D02*
G37*
G36*
X004415Y001350D02*
X004375D01*
Y001285D01*
X004415D01*
Y001350D01*
D02*
G37*
G36*
X004335D02*
X004295D01*
Y001285D01*
X004335D01*
Y001350D01*
D02*
G37*
G36*
X007192Y001395D02*
X007132D01*
X007072D01*
Y001330D01*
X007097D01*
Y001276D01*
X007092Y001269D01*
X007173D01*
X007168Y001276D01*
Y001330D01*
X007192D01*
Y001395D01*
D02*
G37*
G36*
X007002D02*
X006942D01*
X006882D01*
Y001330D01*
X006907D01*
Y001276D01*
X006902Y001269D01*
X006983D01*
X006978Y001276D01*
Y001330D01*
X007002D01*
Y001395D01*
D02*
G37*
G36*
X007173Y001229D02*
X007152D01*
Y001208D01*
X007165Y001216D01*
X007173Y001229D01*
D02*
G37*
G36*
X007112D02*
X007092D01*
X007100Y001216D01*
X007112Y001208D01*
Y001229D01*
D02*
G37*
G36*
X006983D02*
X006962D01*
Y001208D01*
X006975Y001216D01*
X006983Y001229D01*
D02*
G37*
G36*
X006922D02*
X006902D01*
X006910Y001216D01*
X006922Y001208D01*
Y001229D01*
D02*
G37*
G36*
X004421Y001090D02*
X004400D01*
Y001069D01*
X004412Y001078D01*
X004421Y001090D01*
D02*
G37*
G36*
X004415Y001245D02*
X004295D01*
Y001180D01*
X004319D01*
Y001135D01*
X004322Y001122D01*
X004329Y001110D01*
X004335Y001104D01*
X004338Y001092D01*
X004348Y001078D01*
X004360Y001069D01*
Y001110D01*
X004380D01*
Y001130D01*
X004421D01*
X004412Y001142D01*
X004398Y001152D01*
X004390Y001154D01*
Y001180D01*
X004415D01*
Y001245D01*
D02*
G37*
G36*
X004225Y001350D02*
X004105D01*
Y001180D01*
X004141D01*
Y001173D01*
X004144Y001159D01*
X004152Y001148D01*
X004195Y001104D01*
X004198Y001092D01*
X004208Y001078D01*
X004222Y001068D01*
X004240Y001064D01*
X004258Y001068D01*
X004272Y001078D01*
X004282Y001092D01*
X004286Y001110D01*
X004282Y001128D01*
X004272Y001142D01*
X004258Y001152D01*
X004246Y001155D01*
X004230Y001170D01*
X004225Y001180D01*
X004225D01*
X004225Y001180D01*
Y001350D01*
D02*
G37*
G36*
X005425Y001604D02*
X005403Y001599D01*
X005384Y001587D01*
X005371Y001568D01*
X005366Y001545D01*
Y001201D01*
X005371Y001179D01*
X005384Y001160D01*
X005427Y001116D01*
X005446Y001103D01*
X005469Y001099D01*
X005551D01*
X005551Y001096D01*
X005566Y001068D01*
X005586Y001044D01*
X005611Y001024D01*
X005638Y001009D01*
X005669Y001000D01*
X005700Y000997D01*
X005731Y001000D01*
X005762Y001009D01*
X005789Y001024D01*
X005814Y001044D01*
X005834Y001068D01*
X005849Y001096D01*
X005849Y001099D01*
X005954D01*
X005955Y001096D01*
X005970Y001068D01*
X005990Y001044D01*
X006015Y001024D01*
X006042Y001009D01*
X006072Y001000D01*
X006104Y000997D01*
X006135Y001000D01*
X006165Y001009D01*
X006193Y001024D01*
X006218Y001044D01*
X006238Y001068D01*
X006252Y001096D01*
X006262Y001126D01*
X006265Y001157D01*
X006262Y001189D01*
X006252Y001219D01*
X006238Y001247D01*
X006218Y001271D01*
X006193Y001291D01*
X006165Y001306D01*
X006135Y001315D01*
X006104Y001318D01*
X006072Y001315D01*
X006042Y001306D01*
X006015Y001291D01*
X005990Y001271D01*
X005970Y001247D01*
X005955Y001219D01*
X005954Y001216D01*
X005849D01*
X005849Y001219D01*
X005834Y001247D01*
X005814Y001271D01*
X005789Y001291D01*
X005762Y001306D01*
X005731Y001315D01*
X005700Y001318D01*
X005669Y001315D01*
X005638Y001306D01*
X005611Y001291D01*
X005586Y001271D01*
X005566Y001247D01*
X005551Y001219D01*
X005551Y001216D01*
X005493D01*
X005484Y001226D01*
Y001545D01*
X005479Y001568D01*
X005466Y001587D01*
X005447Y001599D01*
X005425Y001604D01*
D02*
G37*
G36*
X006124Y000969D02*
Y000830D01*
X006263D01*
X006262Y000841D01*
X006252Y000871D01*
X006238Y000899D01*
X006218Y000924D01*
X006193Y000944D01*
X006165Y000958D01*
X006135Y000968D01*
X006124Y000969D01*
D02*
G37*
G36*
X006084D02*
X006072Y000968D01*
X006042Y000958D01*
X006015Y000944D01*
X005990Y000924D01*
X005970Y000899D01*
X005955Y000871D01*
X005946Y000841D01*
X005945Y000830D01*
X006084D01*
Y000969D01*
D02*
G37*
G36*
X005720D02*
Y000830D01*
X005859D01*
X005858Y000841D01*
X005849Y000871D01*
X005834Y000899D01*
X005814Y000924D01*
X005789Y000944D01*
X005762Y000958D01*
X005731Y000968D01*
X005720Y000969D01*
D02*
G37*
G36*
X005680D02*
X005669Y000968D01*
X005638Y000958D01*
X005611Y000944D01*
X005586Y000924D01*
X005566Y000899D01*
X005551Y000871D01*
X005542Y000841D01*
X005541Y000830D01*
X005680D01*
Y000969D01*
D02*
G37*
G36*
X006263Y000790D02*
X006124D01*
Y000651D01*
X006135Y000652D01*
X006165Y000661D01*
X006193Y000676D01*
X006218Y000696D01*
X006238Y000721D01*
X006252Y000748D01*
X006262Y000778D01*
X006263Y000790D01*
D02*
G37*
G36*
X006084D02*
X005945D01*
X005946Y000778D01*
X005955Y000748D01*
X005970Y000721D01*
X005990Y000696D01*
X006015Y000676D01*
X006042Y000661D01*
X006072Y000652D01*
X006084Y000651D01*
Y000790D01*
D02*
G37*
G36*
X005859D02*
X005720D01*
Y000651D01*
X005731Y000652D01*
X005762Y000661D01*
X005789Y000676D01*
X005814Y000696D01*
X005834Y000721D01*
X005849Y000748D01*
X005858Y000778D01*
X005859Y000790D01*
D02*
G37*
G36*
X005680D02*
X005541D01*
X005542Y000778D01*
X005551Y000748D01*
X005566Y000721D01*
X005586Y000696D01*
X005611Y000676D01*
X005638Y000661D01*
X005669Y000652D01*
X005680Y000651D01*
Y000790D01*
D02*
G37*
G36*
X006104Y000623D02*
X006072Y000620D01*
X006042Y000611D01*
X006015Y000596D01*
X005990Y000576D01*
X005970Y000552D01*
X005955Y000524D01*
X005954Y000521D01*
X005849D01*
X005849Y000524D01*
X005834Y000552D01*
X005814Y000576D01*
X005789Y000596D01*
X005762Y000611D01*
X005731Y000620D01*
X005700Y000623D01*
X005669Y000620D01*
X005638Y000611D01*
X005611Y000596D01*
X005586Y000576D01*
X005566Y000552D01*
X005551Y000524D01*
X005542Y000494D01*
X005539Y000462D01*
X005542Y000431D01*
X005551Y000401D01*
X005566Y000373D01*
X005586Y000349D01*
X005611Y000329D01*
X005638Y000314D01*
X005669Y000305D01*
X005700Y000302D01*
X005731Y000305D01*
X005762Y000314D01*
X005789Y000329D01*
X005814Y000349D01*
X005834Y000373D01*
X005849Y000401D01*
X005849Y000404D01*
X005954D01*
X005955Y000401D01*
X005970Y000373D01*
X005990Y000349D01*
X006015Y000329D01*
X006042Y000314D01*
X006072Y000305D01*
X006104Y000302D01*
X006135Y000305D01*
X006165Y000314D01*
X006193Y000329D01*
X006218Y000349D01*
X006238Y000373D01*
X006252Y000401D01*
X006262Y000431D01*
X006265Y000462D01*
X006262Y000494D01*
X006252Y000524D01*
X006238Y000552D01*
X006218Y000576D01*
X006193Y000596D01*
X006165Y000611D01*
X006135Y000620D01*
X006104Y000623D01*
D02*
G37*
%LPD*%
G36*
X005564Y003865D02*
X005310Y003611D01*
X004309D01*
X004302Y003623D01*
X004305Y003627D01*
X004264D01*
Y003647D01*
X004244D01*
Y003688D01*
X004236Y003683D01*
X004189D01*
Y003775D01*
X004149D01*
Y003690D01*
X004129D01*
Y003670D01*
X004069D01*
Y003609D01*
X004066Y003605D01*
X004049Y003605D01*
X003999Y003655D01*
Y003670D01*
X003959D01*
Y003594D01*
X004005Y003548D01*
X004007Y003537D01*
X004007Y003534D01*
X004002Y003524D01*
X003618D01*
X003612Y003537D01*
X003915Y003839D01*
X005400D01*
X005414Y003842D01*
X005425Y003850D01*
X005500Y003925D01*
X005508Y003936D01*
X005511Y003950D01*
Y004184D01*
X005512Y004185D01*
X005525Y004204D01*
X005529Y004225D01*
X005525Y004246D01*
X005512Y004265D01*
X005494Y004277D01*
X005474Y004281D01*
X005467Y004292D01*
X005505Y004330D01*
X005513Y004341D01*
X005516Y004355D01*
Y004370D01*
X005564D01*
Y003865D01*
D02*
G37*
%LPC*%
G36*
X003999Y003775D02*
X003959D01*
Y003710D01*
X003999D01*
Y003775D01*
D02*
G37*
G36*
X004109D02*
X004069D01*
Y003710D01*
X004109D01*
Y003775D01*
D02*
G37*
G36*
X003919D02*
X003879D01*
Y003710D01*
X003919D01*
Y003775D01*
D02*
G37*
G36*
X004285Y003821D02*
X004264Y003817D01*
X004246Y003805D01*
X004234Y003786D01*
X004229Y003765D01*
X004234Y003744D01*
X004246Y003725D01*
X004264Y003713D01*
X004285Y003709D01*
X004307Y003713D01*
X004325Y003725D01*
X004337Y003744D01*
X004342Y003765D01*
X004337Y003786D01*
X004325Y003805D01*
X004307Y003817D01*
X004285Y003821D01*
D02*
G37*
G36*
X004284Y003688D02*
Y003667D01*
X004305D01*
X004296Y003680D01*
X004284Y003688D01*
D02*
G37*
G36*
X003919Y003670D02*
X003879D01*
Y003605D01*
X003919D01*
Y003670D01*
D02*
G37*
G36*
X008397Y004866D02*
X008354Y004862D01*
X008312Y004849D01*
X008274Y004829D01*
X008240Y004801D01*
X008213Y004768D01*
X008192Y004730D01*
X008180Y004688D01*
X008176Y004645D01*
X008180Y004602D01*
X008192Y004560D01*
X008213Y004522D01*
X008240Y004489D01*
X008274Y004461D01*
X008312Y004441D01*
X008354Y004428D01*
X008397Y004424D01*
X008440Y004428D01*
X008481Y004441D01*
X008519Y004461D01*
X008553Y004489D01*
X008580Y004522D01*
X008601Y004560D01*
X008613Y004602D01*
X008618Y004645D01*
X008613Y004688D01*
X008601Y004730D01*
X008580Y004768D01*
X008553Y004801D01*
X008519Y004829D01*
X008481Y004849D01*
X008440Y004862D01*
X008397Y004866D01*
D02*
G37*
G36*
X000397Y002066D02*
X000354Y002062D01*
X000312Y002049D01*
X000274Y002029D01*
X000240Y002001D01*
X000213Y001968D01*
X000192Y001930D01*
X000180Y001888D01*
X000176Y001845D01*
X000180Y001802D01*
X000192Y001760D01*
X000213Y001722D01*
X000240Y001689D01*
X000274Y001661D01*
X000312Y001641D01*
X000354Y001628D01*
X000397Y001624D01*
X000440Y001628D01*
X000481Y001641D01*
X000519Y001661D01*
X000553Y001689D01*
X000580Y001722D01*
X000601Y001760D01*
X000613Y001802D01*
X000618Y001845D01*
X000613Y001888D01*
X000601Y001930D01*
X000580Y001968D01*
X000553Y002001D01*
X000519Y002029D01*
X000481Y002049D01*
X000440Y002062D01*
X000397Y002066D01*
D02*
G37*
G36*
X003347Y000616D02*
X003304Y000612D01*
X003262Y000599D01*
X003224Y000579D01*
X003190Y000551D01*
X003163Y000518D01*
X003142Y000480D01*
X003130Y000438D01*
X003126Y000395D01*
X003130Y000352D01*
X003142Y000310D01*
X003163Y000272D01*
X003190Y000239D01*
X003224Y000211D01*
X003262Y000191D01*
X003304Y000178D01*
X003347Y000174D01*
X003390Y000178D01*
X003431Y000191D01*
X003469Y000211D01*
X003503Y000239D01*
X003530Y000272D01*
X003551Y000310D01*
X003563Y000352D01*
X003568Y000395D01*
X003563Y000438D01*
X003551Y000480D01*
X003530Y000518D01*
X003503Y000551D01*
X003469Y000579D01*
X003431Y000599D01*
X003390Y000612D01*
X003347Y000616D01*
D02*
G37*
G36*
X006993D02*
X006950Y000612D01*
X006908Y000599D01*
X006870Y000579D01*
X006837Y000551D01*
X006809Y000518D01*
X006789Y000480D01*
X006776Y000438D01*
X006772Y000395D01*
X006776Y000352D01*
X006789Y000310D01*
X006809Y000272D01*
X006837Y000239D01*
X006870Y000211D01*
X006908Y000191D01*
X006950Y000178D01*
X006993Y000174D01*
X007036Y000178D01*
X007078Y000191D01*
X007116Y000211D01*
X007149Y000239D01*
X007177Y000272D01*
X007197Y000310D01*
X007210Y000352D01*
X007214Y000395D01*
X007210Y000438D01*
X007197Y000480D01*
X007177Y000518D01*
X007149Y000551D01*
X007116Y000579D01*
X007078Y000599D01*
X007036Y000612D01*
X006993Y000616D01*
D02*
G37*
%LPD*%
D10*
X000547Y001595D02*
G03*
X000797Y001845I000000J000250D01*
G01*
X007747Y003645D02*
G03*
X007997Y003895I000000J000250D01*
G01*
X005697Y005711D02*
G03*
X005447Y005845I-000250J-000166D01*
G01*
X005697Y006095D02*
G03*
X005447Y006345I-000250J000000D01*
G01*
X004042Y006210D02*
G03*
X004751Y006210I000355J000185D01*
G01*
X003820Y000145D02*
G03*
X004042Y000280I000000J000250D01*
G01*
X004751D02*
G03*
X004042Y000280I-000355J-000185D01*
G01*
X003097Y002595D02*
G03*
X002847Y002845I-000250J000000D01*
G01*
X000542Y002200D02*
G03*
X000797Y002342I000000J000300D01*
G01*
X006993Y000145D02*
G03*
X007170Y000218I000000J000250D01*
G01*
X004042Y006210D02*
G03*
X003820Y006345I-000222J-000115D01*
G01*
X008247Y004895D02*
G03*
X007997Y004645I000000J-000250D01*
G01*
X008697D02*
G03*
X008447Y004895I-000250J000000D01*
G01*
X003097Y000779D02*
G03*
X003347Y000645I000250J000166D01*
G01*
X000097Y001845D02*
G03*
X000347Y001595I000250J000000D01*
G01*
X008623Y001672D02*
G03*
X008697Y001849I-000177J000177D01*
G01*
X006993Y000645D02*
G03*
X006743Y000395I000000J-000250D01*
G01*
X006609Y000145D02*
G03*
X006743Y000395I-000166J000250D01*
G01*
X005697Y003895D02*
G03*
X005947Y003645I000250J000000D01*
G01*
X005237Y005959D02*
G03*
X005447Y005845I000210J000136D01*
G01*
X005237Y005959D02*
G03*
X004961Y006094I-000251J-000164D01*
G01*
X004751Y000280D02*
G03*
X004973Y000145I000222J000115D01*
G01*
X003556Y000531D02*
G03*
X003808Y000395I000251J000164D01*
G01*
X003097Y000395D02*
G03*
X003347Y000145I000250J000000D01*
G01*
X002185Y006345D02*
G03*
X002051Y006095I000166J-000250D01*
G01*
X001801Y005845D02*
G03*
X002051Y006095I000000J000250D01*
G01*
X001047Y002845D02*
G03*
X000797Y002595I000000J-000250D01*
G01*
X000170Y004818D02*
G03*
X000097Y004641I000177J-000177D01*
G01*
Y002334D02*
G03*
X000347Y002200I000250J000166D01*
G01*
X008252Y004290D02*
G03*
X007997Y004148I000000J-000300D01*
G01*
X008697Y004156D02*
G03*
X008447Y004290I-000250J-000166D01*
G01*
X004973Y006345D02*
G03*
X004751Y006210I000000J-000250D01*
G01*
X003556Y000531D02*
G03*
X003347Y000645I-000210J-000136D01*
G01*
X001800Y006345D02*
G03*
X001623Y006272I000000J-000250D01*
G01*
X007572Y000645D02*
G03*
X007598Y000646I000000J000300D01*
G01*
X001800Y006345D02*
X003820D01*
X000170Y004818D02*
X001623Y006272D01*
X005947Y003645D02*
X007747D01*
X004973Y000145D02*
X006993D01*
X007170Y000218D02*
X008623Y001672D01*
X006993Y000645D02*
X007572D01*
X004660Y006094D02*
X004961D01*
X003808Y000395D02*
X004132D01*
X001202Y005845D02*
X001801D01*
X001047Y002845D02*
X002847D01*
X008247Y004895D02*
X008447D01*
X008252Y004290D02*
X008447D01*
X004973Y006345D02*
X005447D01*
X003347Y000145D02*
X003820D01*
X000347Y002200D02*
X000542D01*
X000347Y001595D02*
X000547D01*
X008697Y001849D02*
Y004645D01*
X005697Y003895D02*
Y006095D01*
X000097Y001845D02*
Y004641D01*
X007997Y003895D02*
Y004645D01*
X003097Y000395D02*
Y002595D01*
X000797Y001845D02*
Y002595D01*
X000347Y003545D02*
X000445Y003644D01*
X000618D01*
X000618Y003643D01*
X000347Y003345D02*
X000445Y003444D01*
X000621D01*
X000621Y003443D01*
X000619Y003244D02*
X000619Y003244D01*
X000347Y003145D02*
X000445Y003244D01*
X000619D01*
X000445Y002844D02*
X000625D01*
X000347Y002745D02*
X000445Y002844D01*
X000347Y002945D02*
X000445Y003044D01*
X000644D01*
D29*
X004129Y004803D02*
D03*
X003939D02*
D03*
X007598Y001840D02*
D03*
X007408D02*
D03*
X004595Y004115D02*
D03*
X004405D02*
D03*
X004129Y003690D02*
D03*
X003939D02*
D03*
X004354Y002385D02*
D03*
X004164D02*
D03*
X004820Y002810D02*
D03*
X004630D02*
D03*
X001394Y004820D02*
D03*
X001204D02*
D03*
X001860Y005245D02*
D03*
X001670D02*
D03*
X004405Y005228D02*
D03*
X004595D02*
D03*
X004630Y001690D02*
D03*
X004820D02*
D03*
X004165Y001265D02*
D03*
X004355D02*
D03*
X007132Y001415D02*
D03*
X006942D02*
D03*
D30*
X005480Y004430D02*
D03*
Y004620D02*
D03*
X003280Y002049D02*
D03*
Y001859D02*
D03*
D33*
X005115Y005128D02*
X005223D01*
X005223Y005128D01*
X004810Y005130D02*
X005114D01*
X005115Y005128D01*
X007802Y001740D02*
X007802Y001740D01*
X008275D01*
X008275Y001740D01*
X006942Y001249D02*
Y001415D01*
X003954Y001360D02*
X003960Y001366D01*
X003520Y001360D02*
X003954D01*
X003450Y001288D02*
Y002671D01*
X003121Y003000D02*
X003450Y002671D01*
X003287Y001125D02*
X003450Y001288D01*
X002882Y003488D02*
X004098D01*
X004185Y003575D02*
X005325D01*
X004098Y003488D02*
X004185Y003575D01*
X004110Y003400D02*
X004210Y003500D01*
X003075Y003400D02*
X004110D01*
X004210Y003500D02*
X005646D01*
X002862Y003508D02*
X002882Y003488D01*
X003939Y003665D02*
X004050Y003553D01*
X003837Y003275D02*
X004512Y002600D01*
X003150Y003275D02*
X003837D01*
X005646Y003500D02*
X005654Y003508D01*
X000547Y004145D02*
X000867D01*
X001144Y003868D01*
X003575Y003550D02*
X003900Y003875D01*
X005400D02*
X005475Y003950D01*
X003900Y003875D02*
X005400D01*
X004512Y002600D02*
X005384D01*
X004491Y002550D02*
X007046D01*
X003841Y003200D02*
X004491Y002550D01*
X003100Y003200D02*
X003841D01*
X003075Y003150D02*
X003821D01*
X004471Y002500D02*
X007025D01*
X003821Y003150D02*
X004471Y002500D01*
X002349Y003100D02*
X003800D01*
X004575Y002120D02*
Y002325D01*
X003800Y003100D02*
X004575Y002325D01*
X004735Y001715D02*
X004763Y001687D01*
X004817D02*
X004820Y001690D01*
X004763Y001687D02*
X004817D01*
X004730Y001790D02*
X004735Y001785D01*
Y001715D02*
Y001785D01*
X004615Y001675D02*
X004630Y001690D01*
X004550Y001675D02*
X004615D01*
X004520Y001705D02*
Y001790D01*
Y001705D02*
X004550Y001675D01*
X003280Y002155D02*
X003375Y002250D01*
X003280Y002049D02*
Y002155D01*
X003375Y002250D02*
Y002425D01*
X005358Y004233D02*
X005480Y004355D01*
Y004430D01*
X005325Y004225D02*
X005333Y004233D01*
X005358D01*
X001394Y004820D02*
X001411Y004804D01*
Y004710D02*
Y004804D01*
Y004710D02*
X001453Y004668D01*
Y004660D02*
Y004668D01*
X001204Y004820D02*
X001229Y004795D01*
Y004711D02*
Y004795D01*
Y004711D02*
X001273Y004668D01*
Y004660D02*
Y004668D01*
X001283Y003100D02*
X002137D01*
X001138Y002955D02*
X001283Y003100D01*
X002137D02*
X002287Y002950D01*
X001262Y003150D02*
X002158D01*
X001117Y003005D02*
X001262Y003150D01*
X002158D02*
X002308Y003000D01*
X002178Y003200D02*
X002328Y003050D01*
X001096Y003055D02*
X001241Y003200D01*
X002178D01*
X001076Y003105D02*
X001221Y003250D01*
X002199D01*
X002349Y003100D01*
X000905Y002955D02*
X001138D01*
X002287Y002950D02*
X003100D01*
X000695Y002745D02*
X000905Y002955D01*
X003100Y002950D02*
X003286Y002764D01*
X002308Y003000D02*
X003121D01*
X000723Y002844D02*
X000884Y003005D01*
X001117D01*
X000864Y003055D02*
X001096D01*
X002328Y003050D02*
X003525D01*
X000754Y002945D02*
X000864Y003055D01*
X003525Y003050D02*
X004050Y002525D01*
X000843Y003105D02*
X001076D01*
X000781Y003044D02*
X000843Y003105D01*
X001302Y003627D02*
X002814D01*
X000621Y003443D02*
X001118D01*
X001302Y003627D01*
X001377Y003477D02*
X002748D01*
X000557Y003155D02*
X001055D01*
X001377Y003477D01*
X001069Y003244D02*
X001352Y003527D01*
X000619Y003244D02*
X001069D01*
X001352Y003527D02*
X002773D01*
X000552Y003350D02*
X001100D01*
X001327Y003577D02*
X002794D01*
X001100Y003350D02*
X001327Y003577D01*
X000547Y003545D02*
X001145D01*
X001277Y003677D02*
X002848D01*
X001145Y003545D02*
X001277Y003677D01*
X000618Y003643D02*
X001143D01*
X001227Y003727D02*
X002869D01*
X001143Y003643D02*
X001227Y003727D01*
X000547Y003745D02*
X001120D01*
X001526Y004151D02*
Y004359D01*
X001120Y003745D02*
X001526Y004151D01*
X005325Y003575D02*
X005600Y003850D01*
X002862Y003508D02*
X002862D01*
X002794Y003577D02*
X002862Y003508D01*
X005384Y002600D02*
X005654Y002870D01*
X007046Y002550D02*
X007096Y002500D01*
X007025D02*
X007225Y002300D01*
X004129Y003672D02*
X004154Y003647D01*
X004129Y003672D02*
Y003690D01*
X004154Y003647D02*
X004264D01*
X003280Y001670D02*
Y001859D01*
X005480Y004620D02*
Y004820D01*
X000225Y003867D02*
Y004350D01*
Y003867D02*
X000347Y003745D01*
X002946Y003650D02*
X003534D01*
X003835Y003951D01*
Y005260D01*
X004269Y005695D01*
X002869Y003727D02*
X002946Y003650D01*
X004246Y004579D02*
X004250Y004575D01*
X004246Y004579D02*
Y004582D01*
X004250Y004296D02*
Y004575D01*
X003554Y003600D02*
X004250Y004296D01*
X002925Y003600D02*
X003554D01*
X002848Y003677D02*
X002925Y003600D01*
X002891Y003550D02*
X003575D01*
X005475Y003950D02*
Y004225D01*
X002883Y003558D02*
X002891Y003550D01*
X002814Y003627D02*
X002883Y003558D01*
X005472Y005341D02*
X005600Y005214D01*
Y003850D02*
Y005214D01*
X000547Y003345D02*
X000552Y003350D01*
X002773Y003527D02*
X003100Y003200D01*
X007929Y002500D02*
X008476Y001953D01*
X007096Y002500D02*
X007929D01*
X002748Y003477D02*
X003075Y003150D01*
X000547Y003145D02*
X000557Y003155D01*
X000625Y002844D02*
X000723D01*
X000644Y003044D02*
X000781D01*
X004569Y002113D02*
X004575Y002120D01*
X000547Y002945D02*
X000754D01*
X003286Y002300D02*
Y002764D01*
X000547Y002745D02*
X000695D01*
X004050Y001075D02*
Y002525D01*
X004322Y000803D02*
X004491D01*
X004050Y001075D02*
X004322Y000803D01*
X004491D02*
X004491Y000803D01*
X004129Y004778D02*
X004154Y004753D01*
X004129Y004778D02*
Y004803D01*
X004179Y004753D02*
X004223Y004709D01*
X004233D01*
X004239Y004703D01*
X004154Y004753D02*
X004179D01*
X004014Y004703D02*
X004029D01*
X003939Y004778D02*
Y004803D01*
Y004778D02*
X004014Y004703D01*
X004582Y005240D02*
X004595Y005228D01*
X004582Y005240D02*
Y005320D01*
X004519Y005383D02*
X004582Y005320D01*
X004405Y005228D02*
Y005358D01*
X004379Y005383D02*
X004405Y005358D01*
X004800Y004014D02*
X004800Y004015D01*
X005223D01*
X003939Y003665D02*
Y003690D01*
X004519Y004270D02*
X004582Y004207D01*
Y004127D02*
X004595Y004115D01*
X004582Y004127D02*
Y004207D01*
X004379Y004270D02*
X004405Y004245D01*
Y004115D02*
Y004245D01*
X003959Y002485D02*
X003959Y002485D01*
X003536Y002485D02*
X003959D01*
X004536Y002904D02*
X004580Y002860D01*
X004605D01*
X004525Y002904D02*
X004536D01*
X004630Y002810D02*
Y002835D01*
X004605Y002860D02*
X004630Y002835D01*
X004520Y002910D02*
X004525Y002904D01*
X004730Y002910D02*
X004745D01*
X004820Y002835D01*
Y002810D02*
Y002835D01*
X004177Y002293D02*
X004240Y002230D01*
X004177Y002293D02*
Y002372D01*
X004164Y002385D02*
X004177Y002372D01*
X004354Y002255D02*
Y002385D01*
Y002255D02*
X004380Y002230D01*
X004355Y001135D02*
Y001265D01*
Y001135D02*
X004380Y001110D01*
X004177Y001173D02*
X004240Y001110D01*
X004165Y001265D02*
X004177Y001253D01*
Y001173D02*
Y001253D01*
X001835Y005270D02*
X001860Y005245D01*
X001835Y005270D02*
Y005310D01*
X001756Y005362D02*
X001762Y005357D01*
X001788D02*
X001835Y005310D01*
X001762Y005357D02*
X001788D01*
X001576Y005365D02*
X001670Y005270D01*
Y005245D02*
Y005270D01*
X001531Y005365D02*
X001576D01*
X000528Y004920D02*
X000528Y004920D01*
X000528Y004920D02*
X001000D01*
X007350Y002000D02*
X007408Y001942D01*
Y001840D02*
Y001942D01*
X007588Y001850D02*
X007598Y001840D01*
X007588Y001850D02*
Y001932D01*
X007530Y001990D02*
X007588Y001932D01*
X006350Y001750D02*
Y002300D01*
X007132Y001249D02*
Y001415D01*
Y001248D02*
Y001249D01*
X007132Y001248D02*
X007132Y001248D01*
D35*
X005700Y001157D02*
X006104D01*
X005469D02*
X005700D01*
X002689Y006031D02*
X003093D01*
X002689Y005335D02*
X003093D01*
X005500Y002052D02*
Y002425D01*
Y002052D02*
X005700Y001852D01*
X003300Y003750D02*
Y004431D01*
X003093Y004638D02*
X003300Y004431D01*
X002689Y004638D02*
X003093D01*
X005700Y000462D02*
X006104D01*
X005700Y001852D02*
X006104D01*
X005425Y001201D02*
X005469Y001157D01*
X005425Y001201D02*
Y001545D01*
D37*
X005480Y004820D02*
D03*
Y005010D02*
D03*
X003280Y001670D02*
D03*
Y001480D02*
D03*
D38*
X002446Y003250D02*
D03*
X002573Y003377D02*
D03*
D39*
X002700Y003250D02*
D03*
D40*
X000347Y002345D02*
D03*
X000547D02*
D03*
X000347Y002745D02*
D03*
X000547Y002545D02*
D03*
X000347D02*
D03*
X000547Y002745D02*
D03*
X000347Y003145D02*
D03*
X000547Y002945D02*
D03*
X000347D02*
D03*
X000547Y003145D02*
D03*
Y004145D02*
D03*
X000347Y003945D02*
D03*
X000547D02*
D03*
Y003745D02*
D03*
Y003545D02*
D03*
X000347Y003345D02*
D03*
X000547D02*
D03*
X000347Y003745D02*
D03*
Y003545D02*
D03*
D41*
Y004145D02*
D03*
D42*
X006403Y003254D02*
D03*
X005413D02*
D03*
X008410Y003508D02*
D03*
D43*
X005654D02*
D03*
Y003000D02*
D03*
D44*
X008410D02*
D03*
D45*
X004810Y005130D02*
D03*
X007802Y001740D02*
D03*
X006942Y001249D02*
D03*
X003520Y001360D02*
D03*
X004050Y003553D02*
D03*
X004264Y003647D02*
D03*
X001526Y004359D02*
D03*
X005472Y005341D02*
D03*
X005223Y005128D02*
D03*
X004239Y004703D02*
D03*
X004029D02*
D03*
X004519Y005383D02*
D03*
X004379D02*
D03*
X004800Y004014D02*
D03*
X005223Y004015D02*
D03*
X004519Y004270D02*
D03*
X004379D02*
D03*
X003959Y002485D02*
D03*
X003536Y002485D02*
D03*
X004520Y002910D02*
D03*
X004730D02*
D03*
X004240Y002230D02*
D03*
X004380D02*
D03*
X003960Y001366D02*
D03*
X004730Y001790D02*
D03*
X004520D02*
D03*
X004380Y001110D02*
D03*
X004240D02*
D03*
X000327Y004707D02*
D03*
X001756Y005362D02*
D03*
X001531Y005365D02*
D03*
X000528Y004920D02*
D03*
X001000D02*
D03*
X001453Y004660D02*
D03*
X001273D02*
D03*
X008275Y001740D02*
D03*
X007132Y001249D02*
D03*
X006350Y002300D02*
D03*
Y001750D02*
D03*
X008286Y002423D02*
D03*
X008476Y001953D02*
D03*
X007530Y002000D02*
D03*
X007350D02*
D03*
D46*
X001834Y002975D02*
D03*
X000974Y003819D02*
D03*
X001144Y003868D02*
D03*
X001514Y005170D02*
D03*
X004278Y004878D02*
D03*
X004285Y003765D02*
D03*
X007289Y001490D02*
D03*
X004468Y002743D02*
D03*
X004474Y001615D02*
D03*
X003375Y002425D02*
D03*
X005325Y004225D02*
D03*
X001431Y002975D02*
D03*
X001432Y003401D02*
D03*
X002075Y003400D02*
D03*
X003075D02*
D03*
X003150Y003275D02*
D03*
X005500Y002425D02*
D03*
X000225Y004350D02*
D03*
X004269Y005695D02*
D03*
X004246Y004582D02*
D03*
X003300Y003750D02*
D03*
X005473Y004225D02*
D03*
X004569Y002113D02*
D03*
X003286Y002300D02*
D03*
X004491Y000803D02*
D03*
X003287Y001125D02*
D03*
X007225Y002300D02*
D03*
X005425Y001545D02*
D03*
D47*
X005700Y001852D02*
D03*
Y001157D02*
D03*
Y000462D02*
D03*
Y000810D02*
D03*
Y001505D02*
D03*
X003093Y004987D02*
D03*
Y004638D02*
D03*
Y004290D02*
D03*
Y005335D02*
D03*
Y005683D02*
D03*
X006104Y000462D02*
D03*
Y000810D02*
D03*
Y001157D02*
D03*
Y001505D02*
D03*
Y001852D02*
D03*
Y002200D02*
D03*
X002689Y005683D02*
D03*
Y005335D02*
D03*
Y004987D02*
D03*
X003093Y006031D02*
D03*
X002689Y004290D02*
D03*
Y004638D02*
D03*
Y006031D02*
D03*
X005700Y002200D02*
D03*
D48*
X000397Y001845D02*
D03*
X003347Y000395D02*
D03*
X001800Y006095D02*
D03*
X008397Y004645D02*
D03*
X006993Y000395D02*
D03*
X005447Y006095D02*
D03*
X004397Y003245D02*
D03*
M02*
