G04*
G04 #@! TF.GenerationSoftware,Altium Limited,Altium Designer,20.1.10 (176)*
G04*
G04 Layer_Color=32896*
%FSAX42Y42*%
%MOMM*%
G71*
G04*
G04 #@! TF.SameCoordinates,63434018-A3C6-436E-83B0-3C2E02A57827*
G04*
G04*
G04 #@! TF.FilePolarity,Positive*
G04*
G01*
G75*
%ADD10C,0.25*%
%ADD12C,0.20*%
%ADD13C,0.15*%
%ADD14C,0.10*%
%ADD88C,0.25*%
D10*
X003288Y000736D02*
Y001054D01*
X003149D02*
X003288D01*
X003149Y000736D02*
Y001054D01*
Y000736D02*
X003288D01*
X002793Y001054D02*
X003149D01*
X002793Y000736D02*
Y001054D01*
Y000736D02*
X003149D01*
D12*
X001850Y004357D02*
G03*
X001850Y004283I000000J-000037D01*
G01*
X007670Y001847D02*
G03*
X007670Y001773I000000J-000037D01*
G01*
X004470Y001847D02*
G03*
X004470Y001773I000000J-000037D01*
G01*
X005050Y004357D02*
G03*
X005050Y004283I000000J-000037D01*
G01*
X003450Y004357D02*
G03*
X003450Y004283I000000J-000037D01*
G01*
X006070Y001847D02*
G03*
X006070Y001773I000000J-000037D01*
G01*
X004690Y005642D02*
Y005712D01*
X004400Y005642D02*
Y005712D01*
Y005642D02*
X004690D01*
X004400Y005712D02*
X004690D01*
X005100Y003085D02*
Y003130D01*
Y002870D02*
Y002915D01*
X004938Y002870D02*
X005100D01*
X004938Y003130D02*
X005100D01*
X001330Y004110D02*
X001850D01*
X001330D02*
Y004526D01*
Y004530D02*
X001850D01*
Y004357D02*
Y004530D01*
Y004110D02*
Y004283D01*
X007150Y001600D02*
X007670D01*
X007150D02*
Y002016D01*
Y002020D02*
X007670D01*
Y001847D02*
Y002020D01*
Y001600D02*
Y001773D01*
X003950Y001600D02*
X004470D01*
X003950D02*
Y002016D01*
Y002020D02*
X004470D01*
Y001847D02*
Y002020D01*
Y001600D02*
Y001773D01*
X004530Y004110D02*
X005050D01*
X004530D02*
Y004526D01*
Y004530D02*
X005050D01*
Y004357D02*
Y004530D01*
Y004110D02*
Y004283D01*
X002930Y004110D02*
X003450D01*
X002930D02*
Y004526D01*
Y004530D02*
X003450D01*
Y004357D02*
Y004530D01*
Y004110D02*
Y004283D01*
X005550Y001600D02*
X006070D01*
X005550D02*
Y002016D01*
Y002020D02*
X006070D01*
Y001847D02*
Y002020D01*
Y001600D02*
Y001773D01*
D13*
X002952Y004831D02*
Y004958D01*
X002635Y004831D02*
Y004958D01*
X002762Y004971D02*
X002825D01*
X002762Y004819D02*
X002825D01*
X003290Y005004D02*
Y005131D01*
X002973Y005004D02*
Y005131D01*
X003100Y005144D02*
X003163D01*
X003100Y004991D02*
X003163D01*
X003290Y004831D02*
Y004958D01*
X002973Y004831D02*
Y004958D01*
X003100Y004971D02*
X003163D01*
X003100Y004819D02*
X003163D01*
X002648Y004419D02*
X002775D01*
X002648Y004101D02*
X002775D01*
X002635Y004228D02*
Y004292D01*
X002787Y004228D02*
Y004292D01*
X002648Y004439D02*
X002775D01*
X002648Y004756D02*
X002775D01*
X002787Y004566D02*
Y004629D01*
X002635Y004566D02*
Y004629D01*
X003628Y004831D02*
Y004958D01*
X003310Y004831D02*
Y004958D01*
X003437Y004971D02*
X003501D01*
X003437Y004819D02*
X003501D01*
X002952Y005004D02*
Y005131D01*
X002635Y005004D02*
Y005131D01*
X002762Y005144D02*
X002825D01*
X002762Y004991D02*
X002825D01*
X001162Y004819D02*
X001225D01*
X001162Y004971D02*
X001225D01*
X001035Y004831D02*
Y004958D01*
X001352Y004831D02*
Y004958D01*
X002200Y004948D02*
Y005012D01*
X002048Y004948D02*
Y005012D01*
X002061Y004821D02*
X002188D01*
X002061Y005138D02*
X002188D01*
X001500Y004991D02*
X001563D01*
X001500Y005144D02*
X001563D01*
X001373Y005004D02*
Y005131D01*
X001690Y005004D02*
Y005131D01*
X001500Y004819D02*
X001563D01*
X001500Y004971D02*
X001563D01*
X001373Y004831D02*
Y004958D01*
X001690Y004831D02*
Y004958D01*
X001837Y004819D02*
X001901D01*
X001837Y004971D02*
X001901D01*
X001710Y004831D02*
Y004958D01*
X002028Y004831D02*
Y004958D01*
X001187Y004228D02*
Y004292D01*
X001035Y004228D02*
Y004292D01*
X001048Y004101D02*
X001175D01*
X001048Y004419D02*
X001175D01*
X001035Y004566D02*
Y004629D01*
X001187Y004566D02*
Y004629D01*
X001048Y004756D02*
X001175D01*
X001048Y004439D02*
X001175D01*
X001162Y004991D02*
X001225D01*
X001162Y005144D02*
X001225D01*
X001035Y005004D02*
Y005131D01*
X001352Y005004D02*
Y005131D01*
X001837Y004991D02*
X001901D01*
X001837Y005144D02*
X001901D01*
X001710Y005004D02*
Y005131D01*
X002028Y005004D02*
Y005131D01*
X005720Y002481D02*
X005783D01*
X005720Y002634D02*
X005783D01*
X005593Y002494D02*
Y002621D01*
X005910Y002494D02*
Y002621D01*
X004120Y002481D02*
X004183D01*
X004120Y002634D02*
X004183D01*
X003993Y002494D02*
Y002621D01*
X004310Y002494D02*
Y002621D01*
X004700Y004991D02*
X004763D01*
X004700Y005144D02*
X004763D01*
X004573Y005004D02*
Y005131D01*
X004890Y005004D02*
Y005131D01*
X007657Y002481D02*
X007721D01*
X007657Y002634D02*
X007721D01*
X007530Y002494D02*
Y002621D01*
X007848Y002494D02*
Y002621D01*
X006855Y002056D02*
Y002119D01*
X007007Y002056D02*
Y002119D01*
X006868Y002246D02*
X006995D01*
X006868Y001929D02*
X006995D01*
X006982Y002481D02*
X007045D01*
X006982Y002634D02*
X007045D01*
X006855Y002494D02*
Y002621D01*
X007172Y002494D02*
Y002621D01*
X007007Y001718D02*
Y001782D01*
X006855Y001718D02*
Y001782D01*
X006868Y001591D02*
X006995D01*
X006868Y001909D02*
X006995D01*
X007657Y002309D02*
X007721D01*
X007657Y002461D02*
X007721D01*
X007530Y002322D02*
Y002449D01*
X007848Y002322D02*
Y002449D01*
X007320Y002309D02*
X007383D01*
X007320Y002461D02*
X007383D01*
X007193Y002322D02*
Y002449D01*
X007510Y002322D02*
Y002449D01*
X007320Y002481D02*
X007383D01*
X007320Y002634D02*
X007383D01*
X007193Y002494D02*
Y002621D01*
X007510Y002494D02*
Y002621D01*
X006982Y002309D02*
X007045D01*
X006982Y002461D02*
X007045D01*
X006855Y002322D02*
Y002449D01*
X007172Y002322D02*
Y002449D01*
X008020Y002438D02*
Y002501D01*
X007868Y002438D02*
Y002501D01*
X007881Y002311D02*
X008008D01*
X007881Y002628D02*
X008008D01*
X003782Y002309D02*
X003845D01*
X003782Y002461D02*
X003845D01*
X003655Y002322D02*
Y002449D01*
X003972Y002322D02*
Y002449D01*
X004362Y004819D02*
X004425D01*
X004362Y004971D02*
X004425D01*
X004235Y004831D02*
Y004958D01*
X004552Y004831D02*
Y004958D01*
X005382Y002309D02*
X005445D01*
X005382Y002461D02*
X005445D01*
X005255Y002322D02*
Y002449D01*
X005572Y002322D02*
Y002449D01*
X004457Y002481D02*
X004521D01*
X004457Y002634D02*
X004521D01*
X004330Y002494D02*
Y002621D01*
X004648Y002494D02*
Y002621D01*
X003782Y002481D02*
X003845D01*
X003782Y002634D02*
X003845D01*
X003655Y002494D02*
Y002621D01*
X003972Y002494D02*
Y002621D01*
X003655Y002056D02*
Y002119D01*
X003807Y002056D02*
Y002119D01*
X003668Y002247D02*
X003795D01*
X003668Y001929D02*
X003795D01*
X003807Y001718D02*
Y001782D01*
X003655Y001718D02*
Y001782D01*
X003668Y001591D02*
X003795D01*
X003668Y001909D02*
X003795D01*
X004457Y002309D02*
X004521D01*
X004457Y002461D02*
X004521D01*
X004330Y002322D02*
Y002449D01*
X004648Y002322D02*
Y002449D01*
X004120Y002309D02*
X004183D01*
X004120Y002461D02*
X004183D01*
X003993Y002322D02*
Y002449D01*
X004310Y002322D02*
Y002449D01*
X004820Y002438D02*
Y002501D01*
X004668Y002438D02*
Y002501D01*
X004681Y002311D02*
X004808D01*
X004681Y002628D02*
X004808D01*
X005037Y004991D02*
X005101D01*
X005037Y005144D02*
X005101D01*
X004910Y005004D02*
Y005131D01*
X005228Y005004D02*
Y005131D01*
X004362Y004991D02*
X004425D01*
X004362Y005144D02*
X004425D01*
X004235Y005004D02*
Y005131D01*
X004552Y005004D02*
Y005131D01*
X004235Y004566D02*
Y004629D01*
X004387Y004566D02*
Y004629D01*
X004248Y004756D02*
X004375D01*
X004248Y004439D02*
X004375D01*
X004387Y004228D02*
Y004292D01*
X004235Y004228D02*
Y004292D01*
X004248Y004101D02*
X004375D01*
X004248Y004419D02*
X004375D01*
X005037Y004819D02*
X005101D01*
X005037Y004971D02*
X005101D01*
X004910Y004831D02*
Y004958D01*
X005228Y004831D02*
Y004958D01*
X004700Y004819D02*
X004763D01*
X004700Y004971D02*
X004763D01*
X004573Y004831D02*
Y004958D01*
X004890Y004831D02*
Y004958D01*
X005400Y004948D02*
Y005012D01*
X005248Y004948D02*
Y005012D01*
X005261Y004821D02*
X005388D01*
X005261Y005138D02*
X005388D01*
X003437Y004991D02*
X003501D01*
X003437Y005144D02*
X003501D01*
X003310Y005004D02*
Y005131D01*
X003628Y005004D02*
Y005131D01*
X003800Y004948D02*
Y005012D01*
X003648Y004948D02*
Y005012D01*
X003661Y004821D02*
X003788D01*
X003661Y005138D02*
X003788D01*
X005255Y002056D02*
Y002119D01*
X005407Y002056D02*
Y002119D01*
X005268Y002246D02*
X005395D01*
X005268Y001929D02*
X005395D01*
X005382Y002481D02*
X005445D01*
X005382Y002634D02*
X005445D01*
X005255Y002494D02*
Y002621D01*
X005572Y002494D02*
Y002621D01*
X005407Y001718D02*
Y001782D01*
X005255Y001718D02*
Y001782D01*
X005268Y001591D02*
X005395D01*
X005268Y001909D02*
X005395D01*
X006420Y002438D02*
Y002501D01*
X006268Y002438D02*
Y002501D01*
X006281Y002311D02*
X006408D01*
X006281Y002628D02*
X006408D01*
X005720Y002309D02*
X005783D01*
X005720Y002461D02*
X005783D01*
X005593Y002322D02*
Y002449D01*
X005910Y002322D02*
Y002449D01*
X006057Y002309D02*
X006121D01*
X006057Y002461D02*
X006121D01*
X005930Y002322D02*
Y002449D01*
X006248Y002322D02*
Y002449D01*
X006057Y002481D02*
X006121D01*
X006057Y002634D02*
X006121D01*
X005930Y002494D02*
Y002621D01*
X006248Y002494D02*
Y002621D01*
D14*
X007823Y001852D02*
Y001810D01*
X007814Y001802D01*
X007798D01*
X007789Y001810D01*
Y001852D01*
X007773Y001802D02*
X007756D01*
X007764D01*
Y001852D01*
X007773Y001844D01*
X007971Y002675D02*
Y002725D01*
X007946D01*
X007938Y002717D01*
Y002700D01*
X007946Y002692D01*
X007971D01*
X007954D02*
X007938Y002675D01*
X007896D02*
Y002725D01*
X007921Y002700D01*
X007888D01*
X006735Y002365D02*
Y002415D01*
X006710D01*
X006702Y002407D01*
Y002390D01*
X006710Y002382D01*
X006735D01*
X006718D02*
X006702Y002365D01*
X006652Y002415D02*
X006685D01*
Y002390D01*
X006668Y002398D01*
X006660D01*
X006652Y002390D01*
Y002373D01*
X006660Y002365D01*
X006677D01*
X006685Y002373D01*
X007292Y002895D02*
Y002945D01*
X007267D01*
X007258Y002936D01*
Y002920D01*
X007267Y002911D01*
X007292D01*
X007275D02*
X007258Y002895D01*
X007242Y002936D02*
X007233Y002945D01*
X007217D01*
X007208Y002936D01*
Y002928D01*
X007217Y002920D01*
X007225D01*
X007217D01*
X007208Y002911D01*
Y002903D01*
X007217Y002895D01*
X007233D01*
X007242Y002903D01*
X007292Y002815D02*
Y002865D01*
X007267D01*
X007258Y002856D01*
Y002840D01*
X007267Y002831D01*
X007292D01*
X007275D02*
X007258Y002815D01*
X007208D02*
X007242D01*
X007208Y002848D01*
Y002856D01*
X007217Y002865D01*
X007233D01*
X007242Y002856D01*
X007686Y002665D02*
Y002715D01*
X007661D01*
X007653Y002706D01*
Y002690D01*
X007661Y002681D01*
X007686D01*
X007669D02*
X007653Y002665D01*
X007636D02*
X007619D01*
X007628D01*
Y002715D01*
X007636Y002706D01*
X006702Y001767D02*
X006710Y001775D01*
X006727D01*
X006735Y001767D01*
Y001733D01*
X006727Y001725D01*
X006710D01*
X006702Y001733D01*
X006660Y001725D02*
Y001775D01*
X006685Y001750D01*
X006652D01*
X006702Y002587D02*
X006710Y002595D01*
X006727D01*
X006735Y002587D01*
Y002553D01*
X006727Y002545D01*
X006710D01*
X006702Y002553D01*
X006685Y002587D02*
X006677Y002595D01*
X006660D01*
X006652Y002587D01*
Y002578D01*
X006660Y002570D01*
X006668D01*
X006660D01*
X006652Y002562D01*
Y002553D01*
X006660Y002545D01*
X006677D01*
X006685Y002553D01*
X006702Y002106D02*
X006710Y002115D01*
X006727D01*
X006735Y002106D01*
Y002073D01*
X006727Y002065D01*
X006710D01*
X006702Y002073D01*
X006652Y002065D02*
X006685D01*
X006652Y002098D01*
Y002106D01*
X006660Y002115D01*
X006677D01*
X006685Y002106D01*
X007661Y002786D02*
X007669Y002795D01*
X007686D01*
X007694Y002786D01*
Y002753D01*
X007686Y002745D01*
X007669D01*
X007661Y002753D01*
X007644Y002745D02*
X007628D01*
X007636D01*
Y002795D01*
X007644Y002786D01*
X004919Y003260D02*
Y003227D01*
X004902Y003210D01*
X004885Y003227D01*
Y003260D01*
X004869D02*
Y003210D01*
X004844D01*
X004835Y003219D01*
Y003252D01*
X004844Y003260D01*
X004869D01*
X004819Y003210D02*
X004802D01*
X004810D01*
Y003260D01*
X004819Y003252D01*
X004492Y005950D02*
Y005908D01*
X004483Y005900D01*
X004467D01*
X004458Y005908D01*
Y005950D01*
X004442D02*
X004408D01*
Y005942D01*
X004442Y005908D01*
Y005900D01*
X002019Y004362D02*
Y004320D01*
X002011Y004312D01*
X001994D01*
X001986Y004320D01*
Y004362D01*
X001936D02*
X001953Y004354D01*
X001969Y004337D01*
Y004320D01*
X001961Y004312D01*
X001944D01*
X001936Y004320D01*
Y004329D01*
X001944Y004337D01*
X001969D01*
X003619Y004362D02*
Y004320D01*
X003611Y004312D01*
X003594D01*
X003586Y004320D01*
Y004362D01*
X003536D02*
X003569D01*
Y004337D01*
X003553Y004345D01*
X003544D01*
X003536Y004337D01*
Y004320D01*
X003544Y004312D01*
X003561D01*
X003569Y004320D01*
X005219Y004362D02*
Y004320D01*
X005211Y004312D01*
X005194D01*
X005186Y004320D01*
Y004362D01*
X005144Y004312D02*
Y004362D01*
X005169Y004337D01*
X005136D01*
X004639Y001852D02*
Y001810D01*
X004631Y001802D01*
X004614D01*
X004606Y001810D01*
Y001852D01*
X004589Y001844D02*
X004581Y001852D01*
X004564D01*
X004556Y001844D01*
Y001835D01*
X004564Y001827D01*
X004573D01*
X004564D01*
X004556Y001819D01*
Y001810D01*
X004564Y001802D01*
X004581D01*
X004589Y001810D01*
X006239Y001852D02*
Y001810D01*
X006231Y001802D01*
X006214D01*
X006206Y001810D01*
Y001852D01*
X006156Y001802D02*
X006189D01*
X006156Y001835D01*
Y001844D01*
X006164Y001852D01*
X006181D01*
X006189Y001844D01*
X000965Y004875D02*
Y004925D01*
X000940D01*
X000932Y004917D01*
Y004900D01*
X000940Y004892D01*
X000965D01*
X000948D02*
X000932Y004875D01*
X000915Y004925D02*
X000882D01*
Y004917D01*
X000915Y004883D01*
Y004875D01*
X000865Y004917D02*
X000857Y004925D01*
X000840D01*
X000832Y004917D01*
Y004883D01*
X000840Y004875D01*
X000857D01*
X000865Y004883D01*
Y004917D01*
X002201Y005185D02*
Y005235D01*
X002176D01*
X002167Y005227D01*
Y005210D01*
X002176Y005202D01*
X002201D01*
X002184D02*
X002167Y005185D01*
X002118Y005235D02*
X002134Y005227D01*
X002151Y005210D01*
Y005193D01*
X002142Y005185D01*
X002126D01*
X002118Y005193D01*
Y005202D01*
X002126Y005210D01*
X002151D01*
X002101Y005193D02*
X002093Y005185D01*
X002076D01*
X002068Y005193D01*
Y005227D01*
X002076Y005235D01*
X002093D01*
X002101Y005227D01*
Y005218D01*
X002093Y005210D01*
X002068D01*
X001577Y005455D02*
Y005505D01*
X001552D01*
X001543Y005496D01*
Y005480D01*
X001552Y005471D01*
X001577D01*
X001560D02*
X001543Y005455D01*
X001493Y005505D02*
X001510Y005496D01*
X001527Y005480D01*
Y005463D01*
X001518Y005455D01*
X001502D01*
X001493Y005463D01*
Y005471D01*
X001502Y005480D01*
X001527D01*
X001477Y005496D02*
X001468Y005505D01*
X001452D01*
X001443Y005496D01*
Y005488D01*
X001452Y005480D01*
X001443Y005471D01*
Y005463D01*
X001452Y005455D01*
X001468D01*
X001477Y005463D01*
Y005471D01*
X001468Y005480D01*
X001477Y005488D01*
Y005496D01*
X001468Y005480D02*
X001452D01*
X001577Y005375D02*
Y005425D01*
X001552D01*
X001543Y005416D01*
Y005400D01*
X001552Y005391D01*
X001577D01*
X001560D02*
X001543Y005375D01*
X001493Y005425D02*
X001510Y005416D01*
X001527Y005400D01*
Y005383D01*
X001518Y005375D01*
X001502D01*
X001493Y005383D01*
Y005391D01*
X001502Y005400D01*
X001527D01*
X001477Y005425D02*
X001443D01*
Y005416D01*
X001477Y005383D01*
Y005375D01*
X001912D02*
Y005425D01*
X001887D01*
X001879Y005416D01*
Y005400D01*
X001887Y005391D01*
X001912D01*
X001896D02*
X001879Y005375D01*
X001829Y005425D02*
X001846Y005416D01*
X001862Y005400D01*
Y005383D01*
X001854Y005375D01*
X001838D01*
X001829Y005383D01*
Y005391D01*
X001838Y005400D01*
X001862D01*
X001779Y005425D02*
X001796Y005416D01*
X001813Y005400D01*
Y005383D01*
X001804Y005375D01*
X001788D01*
X001779Y005383D01*
Y005391D01*
X001788Y005400D01*
X001813D01*
X002565Y004875D02*
Y004925D01*
X002540D01*
X002532Y004917D01*
Y004900D01*
X002540Y004892D01*
X002565D01*
X002548D02*
X002532Y004875D01*
X002482Y004925D02*
X002515D01*
Y004900D01*
X002498Y004908D01*
X002490D01*
X002482Y004900D01*
Y004883D01*
X002490Y004875D01*
X002507D01*
X002515Y004883D01*
X002465Y004925D02*
X002432D01*
Y004917D01*
X002465Y004883D01*
Y004875D01*
X003801Y005185D02*
Y005235D01*
X003776D01*
X003767Y005227D01*
Y005210D01*
X003776Y005202D01*
X003801D01*
X003784D02*
X003767Y005185D01*
X003718Y005235D02*
X003751D01*
Y005210D01*
X003734Y005218D01*
X003726D01*
X003718Y005210D01*
Y005193D01*
X003726Y005185D01*
X003742D01*
X003751Y005193D01*
X003668Y005235D02*
X003684Y005227D01*
X003701Y005210D01*
Y005193D01*
X003693Y005185D01*
X003676D01*
X003668Y005193D01*
Y005202D01*
X003676Y005210D01*
X003701D01*
X003512Y005415D02*
Y005465D01*
X003487D01*
X003478Y005456D01*
Y005440D01*
X003487Y005431D01*
X003512D01*
X003495D02*
X003478Y005415D01*
X003428Y005465D02*
X003462D01*
Y005440D01*
X003445Y005448D01*
X003437D01*
X003428Y005440D01*
Y005423D01*
X003437Y005415D01*
X003453D01*
X003462Y005423D01*
X003378Y005465D02*
X003412D01*
Y005440D01*
X003395Y005448D01*
X003387D01*
X003378Y005440D01*
Y005423D01*
X003387Y005415D01*
X003403D01*
X003412Y005423D01*
X003512Y005335D02*
Y005385D01*
X003487D01*
X003478Y005376D01*
Y005360D01*
X003487Y005351D01*
X003512D01*
X003495D02*
X003478Y005335D01*
X003428Y005385D02*
X003462D01*
Y005360D01*
X003445Y005368D01*
X003437D01*
X003428Y005360D01*
Y005343D01*
X003437Y005335D01*
X003453D01*
X003462Y005343D01*
X003387Y005335D02*
Y005385D01*
X003412Y005360D01*
X003378D01*
X003712Y005335D02*
Y005385D01*
X003687D01*
X003679Y005376D01*
Y005360D01*
X003687Y005351D01*
X003712D01*
X003696D02*
X003679Y005335D01*
X003629Y005385D02*
X003662D01*
Y005360D01*
X003646Y005368D01*
X003638D01*
X003629Y005360D01*
Y005343D01*
X003638Y005335D01*
X003654D01*
X003662Y005343D01*
X003613Y005376D02*
X003604Y005385D01*
X003588D01*
X003579Y005376D01*
Y005368D01*
X003588Y005360D01*
X003596D01*
X003588D01*
X003579Y005351D01*
Y005343D01*
X003588Y005335D01*
X003604D01*
X003613Y005343D01*
X004165Y004875D02*
Y004925D01*
X004140D01*
X004132Y004917D01*
Y004900D01*
X004140Y004892D01*
X004165D01*
X004148D02*
X004132Y004875D01*
X004090D02*
Y004925D01*
X004115Y004900D01*
X004082D01*
X004040Y004875D02*
Y004925D01*
X004065Y004900D01*
X004032D01*
X005401Y005185D02*
Y005235D01*
X005376D01*
X005367Y005227D01*
Y005210D01*
X005376Y005202D01*
X005401D01*
X005384D02*
X005367Y005185D01*
X005326D02*
Y005235D01*
X005351Y005210D01*
X005318D01*
X005301Y005227D02*
X005293Y005235D01*
X005276D01*
X005268Y005227D01*
Y005218D01*
X005276Y005210D01*
X005284D01*
X005276D01*
X005268Y005202D01*
Y005193D01*
X005276Y005185D01*
X005293D01*
X005301Y005193D01*
X004787Y005395D02*
Y005445D01*
X004762D01*
X004753Y005436D01*
Y005420D01*
X004762Y005411D01*
X004787D01*
X004770D02*
X004753Y005395D01*
X004712D02*
Y005445D01*
X004737Y005420D01*
X004703D01*
X004653Y005395D02*
X004687D01*
X004653Y005428D01*
Y005436D01*
X004662Y005445D01*
X004678D01*
X004687Y005436D01*
X004770Y005315D02*
Y005365D01*
X004745D01*
X004737Y005356D01*
Y005340D01*
X004745Y005331D01*
X004770D01*
X004753D02*
X004737Y005315D01*
X004695D02*
Y005365D01*
X004720Y005340D01*
X004687D01*
X004670Y005315D02*
X004653D01*
X004662D01*
Y005365D01*
X004670Y005356D01*
X005042Y005315D02*
Y005365D01*
X005017D01*
X005009Y005356D01*
Y005340D01*
X005017Y005331D01*
X005042D01*
X005026D02*
X005009Y005315D01*
X004968D02*
Y005365D01*
X004992Y005340D01*
X004959D01*
X004943Y005356D02*
X004934Y005365D01*
X004918D01*
X004909Y005356D01*
Y005323D01*
X004918Y005315D01*
X004934D01*
X004943Y005323D01*
Y005356D01*
X003568Y002365D02*
Y002415D01*
X003543D01*
X003535Y002407D01*
Y002390D01*
X003543Y002382D01*
X003568D01*
X003552D02*
X003535Y002365D01*
X003518Y002407D02*
X003510Y002415D01*
X003493D01*
X003485Y002407D01*
Y002398D01*
X003493Y002390D01*
X003502D01*
X003493D01*
X003485Y002382D01*
Y002373D01*
X003493Y002365D01*
X003510D01*
X003518Y002373D01*
X003468Y002365D02*
X003452D01*
X003460D01*
Y002415D01*
X003468Y002407D01*
X004821Y002675D02*
Y002725D01*
X004796D01*
X004787Y002717D01*
Y002700D01*
X004796Y002692D01*
X004821D01*
X004804D02*
X004787Y002675D01*
X004771Y002717D02*
X004762Y002725D01*
X004746D01*
X004738Y002717D01*
Y002708D01*
X004746Y002700D01*
X004754D01*
X004746D01*
X004738Y002692D01*
Y002683D01*
X004746Y002675D01*
X004762D01*
X004771Y002683D01*
X004721Y002717D02*
X004713Y002725D01*
X004696D01*
X004688Y002717D01*
Y002683D01*
X004696Y002675D01*
X004713D01*
X004721Y002683D01*
Y002717D01*
X004217Y002895D02*
Y002945D01*
X004192D01*
X004183Y002936D01*
Y002920D01*
X004192Y002911D01*
X004217D01*
X004200D02*
X004183Y002895D01*
X004133D02*
X004167D01*
X004133Y002928D01*
Y002936D01*
X004142Y002945D01*
X004158D01*
X004167Y002936D01*
X004117Y002903D02*
X004108Y002895D01*
X004092D01*
X004083Y002903D01*
Y002936D01*
X004092Y002945D01*
X004108D01*
X004117Y002936D01*
Y002928D01*
X004108Y002920D01*
X004083D01*
X004217Y002815D02*
Y002865D01*
X004192D01*
X004183Y002856D01*
Y002840D01*
X004192Y002831D01*
X004217D01*
X004200D02*
X004183Y002815D01*
X004133D02*
X004167D01*
X004133Y002848D01*
Y002856D01*
X004142Y002865D01*
X004158D01*
X004167Y002856D01*
X004117D02*
X004108Y002865D01*
X004092D01*
X004083Y002856D01*
Y002848D01*
X004092Y002840D01*
X004083Y002831D01*
Y002823D01*
X004092Y002815D01*
X004108D01*
X004117Y002823D01*
Y002831D01*
X004108Y002840D01*
X004117Y002848D01*
Y002856D01*
X004108Y002840D02*
X004092D01*
X004532Y002815D02*
Y002865D01*
X004507D01*
X004499Y002856D01*
Y002840D01*
X004507Y002831D01*
X004532D01*
X004516D02*
X004499Y002815D01*
X004449D02*
X004482D01*
X004449Y002848D01*
Y002856D01*
X004458Y002865D01*
X004474D01*
X004482Y002856D01*
X004433Y002865D02*
X004399D01*
Y002856D01*
X004433Y002823D01*
Y002815D01*
X005177Y002365D02*
Y002415D01*
X005152D01*
X005143Y002407D01*
Y002390D01*
X005152Y002382D01*
X005177D01*
X005160D02*
X005143Y002365D01*
X005127D02*
X005110D01*
X005118D01*
Y002415D01*
X005127Y002407D01*
X005085D02*
X005077Y002415D01*
X005060D01*
X005052Y002407D01*
Y002398D01*
X005060Y002390D01*
X005052Y002382D01*
Y002373D01*
X005060Y002365D01*
X005077D01*
X005085Y002373D01*
Y002382D01*
X005077Y002390D01*
X005085Y002398D01*
Y002407D01*
X005077Y002390D02*
X005060D01*
X006412Y002675D02*
Y002725D01*
X006387D01*
X006379Y002717D01*
Y002700D01*
X006387Y002692D01*
X006412D01*
X006396D02*
X006379Y002675D01*
X006362D02*
X006346D01*
X006354D01*
Y002725D01*
X006362Y002717D01*
X006321Y002725D02*
X006288D01*
Y002717D01*
X006321Y002683D01*
Y002675D01*
X005778Y002895D02*
Y002945D01*
X005753D01*
X005745Y002936D01*
Y002920D01*
X005753Y002911D01*
X005778D01*
X005762D02*
X005745Y002895D01*
X005728D02*
X005712D01*
X005720D01*
Y002945D01*
X005728Y002936D01*
X005653Y002945D02*
X005670Y002936D01*
X005687Y002920D01*
Y002903D01*
X005678Y002895D01*
X005662D01*
X005653Y002903D01*
Y002911D01*
X005662Y002920D01*
X005687D01*
X005778Y002815D02*
Y002865D01*
X005753D01*
X005745Y002856D01*
Y002840D01*
X005753Y002831D01*
X005778D01*
X005762D02*
X005745Y002815D01*
X005728D02*
X005712D01*
X005720D01*
Y002865D01*
X005728Y002856D01*
X005653Y002865D02*
X005687D01*
Y002840D01*
X005670Y002848D01*
X005662D01*
X005653Y002840D01*
Y002823D01*
X005662Y002815D01*
X005678D01*
X005687Y002823D01*
X006124Y002815D02*
Y002865D01*
X006099D01*
X006091Y002856D01*
Y002840D01*
X006099Y002831D01*
X006124D01*
X006107D02*
X006091Y002815D01*
X006074D02*
X006058D01*
X006066D01*
Y002865D01*
X006074Y002856D01*
X006008Y002815D02*
Y002865D01*
X006033Y002840D01*
X005999D01*
X000932Y004277D02*
X000940Y004285D01*
X000957D01*
X000965Y004277D01*
Y004243D01*
X000957Y004235D01*
X000940D01*
X000932Y004243D01*
X000890Y004235D02*
Y004285D01*
X000915Y004260D01*
X000882D01*
X000840Y004235D02*
Y004285D01*
X000865Y004260D01*
X000832D01*
X000932Y004616D02*
X000940Y004625D01*
X000957D01*
X000965Y004616D01*
Y004583D01*
X000957Y004575D01*
X000940D01*
X000932Y004583D01*
X000890Y004575D02*
Y004625D01*
X000915Y004600D01*
X000882D01*
X000832Y004575D02*
X000865D01*
X000832Y004608D01*
Y004616D01*
X000840Y004625D01*
X000857D01*
X000865Y004616D01*
X000932Y005097D02*
X000940Y005105D01*
X000957D01*
X000965Y005097D01*
Y005063D01*
X000957Y005055D01*
X000940D01*
X000932Y005063D01*
X000890Y005055D02*
Y005105D01*
X000915Y005080D01*
X000882D01*
X000865Y005097D02*
X000857Y005105D01*
X000840D01*
X000832Y005097D01*
Y005088D01*
X000840Y005080D01*
X000848D01*
X000840D01*
X000832Y005072D01*
Y005063D01*
X000840Y005055D01*
X000857D01*
X000865Y005063D01*
X002532Y004277D02*
X002540Y004285D01*
X002557D01*
X002565Y004277D01*
Y004243D01*
X002557Y004235D01*
X002540D01*
X002532Y004243D01*
X002515Y004277D02*
X002507Y004285D01*
X002490D01*
X002482Y004277D01*
Y004268D01*
X002490Y004260D01*
X002498D01*
X002490D01*
X002482Y004252D01*
Y004243D01*
X002490Y004235D01*
X002507D01*
X002515Y004243D01*
X002432Y004285D02*
X002448Y004277D01*
X002465Y004260D01*
Y004243D01*
X002457Y004235D01*
X002440D01*
X002432Y004243D01*
Y004252D01*
X002440Y004260D01*
X002465D01*
X001871Y005496D02*
X001879Y005505D01*
X001896D01*
X001904Y005496D01*
Y005463D01*
X001896Y005455D01*
X001879D01*
X001871Y005463D01*
X001829Y005455D02*
Y005505D01*
X001854Y005480D01*
X001821D01*
X001804Y005455D02*
X001788D01*
X001796D01*
Y005505D01*
X001804Y005496D01*
X002532Y004616D02*
X002540Y004625D01*
X002557D01*
X002565Y004616D01*
Y004583D01*
X002557Y004575D01*
X002540D01*
X002532Y004583D01*
X002515Y004616D02*
X002507Y004625D01*
X002490D01*
X002482Y004616D01*
Y004608D01*
X002490Y004600D01*
X002498D01*
X002490D01*
X002482Y004591D01*
Y004583D01*
X002490Y004575D01*
X002507D01*
X002515Y004583D01*
X002440Y004575D02*
Y004625D01*
X002465Y004600D01*
X002432D01*
X002532Y005097D02*
X002540Y005105D01*
X002557D01*
X002565Y005097D01*
Y005063D01*
X002557Y005055D01*
X002540D01*
X002532Y005063D01*
X002515Y005097D02*
X002507Y005105D01*
X002490D01*
X002482Y005097D01*
Y005088D01*
X002490Y005080D01*
X002498D01*
X002490D01*
X002482Y005072D01*
Y005063D01*
X002490Y005055D01*
X002507D01*
X002515Y005063D01*
X002432Y005105D02*
X002465D01*
Y005080D01*
X002448Y005088D01*
X002440D01*
X002432Y005080D01*
Y005063D01*
X002440Y005055D01*
X002457D01*
X002465Y005063D01*
X003687Y005456D02*
X003696Y005465D01*
X003712D01*
X003721Y005456D01*
Y005423D01*
X003712Y005415D01*
X003696D01*
X003687Y005423D01*
X003671Y005456D02*
X003662Y005465D01*
X003646D01*
X003638Y005456D01*
Y005448D01*
X003646Y005440D01*
X003654D01*
X003646D01*
X003638Y005431D01*
Y005423D01*
X003646Y005415D01*
X003662D01*
X003671Y005423D01*
X003621Y005456D02*
X003613Y005465D01*
X003596D01*
X003588Y005456D01*
Y005448D01*
X003596Y005440D01*
X003604D01*
X003596D01*
X003588Y005431D01*
Y005423D01*
X003596Y005415D01*
X003613D01*
X003621Y005423D01*
X004132Y004277D02*
X004140Y004285D01*
X004157D01*
X004165Y004277D01*
Y004243D01*
X004157Y004235D01*
X004140D01*
X004132Y004243D01*
X004082Y004235D02*
X004115D01*
X004082Y004268D01*
Y004277D01*
X004090Y004285D01*
X004107D01*
X004115Y004277D01*
X004065D02*
X004057Y004285D01*
X004040D01*
X004032Y004277D01*
Y004268D01*
X004040Y004260D01*
X004032Y004252D01*
Y004243D01*
X004040Y004235D01*
X004057D01*
X004065Y004243D01*
Y004252D01*
X004057Y004260D01*
X004065Y004268D01*
Y004277D01*
X004057Y004260D02*
X004040D01*
X004132Y004616D02*
X004140Y004625D01*
X004157D01*
X004165Y004616D01*
Y004583D01*
X004157Y004575D01*
X004140D01*
X004132Y004583D01*
X004082Y004575D02*
X004115D01*
X004082Y004608D01*
Y004616D01*
X004090Y004625D01*
X004107D01*
X004115Y004616D01*
X004032Y004625D02*
X004048Y004616D01*
X004065Y004600D01*
Y004583D01*
X004057Y004575D01*
X004040D01*
X004032Y004583D01*
Y004591D01*
X004040Y004600D01*
X004065D01*
X004132Y005097D02*
X004140Y005105D01*
X004157D01*
X004165Y005097D01*
Y005063D01*
X004157Y005055D01*
X004140D01*
X004132Y005063D01*
X004082Y005055D02*
X004115D01*
X004082Y005088D01*
Y005097D01*
X004090Y005105D01*
X004107D01*
X004115Y005097D01*
X004065Y005105D02*
X004032D01*
Y005097D01*
X004065Y005063D01*
Y005055D01*
X005017Y005436D02*
X005026Y005445D01*
X005042D01*
X005051Y005436D01*
Y005403D01*
X005042Y005395D01*
X005026D01*
X005017Y005403D01*
X004968Y005395D02*
X005001D01*
X004968Y005428D01*
Y005436D01*
X004976Y005445D01*
X004992D01*
X005001Y005436D01*
X004918Y005445D02*
X004951D01*
Y005420D01*
X004934Y005428D01*
X004926D01*
X004918Y005420D01*
Y005403D01*
X004926Y005395D01*
X004943D01*
X004951Y005403D01*
X003552Y001767D02*
X003560Y001775D01*
X003577D01*
X003585Y001767D01*
Y001733D01*
X003577Y001725D01*
X003560D01*
X003552Y001733D01*
X003502Y001725D02*
X003535D01*
X003502Y001758D01*
Y001767D01*
X003510Y001775D01*
X003527D01*
X003535Y001767D01*
X003485D02*
X003477Y001775D01*
X003460D01*
X003452Y001767D01*
Y001733D01*
X003460Y001725D01*
X003477D01*
X003485Y001733D01*
Y001767D01*
X003543Y002106D02*
X003552Y002115D01*
X003568D01*
X003577Y002106D01*
Y002073D01*
X003568Y002065D01*
X003552D01*
X003543Y002073D01*
X003527Y002065D02*
X003510D01*
X003518D01*
Y002115D01*
X003527Y002106D01*
X003485D02*
X003477Y002115D01*
X003460D01*
X003452Y002106D01*
Y002098D01*
X003460Y002090D01*
X003452Y002081D01*
Y002073D01*
X003460Y002065D01*
X003477D01*
X003485Y002073D01*
Y002081D01*
X003477Y002090D01*
X003485Y002098D01*
Y002106D01*
X003477Y002090D02*
X003460D01*
X003543Y002587D02*
X003552Y002595D01*
X003568D01*
X003577Y002587D01*
Y002553D01*
X003568Y002545D01*
X003552D01*
X003543Y002553D01*
X003527Y002545D02*
X003510D01*
X003518D01*
Y002595D01*
X003527Y002587D01*
X003485Y002553D02*
X003477Y002545D01*
X003460D01*
X003452Y002553D01*
Y002587D01*
X003460Y002595D01*
X003477D01*
X003485Y002587D01*
Y002578D01*
X003477Y002570D01*
X003452D01*
X004499Y002936D02*
X004507Y002945D01*
X004524D01*
X004532Y002936D01*
Y002903D01*
X004524Y002895D01*
X004507D01*
X004499Y002903D01*
X004482Y002895D02*
X004466D01*
X004474D01*
Y002945D01*
X004482Y002936D01*
X004441Y002945D02*
X004408D01*
Y002936D01*
X004441Y002903D01*
Y002895D01*
X005143Y001767D02*
X005152Y001775D01*
X005168D01*
X005177Y001767D01*
Y001733D01*
X005168Y001725D01*
X005152D01*
X005143Y001733D01*
X005127Y001725D02*
X005110D01*
X005118D01*
Y001775D01*
X005127Y001767D01*
X005052Y001725D02*
X005085D01*
X005052Y001758D01*
Y001767D01*
X005060Y001775D01*
X005077D01*
X005085Y001767D01*
X005127Y002587D02*
X005135Y002595D01*
X005152D01*
X005160Y002587D01*
Y002553D01*
X005152Y002545D01*
X005135D01*
X005127Y002553D01*
X005110Y002545D02*
X005093D01*
X005102D01*
Y002595D01*
X005110Y002587D01*
X005068Y002545D02*
X005052D01*
X005060D01*
Y002595D01*
X005068Y002587D01*
X005143Y002106D02*
X005152Y002115D01*
X005168D01*
X005177Y002106D01*
Y002073D01*
X005168Y002065D01*
X005152D01*
X005143Y002073D01*
X005127Y002065D02*
X005110D01*
X005118D01*
Y002115D01*
X005127Y002106D01*
X005085D02*
X005077Y002115D01*
X005060D01*
X005052Y002106D01*
Y002073D01*
X005060Y002065D01*
X005077D01*
X005085Y002073D01*
Y002106D01*
X006058Y002936D02*
X006066Y002945D01*
X006082D01*
X006091Y002936D01*
Y002903D01*
X006082Y002895D01*
X006066D01*
X006058Y002903D01*
X006041D02*
X006033Y002895D01*
X006016D01*
X006008Y002903D01*
Y002936D01*
X006016Y002945D01*
X006033D01*
X006041Y002936D01*
Y002928D01*
X006033Y002920D01*
X006008D01*
X003487Y000920D02*
Y000970D01*
X003462D01*
X003453Y000962D01*
Y000945D01*
X003462Y000937D01*
X003487D01*
X003470D02*
X003453Y000920D01*
X003437Y000970D02*
Y000920D01*
Y000937D01*
X003403Y000970D01*
X003428Y000945D01*
X003403Y000920D01*
X003353D02*
X003387D01*
X003353Y000953D01*
Y000962D01*
X003362Y000970D01*
X003378D01*
X003387Y000962D01*
D88*
X004738Y005555D02*
G03*
X004738Y005555I-000012J000000D01*
G01*
X004967Y002920D02*
G03*
X004967Y002920I-000012J000000D01*
G01*
X001867Y004000D02*
G03*
X001867Y004000I-000012J000000D01*
G01*
X007688Y001490D02*
G03*
X007688Y001490I-000012J000000D01*
G01*
X004488Y001490D02*
G03*
X004488Y001490I-000012J000000D01*
G01*
X005067Y004000D02*
G03*
X005067Y004000I-000012J000000D01*
G01*
X003467D02*
G03*
X003467Y004000I-000012J000000D01*
G01*
X006088Y001490D02*
G03*
X006088Y001490I-000012J000000D01*
G01*
M02*
