G04*
G04 #@! TF.GenerationSoftware,Altium Limited,Altium Designer,20.1.10 (176)*
G04*
G04 Layer_Color=439754*
%FSAX42Y42*%
%MOMM*%
G71*
G04*
G04 #@! TF.SameCoordinates,63434018-A3C6-436E-83B0-3C2E02A57827*
G04*
G04*
G04 #@! TF.FilePolarity,Positive*
G04*
G01*
G75*
%ADD10C,0.25*%
%ADD11C,0.15*%
%ADD12C,0.20*%
%ADD13C,0.15*%
%ADD14C,0.10*%
D10*
X001997Y004232D02*
G03*
X001997Y004232I-000012J000000D01*
G01*
X007817Y001722D02*
G03*
X007817Y001722I-000012J000000D01*
G01*
X004617Y001722D02*
G03*
X004617Y001722I-000012J000000D01*
G01*
X005197Y004232D02*
G03*
X005197Y004232I-000012J000000D01*
G01*
X003597D02*
G03*
X003597Y004232I-000012J000000D01*
G01*
X006217Y001722D02*
G03*
X006217Y001722I-000012J000000D01*
G01*
X005169Y003295D02*
G03*
X005169Y003295I-000010J000000D01*
G01*
X005640Y002856D02*
X007990D01*
Y003809D01*
X005640D02*
X007990D01*
X005640Y002856D02*
Y003809D01*
X005656Y005416D02*
X006012D01*
Y005733D01*
X005656D02*
X006012D01*
X005517Y005416D02*
X005656D01*
Y005733D01*
X005517D02*
X005656D01*
X005517Y005416D02*
Y005733D01*
D11*
X001636Y004178D02*
G03*
X001504Y004178I-000066J000000D01*
G01*
X007456Y001668D02*
G03*
X007324Y001668I-000066J000000D01*
G01*
X004256Y001668D02*
G03*
X004124Y001668I-000066J000000D01*
G01*
X004836Y004178D02*
G03*
X004704Y004178I-000066J000000D01*
G01*
X003236D02*
G03*
X003104Y004178I-000066J000000D01*
G01*
X005856Y001668D02*
G03*
X005724Y001668I-000066J000000D01*
G01*
X003236Y004178D02*
X003650D01*
X002682D02*
X003104D01*
X003650D02*
Y004864D01*
X002682Y004178D02*
Y004864D01*
X003650D01*
X001082D02*
X002050D01*
X001082Y004178D02*
Y004864D01*
X002050Y004178D02*
Y004864D01*
X001082Y004178D02*
X001504D01*
X001636D02*
X002050D01*
X006902Y002354D02*
X007870D01*
X006902Y001668D02*
Y002354D01*
X007870Y001668D02*
Y002354D01*
X006902Y001668D02*
X007324D01*
X007456D02*
X007870D01*
X003702Y002354D02*
X004670D01*
X003702Y001668D02*
Y002354D01*
X004670Y001668D02*
Y002354D01*
X003702Y001668D02*
X004124D01*
X004256D02*
X004670D01*
X004282Y004864D02*
X005250D01*
X004282Y004178D02*
Y004864D01*
X005250Y004178D02*
Y004864D01*
X004282Y004178D02*
X004704D01*
X004836D02*
X005250D01*
X005302Y002354D02*
X006270D01*
X005302Y001668D02*
Y002354D01*
X006270Y001668D02*
Y002354D01*
X005302Y001668D02*
X005724D01*
X005856D02*
X006270D01*
D12*
X005173Y003204D02*
G03*
X005123Y003154I-000221J000171D01*
G01*
X003682Y003133D02*
X003842D01*
X003682Y003313D02*
X003841Y003314D01*
X003682Y002927D02*
X003842D01*
X003682Y003107D02*
X003841Y003108D01*
X003682Y003339D02*
X003842D01*
X003682Y003519D02*
X003841Y003520D01*
X005173Y003204D02*
X005202Y003175D01*
X005152Y003125D02*
X005202Y003175D01*
X005152Y003125D02*
X005152D01*
X005123Y003154D02*
X005152Y003125D01*
D13*
X004837Y005733D02*
X004963D01*
X004837Y005416D02*
X004963D01*
X004976Y005543D02*
Y005606D01*
X004824Y005543D02*
Y005606D01*
X003978Y003572D02*
Y003699D01*
X003661Y003572D02*
Y003699D01*
X003788Y003559D02*
X003851D01*
X003788Y003711D02*
X003851D01*
X003124Y003363D02*
Y003426D01*
X003276Y003363D02*
Y003426D01*
X003136Y003236D02*
X003263D01*
X003136Y003553D02*
X003263D01*
X004801Y002836D02*
Y002964D01*
X004484Y002836D02*
Y002964D01*
X004611Y002824D02*
X004674D01*
X004611Y002976D02*
X004674D01*
X004463Y002836D02*
Y002964D01*
X004146Y002836D02*
Y002964D01*
X004273Y002824D02*
X004337D01*
X004273Y002976D02*
X004337D01*
X003485Y002411D02*
Y002538D01*
X003803Y002411D02*
Y002538D01*
X003612Y002551D02*
X003676D01*
X003612Y002399D02*
X003676D01*
X003853Y002411D02*
Y002538D01*
X004170Y002411D02*
Y002538D01*
X003980Y002551D02*
X004043D01*
X003980Y002399D02*
X004043D01*
X004538Y002411D02*
Y002538D01*
X004221Y002411D02*
Y002538D01*
X004348Y002399D02*
X004411D01*
X004348Y002551D02*
X004411D01*
X004906Y002411D02*
Y002538D01*
X004589Y002411D02*
Y002538D01*
X004716Y002399D02*
X004779D01*
X004716Y002551D02*
X004779D01*
X004170Y001456D02*
Y001583D01*
X003853Y001456D02*
Y001583D01*
X003980Y001443D02*
X004043D01*
X003980Y001596D02*
X004043D01*
X003485Y001456D02*
Y001583D01*
X003803Y001456D02*
Y001583D01*
X003612Y001596D02*
X003676D01*
X003612Y001443D02*
X003676D01*
X004221Y001456D02*
Y001583D01*
X004538Y001456D02*
Y001583D01*
X004348Y001596D02*
X004411D01*
X004348Y001443D02*
X004411D01*
X004906Y001456D02*
Y001583D01*
X004589Y001456D02*
Y001583D01*
X004716Y001443D02*
X004779D01*
X004716Y001596D02*
X004779D01*
X000247Y002447D02*
Y004447D01*
Y002447D02*
X000647D01*
Y004447D01*
X000247D02*
X000647D01*
X002465Y003966D02*
Y004093D01*
X002783Y003966D02*
Y004093D01*
X002592Y004106D02*
X002656D01*
X002592Y003953D02*
X002656D01*
X002476Y004513D02*
X002603D01*
X002476Y004196D02*
X002603D01*
X002616Y004323D02*
Y004387D01*
X002464Y004323D02*
Y004387D01*
X002476Y004534D02*
X002603D01*
X002476Y004851D02*
X002603D01*
X002464Y004661D02*
Y004724D01*
X002616Y004661D02*
Y004724D01*
X002465Y004921D02*
Y005048D01*
X002783Y004921D02*
Y005048D01*
X002592Y005061D02*
X002656D01*
X002592Y004909D02*
X002656D01*
X000864Y004323D02*
Y004387D01*
X001016Y004323D02*
Y004387D01*
X000877Y004196D02*
X001003D01*
X000877Y004513D02*
X001003D01*
X001016Y004661D02*
Y004724D01*
X000864Y004661D02*
Y004724D01*
X000877Y004851D02*
X001003D01*
X000877Y004534D02*
X001003D01*
X000992Y004909D02*
X001056D01*
X000992Y005061D02*
X001056D01*
X001183Y004921D02*
Y005048D01*
X000865Y004921D02*
Y005048D01*
X000992Y003953D02*
X001056D01*
X000992Y004106D02*
X001056D01*
X001183Y003966D02*
Y004093D01*
X000865Y003966D02*
Y004093D01*
X002134Y004323D02*
Y004387D01*
X002286Y004323D02*
Y004387D01*
X002147Y004196D02*
X002274D01*
X002147Y004513D02*
X002274D01*
X002286Y004661D02*
Y004724D01*
X002134Y004661D02*
Y004724D01*
X002147Y004851D02*
X002274D01*
X002147Y004534D02*
X002274D01*
X002096Y005061D02*
X002159D01*
X002096Y004909D02*
X002159D01*
X001969Y004921D02*
Y005048D01*
X002286Y004921D02*
Y005048D01*
X002096Y004106D02*
X002159D01*
X002096Y003953D02*
X002159D01*
X001969Y003966D02*
Y004093D01*
X002286Y003966D02*
Y004093D01*
X001360Y004106D02*
X001423D01*
X001360Y003953D02*
X001423D01*
X001233Y003966D02*
Y004093D01*
X001550Y003966D02*
Y004093D01*
X001360Y004909D02*
X001423D01*
X001360Y005061D02*
X001423D01*
X001550Y004921D02*
Y005048D01*
X001233Y004921D02*
Y005048D01*
X001728Y003953D02*
X001791D01*
X001728Y004106D02*
X001791D01*
X001918Y003966D02*
Y004093D01*
X001601Y003966D02*
Y004093D01*
X001728Y005061D02*
X001791D01*
X001728Y004909D02*
X001791D01*
X001601Y004921D02*
Y005048D01*
X001918Y004921D02*
Y005048D01*
X006316Y001596D02*
X006379D01*
X006316Y001443D02*
X006379D01*
X006189Y001456D02*
Y001583D01*
X006506Y001456D02*
Y001583D01*
X005296Y004106D02*
X005359D01*
X005296Y003953D02*
X005359D01*
X005169Y003966D02*
Y004093D01*
X005486Y003966D02*
Y004093D01*
X003696Y004106D02*
X003759D01*
X003696Y003953D02*
X003759D01*
X003569Y003966D02*
Y004093D01*
X003886Y003966D02*
Y004093D01*
X005294Y005543D02*
Y005606D01*
X005446Y005543D02*
Y005606D01*
X005306Y005416D02*
X005433D01*
X005306Y005733D02*
X005433D01*
X007548Y002551D02*
X007611D01*
X007548Y002399D02*
X007611D01*
X007421Y002411D02*
Y002538D01*
X007738Y002411D02*
Y002538D01*
X007548Y001443D02*
X007611D01*
X007548Y001596D02*
X007611D01*
X007738Y001456D02*
Y001583D01*
X007421Y001456D02*
Y001583D01*
X007180Y002399D02*
X007243D01*
X007180Y002551D02*
X007243D01*
X007370Y002411D02*
Y002538D01*
X007053Y002411D02*
Y002538D01*
X007180Y001596D02*
X007243D01*
X007180Y001443D02*
X007243D01*
X007053Y001456D02*
Y001583D01*
X007370Y001456D02*
Y001583D01*
X007916Y001596D02*
X007979D01*
X007916Y001443D02*
X007979D01*
X007789Y001456D02*
Y001583D01*
X008106Y001456D02*
Y001583D01*
X007916Y002551D02*
X007979D01*
X007916Y002399D02*
X007979D01*
X007789Y002411D02*
Y002538D01*
X008106Y002411D02*
Y002538D01*
X008106Y002151D02*
Y002214D01*
X007954Y002151D02*
Y002214D01*
X007967Y002341D02*
X008093D01*
X007967Y002024D02*
X008093D01*
X007954Y001813D02*
Y001876D01*
X008106Y001813D02*
Y001876D01*
X007967Y001686D02*
X008093D01*
X007967Y002003D02*
X008093D01*
X006812Y001443D02*
X006876D01*
X006812Y001596D02*
X006876D01*
X007003Y001456D02*
Y001583D01*
X006685Y001456D02*
Y001583D01*
X006812Y002399D02*
X006876D01*
X006812Y002551D02*
X006876D01*
X007003Y002411D02*
Y002538D01*
X006685Y002411D02*
Y002538D01*
X006836Y002151D02*
Y002214D01*
X006684Y002151D02*
Y002214D01*
X006696Y002341D02*
X006824D01*
X006696Y002024D02*
X006824D01*
X006684Y001813D02*
Y001876D01*
X006836Y001813D02*
Y001876D01*
X006696Y001686D02*
X006824D01*
X006696Y002003D02*
X006824D01*
X005296Y005061D02*
X005359D01*
X005296Y004909D02*
X005359D01*
X005169Y004921D02*
Y005048D01*
X005486Y004921D02*
Y005048D01*
X003696Y005061D02*
X003759D01*
X003696Y004909D02*
X003759D01*
X003569Y004921D02*
Y005048D01*
X003886Y004921D02*
Y005048D01*
X006316Y002551D02*
X006379D01*
X006316Y002399D02*
X006379D01*
X006189Y002411D02*
Y002538D01*
X006506Y002411D02*
Y002538D01*
X004906Y002151D02*
Y002214D01*
X004754Y002151D02*
Y002214D01*
X004767Y002341D02*
X004894D01*
X004767Y002024D02*
X004894D01*
X004754Y001813D02*
Y001876D01*
X004906Y001813D02*
Y001876D01*
X004767Y001686D02*
X004894D01*
X004767Y002003D02*
X004894D01*
X003636Y002151D02*
Y002214D01*
X003484Y002151D02*
Y002214D01*
X003497Y002341D02*
X003624D01*
X003497Y002024D02*
X003624D01*
X003484Y001813D02*
Y001876D01*
X003636Y001813D02*
Y001876D01*
X003497Y001686D02*
X003624D01*
X003497Y002003D02*
X003624D01*
X004928Y005061D02*
X004991D01*
X004928Y004909D02*
X004991D01*
X004801Y004921D02*
Y005048D01*
X005118Y004921D02*
Y005048D01*
X004928Y003953D02*
X004991D01*
X004928Y004106D02*
X004991D01*
X005118Y003966D02*
Y004093D01*
X004801Y003966D02*
Y004093D01*
X004560Y004909D02*
X004623D01*
X004560Y005061D02*
X004623D01*
X004750Y004921D02*
Y005048D01*
X004433Y004921D02*
Y005048D01*
X004560Y004106D02*
X004623D01*
X004560Y003953D02*
X004623D01*
X004433Y003966D02*
Y004093D01*
X004750Y003966D02*
Y004093D01*
X005486Y004661D02*
Y004724D01*
X005334Y004661D02*
Y004724D01*
X005347Y004851D02*
X005474D01*
X005347Y004534D02*
X005474D01*
X005334Y004323D02*
Y004387D01*
X005486Y004323D02*
Y004387D01*
X005347Y004196D02*
X005474D01*
X005347Y004513D02*
X005474D01*
X004192Y003953D02*
X004256D01*
X004192Y004106D02*
X004256D01*
X004383Y003966D02*
Y004093D01*
X004065Y003966D02*
Y004093D01*
X004192Y004909D02*
X004256D01*
X004192Y005061D02*
X004256D01*
X004383Y004921D02*
Y005048D01*
X004065Y004921D02*
Y005048D01*
X004216Y004661D02*
Y004724D01*
X004064Y004661D02*
Y004724D01*
X004076Y004851D02*
X004203D01*
X004076Y004534D02*
X004203D01*
X004064Y004323D02*
Y004387D01*
X004216Y004323D02*
Y004387D01*
X004076Y004196D02*
X004203D01*
X004076Y004513D02*
X004203D01*
X003328Y005061D02*
X003391D01*
X003328Y004909D02*
X003391D01*
X003201Y004921D02*
Y005048D01*
X003518Y004921D02*
Y005048D01*
X003328Y003953D02*
X003391D01*
X003328Y004106D02*
X003391D01*
X003518Y003966D02*
Y004093D01*
X003201Y003966D02*
Y004093D01*
X002960Y004909D02*
X003023D01*
X002960Y005061D02*
X003023D01*
X003150Y004921D02*
Y005048D01*
X002833Y004921D02*
Y005048D01*
X002960Y004106D02*
X003023D01*
X002960Y003953D02*
X003023D01*
X002833Y003966D02*
Y004093D01*
X003150Y003966D02*
Y004093D01*
X003886Y004661D02*
Y004724D01*
X003734Y004661D02*
Y004724D01*
X003747Y004851D02*
X003874D01*
X003747Y004534D02*
X003874D01*
X003734Y004323D02*
Y004387D01*
X003886Y004323D02*
Y004387D01*
X003747Y004196D02*
X003874D01*
X003747Y004513D02*
X003874D01*
X005212Y002399D02*
X005276D01*
X005212Y002551D02*
X005276D01*
X005403Y002411D02*
Y002538D01*
X005085Y002411D02*
Y002538D01*
X005580Y002399D02*
X005643D01*
X005580Y002551D02*
X005643D01*
X005770Y002411D02*
Y002538D01*
X005453Y002411D02*
Y002538D01*
X005084Y001813D02*
Y001876D01*
X005236Y001813D02*
Y001876D01*
X005097Y001686D02*
X005224D01*
X005097Y002003D02*
X005224D01*
X005236Y002151D02*
Y002214D01*
X005084Y002151D02*
Y002214D01*
X005097Y002341D02*
X005224D01*
X005097Y002024D02*
X005224D01*
X005948Y002551D02*
X006011D01*
X005948Y002399D02*
X006011D01*
X005821Y002411D02*
Y002538D01*
X006138Y002411D02*
Y002538D01*
X006506Y002151D02*
Y002214D01*
X006354Y002151D02*
Y002214D01*
X006367Y002341D02*
X006493D01*
X006367Y002024D02*
X006493D01*
X006354Y001813D02*
Y001876D01*
X006506Y001813D02*
Y001876D01*
X006367Y001686D02*
X006493D01*
X006367Y002003D02*
X006493D01*
X005948Y001443D02*
X006011D01*
X005948Y001596D02*
X006011D01*
X006138Y001456D02*
Y001583D01*
X005821Y001456D02*
Y001583D01*
X005580Y001596D02*
X005643D01*
X005580Y001443D02*
X005643D01*
X005453Y001456D02*
Y001583D01*
X005770Y001456D02*
Y001583D01*
X005212Y001443D02*
X005276D01*
X005212Y001596D02*
X005276D01*
X005403Y001456D02*
Y001583D01*
X005085Y001456D02*
Y001583D01*
X003364Y000863D02*
Y000927D01*
X003516Y000863D02*
Y000927D01*
X003376Y000736D02*
X003503D01*
X003376Y001053D02*
X003503D01*
D14*
X003250Y001110D02*
X003200D01*
Y001135D01*
X003208Y001143D01*
X003225D01*
X003233Y001135D01*
Y001110D01*
Y001127D02*
X003250Y001143D01*
X003200Y001160D02*
X003250D01*
X003233D01*
X003200Y001193D01*
X003225Y001168D01*
X003250Y001193D01*
Y001243D02*
Y001210D01*
X003217Y001243D01*
X003208D01*
X003200Y001235D01*
Y001218D01*
X003208Y001210D01*
X003763Y003760D02*
Y003810D01*
X003788D01*
X003796Y003802D01*
Y003785D01*
X003788Y003777D01*
X003763D01*
X003779D02*
X003796Y003760D01*
X003813D02*
X003829D01*
X003821D01*
Y003810D01*
X003813Y003802D01*
X003887Y003810D02*
X003871Y003802D01*
X003854Y003785D01*
Y003768D01*
X003862Y003760D01*
X003879D01*
X003887Y003768D01*
Y003777D01*
X003879Y003785D01*
X003854D01*
X006654Y001770D02*
X006604D01*
Y001795D01*
X006612Y001803D01*
X006629D01*
X006637Y001795D01*
Y001770D01*
Y001787D02*
X006654Y001803D01*
Y001820D02*
Y001837D01*
Y001828D01*
X006604D01*
X006612Y001820D01*
Y001862D02*
X006604Y001870D01*
Y001887D01*
X006612Y001895D01*
X006620D01*
X006629Y001887D01*
Y001878D01*
Y001887D01*
X006637Y001895D01*
X006645D01*
X006654Y001887D01*
Y001870D01*
X006645Y001862D01*
X006654Y002115D02*
X006604D01*
Y002140D01*
X006612Y002149D01*
X006629D01*
X006637Y002140D01*
Y002115D01*
Y002132D02*
X006654Y002149D01*
Y002165D02*
Y002182D01*
Y002174D01*
X006604D01*
X006612Y002165D01*
X006654Y002240D02*
Y002207D01*
X006620Y002240D01*
X006612D01*
X006604Y002232D01*
Y002215D01*
X006612Y002207D01*
X006773Y002590D02*
Y002640D01*
X006798D01*
X006807Y002632D01*
Y002615D01*
X006798Y002607D01*
X006773D01*
X006790D02*
X006807Y002590D01*
X006823D02*
X006840D01*
X006832D01*
Y002640D01*
X006823Y002632D01*
X006865Y002590D02*
X006882D01*
X006873D01*
Y002640D01*
X006865Y002632D01*
X006773Y001365D02*
Y001415D01*
X006798D01*
X006807Y001407D01*
Y001390D01*
X006798Y001382D01*
X006773D01*
X006790D02*
X006807Y001365D01*
X006823D02*
X006840D01*
X006832D01*
Y001415D01*
X006823Y001407D01*
X006865D02*
X006873Y001415D01*
X006890D01*
X006898Y001407D01*
Y001373D01*
X006890Y001365D01*
X006873D01*
X006865Y001373D01*
Y001407D01*
X008181Y001770D02*
X008131D01*
Y001795D01*
X008140Y001803D01*
X008156D01*
X008165Y001795D01*
Y001770D01*
Y001787D02*
X008181Y001803D01*
X008173Y001820D02*
X008181Y001828D01*
Y001845D01*
X008173Y001853D01*
X008140D01*
X008131Y001845D01*
Y001828D01*
X008140Y001820D01*
X008148D01*
X008156Y001828D01*
Y001853D01*
X008181Y002115D02*
X008131D01*
Y002140D01*
X008140Y002149D01*
X008156D01*
X008165Y002140D01*
Y002115D01*
Y002132D02*
X008181Y002149D01*
X008140Y002165D02*
X008131Y002174D01*
Y002190D01*
X008140Y002199D01*
X008148D01*
X008156Y002190D01*
X008165Y002199D01*
X008173D01*
X008181Y002190D01*
Y002174D01*
X008173Y002165D01*
X008165D01*
X008156Y002174D01*
X008148Y002165D01*
X008140D01*
X008156Y002174D02*
Y002190D01*
X007883Y002590D02*
Y002640D01*
X007908D01*
X007917Y002632D01*
Y002615D01*
X007908Y002607D01*
X007883D01*
X007900D02*
X007917Y002590D01*
X007933Y002640D02*
X007967D01*
Y002632D01*
X007933Y002598D01*
Y002590D01*
X007893Y001365D02*
Y001415D01*
X007918D01*
X007927Y001407D01*
Y001390D01*
X007918Y001382D01*
X007893D01*
X007910D02*
X007927Y001365D01*
X007977Y001415D02*
X007960Y001407D01*
X007943Y001390D01*
Y001373D01*
X007952Y001365D01*
X007968D01*
X007977Y001373D01*
Y001382D01*
X007968Y001390D01*
X007943D01*
X007352Y002645D02*
Y002595D01*
X007377D01*
X007385Y002603D01*
Y002637D01*
X007377Y002645D01*
X007352D01*
X007402Y002595D02*
Y002628D01*
X007418Y002645D01*
X007435Y002628D01*
Y002595D01*
Y002620D01*
X007402D01*
X007452Y002595D02*
X007468D01*
X007460D01*
Y002645D01*
X007452Y002637D01*
X007163Y001407D02*
X007155Y001415D01*
X007138D01*
X007130Y001407D01*
Y001373D01*
X007138Y001365D01*
X007155D01*
X007163Y001373D01*
X007180Y001407D02*
X007188Y001415D01*
X007205D01*
X007213Y001407D01*
Y001398D01*
X007205Y001390D01*
X007213Y001382D01*
Y001373D01*
X007205Y001365D01*
X007188D01*
X007180Y001373D01*
Y001382D01*
X007188Y001390D01*
X007180Y001398D01*
Y001407D01*
X007188Y001390D02*
X007205D01*
X007192Y002632D02*
X007183Y002640D01*
X007167D01*
X007158Y002632D01*
Y002598D01*
X007167Y002590D01*
X007183D01*
X007192Y002598D01*
X007208Y002640D02*
X007242D01*
Y002632D01*
X007208Y002598D01*
Y002590D01*
X007565Y001407D02*
X007557Y001415D01*
X007540D01*
X007532Y001407D01*
Y001373D01*
X007540Y001365D01*
X007557D01*
X007565Y001373D01*
X007615Y001415D02*
X007598Y001407D01*
X007582Y001390D01*
Y001373D01*
X007590Y001365D01*
X007607D01*
X007615Y001373D01*
Y001382D01*
X007607Y001390D01*
X007582D01*
X007565Y002632D02*
X007557Y002640D01*
X007540D01*
X007532Y002632D01*
Y002598D01*
X007540Y002590D01*
X007557D01*
X007565Y002598D01*
X007615Y002640D02*
X007582D01*
Y002615D01*
X007598Y002623D01*
X007607D01*
X007615Y002615D01*
Y002598D01*
X007607Y002590D01*
X007590D01*
X007582Y002598D01*
X000834Y004280D02*
X000784D01*
Y004305D01*
X000792Y004313D01*
X000809D01*
X000817Y004305D01*
Y004280D01*
Y004297D02*
X000834Y004313D01*
X000784Y004330D02*
Y004363D01*
X000792D01*
X000825Y004330D01*
X000834D01*
X000792Y004380D02*
X000784Y004388D01*
Y004405D01*
X000792Y004413D01*
X000800D01*
X000809Y004405D01*
X000817Y004413D01*
X000825D01*
X000834Y004405D01*
Y004388D01*
X000825Y004380D01*
X000817D01*
X000809Y004388D01*
X000800Y004380D01*
X000792D01*
X000809Y004388D02*
Y004405D01*
X000834Y004625D02*
X000784D01*
Y004650D01*
X000792Y004659D01*
X000809D01*
X000817Y004650D01*
Y004625D01*
Y004642D02*
X000834Y004659D01*
X000784Y004675D02*
Y004709D01*
X000792D01*
X000825Y004675D01*
X000834D01*
X000784Y004725D02*
Y004759D01*
X000792D01*
X000825Y004725D01*
X000834D01*
X000953Y005100D02*
Y005150D01*
X000978D01*
X000987Y005142D01*
Y005125D01*
X000978Y005117D01*
X000953D01*
X000970D02*
X000987Y005100D01*
X001003Y005150D02*
X001037D01*
Y005142D01*
X001003Y005108D01*
Y005100D01*
X001087Y005150D02*
X001070Y005142D01*
X001053Y005125D01*
Y005108D01*
X001062Y005100D01*
X001078D01*
X001087Y005108D01*
Y005117D01*
X001078Y005125D01*
X001053D01*
X000953Y003880D02*
Y003930D01*
X000978D01*
X000987Y003922D01*
Y003905D01*
X000978Y003897D01*
X000953D01*
X000970D02*
X000987Y003880D01*
X001003Y003930D02*
X001037D01*
Y003922D01*
X001003Y003888D01*
Y003880D01*
X001087Y003930D02*
X001053D01*
Y003905D01*
X001070Y003913D01*
X001078D01*
X001087Y003905D01*
Y003888D01*
X001078Y003880D01*
X001062D01*
X001053Y003888D01*
X002361Y004280D02*
X002311D01*
Y004305D01*
X002320Y004313D01*
X002336D01*
X002345Y004305D01*
Y004280D01*
Y004297D02*
X002361Y004313D01*
X002311Y004330D02*
Y004363D01*
X002320D01*
X002353Y004330D01*
X002361D01*
Y004405D02*
X002311D01*
X002336Y004380D01*
Y004413D01*
X002361Y004625D02*
X002311D01*
Y004650D01*
X002320Y004659D01*
X002336D01*
X002345Y004650D01*
Y004625D01*
Y004642D02*
X002361Y004659D01*
X002311Y004675D02*
Y004709D01*
X002320D01*
X002353Y004675D01*
X002361D01*
X002320Y004725D02*
X002311Y004734D01*
Y004750D01*
X002320Y004759D01*
X002328D01*
X002336Y004750D01*
Y004742D01*
Y004750D01*
X002345Y004759D01*
X002353D01*
X002361Y004750D01*
Y004734D01*
X002353Y004725D01*
X002063Y005100D02*
Y005150D01*
X002088D01*
X002097Y005142D01*
Y005125D01*
X002088Y005117D01*
X002063D01*
X002080D02*
X002097Y005100D01*
X002113Y005150D02*
X002147D01*
Y005142D01*
X002113Y005108D01*
Y005100D01*
X002197D02*
X002163D01*
X002197Y005133D01*
Y005142D01*
X002188Y005150D01*
X002172D01*
X002163Y005142D01*
X002073Y003875D02*
Y003925D01*
X002098D01*
X002107Y003917D01*
Y003900D01*
X002098Y003892D01*
X002073D01*
X002090D02*
X002107Y003875D01*
X002123Y003925D02*
X002157D01*
Y003917D01*
X002123Y003883D01*
Y003875D01*
X002173D02*
X002190D01*
X002182D01*
Y003925D01*
X002173Y003917D01*
X002434Y004280D02*
X002384D01*
Y004305D01*
X002392Y004313D01*
X002409D01*
X002417Y004305D01*
Y004280D01*
Y004297D02*
X002434Y004313D01*
X002384Y004363D02*
X002392Y004347D01*
X002409Y004330D01*
X002425D01*
X002434Y004338D01*
Y004355D01*
X002425Y004363D01*
X002417D01*
X002409Y004355D01*
Y004330D01*
X002384Y004413D02*
Y004380D01*
X002409D01*
X002400Y004397D01*
Y004405D01*
X002409Y004413D01*
X002425D01*
X002434Y004405D01*
Y004388D01*
X002425Y004380D01*
X002434Y004625D02*
X002384D01*
Y004650D01*
X002392Y004659D01*
X002409D01*
X002417Y004650D01*
Y004625D01*
Y004642D02*
X002434Y004659D01*
X002384Y004709D02*
X002392Y004692D01*
X002409Y004675D01*
X002425D01*
X002434Y004684D01*
Y004700D01*
X002425Y004709D01*
X002417D01*
X002409Y004700D01*
Y004675D01*
X002434Y004750D02*
X002384D01*
X002409Y004725D01*
Y004759D01*
X004933Y002850D02*
Y002900D01*
X004958D01*
X004967Y002892D01*
Y002875D01*
X004958Y002867D01*
X004933D01*
X004950D02*
X004967Y002850D01*
X004983Y002892D02*
X004992Y002900D01*
X005008D01*
X005017Y002892D01*
Y002883D01*
X005008Y002875D01*
X005017Y002867D01*
Y002858D01*
X005008Y002850D01*
X004992D01*
X004983Y002858D01*
Y002867D01*
X004992Y002875D01*
X004983Y002883D01*
Y002892D01*
X004992Y002875D02*
X005008D01*
X005033Y002892D02*
X005042Y002900D01*
X005058D01*
X005067Y002892D01*
Y002883D01*
X005058Y002875D01*
X005050D01*
X005058D01*
X005067Y002867D01*
Y002858D01*
X005058Y002850D01*
X005042D01*
X005033Y002858D01*
X003958Y002850D02*
Y002900D01*
X003983D01*
X003992Y002892D01*
Y002875D01*
X003983Y002867D01*
X003958D01*
X003975D02*
X003992Y002850D01*
X004008Y002892D02*
X004017Y002900D01*
X004033D01*
X004042Y002892D01*
Y002883D01*
X004033Y002875D01*
X004042Y002867D01*
Y002858D01*
X004033Y002850D01*
X004017D01*
X004008Y002858D01*
Y002867D01*
X004017Y002875D01*
X004008Y002883D01*
Y002892D01*
X004017Y002875D02*
X004033D01*
X004092Y002850D02*
X004058D01*
X004092Y002883D01*
Y002892D01*
X004083Y002900D01*
X004067D01*
X004058Y002892D01*
X003367Y001121D02*
Y001171D01*
X003392D01*
X003400Y001162D01*
Y001146D01*
X003392Y001137D01*
X003367D01*
X003383D02*
X003400Y001121D01*
X003417Y001162D02*
X003425Y001171D01*
X003442D01*
X003450Y001162D01*
Y001154D01*
X003442Y001146D01*
X003450Y001137D01*
Y001129D01*
X003442Y001121D01*
X003425D01*
X003417Y001129D01*
Y001137D01*
X003425Y001146D01*
X003417Y001154D01*
Y001162D01*
X003425Y001146D02*
X003442D01*
X003467Y001162D02*
X003475Y001171D01*
X003492D01*
X003500Y001162D01*
Y001129D01*
X003492Y001121D01*
X003475D01*
X003467Y001129D01*
Y001162D01*
X005308Y005325D02*
Y005375D01*
X005333D01*
X005342Y005367D01*
Y005350D01*
X005333Y005342D01*
X005308D01*
X005325D02*
X005342Y005325D01*
X005358Y005375D02*
X005392D01*
Y005367D01*
X005358Y005333D01*
Y005325D01*
X005408Y005333D02*
X005417Y005325D01*
X005433D01*
X005442Y005333D01*
Y005367D01*
X005433Y005375D01*
X005417D01*
X005408Y005367D01*
Y005358D01*
X005417Y005350D01*
X005442D01*
X002553Y005085D02*
Y005135D01*
X002578D01*
X002587Y005127D01*
Y005110D01*
X002578Y005102D01*
X002553D01*
X002570D02*
X002587Y005085D01*
X002637Y005135D02*
X002620Y005127D01*
X002603Y005110D01*
Y005093D01*
X002612Y005085D01*
X002628D01*
X002637Y005093D01*
Y005102D01*
X002628Y005110D01*
X002603D01*
X002653Y005127D02*
X002662Y005135D01*
X002678D01*
X002687Y005127D01*
Y005118D01*
X002678Y005110D01*
X002670D01*
X002678D01*
X002687Y005102D01*
Y005093D01*
X002678Y005085D01*
X002662D01*
X002653Y005093D01*
X002553Y003875D02*
Y003925D01*
X002578D01*
X002587Y003917D01*
Y003900D01*
X002578Y003892D01*
X002553D01*
X002570D02*
X002587Y003875D01*
X002637Y003925D02*
X002620Y003917D01*
X002603Y003900D01*
Y003883D01*
X002612Y003875D01*
X002628D01*
X002637Y003883D01*
Y003892D01*
X002628Y003900D01*
X002603D01*
X002687Y003875D02*
X002653D01*
X002687Y003908D01*
Y003917D01*
X002678Y003925D01*
X002662D01*
X002653Y003917D01*
X003961Y004280D02*
X003911D01*
Y004305D01*
X003920Y004313D01*
X003936D01*
X003945Y004305D01*
Y004280D01*
Y004297D02*
X003961Y004313D01*
X003911Y004363D02*
X003920Y004347D01*
X003936Y004330D01*
X003953D01*
X003961Y004338D01*
Y004355D01*
X003953Y004363D01*
X003945D01*
X003936Y004355D01*
Y004330D01*
X003961Y004380D02*
Y004397D01*
Y004388D01*
X003911D01*
X003920Y004380D01*
X003961Y004625D02*
X003911D01*
Y004650D01*
X003920Y004659D01*
X003936D01*
X003945Y004650D01*
Y004625D01*
Y004642D02*
X003961Y004659D01*
X003911Y004709D02*
X003920Y004692D01*
X003936Y004675D01*
X003953D01*
X003961Y004684D01*
Y004700D01*
X003953Y004709D01*
X003945D01*
X003936Y004700D01*
Y004675D01*
X003920Y004725D02*
X003911Y004734D01*
Y004750D01*
X003920Y004759D01*
X003953D01*
X003961Y004750D01*
Y004734D01*
X003953Y004725D01*
X003920D01*
X003663Y005085D02*
Y005135D01*
X003688D01*
X003697Y005127D01*
Y005110D01*
X003688Y005102D01*
X003663D01*
X003680D02*
X003697Y005085D01*
X003747Y005135D02*
X003713D01*
Y005110D01*
X003730Y005118D01*
X003738D01*
X003747Y005110D01*
Y005093D01*
X003738Y005085D01*
X003722D01*
X003713Y005093D01*
X003763D02*
X003772Y005085D01*
X003788D01*
X003797Y005093D01*
Y005127D01*
X003788Y005135D01*
X003772D01*
X003763Y005127D01*
Y005118D01*
X003772Y005110D01*
X003797D01*
X003673Y003875D02*
Y003925D01*
X003698D01*
X003707Y003917D01*
Y003900D01*
X003698Y003892D01*
X003673D01*
X003690D02*
X003707Y003875D01*
X003757Y003925D02*
X003723D01*
Y003900D01*
X003740Y003908D01*
X003748D01*
X003757Y003900D01*
Y003883D01*
X003748Y003875D01*
X003732D01*
X003723Y003883D01*
X003773Y003917D02*
X003782Y003925D01*
X003798D01*
X003807Y003917D01*
Y003908D01*
X003798Y003900D01*
X003807Y003892D01*
Y003883D01*
X003798Y003875D01*
X003782D01*
X003773Y003883D01*
Y003892D01*
X003782Y003900D01*
X003773Y003908D01*
Y003917D01*
X003782Y003900D02*
X003798D01*
X004034Y004280D02*
X003984D01*
Y004305D01*
X003992Y004313D01*
X004009D01*
X004017Y004305D01*
Y004280D01*
Y004297D02*
X004034Y004313D01*
X003984Y004363D02*
Y004330D01*
X004009D01*
X004000Y004347D01*
Y004355D01*
X004009Y004363D01*
X004025D01*
X004034Y004355D01*
Y004338D01*
X004025Y004330D01*
X004034Y004413D02*
Y004380D01*
X004000Y004413D01*
X003992D01*
X003984Y004405D01*
Y004388D01*
X003992Y004380D01*
X004034Y004625D02*
X003984D01*
Y004650D01*
X003992Y004659D01*
X004009D01*
X004017Y004650D01*
Y004625D01*
Y004642D02*
X004034Y004659D01*
X003984Y004709D02*
Y004675D01*
X004009D01*
X004000Y004692D01*
Y004700D01*
X004009Y004709D01*
X004025D01*
X004034Y004700D01*
Y004684D01*
X004025Y004675D01*
X004034Y004725D02*
Y004742D01*
Y004734D01*
X003984D01*
X003992Y004725D01*
X004153Y005085D02*
Y005135D01*
X004178D01*
X004187Y005127D01*
Y005110D01*
X004178Y005102D01*
X004153D01*
X004170D02*
X004187Y005085D01*
X004237Y005135D02*
X004203D01*
Y005110D01*
X004220Y005118D01*
X004228D01*
X004237Y005110D01*
Y005093D01*
X004228Y005085D01*
X004212D01*
X004203Y005093D01*
X004253Y005127D02*
X004262Y005135D01*
X004278D01*
X004287Y005127D01*
Y005093D01*
X004278Y005085D01*
X004262D01*
X004253Y005093D01*
Y005127D01*
X004153Y003875D02*
Y003925D01*
X004178D01*
X004187Y003917D01*
Y003900D01*
X004178Y003892D01*
X004153D01*
X004170D02*
X004187Y003875D01*
X004228D02*
Y003925D01*
X004203Y003900D01*
X004237D01*
X004253Y003883D02*
X004262Y003875D01*
X004278D01*
X004287Y003883D01*
Y003917D01*
X004278Y003925D01*
X004262D01*
X004253Y003917D01*
Y003908D01*
X004262Y003900D01*
X004287D01*
X005561Y004280D02*
X005511D01*
Y004305D01*
X005520Y004313D01*
X005536D01*
X005545Y004305D01*
Y004280D01*
Y004297D02*
X005561Y004313D01*
Y004355D02*
X005511D01*
X005536Y004330D01*
Y004363D01*
X005520Y004380D02*
X005511Y004388D01*
Y004405D01*
X005520Y004413D01*
X005528D01*
X005536Y004405D01*
X005545Y004413D01*
X005553D01*
X005561Y004405D01*
Y004388D01*
X005553Y004380D01*
X005545D01*
X005536Y004388D01*
X005528Y004380D01*
X005520D01*
X005536Y004388D02*
Y004405D01*
X005561Y004625D02*
X005511D01*
Y004650D01*
X005520Y004659D01*
X005536D01*
X005545Y004650D01*
Y004625D01*
Y004642D02*
X005561Y004659D01*
Y004700D02*
X005511D01*
X005536Y004675D01*
Y004709D01*
X005511Y004725D02*
Y004759D01*
X005520D01*
X005553Y004725D01*
X005561D01*
X005263Y005085D02*
Y005135D01*
X005288D01*
X005297Y005127D01*
Y005110D01*
X005288Y005102D01*
X005263D01*
X005280D02*
X005297Y005085D01*
X005338D02*
Y005135D01*
X005313Y005110D01*
X005347D01*
X005397Y005135D02*
X005380Y005127D01*
X005363Y005110D01*
Y005093D01*
X005372Y005085D01*
X005388D01*
X005397Y005093D01*
Y005102D01*
X005388Y005110D01*
X005363D01*
X005383Y003875D02*
Y003925D01*
X005408D01*
X005417Y003917D01*
Y003900D01*
X005408Y003892D01*
X005383D01*
X005400D02*
X005417Y003875D01*
X005458D02*
Y003925D01*
X005433Y003900D01*
X005467D01*
X005517Y003925D02*
X005483D01*
Y003900D01*
X005500Y003908D01*
X005508D01*
X005517Y003900D01*
Y003883D01*
X005508Y003875D01*
X005492D01*
X005483Y003883D01*
X003454Y001770D02*
X003404D01*
Y001795D01*
X003412Y001803D01*
X003429D01*
X003437Y001795D01*
Y001770D01*
Y001787D02*
X003454Y001803D01*
X003412Y001820D02*
X003404Y001828D01*
Y001845D01*
X003412Y001853D01*
X003420D01*
X003429Y001845D01*
Y001837D01*
Y001845D01*
X003437Y001853D01*
X003445D01*
X003454Y001845D01*
Y001828D01*
X003445Y001820D01*
Y001870D02*
X003454Y001878D01*
Y001895D01*
X003445Y001903D01*
X003412D01*
X003404Y001895D01*
Y001878D01*
X003412Y001870D01*
X003420D01*
X003429Y001878D01*
Y001903D01*
X003454Y002115D02*
X003404D01*
Y002140D01*
X003412Y002149D01*
X003429D01*
X003437Y002140D01*
Y002115D01*
Y002132D02*
X003454Y002149D01*
X003412Y002165D02*
X003404Y002174D01*
Y002190D01*
X003412Y002199D01*
X003420D01*
X003429Y002190D01*
Y002182D01*
Y002190D01*
X003437Y002199D01*
X003445D01*
X003454Y002190D01*
Y002174D01*
X003445Y002165D01*
X003412Y002215D02*
X003404Y002224D01*
Y002240D01*
X003412Y002249D01*
X003420D01*
X003429Y002240D01*
X003437Y002249D01*
X003445D01*
X003454Y002240D01*
Y002224D01*
X003445Y002215D01*
X003437D01*
X003429Y002224D01*
X003420Y002215D01*
X003412D01*
X003429Y002224D02*
Y002240D01*
X003573Y002590D02*
Y002640D01*
X003598D01*
X003607Y002632D01*
Y002615D01*
X003598Y002607D01*
X003573D01*
X003590D02*
X003607Y002590D01*
X003623Y002632D02*
X003632Y002640D01*
X003648D01*
X003657Y002632D01*
Y002623D01*
X003648Y002615D01*
X003640D01*
X003648D01*
X003657Y002607D01*
Y002598D01*
X003648Y002590D01*
X003632D01*
X003623Y002598D01*
X003673Y002640D02*
X003707D01*
Y002632D01*
X003673Y002598D01*
Y002590D01*
X003573Y001365D02*
Y001415D01*
X003598D01*
X003607Y001407D01*
Y001390D01*
X003598Y001382D01*
X003573D01*
X003590D02*
X003607Y001365D01*
X003623Y001407D02*
X003632Y001415D01*
X003648D01*
X003657Y001407D01*
Y001398D01*
X003648Y001390D01*
X003640D01*
X003648D01*
X003657Y001382D01*
Y001373D01*
X003648Y001365D01*
X003632D01*
X003623Y001373D01*
X003707Y001415D02*
X003690Y001407D01*
X003673Y001390D01*
Y001373D01*
X003682Y001365D01*
X003698D01*
X003707Y001373D01*
Y001382D01*
X003698Y001390D01*
X003673D01*
X004981Y001770D02*
X004931D01*
Y001795D01*
X004940Y001803D01*
X004956D01*
X004965Y001795D01*
Y001770D01*
Y001787D02*
X004981Y001803D01*
X004940Y001820D02*
X004931Y001828D01*
Y001845D01*
X004940Y001853D01*
X004948D01*
X004956Y001845D01*
Y001837D01*
Y001845D01*
X004965Y001853D01*
X004973D01*
X004981Y001845D01*
Y001828D01*
X004973Y001820D01*
X004931Y001903D02*
Y001870D01*
X004956D01*
X004948Y001887D01*
Y001895D01*
X004956Y001903D01*
X004973D01*
X004981Y001895D01*
Y001878D01*
X004973Y001870D01*
X004981Y002115D02*
X004931D01*
Y002140D01*
X004940Y002149D01*
X004956D01*
X004965Y002140D01*
Y002115D01*
Y002132D02*
X004981Y002149D01*
X004940Y002165D02*
X004931Y002174D01*
Y002190D01*
X004940Y002199D01*
X004948D01*
X004956Y002190D01*
Y002182D01*
Y002190D01*
X004965Y002199D01*
X004973D01*
X004981Y002190D01*
Y002174D01*
X004973Y002165D01*
X004981Y002240D02*
X004931D01*
X004956Y002215D01*
Y002249D01*
X004683Y002590D02*
Y002640D01*
X004708D01*
X004717Y002632D01*
Y002615D01*
X004708Y002607D01*
X004683D01*
X004700D02*
X004717Y002590D01*
X004733Y002632D02*
X004742Y002640D01*
X004758D01*
X004767Y002632D01*
Y002623D01*
X004758Y002615D01*
X004750D01*
X004758D01*
X004767Y002607D01*
Y002598D01*
X004758Y002590D01*
X004742D01*
X004733Y002598D01*
X004783Y002632D02*
X004792Y002640D01*
X004808D01*
X004817Y002632D01*
Y002623D01*
X004808Y002615D01*
X004800D01*
X004808D01*
X004817Y002607D01*
Y002598D01*
X004808Y002590D01*
X004792D01*
X004783Y002598D01*
X004693Y001365D02*
Y001415D01*
X004718D01*
X004727Y001407D01*
Y001390D01*
X004718Y001382D01*
X004693D01*
X004710D02*
X004727Y001365D01*
X004743Y001407D02*
X004752Y001415D01*
X004768D01*
X004777Y001407D01*
Y001398D01*
X004768Y001390D01*
X004760D01*
X004768D01*
X004777Y001382D01*
Y001373D01*
X004768Y001365D01*
X004752D01*
X004743Y001373D01*
X004827Y001365D02*
X004793D01*
X004827Y001398D01*
Y001407D01*
X004818Y001415D01*
X004802D01*
X004793Y001407D01*
X005054Y001770D02*
X005004D01*
Y001795D01*
X005012Y001803D01*
X005029D01*
X005037Y001795D01*
Y001770D01*
Y001787D02*
X005054Y001803D01*
Y001853D02*
Y001820D01*
X005020Y001853D01*
X005012D01*
X005004Y001845D01*
Y001828D01*
X005012Y001820D01*
X005004Y001903D02*
X005012Y001887D01*
X005029Y001870D01*
X005045D01*
X005054Y001878D01*
Y001895D01*
X005045Y001903D01*
X005037D01*
X005029Y001895D01*
Y001870D01*
X005054Y002115D02*
X005004D01*
Y002140D01*
X005012Y002149D01*
X005029D01*
X005037Y002140D01*
Y002115D01*
Y002132D02*
X005054Y002149D01*
Y002199D02*
Y002165D01*
X005020Y002199D01*
X005012D01*
X005004Y002190D01*
Y002174D01*
X005012Y002165D01*
X005004Y002249D02*
Y002215D01*
X005029D01*
X005020Y002232D01*
Y002240D01*
X005029Y002249D01*
X005045D01*
X005054Y002240D01*
Y002224D01*
X005045Y002215D01*
X005173Y002590D02*
Y002640D01*
X005198D01*
X005207Y002632D01*
Y002615D01*
X005198Y002607D01*
X005173D01*
X005190D02*
X005207Y002590D01*
X005257D02*
X005223D01*
X005257Y002623D01*
Y002632D01*
X005248Y002640D01*
X005232D01*
X005223Y002632D01*
X005298Y002590D02*
Y002640D01*
X005273Y002615D01*
X005307D01*
X005173Y001365D02*
Y001415D01*
X005198D01*
X005207Y001407D01*
Y001390D01*
X005198Y001382D01*
X005173D01*
X005190D02*
X005207Y001365D01*
X005257D02*
X005223D01*
X005257Y001398D01*
Y001407D01*
X005248Y001415D01*
X005232D01*
X005223Y001407D01*
X005273D02*
X005282Y001415D01*
X005298D01*
X005307Y001407D01*
Y001398D01*
X005298Y001390D01*
X005290D01*
X005298D01*
X005307Y001382D01*
Y001373D01*
X005298Y001365D01*
X005282D01*
X005273Y001373D01*
X006581Y001770D02*
X006531D01*
Y001795D01*
X006540Y001803D01*
X006556D01*
X006565Y001795D01*
Y001770D01*
Y001787D02*
X006581Y001803D01*
Y001853D02*
Y001820D01*
X006548Y001853D01*
X006540D01*
X006531Y001845D01*
Y001828D01*
X006540Y001820D01*
X006581Y001903D02*
Y001870D01*
X006548Y001903D01*
X006540D01*
X006531Y001895D01*
Y001878D01*
X006540Y001870D01*
X006581Y002115D02*
X006531D01*
Y002140D01*
X006540Y002149D01*
X006556D01*
X006565Y002140D01*
Y002115D01*
Y002132D02*
X006581Y002149D01*
Y002199D02*
Y002165D01*
X006548Y002199D01*
X006540D01*
X006531Y002190D01*
Y002174D01*
X006540Y002165D01*
X006581Y002215D02*
Y002232D01*
Y002224D01*
X006531D01*
X006540Y002215D01*
X006283Y002590D02*
Y002640D01*
X006308D01*
X006317Y002632D01*
Y002615D01*
X006308Y002607D01*
X006283D01*
X006300D02*
X006317Y002590D01*
X006367D02*
X006333D01*
X006367Y002623D01*
Y002632D01*
X006358Y002640D01*
X006342D01*
X006333Y002632D01*
X006383D02*
X006392Y002640D01*
X006408D01*
X006417Y002632D01*
Y002598D01*
X006408Y002590D01*
X006392D01*
X006383Y002598D01*
Y002632D01*
X006293Y001365D02*
Y001415D01*
X006318D01*
X006327Y001407D01*
Y001390D01*
X006318Y001382D01*
X006293D01*
X006310D02*
X006327Y001365D01*
X006343D02*
X006360D01*
X006352D01*
Y001415D01*
X006343Y001407D01*
X006385Y001373D02*
X006393Y001365D01*
X006410D01*
X006418Y001373D01*
Y001407D01*
X006410Y001415D01*
X006393D01*
X006385Y001407D01*
Y001398D01*
X006393Y001390D01*
X006418D01*
X003126Y003673D02*
Y003623D01*
X003160D01*
X003176D02*
X003193D01*
X003185D01*
Y003673D01*
X003176Y003664D01*
X001273Y005365D02*
Y005315D01*
X001298D01*
X001307Y005323D01*
Y005357D01*
X001298Y005365D01*
X001273D01*
X001323Y005315D02*
Y005348D01*
X001340Y005365D01*
X001357Y005348D01*
Y005315D01*
Y005340D01*
X001323D01*
X001407Y005365D02*
X001390Y005357D01*
X001373Y005340D01*
Y005323D01*
X001382Y005315D01*
X001398D01*
X001407Y005323D01*
Y005332D01*
X001398Y005340D01*
X001373D01*
X003323Y005365D02*
Y005315D01*
X003348D01*
X003357Y005323D01*
Y005357D01*
X003348Y005365D01*
X003323D01*
X003373Y005315D02*
Y005348D01*
X003390Y005365D01*
X003407Y005348D01*
Y005315D01*
Y005340D01*
X003373D01*
X003457Y005365D02*
X003423D01*
Y005340D01*
X003440Y005348D01*
X003448D01*
X003457Y005340D01*
Y005323D01*
X003448Y005315D01*
X003432D01*
X003423Y005323D01*
X004658Y005365D02*
Y005315D01*
X004683D01*
X004692Y005323D01*
Y005357D01*
X004683Y005365D01*
X004658D01*
X004708Y005315D02*
Y005348D01*
X004725Y005365D01*
X004742Y005348D01*
Y005315D01*
Y005340D01*
X004708D01*
X004783Y005315D02*
Y005365D01*
X004758Y005340D01*
X004792D01*
X004143Y002645D02*
Y002595D01*
X004168D01*
X004177Y002603D01*
Y002637D01*
X004168Y002645D01*
X004143D01*
X004193Y002595D02*
Y002628D01*
X004210Y002645D01*
X004227Y002628D01*
Y002595D01*
Y002620D01*
X004193D01*
X004243Y002637D02*
X004252Y002645D01*
X004268D01*
X004277Y002637D01*
Y002628D01*
X004268Y002620D01*
X004260D01*
X004268D01*
X004277Y002612D01*
Y002603D01*
X004268Y002595D01*
X004252D01*
X004243Y002603D01*
X005743Y002645D02*
Y002595D01*
X005768D01*
X005777Y002603D01*
Y002637D01*
X005768Y002645D01*
X005743D01*
X005793Y002595D02*
Y002628D01*
X005810Y002645D01*
X005827Y002628D01*
Y002595D01*
Y002620D01*
X005793D01*
X005877Y002595D02*
X005843D01*
X005877Y002628D01*
Y002637D01*
X005868Y002645D01*
X005852D01*
X005843Y002637D01*
X004017Y003442D02*
X004008Y003450D01*
X003992D01*
X003983Y003442D01*
Y003408D01*
X003992Y003400D01*
X004008D01*
X004017Y003408D01*
X004067Y003450D02*
X004033D01*
Y003425D01*
X004050Y003433D01*
X004058D01*
X004067Y003425D01*
Y003408D01*
X004058Y003400D01*
X004042D01*
X004033Y003408D01*
X004117Y003400D02*
X004083D01*
X004117Y003433D01*
Y003442D01*
X004108Y003450D01*
X004092D01*
X004083Y003442D01*
X004017Y003242D02*
X004008Y003250D01*
X003992D01*
X003983Y003242D01*
Y003208D01*
X003992Y003200D01*
X004008D01*
X004017Y003208D01*
X004067Y003250D02*
X004033D01*
Y003225D01*
X004050Y003233D01*
X004058D01*
X004067Y003225D01*
Y003208D01*
X004058Y003200D01*
X004042D01*
X004033Y003208D01*
X004083Y003200D02*
X004100D01*
X004092D01*
Y003250D01*
X004083Y003242D01*
X004017Y003017D02*
X004008Y003025D01*
X003992D01*
X003983Y003017D01*
Y002983D01*
X003992Y002975D01*
X004008D01*
X004017Y002983D01*
X004067Y003025D02*
X004033D01*
Y003000D01*
X004050Y003008D01*
X004058D01*
X004067Y003000D01*
Y002983D01*
X004058Y002975D01*
X004042D01*
X004033Y002983D01*
X004083Y003017D02*
X004092Y003025D01*
X004108D01*
X004117Y003017D01*
Y002983D01*
X004108Y002975D01*
X004092D01*
X004083Y002983D01*
Y003017D01*
X005067Y005692D02*
X005058Y005700D01*
X005042D01*
X005033Y005692D01*
Y005658D01*
X005042Y005650D01*
X005058D01*
X005067Y005658D01*
X005108Y005650D02*
Y005700D01*
X005083Y005675D01*
X005117D01*
X005133Y005658D02*
X005142Y005650D01*
X005158D01*
X005167Y005658D01*
Y005692D01*
X005158Y005700D01*
X005142D01*
X005133Y005692D01*
Y005683D01*
X005142Y005675D01*
X005167D01*
X001343Y003922D02*
X001335Y003930D01*
X001318D01*
X001310Y003922D01*
Y003888D01*
X001318Y003880D01*
X001335D01*
X001343Y003888D01*
X001385Y003880D02*
Y003930D01*
X001360Y003905D01*
X001393D01*
X001410Y003922D02*
X001418Y003930D01*
X001435D01*
X001443Y003922D01*
Y003913D01*
X001435Y003905D01*
X001443Y003897D01*
Y003888D01*
X001435Y003880D01*
X001418D01*
X001410Y003888D01*
Y003897D01*
X001418Y003905D01*
X001410Y003913D01*
Y003922D01*
X001418Y003905D02*
X001435D01*
X001343Y005142D02*
X001335Y005150D01*
X001318D01*
X001310Y005142D01*
Y005108D01*
X001318Y005100D01*
X001335D01*
X001343Y005108D01*
X001385Y005100D02*
Y005150D01*
X001360Y005125D01*
X001393D01*
X001410Y005150D02*
X001443D01*
Y005142D01*
X001410Y005108D01*
Y005100D01*
X001745Y003917D02*
X001737Y003925D01*
X001720D01*
X001712Y003917D01*
Y003883D01*
X001720Y003875D01*
X001737D01*
X001745Y003883D01*
X001787Y003875D02*
Y003925D01*
X001762Y003900D01*
X001795D01*
X001845Y003925D02*
X001828Y003917D01*
X001812Y003900D01*
Y003883D01*
X001820Y003875D01*
X001837D01*
X001845Y003883D01*
Y003892D01*
X001837Y003900D01*
X001812D01*
X001745Y005142D02*
X001737Y005150D01*
X001720D01*
X001712Y005142D01*
Y005108D01*
X001720Y005100D01*
X001737D01*
X001745Y005108D01*
X001787Y005100D02*
Y005150D01*
X001762Y005125D01*
X001795D01*
X001845Y005150D02*
X001812D01*
Y005125D01*
X001828Y005133D01*
X001837D01*
X001845Y005125D01*
Y005108D01*
X001837Y005100D01*
X001820D01*
X001812Y005108D01*
X002943Y003917D02*
X002935Y003925D01*
X002918D01*
X002910Y003917D01*
Y003883D01*
X002918Y003875D01*
X002935D01*
X002943Y003883D01*
X002985Y003875D02*
Y003925D01*
X002960Y003900D01*
X002993D01*
X003010Y003917D02*
X003018Y003925D01*
X003035D01*
X003043Y003917D01*
Y003883D01*
X003035Y003875D01*
X003018D01*
X003010Y003883D01*
Y003917D01*
X002943Y005127D02*
X002935Y005135D01*
X002918D01*
X002910Y005127D01*
Y005093D01*
X002918Y005085D01*
X002935D01*
X002943Y005093D01*
X002960Y005127D02*
X002968Y005135D01*
X002985D01*
X002993Y005127D01*
Y005118D01*
X002985Y005110D01*
X002976D01*
X002985D01*
X002993Y005102D01*
Y005093D01*
X002985Y005085D01*
X002968D01*
X002960Y005093D01*
X003010D02*
X003018Y005085D01*
X003035D01*
X003043Y005093D01*
Y005127D01*
X003035Y005135D01*
X003018D01*
X003010Y005127D01*
Y005118D01*
X003018Y005110D01*
X003043D01*
X003345Y003917D02*
X003337Y003925D01*
X003320D01*
X003312Y003917D01*
Y003883D01*
X003320Y003875D01*
X003337D01*
X003345Y003883D01*
X003362Y003917D02*
X003370Y003925D01*
X003387D01*
X003395Y003917D01*
Y003908D01*
X003387Y003900D01*
X003378D01*
X003387D01*
X003395Y003892D01*
Y003883D01*
X003387Y003875D01*
X003370D01*
X003362Y003883D01*
X003412Y003917D02*
X003420Y003925D01*
X003437D01*
X003445Y003917D01*
Y003908D01*
X003437Y003900D01*
X003445Y003892D01*
Y003883D01*
X003437Y003875D01*
X003420D01*
X003412Y003883D01*
Y003892D01*
X003420Y003900D01*
X003412Y003908D01*
Y003917D01*
X003420Y003900D02*
X003437D01*
X003345Y005127D02*
X003337Y005135D01*
X003320D01*
X003312Y005127D01*
Y005093D01*
X003320Y005085D01*
X003337D01*
X003345Y005093D01*
X003362Y005127D02*
X003370Y005135D01*
X003387D01*
X003395Y005127D01*
Y005118D01*
X003387Y005110D01*
X003378D01*
X003387D01*
X003395Y005102D01*
Y005093D01*
X003387Y005085D01*
X003370D01*
X003362Y005093D01*
X003412Y005135D02*
X003445D01*
Y005127D01*
X003412Y005093D01*
Y005085D01*
X004543Y003917D02*
X004535Y003925D01*
X004518D01*
X004510Y003917D01*
Y003883D01*
X004518Y003875D01*
X004535D01*
X004543Y003883D01*
X004560Y003917D02*
X004568Y003925D01*
X004585D01*
X004593Y003917D01*
Y003908D01*
X004585Y003900D01*
X004576D01*
X004585D01*
X004593Y003892D01*
Y003883D01*
X004585Y003875D01*
X004568D01*
X004560Y003883D01*
X004643Y003875D02*
X004610D01*
X004643Y003908D01*
Y003917D01*
X004635Y003925D01*
X004618D01*
X004610Y003917D01*
X004575Y005127D02*
X004567Y005135D01*
X004550D01*
X004542Y005127D01*
Y005093D01*
X004550Y005085D01*
X004567D01*
X004575Y005093D01*
X004592Y005127D02*
X004600Y005135D01*
X004617D01*
X004625Y005127D01*
Y005118D01*
X004617Y005110D01*
X004608D01*
X004617D01*
X004625Y005102D01*
Y005093D01*
X004617Y005085D01*
X004600D01*
X004592Y005093D01*
X004642Y005085D02*
X004658D01*
X004650D01*
Y005135D01*
X004642Y005127D01*
X004945Y003917D02*
X004937Y003925D01*
X004920D01*
X004912Y003917D01*
Y003883D01*
X004920Y003875D01*
X004937D01*
X004945Y003883D01*
X004962Y003917D02*
X004970Y003925D01*
X004987D01*
X004995Y003917D01*
Y003908D01*
X004987Y003900D01*
X004978D01*
X004987D01*
X004995Y003892D01*
Y003883D01*
X004987Y003875D01*
X004970D01*
X004962Y003883D01*
X005012Y003917D02*
X005020Y003925D01*
X005037D01*
X005045Y003917D01*
Y003883D01*
X005037Y003875D01*
X005020D01*
X005012Y003883D01*
Y003917D01*
X004945Y005127D02*
X004937Y005135D01*
X004920D01*
X004912Y005127D01*
Y005093D01*
X004920Y005085D01*
X004937D01*
X004945Y005093D01*
X004995Y005085D02*
X004962D01*
X004995Y005118D01*
Y005127D01*
X004987Y005135D01*
X004970D01*
X004962Y005127D01*
X005012Y005093D02*
X005020Y005085D01*
X005037D01*
X005045Y005093D01*
Y005127D01*
X005037Y005135D01*
X005020D01*
X005012Y005127D01*
Y005118D01*
X005020Y005110D01*
X005045D01*
X003963Y001407D02*
X003955Y001415D01*
X003938D01*
X003930Y001407D01*
Y001373D01*
X003938Y001365D01*
X003955D01*
X003963Y001373D01*
X004013Y001365D02*
X003980D01*
X004013Y001398D01*
Y001407D01*
X004005Y001415D01*
X003988D01*
X003980Y001407D01*
X004055Y001365D02*
Y001415D01*
X004030Y001390D01*
X004063D01*
X003967Y002632D02*
X003958Y002640D01*
X003942D01*
X003933Y002632D01*
Y002598D01*
X003942Y002590D01*
X003958D01*
X003967Y002598D01*
X004017Y002590D02*
X003983D01*
X004017Y002623D01*
Y002632D01*
X004008Y002640D01*
X003992D01*
X003983Y002632D01*
X004033D02*
X004042Y002640D01*
X004058D01*
X004067Y002632D01*
Y002623D01*
X004058Y002615D01*
X004050D01*
X004058D01*
X004067Y002607D01*
Y002598D01*
X004058Y002590D01*
X004042D01*
X004033Y002598D01*
X004365Y001407D02*
X004357Y001415D01*
X004340D01*
X004332Y001407D01*
Y001373D01*
X004340Y001365D01*
X004357D01*
X004365Y001373D01*
X004415Y001365D02*
X004382D01*
X004415Y001398D01*
Y001407D01*
X004407Y001415D01*
X004390D01*
X004382Y001407D01*
X004465Y001365D02*
X004432D01*
X004465Y001398D01*
Y001407D01*
X004457Y001415D01*
X004440D01*
X004432Y001407D01*
X004365Y002632D02*
X004357Y002640D01*
X004340D01*
X004332Y002632D01*
Y002598D01*
X004340Y002590D01*
X004357D01*
X004365Y002598D01*
X004415Y002590D02*
X004382D01*
X004415Y002623D01*
Y002632D01*
X004407Y002640D01*
X004390D01*
X004382Y002632D01*
X004432Y002590D02*
X004448D01*
X004440D01*
Y002640D01*
X004432Y002632D01*
X005563Y001407D02*
X005555Y001415D01*
X005538D01*
X005530Y001407D01*
Y001373D01*
X005538Y001365D01*
X005555D01*
X005563Y001373D01*
X005580Y001365D02*
X005596D01*
X005588D01*
Y001415D01*
X005580Y001407D01*
X005655Y001415D02*
X005638Y001407D01*
X005621Y001390D01*
Y001373D01*
X005630Y001365D01*
X005646D01*
X005655Y001373D01*
Y001382D01*
X005646Y001390D01*
X005621D01*
X005571Y002632D02*
X005563Y002640D01*
X005546D01*
X005538Y002632D01*
Y002598D01*
X005546Y002590D01*
X005563D01*
X005571Y002598D01*
X005588Y002590D02*
X005604D01*
X005596D01*
Y002640D01*
X005588Y002632D01*
X005662Y002640D02*
X005629D01*
Y002615D01*
X005646Y002623D01*
X005654D01*
X005662Y002615D01*
Y002598D01*
X005654Y002590D01*
X005637D01*
X005629Y002598D01*
X005965Y001407D02*
X005957Y001415D01*
X005940D01*
X005932Y001407D01*
Y001373D01*
X005940Y001365D01*
X005957D01*
X005965Y001373D01*
X005982Y001365D02*
X005998D01*
X005990D01*
Y001415D01*
X005982Y001407D01*
X006048Y001365D02*
Y001415D01*
X006023Y001390D01*
X006057D01*
X005965Y002632D02*
X005957Y002640D01*
X005940D01*
X005932Y002632D01*
Y002598D01*
X005940Y002590D01*
X005957D01*
X005965Y002598D01*
X005982Y002590D02*
X005998D01*
X005990D01*
Y002640D01*
X005982Y002632D01*
X006023D02*
X006032Y002640D01*
X006048D01*
X006057Y002632D01*
Y002623D01*
X006048Y002615D01*
X006040D01*
X006048D01*
X006057Y002607D01*
Y002598D01*
X006048Y002590D01*
X006032D01*
X006023Y002598D01*
X006742Y003025D02*
Y002975D01*
Y002992D01*
X006775Y003025D01*
X006750Y003000D01*
X006775Y002975D01*
X006792D02*
X006808D01*
X006800D01*
Y003025D01*
X006792Y003017D01*
X004902Y003745D02*
Y003712D01*
X004918Y003695D01*
X004935Y003712D01*
Y003745D01*
X004952D02*
X004985D01*
X004968D01*
Y003695D01*
X005002D02*
X005018D01*
X005010D01*
Y003745D01*
X005002Y003737D01*
X005605Y005212D02*
X005555D01*
Y005237D01*
X005563Y005245D01*
X005580D01*
X005588Y005237D01*
Y005212D01*
Y005228D02*
X005605Y005245D01*
X005555Y005262D02*
X005605D01*
X005588D01*
X005555Y005295D01*
X005580Y005270D01*
X005605Y005295D01*
Y005312D02*
Y005328D01*
Y005320D01*
X005555D01*
X005563Y005312D01*
X000287Y004555D02*
X000320Y004505D01*
Y004555D02*
X000287Y004505D01*
X000337D02*
X000353D01*
X000345D01*
Y004555D01*
X000337Y004547D01*
M02*
