M48
;Layer_Color=9474304
;FILE_FORMAT=4:2
METRIC
;TYPE=PLATED
T1F00S00C0.40
T2F00S00C0.51
T3F00S00C0.60
T4F00S00C0.80
T5F00S00C0.86
T6F00S00C1.00
T7F00S00C1.80
T8F00S00C2.03
T9F00S00C2.10
T10F00S00C2.60
%
T01
X000375Y002300
X001119Y003830
X001399
X001780
X002033
X002719
X002999
X003380
X003633
X003375Y003475
Y003300
X003050Y003490
X003549Y002720
X003720Y002760
X003909Y002690
X003894Y001655
X003739Y001320
X003610Y000800
X003420Y001990
X004019Y001320
X004400
X004653
X005339Y001320
X005619
X006000
X006253
X006939
X007219
X007600
X007853
X007094Y001655
X006620Y001990
X006500Y002720
X006749
X006920Y002760
X007109Y002690
X007390Y002760
X005885
X005509Y002690
X005320Y002760
X005149Y002720
X004900Y002720
X004850Y002900
X004282Y002746
X004319Y003830
X004599
X004980
X005233
X005020Y001990
X005494Y001655
X008100Y002720
X004474Y004165
X004000Y004500
X004129Y005230
X004300Y005270
X004489Y005200
X004865Y005213
X005136Y005478
X004900Y005825
X004275Y005675
X005480Y005230
X003880
X003265Y005220
X002700
X002529Y005230
X002280
X001665Y005270
X001289Y005200
X001100Y005270
X000929Y005230
X000800Y004500
X001274Y004165
X002400Y004500
X002874Y004165
T02
X003225Y000800
Y000990
X005580Y005479
Y005670
T03
X004053Y002700
X004581
X005657
X006184
X007257
X007784
X005164Y005210
X004637
X003564
X003010
X001964
X001437
T04
X004825Y003375
X005079
X004952Y003502
T05
X000347Y002547
Y002747
X000547
Y002947
Y003147
Y003347
X000347
Y003147
Y002947
X000547Y002547
Y003547
X000347
Y003747
Y003947
X000547
Y003747
Y004147
X000347
Y004347
X000547
T06
X004800Y000650
X005165Y000680
X005415
X005665
X005915
X006165
X006415
Y000380
X006165
X005915
X005665
X005415
X005165
X004800Y001155
X005630Y001120
X005950
X006300Y003050
Y003400
X004000Y005425
Y005900
X003640Y005780
X003390
X003140
X002890
X002640
X002390
Y006080
X002640
X002890
X003140
X003390
X003640
X003165Y005400
X002865
T07
X005450Y003072
Y003580
X007457Y003326
X008206Y003072
Y003580
T08
X008447Y003326
T09
X007097Y003400
X007597Y003000
T10
X000397Y001845
X003347Y000395
X006993
X004397Y003245
X008397Y004645
X005447Y006095
X001800
M30
