G04*
G04 #@! TF.GenerationSoftware,Altium Limited,Altium Designer,22.1.2 (22)*
G04*
G04 Layer_Physical_Order=4*
G04 Layer_Color=8421376*
%FSAX42Y42*%
%MOMM*%
G71*
G04*
G04 #@! TF.SameCoordinates,62F643CC-CF5F-4127-9562-83DCACE2805F*
G04*
G04*
G04 #@! TF.FilePolarity,Negative*
G04*
G01*
G75*
%ADD54C,1.02*%
%ADD60C,0.60*%
%ADD63C,1.02*%
%ADD64R,6.60X5.80*%
%ADD65C,1.26*%
G04:AMPARAMS|DCode=66|XSize=2.3876mm|YSize=2.3876mm|CornerRadius=0mm|HoleSize=0mm|Usage=FLASHONLY|Rotation=0.000|XOffset=0mm|YOffset=0mm|HoleType=Round|Shape=Relief|Width=0.4mm|Gap=0.25mm|Entries=4|*
%AMTHD66*
7,0,0,2.39,1.88,0.40,45*
%
%ADD66THD66*%
%ADD67C,1.40*%
%ADD68C,0.91*%
%ADD69C,1.20*%
%ADD70C,1.35*%
%ADD71C,0.70*%
G04:AMPARAMS|DCode=72|XSize=1.724mm|YSize=1.724mm|CornerRadius=0mm|HoleSize=0mm|Usage=FLASHONLY|Rotation=0.000|XOffset=0mm|YOffset=0mm|HoleType=Round|Shape=Relief|Width=0.4mm|Gap=0.25mm|Entries=4|*
%AMTHD72*
7,0,0,1.72,1.22,0.40,45*
%
%ADD72THD72*%
%ADD73C,0.80*%
G04:AMPARAMS|DCode=74|XSize=1.924mm|YSize=1.924mm|CornerRadius=0mm|HoleSize=0mm|Usage=FLASHONLY|Rotation=0.000|XOffset=0mm|YOffset=0mm|HoleType=Round|Shape=Relief|Width=0.4mm|Gap=0.25mm|Entries=4|*
%AMTHD74*
7,0,0,1.92,1.42,0.40,45*
%
%ADD74THD74*%
%ADD75C,3.00*%
D54*
X000095Y004641D02*
D03*
X001810Y006355D02*
D03*
X001810Y006355D02*
D03*
X003830Y006355D02*
D03*
Y006355D02*
D03*
X004751Y006215D02*
D03*
X004751Y006215D02*
D03*
X005455Y006355D02*
D03*
Y006355D02*
D03*
X005715Y003095D02*
D03*
X008641Y001665D02*
D03*
X007187Y000211D02*
D03*
X004751Y000275D02*
D03*
D60*
X007523Y001440D02*
D03*
X007523Y001205D02*
D03*
X007724Y000983D02*
D03*
X007522D02*
D03*
X007889Y001521D02*
D03*
Y001763D02*
D03*
X006219D02*
D03*
Y001521D02*
D03*
X005852Y000983D02*
D03*
X006054D02*
D03*
X005853Y001205D02*
D03*
X005853Y001440D02*
D03*
X004183D02*
D03*
X004183Y001205D02*
D03*
X004384Y000983D02*
D03*
X004182D02*
D03*
X004549Y001521D02*
D03*
Y001763D02*
D03*
X004271Y004713D02*
D03*
Y004955D02*
D03*
X004638Y005493D02*
D03*
X004436D02*
D03*
X004637Y005271D02*
D03*
X004637Y005036D02*
D03*
X001297D02*
D03*
X001297Y005271D02*
D03*
X001096Y005493D02*
D03*
X001298D02*
D03*
X000931Y004955D02*
D03*
Y004713D02*
D03*
X002601D02*
D03*
Y004955D02*
D03*
X002968Y005493D02*
D03*
X002766D02*
D03*
X002967Y005271D02*
D03*
X002967Y005036D02*
D03*
X007229Y000820D02*
D03*
X007040D02*
D03*
X006746Y000822D02*
D03*
X007380Y000870D02*
D03*
X006562Y001300D02*
D03*
Y001480D02*
D03*
X006840Y001790D02*
D03*
X006750Y001880D02*
D03*
X007650Y002400D02*
D03*
X007792D02*
D03*
X006940Y002550D02*
D03*
X006530Y002590D02*
D03*
X006940Y002723D02*
D03*
X002169Y004674D02*
D03*
X006414Y002476D02*
D03*
X004981Y001831D02*
D03*
X005020Y005770D02*
D03*
X005560Y000822D02*
D03*
X002619Y004162D02*
D03*
X003900Y004680D02*
D03*
X001410Y005650D02*
D03*
X003890Y000820D02*
D03*
X004930Y005650D02*
D03*
X001590D02*
D03*
X003260D02*
D03*
X003654Y005650D02*
D03*
X001809Y003630D02*
D03*
X001880Y003747D02*
D03*
X001780Y005650D02*
D03*
X002074Y005648D02*
D03*
X001980Y004680D02*
D03*
X002070Y004590D02*
D03*
X005212Y003630D02*
D03*
X003540D02*
D03*
X005220Y003747D02*
D03*
X003550D02*
D03*
X004090Y005648D02*
D03*
X003744D02*
D03*
X003650Y004680D02*
D03*
X003928Y004990D02*
D03*
X003740Y004590D02*
D03*
X003928Y003746D02*
D03*
Y005170D02*
D03*
X005410Y004590D02*
D03*
X004368Y004070D02*
D03*
X004510D02*
D03*
X005320Y004680D02*
D03*
X005598Y005170D02*
D03*
Y004990D02*
D03*
Y003746D02*
D03*
X005120Y005650D02*
D03*
X005414Y005648D02*
D03*
X005270Y001030D02*
D03*
X003222Y001586D02*
D03*
X005270Y002723D02*
D03*
X003643Y002835D02*
D03*
X003592Y002723D02*
D03*
X004310Y002400D02*
D03*
X004452D02*
D03*
X003222Y002724D02*
D03*
Y001300D02*
D03*
X003406Y000822D02*
D03*
X003700Y000820D02*
D03*
X003500Y001790D02*
D03*
X003410Y001880D02*
D03*
X005370Y002828D02*
D03*
X003000Y002740D02*
D03*
X002960Y002790D02*
D03*
X002930Y002845D02*
D03*
X005076Y000822D02*
D03*
X006122Y002400D02*
D03*
X004892Y001300D02*
D03*
Y001480D02*
D03*
X005080Y001880D02*
D03*
X005980Y002400D02*
D03*
X005170Y001790D02*
D03*
X004892Y002724D02*
D03*
X002258Y004990D02*
D03*
X001028Y004070D02*
D03*
X001170D02*
D03*
X002258Y003746D02*
D03*
Y005170D02*
D03*
X002698Y004070D02*
D03*
X002840D02*
D03*
D63*
X000095Y001845D02*
G03*
X000355Y001585I000260J000000D01*
G01*
X000171Y004825D02*
G03*
X000095Y004641I000184J-000184D01*
G01*
X001759Y006350D02*
G03*
X001625Y006279I000049J-000255D01*
G01*
X001810Y006355D02*
G03*
X001759Y006350I000000J-000260D01*
G01*
X004061Y006215D02*
G03*
X003830Y006355I-000231J-000120D01*
G01*
X004061Y006215D02*
G03*
X004483Y006013I000346J000180D01*
G01*
D02*
G03*
X004751Y006215I-000078J000382D01*
G01*
X004982Y006355D02*
G03*
X004751Y006215I000000J-000260D01*
G01*
X005715Y006095D02*
G03*
X005455Y006355I-000260J000000D01*
G01*
X005715Y003095D02*
G03*
X005955Y002855I000240J000000D01*
G01*
X008715Y002595D02*
G03*
X008455Y002855I-000260J000000D01*
G01*
X008717Y001849D02*
G03*
X008715Y001854I-000010J000000D01*
G01*
X008641Y001665D02*
G03*
X008717Y001849I-000184J000184D01*
G01*
X007053Y000140D02*
G03*
X007187Y000211I-000050J000255D01*
G01*
X007002Y000135D02*
G03*
X007053Y000140I000000J000260D01*
G01*
X004751Y000275D02*
G03*
X004982Y000135I000231J000120D01*
G01*
X004751Y000275D02*
G03*
X004332Y000478I-000346J-000180D01*
G01*
X004332D02*
G03*
X004061Y000275I000075J-000383D01*
G01*
X003879Y000140D02*
G03*
X004061Y000275I-000049J000255D01*
G01*
X003829Y000135D02*
G03*
X003879Y000140I-000000J000260D01*
G01*
X003095Y000395D02*
G03*
X003355Y000135I000260J000000D01*
G01*
X003095Y001345D02*
G03*
X002855Y001585I-000240J000000D01*
G01*
X000095Y001845D02*
Y004641D01*
X000171Y004825D02*
X001625Y006279D01*
X001810Y006355D02*
X001810D01*
Y006355D02*
X003830D01*
X003830Y006355D01*
X004751Y006215D02*
X004751Y006215D01*
X004982Y006355D02*
X005455D01*
X005455Y006355D01*
X005715Y003095D02*
Y006095D01*
X005955Y002855D02*
X008455D01*
X008715Y001854D02*
Y002595D01*
X007187Y000211D02*
X008641Y001665D01*
X004982Y000135D02*
X007002Y000135D01*
X003355D02*
X003829D01*
X003095Y000395D02*
Y001345D01*
X000355Y001585D02*
X002855D01*
D64*
X007531Y001932D02*
D03*
X005861D02*
D03*
X004191D02*
D03*
X004629Y004544D02*
D03*
X001289D02*
D03*
X002959D02*
D03*
D65*
X000347Y004147D02*
D03*
Y004347D02*
D03*
X000547Y003947D02*
D03*
X000347D02*
D03*
X000547Y004147D02*
D03*
Y004347D02*
D03*
Y004547D02*
D03*
X000347D02*
D03*
X000547Y003747D02*
D03*
X000347Y003547D02*
D03*
X000547D02*
D03*
X000347Y003747D02*
D03*
X000547Y003347D02*
D03*
X000347Y003147D02*
D03*
X000547D02*
D03*
X000347Y003347D02*
D03*
X000547Y002947D02*
D03*
X000347D02*
D03*
X000547Y002747D02*
D03*
X000347Y002547D02*
D03*
X000547D02*
D03*
Y002347D02*
D03*
X000347Y002347D02*
D03*
Y002747D02*
D03*
D66*
X000547Y004747D02*
D03*
X000347D02*
D03*
D67*
X003424Y005781D02*
D03*
X004721Y005712D02*
D03*
X005370Y000710D02*
D03*
X003424Y006081D02*
D03*
X003023Y005931D02*
D03*
X004811Y006032D02*
D03*
X004070Y000770D02*
D03*
X005771Y000560D02*
D03*
X003980Y000450D02*
D03*
X005370Y000410D02*
D03*
D68*
X001574Y001733D02*
D03*
X001765D02*
D03*
X001115D02*
D03*
X001306D02*
D03*
D69*
X002635Y006151D02*
D03*
Y005931D02*
D03*
Y005711D02*
D03*
X002335Y006151D02*
D03*
Y005931D02*
D03*
Y005711D02*
D03*
X006458Y000780D02*
D03*
Y000560D02*
D03*
Y000340D02*
D03*
X006158Y000780D02*
D03*
Y000560D02*
D03*
Y000340D02*
D03*
D70*
X005230Y003236D02*
D03*
Y003490D02*
D03*
X005520D02*
D03*
Y003236D02*
D03*
D71*
X000810Y003270D02*
D03*
X001900Y002660D02*
D03*
D72*
X001010Y003610D02*
D03*
X006562Y002190D02*
D03*
X008147Y002725D02*
D03*
X006410Y002570D02*
D03*
X004070Y003800D02*
D03*
X003928Y004280D02*
D03*
X005598D02*
D03*
X002400Y003800D02*
D03*
X004751Y002721D02*
D03*
X003222Y002190D02*
D03*
X004892D02*
D03*
X002258Y004280D02*
D03*
D73*
X004120Y003450D02*
D03*
X001443Y002094D02*
D03*
X001100Y003150D02*
D03*
X002070Y001960D02*
D03*
X002380Y003410D02*
D03*
D74*
X003020Y002190D02*
D03*
X004860Y003080D02*
D03*
X001449Y002664D02*
D03*
D75*
X001799Y006095D02*
D03*
X004395Y003245D02*
D03*
X005445Y006095D02*
D03*
X000395Y001845D02*
D03*
X003345Y000395D02*
D03*
X008395Y002545D02*
D03*
X006991Y000395D02*
D03*
M02*
