G04*
G04 #@! TF.GenerationSoftware,Altium Limited,Altium Designer,22.1.2 (22)*
G04*
G04 Layer_Physical_Order=6*
G04 Layer_Color=16737819*
%FSAX42Y42*%
%MOMM*%
G71*
G04*
G04 #@! TF.SameCoordinates,62F643CC-CF5F-4127-9562-83DCACE2805F*
G04*
G04*
G04 #@! TF.FilePolarity,Positive*
G04*
G01*
G75*
%ADD11C,0.25*%
%ADD13C,0.20*%
%ADD15C,0.50*%
%ADD39O,1.80X0.70*%
%ADD40O,0.64X1.20*%
%ADD41R,0.60X1.20*%
%ADD42R,1.80X0.70*%
%ADD43R,0.80X1.30*%
%ADD49C,0.30*%
G04:AMPARAMS|DCode=50|XSize=5mm|YSize=3mm|CornerRadius=0.08mm|HoleSize=0mm|Usage=FLASHONLY|Rotation=0.000|XOffset=0mm|YOffset=0mm|HoleType=Round|Shape=RoundedRectangle|*
%AMROUNDEDRECTD50*
21,1,5.00,2.85,0,0,0.0*
21,1,4.85,3.00,0,0,0.0*
1,1,0.15,2.42,-1.43*
1,1,0.15,-2.42,-1.43*
1,1,0.15,-2.42,1.43*
1,1,0.15,2.42,1.43*
%
%ADD50ROUNDEDRECTD50*%
%ADD51C,1.37*%
%ADD52R,1.37X1.37*%
%ADD53C,2.00*%
%ADD54C,1.02*%
G04:AMPARAMS|DCode=55|XSize=2.8mm|YSize=2.8mm|CornerRadius=0.7mm|HoleSize=0mm|Usage=FLASHONLY|Rotation=180.000|XOffset=0mm|YOffset=0mm|HoleType=Round|Shape=RoundedRectangle|*
%AMROUNDEDRECTD55*
21,1,2.80,1.40,0,0,180.0*
21,1,1.40,2.80,0,0,180.0*
1,1,1.40,-0.70,0.70*
1,1,1.40,0.70,0.70*
1,1,1.40,0.70,-0.70*
1,1,1.40,-0.70,-0.70*
%
%ADD55ROUNDEDRECTD55*%
%ADD56O,2.00X1.60*%
%ADD57R,1.60X1.40*%
%ADD58O,1.60X1.40*%
%ADD59C,0.40*%
%ADD60C,0.60*%
%ADD61C,0.70*%
%ADD62C,4.00*%
G04:AMPARAMS|DCode=79|XSize=0.7mm|YSize=0.9mm|CornerRadius=0.18mm|HoleSize=0mm|Usage=FLASHONLY|Rotation=270.000|XOffset=0mm|YOffset=0mm|HoleType=Round|Shape=RoundedRectangle|*
%AMROUNDEDRECTD79*
21,1,0.70,0.55,0,0,270.0*
21,1,0.35,0.90,0,0,270.0*
1,1,0.35,-0.28,-0.18*
1,1,0.35,-0.28,0.18*
1,1,0.35,0.28,0.18*
1,1,0.35,0.28,-0.18*
%
%ADD79ROUNDEDRECTD79*%
%ADD80R,0.90X0.70*%
G04:AMPARAMS|DCode=81|XSize=0.9mm|YSize=0.95mm|CornerRadius=0.23mm|HoleSize=0mm|Usage=FLASHONLY|Rotation=180.000|XOffset=0mm|YOffset=0mm|HoleType=Round|Shape=RoundedRectangle|*
%AMROUNDEDRECTD81*
21,1,0.90,0.50,0,0,180.0*
21,1,0.45,0.95,0,0,180.0*
1,1,0.45,-0.23,0.25*
1,1,0.45,0.23,0.25*
1,1,0.45,0.23,-0.25*
1,1,0.45,-0.23,-0.25*
%
%ADD81ROUNDEDRECTD81*%
%ADD82R,0.90X0.95*%
%ADD83R,0.90X0.95*%
G36*
X003776Y006119D02*
X003776Y006119D01*
X004132Y005764D01*
Y005695D01*
X004123Y005689D01*
X004109Y005684D01*
X004098Y005688D01*
X004082D01*
X004067Y005682D01*
X004056Y005671D01*
X004052Y005660D01*
X003960Y005569D01*
X003953Y005557D01*
X003950Y005544D01*
Y005219D01*
X003936Y005210D01*
X003926D01*
X003919Y005212D01*
X003906Y005228D01*
Y005325D01*
X003887D01*
X003883Y005346D01*
X003884Y005348D01*
X003895Y005356D01*
X003903Y005368D01*
X003906Y005380D01*
X003841D01*
X003775D01*
X003778Y005368D01*
X003786Y005356D01*
X003798Y005348D01*
X003798Y005346D01*
X003794Y005325D01*
X003776D01*
Y005303D01*
X003753Y005294D01*
X003716Y005331D01*
Y005390D01*
X003686D01*
Y005540D01*
X003756Y005610D01*
X003766Y005614D01*
X003778Y005625D01*
X003784Y005640D01*
Y005656D01*
X003778Y005671D01*
X003766Y005682D01*
X003752Y005688D01*
X003736D01*
X003721Y005682D01*
X003712Y005673D01*
X003690Y005672D01*
X003688Y005673D01*
X003676Y005684D01*
X003662Y005690D01*
X003646D01*
X003635Y005686D01*
X003546D01*
X003532Y005683D01*
X003520Y005675D01*
X003460Y005615D01*
X003390D01*
Y005445D01*
X003390D01*
Y005437D01*
X003390D01*
Y005267D01*
X003390D01*
X003390Y005258D01*
X003390D01*
X003390Y005244D01*
Y005103D01*
X003320D01*
Y005244D01*
X003320Y005267D01*
X003320Y005281D01*
Y005332D01*
X003200D01*
Y005281D01*
X003200Y005258D01*
X003200Y005244D01*
Y005209D01*
X003123D01*
Y005264D01*
X003123D01*
Y005274D01*
X003123D01*
Y005444D01*
X003013D01*
X003013Y005494D01*
X003011Y005503D01*
X003009Y005511D01*
X003009Y005511D01*
X003009Y005511D01*
X003004Y005519D01*
X002999Y005526D01*
X002999Y005526D01*
X002999Y005526D01*
X002992Y005531D01*
X002984Y005536D01*
X002984Y005536D01*
X002984Y005536D01*
X002976Y005538D01*
X002967Y005540D01*
X002777D01*
X002767Y005562D01*
X002842Y005638D01*
X002852Y005652D01*
X002856Y005670D01*
Y005802D01*
X002879Y005810D01*
X002888Y005797D01*
X002907Y005783D01*
X002929Y005774D01*
X002953Y005770D01*
X003003D01*
Y005911D01*
X002855D01*
X002853Y005909D01*
X002839Y005907D01*
X002803Y005943D01*
X002788Y005953D01*
X002771Y005956D01*
X002753D01*
X002753Y005957D01*
X002743Y005982D01*
X002727Y006003D01*
X002706Y006019D01*
X002682Y006029D01*
X002673Y006030D01*
Y006053D01*
X002682Y006054D01*
X002706Y006064D01*
X002727Y006080D01*
X002743Y006101D01*
X002745Y006105D01*
X002811D01*
X002829Y006109D01*
X002844Y006119D01*
X002929Y006204D01*
X003351D01*
X003357Y006181D01*
X003350Y006177D01*
X003328Y006155D01*
X003312Y006128D01*
X003305Y006101D01*
X003424D01*
X003542D01*
X003535Y006128D01*
X003520Y006155D01*
X003497Y006177D01*
X003490Y006181D01*
X003496Y006204D01*
X003691D01*
X003776Y006119D01*
D02*
G37*
G36*
X005431Y006364D02*
X005560Y006343D01*
X005649Y006277D01*
X005705Y006180D01*
X005713Y006030D01*
X005711Y005267D01*
X005713Y003106D01*
X005737Y002997D01*
X005787Y002931D01*
X005856Y002883D01*
X005853Y002861D01*
X005770D01*
X005695Y002935D01*
X005684Y002943D01*
X005670Y002946D01*
X005301D01*
X005280Y002948D01*
X005280Y002968D01*
Y003118D01*
X005266D01*
Y003146D01*
X005330D01*
Y003192D01*
X005420D01*
Y003146D01*
X005620D01*
Y003326D01*
X005420D01*
Y003284D01*
X005330D01*
Y003326D01*
X005130D01*
Y003284D01*
X005076D01*
X005068Y003296D01*
X005054Y003305D01*
X005038Y003308D01*
X004992D01*
X004976Y003305D01*
X004962Y003296D01*
X004954Y003284D01*
X004890D01*
Y003308D01*
X004760D01*
Y003173D01*
X004890D01*
Y003192D01*
X004957D01*
X004962Y003184D01*
X004976Y003175D01*
X004992Y003172D01*
X005038D01*
X005054Y003175D01*
X005068Y003184D01*
X005073Y003192D01*
X005130D01*
Y003146D01*
X005174D01*
Y003118D01*
X005160D01*
Y002968D01*
X005160Y002948D01*
X005138Y002946D01*
X005111D01*
X005090Y002948D01*
X005090Y002968D01*
Y003118D01*
X004970D01*
Y003079D01*
X004931D01*
X004912Y003098D01*
X004907Y003111D01*
X004891Y003127D01*
X004871Y003135D01*
X004849D01*
X004829Y003127D01*
X004813Y003111D01*
X004805Y003091D01*
Y003069D01*
X004813Y003049D01*
X004829Y003033D01*
X004849Y003025D01*
X004856D01*
X004880Y003001D01*
X004894Y002991D01*
X004912Y002988D01*
X004954D01*
X004970Y002972D01*
X004970Y002948D01*
X004948Y002946D01*
X004765D01*
X004686Y003025D01*
X004674Y003033D01*
X004661Y003036D01*
X004519D01*
X004512Y003058D01*
X004535Y003074D01*
X004566Y003105D01*
X004590Y003141D01*
X004607Y003181D01*
X004615Y003223D01*
Y003267D01*
X004607Y003309D01*
X004590Y003349D01*
X004566Y003385D01*
X004535Y003416D01*
X004499Y003440D01*
X004459Y003457D01*
X004435Y003461D01*
X004437Y003484D01*
X004641D01*
X004668Y003458D01*
X004682Y003448D01*
X004700Y003444D01*
X004855D01*
Y003422D01*
X004985D01*
Y003444D01*
X005142D01*
X005156Y003426D01*
X005175Y003411D01*
X005197Y003402D01*
X005220Y003399D01*
X005240D01*
X005263Y003402D01*
X005285Y003411D01*
X005304Y003426D01*
X005318Y003444D01*
X005432D01*
X005446Y003426D01*
X005465Y003411D01*
X005487Y003402D01*
X005510Y003399D01*
X005530D01*
X005553Y003402D01*
X005575Y003411D01*
X005594Y003426D01*
X005609Y003445D01*
X005618Y003467D01*
X005621Y003490D01*
X005618Y003513D01*
X005609Y003535D01*
X005594Y003554D01*
X005575Y003569D01*
X005553Y003578D01*
X005530Y003581D01*
X005510D01*
X005487Y003578D01*
X005465Y003569D01*
X005446Y003554D01*
X005432Y003536D01*
X005318D01*
X005304Y003554D01*
X005285Y003569D01*
X005263Y003578D01*
X005250Y003579D01*
X005241Y003603D01*
X005241Y003603D01*
X005245Y003607D01*
X005252Y003622D01*
Y003638D01*
X005245Y003652D01*
X005234Y003664D01*
X005226Y003667D01*
X005207Y003686D01*
X005208Y003690D01*
X005218Y003707D01*
X005228D01*
X005243Y003713D01*
X005254Y003724D01*
X005260Y003739D01*
Y003739D01*
X005306Y003785D01*
X005385D01*
Y003895D01*
X005255D01*
Y003835D01*
X005203Y003783D01*
X005201Y003783D01*
X005186Y003790D01*
X005180Y003796D01*
Y003832D01*
X005060D01*
Y003662D01*
X005130D01*
X005173Y003619D01*
X005178Y003607D01*
X005186Y003598D01*
X005187Y003584D01*
X005185Y003573D01*
X005175Y003569D01*
X005156Y003554D01*
X005142Y003536D01*
X004985D01*
Y003558D01*
X004855D01*
Y003536D01*
X004719D01*
X004692Y003562D01*
X004678Y003572D01*
X004660Y003576D01*
X004000D01*
X003982Y003596D01*
X003982Y003601D01*
X004011Y003630D01*
X004019Y003642D01*
X004021Y003656D01*
Y003760D01*
X004044Y003769D01*
X004047Y003766D01*
X004062Y003760D01*
X004067D01*
X004098Y003729D01*
X004108Y003722D01*
X004118Y003720D01*
Y003662D01*
X004238D01*
Y003818D01*
X004238Y003840D01*
X004238Y003854D01*
Y003905D01*
X004178D01*
X004118D01*
Y003854D01*
X004118Y003840D01*
X004110Y003832D01*
X004095Y003831D01*
X004093Y003834D01*
X004078Y003840D01*
X004062D01*
X004047Y003834D01*
X004044Y003831D01*
X004021Y003840D01*
Y004036D01*
X004044Y004049D01*
X004059Y004046D01*
X004169D01*
X004190Y004050D01*
X004209Y004062D01*
X004221Y004080D01*
X004225Y004102D01*
X004221Y004123D01*
X004209Y004141D01*
X004190Y004154D01*
X004190Y004154D01*
Y004177D01*
X004190Y004177D01*
X004209Y004189D01*
X004221Y004207D01*
X004225Y004229D01*
X004221Y004250D01*
X004209Y004268D01*
X004190Y004281D01*
X004190Y004281D01*
Y004304D01*
X004190Y004304D01*
X004209Y004316D01*
X004221Y004334D01*
X004225Y004356D01*
X004221Y004377D01*
X004209Y004395D01*
X004190Y004408D01*
X004190Y004408D01*
Y004431D01*
X004190Y004431D01*
X004209Y004443D01*
X004221Y004461D01*
X004225Y004483D01*
X004221Y004504D01*
X004209Y004522D01*
X004190Y004535D01*
X004190Y004535D01*
Y004558D01*
X004190Y004558D01*
X004209Y004570D01*
X004221Y004588D01*
X004225Y004610D01*
X004221Y004631D01*
X004209Y004649D01*
X004190Y004662D01*
X004190Y004662D01*
Y004685D01*
X004190Y004685D01*
X004204Y004694D01*
X004210Y004695D01*
X004222Y004693D01*
X004231Y004690D01*
X004237Y004682D01*
X004252Y004672D01*
X004270Y004668D01*
X004276Y004669D01*
X004299Y004654D01*
Y004274D01*
X004299Y004272D01*
Y004254D01*
X004317D01*
X004319Y004254D01*
X004388D01*
Y004215D01*
X004438D01*
Y004195D01*
X004458D01*
Y004115D01*
X004467D01*
X004476Y004093D01*
X004476Y004093D01*
X004470Y004078D01*
Y004062D01*
X004476Y004047D01*
X004487Y004036D01*
X004498Y004032D01*
X004675Y003854D01*
X004673Y003832D01*
X004673D01*
Y003662D01*
X004793D01*
Y003711D01*
X004870D01*
Y003662D01*
X004990D01*
Y003832D01*
X004870D01*
Y003782D01*
X004793D01*
Y003832D01*
X004768D01*
Y003847D01*
X004766Y003861D01*
X004758Y003873D01*
X004548Y004082D01*
X004544Y004093D01*
X004540Y004096D01*
X004552Y004117D01*
X004565Y004114D01*
X004585Y004118D01*
X004602Y004130D01*
X004613Y004147D01*
X004617Y004167D01*
X004639D01*
X004643Y004147D01*
X004654Y004130D01*
X004671Y004118D01*
X004692Y004114D01*
X004712Y004118D01*
X004729Y004130D01*
X004740Y004147D01*
X004744Y004167D01*
X004766D01*
X004770Y004147D01*
X004781Y004130D01*
X004783Y004129D01*
Y004071D01*
X004786Y004058D01*
X004793Y004046D01*
X004875Y003965D01*
X004886Y003957D01*
X004900Y003954D01*
X005260D01*
X005274Y003957D01*
X005285Y003965D01*
X005355Y004035D01*
X005363Y004046D01*
X005366Y004060D01*
Y004495D01*
X005422Y004552D01*
X005433Y004556D01*
X005444Y004567D01*
X005450Y004582D01*
Y004598D01*
X005444Y004613D01*
X005433Y004624D01*
X005418Y004630D01*
X005402D01*
X005387Y004624D01*
X005376Y004613D01*
X005372Y004602D01*
X005305Y004535D01*
X005297Y004524D01*
X005294Y004510D01*
Y004075D01*
X005245Y004026D01*
X005211D01*
X005209Y004048D01*
X005217Y004050D01*
X005235Y004062D01*
X005247Y004080D01*
X005251Y004102D01*
X005247Y004123D01*
X005235Y004141D01*
X005217Y004154D01*
X005216Y004154D01*
Y004177D01*
X005217Y004177D01*
X005235Y004189D01*
X005247Y004207D01*
X005251Y004229D01*
X005247Y004250D01*
X005235Y004268D01*
X005217Y004281D01*
X005216Y004281D01*
Y004304D01*
X005217Y004304D01*
X005235Y004316D01*
X005247Y004334D01*
X005251Y004356D01*
X005247Y004377D01*
X005235Y004395D01*
X005217Y004408D01*
X005216Y004408D01*
Y004431D01*
X005217Y004431D01*
X005235Y004443D01*
X005247Y004461D01*
X005251Y004483D01*
X005247Y004504D01*
X005235Y004522D01*
X005217Y004535D01*
X005216Y004535D01*
Y004558D01*
X005217Y004558D01*
X005235Y004570D01*
X005247Y004588D01*
X005251Y004610D01*
X005247Y004631D01*
X005235Y004649D01*
X005217Y004662D01*
X005216Y004662D01*
Y004685D01*
X005217Y004685D01*
X005235Y004697D01*
X005247Y004715D01*
X005249Y004717D01*
X005262Y004732D01*
X005285Y004732D01*
X005292Y004709D01*
X005286Y004703D01*
X005280Y004688D01*
Y004672D01*
X005286Y004657D01*
X005297Y004646D01*
X005312Y004640D01*
X005328D01*
X005343Y004646D01*
X005354Y004657D01*
X005360Y004672D01*
Y004688D01*
X005354Y004703D01*
X005348Y004709D01*
X005355Y004732D01*
X005381D01*
Y004887D01*
X005381Y004902D01*
X005381D01*
X005380Y004910D01*
X005380D01*
Y005080D01*
X005311D01*
X005296Y005095D01*
X005284Y005103D01*
X005270Y005106D01*
X005180D01*
Y005258D01*
X005180D01*
X005180Y005267D01*
X005180D01*
X005180Y005281D01*
Y005437D01*
X005180D01*
Y005445D01*
X005180D01*
Y005615D01*
X005168D01*
X005158Y005638D01*
X005160Y005642D01*
Y005658D01*
X005154Y005673D01*
X005143Y005684D01*
X005128Y005690D01*
X005112D01*
X005097Y005684D01*
X005086Y005673D01*
X005080Y005658D01*
Y005642D01*
X005082Y005638D01*
X005071Y005615D01*
X005060D01*
Y005445D01*
X005060D01*
Y005437D01*
X005060D01*
Y005267D01*
X005060D01*
X005060Y005258D01*
X005060D01*
X005060Y005244D01*
Y005106D01*
X004990D01*
Y005244D01*
X004990Y005267D01*
X004990Y005281D01*
Y005332D01*
X004870D01*
Y005281D01*
X004870Y005258D01*
X004870Y005244D01*
Y005209D01*
X004793D01*
Y005264D01*
X004793D01*
Y005274D01*
X004793D01*
Y005444D01*
X004683D01*
X004683Y005494D01*
X004681Y005503D01*
X004679Y005511D01*
X004679Y005511D01*
X004679Y005511D01*
X004674Y005519D01*
X004669Y005526D01*
X004669Y005526D01*
X004669Y005526D01*
X004662Y005531D01*
X004654Y005536D01*
X004654Y005536D01*
X004654Y005536D01*
X004646Y005538D01*
X004637Y005540D01*
X004436D01*
X004419Y005536D01*
X004404Y005526D01*
X004394Y005511D01*
X004390Y005494D01*
X004390Y005494D01*
X004390Y005494D01*
Y005348D01*
X004270D01*
X004252Y005344D01*
X004246Y005340D01*
X004223Y005352D01*
Y005783D01*
X004220Y005800D01*
X004210Y005815D01*
X003841Y006184D01*
X003841Y006184D01*
X003742Y006282D01*
X003728Y006292D01*
X003710Y006296D01*
X002910D01*
X002892Y006292D01*
X002878Y006282D01*
X002792Y006197D01*
X002745D01*
X002743Y006202D01*
X002727Y006223D01*
X002706Y006239D01*
X002682Y006249D01*
X002655Y006252D01*
X002615D01*
X002589Y006249D01*
X002565Y006239D01*
X002544Y006223D01*
X002528Y006202D01*
X002526Y006197D01*
X002445D01*
X002443Y006202D01*
X002427Y006223D01*
X002406Y006239D01*
X002382Y006249D01*
X002355Y006252D01*
X002315D01*
X002289Y006249D01*
X002265Y006239D01*
X002244Y006223D01*
X002228Y006202D01*
X002218Y006177D01*
X002215Y006151D01*
X002218Y006125D01*
X002228Y006101D01*
X002244Y006080D01*
X002265Y006064D01*
X002289Y006054D01*
X002298Y006053D01*
Y006030D01*
X002289Y006029D01*
X002265Y006019D01*
X002244Y006003D01*
X002228Y005982D01*
X002218Y005957D01*
X002215Y005931D01*
X002218Y005905D01*
X002228Y005881D01*
X002244Y005860D01*
X002265Y005844D01*
X002289Y005834D01*
X002298Y005833D01*
Y005810D01*
X002289Y005809D01*
X002265Y005799D01*
X002244Y005783D01*
X002239Y005776D01*
X001233D01*
X001216Y005772D01*
X001201Y005762D01*
X000805Y005367D01*
X000795Y005352D01*
X000792Y005334D01*
Y005268D01*
X000777D01*
Y005098D01*
X000884D01*
Y005046D01*
X000884Y005045D01*
X000861Y005035D01*
X000850Y005043D01*
X000829Y005047D01*
X000719D01*
X000697Y005043D01*
X000679Y005030D01*
X000667Y005012D01*
X000663Y004991D01*
X000667Y004969D01*
X000679Y004951D01*
X000697Y004939D01*
X000698Y004939D01*
Y004916D01*
X000697Y004916D01*
X000679Y004903D01*
X000667Y004885D01*
X000663Y004864D01*
X000667Y004842D01*
X000679Y004824D01*
X000697Y004812D01*
X000698Y004812D01*
Y004789D01*
X000697Y004789D01*
X000679Y004776D01*
X000667Y004758D01*
X000663Y004737D01*
X000667Y004715D01*
X000679Y004697D01*
X000697Y004685D01*
X000698Y004685D01*
Y004662D01*
X000697Y004662D01*
X000679Y004649D01*
X000667Y004631D01*
X000663Y004610D01*
X000667Y004588D01*
X000679Y004570D01*
X000697Y004558D01*
X000698Y004558D01*
Y004535D01*
X000697Y004535D01*
X000679Y004522D01*
X000667Y004504D01*
X000663Y004483D01*
X000667Y004461D01*
X000679Y004443D01*
X000697Y004431D01*
X000698Y004431D01*
Y004408D01*
X000697Y004408D01*
X000679Y004395D01*
X000667Y004377D01*
X000663Y004356D01*
X000667Y004334D01*
X000679Y004316D01*
X000697Y004304D01*
X000698Y004304D01*
Y004281D01*
X000697Y004281D01*
X000679Y004268D01*
X000667Y004250D01*
X000663Y004229D01*
X000667Y004207D01*
X000679Y004189D01*
X000697Y004177D01*
X000698Y004177D01*
Y004154D01*
X000697Y004154D01*
X000679Y004141D01*
X000667Y004123D01*
X000663Y004102D01*
X000667Y004080D01*
X000679Y004062D01*
X000697Y004050D01*
X000719Y004046D01*
X000829D01*
X000850Y004050D01*
X000869Y004062D01*
X000881Y004080D01*
X000885Y004102D01*
X000881Y004123D01*
X000869Y004141D01*
X000850Y004154D01*
X000850Y004154D01*
Y004177D01*
X000850Y004177D01*
X000869Y004189D01*
X000881Y004207D01*
X000885Y004229D01*
X000881Y004250D01*
X000869Y004268D01*
X000850Y004281D01*
X000850Y004281D01*
Y004304D01*
X000850Y004304D01*
X000869Y004316D01*
X000881Y004334D01*
X000885Y004356D01*
X000881Y004377D01*
X000869Y004395D01*
X000850Y004408D01*
X000850Y004408D01*
Y004431D01*
X000850Y004431D01*
X000869Y004443D01*
X000881Y004461D01*
X000885Y004483D01*
X000881Y004504D01*
X000869Y004522D01*
X000850Y004535D01*
X000850Y004535D01*
Y004558D01*
X000850Y004558D01*
X000869Y004570D01*
X000881Y004588D01*
X000885Y004610D01*
X000881Y004631D01*
X000869Y004649D01*
X000850Y004662D01*
X000850Y004662D01*
Y004685D01*
X000850Y004685D01*
X000864Y004694D01*
X000870Y004695D01*
X000882Y004693D01*
X000891Y004690D01*
X000897Y004682D01*
X000912Y004672D01*
X000930Y004668D01*
X000936Y004669D01*
X000959Y004654D01*
Y004274D01*
X000959Y004272D01*
Y004254D01*
X000977D01*
X000979Y004254D01*
X001048D01*
Y004215D01*
X001098D01*
Y004195D01*
X001118D01*
Y004115D01*
X001127D01*
X001136Y004093D01*
X001136Y004093D01*
X001130Y004078D01*
Y004062D01*
X001136Y004047D01*
X001147Y004036D01*
X001158Y004032D01*
X001335Y003854D01*
X001333Y003832D01*
X001333D01*
Y003662D01*
X001453D01*
Y003711D01*
X001530D01*
Y003662D01*
X001650D01*
Y003832D01*
X001530D01*
Y003782D01*
X001453D01*
Y003832D01*
X001428D01*
Y003847D01*
X001426Y003861D01*
X001418Y003873D01*
X001208Y004082D01*
X001204Y004093D01*
X001200Y004096D01*
X001212Y004117D01*
X001225Y004114D01*
X001245Y004118D01*
X001262Y004130D01*
X001273Y004147D01*
X001277Y004167D01*
X001299D01*
X001303Y004147D01*
X001314Y004130D01*
X001331Y004118D01*
X001352Y004114D01*
X001372Y004118D01*
X001389Y004130D01*
X001400Y004147D01*
X001404Y004167D01*
X001426D01*
X001430Y004147D01*
X001441Y004130D01*
X001443Y004129D01*
Y004071D01*
X001446Y004058D01*
X001453Y004046D01*
X001535Y003965D01*
X001546Y003957D01*
X001560Y003954D01*
X001920D01*
X001934Y003957D01*
X001945Y003965D01*
X002015Y004035D01*
X002023Y004046D01*
X002026Y004060D01*
Y004495D01*
X002082Y004552D01*
X002093Y004556D01*
X002104Y004567D01*
X002110Y004582D01*
Y004598D01*
X002104Y004613D01*
X002093Y004624D01*
X002078Y004630D01*
X002062D01*
X002047Y004624D01*
X002036Y004613D01*
X002032Y004602D01*
X001965Y004535D01*
X001957Y004524D01*
X001954Y004510D01*
Y004075D01*
X001905Y004026D01*
X001871D01*
X001869Y004048D01*
X001877Y004050D01*
X001895Y004062D01*
X001907Y004080D01*
X001911Y004102D01*
X001907Y004123D01*
X001895Y004141D01*
X001877Y004154D01*
X001876Y004154D01*
Y004177D01*
X001877Y004177D01*
X001895Y004189D01*
X001907Y004207D01*
X001911Y004229D01*
X001907Y004250D01*
X001895Y004268D01*
X001877Y004281D01*
X001876Y004281D01*
Y004304D01*
X001877Y004304D01*
X001895Y004316D01*
X001907Y004334D01*
X001911Y004356D01*
X001907Y004377D01*
X001895Y004395D01*
X001877Y004408D01*
X001876Y004408D01*
Y004431D01*
X001877Y004431D01*
X001895Y004443D01*
X001907Y004461D01*
X001911Y004483D01*
X001907Y004504D01*
X001895Y004522D01*
X001877Y004535D01*
X001876Y004535D01*
Y004558D01*
X001877Y004558D01*
X001895Y004570D01*
X001907Y004588D01*
X001911Y004610D01*
X001907Y004631D01*
X001895Y004649D01*
X001877Y004662D01*
X001876Y004662D01*
Y004685D01*
X001877Y004685D01*
X001895Y004697D01*
X001907Y004715D01*
X001909Y004717D01*
X001922Y004732D01*
X001945Y004732D01*
X001952Y004709D01*
X001946Y004703D01*
X001940Y004688D01*
Y004672D01*
X001946Y004657D01*
X001957Y004646D01*
X001972Y004640D01*
X001988D01*
X002003Y004646D01*
X002014Y004657D01*
X002020Y004672D01*
Y004688D01*
X002014Y004703D01*
X002008Y004709D01*
X002015Y004732D01*
X002041D01*
Y004887D01*
X002041Y004902D01*
X002041D01*
X002040Y004910D01*
X002040D01*
Y005080D01*
X001971D01*
X001958Y005093D01*
X001946Y005101D01*
X001933Y005103D01*
X001840D01*
Y005258D01*
X001840D01*
X001840Y005267D01*
X001840D01*
X001840Y005281D01*
Y005437D01*
X001840D01*
Y005445D01*
X001840D01*
Y005615D01*
X001828D01*
X001818Y005638D01*
X001820Y005642D01*
Y005658D01*
X001819Y005661D01*
X001832Y005684D01*
X002023D01*
X002024Y005683D01*
X002036Y005661D01*
X002035Y005660D01*
X001955Y005580D01*
X001948Y005569D01*
X001945Y005555D01*
Y005390D01*
X001916D01*
Y005280D01*
X002046D01*
Y005390D01*
X002016D01*
Y005540D01*
X002086Y005610D01*
X002092Y005612D01*
X002173D01*
X002305Y005480D01*
Y005212D01*
X002283Y005202D01*
X002281Y005204D01*
X002266Y005210D01*
X002256D01*
X002249Y005212D01*
X002236Y005228D01*
Y005325D01*
X002217D01*
X002213Y005346D01*
X002214Y005348D01*
X002225Y005356D01*
X002233Y005368D01*
X002236Y005380D01*
X002171D01*
X002105D01*
X002108Y005368D01*
X002116Y005356D01*
X002128Y005348D01*
X002128Y005346D01*
X002124Y005325D01*
X002106D01*
Y005215D01*
X002136D01*
Y005208D01*
X002139Y005194D01*
X002147Y005183D01*
X002185Y005145D01*
X002196Y005137D01*
X002210Y005134D01*
X002240D01*
X002250Y005130D01*
X002265D01*
X002274Y005123D01*
X002282Y005112D01*
X002280Y005102D01*
Y005039D01*
X002266Y005030D01*
X002250D01*
X002230Y005046D01*
Y005080D01*
X002110D01*
Y004924D01*
X002110Y004910D01*
X002111Y004887D01*
Y004837D01*
X002171D01*
X002231D01*
Y004887D01*
X002231Y004902D01*
X002230Y004924D01*
Y004934D01*
X002250Y004950D01*
X002266D01*
X002280Y004941D01*
Y004329D01*
X002266Y004320D01*
X002250D01*
X002236Y004314D01*
X002225Y004303D01*
X002218Y004288D01*
Y004272D01*
X002225Y004257D01*
X002236Y004246D01*
X002250Y004240D01*
X002266D01*
X002280Y004231D01*
Y003974D01*
X002283Y003961D01*
X002291Y003949D01*
X002304Y003935D01*
Y003789D01*
X002282Y003779D01*
X002281Y003780D01*
X002266Y003786D01*
X002266D01*
X002260Y003793D01*
X002248Y003800D01*
X002235Y003803D01*
Y003830D01*
X002217D01*
X002213Y003851D01*
X002213Y003853D01*
X002225Y003860D01*
X002233Y003873D01*
X002235Y003885D01*
X002170D01*
X002105D01*
X002107Y003873D01*
X002116Y003860D01*
X002127Y003853D01*
X002128Y003851D01*
X002124Y003830D01*
X002105D01*
Y003720D01*
X002228D01*
X002236Y003712D01*
X002250Y003706D01*
X002266D01*
X002281Y003712D01*
X002295Y003695D01*
X001995Y003396D01*
X001075D01*
X000839Y003632D01*
X000847Y003656D01*
X000859Y003657D01*
X000907Y003610D01*
X000907Y003610D01*
X000907Y003610D01*
X000928Y003588D01*
X000928Y003588D01*
X000938Y003581D01*
X000950Y003579D01*
X000950Y003579D01*
X000984D01*
X000987Y003576D01*
X001002Y003570D01*
X001018D01*
X001033Y003576D01*
X001044Y003587D01*
X001050Y003602D01*
Y003618D01*
X001044Y003633D01*
X001037Y003639D01*
X001044Y003661D01*
X001044Y003662D01*
X001088D01*
Y003832D01*
X001088D01*
X001088Y003840D01*
X001088D01*
X001088Y003854D01*
Y004010D01*
X001064D01*
Y004051D01*
X001068Y004062D01*
Y004078D01*
X001062Y004093D01*
X001062Y004093D01*
X001072Y004115D01*
X001078D01*
Y004175D01*
X001048D01*
Y004130D01*
X001038Y004113D01*
X001027Y004110D01*
X001020D01*
X001006Y004104D01*
X000994Y004093D01*
X000988Y004078D01*
Y004062D01*
X000992Y004052D01*
Y004010D01*
X000968D01*
Y003840D01*
X000968D01*
X000968Y003832D01*
X000968D01*
X000968Y003818D01*
Y003667D01*
X000959Y003660D01*
X000948Y003655D01*
X000898Y003705D01*
Y003818D01*
X000898Y003840D01*
X000898Y003854D01*
Y003905D01*
X000838D01*
Y003925D01*
X000818D01*
Y004010D01*
X000778D01*
Y003934D01*
X000756Y003925D01*
X000708Y003972D01*
X000697Y003980D01*
X000683Y003982D01*
X000628D01*
X000617Y004001D01*
X000601Y004018D01*
X000581Y004029D01*
X000558Y004035D01*
X000535D01*
X000512Y004029D01*
X000492Y004018D01*
X000476Y004001D01*
X000464Y003981D01*
X000458Y003958D01*
Y003935D01*
X000462Y003920D01*
X000453Y003901D01*
X000448Y003895D01*
X000443Y003894D01*
X000427Y003909D01*
X000429Y003913D01*
X000435Y003935D01*
Y003958D01*
X000429Y003981D01*
X000417Y004001D01*
X000401Y004018D01*
X000381Y004029D01*
X000358Y004035D01*
X000335D01*
X000312Y004029D01*
X000292Y004018D01*
X000276Y004001D01*
X000275Y004001D01*
X000253Y004007D01*
Y004086D01*
X000275Y004092D01*
X000276Y004092D01*
X000292Y004076D01*
X000312Y004064D01*
X000335Y004058D01*
X000358D01*
X000381Y004064D01*
X000401Y004076D01*
X000417Y004092D01*
X000429Y004113D01*
X000435Y004135D01*
Y004158D01*
X000429Y004181D01*
X000417Y004201D01*
X000401Y004218D01*
X000381Y004229D01*
X000358Y004235D01*
X000335D01*
X000312Y004229D01*
X000302Y004223D01*
X000288Y004242D01*
X000311Y004265D01*
X000312Y004264D01*
X000335Y004258D01*
X000358D01*
X000381Y004264D01*
X000401Y004276D01*
X000417Y004292D01*
X000429Y004313D01*
X000435Y004335D01*
Y004358D01*
X000429Y004381D01*
X000417Y004401D01*
X000401Y004418D01*
X000381Y004429D01*
X000358Y004435D01*
X000335D01*
X000312Y004429D01*
X000292Y004418D01*
X000276Y004401D01*
X000264Y004381D01*
X000258Y004358D01*
Y004335D01*
X000264Y004313D01*
X000265Y004312D01*
X000197Y004244D01*
X000189Y004233D01*
X000187Y004220D01*
Y003534D01*
X000189Y003521D01*
X000197Y003511D01*
X000207Y003503D01*
X000207Y003503D01*
X000277Y003434D01*
X000280Y003409D01*
X000278Y003404D01*
X000278Y003403D01*
X000276Y003401D01*
X000264Y003381D01*
X000258Y003358D01*
Y003335D01*
X000264Y003313D01*
X000276Y003292D01*
X000292Y003276D01*
X000312Y003264D01*
X000335Y003258D01*
X000358D01*
X000381Y003264D01*
X000384Y003266D01*
X000416Y003234D01*
X000401Y003218D01*
X000381Y003229D01*
X000358Y003235D01*
X000335D01*
X000312Y003229D01*
X000292Y003218D01*
X000276Y003201D01*
X000264Y003181D01*
X000258Y003158D01*
Y003135D01*
X000264Y003113D01*
X000276Y003092D01*
X000292Y003076D01*
X000312Y003064D01*
X000335Y003058D01*
X000358D01*
X000381Y003064D01*
X000395Y003072D01*
X000441Y003025D01*
X000441Y003025D01*
X000451Y003019D01*
X000460Y003017D01*
X000464Y003013D01*
X000465Y003011D01*
X000471Y002994D01*
X000464Y002981D01*
X000458Y002958D01*
Y002935D01*
X000462Y002920D01*
X000453Y002901D01*
X000448Y002895D01*
X000443Y002894D01*
X000427Y002909D01*
X000429Y002913D01*
X000435Y002935D01*
Y002958D01*
X000429Y002981D01*
X000417Y003001D01*
X000401Y003018D01*
X000381Y003029D01*
X000358Y003035D01*
X000335D01*
X000312Y003029D01*
X000292Y003018D01*
X000276Y003001D01*
X000264Y002981D01*
X000258Y002958D01*
Y002935D01*
X000264Y002913D01*
X000276Y002892D01*
X000292Y002876D01*
X000312Y002864D01*
X000335Y002858D01*
X000358D01*
X000381Y002864D01*
X000384Y002866D01*
X000410Y002840D01*
X000416Y002834D01*
X000401Y002818D01*
X000394Y002821D01*
X000381Y002829D01*
X000358Y002835D01*
X000335D01*
X000312Y002829D01*
X000292Y002818D01*
X000276Y002801D01*
X000264Y002781D01*
X000258Y002758D01*
Y002735D01*
X000264Y002713D01*
X000276Y002692D01*
X000292Y002676D01*
X000312Y002664D01*
X000335Y002658D01*
X000358D01*
X000381Y002664D01*
X000401Y002676D01*
X000417Y002692D01*
X000429Y002713D01*
X000435Y002735D01*
Y002758D01*
X000429Y002781D01*
X000417Y002801D01*
X000412Y002807D01*
X000426Y002825D01*
X000434Y002819D01*
X000446Y002817D01*
X000462D01*
X000472Y002794D01*
X000464Y002781D01*
X000458Y002758D01*
Y002735D01*
X000464Y002713D01*
X000476Y002692D01*
X000492Y002676D01*
X000512Y002664D01*
X000535Y002658D01*
X000558D01*
X000581Y002664D01*
X000601Y002676D01*
X000617Y002692D01*
X000629Y002713D01*
X000635Y002735D01*
Y002758D01*
X000629Y002781D01*
X000625Y002789D01*
X000638Y002812D01*
X000707D01*
X000809Y002710D01*
X000821Y002702D01*
X000834Y002699D01*
X001380D01*
X001395Y002677D01*
X001394Y002675D01*
Y002653D01*
X001402Y002633D01*
X001418Y002617D01*
X001438Y002609D01*
X001460D01*
X001480Y002617D01*
X001496Y002633D01*
X001504Y002653D01*
Y002675D01*
X001503Y002677D01*
X001519Y002699D01*
X001839D01*
X001853Y002677D01*
X001850Y002670D01*
Y002650D01*
X001858Y002632D01*
X001872Y002618D01*
X001890Y002610D01*
X001910D01*
X001928Y002618D01*
X001942Y002632D01*
X001950Y002650D01*
Y002670D01*
X001947Y002677D01*
X001961Y002699D01*
X002983D01*
X002990Y002701D01*
X002992Y002700D01*
X003008D01*
X003023Y002706D01*
X003034Y002717D01*
X003040Y002732D01*
Y002748D01*
X003034Y002763D01*
X003023Y002774D01*
X003008Y002780D01*
X003006D01*
X003000Y002782D01*
Y002798D01*
X002994Y002813D01*
X002983Y002824D01*
X002980Y002827D01*
X002981Y002836D01*
X003005Y002844D01*
X003131Y002718D01*
Y000873D01*
X003134Y000860D01*
X003141Y000848D01*
X003193Y000797D01*
X003204Y000789D01*
X003218Y000786D01*
X003388D01*
X003398Y000782D01*
X003414D01*
X003429Y000788D01*
X003440Y000799D01*
X003445Y000810D01*
X003525Y000890D01*
X003532Y000901D01*
X003535Y000915D01*
Y001080D01*
X003564D01*
Y001190D01*
X003434D01*
Y001080D01*
X003464D01*
Y000930D01*
X003394Y000860D01*
X003388Y000858D01*
X003233D01*
X003202Y000888D01*
Y001252D01*
X003214Y001260D01*
X003224D01*
X003231Y001258D01*
X003244Y001242D01*
Y001145D01*
X003263D01*
X003267Y001124D01*
X003266Y001122D01*
X003255Y001114D01*
X003247Y001102D01*
X003244Y001090D01*
X003309D01*
X003375D01*
X003372Y001102D01*
X003364Y001114D01*
X003352Y001122D01*
X003352Y001124D01*
X003356Y001145D01*
X003374D01*
Y001255D01*
X003344D01*
Y001262D01*
X003341Y001276D01*
X003333Y001287D01*
X003295Y001325D01*
X003284Y001333D01*
X003270Y001336D01*
X003240D01*
X003230Y001340D01*
X003214D01*
X003202Y001348D01*
Y001448D01*
X003223Y001456D01*
X003225Y001455D01*
X003236Y001447D01*
X003250Y001444D01*
Y001390D01*
X003370D01*
Y001546D01*
X003370Y001560D01*
X003370D01*
X003369Y001568D01*
X003369D01*
Y001633D01*
X003239D01*
X003230Y001626D01*
X003214D01*
X003202Y001633D01*
Y002142D01*
X003214Y002150D01*
X003230D01*
X003244Y002156D01*
X003255Y002167D01*
X003262Y002182D01*
Y002198D01*
X003255Y002213D01*
X003244Y002224D01*
X003230Y002230D01*
X003214D01*
X003202Y002238D01*
Y002663D01*
X003210Y002669D01*
X003225Y002674D01*
X003232Y002670D01*
X003245Y002667D01*
Y002640D01*
X003263D01*
X003267Y002619D01*
X003267Y002617D01*
X003255Y002610D01*
X003247Y002597D01*
X003245Y002585D01*
X003310D01*
X003375D01*
X003373Y002597D01*
X003364Y002610D01*
X003353Y002617D01*
X003352Y002619D01*
X003356Y002640D01*
X003375D01*
Y002750D01*
X003252D01*
X003244Y002758D01*
X003230Y002764D01*
X003214D01*
X003199Y002758D01*
X003198Y002757D01*
X003192Y002758D01*
X003056Y002893D01*
X003065Y002914D01*
X004625D01*
X004713Y002826D01*
X004699Y002808D01*
X004582D01*
Y002652D01*
X004582Y002630D01*
X004582Y002616D01*
Y002565D01*
X004702D01*
Y002616D01*
X004702Y002638D01*
X004702Y002652D01*
Y002691D01*
X004725D01*
X004729Y002687D01*
X004743Y002681D01*
X004759D01*
X004774Y002687D01*
X004778Y002692D01*
X004801Y002682D01*
Y002523D01*
X004801Y002523D01*
Y002441D01*
X004794Y002435D01*
X004778Y002427D01*
X004761Y002430D01*
X004651D01*
X004630Y002426D01*
X004611Y002414D01*
X004599Y002396D01*
X004595Y002374D01*
X004599Y002353D01*
X004611Y002335D01*
X004630Y002322D01*
X004630Y002322D01*
Y002299D01*
X004630Y002299D01*
X004611Y002287D01*
X004599Y002269D01*
X004595Y002247D01*
X004599Y002226D01*
X004611Y002208D01*
X004630Y002195D01*
X004630Y002195D01*
Y002172D01*
X004630Y002172D01*
X004611Y002160D01*
X004599Y002142D01*
X004595Y002120D01*
X004599Y002099D01*
X004611Y002081D01*
X004630Y002068D01*
X004630Y002068D01*
Y002045D01*
X004630Y002045D01*
X004611Y002033D01*
X004599Y002015D01*
X004595Y001993D01*
X004599Y001972D01*
X004611Y001954D01*
X004630Y001941D01*
X004630Y001941D01*
Y001918D01*
X004630Y001918D01*
X004611Y001906D01*
X004599Y001888D01*
X004595Y001866D01*
X004599Y001845D01*
X004611Y001827D01*
X004630Y001814D01*
X004630Y001814D01*
Y001791D01*
X004630Y001791D01*
X004616Y001782D01*
X004610Y001781D01*
X004598Y001783D01*
X004589Y001786D01*
X004583Y001794D01*
X004568Y001804D01*
X004550Y001808D01*
X004544Y001807D01*
X004521Y001822D01*
Y002202D01*
X004521Y002204D01*
Y002222D01*
X004503D01*
X004501Y002222D01*
X004432D01*
Y002261D01*
X004382D01*
Y002281D01*
X004362D01*
Y002361D01*
X004359D01*
X004354Y002366D01*
X004346Y002383D01*
X004350Y002392D01*
Y002408D01*
X004344Y002423D01*
X004333Y002434D01*
X004322Y002438D01*
X004145Y002616D01*
X004147Y002638D01*
X004147D01*
Y002808D01*
X004027D01*
Y002759D01*
X003950D01*
Y002808D01*
X003830D01*
Y002638D01*
X003950D01*
Y002688D01*
X004027D01*
Y002638D01*
X004052D01*
Y002623D01*
X004054Y002609D01*
X004062Y002597D01*
X004272Y002388D01*
X004275Y002381D01*
X004269Y002369D01*
X004261Y002360D01*
X004255Y002362D01*
X004235Y002358D01*
X004218Y002346D01*
X004207Y002329D01*
X004203Y002309D01*
X004181D01*
X004177Y002329D01*
X004166Y002346D01*
X004149Y002358D01*
X004128Y002362D01*
X004108Y002358D01*
X004091Y002346D01*
X004080Y002329D01*
X004076Y002309D01*
X004054D01*
X004050Y002329D01*
X004039Y002346D01*
X004037Y002347D01*
Y002399D01*
X004034Y002412D01*
X004027Y002424D01*
X003945Y002505D01*
X003934Y002513D01*
X003920Y002516D01*
X003560D01*
X003546Y002513D01*
X003535Y002505D01*
X003465Y002435D01*
X003457Y002424D01*
X003454Y002410D01*
Y001975D01*
X003398Y001918D01*
X003387Y001914D01*
X003376Y001903D01*
X003370Y001888D01*
Y001872D01*
X003376Y001857D01*
X003387Y001846D01*
X003402Y001840D01*
X003418D01*
X003433Y001846D01*
X003444Y001857D01*
X003448Y001868D01*
X003515Y001935D01*
X003523Y001946D01*
X003526Y001960D01*
Y002395D01*
X003568Y002438D01*
X003577Y002436D01*
X003582Y002422D01*
X003584Y002412D01*
X003573Y002396D01*
X003569Y002374D01*
X003573Y002353D01*
X003585Y002335D01*
X003603Y002322D01*
X003604Y002322D01*
Y002299D01*
X003603Y002299D01*
X003585Y002287D01*
X003573Y002269D01*
X003569Y002247D01*
X003573Y002226D01*
X003585Y002208D01*
X003603Y002195D01*
X003604Y002195D01*
Y002172D01*
X003603Y002172D01*
X003585Y002160D01*
X003573Y002142D01*
X003569Y002120D01*
X003573Y002099D01*
X003585Y002081D01*
X003603Y002068D01*
X003604Y002068D01*
Y002045D01*
X003603Y002045D01*
X003585Y002033D01*
X003573Y002015D01*
X003569Y001993D01*
X003573Y001972D01*
X003585Y001954D01*
X003603Y001941D01*
X003604Y001941D01*
Y001918D01*
X003603Y001918D01*
X003585Y001906D01*
X003573Y001888D01*
X003569Y001866D01*
X003573Y001845D01*
X003585Y001827D01*
X003603Y001814D01*
X003604Y001814D01*
Y001791D01*
X003603Y001791D01*
X003585Y001779D01*
X003573Y001761D01*
X003572Y001756D01*
X003559Y001739D01*
X003547Y001738D01*
X003535D01*
X003528Y001761D01*
X003534Y001767D01*
X003540Y001782D01*
Y001798D01*
X003534Y001813D01*
X003523Y001824D01*
X003508Y001830D01*
X003492D01*
X003477Y001824D01*
X003466Y001813D01*
X003460Y001798D01*
Y001782D01*
X003466Y001767D01*
X003472Y001761D01*
X003465Y001738D01*
X003439D01*
Y001583D01*
X003439Y001568D01*
X003439D01*
X003440Y001560D01*
X003440D01*
Y001390D01*
X003521D01*
X003525Y001389D01*
X003537D01*
X003541Y001386D01*
X003553Y001378D01*
X003566Y001375D01*
X003640D01*
Y001212D01*
X003640D01*
X003640Y001203D01*
X003640D01*
X003640Y001189D01*
Y001033D01*
X003640D01*
Y001025D01*
X003640D01*
Y000855D01*
X003652D01*
X003662Y000832D01*
X003660Y000828D01*
Y000812D01*
X003666Y000797D01*
X003677Y000786D01*
X003692Y000780D01*
X003708D01*
X003723Y000786D01*
X003734Y000797D01*
X003740Y000812D01*
Y000828D01*
X003738Y000832D01*
X003749Y000855D01*
X003760D01*
Y001025D01*
X003760D01*
Y001033D01*
X003760D01*
Y001203D01*
X003760D01*
X003760Y001212D01*
X003760D01*
X003760Y001226D01*
Y001375D01*
X003830D01*
Y001226D01*
X003830Y001203D01*
X003830Y001189D01*
Y001138D01*
X003890D01*
X003950D01*
Y001189D01*
X003950Y001212D01*
X003950Y001226D01*
Y001261D01*
X004027D01*
Y001212D01*
X004027D01*
Y001202D01*
X004027D01*
Y001032D01*
X004137D01*
X004137Y000982D01*
X004139Y000973D01*
X004141Y000965D01*
X004141Y000965D01*
X004141Y000965D01*
X004146Y000957D01*
X004151Y000950D01*
X004151Y000950D01*
X004151Y000950D01*
X004158Y000945D01*
X004166Y000940D01*
X004166Y000940D01*
X004166Y000940D01*
X004174Y000938D01*
X004183Y000936D01*
X004384D01*
X004401Y000940D01*
X004416Y000950D01*
X004426Y000965D01*
X004430Y000982D01*
X004430Y000982D01*
X004430Y000982D01*
Y001128D01*
X004550D01*
X004568Y001132D01*
X004574Y001136D01*
X004597Y001124D01*
Y000607D01*
X004600Y000590D01*
X004610Y000575D01*
X004968Y000218D01*
X004982Y000208D01*
X005000Y000204D01*
X005890D01*
X005908Y000208D01*
X005922Y000218D01*
X005994Y000289D01*
X006052D01*
X006067Y000269D01*
X006088Y000253D01*
X006112Y000243D01*
X006138Y000239D01*
X006178D01*
X006204Y000243D01*
X006229Y000253D01*
X006250Y000269D01*
X006266Y000290D01*
X006267Y000294D01*
X006349D01*
X006351Y000290D01*
X006367Y000269D01*
X006388Y000253D01*
X006412Y000243D01*
X006438Y000239D01*
X006478D01*
X006504Y000243D01*
X006529Y000253D01*
X006550Y000269D01*
X006566Y000290D01*
X006576Y000314D01*
X006579Y000340D01*
X006576Y000366D01*
X006566Y000390D01*
X006550Y000411D01*
X006529Y000427D01*
X006504Y000437D01*
X006496Y000439D01*
Y000461D01*
X006504Y000463D01*
X006529Y000473D01*
X006550Y000489D01*
X006566Y000510D01*
X006576Y000534D01*
X006579Y000560D01*
X006576Y000586D01*
X006566Y000610D01*
X006550Y000631D01*
X006529Y000647D01*
X006504Y000657D01*
X006496Y000659D01*
Y000681D01*
X006504Y000683D01*
X006529Y000693D01*
X006550Y000709D01*
X006566Y000730D01*
X006567Y000734D01*
X006611D01*
X006628Y000718D01*
X006642Y000708D01*
X006660Y000704D01*
X007600D01*
X007618Y000708D01*
X007632Y000718D01*
X008015Y001100D01*
X008025Y001115D01*
X008028Y001133D01*
Y001208D01*
X008043D01*
Y001378D01*
X007936D01*
Y001430D01*
X007936Y001431D01*
X007959Y001441D01*
X007970Y001433D01*
X007991Y001429D01*
X008101D01*
X008123Y001433D01*
X008141Y001446D01*
X008153Y001464D01*
X008157Y001485D01*
X008153Y001507D01*
X008141Y001525D01*
X008123Y001537D01*
X008122Y001537D01*
Y001560D01*
X008123Y001560D01*
X008141Y001573D01*
X008153Y001591D01*
X008157Y001612D01*
X008153Y001634D01*
X008141Y001652D01*
X008123Y001664D01*
X008122Y001664D01*
Y001687D01*
X008123Y001687D01*
X008141Y001700D01*
X008153Y001718D01*
X008157Y001739D01*
X008153Y001761D01*
X008141Y001779D01*
X008123Y001791D01*
X008122Y001791D01*
Y001814D01*
X008123Y001814D01*
X008141Y001827D01*
X008153Y001845D01*
X008157Y001866D01*
X008153Y001888D01*
X008141Y001906D01*
X008123Y001918D01*
X008122Y001918D01*
Y001941D01*
X008123Y001941D01*
X008141Y001954D01*
X008153Y001972D01*
X008157Y001993D01*
X008153Y002015D01*
X008141Y002033D01*
X008123Y002045D01*
X008122Y002045D01*
Y002068D01*
X008123Y002068D01*
X008141Y002081D01*
X008153Y002099D01*
X008157Y002120D01*
X008153Y002142D01*
X008141Y002160D01*
X008123Y002172D01*
X008122Y002172D01*
Y002195D01*
X008123Y002195D01*
X008141Y002208D01*
X008153Y002226D01*
X008157Y002247D01*
X008153Y002269D01*
X008141Y002287D01*
X008123Y002299D01*
X008122Y002299D01*
Y002322D01*
X008123Y002322D01*
X008141Y002335D01*
X008153Y002353D01*
X008157Y002374D01*
X008153Y002396D01*
X008141Y002414D01*
X008123Y002426D01*
X008101Y002430D01*
X007991D01*
X007970Y002426D01*
X007951Y002414D01*
X007939Y002396D01*
X007935Y002374D01*
X007939Y002353D01*
X007951Y002335D01*
X007970Y002322D01*
X007970Y002322D01*
Y002299D01*
X007970Y002299D01*
X007951Y002287D01*
X007939Y002269D01*
X007935Y002247D01*
X007939Y002226D01*
X007951Y002208D01*
X007970Y002195D01*
X007970Y002195D01*
Y002172D01*
X007970Y002172D01*
X007951Y002160D01*
X007939Y002142D01*
X007935Y002120D01*
X007939Y002099D01*
X007951Y002081D01*
X007970Y002068D01*
X007970Y002068D01*
Y002045D01*
X007970Y002045D01*
X007951Y002033D01*
X007939Y002015D01*
X007935Y001993D01*
X007939Y001972D01*
X007951Y001954D01*
X007970Y001941D01*
X007970Y001941D01*
Y001918D01*
X007970Y001918D01*
X007951Y001906D01*
X007939Y001888D01*
X007935Y001866D01*
X007939Y001845D01*
X007951Y001827D01*
X007970Y001814D01*
X007970Y001814D01*
Y001791D01*
X007970Y001791D01*
X007956Y001782D01*
X007950Y001781D01*
X007938Y001783D01*
X007929Y001786D01*
X007923Y001794D01*
X007908Y001804D01*
X007890Y001808D01*
X007884Y001807D01*
X007861Y001822D01*
Y002202D01*
X007861Y002204D01*
Y002222D01*
X007843D01*
X007841Y002222D01*
X007772D01*
Y002261D01*
X007722D01*
Y002281D01*
X007702D01*
Y002361D01*
X007699D01*
X007694Y002366D01*
X007686Y002383D01*
X007690Y002392D01*
Y002408D01*
X007684Y002423D01*
X007673Y002434D01*
X007662Y002438D01*
X007485Y002616D01*
X007487Y002638D01*
X007487D01*
Y002808D01*
X007367D01*
Y002759D01*
X007330D01*
Y002808D01*
X007210D01*
Y002638D01*
X007330D01*
Y002688D01*
X007367D01*
Y002638D01*
X007392D01*
Y002623D01*
X007394Y002609D01*
X007402Y002597D01*
X007612Y002388D01*
X007615Y002381D01*
X007609Y002369D01*
X007601Y002360D01*
X007595Y002362D01*
X007575Y002358D01*
X007558Y002346D01*
X007547Y002329D01*
X007543Y002309D01*
X007521D01*
X007517Y002329D01*
X007506Y002346D01*
X007489Y002358D01*
X007468Y002362D01*
X007448Y002358D01*
X007431Y002346D01*
X007420Y002329D01*
X007416Y002309D01*
X007394D01*
X007390Y002329D01*
X007379Y002346D01*
X007377Y002347D01*
Y002399D01*
X007374Y002412D01*
X007367Y002424D01*
X007300Y002490D01*
X007289Y002498D01*
X007275Y002501D01*
X006979D01*
X006970Y002523D01*
X006974Y002527D01*
X006980Y002542D01*
Y002558D01*
X006974Y002573D01*
X006972Y002575D01*
Y002629D01*
X006999Y002655D01*
X007020Y002647D01*
Y002638D01*
X007140D01*
Y002808D01*
X007020D01*
Y002752D01*
X007010Y002750D01*
X007000Y002743D01*
X007000Y002743D01*
X006974Y002746D01*
X006962Y002757D01*
X006948Y002763D01*
X006932D01*
X006917Y002757D01*
X006906Y002746D01*
X006902Y002735D01*
X006815Y002648D01*
X006807Y002637D01*
X006804Y002623D01*
Y002555D01*
X006775D01*
Y002445D01*
X006839D01*
X006849Y002422D01*
X006847Y002419D01*
X006844Y002405D01*
Y002025D01*
X006738Y001918D01*
X006727Y001914D01*
X006716Y001903D01*
X006710Y001888D01*
Y001872D01*
X006716Y001857D01*
X006727Y001846D01*
X006742Y001840D01*
X006758D01*
X006773Y001846D01*
X006784Y001857D01*
X006788Y001868D01*
X006890Y001970D01*
X006896Y001970D01*
X006917Y001965D01*
X006925Y001954D01*
X006943Y001941D01*
X006944Y001941D01*
Y001918D01*
X006943Y001918D01*
X006925Y001906D01*
X006913Y001888D01*
X006909Y001866D01*
X006913Y001845D01*
X006925Y001827D01*
X006943Y001814D01*
X006944Y001814D01*
Y001791D01*
X006943Y001791D01*
X006925Y001779D01*
X006913Y001761D01*
X006912Y001756D01*
X006899Y001739D01*
X006887Y001738D01*
X006875D01*
X006868Y001761D01*
X006874Y001767D01*
X006880Y001782D01*
Y001798D01*
X006874Y001813D01*
X006863Y001824D01*
X006848Y001830D01*
X006832D01*
X006817Y001824D01*
X006806Y001813D01*
X006800Y001798D01*
Y001782D01*
X006806Y001767D01*
X006812Y001761D01*
X006805Y001738D01*
X006779D01*
Y001583D01*
X006779Y001568D01*
X006779D01*
X006780Y001560D01*
X006780D01*
Y001390D01*
X006861D01*
X006865Y001389D01*
X006877D01*
X006881Y001386D01*
X006893Y001378D01*
X006906Y001375D01*
X006980D01*
Y001212D01*
X006980D01*
X006980Y001203D01*
X006980D01*
X006980Y001189D01*
Y001033D01*
X006980D01*
Y001025D01*
X006980D01*
Y000855D01*
X006992D01*
X007002Y000832D01*
X007000Y000828D01*
Y000812D01*
X006982Y000796D01*
X006803D01*
X006803Y000796D01*
X006794Y000819D01*
X006865Y000890D01*
X006872Y000901D01*
X006875Y000915D01*
Y001080D01*
X006904D01*
Y001190D01*
X006774D01*
Y001080D01*
X006804D01*
Y000930D01*
X006734Y000860D01*
X006728Y000858D01*
X006693D01*
X006496Y001055D01*
Y001335D01*
X006526Y001366D01*
X006534Y001377D01*
X006537Y001391D01*
Y001422D01*
X006554Y001440D01*
X006570D01*
X006590Y001424D01*
Y001390D01*
X006710D01*
Y001546D01*
X006710Y001560D01*
X006709Y001583D01*
Y001633D01*
X006589D01*
Y001583D01*
X006589Y001568D01*
X006590Y001546D01*
Y001536D01*
X006570Y001520D01*
X006554D01*
X006537Y001538D01*
Y002132D01*
X006554Y002150D01*
X006570D01*
X006584Y002156D01*
X006595Y002167D01*
X006602Y002182D01*
Y002198D01*
X006595Y002213D01*
X006584Y002224D01*
X006570Y002230D01*
X006554D01*
X006537Y002248D01*
Y002403D01*
X006537Y002403D01*
Y002512D01*
X006551Y002526D01*
X006558Y002529D01*
X006585D01*
Y002510D01*
X006603D01*
X006607Y002489D01*
X006607Y002487D01*
X006595Y002480D01*
X006587Y002467D01*
X006585Y002455D01*
X006650D01*
X006715D01*
X006713Y002467D01*
X006704Y002480D01*
X006693Y002487D01*
X006692Y002489D01*
X006696Y002510D01*
X006715D01*
Y002620D01*
X006585D01*
X006585Y002620D01*
X006573Y002616D01*
X006562Y002615D01*
X006553Y002624D01*
X006538Y002630D01*
X006522D01*
X006506Y002648D01*
Y002760D01*
X006503Y002774D01*
X006495Y002785D01*
X006440Y002840D01*
X006449Y002863D01*
X006644D01*
X008460Y002865D01*
X008581Y002832D01*
X008681Y002730D01*
X008710Y002618D01*
X008712Y001860D01*
X008707Y001791D01*
X008681Y001731D01*
X008638Y001674D01*
X007212Y000246D01*
X007137Y000180D01*
X007067Y000150D01*
X007010Y000142D01*
X004972Y000143D01*
X004895Y000158D01*
X004826Y000192D01*
X004756Y000266D01*
X004697Y000360D01*
X004616Y000433D01*
X004509Y000477D01*
X004425Y000493D01*
X004266Y000469D01*
X004201Y000432D01*
X004111Y000361D01*
X004074Y000304D01*
X004006Y000211D01*
X003958Y000178D01*
X003897Y000152D01*
X003836Y000139D01*
X003319Y000142D01*
X003219Y000175D01*
X003179Y000207D01*
X003140Y000248D01*
X003097Y000332D01*
X003087Y000397D01*
X003093Y001363D01*
X003058Y001467D01*
X003006Y001535D01*
X002941Y001580D01*
X002850Y001595D01*
X002478Y001593D01*
X000606Y001587D01*
X000606Y001587D01*
X000606Y001587D01*
X000345D01*
X000320Y001587D01*
X000271Y001597D01*
X000224Y001616D01*
X000183Y001644D01*
X000147Y001680D01*
X000120Y001721D01*
X000100Y001767D01*
X000091Y001816D01*
X000091Y001841D01*
Y004323D01*
X000091Y004664D01*
X000091D01*
X000091Y004664D01*
X000109Y004753D01*
X000149Y004815D01*
X000333Y004997D01*
X001606Y006277D01*
X001655Y006314D01*
X001710Y006344D01*
X001777Y006361D01*
X001846Y006367D01*
X003856D01*
X003913Y006347D01*
X003950Y006331D01*
X003991Y006303D01*
X004026Y006267D01*
X004116Y006147D01*
X004266Y006037D01*
X004486Y006027D01*
X004656Y006107D01*
X004796Y006297D01*
X004916Y006357D01*
X005056Y006367D01*
X005431Y006364D01*
D02*
G37*
G36*
X002528Y006101D02*
X002544Y006080D01*
X002565Y006064D01*
X002589Y006054D01*
X002598Y006053D01*
Y006030D01*
X002589Y006029D01*
X002565Y006019D01*
X002544Y006003D01*
X002528Y005982D01*
X002526Y005977D01*
X002445D01*
X002443Y005982D01*
X002427Y006003D01*
X002406Y006019D01*
X002382Y006029D01*
X002373Y006030D01*
Y006053D01*
X002382Y006054D01*
X002406Y006064D01*
X002427Y006080D01*
X002443Y006101D01*
X002445Y006105D01*
X002526D01*
X002528Y006101D01*
D02*
G37*
G36*
Y005881D02*
X002544Y005860D01*
X002565Y005844D01*
X002589Y005834D01*
X002598Y005833D01*
Y005810D01*
X002589Y005809D01*
X002565Y005799D01*
X002544Y005783D01*
X002528Y005762D01*
X002526Y005757D01*
X002445D01*
X002443Y005762D01*
X002427Y005783D01*
X002406Y005799D01*
X002382Y005809D01*
X002373Y005810D01*
Y005833D01*
X002382Y005834D01*
X002406Y005844D01*
X002427Y005860D01*
X002443Y005881D01*
X002445Y005885D01*
X002526D01*
X002528Y005881D01*
D02*
G37*
G36*
Y005661D02*
X002544Y005640D01*
X002565Y005624D01*
X002589Y005614D01*
X002615Y005610D01*
X002653D01*
X002657Y005606D01*
X002664Y005589D01*
X002475Y005400D01*
X002465Y005385D01*
X002462Y005367D01*
Y005268D01*
X002447D01*
Y005098D01*
X002554D01*
Y005046D01*
X002554Y005045D01*
X002531Y005035D01*
X002520Y005043D01*
X002499Y005047D01*
X002389D01*
X002374Y005044D01*
X002351Y005057D01*
Y005087D01*
X002366Y005101D01*
X002374Y005113D01*
X002377Y005127D01*
Y005495D01*
X002374Y005509D01*
X002366Y005520D01*
X002296Y005590D01*
X002307Y005611D01*
X002315Y005610D01*
X002355D01*
X002382Y005614D01*
X002406Y005624D01*
X002427Y005640D01*
X002443Y005661D01*
X002445Y005665D01*
X002526D01*
X002528Y005661D01*
D02*
G37*
G36*
X001741Y005661D02*
X001740Y005658D01*
Y005642D01*
X001742Y005638D01*
X001731Y005615D01*
X001720D01*
Y005445D01*
X001720D01*
Y005437D01*
X001720D01*
Y005267D01*
X001720D01*
X001720Y005258D01*
X001720D01*
X001720Y005244D01*
Y005103D01*
X001650D01*
Y005244D01*
X001650Y005267D01*
X001650Y005281D01*
Y005332D01*
X001530D01*
Y005281D01*
X001530Y005258D01*
X001530Y005244D01*
Y005209D01*
X001453D01*
Y005264D01*
X001453D01*
Y005274D01*
X001453D01*
Y005444D01*
X001343D01*
X001343Y005494D01*
X001341Y005503D01*
X001339Y005511D01*
X001339Y005511D01*
X001339Y005511D01*
X001334Y005519D01*
X001329Y005526D01*
X001329Y005526D01*
X001329Y005526D01*
X001322Y005531D01*
X001314Y005536D01*
X001314Y005536D01*
X001314Y005536D01*
X001306Y005538D01*
X001297Y005540D01*
X001137D01*
X001129Y005561D01*
X001252Y005684D01*
X001358D01*
X001366Y005670D01*
X001454D01*
X001462Y005684D01*
X001538D01*
X001551Y005661D01*
X001550Y005658D01*
Y005642D01*
X001552Y005638D01*
X001541Y005615D01*
X001530D01*
Y005459D01*
X001530Y005445D01*
X001530Y005422D01*
Y005372D01*
X001650D01*
Y005422D01*
X001650Y005437D01*
X001650Y005459D01*
Y005615D01*
X001638D01*
X001628Y005638D01*
X001630Y005642D01*
Y005658D01*
X001629Y005661D01*
X001642Y005684D01*
X001728D01*
X001741Y005661D01*
D02*
G37*
G36*
X003635Y005595D02*
X003635Y005590D01*
X003625Y005580D01*
X003618Y005569D01*
X003615Y005555D01*
Y005390D01*
X003586D01*
Y005280D01*
X003665D01*
X003714Y005231D01*
Y005101D01*
X003710Y005080D01*
X003641D01*
X003628Y005093D01*
X003616Y005100D01*
X003603Y005103D01*
X003510D01*
Y005258D01*
X003510D01*
X003510Y005267D01*
X003510D01*
X003510Y005281D01*
Y005437D01*
X003510D01*
Y005445D01*
X003510D01*
Y005564D01*
X003560Y005614D01*
X003619D01*
X003635Y005595D01*
D02*
G37*
G36*
X004123Y005607D02*
X004132Y005601D01*
Y005268D01*
X004117D01*
Y005098D01*
X004224D01*
Y005046D01*
X004224Y005045D01*
X004201Y005035D01*
X004190Y005043D01*
X004169Y005047D01*
X004059D01*
X004044Y005044D01*
X004021Y005057D01*
Y005529D01*
X004102Y005610D01*
X004109Y005613D01*
X004123Y005607D01*
D02*
G37*
G36*
X004483Y005094D02*
X004591D01*
X004591Y005052D01*
X004531Y004992D01*
X004521Y004977D01*
X004518Y004959D01*
Y004945D01*
X004516Y004942D01*
X004512Y004922D01*
X004490D01*
X004486Y004942D01*
X004483Y004946D01*
Y004956D01*
X004480Y004973D01*
X004470Y004988D01*
X004410Y005048D01*
Y005098D01*
X004427D01*
Y005128D01*
X004483D01*
Y005094D01*
D02*
G37*
G36*
X002813D02*
X002921D01*
X002921Y005052D01*
X002861Y004992D01*
X002851Y004977D01*
X002848Y004959D01*
Y004945D01*
X002846Y004942D01*
X002842Y004922D01*
X002820D01*
X002816Y004942D01*
X002813Y004946D01*
Y004956D01*
X002810Y004973D01*
X002800Y004988D01*
X002740Y005048D01*
Y005098D01*
X002757D01*
Y005128D01*
X002813D01*
Y005094D01*
D02*
G37*
G36*
X001143D02*
X001251D01*
X001251Y005052D01*
X001191Y004992D01*
X001181Y004977D01*
X001178Y004959D01*
Y004945D01*
X001176Y004942D01*
X001172Y004922D01*
X001150D01*
X001146Y004942D01*
X001143Y004946D01*
Y004956D01*
X001140Y004973D01*
X001130Y004988D01*
X001070Y005048D01*
Y005098D01*
X001087D01*
Y005128D01*
X001143D01*
Y005094D01*
D02*
G37*
G36*
X003711Y004732D02*
X003714Y004710D01*
Y004702D01*
X003717Y004689D01*
X003725Y004677D01*
X003750Y004652D01*
X003740Y004630D01*
X003732D01*
X003717Y004624D01*
X003706Y004613D01*
X003702Y004602D01*
X003635Y004535D01*
X003627Y004524D01*
X003624Y004510D01*
Y004075D01*
X003575Y004026D01*
X003541D01*
X003539Y004048D01*
X003547Y004050D01*
X003565Y004062D01*
X003577Y004080D01*
X003581Y004102D01*
X003577Y004123D01*
X003565Y004141D01*
X003547Y004154D01*
X003546Y004154D01*
Y004177D01*
X003547Y004177D01*
X003565Y004189D01*
X003577Y004207D01*
X003581Y004229D01*
X003577Y004250D01*
X003565Y004268D01*
X003547Y004281D01*
X003546Y004281D01*
Y004304D01*
X003547Y004304D01*
X003565Y004316D01*
X003577Y004334D01*
X003581Y004356D01*
X003577Y004377D01*
X003565Y004395D01*
X003547Y004408D01*
X003546Y004408D01*
Y004431D01*
X003547Y004431D01*
X003565Y004443D01*
X003577Y004461D01*
X003581Y004483D01*
X003577Y004504D01*
X003565Y004522D01*
X003547Y004535D01*
X003546Y004535D01*
Y004558D01*
X003547Y004558D01*
X003565Y004570D01*
X003577Y004588D01*
X003581Y004610D01*
X003577Y004631D01*
X003565Y004649D01*
X003547Y004662D01*
X003546Y004662D01*
Y004685D01*
X003547Y004685D01*
X003565Y004697D01*
X003577Y004715D01*
X003579Y004717D01*
X003592Y004732D01*
X003615Y004732D01*
X003622Y004709D01*
X003616Y004703D01*
X003610Y004688D01*
Y004672D01*
X003616Y004657D01*
X003627Y004646D01*
X003642Y004640D01*
X003658D01*
X003673Y004646D01*
X003684Y004657D01*
X003690Y004672D01*
Y004688D01*
X003684Y004703D01*
X003678Y004709D01*
X003685Y004732D01*
X003711D01*
D02*
G37*
G36*
X002552Y004693D02*
X002561Y004690D01*
X002567Y004682D01*
X002582Y004672D01*
X002600Y004668D01*
X002606Y004669D01*
X002629Y004654D01*
Y004274D01*
X002629Y004272D01*
Y004254D01*
X002647D01*
X002649Y004254D01*
X002718D01*
Y004215D01*
X002768D01*
Y004195D01*
X002788D01*
Y004115D01*
X002797D01*
X002806Y004093D01*
X002806Y004093D01*
X002800Y004078D01*
Y004062D01*
X002806Y004047D01*
X002817Y004036D01*
X002828Y004032D01*
X003005Y003854D01*
X003003Y003832D01*
X003003D01*
Y003662D01*
X003123D01*
Y003711D01*
X003200D01*
Y003662D01*
X003320D01*
Y003832D01*
X003200D01*
Y003782D01*
X003123D01*
Y003832D01*
X003098D01*
Y003847D01*
X003096Y003861D01*
X003088Y003873D01*
X002878Y004082D01*
X002874Y004093D01*
X002870Y004096D01*
X002882Y004117D01*
X002895Y004114D01*
X002915Y004118D01*
X002932Y004130D01*
X002943Y004147D01*
X002947Y004167D01*
X002969D01*
X002973Y004147D01*
X002984Y004130D01*
X003001Y004118D01*
X003022Y004114D01*
X003042Y004118D01*
X003059Y004130D01*
X003070Y004147D01*
X003074Y004167D01*
X003096D01*
X003100Y004147D01*
X003111Y004130D01*
X003113Y004129D01*
Y004071D01*
X003116Y004058D01*
X003123Y004046D01*
X003205Y003965D01*
X003216Y003957D01*
X003230Y003954D01*
X003590D01*
X003604Y003957D01*
X003615Y003965D01*
X003685Y004035D01*
X003693Y004046D01*
X003696Y004060D01*
Y004495D01*
X003737Y004536D01*
X003759Y004527D01*
Y004070D01*
X003721Y004031D01*
X003713Y004020D01*
X003710Y004006D01*
Y003895D01*
X003585D01*
Y003835D01*
X003533Y003783D01*
X003531Y003783D01*
X003516Y003790D01*
X003510Y003796D01*
Y003832D01*
X003390D01*
Y003662D01*
X003467D01*
X003500Y003629D01*
Y003622D01*
X003506Y003607D01*
X003517Y003596D01*
X003532Y003590D01*
X003548D01*
X003563Y003596D01*
X003574Y003607D01*
X003580Y003622D01*
Y003638D01*
X003574Y003652D01*
X003563Y003664D01*
X003548Y003670D01*
X003546D01*
X003527Y003689D01*
X003540Y003708D01*
X003542Y003707D01*
X003558D01*
X003573Y003713D01*
X003584Y003724D01*
X003590Y003739D01*
Y003739D01*
X003636Y003785D01*
X003710D01*
Y003631D01*
X003645Y003566D01*
X002296D01*
X002287Y003587D01*
X002365Y003665D01*
X002373Y003676D01*
X002376Y003690D01*
Y003742D01*
X002377Y003744D01*
X002398Y003753D01*
X002426Y003725D01*
X002426Y003725D01*
X002436Y003719D01*
X002448Y003716D01*
X002448Y003695D01*
Y003662D01*
X002568D01*
Y003818D01*
X002568Y003840D01*
X002568Y003854D01*
Y003905D01*
X002508D01*
X002448D01*
Y003854D01*
X002448Y003840D01*
X002440Y003832D01*
X002425Y003831D01*
X002423Y003834D01*
X002408Y003840D01*
X002392D01*
X002376Y003858D01*
Y003950D01*
X002373Y003964D01*
X002365Y003975D01*
X002351Y003989D01*
Y004035D01*
X002374Y004049D01*
X002389Y004046D01*
X002499D01*
X002520Y004050D01*
X002539Y004062D01*
X002551Y004080D01*
X002555Y004102D01*
X002551Y004123D01*
X002539Y004141D01*
X002520Y004154D01*
X002520Y004154D01*
Y004177D01*
X002520Y004177D01*
X002539Y004189D01*
X002551Y004207D01*
X002555Y004229D01*
X002551Y004250D01*
X002539Y004268D01*
X002520Y004281D01*
X002520Y004281D01*
Y004304D01*
X002520Y004304D01*
X002539Y004316D01*
X002551Y004334D01*
X002555Y004356D01*
X002551Y004377D01*
X002539Y004395D01*
X002520Y004408D01*
X002520Y004408D01*
Y004431D01*
X002520Y004431D01*
X002539Y004443D01*
X002551Y004461D01*
X002555Y004483D01*
X002551Y004504D01*
X002539Y004522D01*
X002520Y004535D01*
X002520Y004535D01*
Y004558D01*
X002520Y004558D01*
X002539Y004570D01*
X002551Y004588D01*
X002555Y004610D01*
X002551Y004631D01*
X002539Y004649D01*
X002520Y004662D01*
X002520Y004662D01*
Y004685D01*
X002520Y004685D01*
X002534Y004694D01*
X002540Y004695D01*
X002552Y004693D01*
D02*
G37*
G36*
X005030Y004936D02*
X005056D01*
X005058Y004930D01*
X005060Y004913D01*
X005046Y004903D01*
X005034Y004885D01*
X005029Y004864D01*
X005034Y004842D01*
X005046Y004824D01*
X005064Y004812D01*
X005065Y004812D01*
Y004789D01*
X005064Y004789D01*
X005046Y004776D01*
X005034Y004758D01*
X005029Y004737D01*
X005034Y004715D01*
X005046Y004697D01*
X005064Y004685D01*
X005065Y004685D01*
Y004662D01*
X005064Y004662D01*
X005046Y004649D01*
X005034Y004631D01*
X005029Y004610D01*
X005034Y004588D01*
X005046Y004570D01*
X005064Y004558D01*
X005065Y004558D01*
Y004535D01*
X005064Y004535D01*
X005046Y004522D01*
X005034Y004504D01*
X005029Y004483D01*
X005034Y004461D01*
X005046Y004443D01*
X005064Y004431D01*
X005065Y004431D01*
Y004408D01*
X005064Y004408D01*
X005046Y004395D01*
X005034Y004377D01*
X005029Y004356D01*
X005034Y004334D01*
X005046Y004316D01*
X005064Y004304D01*
X005065Y004304D01*
Y004281D01*
X005064Y004281D01*
X005046Y004268D01*
X005034Y004250D01*
X005029Y004229D01*
X005034Y004207D01*
X005046Y004189D01*
X005064Y004177D01*
X005065Y004177D01*
Y004154D01*
X005064Y004154D01*
X005046Y004141D01*
X005034Y004123D01*
X005029Y004102D01*
X005034Y004080D01*
X005046Y004062D01*
X005064Y004050D01*
X005072Y004048D01*
X005070Y004026D01*
X004915D01*
X004854Y004086D01*
Y004129D01*
X004856Y004130D01*
X004867Y004147D01*
X004871Y004167D01*
Y004224D01*
X004870Y004231D01*
X004886Y004254D01*
X004939D01*
X004941Y004254D01*
X004959D01*
Y004272D01*
X004960Y004274D01*
Y004814D01*
X004959Y004816D01*
Y004834D01*
X004941D01*
X004939Y004835D01*
X004886D01*
X004870Y004857D01*
X004871Y004865D01*
Y004922D01*
X004867Y004942D01*
X004856Y004959D01*
X004861Y004980D01*
X004915Y005034D01*
X005030D01*
Y004936D01*
D02*
G37*
G36*
X003360D02*
X003386D01*
X003388Y004930D01*
X003390Y004913D01*
X003376Y004903D01*
X003364Y004885D01*
X003359Y004864D01*
X003364Y004842D01*
X003376Y004824D01*
X003394Y004812D01*
X003395Y004812D01*
Y004789D01*
X003394Y004789D01*
X003376Y004776D01*
X003364Y004758D01*
X003359Y004737D01*
X003364Y004715D01*
X003376Y004697D01*
X003394Y004685D01*
X003395Y004685D01*
Y004662D01*
X003394Y004662D01*
X003376Y004649D01*
X003364Y004631D01*
X003359Y004610D01*
X003364Y004588D01*
X003376Y004570D01*
X003394Y004558D01*
X003395Y004558D01*
Y004535D01*
X003394Y004535D01*
X003376Y004522D01*
X003364Y004504D01*
X003359Y004483D01*
X003364Y004461D01*
X003376Y004443D01*
X003394Y004431D01*
X003395Y004431D01*
Y004408D01*
X003394Y004408D01*
X003376Y004395D01*
X003364Y004377D01*
X003359Y004356D01*
X003364Y004334D01*
X003376Y004316D01*
X003394Y004304D01*
X003395Y004304D01*
Y004281D01*
X003394Y004281D01*
X003376Y004268D01*
X003364Y004250D01*
X003359Y004229D01*
X003364Y004207D01*
X003376Y004189D01*
X003394Y004177D01*
X003395Y004177D01*
Y004154D01*
X003394Y004154D01*
X003376Y004141D01*
X003364Y004123D01*
X003359Y004102D01*
X003364Y004080D01*
X003376Y004062D01*
X003394Y004050D01*
X003402Y004048D01*
X003400Y004026D01*
X003245D01*
X003184Y004086D01*
Y004129D01*
X003186Y004130D01*
X003197Y004147D01*
X003201Y004167D01*
Y004224D01*
X003200Y004231D01*
X003216Y004254D01*
X003269D01*
X003271Y004254D01*
X003289D01*
Y004272D01*
X003290Y004274D01*
Y004814D01*
X003289Y004816D01*
Y004834D01*
X003271D01*
X003269Y004835D01*
X003216D01*
X003200Y004857D01*
X003201Y004865D01*
Y004922D01*
X003197Y004942D01*
X003186Y004959D01*
X003191Y004980D01*
X003242Y005032D01*
X003360D01*
Y004936D01*
D02*
G37*
G36*
X001690D02*
X001716D01*
X001718Y004930D01*
X001720Y004913D01*
X001706Y004903D01*
X001694Y004885D01*
X001689Y004864D01*
X001694Y004842D01*
X001706Y004824D01*
X001724Y004812D01*
X001725Y004812D01*
Y004789D01*
X001724Y004789D01*
X001706Y004776D01*
X001694Y004758D01*
X001689Y004737D01*
X001694Y004715D01*
X001706Y004697D01*
X001724Y004685D01*
X001725Y004685D01*
Y004662D01*
X001724Y004662D01*
X001706Y004649D01*
X001694Y004631D01*
X001689Y004610D01*
X001694Y004588D01*
X001706Y004570D01*
X001724Y004558D01*
X001725Y004558D01*
Y004535D01*
X001724Y004535D01*
X001706Y004522D01*
X001694Y004504D01*
X001689Y004483D01*
X001694Y004461D01*
X001706Y004443D01*
X001724Y004431D01*
X001725Y004431D01*
Y004408D01*
X001724Y004408D01*
X001706Y004395D01*
X001694Y004377D01*
X001689Y004356D01*
X001694Y004334D01*
X001706Y004316D01*
X001724Y004304D01*
X001725Y004304D01*
Y004281D01*
X001724Y004281D01*
X001706Y004268D01*
X001694Y004250D01*
X001689Y004229D01*
X001694Y004207D01*
X001706Y004189D01*
X001724Y004177D01*
X001725Y004177D01*
Y004154D01*
X001724Y004154D01*
X001706Y004141D01*
X001694Y004123D01*
X001689Y004102D01*
X001694Y004080D01*
X001706Y004062D01*
X001724Y004050D01*
X001732Y004048D01*
X001730Y004026D01*
X001575D01*
X001514Y004086D01*
Y004129D01*
X001516Y004130D01*
X001527Y004147D01*
X001531Y004167D01*
Y004224D01*
X001530Y004231D01*
X001546Y004254D01*
X001599D01*
X001601Y004254D01*
X001619D01*
Y004272D01*
X001620Y004274D01*
Y004814D01*
X001619Y004816D01*
Y004834D01*
X001601D01*
X001599Y004835D01*
X001546D01*
X001530Y004857D01*
X001531Y004865D01*
Y004922D01*
X001527Y004942D01*
X001516Y004959D01*
X001521Y004980D01*
X001572Y005032D01*
X001690D01*
Y004936D01*
D02*
G37*
G36*
X003861Y004732D02*
X003865D01*
X003866Y004731D01*
X003872Y004709D01*
X003866Y004702D01*
X003865Y004700D01*
X003900D01*
Y004680D01*
X003920D01*
Y004645D01*
X003922Y004646D01*
X003927Y004651D01*
X003950Y004641D01*
Y004329D01*
X003936Y004320D01*
X003920D01*
X003906Y004314D01*
X003895Y004303D01*
X003888Y004288D01*
Y004272D01*
X003895Y004257D01*
X003906Y004246D01*
X003920Y004240D01*
X003936D01*
X003950Y004231D01*
Y003804D01*
X003937Y003797D01*
X003927Y003794D01*
X003918Y003800D01*
X003905Y003803D01*
Y003830D01*
X003887D01*
X003883Y003851D01*
X003883Y003853D01*
X003895Y003860D01*
X003903Y003873D01*
X003905Y003885D01*
X003840D01*
Y003905D01*
X003820D01*
Y003961D01*
X003813D01*
X003804Y003959D01*
X003787Y003969D01*
X003786Y003970D01*
X003786Y003995D01*
X003820Y004030D01*
X003828Y004041D01*
X003831Y004055D01*
Y004657D01*
X003828Y004671D01*
X003820Y004682D01*
X003794Y004709D01*
X003803Y004732D01*
X003821D01*
Y004817D01*
X003861D01*
Y004732D01*
D02*
G37*
G36*
X000435Y003819D02*
X000446Y003817D01*
X000461D01*
X000472Y003794D01*
X000464Y003781D01*
X000458Y003758D01*
Y003735D01*
X000464Y003713D01*
X000476Y003692D01*
X000492Y003676D01*
X000512Y003664D01*
X000535Y003658D01*
X000549D01*
X000549Y003658D01*
X000537Y003635D01*
X000535D01*
X000512Y003629D01*
X000492Y003618D01*
X000476Y003601D01*
X000464Y003581D01*
X000458Y003558D01*
Y003535D01*
X000464Y003513D01*
X000470Y003502D01*
X000459Y003479D01*
X000434D01*
X000423Y003502D01*
X000429Y003513D01*
X000435Y003535D01*
Y003558D01*
X000429Y003581D01*
X000417Y003601D01*
X000401Y003618D01*
X000381Y003629D01*
X000358Y003635D01*
X000335D01*
X000312Y003629D01*
X000292Y003618D01*
X000276Y003601D01*
X000275Y003601D01*
X000253Y003607D01*
Y003686D01*
X000275Y003692D01*
X000276Y003692D01*
X000292Y003676D01*
X000312Y003664D01*
X000335Y003658D01*
X000358D01*
X000381Y003664D01*
X000401Y003676D01*
X000417Y003692D01*
X000429Y003713D01*
X000435Y003735D01*
Y003758D01*
X000429Y003781D01*
X000417Y003801D01*
X000412Y003807D01*
X000427Y003824D01*
X000435Y003819D01*
D02*
G37*
G36*
X003906Y003712D02*
X003920Y003706D01*
X003936D01*
X003950Y003697D01*
Y003670D01*
X003795Y003516D01*
X003726D01*
X003717Y003537D01*
X003771Y003591D01*
X003779Y003602D01*
X003782Y003616D01*
Y003720D01*
X003898D01*
X003906Y003712D01*
D02*
G37*
G36*
X000993Y003235D02*
X001005Y003227D01*
X001019Y003224D01*
X001076D01*
X001081Y003202D01*
X001069Y003197D01*
X001053Y003181D01*
X001045Y003161D01*
Y003139D01*
X001053Y003119D01*
X001069Y003103D01*
X001089Y003095D01*
X001111D01*
X001131Y003103D01*
X001147Y003119D01*
X001155Y003139D01*
Y003161D01*
X001147Y003181D01*
X001131Y003197D01*
X001119Y003202D01*
X001124Y003224D01*
X002051D01*
X002065Y003227D01*
X002077Y003235D01*
X002286Y003444D01*
X002310D01*
X002325Y003422D01*
X002325Y003421D01*
Y003399D01*
X002333Y003379D01*
X002349Y003363D01*
X002369Y003355D01*
X002391D01*
X002411Y003363D01*
X002412Y003364D01*
X003880D01*
X003898Y003368D01*
X003912Y003378D01*
X004019Y003484D01*
X004050D01*
X004065Y003461D01*
X004065Y003461D01*
Y003439D01*
X004073Y003419D01*
X004089Y003403D01*
X004109Y003395D01*
X004131D01*
X004151Y003403D01*
X004167Y003419D01*
X004175Y003439D01*
Y003461D01*
X004175Y003461D01*
X004190Y003484D01*
X004353D01*
X004355Y003461D01*
X004331Y003457D01*
X004291Y003440D01*
X004255Y003416D01*
X004224Y003385D01*
X004200Y003349D01*
X004183Y003309D01*
X004175Y003267D01*
Y003223D01*
X004183Y003181D01*
X004200Y003141D01*
X004224Y003105D01*
X004255Y003074D01*
X004278Y003058D01*
X004271Y003036D01*
X000955D01*
X000791Y003199D01*
X000797Y003214D01*
X000803Y003220D01*
X000820D01*
X000838Y003228D01*
X000852Y003242D01*
X000860Y003260D01*
Y003280D01*
X000852Y003298D01*
X000838Y003312D01*
X000820Y003320D01*
X000807D01*
X000656Y003471D01*
X000645Y003478D01*
X000636Y003480D01*
X000628Y003491D01*
X000624Y003504D01*
X000629Y003513D01*
X000635Y003535D01*
Y003558D01*
X000634Y003562D01*
X000655Y003573D01*
X000993Y003235D01*
D02*
G37*
G36*
X005704Y002825D02*
X005697Y002808D01*
X005697D01*
Y002759D01*
X005620D01*
Y002808D01*
X005500D01*
Y002638D01*
X005620D01*
Y002688D01*
X005697D01*
Y002638D01*
X005722D01*
Y002623D01*
X005724Y002609D01*
X005732Y002597D01*
X005942Y002388D01*
X005945Y002381D01*
X005939Y002369D01*
X005931Y002360D01*
X005925Y002362D01*
X005905Y002358D01*
X005888Y002346D01*
X005877Y002329D01*
X005873Y002309D01*
X005851D01*
X005847Y002329D01*
X005836Y002346D01*
X005819Y002358D01*
X005798Y002362D01*
X005778Y002358D01*
X005761Y002346D01*
X005750Y002329D01*
X005746Y002309D01*
X005724D01*
X005720Y002329D01*
X005709Y002346D01*
X005707Y002347D01*
Y002399D01*
X005704Y002412D01*
X005697Y002424D01*
X005615Y002505D01*
X005604Y002513D01*
X005590Y002516D01*
X005230D01*
X005216Y002513D01*
X005205Y002505D01*
X005135Y002435D01*
X005127Y002424D01*
X005124Y002410D01*
Y001975D01*
X005068Y001918D01*
X005057Y001914D01*
X005046Y001903D01*
X005040Y001888D01*
Y001872D01*
X005046Y001857D01*
X005057Y001846D01*
X005072Y001840D01*
X005088D01*
X005103Y001846D01*
X005114Y001857D01*
X005118Y001868D01*
X005185Y001935D01*
X005193Y001946D01*
X005196Y001960D01*
Y002395D01*
X005238Y002438D01*
X005247Y002436D01*
X005252Y002422D01*
X005254Y002412D01*
X005243Y002396D01*
X005239Y002374D01*
X005243Y002353D01*
X005255Y002335D01*
X005273Y002322D01*
X005274Y002322D01*
Y002299D01*
X005273Y002299D01*
X005255Y002287D01*
X005243Y002269D01*
X005239Y002247D01*
X005243Y002226D01*
X005255Y002208D01*
X005273Y002195D01*
X005274Y002195D01*
Y002172D01*
X005273Y002172D01*
X005255Y002160D01*
X005243Y002142D01*
X005239Y002120D01*
X005243Y002099D01*
X005255Y002081D01*
X005273Y002068D01*
X005274Y002068D01*
Y002045D01*
X005273Y002045D01*
X005255Y002033D01*
X005243Y002015D01*
X005239Y001993D01*
X005243Y001972D01*
X005255Y001954D01*
X005273Y001941D01*
X005274Y001941D01*
Y001918D01*
X005273Y001918D01*
X005255Y001906D01*
X005243Y001888D01*
X005239Y001866D01*
X005243Y001845D01*
X005255Y001827D01*
X005273Y001814D01*
X005274Y001814D01*
Y001791D01*
X005273Y001791D01*
X005255Y001779D01*
X005243Y001761D01*
X005242Y001756D01*
X005229Y001739D01*
X005217Y001738D01*
X005205D01*
X005198Y001761D01*
X005204Y001767D01*
X005210Y001782D01*
Y001798D01*
X005204Y001813D01*
X005193Y001824D01*
X005178Y001830D01*
X005162D01*
X005147Y001824D01*
X005136Y001813D01*
X005130Y001798D01*
Y001782D01*
X005136Y001767D01*
X005142Y001761D01*
X005135Y001738D01*
X005109D01*
Y001583D01*
X005109Y001568D01*
X005109D01*
X005110Y001560D01*
X005110D01*
Y001390D01*
X005191D01*
X005195Y001389D01*
X005207D01*
X005211Y001386D01*
X005223Y001378D01*
X005236Y001375D01*
X005310D01*
Y001212D01*
X005310D01*
X005310Y001203D01*
X005310D01*
X005310Y001189D01*
Y001079D01*
X005304Y001074D01*
X005287Y001066D01*
X005278Y001070D01*
X005262D01*
X005251Y001066D01*
X005236Y001079D01*
X005234Y001081D01*
Y001190D01*
X005104D01*
Y001080D01*
X005134D01*
Y000930D01*
X005064Y000860D01*
X005058Y000858D01*
X004883D01*
X004806Y000935D01*
Y001325D01*
X004862Y001381D01*
X004870Y001393D01*
X004872Y001407D01*
Y001432D01*
X004884Y001440D01*
X004900D01*
X004920Y001424D01*
Y001390D01*
X005040D01*
Y001546D01*
X005040Y001560D01*
X005039Y001583D01*
Y001633D01*
X004919D01*
Y001583D01*
X004919Y001568D01*
X004920Y001546D01*
Y001536D01*
X004900Y001520D01*
X004884D01*
X004872Y001528D01*
Y002142D01*
X004884Y002150D01*
X004900D01*
X004914Y002156D01*
X004925Y002167D01*
X004932Y002182D01*
Y002198D01*
X004925Y002213D01*
X004914Y002224D01*
X004900Y002230D01*
X004884D01*
X004872Y002238D01*
Y002523D01*
X004872Y002523D01*
Y002663D01*
X004880Y002669D01*
X004895Y002674D01*
X004902Y002670D01*
X004915Y002667D01*
Y002640D01*
X004933D01*
X004937Y002619D01*
X004937Y002617D01*
X004925Y002610D01*
X004917Y002597D01*
X004915Y002585D01*
X004980D01*
X005045D01*
X005043Y002597D01*
X005034Y002610D01*
X005023Y002617D01*
X005022Y002619D01*
X005026Y002640D01*
X005045D01*
Y002750D01*
X004922D01*
X004914Y002758D01*
X004900Y002764D01*
X004884D01*
X004879Y002762D01*
X004870Y002767D01*
X004862Y002779D01*
X004787Y002853D01*
X004796Y002874D01*
X005327D01*
X005337Y002852D01*
X005336Y002851D01*
X005330Y002836D01*
Y002820D01*
X005310Y002808D01*
X005310D01*
Y002772D01*
X005304Y002767D01*
X005287Y002759D01*
X005278Y002763D01*
X005262D01*
X005247Y002757D01*
X005236Y002746D01*
X005230Y002731D01*
Y002731D01*
X005184Y002685D01*
X005105D01*
Y002575D01*
X005235D01*
Y002635D01*
X005287Y002687D01*
X005289Y002687D01*
X005304Y002680D01*
X005310Y002674D01*
Y002638D01*
X005430D01*
Y002808D01*
X005430D01*
X005410Y002820D01*
Y002836D01*
X005404Y002851D01*
X005403Y002852D01*
X005413Y002874D01*
X005655D01*
X005704Y002825D01*
D02*
G37*
G36*
X006252Y002638D02*
X006252D01*
X006252Y002630D01*
X006252D01*
X006252Y002616D01*
Y002565D01*
X006312D01*
Y002545D01*
X006332D01*
Y002460D01*
X006333D01*
X006337Y002459D01*
X006359D01*
X006363Y002453D01*
X006351Y002430D01*
X006321D01*
X006300Y002426D01*
X006281Y002414D01*
X006269Y002396D01*
X006265Y002374D01*
X006269Y002353D01*
X006281Y002335D01*
X006300Y002322D01*
X006300Y002322D01*
Y002299D01*
X006300Y002299D01*
X006281Y002287D01*
X006269Y002269D01*
X006265Y002247D01*
X006269Y002226D01*
X006281Y002208D01*
X006300Y002195D01*
X006300Y002195D01*
Y002172D01*
X006300Y002172D01*
X006281Y002160D01*
X006269Y002142D01*
X006265Y002120D01*
X006269Y002099D01*
X006281Y002081D01*
X006300Y002068D01*
X006300Y002068D01*
Y002045D01*
X006300Y002045D01*
X006281Y002033D01*
X006269Y002015D01*
X006265Y001993D01*
X006269Y001972D01*
X006281Y001954D01*
X006300Y001941D01*
X006300Y001941D01*
Y001918D01*
X006300Y001918D01*
X006281Y001906D01*
X006269Y001888D01*
X006265Y001866D01*
X006269Y001845D01*
X006281Y001827D01*
X006300Y001814D01*
X006300Y001814D01*
Y001791D01*
X006300Y001791D01*
X006286Y001782D01*
X006280Y001781D01*
X006268Y001783D01*
X006259Y001786D01*
X006253Y001794D01*
X006238Y001804D01*
X006220Y001808D01*
X006214Y001807D01*
X006191Y001822D01*
Y002202D01*
X006191Y002204D01*
Y002222D01*
X006173D01*
X006171Y002222D01*
X006102D01*
Y002261D01*
X006052D01*
Y002281D01*
X006032D01*
Y002361D01*
X006029D01*
X006024Y002366D01*
X006016Y002383D01*
X006020Y002392D01*
Y002408D01*
X006014Y002423D01*
X006003Y002434D01*
X005992Y002438D01*
X005815Y002616D01*
X005817Y002638D01*
X005817D01*
Y002789D01*
X005887D01*
Y002743D01*
X005947D01*
X006007D01*
Y002789D01*
X006062D01*
Y002638D01*
X006062D01*
X006062Y002630D01*
X006062D01*
X006062Y002616D01*
Y002460D01*
X006086D01*
Y002419D01*
X006082Y002408D01*
Y002392D01*
X006085Y002383D01*
X006077Y002366D01*
X006072Y002361D01*
Y002301D01*
X006102D01*
Y002340D01*
X006114Y002360D01*
X006130Y002360D01*
X006144Y002366D01*
X006156Y002377D01*
X006162Y002392D01*
Y002408D01*
X006158Y002418D01*
Y002460D01*
X006182D01*
Y002630D01*
X006182D01*
X006182Y002638D01*
X006182D01*
X006182Y002652D01*
Y002789D01*
X006252D01*
Y002638D01*
D02*
G37*
G36*
X007306Y002384D02*
Y002347D01*
X007304Y002346D01*
X007293Y002329D01*
X007289Y002309D01*
Y002252D01*
X007290Y002245D01*
X007274Y002222D01*
X007221D01*
X007219Y002222D01*
X007201D01*
Y002204D01*
X007200Y002202D01*
Y001662D01*
X007201Y001660D01*
Y001642D01*
X007219D01*
X007221Y001641D01*
X007274D01*
X007290Y001619D01*
X007289Y001611D01*
Y001554D01*
X007293Y001534D01*
X007304Y001517D01*
X007304Y001495D01*
X007256Y001447D01*
X007130D01*
Y001540D01*
X007104D01*
X007102Y001546D01*
X007100Y001563D01*
X007114Y001573D01*
X007126Y001591D01*
X007131Y001612D01*
X007126Y001634D01*
X007114Y001652D01*
X007096Y001664D01*
X007095Y001664D01*
Y001687D01*
X007096Y001687D01*
X007114Y001700D01*
X007126Y001718D01*
X007131Y001739D01*
X007126Y001761D01*
X007114Y001779D01*
X007096Y001791D01*
X007095Y001791D01*
Y001814D01*
X007096Y001814D01*
X007114Y001827D01*
X007126Y001845D01*
X007131Y001866D01*
X007126Y001888D01*
X007114Y001906D01*
X007096Y001918D01*
X007095Y001918D01*
Y001941D01*
X007096Y001941D01*
X007114Y001954D01*
X007126Y001972D01*
X007131Y001993D01*
X007126Y002015D01*
X007114Y002033D01*
X007096Y002045D01*
X007095Y002045D01*
Y002068D01*
X007096Y002068D01*
X007114Y002081D01*
X007126Y002099D01*
X007131Y002120D01*
X007126Y002142D01*
X007114Y002160D01*
X007096Y002172D01*
X007095Y002172D01*
Y002195D01*
X007096Y002195D01*
X007114Y002208D01*
X007126Y002226D01*
X007131Y002247D01*
X007126Y002269D01*
X007114Y002287D01*
X007096Y002299D01*
X007095Y002299D01*
Y002322D01*
X007096Y002322D01*
X007114Y002335D01*
X007126Y002353D01*
X007131Y002374D01*
X007126Y002396D01*
X007119Y002407D01*
X007129Y002429D01*
X007129Y002429D01*
X007260D01*
X007306Y002384D01*
D02*
G37*
G36*
X005636D02*
Y002347D01*
X005634Y002346D01*
X005623Y002329D01*
X005619Y002309D01*
Y002252D01*
X005620Y002245D01*
X005604Y002222D01*
X005551D01*
X005549Y002222D01*
X005531D01*
Y002204D01*
X005530Y002202D01*
Y001662D01*
X005531Y001660D01*
Y001642D01*
X005549D01*
X005551Y001641D01*
X005604D01*
X005620Y001619D01*
X005619Y001611D01*
Y001554D01*
X005623Y001534D01*
X005634Y001517D01*
X005634Y001495D01*
X005586Y001447D01*
X005460D01*
Y001540D01*
X005434D01*
X005432Y001546D01*
X005430Y001563D01*
X005444Y001573D01*
X005456Y001591D01*
X005461Y001612D01*
X005456Y001634D01*
X005444Y001652D01*
X005426Y001664D01*
X005425Y001664D01*
Y001687D01*
X005426Y001687D01*
X005444Y001700D01*
X005456Y001718D01*
X005461Y001739D01*
X005456Y001761D01*
X005444Y001779D01*
X005426Y001791D01*
X005425Y001791D01*
Y001814D01*
X005426Y001814D01*
X005444Y001827D01*
X005456Y001845D01*
X005461Y001866D01*
X005456Y001888D01*
X005444Y001906D01*
X005426Y001918D01*
X005425Y001918D01*
Y001941D01*
X005426Y001941D01*
X005444Y001954D01*
X005456Y001972D01*
X005461Y001993D01*
X005456Y002015D01*
X005444Y002033D01*
X005426Y002045D01*
X005425Y002045D01*
Y002068D01*
X005426Y002068D01*
X005444Y002081D01*
X005456Y002099D01*
X005461Y002120D01*
X005456Y002142D01*
X005444Y002160D01*
X005426Y002172D01*
X005425Y002172D01*
Y002195D01*
X005426Y002195D01*
X005444Y002208D01*
X005456Y002226D01*
X005461Y002247D01*
X005456Y002269D01*
X005444Y002287D01*
X005426Y002299D01*
X005425Y002299D01*
Y002322D01*
X005426Y002322D01*
X005444Y002335D01*
X005456Y002353D01*
X005461Y002374D01*
X005456Y002396D01*
X005444Y002414D01*
X005433Y002422D01*
X005440Y002444D01*
X005575D01*
X005636Y002384D01*
D02*
G37*
G36*
X003966D02*
Y002347D01*
X003964Y002346D01*
X003953Y002329D01*
X003949Y002309D01*
Y002252D01*
X003950Y002245D01*
X003934Y002222D01*
X003881D01*
X003879Y002222D01*
X003861D01*
Y002204D01*
X003860Y002202D01*
Y001662D01*
X003861Y001660D01*
Y001642D01*
X003879D01*
X003881Y001641D01*
X003934D01*
X003950Y001619D01*
X003949Y001611D01*
Y001554D01*
X003953Y001534D01*
X003964Y001517D01*
X003964Y001495D01*
X003916Y001447D01*
X003790D01*
Y001540D01*
X003764D01*
X003762Y001546D01*
X003760Y001563D01*
X003774Y001573D01*
X003786Y001591D01*
X003791Y001612D01*
X003786Y001634D01*
X003774Y001652D01*
X003756Y001664D01*
X003755Y001664D01*
Y001687D01*
X003756Y001687D01*
X003774Y001700D01*
X003786Y001718D01*
X003791Y001739D01*
X003786Y001761D01*
X003774Y001779D01*
X003756Y001791D01*
X003755Y001791D01*
Y001814D01*
X003756Y001814D01*
X003774Y001827D01*
X003786Y001845D01*
X003791Y001866D01*
X003786Y001888D01*
X003774Y001906D01*
X003756Y001918D01*
X003755Y001918D01*
Y001941D01*
X003756Y001941D01*
X003774Y001954D01*
X003786Y001972D01*
X003791Y001993D01*
X003786Y002015D01*
X003774Y002033D01*
X003756Y002045D01*
X003755Y002045D01*
Y002068D01*
X003756Y002068D01*
X003774Y002081D01*
X003786Y002099D01*
X003791Y002120D01*
X003786Y002142D01*
X003774Y002160D01*
X003756Y002172D01*
X003755Y002172D01*
Y002195D01*
X003756Y002195D01*
X003774Y002208D01*
X003786Y002226D01*
X003791Y002247D01*
X003786Y002269D01*
X003774Y002287D01*
X003756Y002299D01*
X003755Y002299D01*
Y002322D01*
X003756Y002322D01*
X003774Y002335D01*
X003786Y002353D01*
X003791Y002374D01*
X003786Y002396D01*
X003774Y002414D01*
X003763Y002422D01*
X003770Y002444D01*
X003905D01*
X003966Y002384D01*
D02*
G37*
G36*
X007674Y001534D02*
X007677Y001530D01*
Y001520D01*
X007680Y001503D01*
X007690Y001488D01*
X007750Y001428D01*
Y001378D01*
X007733D01*
Y001348D01*
X007677D01*
Y001382D01*
X007569D01*
X007569Y001424D01*
X007629Y001484D01*
X007639Y001499D01*
X007642Y001517D01*
Y001531D01*
X007644Y001534D01*
X007648Y001554D01*
X007670D01*
X007674Y001534D01*
D02*
G37*
G36*
X006004D02*
X006007Y001530D01*
Y001520D01*
X006010Y001503D01*
X006020Y001488D01*
X006080Y001428D01*
Y001378D01*
X006063D01*
Y001348D01*
X006007D01*
Y001382D01*
X005899D01*
X005899Y001424D01*
X005959Y001484D01*
X005969Y001499D01*
X005972Y001517D01*
Y001531D01*
X005974Y001534D01*
X005978Y001554D01*
X006000D01*
X006004Y001534D01*
D02*
G37*
G36*
X004334D02*
X004337Y001530D01*
Y001520D01*
X004340Y001503D01*
X004350Y001488D01*
X004410Y001428D01*
Y001378D01*
X004393D01*
Y001348D01*
X004337D01*
Y001382D01*
X004229D01*
X004229Y001424D01*
X004289Y001484D01*
X004299Y001499D01*
X004302Y001517D01*
Y001531D01*
X004304Y001534D01*
X004308Y001554D01*
X004330D01*
X004334Y001534D01*
D02*
G37*
G36*
X006267Y001124D02*
Y000998D01*
X006224Y000956D01*
X006116D01*
X006099Y000979D01*
X006100Y000982D01*
X006100Y000982D01*
X006100Y000982D01*
Y001128D01*
X006220D01*
X006238Y001132D01*
X006244Y001136D01*
X006267Y001124D01*
D02*
G37*
G36*
X006300Y001433D02*
X006321Y001429D01*
X006431D01*
X006434Y001430D01*
X006455Y001414D01*
X006457Y001397D01*
X006435Y001375D01*
X006427Y001364D01*
X006424Y001350D01*
Y001040D01*
X006427Y001026D01*
X006435Y001015D01*
X006603Y000847D01*
X006594Y000826D01*
X006567D01*
X006566Y000830D01*
X006550Y000851D01*
X006529Y000867D01*
X006504Y000877D01*
X006478Y000881D01*
X006438D01*
X006412Y000877D01*
X006388Y000867D01*
X006367Y000851D01*
X006351Y000830D01*
X006349Y000826D01*
X006269D01*
X006266Y000830D01*
X006266Y000830D01*
X006265Y000831D01*
X006256Y000844D01*
X006260Y000865D01*
X006261Y000866D01*
X006263Y000869D01*
X006276Y000878D01*
X006345Y000947D01*
X006355Y000962D01*
X006358Y000979D01*
Y001208D01*
X006373D01*
Y001378D01*
X006266D01*
Y001430D01*
X006266Y001431D01*
X006289Y001441D01*
X006300Y001433D01*
D02*
G37*
G36*
X007170Y001226D02*
X007170Y001203D01*
X007170Y001189D01*
Y001138D01*
X007230D01*
X007290D01*
Y001189D01*
X007290Y001212D01*
X007290Y001226D01*
Y001261D01*
X007367D01*
Y001212D01*
X007367D01*
Y001202D01*
X007367D01*
Y001032D01*
X007477D01*
X007477Y000982D01*
X007479Y000973D01*
X007481Y000965D01*
X007481Y000965D01*
X007481Y000965D01*
X007486Y000957D01*
X007491Y000950D01*
X007491Y000950D01*
X007491Y000950D01*
X007498Y000945D01*
X007506Y000940D01*
X007506Y000940D01*
X007506Y000940D01*
X007514Y000938D01*
X007523Y000936D01*
X007692D01*
X007700Y000915D01*
X007581Y000796D01*
X007287D01*
X007269Y000812D01*
Y000828D01*
X007267Y000832D01*
X007277Y000855D01*
X007290D01*
Y001011D01*
X007290Y001025D01*
X007290Y001048D01*
Y001098D01*
X007230D01*
X007170D01*
Y001048D01*
X007170Y001033D01*
X007170Y001011D01*
Y000855D01*
X007180D01*
X007191Y000832D01*
X007189Y000828D01*
Y000812D01*
X007171Y000796D01*
X007098D01*
X007080Y000812D01*
Y000828D01*
X007078Y000832D01*
X007089Y000855D01*
X007100D01*
Y001025D01*
X007100D01*
Y001033D01*
X007100D01*
Y001203D01*
X007100D01*
X007100Y001212D01*
X007100D01*
X007100Y001226D01*
Y001375D01*
X007170D01*
Y001226D01*
D02*
G37*
G36*
X004630Y001433D02*
X004651Y001429D01*
X004761D01*
X004776Y001432D01*
X004786Y001412D01*
X004786Y001407D01*
X004745Y001365D01*
X004737Y001354D01*
X004734Y001340D01*
Y000920D01*
X004737Y000906D01*
X004745Y000895D01*
X004843Y000797D01*
X004854Y000789D01*
X004868Y000786D01*
X005058D01*
X005068Y000782D01*
X005084D01*
X005099Y000788D01*
X005110Y000799D01*
X005115Y000810D01*
X005195Y000890D01*
X005202Y000901D01*
X005205Y000915D01*
Y001080D01*
X005231D01*
X005245Y001061D01*
X005236Y001053D01*
X005230Y001038D01*
Y001022D01*
X005236Y001007D01*
X005247Y000996D01*
X005262Y000990D01*
X005262D01*
X005287Y000965D01*
X005299Y000957D01*
X005310Y000955D01*
Y000855D01*
X005430D01*
Y001025D01*
X005430D01*
Y001033D01*
X005430D01*
Y001203D01*
X005430D01*
X005430Y001212D01*
X005430D01*
X005430Y001226D01*
Y001375D01*
X005500D01*
Y001226D01*
X005500Y001203D01*
X005500Y001189D01*
Y001138D01*
X005560D01*
X005620D01*
Y001189D01*
X005620Y001212D01*
X005620Y001226D01*
Y001261D01*
X005697D01*
Y001212D01*
X005697D01*
Y001202D01*
X005697D01*
Y001032D01*
X005807D01*
X005807Y000982D01*
X005809Y000973D01*
X005811Y000965D01*
X005811Y000965D01*
X005811Y000965D01*
X005816Y000957D01*
X005821Y000950D01*
X005821Y000950D01*
X005821Y000950D01*
X005828Y000945D01*
X005836Y000940D01*
X005836Y000940D01*
X005836Y000940D01*
X005844Y000938D01*
X005853Y000936D01*
X005941D01*
X005950Y000915D01*
X005948Y000913D01*
X005938Y000898D01*
X005934Y000881D01*
Y000694D01*
X005911Y000686D01*
X005905Y000694D01*
X005886Y000709D01*
X005865Y000718D01*
X005841Y000721D01*
X005791D01*
Y000560D01*
Y000399D01*
X005841D01*
X005865Y000402D01*
X005886Y000411D01*
X005905Y000426D01*
X005920Y000445D01*
X005929Y000467D01*
X005932Y000490D01*
Y000541D01*
X005955Y000550D01*
X005977Y000528D01*
X005992Y000518D01*
X006009Y000514D01*
X006049D01*
X006051Y000510D01*
X006067Y000489D01*
X006088Y000473D01*
X006112Y000463D01*
X006121Y000461D01*
Y000439D01*
X006112Y000437D01*
X006088Y000427D01*
X006067Y000411D01*
X006051Y000390D01*
X006047Y000380D01*
X005974D01*
X005957Y000377D01*
X005942Y000367D01*
X005871Y000296D01*
X005456D01*
X005454Y000299D01*
X005448Y000319D01*
X005466Y000336D01*
X005482Y000364D01*
X005489Y000390D01*
X005370D01*
X005251D01*
X005258Y000364D01*
X005274Y000336D01*
X005292Y000319D01*
X005286Y000299D01*
X005284Y000296D01*
X005019D01*
X004688Y000626D01*
Y001208D01*
X004703D01*
Y001378D01*
X004596D01*
Y001430D01*
X004596Y001431D01*
X004619Y001441D01*
X004630Y001433D01*
D02*
G37*
G36*
X006351Y000730D02*
X006367Y000709D01*
X006388Y000693D01*
X006412Y000683D01*
X006421Y000681D01*
Y000659D01*
X006412Y000657D01*
X006388Y000647D01*
X006367Y000631D01*
X006351Y000610D01*
X006349Y000606D01*
X006267D01*
X006266Y000610D01*
X006250Y000631D01*
X006229Y000647D01*
X006204Y000657D01*
X006196Y000659D01*
Y000681D01*
X006204Y000683D01*
X006229Y000693D01*
X006250Y000709D01*
X006266Y000730D01*
X006267Y000734D01*
X006349D01*
X006351Y000730D01*
D02*
G37*
G36*
Y000510D02*
X006367Y000489D01*
X006388Y000473D01*
X006412Y000463D01*
X006421Y000461D01*
Y000439D01*
X006412Y000437D01*
X006388Y000427D01*
X006367Y000411D01*
X006351Y000390D01*
X006349Y000386D01*
X006267D01*
X006266Y000390D01*
X006250Y000411D01*
X006229Y000427D01*
X006204Y000437D01*
X006196Y000439D01*
Y000461D01*
X006204Y000463D01*
X006229Y000473D01*
X006250Y000489D01*
X006266Y000510D01*
X006267Y000514D01*
X006349D01*
X006351Y000510D01*
D02*
G37*
%LPC*%
G36*
X003542Y006061D02*
X003444D01*
Y005962D01*
X003470Y005969D01*
X003497Y005985D01*
X003520Y006008D01*
X003535Y006035D01*
X003542Y006061D01*
D02*
G37*
G36*
X003404D02*
X003305D01*
X003312Y006035D01*
X003328Y006008D01*
X003350Y005985D01*
X003377Y005969D01*
X003404Y005962D01*
Y006061D01*
D02*
G37*
G36*
X003093Y006092D02*
X003043D01*
Y005951D01*
X003183D01*
Y006001D01*
X003180Y006025D01*
X003171Y006047D01*
X003157Y006065D01*
X003138Y006080D01*
X003116Y006089D01*
X003093Y006092D01*
D02*
G37*
G36*
X003003D02*
X002953D01*
X002929Y006089D01*
X002907Y006080D01*
X002888Y006065D01*
X002874Y006047D01*
X002865Y006025D01*
X002862Y006001D01*
Y005951D01*
X003003D01*
Y006092D01*
D02*
G37*
G36*
X003444Y005900D02*
Y005801D01*
X003542D01*
X003535Y005828D01*
X003520Y005855D01*
X003497Y005877D01*
X003470Y005893D01*
X003444Y005900D01*
D02*
G37*
G36*
X003404D02*
X003377Y005893D01*
X003350Y005877D01*
X003328Y005855D01*
X003312Y005828D01*
X003305Y005801D01*
X003404D01*
Y005900D01*
D02*
G37*
G36*
X003183Y005911D02*
X003043D01*
Y005770D01*
X003093D01*
X003116Y005774D01*
X003138Y005783D01*
X003157Y005797D01*
X003171Y005816D01*
X003180Y005838D01*
X003183Y005861D01*
Y005911D01*
D02*
G37*
G36*
X003542Y005761D02*
X003444D01*
Y005662D01*
X003470Y005669D01*
X003497Y005685D01*
X003520Y005708D01*
X003535Y005735D01*
X003542Y005761D01*
D02*
G37*
G36*
X003404D02*
X003305D01*
X003312Y005735D01*
X003328Y005708D01*
X003350Y005685D01*
X003377Y005669D01*
X003404Y005662D01*
Y005761D01*
D02*
G37*
G36*
X003868Y005456D02*
X003861D01*
Y005420D01*
X003906D01*
X003903Y005432D01*
X003895Y005445D01*
X003883Y005453D01*
X003868Y005456D01*
D02*
G37*
G36*
X003821D02*
X003813D01*
X003798Y005453D01*
X003786Y005445D01*
X003778Y005432D01*
X003775Y005420D01*
X003821D01*
Y005456D01*
D02*
G37*
G36*
X003268Y005690D02*
X003252D01*
X003237Y005684D01*
X003226Y005673D01*
X003220Y005658D01*
Y005642D01*
X003222Y005638D01*
X003211Y005615D01*
X003200D01*
Y005459D01*
X003200Y005445D01*
X003200Y005422D01*
Y005372D01*
X003320D01*
Y005422D01*
X003320Y005437D01*
X003320Y005459D01*
Y005615D01*
X003308D01*
X003298Y005638D01*
X003300Y005642D01*
Y005658D01*
X003294Y005673D01*
X003283Y005684D01*
X003268Y005690D01*
D02*
G37*
G36*
X004826Y006152D02*
X004795D01*
X004764Y006144D01*
X004737Y006128D01*
X004714Y006106D01*
X004699Y006079D01*
X004691Y006048D01*
Y006017D01*
X004699Y005986D01*
X004714Y005959D01*
X004737Y005936D01*
X004764Y005921D01*
X004795Y005912D01*
X004826D01*
X004857Y005921D01*
X004884Y005936D01*
X004907Y005959D01*
X004922Y005986D01*
X004931Y006017D01*
Y006048D01*
X004922Y006079D01*
X004907Y006106D01*
X004884Y006128D01*
X004857Y006144D01*
X004826Y006152D01*
D02*
G37*
G36*
X005467Y006315D02*
X005423D01*
X005381Y006307D01*
X005341Y006290D01*
X005305Y006266D01*
X005274Y006235D01*
X005250Y006199D01*
X005233Y006159D01*
X005225Y006117D01*
Y006073D01*
X005233Y006031D01*
X005250Y005991D01*
X005274Y005955D01*
X005305Y005924D01*
X005341Y005900D01*
X005381Y005883D01*
X005423Y005875D01*
X005467D01*
X005509Y005883D01*
X005549Y005900D01*
X005585Y005924D01*
X005616Y005955D01*
X005640Y005991D01*
X005657Y006031D01*
X005665Y006073D01*
Y006117D01*
X005657Y006159D01*
X005640Y006199D01*
X005616Y006235D01*
X005585Y006266D01*
X005549Y006290D01*
X005509Y006307D01*
X005467Y006315D01*
D02*
G37*
G36*
X001820D02*
X001777D01*
X001734Y006307D01*
X001694Y006290D01*
X001658Y006266D01*
X001628Y006235D01*
X001604Y006199D01*
X001587Y006159D01*
X001579Y006117D01*
Y006073D01*
X001587Y006031D01*
X001604Y005991D01*
X001628Y005955D01*
X001658Y005924D01*
X001694Y005900D01*
X001734Y005883D01*
X001777Y005875D01*
X001820D01*
X001863Y005883D01*
X001903Y005900D01*
X001939Y005924D01*
X001969Y005955D01*
X001994Y005991D01*
X002010Y006031D01*
X002019Y006073D01*
Y006117D01*
X002010Y006159D01*
X001994Y006199D01*
X001969Y006235D01*
X001939Y006266D01*
X001903Y006290D01*
X001863Y006307D01*
X001820Y006315D01*
D02*
G37*
G36*
X005040Y005805D02*
Y005790D01*
X005055D01*
X005054Y005793D01*
X005043Y005804D01*
X005040Y005805D01*
D02*
G37*
G36*
X005000D02*
X004997Y005804D01*
X004986Y005793D01*
X004985Y005790D01*
X005000D01*
Y005805D01*
D02*
G37*
G36*
X005055Y005750D02*
X005040D01*
Y005735D01*
X005043Y005736D01*
X005054Y005747D01*
X005055Y005750D01*
D02*
G37*
G36*
X005000D02*
X004985D01*
X004986Y005747D01*
X004997Y005736D01*
X005000Y005735D01*
Y005750D01*
D02*
G37*
G36*
X004736Y005832D02*
X004705D01*
X004674Y005824D01*
X004647Y005808D01*
X004624Y005786D01*
X004609Y005759D01*
X004601Y005728D01*
Y005697D01*
X004609Y005666D01*
X004624Y005639D01*
X004647Y005616D01*
X004674Y005601D01*
X004705Y005592D01*
X004736D01*
X004767Y005601D01*
X004794Y005616D01*
X004817Y005639D01*
X004832Y005666D01*
X004841Y005697D01*
Y005728D01*
X004832Y005759D01*
X004817Y005786D01*
X004794Y005808D01*
X004767Y005824D01*
X004736Y005832D01*
D02*
G37*
G36*
X005538Y005456D02*
X005531D01*
Y005420D01*
X005576D01*
X005573Y005432D01*
X005565Y005445D01*
X005553Y005453D01*
X005538Y005456D01*
D02*
G37*
G36*
X002198D02*
X002191D01*
Y005420D01*
X002236D01*
X002233Y005432D01*
X002225Y005445D01*
X002213Y005453D01*
X002198Y005456D01*
D02*
G37*
G36*
X005491D02*
X005483D01*
X005468Y005453D01*
X005456Y005445D01*
X005448Y005432D01*
X005445Y005420D01*
X005491D01*
Y005456D01*
D02*
G37*
G36*
X002151D02*
X002143D01*
X002128Y005453D01*
X002116Y005445D01*
X002108Y005432D01*
X002105Y005420D01*
X002151D01*
Y005456D01*
D02*
G37*
G36*
X004930Y005696D02*
X004916Y005693D01*
X004905Y005685D01*
X004897Y005674D01*
X004897Y005674D01*
X004896Y005673D01*
X004890Y005658D01*
Y005642D01*
X004892Y005638D01*
X004881Y005615D01*
X004870D01*
Y005459D01*
X004870Y005445D01*
X004870Y005422D01*
Y005372D01*
X004990D01*
Y005422D01*
X004990Y005437D01*
X004990Y005459D01*
Y005615D01*
X004978D01*
X004968Y005638D01*
X004970Y005642D01*
Y005658D01*
X004964Y005673D01*
X004963Y005673D01*
X004963Y005673D01*
X004956Y005685D01*
X004955Y005685D01*
X004944Y005693D01*
X004930Y005696D01*
D02*
G37*
G36*
X005422Y005688D02*
X005406D01*
X005391Y005682D01*
X005380Y005671D01*
X005375Y005660D01*
X005295Y005580D01*
X005288Y005569D01*
X005285Y005555D01*
Y005390D01*
X005256D01*
Y005280D01*
X005386D01*
Y005390D01*
X005356D01*
Y005540D01*
X005426Y005610D01*
X005436Y005614D01*
X005448Y005625D01*
X005454Y005640D01*
Y005656D01*
X005448Y005671D01*
X005436Y005682D01*
X005422Y005688D01*
D02*
G37*
G36*
X005576Y005380D02*
X005511D01*
X005445D01*
X005448Y005368D01*
X005456Y005356D01*
X005468Y005348D01*
X005468Y005346D01*
X005464Y005325D01*
X005446D01*
Y005215D01*
X005476D01*
Y005208D01*
X005479Y005194D01*
X005487Y005183D01*
X005525Y005145D01*
X005536Y005137D01*
X005550Y005134D01*
X005580D01*
X005590Y005130D01*
X005606D01*
X005621Y005136D01*
X005632Y005147D01*
X005638Y005162D01*
Y005178D01*
X005632Y005193D01*
X005621Y005204D01*
X005606Y005210D01*
X005596D01*
X005589Y005212D01*
X005576Y005228D01*
Y005325D01*
X005557D01*
X005553Y005346D01*
X005554Y005348D01*
X005565Y005356D01*
X005573Y005368D01*
X005576Y005380D01*
D02*
G37*
G36*
X005570Y005080D02*
X005450D01*
Y004924D01*
X005450Y004910D01*
X005451Y004887D01*
Y004837D01*
X005511D01*
X005571D01*
Y004887D01*
X005571Y004902D01*
X005570Y004924D01*
Y004934D01*
X005590Y004950D01*
X005606D01*
X005621Y004956D01*
X005632Y004967D01*
X005638Y004982D01*
Y004998D01*
X005632Y005013D01*
X005621Y005024D01*
X005606Y005030D01*
X005590D01*
X005570Y005046D01*
Y005080D01*
D02*
G37*
G36*
X005571Y004797D02*
X005531D01*
Y004732D01*
X005571D01*
Y004797D01*
D02*
G37*
G36*
X005491D02*
X005451D01*
Y004732D01*
X005491D01*
Y004797D01*
D02*
G37*
G36*
X002231D02*
X002171D01*
X002111D01*
Y004732D01*
X002145D01*
X002149Y004709D01*
X002146Y004708D01*
X002135Y004697D01*
X002134Y004694D01*
X002204D01*
X002203Y004697D01*
X002192Y004708D01*
X002189Y004709D01*
X002194Y004732D01*
X002231D01*
Y004797D01*
D02*
G37*
G36*
X000558Y004835D02*
X000535D01*
X000512Y004829D01*
X000492Y004818D01*
X000476Y004801D01*
X000464Y004781D01*
X000458Y004758D01*
Y004735D01*
X000464Y004713D01*
X000476Y004692D01*
X000492Y004676D01*
X000512Y004664D01*
X000535Y004658D01*
X000558D01*
X000581Y004664D01*
X000601Y004676D01*
X000617Y004692D01*
X000629Y004713D01*
X000635Y004735D01*
Y004758D01*
X000629Y004781D01*
X000617Y004801D01*
X000601Y004818D01*
X000581Y004829D01*
X000558Y004835D01*
D02*
G37*
G36*
X000435D02*
X000258D01*
Y004658D01*
X000435D01*
Y004835D01*
D02*
G37*
G36*
X002204Y004654D02*
X002189D01*
Y004639D01*
X002192Y004640D01*
X002203Y004651D01*
X002204Y004654D01*
D02*
G37*
G36*
X002149D02*
X002134D01*
X002135Y004651D01*
X002146Y004640D01*
X002149Y004639D01*
Y004654D01*
D02*
G37*
G36*
X000558Y004635D02*
X000535D01*
X000512Y004629D01*
X000492Y004618D01*
X000476Y004601D01*
X000464Y004581D01*
X000458Y004558D01*
Y004535D01*
X000464Y004513D01*
X000476Y004492D01*
X000492Y004476D01*
X000512Y004464D01*
X000535Y004458D01*
X000558D01*
X000581Y004464D01*
X000601Y004476D01*
X000617Y004492D01*
X000629Y004513D01*
X000635Y004535D01*
Y004558D01*
X000629Y004581D01*
X000617Y004601D01*
X000601Y004618D01*
X000581Y004629D01*
X000558Y004635D01*
D02*
G37*
G36*
X000358D02*
X000335D01*
X000312Y004629D01*
X000292Y004618D01*
X000276Y004601D01*
X000264Y004581D01*
X000258Y004558D01*
Y004535D01*
X000264Y004513D01*
X000276Y004492D01*
X000292Y004476D01*
X000312Y004464D01*
X000335Y004458D01*
X000358D01*
X000381Y004464D01*
X000401Y004476D01*
X000417Y004492D01*
X000429Y004513D01*
X000435Y004535D01*
Y004558D01*
X000429Y004581D01*
X000417Y004601D01*
X000401Y004618D01*
X000381Y004629D01*
X000358Y004635D01*
D02*
G37*
G36*
X000558Y004435D02*
X000535D01*
X000512Y004429D01*
X000492Y004418D01*
X000476Y004401D01*
X000464Y004381D01*
X000458Y004358D01*
Y004335D01*
X000464Y004313D01*
X000476Y004292D01*
X000492Y004276D01*
X000512Y004264D01*
X000535Y004258D01*
X000558D01*
X000581Y004264D01*
X000601Y004276D01*
X000617Y004292D01*
X000629Y004313D01*
X000635Y004335D01*
Y004358D01*
X000629Y004381D01*
X000617Y004401D01*
X000601Y004418D01*
X000581Y004429D01*
X000558Y004435D01*
D02*
G37*
G36*
X005606Y004320D02*
X005590D01*
X005576Y004314D01*
X005565Y004303D01*
X005558Y004288D01*
Y004272D01*
X005565Y004257D01*
X005576Y004246D01*
X005590Y004240D01*
X005606D01*
X005621Y004246D01*
X005632Y004257D01*
X005638Y004272D01*
Y004288D01*
X005632Y004303D01*
X005621Y004314D01*
X005606Y004320D01*
D02*
G37*
G36*
X000558Y004235D02*
X000535D01*
X000512Y004229D01*
X000492Y004218D01*
X000476Y004201D01*
X000464Y004181D01*
X000458Y004158D01*
Y004135D01*
X000464Y004113D01*
X000476Y004092D01*
X000492Y004076D01*
X000512Y004064D01*
X000535Y004058D01*
X000558D01*
X000581Y004064D01*
X000601Y004076D01*
X000617Y004092D01*
X000629Y004113D01*
X000635Y004135D01*
Y004158D01*
X000629Y004181D01*
X000617Y004201D01*
X000601Y004218D01*
X000581Y004229D01*
X000558Y004235D01*
D02*
G37*
G36*
X000898Y004010D02*
X000858D01*
Y003945D01*
X000898D01*
Y004010D01*
D02*
G37*
G36*
X004238D02*
X004198D01*
Y003945D01*
X004238D01*
Y004010D01*
D02*
G37*
G36*
X004158D02*
X004118D01*
Y003945D01*
X004158D01*
Y004010D01*
D02*
G37*
G36*
X005538Y003961D02*
X005530D01*
Y003925D01*
X005575D01*
X005573Y003937D01*
X005565Y003950D01*
X005552Y003958D01*
X005538Y003961D01*
D02*
G37*
G36*
X002198D02*
X002190D01*
Y003925D01*
X002235D01*
X002233Y003937D01*
X002225Y003950D01*
X002212Y003958D01*
X002198Y003961D01*
D02*
G37*
G36*
X005490D02*
X005483D01*
X005468Y003958D01*
X005456Y003950D01*
X005447Y003937D01*
X005445Y003925D01*
X005490D01*
Y003961D01*
D02*
G37*
G36*
X002150D02*
X002143D01*
X002128Y003958D01*
X002116Y003950D01*
X002107Y003937D01*
X002105Y003925D01*
X002150D01*
Y003961D01*
D02*
G37*
G36*
X002045Y003895D02*
X001915D01*
Y003835D01*
X001863Y003783D01*
X001861Y003783D01*
X001846Y003790D01*
X001840Y003796D01*
Y003832D01*
X001720D01*
Y003662D01*
X001728D01*
X001750Y003660D01*
X001752Y003648D01*
X001759Y003638D01*
X001769Y003628D01*
Y003622D01*
X001775Y003607D01*
X001786Y003596D01*
X001801Y003590D01*
X001817D01*
X001831Y003596D01*
X001842Y003607D01*
X001849Y003622D01*
Y003638D01*
X001847Y003641D01*
X001840Y003662D01*
X001840Y003662D01*
X001840Y003662D01*
Y003698D01*
X001846Y003703D01*
X001863Y003711D01*
X001872Y003707D01*
X001888D01*
X001903Y003713D01*
X001914Y003724D01*
X001920Y003739D01*
Y003739D01*
X001966Y003785D01*
X002045D01*
Y003895D01*
D02*
G37*
G36*
X004603Y003832D02*
X004563D01*
Y003767D01*
X004603D01*
Y003832D01*
D02*
G37*
G36*
X004523D02*
X004483D01*
Y003767D01*
X004523D01*
Y003832D01*
D02*
G37*
G36*
X001263D02*
X001223D01*
Y003767D01*
X001263D01*
Y003832D01*
D02*
G37*
G36*
X001183D02*
X001143D01*
Y003767D01*
X001183D01*
Y003832D01*
D02*
G37*
G36*
X005575Y003885D02*
X005510D01*
X005445D01*
X005447Y003873D01*
X005456Y003860D01*
X005467Y003853D01*
X005468Y003851D01*
X005464Y003830D01*
X005445D01*
Y003720D01*
X005568D01*
X005576Y003712D01*
X005590Y003706D01*
X005606D01*
X005621Y003712D01*
X005632Y003723D01*
X005638Y003738D01*
Y003754D01*
X005632Y003769D01*
X005621Y003780D01*
X005606Y003786D01*
X005606D01*
X005600Y003793D01*
X005588Y003800D01*
X005575Y003803D01*
Y003830D01*
X005557D01*
X005553Y003851D01*
X005553Y003853D01*
X005565Y003860D01*
X005573Y003873D01*
X005575Y003885D01*
D02*
G37*
G36*
X004418Y004175D02*
X004388D01*
Y004130D01*
X004378Y004113D01*
X004367Y004110D01*
X004360D01*
X004346Y004104D01*
X004334Y004093D01*
X004328Y004078D01*
Y004062D01*
X004332Y004052D01*
Y004010D01*
X004308D01*
Y003840D01*
X004308D01*
X004308Y003832D01*
X004308D01*
X004308Y003818D01*
Y003662D01*
X004428D01*
Y003832D01*
X004428D01*
X004428Y003840D01*
X004428D01*
X004428Y003854D01*
Y004010D01*
X004404D01*
Y004051D01*
X004408Y004062D01*
Y004078D01*
X004402Y004093D01*
X004402Y004093D01*
X004412Y004115D01*
X004418D01*
Y004175D01*
D02*
G37*
G36*
X004603Y003727D02*
X004563D01*
Y003662D01*
X004603D01*
Y003727D01*
D02*
G37*
G36*
X004523D02*
X004483D01*
Y003662D01*
X004523D01*
Y003727D01*
D02*
G37*
G36*
X001263D02*
X001223D01*
Y003662D01*
X001263D01*
Y003727D01*
D02*
G37*
G36*
X001183D02*
X001143D01*
Y003662D01*
X001183D01*
Y003727D01*
D02*
G37*
G36*
X003651Y002875D02*
X003635D01*
X003620Y002869D01*
X003609Y002858D01*
X003603Y002843D01*
Y002827D01*
X003609Y002812D01*
X003620Y002801D01*
X003635Y002795D01*
X003640D01*
Y002765D01*
X003617Y002755D01*
X003615Y002757D01*
X003600Y002763D01*
X003584D01*
X003569Y002757D01*
X003558Y002746D01*
X003555Y002737D01*
X003505Y002687D01*
X003503Y002685D01*
X003435D01*
Y002575D01*
X003565D01*
Y002646D01*
X003603Y002685D01*
X003615Y002690D01*
X003617Y002692D01*
X003640Y002682D01*
Y002638D01*
X003760D01*
Y002808D01*
X003735D01*
Y002817D01*
X003733Y002831D01*
X003725Y002843D01*
X003707Y002860D01*
X003696Y002868D01*
X003682Y002871D01*
X003661D01*
X003651Y002875D01*
D02*
G37*
G36*
X007677Y002808D02*
X007637D01*
Y002743D01*
X007677D01*
Y002808D01*
D02*
G37*
G36*
X004337D02*
X004297D01*
Y002743D01*
X004337D01*
Y002808D01*
D02*
G37*
G36*
X007597D02*
X007557D01*
Y002743D01*
X007597D01*
Y002808D01*
D02*
G37*
G36*
X004257D02*
X004217D01*
Y002743D01*
X004257D01*
Y002808D01*
D02*
G37*
G36*
X008042Y002808D02*
X007922D01*
Y002652D01*
X007922Y002630D01*
X007922Y002616D01*
Y002565D01*
X008042D01*
Y002616D01*
X008042Y002638D01*
X008042Y002652D01*
Y002689D01*
X008129D01*
X008139Y002685D01*
X008155D01*
X008170Y002691D01*
X008181Y002702D01*
X008187Y002717D01*
Y002733D01*
X008181Y002748D01*
X008170Y002759D01*
X008155Y002765D01*
X008139D01*
X008129Y002761D01*
X008042D01*
Y002808D01*
D02*
G37*
G36*
X007677Y002703D02*
X007637D01*
Y002638D01*
X007677D01*
Y002703D01*
D02*
G37*
G36*
X007597D02*
X007557D01*
Y002638D01*
X007597D01*
Y002703D01*
D02*
G37*
G36*
X004337D02*
X004297D01*
Y002638D01*
X004337D01*
Y002703D01*
D02*
G37*
G36*
X004257D02*
X004217D01*
Y002638D01*
X004257D01*
Y002703D01*
D02*
G37*
G36*
X000567Y002633D02*
Y002567D01*
X000633D01*
X000629Y002581D01*
X000617Y002601D01*
X000601Y002618D01*
X000581Y002629D01*
X000567Y002633D01*
D02*
G37*
G36*
X000527D02*
X000512Y002629D01*
X000492Y002618D01*
X000476Y002601D01*
X000464Y002581D01*
X000460Y002567D01*
X000527D01*
Y002633D01*
D02*
G37*
G36*
X000367D02*
Y002567D01*
X000433D01*
X000429Y002581D01*
X000417Y002601D01*
X000401Y002618D01*
X000381Y002629D01*
X000367Y002633D01*
D02*
G37*
G36*
X000327D02*
X000312Y002629D01*
X000292Y002618D01*
X000276Y002601D01*
X000264Y002581D01*
X000260Y002567D01*
X000327D01*
Y002633D01*
D02*
G37*
G36*
X003375Y002545D02*
X003330D01*
Y002509D01*
X003337D01*
X003352Y002512D01*
X003364Y002520D01*
X003373Y002533D01*
X003375Y002545D01*
D02*
G37*
G36*
X003290D02*
X003245D01*
X003247Y002533D01*
X003255Y002520D01*
X003268Y002512D01*
X003282Y002509D01*
X003290D01*
Y002545D01*
D02*
G37*
G36*
X000633Y002527D02*
X000567D01*
Y002460D01*
X000581Y002464D01*
X000601Y002476D01*
X000617Y002492D01*
X000629Y002513D01*
X000633Y002527D01*
D02*
G37*
G36*
X000527D02*
X000460D01*
X000464Y002513D01*
X000476Y002492D01*
X000492Y002476D01*
X000512Y002464D01*
X000527Y002460D01*
Y002527D01*
D02*
G37*
G36*
X000433D02*
X000367D01*
Y002460D01*
X000381Y002464D01*
X000401Y002476D01*
X000417Y002492D01*
X000429Y002513D01*
X000433Y002527D01*
D02*
G37*
G36*
X000327D02*
X000260D01*
X000264Y002513D01*
X000276Y002492D01*
X000292Y002476D01*
X000312Y002464D01*
X000327Y002460D01*
Y002527D01*
D02*
G37*
G36*
X008042Y002525D02*
X008002D01*
Y002460D01*
X008042D01*
Y002525D01*
D02*
G37*
G36*
X007962D02*
X007922D01*
Y002460D01*
X007962D01*
Y002525D01*
D02*
G37*
G36*
X004702D02*
X004662D01*
Y002460D01*
X004702D01*
Y002525D01*
D02*
G37*
G36*
X004622D02*
X004582D01*
Y002460D01*
X004622D01*
Y002525D01*
D02*
G37*
G36*
X006715Y002415D02*
X006670D01*
Y002379D01*
X006677D01*
X006692Y002382D01*
X006704Y002390D01*
X006713Y002403D01*
X006715Y002415D01*
D02*
G37*
G36*
X006630D02*
X006585D01*
X006587Y002403D01*
X006595Y002390D01*
X006608Y002382D01*
X006622Y002379D01*
X006630D01*
Y002415D01*
D02*
G37*
G36*
X008417Y002765D02*
X008373D01*
X008331Y002756D01*
X008291Y002740D01*
X008255Y002716D01*
X008224Y002685D01*
X008200Y002649D01*
X008184Y002609D01*
X008175Y002566D01*
Y002523D01*
X008184Y002481D01*
X008200Y002440D01*
X008224Y002404D01*
X008255Y002374D01*
X008291Y002350D01*
X008331Y002333D01*
X008373Y002325D01*
X008417D01*
X008459Y002333D01*
X008499Y002350D01*
X008535Y002374D01*
X008566Y002404D01*
X008590Y002440D01*
X008607Y002481D01*
X008615Y002523D01*
Y002566D01*
X008607Y002609D01*
X008590Y002649D01*
X008566Y002685D01*
X008535Y002716D01*
X008499Y002740D01*
X008459Y002756D01*
X008417Y002765D01*
D02*
G37*
G36*
X007852Y002808D02*
X007732D01*
Y002638D01*
X007732D01*
X007732Y002630D01*
X007732D01*
X007732Y002616D01*
Y002460D01*
X007756D01*
Y002419D01*
X007752Y002408D01*
Y002392D01*
X007755Y002383D01*
X007747Y002366D01*
X007742Y002361D01*
Y002301D01*
X007772D01*
Y002340D01*
X007784Y002360D01*
X007800Y002360D01*
X007814Y002366D01*
X007826Y002377D01*
X007832Y002392D01*
Y002408D01*
X007828Y002418D01*
Y002460D01*
X007852D01*
Y002630D01*
X007852D01*
X007852Y002638D01*
X007852D01*
X007852Y002652D01*
Y002808D01*
D02*
G37*
G36*
X004512D02*
X004392D01*
Y002638D01*
X004392D01*
X004392Y002630D01*
X004392D01*
X004392Y002616D01*
Y002460D01*
X004416D01*
Y002419D01*
X004412Y002408D01*
Y002392D01*
X004415Y002383D01*
X004407Y002366D01*
X004402Y002361D01*
Y002301D01*
X004432D01*
Y002340D01*
X004444Y002360D01*
X004460Y002360D01*
X004474Y002366D01*
X004486Y002377D01*
X004492Y002392D01*
Y002408D01*
X004488Y002418D01*
Y002460D01*
X004512D01*
Y002630D01*
X004512D01*
X004512Y002638D01*
X004512D01*
X004512Y002652D01*
Y002808D01*
D02*
G37*
G36*
X000358Y002435D02*
X000335D01*
X000312Y002429D01*
X000292Y002418D01*
X000276Y002401D01*
X000264Y002381D01*
X000258Y002358D01*
Y002335D01*
X000264Y002313D01*
X000276Y002292D01*
X000292Y002276D01*
X000312Y002264D01*
X000335Y002258D01*
X000358D01*
X000381Y002264D01*
X000401Y002276D01*
X000417Y002292D01*
X000429Y002313D01*
X000435Y002335D01*
Y002358D01*
X000429Y002381D01*
X000417Y002401D01*
X000401Y002418D01*
X000381Y002429D01*
X000358Y002435D01*
D02*
G37*
G36*
X000558Y002435D02*
X000535D01*
X000512Y002429D01*
X000492Y002418D01*
X000476Y002401D01*
X000464Y002381D01*
X000458Y002358D01*
Y002335D01*
X000464Y002313D01*
X000476Y002292D01*
X000492Y002276D01*
X000512Y002264D01*
X000535Y002258D01*
X000558D01*
X000581Y002264D01*
X000601Y002276D01*
X000617Y002292D01*
X000629Y002313D01*
X000635Y002335D01*
Y002358D01*
X000629Y002381D01*
X000617Y002401D01*
X000601Y002418D01*
X000581Y002429D01*
X000558Y002435D01*
D02*
G37*
G36*
X003031Y002245D02*
X003009D01*
X002989Y002237D01*
X002973Y002221D01*
X002965Y002201D01*
Y002179D01*
X002973Y002159D01*
X002989Y002143D01*
X003009Y002135D01*
X003031D01*
X003051Y002143D01*
X003067Y002159D01*
X003075Y002179D01*
Y002201D01*
X003067Y002221D01*
X003051Y002237D01*
X003031Y002245D01*
D02*
G37*
G36*
X002090Y002011D02*
Y001980D01*
X002121D01*
X002117Y001991D01*
X002101Y002007D01*
X002090Y002011D01*
D02*
G37*
G36*
X002050D02*
X002039Y002007D01*
X002023Y001991D01*
X002019Y001980D01*
X002050D01*
Y002011D01*
D02*
G37*
G36*
X002121Y001940D02*
X002090D01*
Y001909D01*
X002101Y001913D01*
X002117Y001929D01*
X002121Y001940D01*
D02*
G37*
G36*
X002050D02*
X002019D01*
X002023Y001929D01*
X002039Y001913D01*
X002050Y001909D01*
Y001940D01*
D02*
G37*
G36*
X001454Y002149D02*
X001432D01*
X001412Y002141D01*
X001397Y002125D01*
X001388Y002105D01*
Y002091D01*
X001315Y002017D01*
X001245D01*
Y001848D01*
X001365D01*
Y001967D01*
X001437Y002039D01*
X001443D01*
X001515Y001967D01*
Y001848D01*
X001635D01*
Y002017D01*
X001565D01*
X001498Y002085D01*
Y002105D01*
X001490Y002125D01*
X001474Y002141D01*
X001454Y002149D01*
D02*
G37*
G36*
X001594Y001800D02*
Y001752D01*
X001642D01*
X001640Y001760D01*
X001631Y001776D01*
X001618Y001789D01*
X001602Y001798D01*
X001594Y001800D01*
D02*
G37*
G36*
X001326D02*
Y001752D01*
X001373D01*
X001371Y001760D01*
X001362Y001776D01*
X001349Y001789D01*
X001333Y001798D01*
X001326Y001800D01*
D02*
G37*
G36*
X001555D02*
X001547Y001798D01*
X001531Y001789D01*
X001518Y001776D01*
X001509Y001760D01*
X001507Y001752D01*
X001555D01*
Y001800D01*
D02*
G37*
G36*
X001285D02*
X001278Y001798D01*
X001262Y001789D01*
X001249Y001776D01*
X001240Y001760D01*
X001238Y001752D01*
X001285D01*
Y001800D01*
D02*
G37*
G36*
X006709Y001738D02*
X006669D01*
Y001673D01*
X006709D01*
Y001738D01*
D02*
G37*
G36*
X006629D02*
X006589D01*
Y001673D01*
X006629D01*
Y001738D01*
D02*
G37*
G36*
X003369D02*
X003329D01*
Y001673D01*
X003369D01*
Y001738D01*
D02*
G37*
G36*
X003289D02*
X003249D01*
Y001673D01*
X003289D01*
Y001738D01*
D02*
G37*
G36*
X001642Y001712D02*
X001594D01*
Y001665D01*
X001602Y001667D01*
X001618Y001676D01*
X001631Y001689D01*
X001640Y001705D01*
X001642Y001712D01*
D02*
G37*
G36*
X001373D02*
X001326D01*
Y001665D01*
X001333Y001667D01*
X001349Y001676D01*
X001362Y001689D01*
X001371Y001705D01*
X001373Y001712D01*
D02*
G37*
G36*
X001555D02*
X001507D01*
X001509Y001705D01*
X001518Y001689D01*
X001531Y001676D01*
X001547Y001667D01*
X001555Y001665D01*
Y001712D01*
D02*
G37*
G36*
X001285D02*
X001238D01*
X001240Y001705D01*
X001249Y001689D01*
X001262Y001676D01*
X001278Y001667D01*
X001285Y001665D01*
Y001712D01*
D02*
G37*
G36*
X001825Y002017D02*
X001705D01*
Y001848D01*
X001734D01*
Y001797D01*
X001722Y001789D01*
X001708Y001776D01*
X001699Y001760D01*
X001694Y001742D01*
Y001723D01*
X001699Y001705D01*
X001708Y001689D01*
X001722Y001676D01*
X001738Y001667D01*
X001756Y001662D01*
X001774D01*
X001792Y001667D01*
X001808Y001676D01*
X001822Y001689D01*
X001831Y001705D01*
X001836Y001723D01*
Y001742D01*
X001831Y001760D01*
X001822Y001776D01*
X001808Y001789D01*
X001796Y001797D01*
Y001848D01*
X001825D01*
Y002017D01*
D02*
G37*
G36*
X001175Y002017D02*
X001055D01*
Y001848D01*
X001084D01*
Y001797D01*
X001072Y001789D01*
X001058Y001776D01*
X001049Y001760D01*
X001044Y001742D01*
Y001723D01*
X001049Y001705D01*
X001058Y001689D01*
X001072Y001676D01*
X001088Y001667D01*
X001106Y001662D01*
X001124D01*
X001142Y001667D01*
X001158Y001676D01*
X001172Y001689D01*
X001181Y001705D01*
X001186Y001723D01*
Y001742D01*
X001181Y001760D01*
X001172Y001776D01*
X001158Y001789D01*
X001146Y001797D01*
Y001848D01*
X001175D01*
Y002017D01*
D02*
G37*
G36*
X000417Y002065D02*
X000373D01*
X000331Y002057D01*
X000291Y002040D01*
X000255Y002016D01*
X000224Y001985D01*
X000200Y001949D01*
X000183Y001909D01*
X000175Y001867D01*
Y001823D01*
X000183Y001781D01*
X000200Y001741D01*
X000224Y001705D01*
X000255Y001674D01*
X000291Y001650D01*
X000331Y001633D01*
X000373Y001625D01*
X000417D01*
X000459Y001633D01*
X000499Y001650D01*
X000535Y001674D01*
X000566Y001705D01*
X000590Y001741D01*
X000607Y001781D01*
X000615Y001823D01*
Y001867D01*
X000607Y001909D01*
X000590Y001949D01*
X000566Y001985D01*
X000535Y002016D01*
X000499Y002040D01*
X000459Y002057D01*
X000417Y002065D01*
D02*
G37*
G36*
X006570Y001340D02*
X006554D01*
X006539Y001334D01*
X006528Y001323D01*
X006522Y001308D01*
Y001292D01*
X006528Y001277D01*
X006539Y001266D01*
X006554Y001260D01*
X006564D01*
X006571Y001258D01*
X006584Y001242D01*
Y001145D01*
X006603D01*
X006607Y001124D01*
X006606Y001122D01*
X006595Y001114D01*
X006587Y001102D01*
X006584Y001090D01*
X006649D01*
Y001070D01*
D01*
Y001090D01*
X006715D01*
X006712Y001102D01*
X006704Y001114D01*
X006692Y001122D01*
X006692Y001124D01*
X006696Y001145D01*
X006714D01*
Y001255D01*
X006684D01*
Y001262D01*
X006681Y001276D01*
X006673Y001287D01*
X006635Y001325D01*
X006624Y001333D01*
X006610Y001336D01*
X006580D01*
X006570Y001340D01*
D02*
G37*
G36*
X006715Y001050D02*
X006669D01*
Y001014D01*
X006677D01*
X006692Y001017D01*
X006704Y001025D01*
X006712Y001038D01*
X006715Y001050D01*
D02*
G37*
G36*
X006629D02*
X006584D01*
X006587Y001038D01*
X006595Y001025D01*
X006607Y001017D01*
X006622Y001014D01*
X006629D01*
Y001050D01*
D02*
G37*
G36*
X003375D02*
X003329D01*
Y001014D01*
X003337D01*
X003352Y001017D01*
X003364Y001025D01*
X003372Y001038D01*
X003375Y001050D01*
D02*
G37*
G36*
X003289D02*
X003244D01*
X003247Y001038D01*
X003255Y001025D01*
X003267Y001017D01*
X003282Y001014D01*
X003289D01*
Y001050D01*
D02*
G37*
G36*
X003950Y001098D02*
X003890D01*
X003830D01*
Y001048D01*
X003830Y001033D01*
X003830Y001011D01*
Y000855D01*
X003842D01*
X003852Y000832D01*
X003850Y000828D01*
Y000812D01*
X003856Y000797D01*
X003868Y000786D01*
X003882Y000780D01*
X003898D01*
X003913Y000786D01*
X003924Y000797D01*
X003930Y000812D01*
Y000828D01*
X003928Y000832D01*
X003939Y000855D01*
X003950D01*
Y001011D01*
X003950Y001025D01*
X003950Y001048D01*
Y001098D01*
D02*
G37*
G36*
X004086Y000890D02*
X004054D01*
X004024Y000882D01*
X003996Y000866D01*
X003974Y000844D01*
X003958Y000816D01*
X003950Y000786D01*
Y000754D01*
X003958Y000724D01*
X003974Y000696D01*
X003996Y000674D01*
X004024Y000658D01*
X004054Y000650D01*
X004086D01*
X004116Y000658D01*
X004144Y000674D01*
X004166Y000696D01*
X004182Y000724D01*
X004190Y000754D01*
Y000786D01*
X004182Y000816D01*
X004166Y000844D01*
X004144Y000866D01*
X004116Y000882D01*
X004086Y000890D01*
D02*
G37*
G36*
X003996Y000570D02*
X003964D01*
X003934Y000562D01*
X003906Y000546D01*
X003884Y000524D01*
X003868Y000496D01*
X003860Y000466D01*
Y000434D01*
X003868Y000404D01*
X003884Y000376D01*
X003906Y000354D01*
X003934Y000338D01*
X003964Y000330D01*
X003996D01*
X004026Y000338D01*
X004054Y000354D01*
X004076Y000376D01*
X004092Y000404D01*
X004100Y000434D01*
Y000466D01*
X004092Y000496D01*
X004076Y000524D01*
X004054Y000546D01*
X004026Y000562D01*
X003996Y000570D01*
D02*
G37*
G36*
X007013Y000615D02*
X006970D01*
X006927Y000607D01*
X006887Y000590D01*
X006851Y000566D01*
X006821Y000535D01*
X006796Y000499D01*
X006780Y000459D01*
X006771Y000417D01*
Y000373D01*
X006780Y000331D01*
X006796Y000291D01*
X006821Y000255D01*
X006851Y000224D01*
X006887Y000200D01*
X006927Y000183D01*
X006970Y000175D01*
X007013D01*
X007056Y000183D01*
X007096Y000200D01*
X007132Y000224D01*
X007162Y000255D01*
X007186Y000291D01*
X007203Y000331D01*
X007211Y000373D01*
Y000417D01*
X007203Y000459D01*
X007186Y000499D01*
X007162Y000535D01*
X007132Y000566D01*
X007096Y000590D01*
X007056Y000607D01*
X007013Y000615D01*
D02*
G37*
G36*
X003367D02*
X003323D01*
X003281Y000607D01*
X003241Y000590D01*
X003205Y000566D01*
X003174Y000535D01*
X003150Y000499D01*
X003133Y000459D01*
X003125Y000417D01*
Y000373D01*
X003133Y000331D01*
X003150Y000291D01*
X003174Y000255D01*
X003205Y000224D01*
X003241Y000200D01*
X003281Y000183D01*
X003323Y000175D01*
X003367D01*
X003409Y000183D01*
X003449Y000200D01*
X003485Y000224D01*
X003516Y000255D01*
X003540Y000291D01*
X003557Y000331D01*
X003565Y000373D01*
Y000417D01*
X003557Y000459D01*
X003540Y000499D01*
X003516Y000535D01*
X003485Y000566D01*
X003449Y000590D01*
X003409Y000607D01*
X003367Y000615D01*
D02*
G37*
G36*
X001445Y005630D02*
X001430D01*
Y005615D01*
X001433Y005616D01*
X001444Y005627D01*
X001445Y005630D01*
D02*
G37*
G36*
X001390D02*
X001375D01*
X001376Y005627D01*
X001387Y005616D01*
X001390Y005615D01*
Y005630D01*
D02*
G37*
G36*
X002639Y004197D02*
Y004182D01*
X002654D01*
X002652Y004185D01*
X002641Y004196D01*
X002639Y004197D01*
D02*
G37*
G36*
X002599D02*
X002596Y004196D01*
X002585Y004185D01*
X002584Y004182D01*
X002599D01*
Y004197D01*
D02*
G37*
G36*
X002654Y004142D02*
X002639D01*
Y004127D01*
X002641Y004128D01*
X002652Y004139D01*
X002654Y004142D01*
D02*
G37*
G36*
X002599D02*
X002584D01*
X002585Y004139D01*
X002596Y004128D01*
X002599Y004127D01*
Y004142D01*
D02*
G37*
G36*
X002568Y004010D02*
X002528D01*
Y003945D01*
X002568D01*
Y004010D01*
D02*
G37*
G36*
X002488D02*
X002448D01*
Y003945D01*
X002488D01*
Y004010D01*
D02*
G37*
G36*
X002933Y003832D02*
X002893D01*
Y003767D01*
X002933D01*
Y003832D01*
D02*
G37*
G36*
X002853D02*
X002813D01*
Y003767D01*
X002853D01*
Y003832D01*
D02*
G37*
G36*
X002748Y004175D02*
X002718D01*
Y004130D01*
X002708Y004113D01*
X002697Y004110D01*
X002690D01*
X002676Y004104D01*
X002664Y004093D01*
X002658Y004078D01*
Y004062D01*
X002662Y004052D01*
Y004010D01*
X002638D01*
Y003840D01*
X002638D01*
X002638Y003832D01*
X002638D01*
X002638Y003818D01*
Y003662D01*
X002758D01*
Y003832D01*
X002758D01*
X002758Y003840D01*
X002758D01*
X002758Y003854D01*
Y004010D01*
X002734D01*
Y004051D01*
X002738Y004062D01*
Y004078D01*
X002732Y004093D01*
X002732Y004093D01*
X002742Y004115D01*
X002748D01*
Y004175D01*
D02*
G37*
G36*
X002933Y003727D02*
X002893D01*
Y003662D01*
X002933D01*
Y003727D01*
D02*
G37*
G36*
X002853D02*
X002813D01*
Y003662D01*
X002853D01*
Y003727D01*
D02*
G37*
G36*
X003880Y004660D02*
X003865D01*
X003866Y004657D01*
X003877Y004646D01*
X003880Y004645D01*
Y004660D01*
D02*
G37*
G36*
X003868Y003961D02*
X003860D01*
Y003925D01*
X003905D01*
X003903Y003937D01*
X003895Y003950D01*
X003882Y003958D01*
X003868Y003961D01*
D02*
G37*
G36*
X005045Y002545D02*
X005000D01*
Y002509D01*
X005007D01*
X005022Y002512D01*
X005034Y002520D01*
X005043Y002533D01*
X005045Y002545D01*
D02*
G37*
G36*
X004960D02*
X004915D01*
X004917Y002533D01*
X004925Y002520D01*
X004938Y002512D01*
X004952Y002509D01*
X004960D01*
Y002545D01*
D02*
G37*
G36*
X005001Y001866D02*
Y001851D01*
X005016D01*
X005015Y001853D01*
X005003Y001865D01*
X005001Y001866D01*
D02*
G37*
G36*
X004961D02*
X004958Y001865D01*
X004947Y001853D01*
X004946Y001851D01*
X004961D01*
Y001866D01*
D02*
G37*
G36*
X005016Y001811D02*
X005001D01*
Y001796D01*
X005003Y001797D01*
X005015Y001808D01*
X005016Y001811D01*
D02*
G37*
G36*
X004961D02*
X004946D01*
X004947Y001808D01*
X004958Y001797D01*
X004961Y001796D01*
Y001811D01*
D02*
G37*
G36*
X005039Y001738D02*
X004999D01*
Y001673D01*
X005039D01*
Y001738D01*
D02*
G37*
G36*
X004959D02*
X004919D01*
Y001673D01*
X004959D01*
Y001738D01*
D02*
G37*
G36*
X004900Y001340D02*
X004884D01*
X004869Y001334D01*
X004858Y001323D01*
X004852Y001308D01*
Y001292D01*
X004858Y001277D01*
X004869Y001266D01*
X004884Y001260D01*
X004894D01*
X004901Y001258D01*
X004914Y001242D01*
Y001145D01*
X004933D01*
X004937Y001124D01*
X004936Y001122D01*
X004925Y001114D01*
X004917Y001102D01*
X004914Y001090D01*
X004979D01*
X005045D01*
X005042Y001102D01*
X005034Y001114D01*
X005022Y001122D01*
X005022Y001124D01*
X005026Y001145D01*
X005044D01*
Y001255D01*
X005014D01*
Y001262D01*
X005011Y001276D01*
X005003Y001287D01*
X004965Y001325D01*
X004954Y001333D01*
X004940Y001336D01*
X004910D01*
X004900Y001340D01*
D02*
G37*
G36*
X005045Y001050D02*
X004999D01*
Y001014D01*
X005007D01*
X005022Y001017D01*
X005034Y001025D01*
X005042Y001038D01*
X005045Y001050D01*
D02*
G37*
G36*
X004959D02*
X004914D01*
X004917Y001038D01*
X004925Y001025D01*
X004937Y001017D01*
X004952Y001014D01*
X004959D01*
Y001050D01*
D02*
G37*
G36*
X006007Y002703D02*
X005967D01*
Y002638D01*
X006007D01*
Y002703D01*
D02*
G37*
G36*
X005927D02*
X005887D01*
Y002638D01*
X005927D01*
Y002703D01*
D02*
G37*
G36*
X006292Y002525D02*
X006252D01*
Y002460D01*
X006292D01*
Y002525D01*
D02*
G37*
G36*
X007400Y000905D02*
Y000890D01*
X007415D01*
X007414Y000893D01*
X007403Y000904D01*
X007400Y000905D01*
D02*
G37*
G36*
X007360D02*
X007357Y000904D01*
X007346Y000893D01*
X007345Y000890D01*
X007360D01*
Y000905D01*
D02*
G37*
G36*
X007415Y000850D02*
X007400D01*
Y000835D01*
X007403Y000836D01*
X007414Y000847D01*
X007415Y000850D01*
D02*
G37*
G36*
X007360D02*
X007345D01*
X007346Y000847D01*
X007357Y000836D01*
X007360Y000835D01*
Y000850D01*
D02*
G37*
G36*
X005620Y001098D02*
X005560D01*
X005500D01*
Y001048D01*
X005500Y001033D01*
X005500Y001011D01*
Y000855D01*
X005509D01*
X005521Y000832D01*
X005520Y000830D01*
Y000814D01*
X005526Y000799D01*
X005537Y000788D01*
X005552Y000782D01*
X005568D01*
X005582Y000788D01*
X005594Y000799D01*
X005600Y000814D01*
Y000830D01*
X005599Y000832D01*
X005605Y000847D01*
X005610Y000855D01*
X005620D01*
Y001011D01*
X005620Y001025D01*
X005620Y001048D01*
Y001098D01*
D02*
G37*
G36*
X005390Y000829D02*
Y000730D01*
X005489D01*
X005482Y000756D01*
X005466Y000784D01*
X005444Y000806D01*
X005416Y000822D01*
X005390Y000829D01*
D02*
G37*
G36*
X005350D02*
X005324Y000822D01*
X005296Y000806D01*
X005274Y000784D01*
X005258Y000756D01*
X005251Y000730D01*
X005350D01*
Y000829D01*
D02*
G37*
G36*
X005489Y000690D02*
X005390D01*
Y000591D01*
X005416Y000598D01*
X005444Y000614D01*
X005466Y000636D01*
X005482Y000664D01*
X005489Y000690D01*
D02*
G37*
G36*
X005350D02*
X005251D01*
X005258Y000664D01*
X005274Y000636D01*
X005296Y000614D01*
X005324Y000598D01*
X005350Y000591D01*
Y000690D01*
D02*
G37*
G36*
X005751Y000721D02*
X005701D01*
X005678Y000718D01*
X005656Y000709D01*
X005637Y000694D01*
X005622Y000675D01*
X005613Y000653D01*
X005610Y000630D01*
Y000580D01*
X005751D01*
Y000721D01*
D02*
G37*
G36*
X005390Y000529D02*
Y000430D01*
X005489D01*
X005482Y000456D01*
X005466Y000484D01*
X005444Y000506D01*
X005416Y000522D01*
X005390Y000529D01*
D02*
G37*
G36*
X005350D02*
X005324Y000522D01*
X005296Y000506D01*
X005274Y000484D01*
X005258Y000456D01*
X005251Y000430D01*
X005350D01*
Y000529D01*
D02*
G37*
G36*
X005751Y000540D02*
X005610D01*
Y000490D01*
X005613Y000467D01*
X005622Y000445D01*
X005637Y000426D01*
X005656Y000411D01*
X005678Y000402D01*
X005701Y000399D01*
X005751D01*
Y000540D01*
D02*
G37*
%LPD*%
D11*
X000220Y004220D02*
X000347Y004347D01*
X000220Y003534D02*
Y004220D01*
X000632Y003448D02*
X000810Y003270D01*
X000567Y003448D02*
X000632D01*
D13*
X000220Y003534D02*
X000306Y003448D01*
X000446Y003847D02*
X000643D01*
X000446Y003847D02*
X000446Y003847D01*
X000347Y003947D02*
X000446Y003847D01*
X000446Y002847D02*
X000607D01*
X000347Y002947D02*
X000446Y002847D01*
X000363Y003147D02*
X000463Y003047D01*
X000611D01*
X000347Y003347D02*
X000445Y003248D01*
X000602D01*
X000603Y003247D01*
X000347Y003147D02*
X000363D01*
X000306Y003448D02*
X000567D01*
X000567Y003448D01*
X000928Y003631D02*
X000950Y003610D01*
X001010D02*
X001010Y003610D01*
X000950Y003610D02*
X001010D01*
X000838Y003722D02*
X000928Y003631D01*
X000928D01*
X000838Y003722D02*
Y003747D01*
X006940Y002550D02*
X006941Y002551D01*
Y002641D01*
X007021Y002721D01*
X007050D01*
X007055Y002727D01*
Y002755D01*
X001115Y001733D02*
Y001933D01*
X001765Y001733D02*
Y001933D01*
X003450Y003722D02*
X003540Y003632D01*
Y003630D02*
Y003632D01*
X003450Y003722D02*
Y003747D01*
X001780Y003660D02*
Y003747D01*
Y003660D02*
X001800Y003640D01*
X002400Y003795D02*
X002448Y003747D01*
X002508D01*
X002400Y003795D02*
Y003800D01*
X004174Y003750D02*
X004178Y003747D01*
X004070Y003800D02*
X004120Y003750D01*
X004174D01*
X004642Y002723D02*
X004644Y002721D01*
X004751D01*
D15*
X007890Y001174D02*
Y001762D01*
X007724Y001174D02*
X007890D01*
X007724Y000982D02*
Y001174D01*
X007617Y001117D02*
Y001302D01*
X007427Y001117D02*
Y001296D01*
X007617Y001302D02*
X007796D01*
X007722Y001520D02*
Y001583D01*
Y001520D02*
X007796Y001447D01*
Y001302D02*
Y001447D01*
X007427Y001297D02*
Y001476D01*
X007468Y001518D01*
Y001583D01*
X007523Y000982D02*
X007724D01*
X007596Y001517D02*
Y001582D01*
X007553Y001473D02*
X007596Y001517D01*
X007523Y001443D02*
X007523Y000982D01*
X007523Y001443D02*
X007553Y001473D01*
X005853Y001443D02*
X005883Y001473D01*
X005853Y001443D02*
X005853Y000982D01*
X005883Y001473D02*
X005926Y001517D01*
Y001582D01*
X005853Y000982D02*
X006054D01*
X005798Y001518D02*
Y001583D01*
X005757Y001476D02*
X005798Y001518D01*
X005757Y001297D02*
Y001476D01*
X006126Y001302D02*
Y001447D01*
X006052Y001520D02*
X006126Y001447D01*
X006052Y001520D02*
Y001583D01*
X005947Y001302D02*
X006126D01*
X005757Y001117D02*
Y001296D01*
X005947Y001117D02*
Y001302D01*
X006054Y000982D02*
Y001174D01*
X006220D01*
Y001762D01*
X004550Y001174D02*
Y001762D01*
X004384Y001174D02*
X004550D01*
X004384Y000982D02*
Y001174D01*
X004277Y001117D02*
Y001302D01*
X004087Y001117D02*
Y001296D01*
X004277Y001302D02*
X004456D01*
X004382Y001520D02*
Y001583D01*
Y001520D02*
X004456Y001447D01*
Y001302D02*
Y001447D01*
X004087Y001297D02*
Y001476D01*
X004128Y001518D01*
Y001583D01*
X004183Y000982D02*
X004384D01*
X004256Y001517D02*
Y001582D01*
X004213Y001473D02*
X004256Y001517D01*
X004183Y001443D02*
X004183Y000982D01*
X004183Y001443D02*
X004213Y001473D01*
X004607Y005003D02*
X004637Y005033D01*
X004637Y005494D02*
X004637Y005033D01*
X004564Y004959D02*
X004607Y005003D01*
X004564Y004894D02*
Y004959D01*
X004436Y005494D02*
X004637D01*
X004692Y004893D02*
Y004958D01*
X004733Y005000D01*
Y005179D01*
X004364Y005029D02*
Y005174D01*
Y005029D02*
X004438Y004956D01*
Y004893D02*
Y004956D01*
X004364Y005174D02*
X004543D01*
X004733Y005180D02*
Y005359D01*
X004543Y005174D02*
Y005359D01*
X004436Y005302D02*
Y005494D01*
X004270Y005302D02*
X004436D01*
X004270Y004714D02*
Y005302D01*
X000930Y004714D02*
Y005302D01*
X001096D01*
Y005494D01*
X001203Y005174D02*
Y005359D01*
X001393Y005180D02*
Y005359D01*
X001024Y005174D02*
X001203D01*
X001098Y004893D02*
Y004956D01*
X001024Y005029D02*
X001098Y004956D01*
X001024Y005029D02*
Y005174D01*
X001393Y005000D02*
Y005179D01*
X001352Y004958D02*
X001393Y005000D01*
X001352Y004893D02*
Y004958D01*
X001096Y005494D02*
X001297D01*
X001224Y004894D02*
Y004959D01*
X001267Y005003D01*
X001297Y005494D02*
X001297Y005033D01*
X001267Y005003D02*
X001297Y005033D01*
X002937Y005003D02*
X002967Y005033D01*
X002967Y005494D02*
X002967Y005033D01*
X002894Y004959D02*
X002937Y005003D01*
X002894Y004894D02*
Y004959D01*
X002766Y005494D02*
X002967D01*
X003022Y004893D02*
Y004958D01*
X003063Y005000D01*
Y005179D01*
X002694Y005029D02*
Y005174D01*
Y005029D02*
X002768Y004956D01*
Y004893D02*
Y004956D01*
X002694Y005174D02*
X002873D01*
X003063Y005180D02*
Y005359D01*
X002873Y005174D02*
Y005359D01*
X002766Y005302D02*
Y005494D01*
X002600Y005302D02*
X002766D01*
X002600Y004714D02*
Y005302D01*
X007983Y001133D02*
Y001293D01*
X004860Y003080D02*
X004865D01*
X004912Y003033D01*
X005030D01*
X005015Y003238D02*
X005220D01*
X005518D01*
X005980Y000881D02*
X006009Y000910D01*
X006243D01*
X006313Y000979D01*
Y001293D01*
X003880Y003410D02*
X004000Y003530D01*
X002380Y003410D02*
X003880D01*
X004000Y003530D02*
X004660D01*
X004700Y003490D02*
X004920D01*
X004660Y003530D02*
X004700Y003490D01*
X004827Y003238D02*
X005015D01*
X005220Y003226D02*
X005230Y003236D01*
X005220Y003030D02*
Y003226D01*
X002811Y006151D02*
X002910Y006250D01*
X003710D01*
X003809Y006151D01*
X002335D02*
X002635D01*
X002665D02*
X002811D01*
X002635D02*
X002665D01*
X003809D02*
X003809D01*
X004177Y005783D01*
Y005183D02*
Y005783D01*
X002267Y005730D02*
X002286Y005711D01*
X000837Y005334D02*
X001233Y005730D01*
X002267D01*
X002286Y005711D02*
X002635D01*
X000837Y005183D02*
Y005334D01*
X002656Y005910D02*
X002771D01*
X002810Y005871D01*
Y005670D02*
Y005871D01*
X002635Y005931D02*
X002656Y005910D01*
X002507Y005367D02*
X002810Y005670D01*
X002507Y005183D02*
Y005367D01*
X002335Y005931D02*
X002635D01*
X007600Y000750D02*
X007983Y001133D01*
X006660Y000750D02*
X007600D01*
X006458Y000780D02*
X006630D01*
X006158D02*
X006458D01*
X004825Y003240D02*
X004827Y003238D01*
X005518D02*
X005520Y003236D01*
X005230Y003490D02*
X005520D01*
X004920D02*
X005230D01*
X005980Y000590D02*
Y000881D01*
X006009Y000560D02*
X006158D01*
X005980Y000590D02*
X006009Y000560D01*
X006158D02*
X006158Y000560D01*
X006408D01*
X006630Y000780D02*
X006660Y000750D01*
X005890Y000250D02*
X005974Y000334D01*
X005000Y000250D02*
X005890D01*
X006103Y000334D02*
X006108Y000340D01*
X005974Y000334D02*
X006103D01*
X006094Y000340D02*
X006408D01*
X004643Y000607D02*
X005000Y000250D01*
X004643Y000607D02*
Y001293D01*
D39*
X008046Y002120D02*
D03*
Y001993D02*
D03*
Y002374D02*
D03*
Y001866D02*
D03*
Y002247D02*
D03*
Y001739D02*
D03*
Y001612D02*
D03*
Y001485D02*
D03*
X007020Y001612D02*
D03*
Y002374D02*
D03*
Y002247D02*
D03*
Y002120D02*
D03*
Y001993D02*
D03*
Y001866D02*
D03*
Y001739D02*
D03*
X005350D02*
D03*
Y001866D02*
D03*
Y001993D02*
D03*
Y002120D02*
D03*
Y002247D02*
D03*
Y002374D02*
D03*
Y001612D02*
D03*
X006376Y001485D02*
D03*
Y001612D02*
D03*
Y001739D02*
D03*
Y002247D02*
D03*
Y001866D02*
D03*
Y002374D02*
D03*
Y001993D02*
D03*
Y002120D02*
D03*
X004706D02*
D03*
Y001993D02*
D03*
Y002374D02*
D03*
Y001866D02*
D03*
Y002247D02*
D03*
Y001739D02*
D03*
Y001612D02*
D03*
Y001485D02*
D03*
X003680Y001612D02*
D03*
Y002374D02*
D03*
Y002247D02*
D03*
Y002120D02*
D03*
Y001993D02*
D03*
Y001866D02*
D03*
Y001739D02*
D03*
X005140Y004737D02*
D03*
Y004610D02*
D03*
Y004483D02*
D03*
Y004356D02*
D03*
Y004229D02*
D03*
Y004102D02*
D03*
Y004864D02*
D03*
X004114Y004991D02*
D03*
Y004864D02*
D03*
Y004737D02*
D03*
Y004229D02*
D03*
Y004610D02*
D03*
Y004102D02*
D03*
Y004483D02*
D03*
Y004356D02*
D03*
X000774D02*
D03*
Y004483D02*
D03*
Y004102D02*
D03*
Y004610D02*
D03*
Y004229D02*
D03*
Y004737D02*
D03*
Y004864D02*
D03*
Y004991D02*
D03*
X001800Y004864D02*
D03*
Y004102D02*
D03*
Y004229D02*
D03*
Y004356D02*
D03*
Y004483D02*
D03*
Y004610D02*
D03*
Y004737D02*
D03*
X003470D02*
D03*
Y004610D02*
D03*
Y004483D02*
D03*
Y004356D02*
D03*
Y004229D02*
D03*
Y004102D02*
D03*
Y004864D02*
D03*
X002444Y004991D02*
D03*
Y004864D02*
D03*
Y004737D02*
D03*
Y004229D02*
D03*
Y004610D02*
D03*
Y004102D02*
D03*
Y004483D02*
D03*
Y004356D02*
D03*
D40*
X007468Y001583D02*
D03*
X007595Y002281D02*
D03*
X007341Y001583D02*
D03*
X007722D02*
D03*
X007468Y002281D02*
D03*
X007341D02*
D03*
X007595Y001583D02*
D03*
X005925D02*
D03*
X005671Y002281D02*
D03*
X005798D02*
D03*
X006052Y001583D02*
D03*
X005671D02*
D03*
X005925Y002281D02*
D03*
X005798Y001583D02*
D03*
X004128D02*
D03*
X004255Y002281D02*
D03*
X004001Y001583D02*
D03*
X004382D02*
D03*
X004128Y002281D02*
D03*
X004001D02*
D03*
X004255Y001583D02*
D03*
X004565Y004893D02*
D03*
X004819Y004195D02*
D03*
X004692D02*
D03*
X004438Y004893D02*
D03*
X004819D02*
D03*
X004565Y004195D02*
D03*
X004692Y004893D02*
D03*
X001352D02*
D03*
X001225Y004195D02*
D03*
X001479Y004893D02*
D03*
X001098D02*
D03*
X001352Y004195D02*
D03*
X001479D02*
D03*
X001225Y004893D02*
D03*
X002895D02*
D03*
X003149Y004195D02*
D03*
X003022D02*
D03*
X002768Y004893D02*
D03*
X003149D02*
D03*
X002895Y004195D02*
D03*
X003022Y004893D02*
D03*
D41*
X007722Y002281D02*
D03*
X006052D02*
D03*
X004382D02*
D03*
X004438Y004195D02*
D03*
X001098D02*
D03*
X002768D02*
D03*
D42*
X007020Y001485D02*
D03*
X005350D02*
D03*
X003680D02*
D03*
X005140Y004991D02*
D03*
X001800D02*
D03*
X003470D02*
D03*
D43*
X007427Y001297D02*
D03*
Y001117D02*
D03*
X007617Y001297D02*
D03*
Y001117D02*
D03*
X007793Y001293D02*
D03*
X007983D02*
D03*
X006313D02*
D03*
X006123D02*
D03*
X005947Y001117D02*
D03*
Y001297D02*
D03*
X005757Y001117D02*
D03*
Y001297D02*
D03*
X004087D02*
D03*
Y001117D02*
D03*
X004277Y001297D02*
D03*
Y001117D02*
D03*
X004453Y001293D02*
D03*
X004643D02*
D03*
X004177Y005183D02*
D03*
X004367D02*
D03*
X004543Y005359D02*
D03*
Y005179D02*
D03*
X004733Y005359D02*
D03*
Y005179D02*
D03*
X001393D02*
D03*
Y005359D02*
D03*
X001203Y005179D02*
D03*
Y005359D02*
D03*
X001027Y005183D02*
D03*
X000837D02*
D03*
X002507D02*
D03*
X002697D02*
D03*
X002873Y005359D02*
D03*
Y005179D02*
D03*
X003063Y005359D02*
D03*
Y005179D02*
D03*
X007270Y002723D02*
D03*
X007080D02*
D03*
X007982D02*
D03*
X007792D02*
D03*
X007617Y002723D02*
D03*
X007427D02*
D03*
X007230Y001297D02*
D03*
X007040D02*
D03*
X006840Y001475D02*
D03*
X006650D02*
D03*
X007792Y002545D02*
D03*
X007982D02*
D03*
X007230Y000940D02*
D03*
X007040D02*
D03*
X007230Y001118D02*
D03*
X007040D02*
D03*
X006649Y001653D02*
D03*
X006839D02*
D03*
X004642Y002545D02*
D03*
X004452D02*
D03*
X003700Y000940D02*
D03*
X003890D02*
D03*
X004452Y002723D02*
D03*
X004642D02*
D03*
X004087Y002723D02*
D03*
X004277D02*
D03*
X003310Y001475D02*
D03*
X003500D02*
D03*
X003700Y002723D02*
D03*
X003890D02*
D03*
X003700Y001118D02*
D03*
X003890D02*
D03*
X003700Y001297D02*
D03*
X003890D02*
D03*
X003499Y001653D02*
D03*
X003309D02*
D03*
X005370Y001118D02*
D03*
X005560D02*
D03*
X006122Y002723D02*
D03*
X006312D02*
D03*
X005757Y002723D02*
D03*
X005947D02*
D03*
X005370Y001297D02*
D03*
X005560D02*
D03*
X004980Y001475D02*
D03*
X005170D02*
D03*
X005370Y000940D02*
D03*
X005560D02*
D03*
X005370Y002723D02*
D03*
X005560D02*
D03*
X005169Y001653D02*
D03*
X004979D02*
D03*
X006312Y002545D02*
D03*
X006122D02*
D03*
X001575Y001933D02*
D03*
X001765D02*
D03*
X001305Y001933D02*
D03*
X001115D02*
D03*
X003063Y003747D02*
D03*
X002873D02*
D03*
X001981Y004817D02*
D03*
X002171D02*
D03*
X001780Y005352D02*
D03*
X001590D02*
D03*
X001780Y003747D02*
D03*
X001590D02*
D03*
X001780Y005530D02*
D03*
X001590D02*
D03*
X000838Y003925D02*
D03*
X001028D02*
D03*
X002170Y004995D02*
D03*
X001980D02*
D03*
X001780Y005173D02*
D03*
X001590D02*
D03*
X001393Y003747D02*
D03*
X001203D02*
D03*
X001028Y003747D02*
D03*
X000838D02*
D03*
X003651Y004817D02*
D03*
X003841D02*
D03*
X003450Y005352D02*
D03*
X003260D02*
D03*
X003450Y003747D02*
D03*
X003260D02*
D03*
X003450Y005530D02*
D03*
X003260D02*
D03*
X002508Y003925D02*
D03*
X002698D02*
D03*
X003840Y004995D02*
D03*
X003650D02*
D03*
X003450Y005173D02*
D03*
X003260D02*
D03*
X002698Y003747D02*
D03*
X002508D02*
D03*
X004368D02*
D03*
X004178D02*
D03*
X004733Y003747D02*
D03*
X004543D02*
D03*
X005120Y005173D02*
D03*
X004930D02*
D03*
X005510Y004995D02*
D03*
X005320D02*
D03*
X004178Y003925D02*
D03*
X004368D02*
D03*
X005120Y005530D02*
D03*
X004930D02*
D03*
X005120Y003747D02*
D03*
X004930D02*
D03*
X005120Y005352D02*
D03*
X004930D02*
D03*
X005321Y004817D02*
D03*
X005511D02*
D03*
X005030Y003033D02*
D03*
X005220D02*
D03*
D49*
X000683Y003947D02*
X000740Y003890D01*
Y003680D02*
Y003890D01*
Y003680D02*
X001060Y003360D01*
X000684Y003666D02*
X001039Y003310D01*
X000684Y003666D02*
Y003806D01*
X000643Y003847D02*
X000684Y003806D01*
X000547Y003732D02*
X001019Y003260D01*
X000547Y003732D02*
Y003747D01*
X000834Y002735D02*
X002983D01*
X000607Y002847D02*
X000722D01*
X000834Y002735D01*
X000664Y003047D02*
X000866Y002845D01*
X000611Y003047D02*
X000664D01*
X000866Y002845D02*
X002930D01*
X000547Y002947D02*
X000693D01*
X000850Y002790D02*
X002960D01*
X000693Y002947D02*
X000850Y002790D01*
X000494Y002947D02*
X000557D01*
X000547Y003147D02*
X000643D01*
X000890Y002900D01*
X002999D01*
X004640Y002950D02*
X004837Y002753D01*
X000919Y002950D02*
X004640D01*
X000622Y003247D02*
X000919Y002950D01*
X000603Y003247D02*
X000622D01*
X000567Y003326D02*
X000614D01*
X000940Y003000D01*
X004661D01*
X000547Y003347D02*
X000567Y003326D01*
X001019Y003260D02*
X002051D01*
X001039Y003310D02*
X002031D01*
X000547Y003947D02*
X000683D01*
X007426Y001297D02*
X007427Y001296D01*
X007040Y000820D02*
X007040Y000820D01*
X007229D02*
X007229Y000820D01*
X006678Y000822D02*
X006746D01*
X006839Y000915D01*
X007229Y000820D02*
Y000940D01*
X007040Y000820D02*
Y000940D01*
X007229Y000940D02*
X007230Y000940D01*
X007040D02*
X007040Y000940D01*
X006839Y000915D02*
Y001135D01*
X007040Y000940D02*
Y001118D01*
X006906Y001411D02*
X007271D01*
X007341Y001481D01*
Y001583D01*
X007040Y001118D02*
Y001297D01*
X007040Y001297D01*
X007230D02*
X007426D01*
X006501Y001391D02*
Y002403D01*
X006750Y001880D02*
X006880Y002010D01*
X006839Y001653D02*
X006839Y001653D01*
Y001475D02*
Y001653D01*
X006880Y002010D02*
Y002405D01*
X006501Y002403D02*
Y002519D01*
Y002403D02*
X006501Y002403D01*
X006558Y002565D02*
X006650D01*
X006840Y002500D02*
Y002623D01*
X006880Y002405D02*
X006940Y002465D01*
X007275D01*
X007341Y002399D01*
Y002281D02*
Y002399D01*
X007427Y002623D02*
X007650Y002400D01*
X007792D02*
X007792Y002400D01*
Y002723D01*
X006530Y002590D02*
X006533D01*
X006558Y002565D01*
X006840Y002623D02*
X006940Y002723D01*
X007270Y002723D02*
X007427D01*
X007427Y002623D02*
Y002723D01*
X007792Y002723D02*
X007792Y002723D01*
X007982D02*
X007984Y002725D01*
X008147D01*
X006648Y001201D02*
X006649Y001200D01*
X006648Y001201D02*
Y001262D01*
X006610Y001300D02*
X006648Y001262D01*
X006562Y001300D02*
X006610D01*
X006892Y001425D02*
X006906Y001411D01*
X006865Y001425D02*
X006892D01*
X006840Y001450D02*
X006865Y001425D01*
X006840Y001450D02*
Y001475D01*
X006839Y001475D02*
X006840Y001475D01*
X006645Y001480D02*
X006650Y001475D01*
X006562Y001480D02*
X006645D01*
X003603Y005067D02*
X003650Y005020D01*
X003227Y005067D02*
X003603D01*
X003149Y004989D02*
X003227Y005067D01*
X001955Y005045D02*
X001955D01*
X001933Y005068D02*
X001955Y005045D01*
X001558Y005068D02*
X001933D01*
X001955Y005045D02*
X001980Y005020D01*
X001479Y004989D02*
X001558Y005068D01*
X002983Y002735D02*
X002986Y002738D01*
X002995D02*
X002997Y002740D01*
X002986Y002738D02*
X002995D01*
X002960Y002790D02*
X002960Y002790D01*
X001060Y003360D02*
X002010D01*
X002340Y003690D01*
X002031Y003310D02*
X002251Y003530D01*
X002051Y003260D02*
X002271Y003480D01*
X006411Y002476D02*
X006414D01*
X006312Y002520D02*
Y002545D01*
Y002520D02*
X006337Y002495D01*
X006393D01*
X006411Y002476D01*
X006405Y002825D02*
X006470Y002760D01*
X005670Y002910D02*
X005755Y002825D01*
X006405D01*
X001305Y001958D02*
X001442Y002094D01*
X001443Y002089D02*
Y002094D01*
X001442D02*
X001443D01*
Y002089D02*
X001575Y001958D01*
X001305Y001933D02*
Y001958D01*
X001575Y001933D02*
Y001958D01*
X005560Y000829D02*
X005564Y000825D01*
Y000822D02*
Y000825D01*
X005560Y000829D02*
Y000940D01*
X003890Y000820D02*
Y000940D01*
Y000820D02*
X003890Y000820D01*
X003890Y000940D02*
X003890Y000940D01*
X004900Y005070D02*
X005270D01*
X005320Y005020D01*
X004819Y004989D02*
X004900Y005070D01*
X005120Y003722D02*
X005212Y003631D01*
X005120Y003722D02*
Y003747D01*
X005212Y003630D02*
Y003631D01*
X005268Y002721D02*
X005270Y002723D01*
X005170Y002630D02*
X005180D01*
X005268Y002718D01*
Y002721D01*
X004892Y001480D02*
X004975D01*
X004980Y001475D01*
X003250Y001480D02*
X003305D01*
X003310Y001475D01*
X003222Y001508D02*
Y001586D01*
Y001508D02*
X003250Y001480D01*
X002175Y004990D02*
X002258D01*
X002170Y004995D02*
X002175Y004990D01*
X005510Y004995D02*
X005515Y004990D01*
X005598D01*
X004930Y005530D02*
Y005660D01*
X004930Y005530D02*
Y005650D01*
X004930Y005650D02*
X004930Y005650D01*
Y005530D02*
X004930Y005530D01*
X004930Y005660D02*
X004930Y005660D01*
X001590Y005530D02*
Y005640D01*
X001590Y005640D02*
X001590Y005640D01*
Y005530D02*
X001590Y005530D01*
X003260Y005650D02*
X003260Y005650D01*
Y005530D02*
X003260Y005530D01*
X003260Y005530D02*
Y005650D01*
X003845Y004990D02*
X003928D01*
X003840Y004995D02*
X003845Y004990D01*
X003546Y005650D02*
X003654D01*
X003450Y005555D02*
X003546Y005650D01*
X003450Y005352D02*
Y005555D01*
X005273Y001030D02*
X005313Y000990D01*
X005345D01*
X005270Y001030D02*
X005273D01*
X005370Y000915D02*
Y000965D01*
X005345Y000990D02*
X005370Y000965D01*
X003700Y001118D02*
Y001297D01*
X001780Y005173D02*
Y005352D01*
X005120Y005173D02*
Y005352D01*
X006391Y002723D02*
X006408Y002706D01*
X006312Y002723D02*
X006391D01*
X006408Y002572D02*
Y002706D01*
Y002572D02*
X006410Y002570D01*
X006470Y002550D02*
Y002760D01*
Y002550D02*
X006501Y002519D01*
X001981Y005335D02*
Y005555D01*
X002074Y005648D01*
X003746Y003616D02*
Y004006D01*
X002251Y003530D02*
X003660D01*
X003746Y003616D01*
X003810Y003480D02*
X003986Y003656D01*
X002271Y003480D02*
X003810D01*
X001970Y003840D02*
X001980D01*
X001882Y003752D02*
X001970Y003840D01*
X001882Y003749D02*
Y003752D01*
X001880Y003747D02*
X001882Y003749D01*
X003552Y003752D02*
X003640Y003840D01*
X003552Y003749D02*
Y003752D01*
X003550Y003747D02*
X003552Y003749D01*
X003640Y003840D02*
X003650D01*
X005222Y003752D02*
X005310Y003840D01*
X005222Y003749D02*
Y003752D01*
X005310Y003840D02*
X005320D01*
X005220Y003747D02*
X005222Y003749D01*
X003530Y002650D02*
Y002662D01*
X003591Y002723D01*
X003500Y002630D02*
X003510D01*
X003530Y002650D01*
X003682Y002835D02*
X003700Y002817D01*
X003643Y002835D02*
X003682D01*
X003700Y002723D02*
Y002817D01*
X004661Y003000D02*
X004751Y002910D01*
X003890Y002723D02*
X004087D01*
X003246Y002703D02*
X003310D01*
X003224Y002724D02*
X003246Y002703D01*
X003222Y002724D02*
X003224D01*
X003560Y002480D02*
X003920D01*
X004001Y002399D01*
X003490Y002410D02*
X003560Y002480D01*
X004452Y002400D02*
X004452Y002400D01*
Y002723D01*
X004001Y001481D02*
Y001583D01*
X004086Y001297D02*
X004087Y001296D01*
X004087Y002623D02*
Y002723D01*
Y002623D02*
X004310Y002400D01*
X004452Y002723D02*
X004452Y002723D01*
X004001Y002281D02*
Y002399D01*
X003499Y001475D02*
X003500Y001475D01*
Y001450D02*
Y001475D01*
X003525Y001425D02*
X003552D01*
X003500Y001450D02*
X003525Y001425D01*
X003499Y001475D02*
Y001653D01*
X003499Y001653D02*
X003499Y001653D01*
X003222Y001300D02*
X003270D01*
X003552Y001425D02*
X003566Y001411D01*
X003700Y000940D02*
Y001118D01*
X003700Y000820D02*
Y000940D01*
X003700Y000940D02*
X003700Y000940D01*
X003566Y001411D02*
X003931D01*
X003700Y001297D02*
X003700Y001297D01*
X003890D02*
X004086D01*
X003931Y001411D02*
X004001Y001481D01*
X003270Y001300D02*
X003308Y001262D01*
X003218Y000822D02*
X003406D01*
X003308Y001201D02*
X003309Y001200D01*
X003499Y000915D02*
Y001135D01*
X003308Y001201D02*
Y001262D01*
X003406Y000822D02*
X003499Y000915D01*
X003490Y001960D02*
Y002410D01*
X003410Y001880D02*
X003490Y001960D01*
X003700Y000820D02*
X003700Y000820D01*
X004770Y000920D02*
Y001340D01*
X003167Y000873D02*
X003218Y000822D01*
X003167Y000873D02*
Y002733D01*
X004837Y002523D02*
Y002753D01*
X005370Y002828D02*
X005370Y002828D01*
X005370Y002723D02*
Y002828D01*
X004751Y002910D02*
X005670D01*
X006460Y001350D02*
X006501Y001391D01*
X004837Y001407D02*
Y002523D01*
X004837Y002523D02*
X004837Y002523D01*
X004892Y002724D02*
X004894D01*
X004916Y002703D01*
X005160Y001960D02*
Y002410D01*
X005230Y002480D01*
X005080Y001880D02*
X005160Y001960D01*
X004916Y002703D02*
X004980D01*
X005169Y001475D02*
X005170Y001475D01*
Y001450D02*
Y001475D01*
X004892Y001300D02*
X004940D01*
X005169Y001475D02*
Y001653D01*
X005170Y001450D02*
X005195Y001425D01*
X005222D01*
X005169Y001653D02*
X005169Y001653D01*
X005590Y002480D02*
X005671Y002399D01*
Y002281D02*
Y002399D01*
X005222Y001425D02*
X005236Y001411D01*
X005601D01*
X005230Y002480D02*
X005590D01*
X006122Y002723D02*
X006122Y002723D01*
X006122Y002400D02*
Y002723D01*
X006122Y002400D02*
X006122Y002400D01*
X005757Y002623D02*
X005980Y002400D01*
X005560Y001297D02*
X005756D01*
X005671Y001481D02*
Y001583D01*
X005601Y001411D02*
X005671Y001481D01*
X005756Y001297D02*
X005757Y001296D01*
X005757Y002623D02*
Y002723D01*
X005560Y002723D02*
X005757D01*
X005076Y000822D02*
X005169Y000915D01*
X004978Y001201D02*
X004979Y001200D01*
X005169Y000915D02*
Y001135D01*
X004978Y001201D02*
Y001262D01*
X004868Y000822D02*
X005076D01*
X004940Y001300D02*
X004978Y001262D01*
X005370Y001297D02*
X005370Y001297D01*
X005370Y001118D02*
Y001297D01*
X005370Y000915D02*
Y001118D01*
X006460Y001040D02*
Y001350D01*
X002999Y002900D02*
X003167Y002733D01*
X002340Y003690D02*
Y003950D01*
X003986Y003656D02*
Y005544D01*
X004090Y005648D01*
X002188D02*
X002341Y005495D01*
Y005127D02*
Y005495D01*
X002074Y005648D02*
X002188D01*
X002316Y005102D02*
X002341Y005127D01*
X002316Y003974D02*
Y005102D01*
Y003974D02*
X002340Y003950D01*
X003651Y005555D02*
X003744Y005648D01*
X003651Y005335D02*
Y005555D01*
X003661Y005335D02*
X003750Y005246D01*
Y004702D02*
X003795Y004657D01*
X003750Y004702D02*
Y005246D01*
X003795Y004055D02*
Y004657D01*
X003746Y004006D02*
X003795Y004055D01*
X003651Y005335D02*
X003661D01*
X005321D02*
Y005555D01*
X005414Y005648D01*
X006460Y001040D02*
X006678Y000822D01*
X001780Y005530D02*
Y005650D01*
X001780Y005650D02*
X001780Y005650D01*
Y005530D02*
X001780Y005530D01*
Y005352D02*
Y005530D01*
X001981Y004817D02*
Y004995D01*
Y004817D02*
X001981Y004817D01*
X001980Y004995D02*
Y005020D01*
Y004995D02*
X001981Y004995D01*
X001780Y005173D02*
X001780Y005173D01*
X001393Y003747D02*
X001590D01*
X001479Y004071D02*
Y004189D01*
X001560Y003990D02*
X001920D01*
X001479Y004071D02*
X001560Y003990D01*
X001920D02*
X001990Y004060D01*
Y004510D01*
X002070Y004590D01*
X001479Y004887D02*
Y004989D01*
X001393Y005174D02*
X001394Y005173D01*
X001590D01*
X001028Y003747D02*
X001028Y003747D01*
Y004070D02*
X001028Y004070D01*
X001028Y003747D02*
Y004070D01*
X001170Y004070D02*
X001393Y003847D01*
Y003747D02*
Y003847D01*
X002170Y003767D02*
X002234D01*
X002256Y003746D01*
X002258D01*
X002172Y005208D02*
X002210Y005170D01*
X002171Y005270D02*
X002172Y005269D01*
Y005208D02*
Y005269D01*
X002210Y005170D02*
X002258D01*
X003651Y004817D02*
Y004995D01*
Y004817D02*
X003651Y004817D01*
X003650Y004995D02*
Y005020D01*
Y004995D02*
X003651Y004995D01*
X003450Y005173D02*
X003450Y005173D01*
Y005352D01*
X003063Y003747D02*
X003260D01*
X003149Y004071D02*
Y004189D01*
X003230Y003990D02*
X003590D01*
X003149Y004071D02*
X003230Y003990D01*
X003590D02*
X003660Y004060D01*
Y004510D01*
X003740Y004590D01*
X003149Y004887D02*
Y004989D01*
X003063Y005174D02*
X003064Y005173D01*
X003260D01*
X002698Y003747D02*
X002698Y003747D01*
Y004070D02*
X002698Y004070D01*
X002698Y003747D02*
Y004070D01*
X002840Y004070D02*
X003063Y003847D01*
Y003747D02*
Y003847D01*
X003840Y003767D02*
X003904D01*
X003926Y003746D01*
X003928D01*
X003842Y005208D02*
X003880Y005170D01*
X003841Y005270D02*
X003842Y005269D01*
Y005208D02*
Y005269D01*
X003880Y005170D02*
X003928D01*
X004510Y004070D02*
X004733Y003847D01*
X004368Y004070D02*
X004368Y004070D01*
X004368Y003747D02*
Y004070D01*
X004733Y003747D02*
Y003847D01*
X004733Y003747D02*
X004930D01*
X004368D02*
X004368Y003747D01*
X004733Y005174D02*
X004734Y005173D01*
X004930D01*
X005550Y005170D02*
X005598D01*
X004819Y004887D02*
Y004989D01*
X005120Y005530D02*
X005120Y005530D01*
X005120Y005173D02*
X005120Y005173D01*
X005512Y005208D02*
Y005269D01*
X005511Y005270D02*
X005512Y005269D01*
X005120Y005650D02*
X005120Y005650D01*
Y005530D02*
Y005650D01*
X005120Y005352D02*
Y005530D01*
X005512Y005208D02*
X005550Y005170D01*
X005321Y004817D02*
Y004995D01*
X005320Y004995D02*
X005321Y004995D01*
X005320Y004995D02*
Y005020D01*
X004819Y004071D02*
X004900Y003990D01*
X005260D01*
X005330Y004060D01*
X004819Y004071D02*
Y004189D01*
X005321Y004817D02*
X005321Y004817D01*
X005330Y004510D02*
X005410Y004590D01*
X005510Y003767D02*
X005574D01*
X005596Y003746D02*
X005598D01*
X005574Y003767D02*
X005596Y003746D01*
X005330Y004060D02*
Y004510D01*
X004770Y000920D02*
X004868Y000822D01*
X004770Y001340D02*
X004837Y001407D01*
X016731Y011600D02*
X016731Y011600D01*
D50*
X007531Y001932D02*
D03*
X005861D02*
D03*
X004191D02*
D03*
X004629Y004544D02*
D03*
X001289D02*
D03*
X002959D02*
D03*
D51*
X000347Y004147D02*
D03*
Y004347D02*
D03*
X000547Y003947D02*
D03*
X000347D02*
D03*
X000547Y004147D02*
D03*
Y004347D02*
D03*
Y004547D02*
D03*
X000347D02*
D03*
X000547Y004747D02*
D03*
Y003747D02*
D03*
X000347Y003547D02*
D03*
X000547D02*
D03*
X000347Y003747D02*
D03*
X000547Y003347D02*
D03*
X000347Y003147D02*
D03*
X000547D02*
D03*
X000347Y003347D02*
D03*
X000547Y002947D02*
D03*
X000347D02*
D03*
X000547Y002747D02*
D03*
X000347Y002547D02*
D03*
X000547D02*
D03*
Y002347D02*
D03*
X000347Y002347D02*
D03*
Y002747D02*
D03*
D52*
Y004747D02*
D03*
D53*
X003424Y005781D02*
D03*
X004721Y005712D02*
D03*
X005370Y000710D02*
D03*
X003424Y006081D02*
D03*
X004811Y006032D02*
D03*
X004070Y000770D02*
D03*
X003980Y000450D02*
D03*
X005370Y000410D02*
D03*
D54*
X001574Y001733D02*
D03*
X001765D02*
D03*
X001115D02*
D03*
X001306D02*
D03*
D55*
X003023Y005931D02*
D03*
X005771Y000560D02*
D03*
D56*
X002635Y006151D02*
D03*
Y005931D02*
D03*
Y005711D02*
D03*
X002335Y006151D02*
D03*
Y005931D02*
D03*
Y005711D02*
D03*
X006458Y000780D02*
D03*
Y000560D02*
D03*
Y000340D02*
D03*
X006158Y000780D02*
D03*
Y000560D02*
D03*
Y000340D02*
D03*
D57*
X005230Y003236D02*
D03*
X005520D02*
D03*
D58*
X005230Y003490D02*
D03*
X005520D02*
D03*
D59*
X007523Y001440D02*
D03*
X007523Y001205D02*
D03*
X007724Y000983D02*
D03*
X007522D02*
D03*
X007889Y001521D02*
D03*
Y001763D02*
D03*
X006219D02*
D03*
Y001521D02*
D03*
X005852Y000983D02*
D03*
X006054D02*
D03*
X005853Y001205D02*
D03*
X005853Y001440D02*
D03*
X004183D02*
D03*
X004183Y001205D02*
D03*
X004384Y000983D02*
D03*
X004182D02*
D03*
X004549Y001521D02*
D03*
Y001763D02*
D03*
X004271Y004713D02*
D03*
Y004955D02*
D03*
X004638Y005493D02*
D03*
X004436D02*
D03*
X004637Y005271D02*
D03*
X004637Y005036D02*
D03*
X001297D02*
D03*
X001297Y005271D02*
D03*
X001096Y005493D02*
D03*
X001298D02*
D03*
X000931Y004955D02*
D03*
Y004713D02*
D03*
X002601D02*
D03*
Y004955D02*
D03*
X002968Y005493D02*
D03*
X002766D02*
D03*
X002967Y005271D02*
D03*
X002967Y005036D02*
D03*
X001010Y003610D02*
D03*
X007229Y000820D02*
D03*
X007040D02*
D03*
X006746Y000822D02*
D03*
X007380Y000870D02*
D03*
X006562Y001300D02*
D03*
Y001480D02*
D03*
X006840Y001790D02*
D03*
X006750Y001880D02*
D03*
X006562Y002190D02*
D03*
X007650Y002400D02*
D03*
X007792D02*
D03*
X006940Y002550D02*
D03*
X006530Y002590D02*
D03*
X006940Y002723D02*
D03*
X008147Y002725D02*
D03*
X002169Y004674D02*
D03*
X006414Y002476D02*
D03*
X006410Y002570D02*
D03*
X004981Y001831D02*
D03*
X005020Y005770D02*
D03*
X005560Y000822D02*
D03*
X002619Y004162D02*
D03*
X003900Y004680D02*
D03*
X001410Y005650D02*
D03*
X003890Y000820D02*
D03*
X004930Y005650D02*
D03*
X001590D02*
D03*
X003260D02*
D03*
X003654Y005650D02*
D03*
X001809Y003630D02*
D03*
X001880Y003747D02*
D03*
X001780Y005650D02*
D03*
X002074Y005648D02*
D03*
X001980Y004680D02*
D03*
X002070Y004590D02*
D03*
X005212Y003630D02*
D03*
X003540D02*
D03*
X004070Y003800D02*
D03*
X005220Y003747D02*
D03*
X003550D02*
D03*
X004090Y005648D02*
D03*
X003744D02*
D03*
X003650Y004680D02*
D03*
X003928Y004280D02*
D03*
Y004990D02*
D03*
X003740Y004590D02*
D03*
X003928Y003746D02*
D03*
Y005170D02*
D03*
X005410Y004590D02*
D03*
X004368Y004070D02*
D03*
X004510D02*
D03*
X005320Y004680D02*
D03*
X005598Y005170D02*
D03*
Y004990D02*
D03*
Y004280D02*
D03*
Y003746D02*
D03*
X005120Y005650D02*
D03*
X005414Y005648D02*
D03*
X005270Y001030D02*
D03*
X003222Y001586D02*
D03*
X002400Y003800D02*
D03*
X005270Y002723D02*
D03*
X003643Y002835D02*
D03*
X003592Y002723D02*
D03*
X004751Y002721D02*
D03*
X004310Y002400D02*
D03*
X004452D02*
D03*
X003222Y002724D02*
D03*
Y001300D02*
D03*
Y002190D02*
D03*
X003406Y000822D02*
D03*
X003700Y000820D02*
D03*
X003500Y001790D02*
D03*
X003410Y001880D02*
D03*
X005370Y002828D02*
D03*
X003000Y002740D02*
D03*
X002960Y002790D02*
D03*
X002930Y002845D02*
D03*
X005076Y000822D02*
D03*
X006122Y002400D02*
D03*
X004892Y001300D02*
D03*
Y001480D02*
D03*
X005080Y001880D02*
D03*
X005980Y002400D02*
D03*
X005170Y001790D02*
D03*
X004892Y002190D02*
D03*
Y002724D02*
D03*
X002258Y004280D02*
D03*
Y004990D02*
D03*
X001028Y004070D02*
D03*
X001170D02*
D03*
X002258Y003746D02*
D03*
Y005170D02*
D03*
X002698Y004070D02*
D03*
X002840D02*
D03*
D60*
X000810Y003270D02*
D03*
X001900Y002660D02*
D03*
D61*
X004120Y003450D02*
D03*
X001443Y002094D02*
D03*
X003020Y002190D02*
D03*
X004860Y003080D02*
D03*
X001100Y003150D02*
D03*
X001449Y002664D02*
D03*
X002070Y001960D02*
D03*
X002380Y003410D02*
D03*
D62*
X001799Y006095D02*
D03*
X004395Y003245D02*
D03*
X005445Y006095D02*
D03*
X000395Y001845D02*
D03*
X003345Y000395D02*
D03*
X008395Y002545D02*
D03*
X006991Y000395D02*
D03*
D79*
X006649Y001070D02*
D03*
X006650Y002435D02*
D03*
X003309Y001070D02*
D03*
X003310Y002565D02*
D03*
X004979Y001070D02*
D03*
X004980Y002565D02*
D03*
X002170Y003905D02*
D03*
X002171Y005400D02*
D03*
X003840Y003905D02*
D03*
X003841Y005400D02*
D03*
X005511D02*
D03*
X005510Y003905D02*
D03*
D80*
X006649Y001200D02*
D03*
X006839Y001135D02*
D03*
X006650Y002565D02*
D03*
X006840Y002500D02*
D03*
X003309Y001200D02*
D03*
X003499Y001135D02*
D03*
X003310Y002695D02*
D03*
X003500Y002630D02*
D03*
X005169Y001135D02*
D03*
X004979Y001200D02*
D03*
X005170Y002630D02*
D03*
X004980Y002695D02*
D03*
X002170Y003775D02*
D03*
X001980Y003840D02*
D03*
X002171Y005270D02*
D03*
X001981Y005335D02*
D03*
X003840Y003775D02*
D03*
X003650Y003840D02*
D03*
X003841Y005270D02*
D03*
X003651Y005335D02*
D03*
X005511Y005270D02*
D03*
X005321Y005335D02*
D03*
X005510Y003775D02*
D03*
X005320Y003840D02*
D03*
D81*
X005015Y003240D02*
D03*
D82*
X004825Y003240D02*
D03*
D83*
X004920Y003490D02*
D03*
M02*
