M48
;Layer_Color=9474304
;FILE_FORMAT=4:2
METRIC
;TYPE=PLATED
T1F00S00C0.30
T2F00S00C0.40
T3F00S00C0.51
T4F00S00C0.80
T5F00S00C0.86
T6F00S00C1.60
T7F00S00C1.80
T8F00S00C2.03
T9F00S00C2.50
%
T01
X003520Y001360
X003960Y001366
X003959Y002485
X003536Y002485
X004240Y002230
X004380
X004520Y001790
X004730
X004380Y001110
X004240
X004520Y002910
X004730
X004264Y003647
X004050Y003553
X006350Y002300
Y001750
X007802Y001740
X008275
X005223Y004015
X004800Y004014
X004519Y004270
X004379
X004239Y004703
X004029
X004379Y005383
X004519
X004810Y005130
X005223Y005128
X001756Y005362
X001531Y005365
X001000Y004920
X000528
T02
X001431Y002975
X001834
X002075Y003400
X001432Y003401
X001144Y003868
X000974Y003819
X003300Y003750
X003075Y003400
X003150Y003275
X003375Y002425
X003286Y002300
X003287Y001125
X004491Y000803
X004474Y001615
X004569Y002113
X004468Y002743
X004285Y003765
X005500Y002425
X005425Y001545
X006942Y001249
X007132
X007289Y001490
X007350Y002000
X007530
X007225Y002300
X008286Y002423
X008476Y001953
X005473Y004225
X005325
X005472Y005341
X004269Y005695
X004278Y004878
X004246Y004582
X001453Y004660
X001273
X001526Y004359
X001514Y005170
X000327Y004707
X000225Y004350
T03
X003280Y001480
Y001670
X005480Y004820
Y005010
T04
X002446Y003250
X002700
X002573Y003377
T05
X000347Y002345
X000547
Y002545
X000347
Y002745
X000547
Y002945
X000347
Y003145
X000547
Y003345
Y003545
Y003745
Y003945
X000347
Y003745
Y003545
Y003345
Y004145
X000547
T06
X005700Y000462
Y000810
Y001157
Y001505
Y001852
Y002200
X006104
Y001852
Y001505
Y001157
Y000810
Y000462
X003093Y004290
Y004638
Y004987
Y005335
Y005683
Y006031
X002689
Y005683
Y005335
Y004987
Y004638
Y004290
T07
X005654Y003000
Y003508
X006403Y003254
X008410Y003508
Y003000
T08
X005413Y003254
T09
X000397Y001845
X003347Y000395
X006993
X004397Y003245
X008397Y004645
X005447Y006095
X001800
M30
