G04*
G04 #@! TF.GenerationSoftware,Altium Limited,Altium Designer,22.1.2 (22)*
G04*
G04 Layer_Physical_Order=2*
G04 Layer_Color=128*
%FSAX42Y42*%
%MOMM*%
G71*
G04*
G04 #@! TF.SameCoordinates,0EE806D4-B871-489F-9783-670BAA343DA3*
G04*
G04*
G04 #@! TF.FilePolarity,Negative*
G04*
G01*
G75*
%ADD15C,0.50*%
%ADD52C,1.02*%
%ADD59C,1.02*%
%ADD60R,6.60X5.80*%
%ADD61C,1.40*%
%ADD62C,1.26*%
G04:AMPARAMS|DCode=63|XSize=2.3876mm|YSize=2.3876mm|CornerRadius=0mm|HoleSize=0mm|Usage=FLASHONLY|Rotation=0.000|XOffset=0mm|YOffset=0mm|HoleType=Round|Shape=Relief|Width=0.4mm|Gap=0.25mm|Entries=4|*
%AMTHD63*
7,0,0,2.39,1.88,0.40,45*
%
%ADD63THD63*%
%ADD64C,0.91*%
%ADD65C,1.20*%
%ADD66C,1.35*%
%ADD67C,0.90*%
G04:AMPARAMS|DCode=68|XSize=2.024mm|YSize=2.024mm|CornerRadius=0mm|HoleSize=0mm|Usage=FLASHONLY|Rotation=0.000|XOffset=0mm|YOffset=0mm|HoleType=Round|Shape=Relief|Width=0.4mm|Gap=0.25mm|Entries=4|*
%AMTHD68*
7,0,0,2.02,1.52,0.40,45*
%
%ADD68THD68*%
%ADD69C,3.00*%
D15*
X003500Y003008D02*
X003875D01*
X003500Y000660D02*
Y003008D01*
X003875Y000660D02*
Y003008D01*
X003500Y000660D02*
X003875D01*
X005130Y003008D02*
X005550D01*
X006888Y000670D02*
Y002860D01*
Y000670D02*
X007378D01*
Y002860D01*
X006888D02*
X007378D01*
X005130Y000875D02*
Y003008D01*
Y000875D02*
X005550D01*
Y003008D01*
X004932Y003425D02*
Y005810D01*
Y003425D02*
X005340D01*
Y005810D01*
X004932D02*
X005340D01*
X003375Y003425D02*
Y005810D01*
Y003425D02*
X003760D01*
Y005810D01*
X003375D02*
X003760D01*
X001594D02*
X001950D01*
Y003425D02*
Y005810D01*
X001594Y003425D02*
X001950D01*
X001594D02*
Y005810D01*
D52*
X004751Y000275D02*
D03*
X007187Y000211D02*
D03*
X008641Y001665D02*
D03*
X005715Y003095D02*
D03*
X005455Y006355D02*
D03*
Y006355D02*
D03*
X004751Y006215D02*
D03*
X004751Y006215D02*
D03*
X003830Y006355D02*
D03*
Y006355D02*
D03*
X001810Y006355D02*
D03*
X001810Y006355D02*
D03*
X000095Y004641D02*
D03*
D59*
X003095Y001345D02*
G03*
X002855Y001585I-000240J000000D01*
G01*
X003095Y000395D02*
G03*
X003355Y000135I000260J000000D01*
G01*
X003829D02*
G03*
X003879Y000140I-000000J000260D01*
G01*
X003879Y000140D02*
G03*
X004061Y000275I-000049J000255D01*
G01*
X004332Y000478D02*
G03*
X004061Y000275I000075J-000383D01*
G01*
X004751Y000275D02*
G03*
X004332Y000478I-000346J-000180D01*
G01*
X004751Y000275D02*
G03*
X004982Y000135I000231J000120D01*
G01*
X007002Y000135D02*
G03*
X007053Y000140I000000J000260D01*
G01*
X007053D02*
G03*
X007187Y000211I-000050J000255D01*
G01*
X008717Y001849D02*
G03*
X008715Y001854I-000010J000000D01*
G01*
X005715Y003095D02*
G03*
X005955Y002855I000240J000000D01*
G01*
X004982Y006355D02*
G03*
X004751Y006215I000000J-000260D01*
G01*
X004483Y006013D02*
G03*
X004751Y006215I-000078J000382D01*
G01*
X004061Y006215D02*
G03*
X004483Y006013I000346J000180D01*
G01*
X004061Y006215D02*
G03*
X003830Y006355I-000231J-000120D01*
G01*
X001810Y006355D02*
G03*
X001759Y006350I000000J-000260D01*
G01*
D02*
G03*
X001625Y006279I000049J-000255D01*
G01*
X000171Y004825D02*
G03*
X000095Y004641I000184J-000184D01*
G01*
X000095Y001845D02*
G03*
X000355Y001585I000260J000000D01*
G01*
X008641Y001665D02*
G03*
X008717Y001849I-000184J000184D01*
G01*
X008715Y002595D02*
G03*
X008455Y002855I-000260J000000D01*
G01*
X005715Y006095D02*
G03*
X005455Y006355I-000260J000000D01*
G01*
X000095Y001845D02*
Y004641D01*
X000171Y004825D02*
X001625Y006279D01*
X001810Y006355D02*
X001810D01*
Y006355D02*
X003830D01*
X003830Y006355D01*
X004751Y006215D02*
X004751Y006215D01*
X004982Y006355D02*
X005455D01*
X005455Y006355D01*
X005715Y003095D02*
Y006095D01*
X005955Y002855D02*
X008455D01*
X008715Y001854D02*
Y002595D01*
X007187Y000211D02*
X008641Y001665D01*
X004982Y000135D02*
X007002Y000135D01*
X003355D02*
X003829D01*
X003095Y000395D02*
Y001345D01*
X000355Y001585D02*
X002855D01*
D60*
X007531Y001932D02*
D03*
X005861D02*
D03*
X004191D02*
D03*
X004629Y004544D02*
D03*
X001289D02*
D03*
X002959D02*
D03*
D61*
X004070Y000750D02*
D03*
X003424Y005781D02*
D03*
X004721Y005712D02*
D03*
X005370Y000710D02*
D03*
X003424Y006081D02*
D03*
X003023Y005931D02*
D03*
X004811Y006032D02*
D03*
X005771Y000560D02*
D03*
X003980Y000450D02*
D03*
X005370Y000410D02*
D03*
D62*
X000347Y004147D02*
D03*
Y004347D02*
D03*
X000547Y003947D02*
D03*
X000347D02*
D03*
X000547Y004147D02*
D03*
Y004347D02*
D03*
Y004747D02*
D03*
X000347D02*
D03*
X000547Y003747D02*
D03*
X000347Y003547D02*
D03*
X000547D02*
D03*
X000347Y003747D02*
D03*
X000547Y003347D02*
D03*
X000347Y003147D02*
D03*
X000547D02*
D03*
X000347Y003347D02*
D03*
X000547Y002947D02*
D03*
X000347D02*
D03*
X000547Y002747D02*
D03*
X000347Y002547D02*
D03*
X000547D02*
D03*
Y002347D02*
D03*
X000347Y002347D02*
D03*
Y002747D02*
D03*
D63*
X000547Y004547D02*
D03*
X000347D02*
D03*
D64*
X001574Y001733D02*
D03*
X001765D02*
D03*
X001115D02*
D03*
X001306D02*
D03*
D65*
X002635Y006151D02*
D03*
Y005931D02*
D03*
Y005711D02*
D03*
X002335Y006151D02*
D03*
Y005931D02*
D03*
Y005711D02*
D03*
X006458Y000780D02*
D03*
Y000560D02*
D03*
Y000340D02*
D03*
X006158Y000780D02*
D03*
Y000560D02*
D03*
Y000340D02*
D03*
D66*
X005230Y003236D02*
D03*
Y003490D02*
D03*
X005520D02*
D03*
Y003236D02*
D03*
D67*
X005620Y004103D02*
D03*
Y004817D02*
D03*
X007522Y000983D02*
D03*
X007724D02*
D03*
X007890Y001612D02*
D03*
X007523Y001415D02*
D03*
X005853D02*
D03*
X006220Y001612D02*
D03*
X006054Y000983D02*
D03*
X005852D02*
D03*
X004182D02*
D03*
X004384D02*
D03*
X004550Y001612D02*
D03*
X004183Y001415D02*
D03*
X004637Y005061D02*
D03*
X004270Y004864D02*
D03*
X004436Y005493D02*
D03*
X004638D02*
D03*
X001298D02*
D03*
X001096D02*
D03*
X000930Y004864D02*
D03*
X001297Y005061D02*
D03*
X002967D02*
D03*
X002600Y004864D02*
D03*
X002766Y005493D02*
D03*
X002968D02*
D03*
X002290Y005440D02*
D03*
X002400Y003925D02*
D03*
X004077D02*
D03*
X004760Y002540D02*
D03*
X007844Y002410D02*
D03*
X006170D02*
D03*
X004510D02*
D03*
X004258D02*
D03*
X007600D02*
D03*
X005930D02*
D03*
X008250Y002000D02*
D03*
X005000Y000500D02*
D03*
X004750Y001000D02*
D03*
X004000Y005500D02*
D03*
X003750Y006000D02*
D03*
X003250D02*
D03*
X002500Y002500D02*
D03*
X002250Y002000D02*
D03*
X001000Y002500D02*
D03*
X003946Y004660D02*
D03*
X002290D02*
D03*
X004560Y004060D02*
D03*
X002640D02*
D03*
X004340D02*
D03*
X002890D02*
D03*
X000970D02*
D03*
X001220D02*
D03*
X001977Y003610D02*
D03*
X003645D02*
D03*
X003946Y003747D02*
D03*
X002290D02*
D03*
X004751Y002773D02*
D03*
X002040Y005710D02*
D03*
X003240Y005686D02*
D03*
X004077Y003809D02*
D03*
X005390Y003600D02*
D03*
X005620Y005170D02*
D03*
X001110Y003630D02*
D03*
X002390Y003400D02*
D03*
X004090Y003420D02*
D03*
X001450Y002670D02*
D03*
X001930D02*
D03*
X001090Y003150D02*
D03*
X005560Y002860D02*
D03*
X003185Y000940D02*
D03*
X006540Y001115D02*
D03*
X004870D02*
D03*
X003245Y001880D02*
D03*
X003500Y002860D02*
D03*
X005173D02*
D03*
X006413Y002723D02*
D03*
X004870Y001890D02*
D03*
X005080Y001880D02*
D03*
X004870Y002180D02*
D03*
Y002670D02*
D03*
X002935Y002684D02*
D03*
Y002570D02*
D03*
X003185Y001297D02*
D03*
X006540Y002723D02*
D03*
Y001300D02*
D03*
X004870D02*
D03*
X003200Y002723D02*
D03*
X002930Y002810D02*
D03*
X006413Y002540D02*
D03*
X007229Y000800D02*
D03*
X006746D02*
D03*
X006940Y002723D02*
D03*
X005570Y000800D02*
D03*
X008147Y002723D02*
D03*
X006540Y002190D02*
D03*
X006750Y001880D02*
D03*
X006840Y001790D02*
D03*
X007380Y000800D02*
D03*
X003410Y001880D02*
D03*
X003500Y001790D02*
D03*
X003406Y000800D02*
D03*
X003200Y002190D02*
D03*
X002400Y003800D02*
D03*
X005414Y005648D02*
D03*
X005620Y003747D02*
D03*
Y004280D02*
D03*
X005320Y004680D02*
D03*
X005410Y004590D02*
D03*
X003946Y005170D02*
D03*
X003740Y004590D02*
D03*
X003946Y004280D02*
D03*
X003650Y004680D02*
D03*
X003744Y005686D02*
D03*
X002070Y004590D02*
D03*
X001980Y004680D02*
D03*
X001590Y005710D02*
D03*
X004930Y005680D02*
D03*
X003890Y000800D02*
D03*
X001410Y005710D02*
D03*
X005030Y005810D02*
D03*
X002290Y005170D02*
D03*
Y004280D02*
D03*
X005170Y001790D02*
D03*
X005076Y000800D02*
D03*
X000810Y003270D02*
D03*
X004860Y003080D02*
D03*
X002070Y001960D02*
D03*
D68*
X003450Y003610D02*
D03*
X003946Y004990D02*
D03*
X003605Y005686D02*
D03*
X005120Y005680D02*
D03*
X005212Y003630D02*
D03*
X001780Y003610D02*
D03*
X001443Y002094D02*
D03*
X007260Y002398D02*
D03*
X003701Y002860D02*
D03*
X004870Y001480D02*
D03*
X005370Y002860D02*
D03*
X007040Y000800D02*
D03*
X006540Y001480D02*
D03*
X003700Y000800D02*
D03*
X003200Y001586D02*
D03*
X005270Y001030D02*
D03*
X005620Y004990D02*
D03*
X001780Y005710D02*
D03*
X002290Y004990D02*
D03*
D69*
X001799Y006095D02*
D03*
X004395Y003245D02*
D03*
X005445Y006095D02*
D03*
X000395Y001845D02*
D03*
X003345Y000395D02*
D03*
X008395Y002545D02*
D03*
X006991Y000395D02*
D03*
M02*
