G04*
G04 #@! TF.GenerationSoftware,Altium Limited,Altium Designer,20.1.10 (176)*
G04*
G04 Layer_Physical_Order=1*
G04 Layer_Color=5064179*
%FSAX42Y42*%
%MOMM*%
G71*
G04*
G04 #@! TF.SameCoordinates,3E3C1568-8D71-4774-938C-B5280475AE13*
G04*
G04*
G04 #@! TF.FilePolarity,Positive*
G04*
G01*
G75*
%ADD12C,0.20*%
%ADD15C,0.40*%
%ADD36R,1.30X0.80*%
%ADD37R,1.00X1.70*%
%ADD38R,0.80X1.30*%
%ADD39R,2.41X0.64*%
%ADD40O,2.41X0.64*%
%ADD41C,0.30*%
%ADD42C,0.50*%
%ADD43C,0.38*%
%ADD44C,3.05*%
%ADD45C,2.79*%
%ADD46R,3.05X3.05*%
%ADD47C,1.37*%
%ADD48R,1.37X1.37*%
%ADD49C,1.20*%
%ADD50P,1.70X4X270.0*%
%ADD51C,1.02*%
%ADD52C,0.80*%
%ADD53C,1.50*%
%ADD54C,0.70*%
%ADD55C,2.70*%
%ADD56C,3.00*%
%ADD57C,2.00*%
%ADD58C,4.00*%
G36*
X005370Y006302D02*
X005362Y006299D01*
X005324Y006279D01*
X005290Y006251D01*
X005263Y006218D01*
X005242Y006180D01*
X005230Y006138D01*
X005226Y006095D01*
X005230Y006052D01*
X005237Y006029D01*
X005226Y006022D01*
X005220Y006029D01*
X005180Y006063D01*
X005136Y006090D01*
X005088Y006110D01*
X005037Y006122D01*
X004986Y006126D01*
X004963Y006124D01*
X004961Y006125D01*
X004748D01*
X004742Y006137D01*
X004770Y006180D01*
X004773Y006185D01*
X004779Y006196D01*
X004779D01*
X004779Y006196D01*
X004791Y006217D01*
X004818Y006250D01*
X004851Y006278D01*
X004889Y006298D01*
X004930Y006311D01*
X004961Y006314D01*
X004973Y006314D01*
Y006314D01*
X004973Y006314D01*
X005368D01*
X005370Y006302D01*
D02*
G37*
G36*
X002094Y006303D02*
X002083Y006290D01*
X002056Y006245D01*
X002036Y006197D01*
X002025Y006154D01*
X002012Y006154D01*
X002004Y006180D01*
X001984Y006218D01*
X001957Y006251D01*
X001923Y006279D01*
X001885Y006299D01*
X001877Y006302D01*
X001879Y006314D01*
X002089D01*
X002094Y006303D01*
D02*
G37*
G36*
X001600Y006187D02*
X001596Y006180D01*
X001583Y006138D01*
X001579Y006095D01*
X001583Y006052D01*
X001596Y006010D01*
X001616Y005972D01*
X001644Y005939D01*
X001677Y005911D01*
X001716Y005891D01*
X001723Y005889D01*
X001721Y005876D01*
X001287D01*
X001282Y005888D01*
X001590Y006195D01*
X001600Y006187D01*
D02*
G37*
G36*
X005666Y006017D02*
Y005807D01*
X005655Y005801D01*
X005641Y005813D01*
X005597Y005840D01*
X005549Y005860D01*
X005507Y005870D01*
X005506Y005883D01*
X005531Y005891D01*
X005569Y005911D01*
X005603Y005939D01*
X005630Y005972D01*
X005651Y006010D01*
X005653Y006019D01*
X005666Y006017D01*
D02*
G37*
G36*
X003820Y006314D02*
Y006314D01*
X003849Y006312D01*
X003863Y006311D01*
X003904Y006298D01*
X003942Y006278D01*
X003975Y006250D01*
X004000Y006220D01*
X004014Y006196D01*
X004023Y006180D01*
X004029Y006172D01*
X004055Y006133D01*
X004092Y006090D01*
X004134Y006053D01*
X004181Y006022D01*
X004232Y005997D01*
X004285Y005979D01*
X004340Y005968D01*
X004397Y005964D01*
X004453Y005968D01*
X004508Y005979D01*
X004562Y005997D01*
X004612Y006022D01*
X004659Y006053D01*
X004671Y006063D01*
X004934D01*
X004964Y006063D01*
X004964Y006063D01*
X004993Y006064D01*
X005028Y006061D01*
X005069Y006051D01*
X005108Y006035D01*
X005144Y006013D01*
X005176Y005986D01*
X005194Y005965D01*
X005211Y005942D01*
X005219Y005930D01*
X005229Y005919D01*
X005248Y005896D01*
X005282Y005868D01*
X005319Y005845D01*
X005360Y005828D01*
X005403Y005818D01*
X005447Y005814D01*
Y005814D01*
X005476Y005812D01*
X005489Y005811D01*
X005530Y005801D01*
X005569Y005785D01*
X005594Y005770D01*
X005584Y005741D01*
X005580Y005741D01*
X005562Y005739D01*
X005544Y005732D01*
X005530Y005720D01*
X005518Y005706D01*
X005518Y005706D01*
X005455D01*
Y005730D01*
X005335D01*
X005145Y005920D01*
X005134Y005928D01*
X005120Y005931D01*
X004929D01*
X004929Y005931D01*
X004662D01*
X004649Y005928D01*
X004637Y005920D01*
X004603Y005886D01*
X004351D01*
X004337Y005883D01*
X004326Y005875D01*
X004180Y005729D01*
X004180Y005729D01*
X004061Y005611D01*
X001050D01*
X001048Y005610D01*
X001033Y005638D01*
X001210Y005815D01*
X001800D01*
X001801Y005814D01*
Y005814D01*
X001844Y005818D01*
X001887Y005828D01*
X001928Y005845D01*
X001966Y005868D01*
X001999Y005896D01*
X002028Y005930D01*
X002051Y005968D01*
X002068Y006008D01*
X002078Y006051D01*
X002081Y006095D01*
X002081D01*
X002083Y006124D01*
X002084Y006137D01*
X002094Y006178D01*
X002110Y006217D01*
X002132Y006253D01*
X002160Y006286D01*
X002192Y006313D01*
X002194Y006314D01*
X003820D01*
X003820Y006314D01*
D02*
G37*
G36*
X004834Y005845D02*
X004966D01*
X004977Y005859D01*
X005105D01*
X005285Y005680D01*
Y005610D01*
X005455D01*
Y005634D01*
X005518D01*
X005518Y005634D01*
X005530Y005620D01*
X005544Y005608D01*
X005562Y005601D01*
X005580Y005599D01*
X005598Y005601D01*
X005616Y005608D01*
X005630Y005620D01*
X005636Y005627D01*
X005666Y005618D01*
Y005532D01*
X005636Y005523D01*
X005630Y005530D01*
X005616Y005541D01*
X005600Y005548D01*
Y005479D01*
Y005411D01*
X005616Y005418D01*
X005630Y005429D01*
X005636Y005436D01*
X005666Y005427D01*
Y003895D01*
X005666Y003895D01*
X005666D01*
X005669Y003851D01*
X005680Y003808D01*
X005696Y003767D01*
X005719Y003730D01*
X005748Y003696D01*
X005782Y003668D01*
X005819Y003645D01*
X005860Y003628D01*
X005903Y003618D01*
X005947Y003614D01*
Y003614D01*
X005947Y003614D01*
X007747D01*
X007747Y003614D01*
Y003614D01*
X007791Y003618D01*
X007833Y003628D01*
X007874Y003645D01*
X007912Y003668D01*
X007945Y003696D01*
X007974Y003730D01*
X007997Y003767D01*
X008014Y003808D01*
X008024Y003851D01*
X008028Y003895D01*
X008027D01*
X008027Y003895D01*
Y004138D01*
X008034Y004148D01*
X008061Y004181D01*
X008093Y004208D01*
X008129Y004230D01*
X008168Y004246D01*
X008209Y004256D01*
X008251Y004260D01*
X008252Y004259D01*
X008447D01*
X008447Y004260D01*
X008489Y004256D01*
X008530Y004246D01*
X008569Y004230D01*
X008605Y004208D01*
X008637Y004181D01*
X008665Y004148D01*
X008666Y004146D01*
Y001849D01*
X008666Y001849D01*
X008666D01*
X008664Y001820D01*
X008662Y001806D01*
X008650Y001764D01*
X008629Y001726D01*
X008621Y001716D01*
X008602Y001693D01*
X008581Y001672D01*
X007585Y000676D01*
X007573Y000675D01*
X007572Y000676D01*
X006993D01*
Y000676D01*
X006949Y000672D01*
X006906Y000662D01*
X006866Y000645D01*
X006828Y000622D01*
X006794Y000594D01*
X006766Y000560D01*
X006743Y000523D01*
X006726Y000482D01*
X006716Y000439D01*
X006712Y000395D01*
X006712D01*
X006710Y000366D01*
X006709Y000353D01*
X006699Y000312D01*
X006683Y000273D01*
X006661Y000237D01*
X006634Y000204D01*
X006602Y000177D01*
X006599Y000176D01*
X004973D01*
X004973Y000176D01*
Y000176D01*
X004944Y000178D01*
X004930Y000179D01*
X004889Y000192D01*
X004851Y000212D01*
X004818Y000240D01*
X004793Y000270D01*
X004779Y000294D01*
X004770Y000310D01*
X004765Y000318D01*
X004739Y000357D01*
X004701Y000400D01*
X004659Y000437D01*
X004612Y000468D01*
X004562Y000493D01*
X004508Y000511D01*
X004453Y000522D01*
X004397Y000526D01*
X004340Y000522D01*
X004285Y000511D01*
X004232Y000493D01*
X004181Y000468D01*
X004134Y000437D01*
X004121Y000426D01*
X003838D01*
X003808Y000426D01*
X003808Y000426D01*
X003808Y000426D01*
Y000426D01*
X003779Y000428D01*
X003765Y000429D01*
X003724Y000439D01*
X003685Y000455D01*
X003649Y000477D01*
X003617Y000504D01*
X003600Y000525D01*
X003582Y000548D01*
X003574Y000560D01*
X003564Y000571D01*
X003545Y000594D01*
X003512Y000622D01*
X003474Y000645D01*
X003433Y000662D01*
X003391Y000672D01*
X003347Y000676D01*
X003317Y000678D01*
X003304Y000679D01*
X003263Y000689D01*
X003236Y000700D01*
X003240Y000731D01*
X003243Y000731D01*
X003261Y000738D01*
X003275Y000750D01*
X003287Y000764D01*
X003293Y000780D01*
X003225D01*
Y000800D01*
X003205D01*
Y000868D01*
X003189Y000862D01*
X003175Y000850D01*
X003163Y000836D01*
X003156Y000818D01*
X003127Y000824D01*
Y000966D01*
X003156Y000972D01*
X003163Y000955D01*
X003175Y000940D01*
X003189Y000929D01*
X003207Y000922D01*
X003225Y000919D01*
X003243Y000922D01*
X003261Y000929D01*
X003275Y000940D01*
X003287Y000955D01*
X003355D01*
Y000930D01*
X003525D01*
Y001046D01*
X003549Y001065D01*
X003804Y000810D01*
X003815Y000802D01*
X003829Y000799D01*
X004755D01*
X004785Y000799D01*
Y000799D01*
D01*
X004787Y000769D01*
X004784Y000769D01*
X004769Y000767D01*
X004739Y000755D01*
X004714Y000736D01*
X004695Y000711D01*
X004683Y000681D01*
X004679Y000650D01*
X004683Y000619D01*
X004695Y000589D01*
X004714Y000564D01*
X004739Y000545D01*
X004769Y000533D01*
X004800Y000529D01*
X004831Y000533D01*
X004861Y000545D01*
X004886Y000564D01*
X004905Y000589D01*
X004917Y000619D01*
X004921Y000650D01*
X004917Y000681D01*
X004905Y000711D01*
X004886Y000736D01*
X004861Y000755D01*
X004831Y000767D01*
X004816Y000769D01*
X004813Y000769D01*
X004815Y000799D01*
X004845Y000799D01*
X005074D01*
X005084Y000769D01*
X005079Y000766D01*
X005060Y000741D01*
X005048Y000711D01*
X005044Y000680D01*
X005048Y000649D01*
X005060Y000619D01*
X005079Y000594D01*
X005104Y000575D01*
X005134Y000563D01*
X005165Y000559D01*
X005196Y000563D01*
X005226Y000575D01*
X005251Y000594D01*
X005270Y000619D01*
X005274Y000629D01*
X005306D01*
X005310Y000619D01*
X005329Y000594D01*
X005354Y000575D01*
X005384Y000563D01*
X005395Y000562D01*
Y000680D01*
X005435D01*
Y000562D01*
X005446Y000563D01*
X005476Y000575D01*
X005501Y000594D01*
X005520Y000619D01*
X005524Y000629D01*
X005556D01*
X005560Y000619D01*
X005579Y000594D01*
X005604Y000575D01*
X005634Y000563D01*
X005665Y000559D01*
X005696Y000563D01*
X005726Y000575D01*
X005751Y000594D01*
X005770Y000619D01*
X005774Y000629D01*
X005806D01*
X005810Y000619D01*
X005829Y000594D01*
X005854Y000575D01*
X005884Y000563D01*
X005895Y000562D01*
Y000680D01*
X005935D01*
Y000562D01*
X005946Y000563D01*
X005976Y000575D01*
X006001Y000594D01*
X006020Y000619D01*
X006024Y000629D01*
X006056D01*
X006060Y000619D01*
X006079Y000594D01*
X006104Y000575D01*
X006134Y000563D01*
X006165Y000559D01*
X006196Y000563D01*
X006226Y000575D01*
X006251Y000594D01*
X006270Y000619D01*
X006274Y000629D01*
X006306D01*
X006310Y000619D01*
X006329Y000594D01*
X006354Y000575D01*
X006384Y000563D01*
X006395Y000562D01*
Y000680D01*
X006415D01*
Y000700D01*
X006533D01*
X006532Y000711D01*
X006520Y000741D01*
X006501Y000766D01*
X006496Y000769D01*
X006506Y000799D01*
X007635D01*
X007649Y000802D01*
X007660Y000810D01*
X007878Y001027D01*
X007886Y001039D01*
X007888Y001053D01*
Y001278D01*
X007892Y001280D01*
X007905Y001299D01*
X007909Y001320D01*
X007905Y001341D01*
X007892Y001360D01*
X007888Y001362D01*
Y001435D01*
X007913D01*
Y001605D01*
X007793D01*
Y001555D01*
X007734D01*
Y001605D01*
X007614D01*
Y001435D01*
X007734D01*
Y001484D01*
X007793D01*
Y001435D01*
X007817D01*
Y001362D01*
X007813Y001360D01*
X007801Y001341D01*
X007797Y001320D01*
X007801Y001299D01*
X007813Y001280D01*
X007817Y001278D01*
Y001067D01*
X007620Y000871D01*
X006835D01*
X006824Y000898D01*
X006964Y001039D01*
X006972Y001050D01*
X006975Y001064D01*
Y001278D01*
X006979Y001280D01*
X006991Y001299D01*
X006995Y001320D01*
X006991Y001341D01*
X006979Y001360D01*
X006975Y001362D01*
Y001435D01*
X006999D01*
Y001484D01*
X007057D01*
Y001435D01*
X007177D01*
Y001605D01*
X007163D01*
X007146Y001634D01*
X007146Y001635D01*
X007150Y001655D01*
X007146Y001677D01*
X007134Y001695D01*
X007130Y001698D01*
Y001758D01*
X007185D01*
Y001858D01*
Y001958D01*
Y002058D01*
Y002158D01*
Y002262D01*
X007152D01*
Y002390D01*
X007176D01*
Y002560D01*
X007056D01*
Y002511D01*
X006999D01*
Y002560D01*
X006879D01*
Y002390D01*
X006999D01*
Y002439D01*
X007056D01*
Y002390D01*
X007081D01*
Y002262D01*
X006904D01*
Y002134D01*
X006845D01*
Y002147D01*
X006675D01*
Y002055D01*
X006645Y002039D01*
X006641Y002042D01*
X006640Y002042D01*
Y001990D01*
Y001938D01*
X006641Y001938D01*
X006645Y001941D01*
X006675Y001925D01*
Y001880D01*
X006782D01*
X006793Y001852D01*
X006778Y001837D01*
X006769Y001824D01*
X006766Y001810D01*
X006675D01*
Y001690D01*
X006709D01*
Y001605D01*
X006689D01*
Y001435D01*
X006809D01*
Y001605D01*
X006788D01*
Y001690D01*
X006845D01*
Y001767D01*
X006846Y001771D01*
Y001792D01*
X006876Y001822D01*
X006904Y001811D01*
Y001758D01*
X007059D01*
Y001698D01*
X007055Y001695D01*
X007043Y001677D01*
X007038Y001655D01*
X007043Y001634D01*
X007045Y001630D01*
X007057Y001605D01*
Y001555D01*
X006999D01*
Y001605D01*
X006879D01*
Y001435D01*
X006903D01*
Y001362D01*
X006899Y001360D01*
X006887Y001341D01*
X006883Y001320D01*
X006887Y001299D01*
X006899Y001280D01*
X006903Y001278D01*
Y001079D01*
X006745Y000921D01*
X006185D01*
X006174Y000948D01*
X006278Y001052D01*
X006286Y001064D01*
X006288Y001078D01*
Y001278D01*
X006292Y001280D01*
X006305Y001299D01*
X006309Y001320D01*
X006305Y001341D01*
X006292Y001360D01*
X006288Y001362D01*
Y001435D01*
X006313D01*
Y001605D01*
X006193D01*
Y001555D01*
X006134D01*
Y001605D01*
X006014D01*
Y001435D01*
X006134D01*
Y001484D01*
X006193D01*
Y001435D01*
X006217D01*
Y001362D01*
X006213Y001360D01*
X006201Y001341D01*
X006197Y001320D01*
X006201Y001299D01*
X006213Y001280D01*
X006217Y001278D01*
Y001092D01*
X006095Y000971D01*
X005995D01*
X005965Y000971D01*
X005963Y001001D01*
X005966Y001001D01*
X005981Y001003D01*
X006011Y001015D01*
X006036Y001034D01*
X006055Y001059D01*
X006067Y001089D01*
X006071Y001120D01*
X006067Y001151D01*
X006055Y001181D01*
X006036Y001206D01*
X006011Y001225D01*
X005981Y001237D01*
X005950Y001241D01*
X005919Y001237D01*
X005889Y001225D01*
X005864Y001206D01*
X005845Y001181D01*
X005833Y001151D01*
X005829Y001120D01*
X005833Y001089D01*
X005845Y001059D01*
X005864Y001034D01*
X005889Y001015D01*
X005919Y001003D01*
X005934Y001001D01*
X005937Y001001D01*
X005935Y000971D01*
X005905Y000971D01*
X005675D01*
X005645Y000971D01*
X005643Y001001D01*
X005646Y001001D01*
X005661Y001003D01*
X005691Y001015D01*
X005716Y001034D01*
X005735Y001059D01*
X005747Y001089D01*
X005751Y001120D01*
X005747Y001151D01*
X005735Y001181D01*
X005716Y001206D01*
X005691Y001225D01*
X005661Y001237D01*
X005646Y001239D01*
X005642Y001262D01*
X005643Y001270D01*
X005659Y001280D01*
X005671Y001299D01*
X005671Y001300D01*
X005567D01*
X005567Y001299D01*
X005579Y001280D01*
X005598Y001268D01*
X005601Y001267D01*
X005600Y001237D01*
X005599Y001237D01*
X005569Y001225D01*
X005544Y001206D01*
X005525Y001181D01*
X005513Y001151D01*
X005509Y001120D01*
X005513Y001089D01*
X005525Y001059D01*
X005544Y001034D01*
X005569Y001015D01*
X005599Y001003D01*
X005614Y001001D01*
X005617Y001001D01*
X005615Y000971D01*
X005585Y000971D01*
X005285D01*
X005274Y000998D01*
X005364Y001089D01*
X005372Y001100D01*
X005375Y001114D01*
Y001278D01*
X005379Y001280D01*
X005391Y001299D01*
X005395Y001320D01*
X005391Y001341D01*
X005379Y001360D01*
X005375Y001362D01*
Y001435D01*
X005399D01*
Y001484D01*
X005457D01*
Y001435D01*
X005577D01*
Y001605D01*
X005563D01*
X005546Y001634D01*
X005546Y001635D01*
X005550Y001655D01*
X005546Y001677D01*
X005534Y001695D01*
X005530Y001698D01*
Y001758D01*
X005585D01*
Y001858D01*
Y001958D01*
Y002058D01*
Y002158D01*
Y002262D01*
X005552D01*
Y002390D01*
X005576D01*
Y002560D01*
X005456D01*
Y002511D01*
X005399D01*
Y002560D01*
X005279D01*
Y002390D01*
X005399D01*
Y002439D01*
X005456D01*
Y002390D01*
X005481D01*
Y002262D01*
X005304D01*
Y002134D01*
X005245D01*
Y002147D01*
X005075D01*
Y002055D01*
X005045Y002039D01*
X005041Y002042D01*
X005040Y002042D01*
Y001990D01*
Y001938D01*
X005041Y001938D01*
X005045Y001941D01*
X005075Y001925D01*
Y001880D01*
X005182D01*
X005193Y001852D01*
X005178Y001837D01*
X005169Y001824D01*
X005166Y001810D01*
X005075D01*
Y001690D01*
X005109D01*
Y001605D01*
X005089D01*
Y001435D01*
X005209D01*
Y001605D01*
X005188D01*
Y001690D01*
X005245D01*
Y001767D01*
X005246Y001771D01*
Y001792D01*
X005276Y001822D01*
X005304Y001811D01*
Y001758D01*
X005459D01*
Y001698D01*
X005455Y001695D01*
X005443Y001677D01*
X005438Y001655D01*
X005443Y001634D01*
X005445Y001630D01*
X005457Y001605D01*
Y001555D01*
X005399D01*
Y001605D01*
X005279D01*
Y001435D01*
X005303D01*
Y001362D01*
X005299Y001360D01*
X005287Y001341D01*
X005283Y001320D01*
X005287Y001299D01*
X005299Y001280D01*
X005303Y001278D01*
Y001129D01*
X005195Y001021D01*
X004868D01*
X004861Y001049D01*
X004861Y001051D01*
X004886Y001069D01*
X004905Y001094D01*
X004917Y001124D01*
X004921Y001155D01*
X004917Y001186D01*
X004905Y001216D01*
X004886Y001241D01*
X004861Y001260D01*
X004831Y001272D01*
X004800Y001276D01*
X004769Y001272D01*
X004739Y001260D01*
X004714Y001241D01*
X004695Y001216D01*
X004683Y001186D01*
X004679Y001155D01*
X004683Y001124D01*
X004695Y001094D01*
X004714Y001069D01*
X004739Y001051D01*
X004739Y001049D01*
X004732Y001021D01*
X003906D01*
X003617Y001310D01*
X003605Y001318D01*
X003591Y001321D01*
X003456D01*
X003386Y001391D01*
Y001913D01*
X003400Y001924D01*
Y001990D01*
Y002056D01*
X003386Y002067D01*
Y002787D01*
X003404Y002814D01*
X003654D01*
X003670Y002784D01*
X003668Y002781D01*
X003664Y002760D01*
X003668Y002739D01*
X003680Y002720D01*
X003699Y002708D01*
X003720Y002704D01*
X003741Y002708D01*
X003760Y002720D01*
X003762Y002724D01*
X003832D01*
X003843Y002710D01*
X003975D01*
X003986Y002724D01*
X004243D01*
X004245Y002720D01*
X004249Y002718D01*
Y002560D01*
X004225D01*
Y002511D01*
X004166D01*
Y002560D01*
X004046D01*
Y002390D01*
X004166D01*
Y002439D01*
X004225D01*
Y002390D01*
X004322D01*
X004334Y002360D01*
X004235Y002260D01*
X004207Y002275D01*
X004207Y002276D01*
X004203Y002299D01*
X004189Y002319D01*
X004169Y002333D01*
X004146Y002337D01*
X004123Y002333D01*
X004103Y002319D01*
X004089Y002299D01*
X004085Y002276D01*
X004089Y002253D01*
X004103Y002233D01*
X004123Y002220D01*
X004146Y002215D01*
X004169Y002220D01*
X004185Y002230D01*
X004193Y002229D01*
X004199Y002226D01*
X004214Y002216D01*
Y002128D01*
X004217Y002114D01*
X004225Y002102D01*
X004242Y002085D01*
X004254Y002077D01*
X004268Y002074D01*
X004389D01*
Y001958D01*
Y001858D01*
X004389D01*
X004392Y001829D01*
X004392Y001828D01*
X004388Y001810D01*
X004392Y001790D01*
X004404Y001773D01*
X004421Y001761D01*
X004441Y001757D01*
X004619D01*
X004639Y001761D01*
X004656Y001773D01*
X004684Y001766D01*
X004700Y001750D01*
X004711Y001742D01*
X004725Y001739D01*
X004745D01*
Y001690D01*
X004807D01*
Y001605D01*
X004783D01*
Y001435D01*
X004903D01*
Y001605D01*
X004878D01*
Y001690D01*
X004915D01*
Y001810D01*
X004808D01*
X004805Y001811D01*
X004740D01*
X004715Y001835D01*
X004704Y001843D01*
X004695Y001845D01*
X004692Y001846D01*
X004688Y001876D01*
X004694Y001877D01*
X004705Y001885D01*
X004715Y001895D01*
X004745Y001882D01*
Y001880D01*
X004915D01*
Y002000D01*
X004915D01*
Y002027D01*
X004915D01*
Y002147D01*
X004745D01*
Y002027D01*
X004745D01*
Y002006D01*
X004731Y001976D01*
X004710D01*
X004701Y001974D01*
X004689Y001979D01*
X004671Y001992D01*
Y002058D01*
Y002158D01*
Y002190D01*
X004530D01*
Y002230D01*
X004671D01*
Y002262D01*
X004575D01*
X004553Y002292D01*
X004553Y002295D01*
X004549Y002318D01*
X004535Y002338D01*
X004516Y002352D01*
X004492Y002356D01*
X004474Y002383D01*
X004478Y002390D01*
X004535D01*
Y002439D01*
X004593D01*
Y002390D01*
X004713D01*
Y002560D01*
X004593D01*
Y002511D01*
X004535D01*
Y002560D01*
X004415D01*
Y002440D01*
X004375Y002400D01*
X004345Y002413D01*
Y002560D01*
X004321D01*
Y002718D01*
X004324Y002720D01*
X004337Y002739D01*
X004341Y002760D01*
X004337Y002781D01*
X004332Y002788D01*
X004350Y002815D01*
X004460D01*
Y002815D01*
X004488D01*
Y002815D01*
X004608D01*
Y002932D01*
X004648Y002972D01*
X004678Y002960D01*
Y002815D01*
X004798D01*
Y002833D01*
X004828Y002849D01*
X004829Y002848D01*
X004850Y002844D01*
X004871Y002848D01*
X004890Y002860D01*
X004902Y002879D01*
X004906Y002900D01*
X004902Y002921D01*
X004890Y002940D01*
X004871Y002952D01*
X004850Y002956D01*
X004829Y002952D01*
X004828Y002951D01*
X004798Y002967D01*
Y002985D01*
X004703D01*
X004690Y003015D01*
X004977Y003302D01*
X004985Y003313D01*
X004985Y003313D01*
X005016Y003324D01*
X005079Y003262D01*
X005192Y003375D01*
X005079Y003488D01*
X005056Y003465D01*
X005031Y003481D01*
X005030Y003482D01*
X005033Y003502D01*
X005030Y003523D01*
X005022Y003542D01*
X005009Y003559D01*
X004992Y003572D01*
X004973Y003580D01*
X004952Y003583D01*
X004931Y003580D01*
X004912Y003572D01*
X004895Y003559D01*
X004882Y003542D01*
X004874Y003523D01*
X004871Y003502D01*
X004874Y003481D01*
X004878Y003471D01*
X004856Y003449D01*
X004846Y003453D01*
X004825Y003456D01*
X004811Y003454D01*
X004597Y003667D01*
X004583Y003677D01*
X004565Y003681D01*
X003975D01*
Y003720D01*
X003855D01*
Y003550D01*
X003842Y003534D01*
X003842D01*
Y003324D01*
Y003118D01*
Y002916D01*
X003842Y002912D01*
X003833Y002886D01*
X003692D01*
X003682Y002912D01*
X003682Y002916D01*
Y003118D01*
Y003324D01*
Y003520D01*
X003682Y003534D01*
X003706Y003550D01*
X003785D01*
Y003720D01*
X003665D01*
Y003671D01*
X003525D01*
X003507Y003667D01*
X003493Y003657D01*
X003364Y003529D01*
X003354Y003527D01*
X003335Y003515D01*
X003323Y003496D01*
X003319Y003475D01*
X003323Y003454D01*
X003335Y003435D01*
X003354Y003423D01*
X003375Y003419D01*
X003396Y003423D01*
X003415Y003435D01*
X003427Y003454D01*
X003429Y003464D01*
X003544Y003579D01*
X003644D01*
X003648Y003575D01*
X003645Y003536D01*
X003642Y003534D01*
X003542D01*
Y003324D01*
Y003261D01*
X003465D01*
X003430Y003295D01*
X003431Y003300D01*
X003427Y003321D01*
X003415Y003340D01*
X003396Y003352D01*
X003375Y003356D01*
X003354Y003352D01*
X003335Y003340D01*
X003333Y003336D01*
X003285D01*
Y003360D01*
X003115D01*
Y003240D01*
X003285D01*
Y003264D01*
X003333D01*
X003335Y003260D01*
X003354Y003248D01*
X003375Y003244D01*
X003380Y003245D01*
X003425Y003200D01*
X003436Y003192D01*
X003450Y003189D01*
X003542D01*
Y003118D01*
Y002916D01*
X003542Y002912D01*
X003533Y002886D01*
X003418D01*
X003079Y003225D01*
X003067Y003233D01*
X003054Y003236D01*
X000790D01*
X000736Y003290D01*
Y004193D01*
X000733Y004207D01*
X000725Y004219D01*
X000629Y004315D01*
X000633Y004324D01*
X000636Y004347D01*
X000633Y004370D01*
X000624Y004391D01*
X000610Y004410D01*
X000591Y004424D01*
X000570Y004433D01*
X000547Y004436D01*
X000523Y004433D01*
X000502Y004424D01*
X000483Y004410D01*
X000469Y004391D01*
X000465Y004382D01*
X000435Y004388D01*
Y004435D01*
X000266D01*
X000258Y004435D01*
X000236Y004454D01*
Y004710D01*
X001065Y005539D01*
X002809D01*
X002815Y005509D01*
X002804Y005505D01*
X002779Y005486D01*
X002760Y005461D01*
X002748Y005431D01*
X002744Y005400D01*
X002748Y005369D01*
X002760Y005339D01*
X002779Y005314D01*
X002804Y005295D01*
X002827Y005286D01*
X002821Y005256D01*
X002742D01*
X002740Y005260D01*
X002721Y005272D01*
X002700Y005276D01*
X002679Y005272D01*
X002660Y005260D01*
X002648Y005241D01*
X002644Y005220D01*
X002648Y005199D01*
X002660Y005180D01*
X002679Y005168D01*
X002700Y005164D01*
X002721Y005168D01*
X002740Y005180D01*
X002742Y005184D01*
X003223D01*
X003225Y005180D01*
X003229Y005178D01*
Y005070D01*
X003205D01*
Y005021D01*
X003146D01*
Y005070D01*
X003026D01*
Y004900D01*
X003146D01*
Y004949D01*
X003205D01*
Y004900D01*
X003302D01*
X003314Y004870D01*
X003215Y004770D01*
X003187Y004785D01*
X003187Y004786D01*
X003183Y004809D01*
X003169Y004829D01*
X003149Y004843D01*
X003126Y004847D01*
X003103Y004843D01*
X003083Y004829D01*
X003069Y004809D01*
X003065Y004786D01*
X003069Y004763D01*
X003083Y004743D01*
X003103Y004730D01*
X003126Y004725D01*
X003149Y004730D01*
X003165Y004740D01*
X003173Y004739D01*
X003179Y004736D01*
X003194Y004726D01*
Y004638D01*
X003197Y004624D01*
X003205Y004612D01*
X003222Y004595D01*
X003234Y004587D01*
X003248Y004584D01*
X003369D01*
Y004468D01*
Y004368D01*
X003369D01*
X003372Y004339D01*
X003372Y004338D01*
X003368Y004320D01*
X003372Y004300D01*
X003384Y004283D01*
X003401Y004271D01*
X003421Y004267D01*
X003599D01*
X003619Y004271D01*
X003636Y004283D01*
X003665Y004284D01*
X003695Y004254D01*
X003707Y004246D01*
X003721Y004244D01*
X003725D01*
Y004200D01*
X003787D01*
Y004115D01*
X003763D01*
Y003945D01*
X003883D01*
Y004115D01*
X003858D01*
Y004200D01*
X003895D01*
Y004320D01*
X003730D01*
X003705Y004345D01*
X003694Y004353D01*
X003680Y004356D01*
X003675D01*
X003674Y004356D01*
X003670Y004386D01*
X003674Y004387D01*
X003685Y004395D01*
X003695Y004405D01*
X003725Y004392D01*
Y004390D01*
X003895D01*
Y004510D01*
X003895D01*
Y004537D01*
X003895D01*
Y004657D01*
X003725D01*
Y004537D01*
X003725D01*
Y004516D01*
X003711Y004486D01*
X003690D01*
X003681Y004484D01*
X003669Y004489D01*
X003651Y004502D01*
Y004568D01*
Y004668D01*
Y004700D01*
X003510D01*
Y004740D01*
X003651D01*
Y004772D01*
X003552D01*
X003533Y004795D01*
X003533Y004795D01*
X003529Y004818D01*
X003515Y004838D01*
X003496Y004852D01*
X003472Y004856D01*
X003449Y004852D01*
X003429Y004838D01*
X003416Y004818D01*
X003411Y004795D01*
X003411Y004795D01*
X003392Y004772D01*
X003369D01*
Y004656D01*
X003266D01*
Y004720D01*
X003445Y004900D01*
X003515D01*
Y004949D01*
X003573D01*
Y004900D01*
X003693D01*
Y005070D01*
X003573D01*
Y005021D01*
X003515D01*
Y005070D01*
X003395D01*
Y004950D01*
X003355Y004910D01*
X003325Y004923D01*
Y005070D01*
X003301D01*
Y005178D01*
X003304Y005180D01*
X003317Y005199D01*
X003321Y005220D01*
X003317Y005241D01*
X003304Y005260D01*
X003286Y005272D01*
X003265Y005276D01*
X003243Y005272D01*
X003228Y005297D01*
X003251Y005314D01*
X003270Y005339D01*
X003282Y005369D01*
X003286Y005400D01*
X003282Y005431D01*
X003270Y005461D01*
X003251Y005486D01*
X003226Y005505D01*
X003215Y005509D01*
X003221Y005539D01*
X003903D01*
X003913Y005515D01*
X003913Y005509D01*
X003895Y005486D01*
X003883Y005456D01*
X003879Y005425D01*
X003883Y005394D01*
X003895Y005364D01*
X003914Y005339D01*
X003939Y005320D01*
X003969Y005308D01*
X004000Y005304D01*
X004031Y005308D01*
X004061Y005320D01*
X004086Y005339D01*
X004105Y005364D01*
X004117Y005394D01*
X004121Y005425D01*
X004117Y005456D01*
X004105Y005486D01*
X004086Y005511D01*
X004086Y005511D01*
X004089Y005539D01*
X004092Y005544D01*
X004101Y005550D01*
X004197Y005645D01*
X004233Y005639D01*
X004235Y005635D01*
X004254Y005623D01*
X004275Y005619D01*
X004296Y005623D01*
X004315Y005635D01*
X004327Y005654D01*
X004331Y005675D01*
X004327Y005696D01*
X004315Y005715D01*
X004311Y005717D01*
X004305Y005753D01*
X004366Y005814D01*
X004617D01*
X004631Y005817D01*
X004643Y005825D01*
X004677Y005859D01*
X004823D01*
X004834Y005845D01*
D02*
G37*
G36*
X008320Y004852D02*
X008312Y004849D01*
X008274Y004829D01*
X008240Y004801D01*
X008213Y004768D01*
X008192Y004730D01*
X008180Y004688D01*
X008176Y004645D01*
X008180Y004602D01*
X008192Y004560D01*
X008213Y004522D01*
X008240Y004489D01*
X008274Y004461D01*
X008312Y004441D01*
X008354Y004428D01*
X008397Y004424D01*
X008440Y004428D01*
X008481Y004441D01*
X008519Y004461D01*
X008553Y004489D01*
X008580Y004522D01*
X008601Y004560D01*
X008613Y004602D01*
X008618Y004645D01*
X008613Y004688D01*
X008601Y004730D01*
X008580Y004768D01*
X008553Y004801D01*
X008519Y004829D01*
X008481Y004849D01*
X008485Y004861D01*
X008490Y004861D01*
X008531Y004848D01*
X008569Y004828D01*
X008602Y004800D01*
X008629Y004767D01*
X008650Y004729D01*
X008662Y004688D01*
X008665Y004657D01*
X008666Y004645D01*
X008666D01*
X008666Y004645D01*
Y004252D01*
X008655Y004246D01*
X008641Y004258D01*
X008597Y004285D01*
X008549Y004305D01*
X008498Y004317D01*
X008447Y004321D01*
Y004321D01*
X008447Y004321D01*
X008252D01*
X008252Y004321D01*
Y004321D01*
X008200Y004317D01*
X008149Y004305D01*
X008101Y004285D01*
X008057Y004258D01*
X008039Y004242D01*
X008027Y004247D01*
Y004645D01*
X008027Y004645D01*
X008027D01*
X008028Y004657D01*
X008031Y004688D01*
X008044Y004729D01*
X008064Y004767D01*
X008091Y004800D01*
X008125Y004828D01*
X008163Y004848D01*
X008204Y004861D01*
X008234Y004864D01*
X008247Y004864D01*
Y004864D01*
X008247Y004864D01*
X008318D01*
X008320Y004852D01*
D02*
G37*
G36*
X000164Y004659D02*
Y004168D01*
X000167Y004154D01*
X000175Y004142D01*
X000192Y004125D01*
X000204Y004117D01*
X000218Y004114D01*
X000264D01*
X000269Y004102D01*
X000283Y004084D01*
X000302Y004069D01*
X000319Y004062D01*
X000321Y004047D01*
X000319Y004031D01*
X000302Y004024D01*
X000283Y004010D01*
X000269Y003991D01*
X000260Y003970D01*
X000257Y003947D01*
X000260Y003924D01*
X000269Y003902D01*
X000283Y003884D01*
X000302Y003869D01*
X000319Y003862D01*
X000321Y003847D01*
X000319Y003831D01*
X000302Y003824D01*
X000283Y003810D01*
X000269Y003791D01*
X000260Y003770D01*
X000257Y003747D01*
X000260Y003724D01*
X000269Y003702D01*
X000283Y003684D01*
X000302Y003669D01*
X000319Y003662D01*
X000321Y003647D01*
X000319Y003631D01*
X000302Y003624D01*
X000283Y003610D01*
X000269Y003591D01*
X000260Y003570D01*
X000257Y003547D01*
X000260Y003524D01*
X000269Y003502D01*
X000283Y003484D01*
X000302Y003469D01*
X000319Y003462D01*
X000321Y003447D01*
X000319Y003431D01*
X000302Y003424D01*
X000283Y003410D01*
X000269Y003391D01*
X000260Y003370D01*
X000257Y003347D01*
X000260Y003324D01*
X000269Y003302D01*
X000283Y003284D01*
X000302Y003269D01*
X000319Y003262D01*
X000321Y003247D01*
X000319Y003231D01*
X000302Y003224D01*
X000283Y003210D01*
X000269Y003191D01*
X000260Y003170D01*
X000257Y003147D01*
X000260Y003124D01*
X000269Y003102D01*
X000283Y003084D01*
X000302Y003069D01*
X000319Y003062D01*
X000321Y003047D01*
X000319Y003031D01*
X000302Y003024D01*
X000283Y003010D01*
X000269Y002991D01*
X000260Y002970D01*
X000257Y002947D01*
X000260Y002924D01*
X000269Y002902D01*
X000283Y002884D01*
X000302Y002869D01*
X000319Y002862D01*
X000321Y002847D01*
X000319Y002831D01*
X000302Y002824D01*
X000283Y002810D01*
X000269Y002791D01*
X000260Y002770D01*
X000257Y002747D01*
X000260Y002724D01*
X000269Y002702D01*
X000283Y002684D01*
X000302Y002669D01*
X000319Y002662D01*
X000321Y002647D01*
X000319Y002631D01*
X000302Y002624D01*
X000283Y002610D01*
X000269Y002591D01*
X000260Y002570D01*
X000257Y002547D01*
X000260Y002524D01*
X000269Y002502D01*
X000283Y002484D01*
X000302Y002469D01*
X000323Y002460D01*
X000347Y002457D01*
X000370Y002460D01*
X000391Y002469D01*
X000410Y002484D01*
X000424Y002502D01*
X000431Y002519D01*
X000447Y002522D01*
X000462Y002519D01*
X000469Y002502D01*
X000483Y002484D01*
X000502Y002469D01*
X000523Y002460D01*
X000527Y002460D01*
Y002547D01*
X000547D01*
Y002567D01*
X000633D01*
X000633Y002570D01*
X000624Y002591D01*
X000610Y002610D01*
X000591Y002624D01*
X000574Y002631D01*
X000572Y002647D01*
X000574Y002662D01*
X000591Y002669D01*
X000610Y002684D01*
X000624Y002702D01*
X000633Y002724D01*
X000636Y002747D01*
X000633Y002770D01*
X000624Y002791D01*
X000622Y002794D01*
X000620Y002824D01*
X000627Y002834D01*
X000754Y002961D01*
X000821D01*
X000833Y002933D01*
X000725Y002825D01*
X000717Y002814D01*
X000714Y002800D01*
Y002440D01*
X000610Y002336D01*
X000417D01*
X000415Y002340D01*
X000396Y002352D01*
X000375Y002356D01*
X000354Y002352D01*
X000335Y002340D01*
X000323Y002321D01*
X000319Y002300D01*
X000323Y002279D01*
X000335Y002261D01*
X000333Y002255D01*
X000323Y002232D01*
X000304Y002234D01*
X000263Y002244D01*
X000224Y002260D01*
X000188Y002282D01*
X000156Y002309D01*
X000129Y002342D01*
X000127Y002344D01*
Y004611D01*
X000127Y004641D01*
X000132Y004670D01*
X000134Y004674D01*
X000134Y004674D01*
X000164Y004659D01*
D02*
G37*
G36*
X000766Y002243D02*
Y001845D01*
X000766Y001845D01*
X000766D01*
X000765Y001833D01*
X000762Y001802D01*
X000750Y001761D01*
X000729Y001723D01*
X000702Y001690D01*
X000669Y001662D01*
X000631Y001642D01*
X000590Y001629D01*
X000559Y001626D01*
X000547Y001626D01*
Y001626D01*
X000547Y001626D01*
X000475D01*
X000473Y001638D01*
X000481Y001641D01*
X000519Y001661D01*
X000553Y001689D01*
X000580Y001722D01*
X000601Y001760D01*
X000613Y001802D01*
X000618Y001845D01*
X000613Y001888D01*
X000601Y001930D01*
X000580Y001968D01*
X000553Y002001D01*
X000519Y002029D01*
X000481Y002049D01*
X000440Y002062D01*
X000397Y002066D01*
X000354Y002062D01*
X000312Y002049D01*
X000274Y002029D01*
X000240Y002001D01*
X000213Y001968D01*
X000192Y001930D01*
X000180Y001888D01*
X000176Y001845D01*
X000180Y001802D01*
X000192Y001760D01*
X000213Y001722D01*
X000240Y001689D01*
X000274Y001661D01*
X000312Y001641D01*
X000308Y001629D01*
X000304Y001629D01*
X000263Y001642D01*
X000225Y001662D01*
X000191Y001690D01*
X000164Y001723D01*
X000144Y001761D01*
X000131Y001802D01*
X000128Y001833D01*
X000127Y001845D01*
X000127D01*
X000127Y001845D01*
Y002238D01*
X000139Y002244D01*
X000152Y002232D01*
X000196Y002205D01*
X000244Y002185D01*
X000295Y002173D01*
X000347Y002169D01*
Y002169D01*
X000347Y002169D01*
X000542D01*
X000542Y002169D01*
Y002169D01*
X000593Y002173D01*
X000644Y002185D01*
X000692Y002205D01*
X000736Y002232D01*
X000755Y002248D01*
X000766Y002243D01*
D02*
G37*
G36*
X003152Y000677D02*
X003196Y000650D01*
X003244Y000630D01*
X003287Y000620D01*
X003287Y000607D01*
X003262Y000599D01*
X003224Y000579D01*
X003190Y000551D01*
X003163Y000518D01*
X003142Y000480D01*
X003140Y000471D01*
X003127Y000473D01*
Y000683D01*
X003139Y000689D01*
X003152Y000677D01*
D02*
G37*
G36*
X007511Y000603D02*
X007204Y000295D01*
X007193Y000303D01*
X007197Y000310D01*
X007210Y000352D01*
X007214Y000395D01*
X007210Y000438D01*
X007197Y000480D01*
X007177Y000518D01*
X007149Y000551D01*
X007116Y000579D01*
X007078Y000599D01*
X007070Y000602D01*
X007071Y000614D01*
X007506D01*
X007511Y000603D01*
D02*
G37*
G36*
X003574Y000461D02*
X003613Y000427D01*
X003657Y000400D01*
X003705Y000380D01*
X003756Y000368D01*
X003808Y000364D01*
X003808Y000364D01*
X004044D01*
X004051Y000352D01*
X004023Y000310D01*
X004021Y000305D01*
X004014Y000294D01*
X004014D01*
X004014Y000294D01*
X004003Y000273D01*
X003975Y000240D01*
X003942Y000212D01*
X003904Y000192D01*
X003863Y000179D01*
X003832Y000176D01*
X003820Y000176D01*
Y000176D01*
X003820Y000176D01*
X003425D01*
X003423Y000188D01*
X003431Y000191D01*
X003469Y000211D01*
X003503Y000239D01*
X003530Y000272D01*
X003551Y000310D01*
X003563Y000352D01*
X003568Y000395D01*
X003563Y000438D01*
X003556Y000461D01*
X003568Y000468D01*
X003574Y000461D01*
D02*
G37*
G36*
X006789Y000310D02*
X006809Y000272D01*
X006837Y000239D01*
X006870Y000211D01*
X006908Y000191D01*
X006917Y000188D01*
X006915Y000176D01*
X006705D01*
X006700Y000187D01*
X006711Y000200D01*
X006738Y000245D01*
X006758Y000293D01*
X006768Y000335D01*
X006781Y000335D01*
X006789Y000310D01*
D02*
G37*
%LPC*%
G36*
X003390Y006201D02*
X003359Y006197D01*
X003329Y006185D01*
X003304Y006166D01*
X003285Y006141D01*
X003281Y006131D01*
X003249D01*
X003245Y006141D01*
X003226Y006166D01*
X003201Y006185D01*
X003171Y006197D01*
X003160Y006198D01*
Y006080D01*
Y005962D01*
X003171Y005963D01*
X003201Y005975D01*
X003226Y005994D01*
X003245Y006019D01*
X003249Y006029D01*
X003281D01*
X003285Y006019D01*
X003304Y005994D01*
X003329Y005975D01*
X003359Y005963D01*
X003390Y005959D01*
X003421Y005963D01*
X003451Y005975D01*
X003476Y005994D01*
X003495Y006019D01*
X003499Y006029D01*
X003531D01*
X003535Y006019D01*
X003554Y005994D01*
X003579Y005975D01*
X003609Y005963D01*
X003620Y005962D01*
Y006080D01*
Y006198D01*
X003609Y006197D01*
X003579Y006185D01*
X003554Y006166D01*
X003535Y006141D01*
X003531Y006131D01*
X003499D01*
X003495Y006141D01*
X003476Y006166D01*
X003451Y006185D01*
X003421Y006197D01*
X003390Y006201D01*
D02*
G37*
G36*
X002890D02*
X002859Y006197D01*
X002829Y006185D01*
X002804Y006166D01*
X002785Y006141D01*
X002781Y006131D01*
X002749D01*
X002745Y006141D01*
X002726Y006166D01*
X002701Y006185D01*
X002671Y006197D01*
X002660Y006198D01*
Y006080D01*
Y005962D01*
X002671Y005963D01*
X002701Y005975D01*
X002726Y005994D01*
X002745Y006019D01*
X002749Y006029D01*
X002781D01*
X002785Y006019D01*
X002804Y005994D01*
X002829Y005975D01*
X002859Y005963D01*
X002890Y005959D01*
X002921Y005963D01*
X002951Y005975D01*
X002976Y005994D01*
X002995Y006019D01*
X002999Y006029D01*
X003031D01*
X003035Y006019D01*
X003054Y005994D01*
X003079Y005975D01*
X003109Y005963D01*
X003120Y005962D01*
Y006080D01*
Y006198D01*
X003109Y006197D01*
X003079Y006185D01*
X003054Y006166D01*
X003035Y006141D01*
X003031Y006131D01*
X002999D01*
X002995Y006141D01*
X002976Y006166D01*
X002951Y006185D01*
X002921Y006197D01*
X002890Y006201D01*
D02*
G37*
G36*
X003660Y006198D02*
Y006100D01*
X003758D01*
X003757Y006111D01*
X003745Y006141D01*
X003726Y006166D01*
X003701Y006185D01*
X003671Y006197D01*
X003660Y006198D01*
D02*
G37*
G36*
X003758Y006060D02*
X003660D01*
Y005962D01*
X003671Y005963D01*
X003701Y005975D01*
X003726Y005994D01*
X003745Y006019D01*
X003757Y006049D01*
X003758Y006060D01*
D02*
G37*
G36*
X002390Y006201D02*
X002359Y006197D01*
X002329Y006185D01*
X002304Y006166D01*
X002285Y006141D01*
X002273Y006111D01*
X002269Y006080D01*
X002273Y006049D01*
X002285Y006019D01*
X002304Y005994D01*
X002329Y005975D01*
X002359Y005963D01*
X002390Y005959D01*
X002421Y005963D01*
X002451Y005975D01*
X002476Y005994D01*
X002495Y006019D01*
X002499Y006029D01*
X002531D01*
X002535Y006019D01*
X002554Y005994D01*
X002579Y005975D01*
X002609Y005963D01*
X002620Y005962D01*
Y006080D01*
Y006198D01*
X002609Y006197D01*
X002579Y006185D01*
X002554Y006166D01*
X002535Y006141D01*
X002531Y006131D01*
X002499D01*
X002495Y006141D01*
X002476Y006166D01*
X002451Y006185D01*
X002421Y006197D01*
X002390Y006201D01*
D02*
G37*
G36*
X003390Y005901D02*
X003359Y005897D01*
X003329Y005885D01*
X003304Y005866D01*
X003285Y005841D01*
X003281Y005831D01*
X003249D01*
X003245Y005841D01*
X003226Y005866D01*
X003201Y005885D01*
X003171Y005897D01*
X003160Y005898D01*
Y005780D01*
Y005662D01*
X003171Y005663D01*
X003201Y005675D01*
X003226Y005694D01*
X003245Y005719D01*
X003249Y005729D01*
X003281D01*
X003285Y005719D01*
X003304Y005694D01*
X003329Y005675D01*
X003359Y005663D01*
X003390Y005659D01*
X003421Y005663D01*
X003451Y005675D01*
X003476Y005694D01*
X003495Y005719D01*
X003499Y005729D01*
X003531D01*
X003535Y005719D01*
X003554Y005694D01*
X003579Y005675D01*
X003609Y005663D01*
X003620Y005662D01*
Y005780D01*
Y005898D01*
X003609Y005897D01*
X003579Y005885D01*
X003554Y005866D01*
X003535Y005841D01*
X003531Y005831D01*
X003499D01*
X003495Y005841D01*
X003476Y005866D01*
X003451Y005885D01*
X003421Y005897D01*
X003390Y005901D01*
D02*
G37*
G36*
X002890D02*
X002859Y005897D01*
X002829Y005885D01*
X002804Y005866D01*
X002785Y005841D01*
X002781Y005831D01*
X002749D01*
X002745Y005841D01*
X002726Y005866D01*
X002701Y005885D01*
X002671Y005897D01*
X002660Y005898D01*
Y005780D01*
Y005662D01*
X002671Y005663D01*
X002701Y005675D01*
X002726Y005694D01*
X002745Y005719D01*
X002749Y005729D01*
X002781D01*
X002785Y005719D01*
X002804Y005694D01*
X002829Y005675D01*
X002859Y005663D01*
X002890Y005659D01*
X002921Y005663D01*
X002951Y005675D01*
X002976Y005694D01*
X002995Y005719D01*
X002999Y005729D01*
X003031D01*
X003035Y005719D01*
X003054Y005694D01*
X003079Y005675D01*
X003109Y005663D01*
X003120Y005662D01*
Y005780D01*
Y005898D01*
X003109Y005897D01*
X003079Y005885D01*
X003054Y005866D01*
X003035Y005841D01*
X003031Y005831D01*
X002999D01*
X002995Y005841D01*
X002976Y005866D01*
X002951Y005885D01*
X002921Y005897D01*
X002890Y005901D01*
D02*
G37*
G36*
X003660Y005898D02*
Y005800D01*
X003758D01*
X003757Y005811D01*
X003745Y005841D01*
X003726Y005866D01*
X003701Y005885D01*
X003671Y005897D01*
X003660Y005898D01*
D02*
G37*
G36*
X004000Y006021D02*
X003969Y006017D01*
X003939Y006005D01*
X003914Y005986D01*
X003895Y005961D01*
X003883Y005931D01*
X003879Y005900D01*
X003883Y005869D01*
X003895Y005839D01*
X003914Y005814D01*
X003939Y005795D01*
X003969Y005783D01*
X004000Y005779D01*
X004031Y005783D01*
X004061Y005795D01*
X004086Y005814D01*
X004105Y005839D01*
X004117Y005869D01*
X004121Y005900D01*
X004117Y005931D01*
X004105Y005961D01*
X004086Y005986D01*
X004061Y006005D01*
X004031Y006017D01*
X004000Y006021D01*
D02*
G37*
G36*
X003758Y005760D02*
X003660D01*
Y005662D01*
X003671Y005663D01*
X003701Y005675D01*
X003726Y005694D01*
X003745Y005719D01*
X003757Y005749D01*
X003758Y005760D01*
D02*
G37*
G36*
X002390Y005901D02*
X002359Y005897D01*
X002329Y005885D01*
X002304Y005866D01*
X002285Y005841D01*
X002273Y005811D01*
X002269Y005780D01*
X002273Y005749D01*
X002285Y005719D01*
X002304Y005694D01*
X002329Y005675D01*
X002359Y005663D01*
X002390Y005659D01*
X002421Y005663D01*
X002451Y005675D01*
X002476Y005694D01*
X002495Y005719D01*
X002499Y005729D01*
X002531D01*
X002535Y005719D01*
X002554Y005694D01*
X002579Y005675D01*
X002609Y005663D01*
X002620Y005662D01*
Y005780D01*
Y005898D01*
X002609Y005897D01*
X002579Y005885D01*
X002554Y005866D01*
X002535Y005841D01*
X002531Y005831D01*
X002499D01*
X002495Y005841D01*
X002476Y005866D01*
X002451Y005885D01*
X002421Y005897D01*
X002390Y005901D01*
D02*
G37*
G36*
X004952Y005805D02*
X004848D01*
X004848Y005804D01*
X004860Y005785D01*
X004864Y005783D01*
Y005730D01*
X004815D01*
Y005690D01*
X004900D01*
X004985D01*
Y005730D01*
X004936D01*
Y005783D01*
X004940Y005785D01*
X004952Y005804D01*
X004952Y005805D01*
D02*
G37*
G36*
X004985Y005650D02*
X004920D01*
Y005610D01*
X004985D01*
Y005650D01*
D02*
G37*
G36*
X004880D02*
X004815D01*
Y005610D01*
X004880D01*
Y005650D01*
D02*
G37*
G36*
X005455Y005540D02*
X005285D01*
Y005515D01*
X005178D01*
X005176Y005518D01*
X005158Y005530D01*
X005136Y005534D01*
X005115Y005530D01*
X005097Y005518D01*
X005095Y005515D01*
X004985D01*
Y005540D01*
X004815D01*
Y005420D01*
X004985D01*
Y005443D01*
X005093D01*
X005097Y005439D01*
X005115Y005426D01*
X005136Y005422D01*
X005158Y005426D01*
X005176Y005439D01*
X005179Y005443D01*
X005285D01*
Y005420D01*
X005455D01*
Y005540D01*
D02*
G37*
G36*
X005560Y005548D02*
X005544Y005541D01*
X005530Y005530D01*
X005518Y005515D01*
X005512Y005499D01*
X005560D01*
Y005548D01*
D02*
G37*
G36*
Y005460D02*
X005512D01*
X005518Y005444D01*
X005530Y005429D01*
X005544Y005418D01*
X005560Y005411D01*
Y005460D01*
D02*
G37*
G36*
X001665Y005326D02*
X001643Y005322D01*
X001625Y005310D01*
X001623Y005306D01*
X001142D01*
X001140Y005310D01*
X001121Y005322D01*
X001100Y005326D01*
X001079Y005322D01*
X001060Y005310D01*
X001048Y005291D01*
X001044Y005270D01*
X001048Y005249D01*
X001060Y005230D01*
X001079Y005218D01*
X001100Y005214D01*
X001121Y005218D01*
X001140Y005230D01*
X001142Y005234D01*
X001212D01*
X001223Y005220D01*
X001355D01*
X001366Y005234D01*
X001623D01*
X001625Y005230D01*
X001629Y005228D01*
Y005070D01*
X001605D01*
Y005021D01*
X001546D01*
Y005070D01*
X001426D01*
Y004900D01*
X001546D01*
Y004949D01*
X001605D01*
Y004900D01*
X001702D01*
X001714Y004870D01*
X001615Y004770D01*
X001587Y004785D01*
X001587Y004786D01*
X001583Y004809D01*
X001569Y004829D01*
X001549Y004843D01*
X001526Y004847D01*
X001503Y004843D01*
X001483Y004829D01*
X001469Y004809D01*
X001465Y004786D01*
X001469Y004763D01*
X001483Y004743D01*
X001503Y004730D01*
X001526Y004725D01*
X001549Y004730D01*
X001565Y004740D01*
X001573Y004739D01*
X001579Y004736D01*
X001594Y004726D01*
Y004638D01*
X001597Y004624D01*
X001605Y004612D01*
X001622Y004595D01*
X001634Y004587D01*
X001648Y004584D01*
X001769D01*
Y004468D01*
Y004368D01*
X001769D01*
X001772Y004339D01*
X001772Y004338D01*
X001768Y004320D01*
X001772Y004300D01*
X001784Y004283D01*
X001801Y004271D01*
X001821Y004267D01*
X001999D01*
X002019Y004271D01*
X002036Y004283D01*
X002064Y004276D01*
X002080Y004260D01*
X002091Y004252D01*
X002105Y004249D01*
X002125D01*
Y004200D01*
X002187D01*
Y004115D01*
X002163D01*
Y003945D01*
X002283D01*
Y004115D01*
X002258D01*
Y004200D01*
X002295D01*
Y004320D01*
X002188D01*
X002185Y004321D01*
X002120D01*
X002095Y004345D01*
X002084Y004353D01*
X002075Y004355D01*
X002072Y004356D01*
X002068Y004386D01*
X002074Y004387D01*
X002085Y004395D01*
X002095Y004405D01*
X002125Y004392D01*
Y004390D01*
X002295D01*
Y004510D01*
X002295D01*
Y004537D01*
X002295D01*
Y004657D01*
X002125D01*
Y004537D01*
X002125D01*
Y004516D01*
X002111Y004486D01*
X002090D01*
X002081Y004484D01*
X002069Y004489D01*
X002051Y004502D01*
Y004568D01*
Y004668D01*
Y004700D01*
X001910D01*
Y004740D01*
X002051D01*
Y004772D01*
X001952D01*
X001933Y004795D01*
X001933Y004795D01*
X001929Y004818D01*
X001915Y004838D01*
X001896Y004852D01*
X001872Y004856D01*
X001849Y004852D01*
X001829Y004838D01*
X001816Y004818D01*
X001811Y004795D01*
X001811Y004795D01*
X001792Y004772D01*
X001769D01*
Y004656D01*
X001666D01*
Y004720D01*
X001845Y004900D01*
X001915D01*
Y004949D01*
X001973D01*
Y004900D01*
X002093D01*
Y005070D01*
X001973D01*
Y005021D01*
X001915D01*
Y005070D01*
X001795D01*
Y004950D01*
X001755Y004910D01*
X001725Y004923D01*
Y005070D01*
X001701D01*
Y005228D01*
X001704Y005230D01*
X001717Y005249D01*
X001721Y005270D01*
X001717Y005291D01*
X001704Y005310D01*
X001686Y005322D01*
X001665Y005326D01*
D02*
G37*
G36*
X004469Y005180D02*
X004437D01*
X004437Y005179D01*
X004449Y005160D01*
X004468Y005148D01*
X004469Y005148D01*
Y005180D01*
D02*
G37*
G36*
X001341D02*
X001309D01*
Y005148D01*
X001310Y005148D01*
X001329Y005160D01*
X001341Y005179D01*
X001341Y005180D01*
D02*
G37*
G36*
X001269D02*
X001237D01*
X001237Y005179D01*
X001249Y005160D01*
X001268Y005148D01*
X001269Y005148D01*
Y005180D01*
D02*
G37*
G36*
X004300Y005326D02*
X004279Y005322D01*
X004260Y005310D01*
X004248Y005291D01*
X004244Y005270D01*
X004248Y005249D01*
X004260Y005230D01*
X004279Y005218D01*
X004300Y005214D01*
X004321Y005218D01*
X004340Y005230D01*
X004342Y005234D01*
X004412D01*
X004423Y005220D01*
X004489D01*
Y005200D01*
X004509D01*
Y005148D01*
X004510Y005148D01*
X004529Y005160D01*
X004532Y005165D01*
X004542Y005179D01*
X004571Y005178D01*
X004575Y005177D01*
X004823D01*
X004825Y005173D01*
X004829Y005171D01*
Y005070D01*
X004805D01*
Y005021D01*
X004746D01*
Y005070D01*
X004626D01*
Y004900D01*
X004746D01*
Y004949D01*
X004805D01*
Y004900D01*
X004902D01*
X004914Y004870D01*
X004815Y004770D01*
X004787Y004785D01*
X004787Y004786D01*
X004783Y004809D01*
X004769Y004829D01*
X004749Y004843D01*
X004726Y004847D01*
X004703Y004843D01*
X004683Y004829D01*
X004669Y004809D01*
X004665Y004786D01*
X004669Y004763D01*
X004683Y004743D01*
X004703Y004730D01*
X004726Y004725D01*
X004749Y004730D01*
X004765Y004740D01*
X004773Y004739D01*
X004779Y004736D01*
X004794Y004726D01*
Y004638D01*
X004797Y004624D01*
X004805Y004612D01*
X004822Y004595D01*
X004834Y004587D01*
X004848Y004584D01*
X004969D01*
Y004468D01*
Y004368D01*
X004969D01*
X004972Y004339D01*
X004972Y004338D01*
X004968Y004320D01*
X004972Y004300D01*
X004984Y004283D01*
X005001Y004271D01*
X005021Y004267D01*
X005199D01*
X005219Y004271D01*
X005236Y004283D01*
X005264Y004276D01*
X005280Y004260D01*
X005291Y004252D01*
X005305Y004249D01*
X005325D01*
Y004200D01*
X005387D01*
Y004115D01*
X005363D01*
Y003945D01*
X005483D01*
Y004115D01*
X005458D01*
Y004200D01*
X005495D01*
Y004320D01*
X005388D01*
X005385Y004321D01*
X005320D01*
X005295Y004345D01*
X005284Y004353D01*
X005275Y004355D01*
X005272Y004356D01*
X005268Y004386D01*
X005274Y004387D01*
X005285Y004395D01*
X005295Y004405D01*
X005325Y004392D01*
Y004390D01*
X005495D01*
Y004510D01*
X005495D01*
Y004537D01*
X005495D01*
Y004657D01*
X005325D01*
Y004537D01*
X005325D01*
Y004516D01*
X005311Y004486D01*
X005290D01*
X005281Y004484D01*
X005269Y004489D01*
X005251Y004502D01*
Y004568D01*
Y004668D01*
Y004700D01*
X005110D01*
Y004740D01*
X005251D01*
Y004772D01*
X005152D01*
X005133Y004795D01*
X005133Y004795D01*
X005129Y004818D01*
X005115Y004838D01*
X005096Y004852D01*
X005072Y004856D01*
X005049Y004852D01*
X005029Y004838D01*
X005016Y004818D01*
X005011Y004795D01*
X005011Y004795D01*
X004992Y004772D01*
X004969D01*
Y004656D01*
X004866D01*
Y004720D01*
X005045Y004900D01*
X005115D01*
Y004949D01*
X005173D01*
Y004900D01*
X005293D01*
Y005070D01*
X005173D01*
Y005021D01*
X005115D01*
Y005070D01*
X004995D01*
Y004950D01*
X004955Y004910D01*
X004925Y004923D01*
Y005070D01*
X004901D01*
Y005171D01*
X004905Y005173D01*
X004917Y005192D01*
X004921Y005213D01*
X004917Y005234D01*
X004905Y005253D01*
X004887Y005265D01*
X004865Y005269D01*
X004844Y005265D01*
X004825Y005253D01*
X004823Y005249D01*
X004590D01*
X004543Y005295D01*
X004532Y005303D01*
X004518Y005306D01*
X004342D01*
X004340Y005310D01*
X004321Y005322D01*
X004300Y005326D01*
D02*
G37*
G36*
X004556Y005070D02*
X004436D01*
Y005021D01*
X004379D01*
Y005070D01*
X004259D01*
Y004900D01*
X004379D01*
Y004949D01*
X004436D01*
Y004900D01*
X004461D01*
Y004772D01*
X004284D01*
Y004644D01*
X004225D01*
Y004657D01*
X004055D01*
Y004565D01*
X004025Y004549D01*
X004021Y004552D01*
X004020Y004552D01*
Y004500D01*
Y004448D01*
X004021Y004448D01*
X004025Y004451D01*
X004055Y004435D01*
Y004390D01*
X004162D01*
X004173Y004362D01*
X004158Y004347D01*
X004149Y004334D01*
X004146Y004320D01*
X004055D01*
Y004200D01*
X004089D01*
Y004115D01*
X004069D01*
Y003945D01*
X004189D01*
Y004115D01*
X004168D01*
Y004200D01*
X004225D01*
Y004277D01*
X004226Y004281D01*
Y004302D01*
X004256Y004332D01*
X004284Y004321D01*
Y004268D01*
X004439D01*
Y004208D01*
X004435Y004205D01*
X004423Y004187D01*
X004418Y004165D01*
X004423Y004144D01*
X004425Y004140D01*
X004437Y004115D01*
Y004065D01*
X004379D01*
Y004115D01*
X004259D01*
Y003945D01*
X004283D01*
Y003872D01*
X004279Y003870D01*
X004267Y003851D01*
X004263Y003830D01*
X004267Y003809D01*
X004279Y003790D01*
X004298Y003778D01*
X004319Y003774D01*
X004341Y003778D01*
X004359Y003790D01*
X004371Y003809D01*
X004375Y003830D01*
X004371Y003851D01*
X004359Y003870D01*
X004355Y003872D01*
Y003945D01*
X004379D01*
Y003994D01*
X004437D01*
Y003945D01*
X004557D01*
Y004115D01*
X004543D01*
X004526Y004144D01*
X004526Y004145D01*
X004530Y004165D01*
X004526Y004187D01*
X004514Y004205D01*
X004510Y004208D01*
Y004268D01*
X004565D01*
Y004368D01*
Y004468D01*
Y004568D01*
Y004668D01*
Y004772D01*
X004532D01*
Y004900D01*
X004556D01*
Y005070D01*
D02*
G37*
G36*
X002956D02*
X002836D01*
Y005021D01*
X002779D01*
Y005070D01*
X002659D01*
Y004900D01*
X002779D01*
Y004949D01*
X002836D01*
Y004900D01*
X002861D01*
Y004772D01*
X002684D01*
Y004644D01*
X002625D01*
Y004657D01*
X002455D01*
Y004565D01*
X002425Y004549D01*
X002421Y004552D01*
X002420Y004552D01*
Y004500D01*
Y004448D01*
X002421Y004448D01*
X002425Y004451D01*
X002455Y004435D01*
Y004390D01*
X002562D01*
X002573Y004362D01*
X002558Y004347D01*
X002549Y004334D01*
X002546Y004320D01*
X002455D01*
Y004200D01*
X002489D01*
Y004115D01*
X002469D01*
Y003945D01*
X002589D01*
Y004115D01*
X002568D01*
Y004200D01*
X002625D01*
Y004277D01*
X002626Y004281D01*
Y004302D01*
X002656Y004332D01*
X002684Y004321D01*
Y004268D01*
X002839D01*
Y004208D01*
X002835Y004205D01*
X002823Y004187D01*
X002818Y004165D01*
X002823Y004144D01*
X002825Y004140D01*
X002837Y004115D01*
Y004065D01*
X002779D01*
Y004115D01*
X002659D01*
Y003945D01*
X002683D01*
Y003872D01*
X002679Y003870D01*
X002667Y003851D01*
X002663Y003830D01*
X002667Y003809D01*
X002679Y003790D01*
X002698Y003778D01*
X002719Y003774D01*
X002741Y003778D01*
X002759Y003790D01*
X002771Y003809D01*
X002775Y003830D01*
X002771Y003851D01*
X002759Y003870D01*
X002755Y003872D01*
Y003945D01*
X002779D01*
Y003994D01*
X002837D01*
Y003945D01*
X002957D01*
Y004115D01*
X002943D01*
X002926Y004144D01*
X002926Y004145D01*
X002930Y004165D01*
X002926Y004187D01*
X002914Y004205D01*
X002910Y004208D01*
Y004268D01*
X002965D01*
Y004368D01*
Y004468D01*
Y004568D01*
Y004668D01*
Y004772D01*
X002932D01*
Y004900D01*
X002956D01*
Y005070D01*
D02*
G37*
G36*
X001356D02*
X001236D01*
Y005021D01*
X001179D01*
Y005070D01*
X001059D01*
Y004900D01*
X001179D01*
Y004949D01*
X001236D01*
Y004900D01*
X001261D01*
Y004772D01*
X001084D01*
Y004644D01*
X001025D01*
Y004657D01*
X000855D01*
Y004565D01*
X000825Y004549D01*
X000821Y004552D01*
X000820Y004552D01*
Y004500D01*
Y004448D01*
X000821Y004448D01*
X000825Y004451D01*
X000855Y004435D01*
Y004390D01*
X000962D01*
X000973Y004362D01*
X000958Y004347D01*
X000949Y004334D01*
X000946Y004320D01*
X000855D01*
Y004200D01*
X000889D01*
Y004115D01*
X000869D01*
Y003945D01*
X000989D01*
Y004115D01*
X000968D01*
Y004200D01*
X001025D01*
Y004277D01*
X001026Y004281D01*
Y004302D01*
X001056Y004332D01*
X001084Y004321D01*
Y004268D01*
X001239D01*
Y004208D01*
X001235Y004205D01*
X001223Y004187D01*
X001218Y004165D01*
X001223Y004144D01*
X001225Y004140D01*
X001237Y004115D01*
Y004065D01*
X001179D01*
Y004115D01*
X001059D01*
Y003945D01*
X001083D01*
Y003872D01*
X001079Y003870D01*
X001067Y003851D01*
X001063Y003830D01*
X001067Y003809D01*
X001079Y003790D01*
X001098Y003778D01*
X001119Y003774D01*
X001141Y003778D01*
X001159Y003790D01*
X001171Y003809D01*
X001175Y003830D01*
X001171Y003851D01*
X001159Y003870D01*
X001155Y003872D01*
Y003945D01*
X001179D01*
Y003994D01*
X001237D01*
Y003945D01*
X001357D01*
Y004115D01*
X001343D01*
X001326Y004144D01*
X001326Y004145D01*
X001330Y004165D01*
X001326Y004187D01*
X001314Y004205D01*
X001310Y004208D01*
Y004268D01*
X001365D01*
Y004368D01*
Y004468D01*
Y004568D01*
Y004668D01*
Y004772D01*
X001332D01*
Y004900D01*
X001356D01*
Y005070D01*
D02*
G37*
G36*
X005480Y005286D02*
X005459Y005282D01*
X005440Y005270D01*
X005428Y005251D01*
X005424Y005230D01*
X005425Y005225D01*
X005397Y005198D01*
X005390Y005186D01*
X005387Y005173D01*
Y005070D01*
X005363D01*
Y004900D01*
X005387D01*
Y004847D01*
X005325D01*
Y004727D01*
X005495D01*
Y004847D01*
X005458D01*
Y004900D01*
X005483D01*
Y005070D01*
X005458D01*
Y005153D01*
X005480Y005174D01*
X005501Y005178D01*
X005520Y005190D01*
X005532Y005209D01*
X005536Y005230D01*
X005532Y005251D01*
X005520Y005270D01*
X005501Y005282D01*
X005480Y005286D01*
D02*
G37*
G36*
X004129Y005288D02*
X004115Y005285D01*
X004111Y005283D01*
X004107Y005282D01*
X004089Y005270D01*
X004077Y005251D01*
X004072Y005230D01*
X004077Y005209D01*
X004089Y005190D01*
X004093Y005188D01*
Y005070D01*
X004069D01*
Y004900D01*
X004093D01*
Y004847D01*
X004055D01*
Y004727D01*
X004225D01*
Y004847D01*
X004164D01*
Y004900D01*
X004189D01*
Y005070D01*
X004164D01*
Y005188D01*
X004168Y005190D01*
X004180Y005209D01*
X004185Y005230D01*
X004180Y005251D01*
X004168Y005270D01*
X004150Y005282D01*
X004147Y005282D01*
X004143Y005285D01*
X004129Y005288D01*
D02*
G37*
G36*
X003880Y005286D02*
X003859Y005282D01*
X003840Y005270D01*
X003828Y005251D01*
X003824Y005230D01*
X003825Y005225D01*
X003797Y005198D01*
X003790Y005186D01*
X003787Y005173D01*
Y005070D01*
X003763D01*
Y004900D01*
X003787D01*
Y004847D01*
X003725D01*
Y004727D01*
X003895D01*
Y004847D01*
X003858D01*
Y004900D01*
X003883D01*
Y005070D01*
X003858D01*
Y005153D01*
X003880Y005174D01*
X003901Y005178D01*
X003920Y005190D01*
X003932Y005209D01*
X003936Y005230D01*
X003932Y005251D01*
X003920Y005270D01*
X003901Y005282D01*
X003880Y005286D01*
D02*
G37*
G36*
X002529Y005288D02*
X002515Y005285D01*
X002511Y005283D01*
X002507Y005282D01*
X002489Y005270D01*
X002477Y005251D01*
X002472Y005230D01*
X002477Y005209D01*
X002489Y005190D01*
X002493Y005188D01*
Y005070D01*
X002469D01*
Y004900D01*
X002493D01*
Y004847D01*
X002455D01*
Y004727D01*
X002625D01*
Y004847D01*
X002564D01*
Y004900D01*
X002589D01*
Y005070D01*
X002564D01*
Y005188D01*
X002568Y005190D01*
X002580Y005209D01*
X002585Y005230D01*
X002580Y005251D01*
X002568Y005270D01*
X002550Y005282D01*
X002547Y005282D01*
X002543Y005285D01*
X002529Y005288D01*
D02*
G37*
G36*
X002280Y005286D02*
X002259Y005282D01*
X002240Y005270D01*
X002228Y005251D01*
X002224Y005230D01*
X002225Y005225D01*
X002197Y005198D01*
X002190Y005186D01*
X002187Y005173D01*
Y005070D01*
X002163D01*
Y004900D01*
X002187D01*
Y004847D01*
X002125D01*
Y004727D01*
X002295D01*
Y004847D01*
X002258D01*
Y004900D01*
X002283D01*
Y005070D01*
X002258D01*
Y005153D01*
X002280Y005174D01*
X002301Y005178D01*
X002320Y005190D01*
X002332Y005209D01*
X002336Y005230D01*
X002332Y005251D01*
X002320Y005270D01*
X002301Y005282D01*
X002280Y005286D01*
D02*
G37*
G36*
X000929Y005288D02*
X000915Y005285D01*
X000911Y005283D01*
X000907Y005282D01*
X000889Y005270D01*
X000877Y005251D01*
X000872Y005230D01*
X000877Y005209D01*
X000889Y005190D01*
X000893Y005188D01*
Y005070D01*
X000869D01*
Y004900D01*
X000893D01*
Y004847D01*
X000855D01*
Y004727D01*
X001025D01*
Y004847D01*
X000964D01*
Y004900D01*
X000989D01*
Y005070D01*
X000964D01*
Y005188D01*
X000968Y005190D01*
X000980Y005209D01*
X000985Y005230D01*
X000980Y005251D01*
X000968Y005270D01*
X000950Y005282D01*
X000947Y005282D01*
X000943Y005285D01*
X000929Y005288D01*
D02*
G37*
G36*
X003980Y004552D02*
X003979Y004552D01*
X003960Y004540D01*
X003948Y004521D01*
X003948Y004520D01*
X003980D01*
Y004552D01*
D02*
G37*
G36*
X002380D02*
X002379Y004552D01*
X002360Y004540D01*
X002348Y004521D01*
X002348Y004520D01*
X002380D01*
Y004552D01*
D02*
G37*
G36*
X000780D02*
X000779Y004552D01*
X000760Y004540D01*
X000748Y004521D01*
X000748Y004520D01*
X000780D01*
Y004552D01*
D02*
G37*
G36*
X003980Y004480D02*
X003948D01*
X003948Y004479D01*
X003960Y004460D01*
X003979Y004448D01*
X003980Y004448D01*
Y004480D01*
D02*
G37*
G36*
X002380D02*
X002348D01*
X002348Y004479D01*
X002360Y004460D01*
X002379Y004448D01*
X002380Y004448D01*
Y004480D01*
D02*
G37*
G36*
X000780D02*
X000748D01*
X000748Y004479D01*
X000760Y004460D01*
X000779Y004448D01*
X000780Y004448D01*
Y004480D01*
D02*
G37*
G36*
X005293Y004115D02*
X005173D01*
Y004070D01*
X005114D01*
Y004115D01*
X004994D01*
Y003945D01*
X005114D01*
Y003989D01*
X005173D01*
Y003945D01*
X005192D01*
Y003868D01*
X005181Y003851D01*
X005177Y003830D01*
X005181Y003809D01*
X005193Y003790D01*
X005211Y003778D01*
X005233Y003774D01*
X005254Y003778D01*
X005272Y003790D01*
X005285Y003809D01*
X005289Y003830D01*
X005285Y003851D01*
X005273Y003868D01*
Y003945D01*
X005293D01*
Y004115D01*
D02*
G37*
G36*
X003693D02*
X003573D01*
Y004070D01*
X003514D01*
Y004115D01*
X003394D01*
Y003945D01*
X003514D01*
Y003989D01*
X003573D01*
Y003945D01*
X003592D01*
Y003868D01*
X003581Y003851D01*
X003577Y003830D01*
X003581Y003809D01*
X003593Y003790D01*
X003611Y003778D01*
X003633Y003774D01*
X003654Y003778D01*
X003672Y003790D01*
X003685Y003809D01*
X003689Y003830D01*
X003685Y003851D01*
X003673Y003868D01*
Y003945D01*
X003693D01*
Y004115D01*
D02*
G37*
G36*
X002093D02*
X001973D01*
Y004070D01*
X001914D01*
Y004115D01*
X001794D01*
Y003945D01*
X001914D01*
Y003989D01*
X001973D01*
Y003945D01*
X001992D01*
Y003868D01*
X001981Y003851D01*
X001977Y003830D01*
X001981Y003809D01*
X001993Y003790D01*
X002011Y003778D01*
X002033Y003774D01*
X002054Y003778D01*
X002072Y003790D01*
X002085Y003809D01*
X002089Y003830D01*
X002085Y003851D01*
X002073Y003868D01*
Y003945D01*
X002093D01*
Y004115D01*
D02*
G37*
G36*
X004844D02*
X004804D01*
Y004065D01*
X004747D01*
Y004115D01*
X004707D01*
Y004030D01*
X004687D01*
Y004010D01*
X004627D01*
Y003945D01*
X004627D01*
X004633Y003915D01*
X004619Y003900D01*
Y003850D01*
X004669D01*
X004712Y003893D01*
X004720Y003904D01*
X004723Y003918D01*
Y003945D01*
X004747D01*
Y003994D01*
X004804D01*
Y003945D01*
X004844D01*
Y004030D01*
Y004115D01*
D02*
G37*
G36*
X003244D02*
X003204D01*
Y004065D01*
X003147D01*
Y004115D01*
X003107D01*
Y004030D01*
X003087D01*
Y004010D01*
X003027D01*
Y003945D01*
X003027D01*
X003033Y003915D01*
X003019Y003900D01*
Y003850D01*
X003069D01*
X003112Y003893D01*
X003120Y003904D01*
X003123Y003918D01*
Y003945D01*
X003147D01*
Y003994D01*
X003204D01*
Y003945D01*
X003244D01*
Y004030D01*
Y004115D01*
D02*
G37*
G36*
X001644D02*
X001604D01*
Y004065D01*
X001547D01*
Y004115D01*
X001507D01*
Y004030D01*
X001487D01*
Y004010D01*
X001427D01*
Y003945D01*
X001427D01*
X001433Y003915D01*
X001419Y003900D01*
Y003850D01*
X001469D01*
X001512Y003893D01*
X001520Y003904D01*
X001523Y003918D01*
Y003945D01*
X001547D01*
Y003994D01*
X001604D01*
Y003945D01*
X001644D01*
Y004030D01*
Y004115D01*
D02*
G37*
G36*
X004924D02*
X004884D01*
Y004050D01*
X004924D01*
Y004115D01*
D02*
G37*
G36*
X003324D02*
X003284D01*
Y004050D01*
X003324D01*
Y004115D01*
D02*
G37*
G36*
X001724D02*
X001684D01*
Y004050D01*
X001724D01*
Y004115D01*
D02*
G37*
G36*
X001467D02*
X001427D01*
Y004050D01*
X001467D01*
Y004115D01*
D02*
G37*
G36*
X004667D02*
X004627D01*
Y004050D01*
X004667D01*
Y004115D01*
D02*
G37*
G36*
X003067D02*
X003027D01*
Y004050D01*
X003067D01*
Y004115D01*
D02*
G37*
G36*
X004924Y004010D02*
X004884D01*
Y003945D01*
X004924D01*
Y004010D01*
D02*
G37*
G36*
X003324D02*
X003284D01*
Y003945D01*
X003324D01*
Y004010D01*
D02*
G37*
G36*
X001724D02*
X001684D01*
Y003945D01*
X001724D01*
Y004010D01*
D02*
G37*
G36*
X004579Y003882D02*
X004578Y003882D01*
X004559Y003870D01*
X004547Y003851D01*
X004547Y003850D01*
X004579D01*
Y003882D01*
D02*
G37*
G36*
X002979D02*
X002978Y003882D01*
X002959Y003870D01*
X002947Y003851D01*
X002947Y003850D01*
X002979D01*
Y003882D01*
D02*
G37*
G36*
X001379D02*
X001378Y003882D01*
X001359Y003870D01*
X001347Y003851D01*
X001347Y003850D01*
X001379D01*
Y003882D01*
D02*
G37*
G36*
X004651Y003810D02*
X004619D01*
Y003778D01*
X004620Y003778D01*
X004639Y003790D01*
X004651Y003809D01*
X004651Y003810D01*
D02*
G37*
G36*
X004579D02*
X004547D01*
X004547Y003809D01*
X004559Y003790D01*
X004578Y003778D01*
X004579Y003778D01*
Y003810D01*
D02*
G37*
G36*
X003051D02*
X003019D01*
Y003778D01*
X003020Y003778D01*
X003039Y003790D01*
X003051Y003809D01*
X003051Y003810D01*
D02*
G37*
G36*
X002979D02*
X002947D01*
X002947Y003809D01*
X002959Y003790D01*
X002978Y003778D01*
X002979Y003778D01*
Y003810D01*
D02*
G37*
G36*
X001451D02*
X001419D01*
Y003778D01*
X001420Y003778D01*
X001439Y003790D01*
X001451Y003809D01*
X001451Y003810D01*
D02*
G37*
G36*
X001379D02*
X001347D01*
X001347Y003809D01*
X001359Y003790D01*
X001378Y003778D01*
X001379Y003778D01*
Y003810D01*
D02*
G37*
G36*
X004980Y003886D02*
X004959Y003882D01*
X004940Y003870D01*
X004928Y003851D01*
X004924Y003830D01*
X004928Y003809D01*
X004940Y003790D01*
X004959Y003778D01*
X004980Y003774D01*
X005001Y003778D01*
X005020Y003790D01*
X005032Y003809D01*
X005036Y003830D01*
X005032Y003851D01*
X005020Y003870D01*
X005001Y003882D01*
X004980Y003886D01*
D02*
G37*
G36*
X003380D02*
X003359Y003882D01*
X003340Y003870D01*
X003328Y003851D01*
X003324Y003830D01*
X003328Y003809D01*
X003340Y003790D01*
X003359Y003778D01*
X003380Y003774D01*
X003401Y003778D01*
X003420Y003790D01*
X003432Y003809D01*
X003436Y003830D01*
X003432Y003851D01*
X003420Y003870D01*
X003401Y003882D01*
X003380Y003886D01*
D02*
G37*
G36*
X001780D02*
X001759Y003882D01*
X001740Y003870D01*
X001728Y003851D01*
X001724Y003830D01*
X001728Y003809D01*
X001740Y003790D01*
X001759Y003778D01*
X001780Y003774D01*
X001801Y003778D01*
X001820Y003790D01*
X001832Y003809D01*
X001836Y003830D01*
X001832Y003851D01*
X001820Y003870D01*
X001801Y003882D01*
X001780Y003886D01*
D02*
G37*
G36*
X003180Y003550D02*
X003115D01*
Y003546D01*
X003103Y003538D01*
X003085Y003533D01*
X003071Y003542D01*
X003070Y003542D01*
Y003490D01*
Y003438D01*
X003071Y003438D01*
X003085Y003447D01*
X003103Y003442D01*
X003115Y003434D01*
Y003430D01*
X003180D01*
Y003490D01*
Y003550D01*
D02*
G37*
G36*
X003285D02*
X003220D01*
Y003510D01*
X003285D01*
Y003550D01*
D02*
G37*
G36*
X003030Y003542D02*
X003029Y003542D01*
X003010Y003530D01*
X002998Y003511D01*
X002998Y003510D01*
X003030D01*
Y003542D01*
D02*
G37*
G36*
Y003470D02*
X002998D01*
X002998Y003469D01*
X003010Y003450D01*
X003029Y003438D01*
X003030Y003438D01*
Y003470D01*
D02*
G37*
G36*
X003285D02*
X003220D01*
Y003430D01*
X003285D01*
Y003470D01*
D02*
G37*
G36*
X005622Y003752D02*
X005278D01*
Y003408D01*
X005622D01*
Y003752D01*
D02*
G37*
G36*
X006300Y003496D02*
X006275Y003493D01*
X006252Y003483D01*
X006232Y003468D01*
X006217Y003448D01*
X006207Y003425D01*
X006204Y003400D01*
X006207Y003375D01*
X006217Y003352D01*
X006232Y003332D01*
X006252Y003317D01*
X006275Y003307D01*
X006300Y003304D01*
X006325Y003307D01*
X006348Y003317D01*
X006368Y003332D01*
X006383Y003352D01*
X006393Y003375D01*
X006396Y003400D01*
X006393Y003425D01*
X006383Y003448D01*
X006368Y003468D01*
X006348Y003483D01*
X006325Y003493D01*
X006300Y003496D01*
D02*
G37*
G36*
X008206Y003740D02*
X008175Y003737D01*
X008144Y003728D01*
X008117Y003713D01*
X008092Y003693D01*
X008072Y003669D01*
X008058Y003641D01*
X008049Y003611D01*
X008045Y003580D01*
X008049Y003549D01*
X008058Y003519D01*
X008072Y003491D01*
X008092Y003467D01*
X008117Y003447D01*
X008144Y003432D01*
X008175Y003423D01*
X008206Y003420D01*
X008237Y003423D01*
X008267Y003432D01*
X008278Y003437D01*
X008299Y003415D01*
X008287Y003392D01*
X008277Y003360D01*
X008274Y003326D01*
X008277Y003292D01*
X008287Y003260D01*
X008299Y003237D01*
X008278Y003215D01*
X008267Y003220D01*
X008237Y003229D01*
X008206Y003232D01*
X008175Y003229D01*
X008144Y003220D01*
X008117Y003205D01*
X008092Y003185D01*
X008072Y003161D01*
X008058Y003133D01*
X008049Y003103D01*
X008045Y003072D01*
X008049Y003041D01*
X008058Y003011D01*
X008072Y002983D01*
X008092Y002959D01*
X008117Y002939D01*
X008144Y002924D01*
X008175Y002915D01*
X008206Y002912D01*
X008237Y002915D01*
X008267Y002924D01*
X008295Y002939D01*
X008319Y002959D01*
X008339Y002983D01*
X008354Y003011D01*
X008363Y003041D01*
X008366Y003072D01*
X008363Y003103D01*
X008354Y003133D01*
X008345Y003151D01*
X008367Y003174D01*
X008381Y003166D01*
X008413Y003156D01*
X008447Y003153D01*
X008481Y003156D01*
X008513Y003166D01*
X008543Y003182D01*
X008570Y003204D01*
X008591Y003230D01*
X008607Y003260D01*
X008617Y003292D01*
X008620Y003326D01*
X008617Y003360D01*
X008607Y003392D01*
X008591Y003422D01*
X008570Y003448D01*
X008543Y003470D01*
X008513Y003486D01*
X008481Y003496D01*
X008447Y003499D01*
X008413Y003496D01*
X008381Y003486D01*
X008367Y003478D01*
X008345Y003501D01*
X008354Y003519D01*
X008363Y003549D01*
X008366Y003580D01*
X008363Y003611D01*
X008354Y003641D01*
X008339Y003669D01*
X008319Y003693D01*
X008295Y003713D01*
X008267Y003728D01*
X008237Y003737D01*
X008206Y003740D01*
D02*
G37*
G36*
X006300Y003146D02*
X006275Y003143D01*
X006252Y003133D01*
X006232Y003118D01*
X006217Y003098D01*
X006207Y003075D01*
X006204Y003050D01*
X006207Y003025D01*
X006217Y003002D01*
X006232Y002982D01*
X006252Y002967D01*
X006275Y002957D01*
X006300Y002954D01*
X006325Y002957D01*
X006348Y002967D01*
X006368Y002982D01*
X006383Y003002D01*
X006393Y003025D01*
X006396Y003050D01*
X006393Y003075D01*
X006383Y003098D01*
X006368Y003118D01*
X006348Y003133D01*
X006325Y003143D01*
X006300Y003146D01*
D02*
G37*
G36*
X005450Y003245D02*
X005416Y003242D01*
X005384Y003232D01*
X005354Y003216D01*
X005328Y003194D01*
X005306Y003168D01*
X005290Y003138D01*
X005280Y003106D01*
X005277Y003072D01*
X005280Y003038D01*
X005290Y003006D01*
X005306Y002976D01*
X005328Y002950D01*
X005354Y002928D01*
X005384Y002912D01*
X005416Y002902D01*
X005450Y002899D01*
X005484Y002902D01*
X005516Y002912D01*
X005546Y002928D01*
X005572Y002950D01*
X005594Y002976D01*
X005610Y003006D01*
X005620Y003038D01*
X005623Y003072D01*
X005620Y003106D01*
X005610Y003138D01*
X005594Y003168D01*
X005572Y003194D01*
X005546Y003216D01*
X005516Y003232D01*
X005484Y003242D01*
X005450Y003245D01*
D02*
G37*
G36*
X007097Y003571D02*
X007063Y003568D01*
X007031Y003558D01*
X007002Y003542D01*
X006976Y003521D01*
X006955Y003495D01*
X006939Y003465D01*
X006929Y003433D01*
X006926Y003400D01*
X006929Y003367D01*
X006939Y003335D01*
X006955Y003305D01*
X006976Y003279D01*
X007002Y003258D01*
X007031Y003242D01*
X007063Y003232D01*
X007097Y003229D01*
X007130Y003232D01*
X007162Y003242D01*
X007192Y003258D01*
X007217Y003279D01*
X007239Y003305D01*
X007254Y003335D01*
X007283Y003327D01*
X007283Y003326D01*
X007287Y003292D01*
X007297Y003260D01*
X007313Y003230D01*
X007334Y003204D01*
X007360Y003182D01*
X007390Y003166D01*
X007423Y003156D01*
X007457Y003153D01*
X007490Y003156D01*
X007504Y003160D01*
X007515Y003132D01*
X007510Y003130D01*
X007486Y003110D01*
X007467Y003087D01*
X007453Y003060D01*
X007444Y003030D01*
X007441Y003000D01*
X007444Y002970D01*
X007453Y002940D01*
X007467Y002913D01*
X007486Y002890D01*
X007510Y002870D01*
X007537Y002856D01*
X007566Y002847D01*
X007597Y002844D01*
X007627Y002847D01*
X007656Y002856D01*
X007683Y002870D01*
X007707Y002890D01*
X007726Y002913D01*
X007740Y002940D01*
X007749Y002970D01*
X007752Y003000D01*
X007749Y003030D01*
X007740Y003060D01*
X007726Y003087D01*
X007707Y003110D01*
X007683Y003130D01*
X007656Y003144D01*
X007627Y003153D01*
X007597Y003156D01*
X007566Y003153D01*
X007556Y003150D01*
X007545Y003178D01*
X007553Y003182D01*
X007579Y003204D01*
X007601Y003230D01*
X007617Y003260D01*
X007627Y003292D01*
X007630Y003326D01*
X007627Y003360D01*
X007617Y003392D01*
X007601Y003422D01*
X007579Y003448D01*
X007553Y003470D01*
X007523Y003486D01*
X007490Y003496D01*
X007457Y003499D01*
X007423Y003496D01*
X007390Y003486D01*
X007360Y003470D01*
X007334Y003448D01*
X007313Y003422D01*
X007297Y003392D01*
X007267Y003399D01*
X007267Y003400D01*
X007264Y003433D01*
X007254Y003465D01*
X007239Y003495D01*
X007217Y003521D01*
X007192Y003542D01*
X007162Y003558D01*
X007130Y003568D01*
X007097Y003571D01*
D02*
G37*
G36*
X007390Y002816D02*
X007369Y002812D01*
X007350Y002800D01*
X007348Y002796D01*
X006962D01*
X006960Y002800D01*
X006941Y002812D01*
X006920Y002816D01*
X006899Y002812D01*
X006880Y002800D01*
X006868Y002781D01*
X006864Y002760D01*
X006868Y002739D01*
X006880Y002720D01*
X006899Y002708D01*
X006920Y002704D01*
X006941Y002708D01*
X006960Y002720D01*
X006962Y002724D01*
X007032D01*
X007043Y002710D01*
X007175D01*
X007186Y002724D01*
X007348D01*
X007350Y002720D01*
X007369Y002708D01*
X007390Y002704D01*
X007395Y002705D01*
X007449Y002650D01*
Y002560D01*
X007425D01*
Y002511D01*
X007366D01*
Y002560D01*
X007246D01*
Y002390D01*
X007366D01*
Y002439D01*
X007425D01*
Y002390D01*
X007522D01*
X007534Y002360D01*
X007435Y002260D01*
X007407Y002275D01*
X007407Y002276D01*
X007403Y002299D01*
X007389Y002319D01*
X007369Y002333D01*
X007346Y002337D01*
X007323Y002333D01*
X007303Y002319D01*
X007289Y002299D01*
X007285Y002276D01*
X007289Y002253D01*
X007303Y002233D01*
X007323Y002220D01*
X007346Y002215D01*
X007369Y002220D01*
X007385Y002230D01*
X007393Y002229D01*
X007399Y002226D01*
X007414Y002216D01*
Y002128D01*
X007417Y002114D01*
X007425Y002102D01*
X007442Y002085D01*
X007454Y002077D01*
X007468Y002074D01*
X007589D01*
Y001958D01*
Y001858D01*
X007589D01*
X007592Y001829D01*
X007592Y001828D01*
X007588Y001810D01*
X007592Y001790D01*
X007604Y001773D01*
X007621Y001761D01*
X007641Y001757D01*
X007819D01*
X007839Y001761D01*
X007856Y001773D01*
X007884Y001766D01*
X007900Y001750D01*
X007911Y001742D01*
X007925Y001739D01*
X007945D01*
Y001690D01*
X008007D01*
Y001605D01*
X007983D01*
Y001435D01*
X008103D01*
Y001605D01*
X008078D01*
Y001690D01*
X008115D01*
Y001810D01*
X008008D01*
X008005Y001811D01*
X007940D01*
X007915Y001835D01*
X007904Y001843D01*
X007895Y001845D01*
X007892Y001846D01*
X007888Y001876D01*
X007894Y001877D01*
X007905Y001885D01*
X007915Y001895D01*
X007945Y001882D01*
Y001880D01*
X008115D01*
Y002000D01*
X008115D01*
Y002027D01*
X008115D01*
Y002147D01*
X007945D01*
Y002027D01*
X007945D01*
Y002006D01*
X007931Y001976D01*
X007910D01*
X007901Y001974D01*
X007889Y001979D01*
X007871Y001992D01*
Y002058D01*
Y002158D01*
Y002190D01*
X007730D01*
Y002230D01*
X007871D01*
Y002262D01*
X007775D01*
X007753Y002292D01*
X007753Y002295D01*
X007749Y002318D01*
X007735Y002338D01*
X007716Y002352D01*
X007692Y002356D01*
X007674Y002383D01*
X007678Y002390D01*
X007735D01*
Y002439D01*
X007793D01*
Y002390D01*
X007913D01*
Y002560D01*
X007793D01*
Y002511D01*
X007735D01*
Y002560D01*
X007615D01*
Y002440D01*
X007575Y002400D01*
X007545Y002413D01*
Y002560D01*
X007521D01*
Y002665D01*
X007518Y002679D01*
X007510Y002690D01*
X007445Y002755D01*
X007446Y002760D01*
X007442Y002781D01*
X007430Y002800D01*
X007411Y002812D01*
X007390Y002816D01*
D02*
G37*
G36*
X005885D02*
X005863Y002812D01*
X005845Y002800D01*
X005843Y002796D01*
X005362D01*
X005360Y002800D01*
X005341Y002812D01*
X005320Y002816D01*
X005299Y002812D01*
X005280Y002800D01*
X005268Y002781D01*
X005264Y002760D01*
X005268Y002739D01*
X005280Y002720D01*
X005299Y002708D01*
X005320Y002704D01*
X005341Y002708D01*
X005360Y002720D01*
X005362Y002724D01*
X005432D01*
X005443Y002710D01*
X005575D01*
X005586Y002724D01*
X005843D01*
X005845Y002720D01*
X005849Y002718D01*
Y002560D01*
X005825D01*
Y002511D01*
X005766D01*
Y002560D01*
X005646D01*
Y002390D01*
X005766D01*
Y002439D01*
X005825D01*
Y002390D01*
X005922D01*
X005934Y002360D01*
X005835Y002260D01*
X005807Y002275D01*
X005807Y002276D01*
X005803Y002299D01*
X005789Y002319D01*
X005769Y002333D01*
X005746Y002337D01*
X005723Y002333D01*
X005703Y002319D01*
X005689Y002299D01*
X005685Y002276D01*
X005689Y002253D01*
X005703Y002233D01*
X005723Y002220D01*
X005746Y002215D01*
X005769Y002220D01*
X005785Y002230D01*
X005793Y002229D01*
X005799Y002226D01*
X005814Y002216D01*
Y002128D01*
X005817Y002114D01*
X005825Y002102D01*
X005842Y002085D01*
X005854Y002077D01*
X005868Y002074D01*
X005989D01*
Y001958D01*
Y001858D01*
X005989D01*
X005992Y001829D01*
X005992Y001828D01*
X005988Y001810D01*
X005992Y001790D01*
X006004Y001773D01*
X006021Y001761D01*
X006041Y001757D01*
X006219D01*
X006239Y001761D01*
X006256Y001773D01*
X006284Y001766D01*
X006300Y001750D01*
X006311Y001742D01*
X006325Y001739D01*
X006345D01*
Y001690D01*
X006407D01*
Y001605D01*
X006383D01*
Y001435D01*
X006503D01*
Y001605D01*
X006478D01*
Y001690D01*
X006515D01*
Y001810D01*
X006408D01*
X006405Y001811D01*
X006340D01*
X006315Y001835D01*
X006304Y001843D01*
X006295Y001845D01*
X006292Y001846D01*
X006288Y001876D01*
X006294Y001877D01*
X006305Y001885D01*
X006315Y001895D01*
X006345Y001882D01*
Y001880D01*
X006515D01*
Y002000D01*
X006515D01*
Y002027D01*
X006515D01*
Y002147D01*
X006345D01*
Y002027D01*
X006345D01*
Y002006D01*
X006331Y001976D01*
X006310D01*
X006301Y001974D01*
X006289Y001979D01*
X006271Y001992D01*
Y002058D01*
Y002158D01*
Y002190D01*
X006130D01*
Y002230D01*
X006271D01*
Y002262D01*
X006175D01*
X006153Y002292D01*
X006153Y002295D01*
X006149Y002318D01*
X006135Y002338D01*
X006116Y002352D01*
X006092Y002356D01*
X006074Y002383D01*
X006078Y002390D01*
X006135D01*
Y002439D01*
X006193D01*
Y002390D01*
X006313D01*
Y002560D01*
X006193D01*
Y002511D01*
X006135D01*
Y002560D01*
X006015D01*
Y002440D01*
X005975Y002400D01*
X005945Y002413D01*
Y002560D01*
X005921D01*
Y002718D01*
X005924Y002720D01*
X005937Y002739D01*
X005941Y002760D01*
X005937Y002781D01*
X005924Y002800D01*
X005906Y002812D01*
X005885Y002816D01*
D02*
G37*
G36*
X003961Y002670D02*
X003929D01*
Y002638D01*
X003930Y002638D01*
X003949Y002650D01*
X003961Y002669D01*
X003961Y002670D01*
D02*
G37*
G36*
X003889D02*
X003857D01*
X003857Y002669D01*
X003869Y002650D01*
X003888Y002638D01*
X003889Y002638D01*
Y002670D01*
D02*
G37*
G36*
X007161Y002670D02*
X007129D01*
Y002638D01*
X007130Y002638D01*
X007149Y002650D01*
X007161Y002669D01*
X007161Y002670D01*
D02*
G37*
G36*
X007089D02*
X007057D01*
X007057Y002669D01*
X007069Y002650D01*
X007088Y002638D01*
X007089Y002638D01*
Y002670D01*
D02*
G37*
G36*
X005561D02*
X005529D01*
Y002638D01*
X005530Y002638D01*
X005549Y002650D01*
X005561Y002669D01*
X005561Y002670D01*
D02*
G37*
G36*
X005489D02*
X005457D01*
X005457Y002669D01*
X005469Y002650D01*
X005488Y002638D01*
X005489Y002638D01*
Y002670D01*
D02*
G37*
G36*
X003976Y002560D02*
X003856D01*
Y002511D01*
X003799D01*
Y002560D01*
X003679D01*
Y002390D01*
X003799D01*
Y002439D01*
X003856D01*
Y002390D01*
X003881D01*
Y002262D01*
X003704D01*
Y002134D01*
X003645D01*
Y002147D01*
X003475D01*
Y002055D01*
X003445Y002039D01*
X003441Y002042D01*
X003440Y002042D01*
Y001990D01*
Y001938D01*
X003441Y001938D01*
X003445Y001941D01*
X003475Y001925D01*
Y001880D01*
X003582D01*
X003593Y001852D01*
X003578Y001837D01*
X003569Y001824D01*
X003566Y001810D01*
X003475D01*
Y001690D01*
X003509D01*
Y001605D01*
X003489D01*
Y001435D01*
X003609D01*
Y001605D01*
X003588D01*
Y001690D01*
X003645D01*
Y001767D01*
X003646Y001771D01*
Y001792D01*
X003676Y001822D01*
X003704Y001811D01*
Y001758D01*
X003859D01*
Y001698D01*
X003855Y001695D01*
X003843Y001677D01*
X003838Y001655D01*
X003843Y001634D01*
X003845Y001630D01*
X003857Y001605D01*
Y001555D01*
X003799D01*
Y001605D01*
X003679D01*
Y001435D01*
X003703D01*
Y001362D01*
X003699Y001360D01*
X003687Y001341D01*
X003683Y001320D01*
X003687Y001299D01*
X003699Y001280D01*
X003718Y001268D01*
X003739Y001264D01*
X003761Y001268D01*
X003779Y001280D01*
X003791Y001299D01*
X003795Y001320D01*
X003791Y001341D01*
X003779Y001360D01*
X003775Y001362D01*
Y001435D01*
X003799D01*
Y001484D01*
X003857D01*
Y001435D01*
X003977D01*
Y001605D01*
X003963D01*
X003946Y001634D01*
X003946Y001635D01*
X003950Y001655D01*
X003946Y001677D01*
X003934Y001695D01*
X003930Y001698D01*
Y001758D01*
X003985D01*
Y001858D01*
Y001958D01*
Y002058D01*
Y002158D01*
Y002262D01*
X003952D01*
Y002390D01*
X003976D01*
Y002560D01*
D02*
G37*
G36*
X004900Y002776D02*
X004879Y002772D01*
X004860Y002760D01*
X004848Y002741D01*
X004844Y002720D01*
X004845Y002715D01*
X004817Y002688D01*
X004810Y002676D01*
X004807Y002663D01*
Y002560D01*
X004783D01*
Y002390D01*
X004807D01*
Y002337D01*
X004745D01*
Y002217D01*
X004915D01*
Y002337D01*
X004878D01*
Y002390D01*
X004903D01*
Y002560D01*
X004878D01*
Y002643D01*
X004900Y002664D01*
X004921Y002668D01*
X004940Y002680D01*
X004952Y002699D01*
X004956Y002720D01*
X004952Y002741D01*
X004940Y002760D01*
X004921Y002772D01*
X004900Y002776D01*
D02*
G37*
G36*
X003549Y002778D02*
X003535Y002775D01*
X003531Y002773D01*
X003527Y002772D01*
X003509Y002760D01*
X003497Y002741D01*
X003492Y002720D01*
X003497Y002699D01*
X003509Y002680D01*
X003513Y002678D01*
Y002560D01*
X003489D01*
Y002390D01*
X003513D01*
Y002337D01*
X003475D01*
Y002217D01*
X003645D01*
Y002337D01*
X003584D01*
Y002390D01*
X003609D01*
Y002560D01*
X003584D01*
Y002678D01*
X003588Y002680D01*
X003600Y002699D01*
X003605Y002720D01*
X003600Y002741D01*
X003588Y002760D01*
X003570Y002772D01*
X003567Y002772D01*
X003563Y002775D01*
X003549Y002778D01*
D02*
G37*
G36*
X008100Y002776D02*
X008079Y002772D01*
X008060Y002760D01*
X008048Y002741D01*
X008044Y002720D01*
X008045Y002715D01*
X008017Y002688D01*
X008010Y002676D01*
X008007Y002663D01*
Y002560D01*
X007983D01*
Y002390D01*
X008007D01*
Y002337D01*
X007945D01*
Y002217D01*
X008115D01*
Y002337D01*
X008078D01*
Y002390D01*
X008103D01*
Y002560D01*
X008078D01*
Y002643D01*
X008100Y002664D01*
X008121Y002668D01*
X008140Y002680D01*
X008152Y002699D01*
X008156Y002720D01*
X008152Y002741D01*
X008140Y002760D01*
X008121Y002772D01*
X008100Y002776D01*
D02*
G37*
G36*
X006749Y002778D02*
X006735Y002775D01*
X006731Y002773D01*
X006727Y002772D01*
X006709Y002760D01*
X006697Y002741D01*
X006692Y002720D01*
X006697Y002699D01*
X006709Y002680D01*
X006713Y002678D01*
Y002560D01*
X006689D01*
Y002390D01*
X006713D01*
Y002337D01*
X006675D01*
Y002217D01*
X006845D01*
Y002337D01*
X006784D01*
Y002390D01*
X006809D01*
Y002560D01*
X006784D01*
Y002678D01*
X006788Y002680D01*
X006800Y002699D01*
X006805Y002720D01*
X006800Y002741D01*
X006788Y002760D01*
X006770Y002772D01*
X006767Y002772D01*
X006763Y002775D01*
X006749Y002778D01*
D02*
G37*
G36*
X006500Y002776D02*
X006479Y002772D01*
X006460Y002760D01*
X006448Y002741D01*
X006444Y002720D01*
X006445Y002715D01*
X006417Y002688D01*
X006410Y002676D01*
X006407Y002663D01*
Y002560D01*
X006383D01*
Y002390D01*
X006407D01*
Y002337D01*
X006345D01*
Y002217D01*
X006515D01*
Y002337D01*
X006478D01*
Y002390D01*
X006503D01*
Y002560D01*
X006478D01*
Y002643D01*
X006500Y002664D01*
X006521Y002668D01*
X006540Y002680D01*
X006552Y002699D01*
X006556Y002720D01*
X006552Y002741D01*
X006540Y002760D01*
X006521Y002772D01*
X006500Y002776D01*
D02*
G37*
G36*
X005149Y002778D02*
X005135Y002775D01*
X005131Y002773D01*
X005127Y002772D01*
X005109Y002760D01*
X005097Y002741D01*
X005092Y002720D01*
X005097Y002699D01*
X005109Y002680D01*
X005113Y002678D01*
Y002560D01*
X005089D01*
Y002390D01*
X005113D01*
Y002337D01*
X005075D01*
Y002217D01*
X005245D01*
Y002337D01*
X005184D01*
Y002390D01*
X005209D01*
Y002560D01*
X005184D01*
Y002678D01*
X005188Y002680D01*
X005200Y002699D01*
X005205Y002720D01*
X005200Y002741D01*
X005188Y002760D01*
X005170Y002772D01*
X005167Y002772D01*
X005163Y002775D01*
X005149Y002778D01*
D02*
G37*
G36*
X006600Y002042D02*
X006599Y002042D01*
X006580Y002030D01*
X006568Y002011D01*
X006568Y002010D01*
X006600D01*
Y002042D01*
D02*
G37*
G36*
X005000D02*
X004999Y002042D01*
X004980Y002030D01*
X004968Y002011D01*
X004968Y002010D01*
X005000D01*
Y002042D01*
D02*
G37*
G36*
X006600Y001970D02*
X006568D01*
X006568Y001969D01*
X006580Y001950D01*
X006599Y001938D01*
X006600Y001938D01*
Y001970D01*
D02*
G37*
G36*
X005000D02*
X004968D01*
X004968Y001969D01*
X004980Y001950D01*
X004999Y001938D01*
X005000Y001938D01*
Y001970D01*
D02*
G37*
G36*
X004713Y001605D02*
X004593D01*
Y001560D01*
X004534D01*
Y001605D01*
X004414D01*
Y001435D01*
X004534D01*
Y001479D01*
X004593D01*
Y001435D01*
X004612D01*
Y001358D01*
X004601Y001341D01*
X004597Y001320D01*
X004601Y001299D01*
X004613Y001280D01*
X004631Y001268D01*
X004653Y001264D01*
X004674Y001268D01*
X004692Y001280D01*
X004705Y001299D01*
X004709Y001320D01*
X004705Y001341D01*
X004693Y001358D01*
Y001435D01*
X004713D01*
Y001605D01*
D02*
G37*
G36*
X004264D02*
X004224D01*
Y001555D01*
X004167D01*
Y001605D01*
X004127D01*
Y001520D01*
X004107D01*
Y001500D01*
X004047D01*
Y001435D01*
X004047D01*
X004053Y001405D01*
X004039Y001390D01*
Y001340D01*
X004089D01*
X004132Y001383D01*
X004140Y001394D01*
X004143Y001408D01*
Y001435D01*
X004167D01*
Y001484D01*
X004224D01*
Y001435D01*
X004264D01*
Y001520D01*
Y001605D01*
D02*
G37*
G36*
X007464Y001605D02*
X007424D01*
Y001555D01*
X007367D01*
Y001605D01*
X007327D01*
Y001520D01*
X007307D01*
Y001500D01*
X007247D01*
Y001435D01*
X007247D01*
X007253Y001405D01*
X007239Y001390D01*
Y001340D01*
X007289D01*
X007332Y001383D01*
X007340Y001394D01*
X007343Y001408D01*
Y001435D01*
X007367D01*
Y001484D01*
X007424D01*
Y001435D01*
X007464D01*
Y001520D01*
Y001605D01*
D02*
G37*
G36*
X005864D02*
X005824D01*
Y001555D01*
X005767D01*
Y001605D01*
X005727D01*
Y001520D01*
X005707D01*
Y001500D01*
X005647D01*
Y001435D01*
X005647D01*
X005653Y001405D01*
X005639Y001390D01*
Y001340D01*
X005689D01*
X005732Y001383D01*
X005740Y001394D01*
X005743Y001408D01*
Y001435D01*
X005767D01*
Y001484D01*
X005824D01*
Y001435D01*
X005864D01*
Y001520D01*
Y001605D01*
D02*
G37*
G36*
X004344Y001605D02*
X004304D01*
Y001540D01*
X004344D01*
Y001605D01*
D02*
G37*
G36*
X004087D02*
X004047D01*
Y001540D01*
X004087D01*
Y001605D01*
D02*
G37*
G36*
X007544Y001605D02*
X007504D01*
Y001540D01*
X007544D01*
Y001605D01*
D02*
G37*
G36*
X005944D02*
X005904D01*
Y001540D01*
X005944D01*
Y001605D01*
D02*
G37*
G36*
X005687D02*
X005647D01*
Y001540D01*
X005687D01*
Y001605D01*
D02*
G37*
G36*
X007287D02*
X007247D01*
Y001540D01*
X007287D01*
Y001605D01*
D02*
G37*
G36*
X004344Y001500D02*
X004304D01*
Y001435D01*
X004344D01*
Y001500D01*
D02*
G37*
G36*
X007544Y001500D02*
X007504D01*
Y001435D01*
X007544D01*
Y001500D01*
D02*
G37*
G36*
X005944D02*
X005904D01*
Y001435D01*
X005944D01*
Y001500D01*
D02*
G37*
G36*
X003999Y001372D02*
X003998Y001372D01*
X003979Y001360D01*
X003967Y001341D01*
X003967Y001340D01*
X003999D01*
Y001372D01*
D02*
G37*
G36*
X007199Y001372D02*
X007198Y001372D01*
X007179Y001360D01*
X007167Y001341D01*
X007167Y001340D01*
X007199D01*
Y001372D01*
D02*
G37*
G36*
X005599D02*
X005598Y001372D01*
X005579Y001360D01*
X005567Y001341D01*
X005567Y001340D01*
X005599D01*
Y001372D01*
D02*
G37*
G36*
X004071Y001300D02*
X004039D01*
Y001268D01*
X004040Y001268D01*
X004059Y001280D01*
X004071Y001299D01*
X004071Y001300D01*
D02*
G37*
G36*
X003999D02*
X003967D01*
X003967Y001299D01*
X003979Y001280D01*
X003998Y001268D01*
X003999Y001268D01*
Y001300D01*
D02*
G37*
G36*
X007271Y001300D02*
X007239D01*
Y001268D01*
X007240Y001268D01*
X007259Y001280D01*
X007271Y001299D01*
X007271Y001300D01*
D02*
G37*
G36*
X007199D02*
X007167D01*
X007167Y001299D01*
X007179Y001280D01*
X007198Y001268D01*
X007199Y001268D01*
Y001300D01*
D02*
G37*
G36*
X004400Y001376D02*
X004379Y001372D01*
X004360Y001360D01*
X004348Y001341D01*
X004344Y001320D01*
X004348Y001299D01*
X004360Y001280D01*
X004379Y001268D01*
X004400Y001264D01*
X004421Y001268D01*
X004440Y001280D01*
X004452Y001299D01*
X004456Y001320D01*
X004452Y001341D01*
X004440Y001360D01*
X004421Y001372D01*
X004400Y001376D01*
D02*
G37*
G36*
X007600Y001376D02*
X007579Y001372D01*
X007560Y001360D01*
X007548Y001341D01*
X007544Y001320D01*
X007548Y001299D01*
X007560Y001280D01*
X007579Y001268D01*
X007600Y001264D01*
X007621Y001268D01*
X007640Y001280D01*
X007652Y001299D01*
X007656Y001320D01*
X007652Y001341D01*
X007640Y001360D01*
X007621Y001372D01*
X007600Y001376D01*
D02*
G37*
G36*
X006000D02*
X005979Y001372D01*
X005960Y001360D01*
X005948Y001341D01*
X005944Y001320D01*
X005948Y001299D01*
X005960Y001280D01*
X005979Y001268D01*
X006000Y001264D01*
X006021Y001268D01*
X006040Y001280D01*
X006052Y001299D01*
X006056Y001320D01*
X006052Y001341D01*
X006040Y001360D01*
X006021Y001372D01*
X006000Y001376D01*
D02*
G37*
G36*
X003245Y000868D02*
Y000820D01*
X003293D01*
X003287Y000836D01*
X003275Y000850D01*
X003261Y000862D01*
X003245Y000868D01*
D02*
G37*
G36*
X003525Y000860D02*
X003355D01*
Y000740D01*
X003525D01*
Y000764D01*
X003568D01*
X003570Y000760D01*
X003589Y000748D01*
X003610Y000744D01*
X003631Y000748D01*
X003650Y000760D01*
X003662Y000779D01*
X003666Y000800D01*
X003662Y000821D01*
X003650Y000840D01*
X003631Y000852D01*
X003610Y000856D01*
X003589Y000852D01*
X003570Y000840D01*
X003568Y000836D01*
X003525D01*
Y000860D01*
D02*
G37*
G36*
X006533Y000660D02*
X006435D01*
Y000562D01*
X006446Y000563D01*
X006476Y000575D01*
X006501Y000594D01*
X006520Y000619D01*
X006532Y000649D01*
X006533Y000660D01*
D02*
G37*
G36*
X006165Y000501D02*
X006134Y000497D01*
X006104Y000485D01*
X006079Y000466D01*
X006060Y000441D01*
X006056Y000431D01*
X006024D01*
X006020Y000441D01*
X006001Y000466D01*
X005976Y000485D01*
X005946Y000497D01*
X005935Y000498D01*
Y000380D01*
Y000262D01*
X005946Y000263D01*
X005976Y000275D01*
X006001Y000294D01*
X006020Y000319D01*
X006024Y000329D01*
X006056D01*
X006060Y000319D01*
X006079Y000294D01*
X006104Y000275D01*
X006134Y000263D01*
X006165Y000259D01*
X006196Y000263D01*
X006226Y000275D01*
X006251Y000294D01*
X006270Y000319D01*
X006274Y000329D01*
X006306D01*
X006310Y000319D01*
X006329Y000294D01*
X006354Y000275D01*
X006384Y000263D01*
X006395Y000262D01*
Y000380D01*
Y000498D01*
X006384Y000497D01*
X006354Y000485D01*
X006329Y000466D01*
X006310Y000441D01*
X006306Y000431D01*
X006274D01*
X006270Y000441D01*
X006251Y000466D01*
X006226Y000485D01*
X006196Y000497D01*
X006165Y000501D01*
D02*
G37*
G36*
X005665D02*
X005634Y000497D01*
X005604Y000485D01*
X005579Y000466D01*
X005560Y000441D01*
X005556Y000431D01*
X005524D01*
X005520Y000441D01*
X005501Y000466D01*
X005476Y000485D01*
X005446Y000497D01*
X005435Y000498D01*
Y000380D01*
Y000262D01*
X005446Y000263D01*
X005476Y000275D01*
X005501Y000294D01*
X005520Y000319D01*
X005524Y000329D01*
X005556D01*
X005560Y000319D01*
X005579Y000294D01*
X005604Y000275D01*
X005634Y000263D01*
X005665Y000259D01*
X005696Y000263D01*
X005726Y000275D01*
X005751Y000294D01*
X005770Y000319D01*
X005774Y000329D01*
X005806D01*
X005810Y000319D01*
X005829Y000294D01*
X005854Y000275D01*
X005884Y000263D01*
X005895Y000262D01*
Y000380D01*
Y000498D01*
X005884Y000497D01*
X005854Y000485D01*
X005829Y000466D01*
X005810Y000441D01*
X005806Y000431D01*
X005774D01*
X005770Y000441D01*
X005751Y000466D01*
X005726Y000485D01*
X005696Y000497D01*
X005665Y000501D01*
D02*
G37*
G36*
X006435Y000498D02*
Y000400D01*
X006533D01*
X006532Y000411D01*
X006520Y000441D01*
X006501Y000466D01*
X006476Y000485D01*
X006446Y000497D01*
X006435Y000498D01*
D02*
G37*
G36*
X006533Y000360D02*
X006435D01*
Y000262D01*
X006446Y000263D01*
X006476Y000275D01*
X006501Y000294D01*
X006520Y000319D01*
X006532Y000349D01*
X006533Y000360D01*
D02*
G37*
G36*
X005165Y000501D02*
X005134Y000497D01*
X005104Y000485D01*
X005079Y000466D01*
X005060Y000441D01*
X005048Y000411D01*
X005044Y000380D01*
X005048Y000349D01*
X005060Y000319D01*
X005079Y000294D01*
X005104Y000275D01*
X005134Y000263D01*
X005165Y000259D01*
X005196Y000263D01*
X005226Y000275D01*
X005251Y000294D01*
X005270Y000319D01*
X005274Y000329D01*
X005306D01*
X005310Y000319D01*
X005329Y000294D01*
X005354Y000275D01*
X005384Y000263D01*
X005395Y000262D01*
Y000380D01*
Y000498D01*
X005384Y000497D01*
X005354Y000485D01*
X005329Y000466D01*
X005310Y000441D01*
X005306Y000431D01*
X005274D01*
X005270Y000441D01*
X005251Y000466D01*
X005226Y000485D01*
X005196Y000497D01*
X005165Y000501D01*
D02*
G37*
G36*
X000633Y002527D02*
X000567D01*
Y002460D01*
X000570Y002460D01*
X000591Y002469D01*
X000610Y002484D01*
X000624Y002502D01*
X000633Y002524D01*
X000633Y002527D01*
D02*
G37*
%LPD*%
D12*
X004042Y006210D02*
G03*
X004751Y006210I000355J000185D01*
G01*
X006609Y000145D02*
G03*
X006743Y000395I-000166J000250D01*
G01*
X004751Y000280D02*
G03*
X004042Y000280I-000355J-000185D01*
G01*
X001801Y005845D02*
G03*
X002051Y006095I000000J000250D01*
G01*
X001047Y002845D02*
G03*
X000797Y002595I000000J-000250D01*
G01*
X005697Y003895D02*
G03*
X005947Y003645I000250J000000D01*
G01*
X000097Y002334D02*
G03*
X000347Y002200I000250J000166D01*
G01*
X000097Y001845D02*
G03*
X000347Y001595I000250J000000D01*
G01*
X005237Y005959D02*
G03*
X004961Y006094I-000251J-000164D01*
G01*
X003556Y000531D02*
G03*
X003347Y000645I-000210J-000136D01*
G01*
X003097Y002595D02*
G03*
X002847Y002845I-000250J000000D01*
G01*
X003097Y000395D02*
G03*
X003347Y000145I000250J000000D01*
G01*
X008697Y004645D02*
G03*
X008447Y004895I-000250J000000D01*
G01*
X008623Y001672D02*
G03*
X008697Y001849I-000177J000177D01*
G01*
X008247Y004895D02*
G03*
X007997Y004645I000000J-000250D01*
G01*
X007747Y003645D02*
G03*
X007997Y003895I000000J000250D01*
G01*
X006993Y000645D02*
G03*
X006743Y000395I000000J-000250D01*
G01*
X005697Y006095D02*
G03*
X005447Y006345I-000250J000000D01*
G01*
X005237Y005959D02*
G03*
X005447Y005845I000210J000136D01*
G01*
X005697Y005711D02*
G03*
X005447Y005845I-000250J-000166D01*
G01*
X004973Y006345D02*
G03*
X004751Y006210I000000J-000250D01*
G01*
Y000280D02*
G03*
X004973Y000145I000222J000115D01*
G01*
X004042Y006210D02*
G03*
X003820Y006345I-000222J-000115D01*
G01*
X003556Y000531D02*
G03*
X003808Y000395I000251J000164D01*
G01*
X003820Y000145D02*
G03*
X004042Y000280I000000J000250D01*
G01*
X003097Y000779D02*
G03*
X003347Y000645I000250J000166D01*
G01*
X002185Y006345D02*
G03*
X002051Y006095I000166J-000250D01*
G01*
X001800Y006345D02*
G03*
X001623Y006272I000000J-000250D01*
G01*
X000542Y002200D02*
G03*
X000797Y002342I000000J000300D01*
G01*
X000547Y001595D02*
G03*
X000797Y001845I000000J000250D01*
G01*
X008697Y004156D02*
G03*
X008447Y004290I-000250J-000166D01*
G01*
X008252D02*
G03*
X007997Y004148I000000J-000300D01*
G01*
X006993Y000145D02*
G03*
X007170Y000218I000000J000250D01*
G01*
X000170Y004818D02*
G03*
X000097Y004641I000177J-000177D01*
G01*
X007572Y000645D02*
G03*
X007598Y000646I000000J000300D01*
G01*
X000445Y002848D02*
X000598D01*
X000747Y002997D02*
X000750D01*
X000598Y002848D02*
X000747Y002997D01*
X000347Y002947D02*
X000445Y002848D01*
Y003048D02*
X000598D01*
X000647Y003097D01*
X000650D01*
X000347Y003147D02*
X000445Y003048D01*
X007170Y000218D02*
X008623Y001672D01*
X000170Y004818D02*
X001623Y006272D01*
X005947Y003645D02*
X007747D01*
X006993Y000645D02*
X007572D01*
X004973Y006345D02*
X005447D01*
X001800D02*
X003820D01*
X008247Y004895D02*
X008447D01*
X008252Y004290D02*
X008447D01*
X004973Y000145D02*
X006993D01*
X001047Y002845D02*
X002847D01*
X003347Y000145D02*
X003820D01*
X004660Y006094D02*
X004961D01*
X003808Y000395D02*
X004132D01*
X001202Y005845D02*
X001801D01*
X000347Y002200D02*
X000542D01*
X000347Y001595D02*
X000547D01*
X008697Y001849D02*
Y004645D01*
X005697Y003895D02*
Y006095D01*
X003097Y000395D02*
Y002595D01*
X000797Y001845D02*
Y002595D01*
X000097Y001845D02*
Y004641D01*
X007997Y003895D02*
Y004645D01*
D15*
X002033Y003830D02*
Y004030D01*
Y003823D02*
X002033Y003823D01*
X001854Y004030D02*
X002033D01*
X005233Y003830D02*
Y004030D01*
Y003823D02*
X005233Y003823D01*
X005054Y004030D02*
X005233D01*
X003633Y003830D02*
Y004030D01*
Y003823D02*
X003633Y003823D01*
X003454Y004030D02*
X003633D01*
X004653Y001320D02*
Y001520D01*
Y001313D02*
X004653Y001313D01*
X004474Y001520D02*
X004653D01*
D36*
X004900Y005480D02*
D03*
Y005670D02*
D03*
X003200Y003490D02*
D03*
Y003300D02*
D03*
X002540Y004260D02*
D03*
Y004450D02*
D03*
Y004787D02*
D03*
Y004597D02*
D03*
X000940Y004450D02*
D03*
Y004260D02*
D03*
Y004597D02*
D03*
Y004787D02*
D03*
X002210Y004450D02*
D03*
Y004260D02*
D03*
Y004597D02*
D03*
Y004787D02*
D03*
X005370Y005670D02*
D03*
Y005480D02*
D03*
X008030Y002087D02*
D03*
Y002277D02*
D03*
Y001940D02*
D03*
Y001750D02*
D03*
X006760Y002087D02*
D03*
Y002277D02*
D03*
Y001940D02*
D03*
Y001750D02*
D03*
X004830Y002087D02*
D03*
Y002277D02*
D03*
Y001940D02*
D03*
Y001750D02*
D03*
X003560Y002087D02*
D03*
Y002277D02*
D03*
Y001940D02*
D03*
Y001750D02*
D03*
X005410Y004597D02*
D03*
Y004787D02*
D03*
Y004450D02*
D03*
Y004260D02*
D03*
X004140Y004597D02*
D03*
Y004787D02*
D03*
Y004450D02*
D03*
Y004260D02*
D03*
X003810Y004597D02*
D03*
Y004787D02*
D03*
Y004450D02*
D03*
Y004260D02*
D03*
X005160Y001940D02*
D03*
Y001750D02*
D03*
Y002087D02*
D03*
Y002277D02*
D03*
X006430Y002087D02*
D03*
Y002277D02*
D03*
Y001940D02*
D03*
Y001750D02*
D03*
X003440Y000990D02*
D03*
Y000800D02*
D03*
D37*
X003612Y003223D02*
D03*
X003912D02*
D03*
X003612Y003017D02*
D03*
X003912D02*
D03*
X003612Y003429D02*
D03*
X003912D02*
D03*
D38*
X003725Y003635D02*
D03*
X003915D02*
D03*
X004548Y002900D02*
D03*
X004738D02*
D03*
X004210D02*
D03*
X004400D02*
D03*
X003739Y002475D02*
D03*
X003549D02*
D03*
X004106D02*
D03*
X003916D02*
D03*
X004285D02*
D03*
X004475D02*
D03*
X004653D02*
D03*
X004843D02*
D03*
X003917Y001520D02*
D03*
X004107D02*
D03*
X003739D02*
D03*
X003549D02*
D03*
X004474D02*
D03*
X004284D02*
D03*
X004653D02*
D03*
X004843D02*
D03*
X002719Y004030D02*
D03*
X002529D02*
D03*
X002719Y004985D02*
D03*
X002529D02*
D03*
X000929D02*
D03*
X001119D02*
D03*
X000929Y004030D02*
D03*
X001119D02*
D03*
X002223Y004985D02*
D03*
X002033D02*
D03*
X002223Y004030D02*
D03*
X002033D02*
D03*
X001487D02*
D03*
X001297D02*
D03*
X001296Y004985D02*
D03*
X001486D02*
D03*
X001664Y004030D02*
D03*
X001854D02*
D03*
X001855Y004985D02*
D03*
X001665D02*
D03*
X006443Y001520D02*
D03*
X006253D02*
D03*
X005423Y004030D02*
D03*
X005233D02*
D03*
X003823D02*
D03*
X003633D02*
D03*
X007675Y002475D02*
D03*
X007485D02*
D03*
X007484Y001520D02*
D03*
X007674D02*
D03*
X007116Y002475D02*
D03*
X007306D02*
D03*
X007307Y001520D02*
D03*
X007117D02*
D03*
X008043D02*
D03*
X007853D02*
D03*
X008043Y002475D02*
D03*
X007853D02*
D03*
X006749Y001520D02*
D03*
X006939D02*
D03*
X006749Y002475D02*
D03*
X006939D02*
D03*
X005423Y004985D02*
D03*
X005233D02*
D03*
X003823D02*
D03*
X003633D02*
D03*
X006443Y002475D02*
D03*
X006253D02*
D03*
X005055Y004985D02*
D03*
X004865D02*
D03*
X004864Y004030D02*
D03*
X005054D02*
D03*
X004496Y004985D02*
D03*
X004686D02*
D03*
X004687Y004030D02*
D03*
X004497D02*
D03*
X004129D02*
D03*
X004319D02*
D03*
X004129Y004985D02*
D03*
X004319D02*
D03*
X003455D02*
D03*
X003265D02*
D03*
X003264Y004030D02*
D03*
X003454D02*
D03*
X002896Y004985D02*
D03*
X003086D02*
D03*
X003087Y004030D02*
D03*
X002897D02*
D03*
X005149Y002475D02*
D03*
X005339D02*
D03*
X005516D02*
D03*
X005706D02*
D03*
X006075D02*
D03*
X005885D02*
D03*
X005884Y001520D02*
D03*
X006074D02*
D03*
X005707D02*
D03*
X005517D02*
D03*
X005149D02*
D03*
X005339D02*
D03*
D39*
X002824Y004720D02*
D03*
X003510D02*
D03*
X002824Y004620D02*
D03*
Y004520D02*
D03*
Y004420D02*
D03*
Y004320D02*
D03*
X003510Y004620D02*
D03*
Y004520D02*
D03*
Y004420D02*
D03*
X001910D02*
D03*
Y004520D02*
D03*
Y004620D02*
D03*
X001224Y004320D02*
D03*
Y004420D02*
D03*
Y004520D02*
D03*
Y004620D02*
D03*
X001910Y004720D02*
D03*
X001224D02*
D03*
X007730Y001910D02*
D03*
Y002010D02*
D03*
Y002110D02*
D03*
X007044Y001810D02*
D03*
Y001910D02*
D03*
Y002010D02*
D03*
Y002110D02*
D03*
X007730Y002210D02*
D03*
X007044D02*
D03*
X004530Y001910D02*
D03*
Y002010D02*
D03*
Y002110D02*
D03*
X003844Y001810D02*
D03*
Y001910D02*
D03*
Y002010D02*
D03*
Y002110D02*
D03*
X004530Y002210D02*
D03*
X003844D02*
D03*
X005110Y004420D02*
D03*
Y004520D02*
D03*
Y004620D02*
D03*
X004424Y004320D02*
D03*
Y004420D02*
D03*
Y004520D02*
D03*
Y004620D02*
D03*
X005110Y004720D02*
D03*
X004424D02*
D03*
X006130Y001910D02*
D03*
Y002010D02*
D03*
Y002110D02*
D03*
X005444Y001810D02*
D03*
Y001910D02*
D03*
Y002010D02*
D03*
Y002110D02*
D03*
X006130Y002210D02*
D03*
X005444D02*
D03*
D40*
X003510Y004320D02*
D03*
X001910D02*
D03*
X007730Y001810D02*
D03*
X004530Y001810D02*
D03*
X005110Y004320D02*
D03*
X006130Y001810D02*
D03*
D41*
X007485Y002475D02*
Y002665D01*
X007390Y002760D02*
X007485Y002665D01*
X006938Y002760D02*
X007390D01*
X003823Y004030D02*
Y004247D01*
X003810Y004260D02*
X003823Y004247D01*
X003510Y004320D02*
X003680D01*
X003721Y004279D01*
X003791D01*
X003810Y004260D01*
X002824Y004320D02*
X002858D01*
X002874Y004303D01*
Y004165D02*
Y004303D01*
X000750Y002997D02*
X002974D01*
X000897Y002947D02*
X002953D01*
X000668Y003047D02*
X002995D01*
X000650Y003097D02*
X003015D01*
X000547Y003147D02*
X003036D01*
X000775Y003200D02*
X003054D01*
X002719Y003830D02*
X002719Y003830D01*
X002719Y003830D02*
Y004029D01*
X002719Y004030D02*
X002897D01*
X003054Y003200D02*
X003404Y002850D01*
X000700Y003275D02*
X000775Y003200D01*
X003404Y002850D02*
X004100D01*
X000700Y003275D02*
Y004193D01*
X004205Y005704D02*
Y005704D01*
X001050Y005575D02*
X004076D01*
X004205Y005704D01*
Y005704D02*
X004351Y005850D01*
X004929Y005895D02*
X004929Y005895D01*
X005120D02*
X005345Y005670D01*
X004929Y005895D02*
X005120D01*
X004662Y005895D02*
X004929D01*
X004351Y005850D02*
X004617D01*
X004662Y005895D01*
X002974Y002997D02*
X003200Y002771D01*
X003150Y001293D02*
Y002750D01*
X003225Y000990D02*
Y001218D01*
X003150Y001293D02*
X003225Y001218D01*
X002953Y002947D02*
X003150Y002750D01*
X003200Y001314D02*
X003379Y001135D01*
X003200Y001314D02*
Y002771D01*
X003250Y001335D02*
X003400Y001185D01*
X002995Y003047D02*
X003250Y002791D01*
Y001335D02*
Y002791D01*
X003015Y003097D02*
X003300Y002812D01*
Y001356D02*
X003421Y001235D01*
X003300Y001356D02*
Y002812D01*
X003166Y003016D02*
X003350Y002833D01*
Y001376D02*
Y002833D01*
Y001376D02*
X003441Y001285D01*
X000750Y002800D02*
X000897Y002947D01*
X000568D02*
X000668Y003047D01*
X000547Y002947D02*
X000568D01*
X003036Y003147D02*
X003166Y003016D01*
X000547Y004347D02*
X000700Y004193D01*
X000375Y002300D02*
X000625D01*
X000750Y002425D02*
Y002800D01*
X000625Y002300D02*
X000750Y002425D01*
X000200Y004725D02*
X001050Y005575D01*
X000200Y004168D02*
Y004725D01*
X000218Y004150D02*
X000343D01*
X000200Y004168D02*
X000218Y004150D01*
X000343D02*
X000347Y004147D01*
X005345Y005670D02*
X005370D01*
X004738Y002900D02*
X004850D01*
X004548Y002925D02*
X004573Y002950D01*
X004548Y002900D02*
Y002925D01*
X004575Y002950D02*
X004952Y003327D01*
X004573Y002950D02*
X004575D01*
X004952Y003327D02*
Y003502D01*
X004400Y002900D02*
X004548D01*
X004150D02*
X004210D01*
X004100Y002850D02*
X004150Y002900D01*
X005369Y005479D02*
X005370Y005480D01*
X005137Y005479D02*
X005369D01*
X005136Y005478D02*
X005137Y005479D01*
X004900Y005480D02*
X004901Y005479D01*
X005135D01*
X005136Y005478D01*
X004518Y005270D02*
X004575Y005213D01*
X004865D01*
X004318Y005270D02*
X004518D01*
X004865Y004985D02*
Y005213D01*
X004865Y004985D02*
X004865Y004985D01*
X004311Y005262D02*
X004318Y005270D01*
X004311Y005260D02*
Y005262D01*
X004300Y005260D02*
X004311D01*
X003265Y005222D02*
X003267Y005220D01*
X003265D02*
X003267D01*
X002700D02*
X003265D01*
Y005222D01*
Y004985D02*
Y005220D01*
X003050Y003500D02*
X003060Y003490D01*
X003200D01*
Y003300D02*
X003375D01*
X003450Y003225D01*
X003379Y001135D02*
X003529D01*
X005210Y000985D02*
X005339Y001114D01*
X003591Y001285D02*
X003891Y000985D01*
X005210D01*
X003571Y001235D02*
X003871Y000935D01*
X006110D02*
X006253Y001078D01*
X003871Y000935D02*
X006110D01*
X007635Y000835D02*
X007853Y001053D01*
X003829Y000835D02*
X007635D01*
X003529Y001135D02*
X003829Y000835D01*
X003441Y001285D02*
X003591D01*
X003421Y001235D02*
X003571D01*
X005339Y001114D02*
Y001320D01*
X007853Y001053D02*
Y001320D01*
Y001520D01*
X003850Y000885D02*
X006760D01*
X006939Y001064D02*
Y001320D01*
X006760Y000885D02*
X006939Y001064D01*
X006253Y001078D02*
Y001320D01*
Y001520D01*
X003550Y001185D02*
X003850Y000885D01*
X003400Y001185D02*
X003550D01*
X003611Y003225D02*
X003612Y003223D01*
X003450Y003225D02*
X003611D01*
X003612Y003223D02*
Y003429D01*
Y003017D02*
Y003223D01*
X004900Y005670D02*
Y005825D01*
X003440Y000800D02*
X003610D01*
X003225Y000990D02*
X003225Y000990D01*
X003440D01*
X003440Y000990D01*
X005370Y005670D02*
X005580D01*
X005580Y005670D01*
X006931Y002752D02*
X006938Y002760D01*
X006931Y002750D02*
Y002752D01*
X006920Y002750D02*
X006931D01*
X007306Y002475D02*
X007485D01*
X007307Y001520D02*
X007484D01*
X007675Y002450D02*
Y002475D01*
X007724Y002110D02*
X007724Y002110D01*
X007450Y002225D02*
X007675Y002450D01*
X007468Y002110D02*
X007724D01*
X007450Y002128D02*
Y002225D01*
Y002128D02*
X007468Y002110D01*
X007078Y001810D02*
X007094Y001793D01*
X007116Y002227D02*
Y002425D01*
X007100Y002210D02*
X007116Y002227D01*
X007044Y002210D02*
X007100D01*
X007674Y001520D02*
X007853D01*
X008043Y002663D02*
X008100Y002720D01*
X008043Y002475D02*
Y002663D01*
X007675Y002475D02*
X007853D01*
X008030Y002277D02*
X008043Y002290D01*
Y002475D01*
X008030Y001940D02*
Y002087D01*
X007910Y001940D02*
X008030D01*
X007880Y001910D02*
X007910Y001940D01*
X007724Y001910D02*
X007880D01*
X008030Y001750D02*
X008043Y001737D01*
X008005Y001775D02*
X008030Y001750D01*
X008043Y001520D02*
Y001737D01*
X007724Y001810D02*
X007890D01*
X007925Y001775D02*
X008005D01*
X007890Y001810D02*
X007925Y001775D01*
X006939Y001520D02*
X007117D01*
X006939D02*
X006939Y001519D01*
Y001320D02*
X006939Y001320D01*
X006939Y001320D02*
Y001519D01*
X006749Y002720D02*
Y002742D01*
X006749Y002720D02*
X006749Y002720D01*
X006749Y002475D02*
Y002720D01*
X006939Y002475D02*
X007116D01*
X007033Y002099D02*
X007044Y002110D01*
X006771Y002099D02*
X007033D01*
X006760Y002087D02*
X006771Y002099D01*
X006749Y002289D02*
Y002475D01*
Y002289D02*
X006760Y002277D01*
Y001940D02*
Y002087D01*
X007307Y001408D02*
Y001520D01*
X007219Y001320D02*
X007307Y001408D01*
X007094Y001655D02*
Y001793D01*
X007044Y001810D02*
X007078D01*
X005338Y002760D02*
X005885D01*
X005331Y002752D02*
X005338Y002760D01*
X005331Y002750D02*
Y002752D01*
X005885Y002475D02*
Y002760D01*
X005320Y002750D02*
X005331D01*
X005706Y002475D02*
X005885D01*
X005707Y001520D02*
X005884D01*
X006075Y002450D02*
Y002475D01*
X006124Y002110D02*
X006124Y002110D01*
X005850Y002225D02*
X006075Y002450D01*
X005868Y002110D02*
X006124D01*
X005850Y002128D02*
Y002225D01*
Y002128D02*
X005868Y002110D01*
X005478Y001810D02*
X005494Y001793D01*
X005516Y002227D02*
Y002425D01*
X005500Y002210D02*
X005516Y002227D01*
X005444Y002210D02*
X005500D01*
X006074Y001520D02*
X006253D01*
X006443Y002663D02*
X006500Y002720D01*
X006443Y002475D02*
Y002663D01*
X006075Y002475D02*
X006253D01*
X006430Y002277D02*
X006443Y002290D01*
Y002475D01*
X006430Y001940D02*
Y002087D01*
X006310Y001940D02*
X006430D01*
X006280Y001910D02*
X006310Y001940D01*
X006124Y001910D02*
X006280D01*
X006430Y001750D02*
X006443Y001737D01*
X006405Y001775D02*
X006430Y001750D01*
X006443Y001520D02*
Y001737D01*
X006124Y001810D02*
X006290D01*
X006325Y001775D02*
X006405D01*
X006290Y001810D02*
X006325Y001775D01*
X005339Y001520D02*
X005517D01*
X005339D02*
X005339Y001519D01*
Y001320D02*
X005339Y001320D01*
X005339Y001320D02*
Y001519D01*
X005149Y002720D02*
Y002742D01*
X005149Y002720D02*
X005149Y002720D01*
X005149Y002475D02*
Y002720D01*
X005339Y002475D02*
X005516D01*
X005433Y002099D02*
X005444Y002110D01*
X005171Y002099D02*
X005433D01*
X005160Y002087D02*
X005171Y002099D01*
X005149Y002289D02*
Y002475D01*
Y002289D02*
X005160Y002277D01*
Y001940D02*
Y002087D01*
X005707Y001408D02*
Y001520D01*
X005619Y001320D02*
X005707Y001408D01*
X005494Y001655D02*
Y001793D01*
X005444Y001810D02*
X005478D01*
X001118Y005270D02*
X001665D01*
X001111Y005262D02*
X001118Y005270D01*
X001111Y005260D02*
Y005262D01*
X001665Y004985D02*
Y005270D01*
X001100Y005260D02*
X001111D01*
X001486Y004985D02*
X001665D01*
X001487Y004030D02*
X001664D01*
X001855Y004960D02*
Y004985D01*
X001904Y004620D02*
X001904Y004620D01*
X001630Y004735D02*
X001855Y004960D01*
X001648Y004620D02*
X001904D01*
X001630Y004638D02*
Y004735D01*
Y004638D02*
X001648Y004620D01*
X001258Y004320D02*
X001274Y004303D01*
X001296Y004737D02*
Y004935D01*
X001280Y004720D02*
X001296Y004737D01*
X001224Y004720D02*
X001280D01*
X002223Y005173D02*
X002280Y005230D01*
X002223Y004985D02*
Y005173D01*
X001855Y004985D02*
X002033D01*
X002210Y004787D02*
X002223Y004800D01*
Y004985D01*
X002210Y004450D02*
Y004597D01*
X002090Y004450D02*
X002210D01*
X002060Y004420D02*
X002090Y004450D01*
X001904Y004420D02*
X002060D01*
X002210Y004260D02*
X002223Y004247D01*
X002185Y004285D02*
X002210Y004260D01*
X002223Y004030D02*
Y004247D01*
X001904Y004320D02*
X002070D01*
X002105Y004285D02*
X002185D01*
X002070Y004320D02*
X002105Y004285D01*
X001119Y004030D02*
X001297D01*
X001119D02*
X001119Y004029D01*
Y003830D02*
X001119Y003830D01*
X001119Y003830D02*
Y004029D01*
X001119Y003825D02*
X001119Y003824D01*
X000929Y005230D02*
Y005252D01*
X000929Y005230D02*
X000929Y005230D01*
X000929Y004985D02*
Y005230D01*
X001119Y004985D02*
X001296D01*
X001213Y004609D02*
X001224Y004620D01*
X000951Y004609D02*
X001213D01*
X000940Y004597D02*
X000951Y004609D01*
X000929Y004799D02*
Y004985D01*
Y004799D02*
X000940Y004787D01*
Y004450D02*
Y004597D01*
X001487Y003918D02*
Y004030D01*
X001399Y003830D02*
X001487Y003918D01*
X001274Y004165D02*
Y004303D01*
X001224Y004320D02*
X001258D01*
X004686Y004985D02*
X004865D01*
X004687Y004030D02*
X004864D01*
X005055Y004960D02*
Y004985D01*
X005104Y004620D02*
X005104Y004620D01*
X004830Y004735D02*
X005055Y004960D01*
X004848Y004620D02*
X005104D01*
X004830Y004638D02*
Y004735D01*
Y004638D02*
X004848Y004620D01*
X004458Y004320D02*
X004474Y004303D01*
X004496Y004737D02*
Y004935D01*
X004480Y004720D02*
X004496Y004737D01*
X004424Y004720D02*
X004480D01*
X005423Y005173D02*
X005480Y005230D01*
X005423Y004985D02*
Y005173D01*
X005055Y004985D02*
X005233D01*
X005410Y004787D02*
X005423Y004800D01*
Y004985D01*
X005410Y004450D02*
Y004597D01*
X005290Y004450D02*
X005410D01*
X005260Y004420D02*
X005290Y004450D01*
X005104Y004420D02*
X005260D01*
X005410Y004260D02*
X005423Y004247D01*
X005385Y004285D02*
X005410Y004260D01*
X005423Y004030D02*
Y004247D01*
X005104Y004320D02*
X005270D01*
X005305Y004285D02*
X005385D01*
X005270Y004320D02*
X005305Y004285D01*
X004319Y004030D02*
X004497D01*
X004319D02*
X004319Y004029D01*
Y003830D02*
X004319Y003830D01*
X004319Y003830D02*
Y004029D01*
X004319Y003825D02*
X004319Y003824D01*
X004129Y005230D02*
Y005252D01*
X004129Y005230D02*
X004129Y005230D01*
X004129Y004985D02*
Y005230D01*
X004319Y004985D02*
X004496D01*
X004413Y004609D02*
X004424Y004620D01*
X004151Y004609D02*
X004413D01*
X004140Y004597D02*
X004151Y004609D01*
X004129Y004799D02*
Y004985D01*
Y004799D02*
X004140Y004787D01*
Y004450D02*
Y004597D01*
X004687Y003918D02*
Y004030D01*
X004599Y003830D02*
X004687Y003918D01*
X004474Y004165D02*
Y004303D01*
X004424Y004320D02*
X004458D01*
X003086Y004985D02*
X003265D01*
X003087Y004030D02*
X003264D01*
X003455Y004960D02*
Y004985D01*
X003504Y004620D02*
X003504Y004620D01*
X003230Y004735D02*
X003455Y004960D01*
X003248Y004620D02*
X003504D01*
X003230Y004638D02*
Y004735D01*
Y004638D02*
X003248Y004620D01*
X002896Y004737D02*
Y004935D01*
X002880Y004720D02*
X002896Y004737D01*
X002824Y004720D02*
X002880D01*
X003823Y005173D02*
X003880Y005230D01*
X003823Y004985D02*
Y005173D01*
X003455Y004985D02*
X003633D01*
X003810Y004787D02*
X003823Y004800D01*
Y004985D01*
X003810Y004450D02*
Y004597D01*
X003690Y004450D02*
X003810D01*
X003660Y004420D02*
X003690Y004450D01*
X003504Y004420D02*
X003660D01*
X002719Y004030D02*
X002719Y004029D01*
X002719Y003825D02*
X002719Y003824D01*
X002529Y005230D02*
Y005252D01*
X002529Y005230D02*
X002529Y005230D01*
X002529Y004985D02*
Y005230D01*
X002719Y004985D02*
X002896D01*
X002813Y004609D02*
X002824Y004620D01*
X002551Y004609D02*
X002813D01*
X002540Y004597D02*
X002551Y004609D01*
X002529Y004799D02*
Y004985D01*
Y004799D02*
X002540Y004787D01*
Y004450D02*
Y004597D01*
X003087Y003918D02*
Y004030D01*
X002999Y003830D02*
X003087Y003918D01*
X003739Y001520D02*
X003739Y001519D01*
Y001320D02*
Y001519D01*
Y001320D02*
X003739Y001320D01*
X003739Y001315D02*
X003739Y001314D01*
X003738Y002760D02*
X004285D01*
X003720Y002750D02*
X003731D01*
Y002752D02*
X003738Y002760D01*
X003731Y002750D02*
Y002752D01*
X004285Y002475D02*
Y002760D01*
X004843Y001520D02*
Y001737D01*
X004830Y001750D02*
X004843Y001737D01*
X003549Y002720D02*
X003549Y002720D01*
Y002742D01*
X003549Y002475D02*
Y002720D01*
X003844Y002210D02*
X003900D01*
X003916Y002227D01*
Y002425D01*
X004843Y002475D02*
Y002663D01*
X004900Y002720D01*
X004107Y001408D02*
Y001520D01*
X004019Y001320D02*
X004107Y001408D01*
X003833Y002099D02*
X003844Y002110D01*
X003571Y002099D02*
X003833D01*
X003560Y002087D02*
X003571Y002099D01*
X003844Y001810D02*
X003878D01*
X003894Y001793D01*
Y001655D02*
Y001793D01*
X004106Y002475D02*
X004285D01*
X004107Y001520D02*
X004284D01*
X004475Y002450D02*
Y002475D01*
X004524Y002110D02*
X004524Y002110D01*
X004250Y002225D02*
X004475Y002450D01*
X004268Y002110D02*
X004524D01*
X004250Y002128D02*
Y002225D01*
Y002128D02*
X004268Y002110D01*
X004475Y002475D02*
X004653D01*
X004843Y002290D02*
Y002475D01*
X004830Y002277D02*
X004843Y002290D01*
X004830Y001940D02*
Y002087D01*
X004710Y001940D02*
X004830D01*
X004680Y001910D02*
X004710Y001940D01*
X004524Y001910D02*
X004680D01*
X004805Y001775D02*
X004830Y001750D01*
X004524Y001810D02*
X004690D01*
X004725Y001775D02*
X004805D01*
X004690Y001810D02*
X004725Y001775D01*
X003739Y001520D02*
X003917D01*
X003739Y002475D02*
X003916D01*
X003549Y002289D02*
X003560Y002277D01*
X003549Y002289D02*
Y002475D01*
X003560Y001940D02*
Y002087D01*
D42*
X003913Y003017D02*
Y003631D01*
X004565Y003635D02*
X004825Y003375D01*
X003915Y003635D02*
X004565D01*
X003525Y003625D02*
X003725D01*
X003375Y003475D02*
X003525Y003625D01*
X003912Y003017D02*
X003913Y003017D01*
Y003631D02*
X003913Y003631D01*
D43*
X007032Y001897D02*
X007044Y001910D01*
X006895Y001897D02*
X007032D01*
X006806Y001809D02*
X006895Y001897D01*
X006806Y001771D02*
Y001809D01*
X006785Y001750D02*
X006806Y001771D01*
X006760Y001750D02*
X006785D01*
X006749Y001739D02*
X006760Y001750D01*
X006749Y001520D02*
Y001739D01*
X005431Y001897D02*
X005444Y001910D01*
X005295Y001897D02*
X005431D01*
X005206Y001809D02*
X005295Y001897D01*
X005206Y001771D02*
Y001809D01*
X005185Y001750D02*
X005206Y001771D01*
X005160Y001750D02*
X005185D01*
X005149Y001739D02*
X005160Y001750D01*
X005149Y001520D02*
Y001739D01*
X001211Y004407D02*
X001224Y004420D01*
X001075Y004407D02*
X001211D01*
X000986Y004319D02*
X001075Y004407D01*
X000986Y004281D02*
Y004319D01*
X000965Y004260D02*
X000986Y004281D01*
X000940Y004260D02*
X000965D01*
X000929Y004249D02*
X000940Y004260D01*
X000929Y004030D02*
Y004249D01*
X004412Y004407D02*
X004424Y004420D01*
X004275Y004407D02*
X004412D01*
X004186Y004319D02*
X004275Y004407D01*
X004186Y004281D02*
Y004319D01*
X004165Y004260D02*
X004186Y004281D01*
X004140Y004260D02*
X004165D01*
X004129Y004249D02*
X004140Y004260D01*
X004129Y004030D02*
Y004249D01*
X002811Y004407D02*
X002824Y004420D01*
X002675Y004407D02*
X002811D01*
X002586Y004319D02*
X002675Y004407D01*
X002586Y004281D02*
Y004319D01*
X002565Y004260D02*
X002586Y004281D01*
X002540Y004260D02*
X002565D01*
X002529Y004249D02*
X002540Y004260D01*
X002529Y004030D02*
Y004249D01*
X003831Y001897D02*
X003844Y001910D01*
X003695Y001897D02*
X003831D01*
X003606Y001809D02*
X003695Y001897D01*
X003606Y001771D02*
Y001809D01*
X003585Y001750D02*
X003606Y001771D01*
X003560Y001750D02*
X003585D01*
X003549Y001739D02*
X003560Y001750D01*
X003549Y001520D02*
Y001739D01*
D44*
X007457Y003326D02*
D03*
X008447D02*
D03*
X005450Y003072D02*
D03*
D45*
X008206D02*
D03*
Y003580D02*
D03*
D46*
X005450D02*
D03*
D47*
X000347Y003747D02*
D03*
Y003947D02*
D03*
X000547Y003547D02*
D03*
X000347D02*
D03*
X000547Y003747D02*
D03*
Y003947D02*
D03*
Y004147D02*
D03*
X000347D02*
D03*
X000547Y004347D02*
D03*
Y003347D02*
D03*
X000347Y003147D02*
D03*
X000547D02*
D03*
X000347Y003347D02*
D03*
X000547Y002947D02*
D03*
X000347Y002747D02*
D03*
X000547D02*
D03*
X000347Y002947D02*
D03*
X000547Y002547D02*
D03*
X000347D02*
D03*
D48*
Y004347D02*
D03*
D49*
X004825Y003375D02*
D03*
X004952Y003502D02*
D03*
D50*
X005079Y003375D02*
D03*
D51*
X003225Y000990D02*
D03*
Y000800D02*
D03*
X005580Y005479D02*
D03*
Y005670D02*
D03*
D52*
X001526Y004786D02*
D03*
X003126D02*
D03*
X004726D02*
D03*
X004146Y002276D02*
D03*
X005746Y002276D02*
D03*
X007346D02*
D03*
X001872Y004795D02*
D03*
X003472D02*
D03*
X005072D02*
D03*
X004492Y002295D02*
D03*
X006092D02*
D03*
X007692D02*
D03*
D53*
X006300Y003400D02*
D03*
Y003050D02*
D03*
D54*
X007390Y002760D02*
D03*
X002874Y004165D02*
D03*
X002719Y003830D02*
D03*
X000375Y002300D02*
D03*
X004900Y005825D02*
D03*
X004850Y002900D02*
D03*
X005136Y005478D02*
D03*
X004865Y005213D02*
D03*
X003050Y003490D02*
D03*
X003375Y003300D02*
D03*
Y003475D02*
D03*
X004275Y005675D02*
D03*
X003610Y000800D02*
D03*
X007109Y002690D02*
D03*
X006620Y001990D02*
D03*
X006920Y002760D02*
D03*
X007853Y001320D02*
D03*
X008100Y002720D02*
D03*
X006939Y001320D02*
D03*
X006749Y002720D02*
D03*
X007219Y001320D02*
D03*
X007094Y001655D02*
D03*
X007600Y001320D02*
D03*
X005509Y002690D02*
D03*
X005020Y001990D02*
D03*
X005885Y002760D02*
D03*
X005320D02*
D03*
X006253Y001320D02*
D03*
X006500Y002720D02*
D03*
X005339Y001320D02*
D03*
X005149Y002720D02*
D03*
X005619Y001320D02*
D03*
X005494Y001655D02*
D03*
X006000Y001320D02*
D03*
X001289Y005200D02*
D03*
X000800Y004500D02*
D03*
X001665Y005270D02*
D03*
X001100D02*
D03*
X002033Y003830D02*
D03*
X002280Y005230D02*
D03*
X001119Y003830D02*
D03*
X000929Y005230D02*
D03*
X001399Y003830D02*
D03*
X001274Y004165D02*
D03*
X001780Y003830D02*
D03*
X004489Y005200D02*
D03*
X004000Y004500D02*
D03*
X004300Y005270D02*
D03*
X005233Y003830D02*
D03*
X005480Y005230D02*
D03*
X004319Y003830D02*
D03*
X004129Y005230D02*
D03*
X004599Y003830D02*
D03*
X004474Y004165D02*
D03*
X004980Y003830D02*
D03*
X002400Y004500D02*
D03*
X003265Y005220D02*
D03*
X002700D02*
D03*
X003633Y003830D02*
D03*
X003880Y005230D02*
D03*
X002529D02*
D03*
X002999Y003830D02*
D03*
X003380D02*
D03*
X004653Y001320D02*
D03*
X003739D02*
D03*
X003720Y002760D02*
D03*
X003909Y002690D02*
D03*
X003549Y002720D02*
D03*
X004285Y002760D02*
D03*
X004900Y002720D02*
D03*
X004400Y001320D02*
D03*
X004019D02*
D03*
X003420Y001990D02*
D03*
X003894Y001655D02*
D03*
D55*
X007597Y003000D02*
D03*
D56*
X007097Y003400D02*
D03*
D57*
X004000Y005425D02*
D03*
Y005900D02*
D03*
X004800Y000650D02*
D03*
Y001155D02*
D03*
X005630Y001120D02*
D03*
X005950D02*
D03*
X003165Y005400D02*
D03*
X002865D02*
D03*
X005665Y000680D02*
D03*
X006415Y000380D02*
D03*
X005165D02*
D03*
X005665D02*
D03*
X005415D02*
D03*
X005915D02*
D03*
X006165D02*
D03*
X005165Y000680D02*
D03*
X005415D02*
D03*
X005915D02*
D03*
X006165D02*
D03*
X006415D02*
D03*
X003640Y006080D02*
D03*
X003390D02*
D03*
X003140D02*
D03*
X002640D02*
D03*
X002390D02*
D03*
X003390Y005780D02*
D03*
X003140D02*
D03*
X002640D02*
D03*
X002890D02*
D03*
X002390D02*
D03*
X003640D02*
D03*
X002890Y006080D02*
D03*
D58*
X000397Y001845D02*
D03*
X003347Y000395D02*
D03*
X001800Y006095D02*
D03*
X008397Y004645D02*
D03*
X006993Y000395D02*
D03*
X005447Y006095D02*
D03*
X004397Y003245D02*
D03*
M02*
