G04*
G04 #@! TF.GenerationSoftware,Altium Limited,Altium Designer,22.1.2 (22)*
G04*
G04 Layer_Color=39423*
%FSAX42Y42*%
%MOMM*%
G71*
G04*
G04 #@! TF.SameCoordinates,C0377FBF-3644-49C1-8AB8-029394853ECE*
G04*
G04*
G04 #@! TF.FilePolarity,Positive*
G04*
G01*
G75*
%ADD12C,0.15*%
%ADD13C,0.20*%
%ADD14C,0.10*%
%ADD81C,0.25*%
D12*
X004224Y002226D02*
X004287D01*
X004224Y002074D02*
X004287D01*
X004414Y002086D02*
Y002214D01*
X004097Y002086D02*
Y002214D01*
X004414Y002267D02*
Y002393D01*
X004097Y002267D02*
Y002393D01*
X004224Y002406D02*
X004287D01*
X004224Y002254D02*
X004287D01*
X004097Y001617D02*
Y001743D01*
X004414Y001617D02*
Y001743D01*
X004224Y001604D02*
X004287D01*
X004224Y001756D02*
X004287D01*
X004097Y001377D02*
Y001503D01*
X004414Y001377D02*
Y001503D01*
X004224Y001364D02*
X004287D01*
X004224Y001516D02*
X004287D01*
X003453D02*
X003517D01*
X003453Y001364D02*
X003517D01*
X003644Y001377D02*
Y001503D01*
X003326Y001377D02*
Y001503D01*
X003671Y001377D02*
Y001503D01*
X003989Y001377D02*
Y001503D01*
X003798Y001364D02*
X003862D01*
X003798Y001516D02*
X003862D01*
X004224Y001804D02*
X004287D01*
X004224Y001956D02*
X004287D01*
X004097Y001817D02*
Y001943D01*
X004414Y001817D02*
Y001943D01*
X004097Y001177D02*
Y001303D01*
X004414Y001177D02*
Y001303D01*
X004224Y001164D02*
X004287D01*
X004224Y001316D02*
X004287D01*
X003671Y001177D02*
Y001303D01*
X003989Y001177D02*
Y001303D01*
X003798Y001164D02*
X003862D01*
X003798Y001316D02*
X003862D01*
X001834Y004994D02*
X001897D01*
X001834Y005146D02*
X001897D01*
X001707Y005006D02*
Y005133D01*
X002024Y005006D02*
Y005133D01*
X001707Y004117D02*
Y004244D01*
X002024Y004117D02*
Y004244D01*
X001833Y004104D02*
X001897D01*
X001833Y004256D02*
X001897D01*
X000936Y004117D02*
Y004244D01*
X001254Y004117D02*
Y004244D01*
X001064Y004104D02*
X001127D01*
X001064Y004256D02*
X001127D01*
X001833Y004496D02*
X001897D01*
X001833Y004344D02*
X001897D01*
X002024Y004356D02*
Y004483D01*
X001707Y004356D02*
Y004483D01*
X001281Y004117D02*
Y004244D01*
X001599Y004117D02*
Y004244D01*
X001408Y004104D02*
X001472D01*
X001408Y004256D02*
X001472D01*
X001833Y004966D02*
X001897D01*
X001833Y004814D02*
X001897D01*
X002024Y004826D02*
Y004953D01*
X001707Y004826D02*
Y004953D01*
Y003917D02*
Y004044D01*
X002024Y003917D02*
Y004044D01*
X001833Y003904D02*
X001897D01*
X001833Y004056D02*
X001897D01*
X002024Y004556D02*
Y004683D01*
X001707Y004556D02*
Y004683D01*
X001834Y004696D02*
X001897D01*
X001834Y004544D02*
X001897D01*
X001281Y003917D02*
Y004044D01*
X001599Y003917D02*
Y004044D01*
X001408Y003904D02*
X001472D01*
X001408Y004056D02*
X001472D01*
X003654Y005006D02*
Y005133D01*
X003337Y005006D02*
Y005133D01*
X003464Y005146D02*
X003527D01*
X003464Y004994D02*
X003527D01*
X003463Y004256D02*
X003527D01*
X003463Y004104D02*
X003527D01*
X003654Y004117D02*
Y004244D01*
X003337Y004117D02*
Y004244D01*
X002693Y004256D02*
X002757D01*
X002693Y004104D02*
X002757D01*
X002884Y004117D02*
Y004244D01*
X002567Y004117D02*
Y004244D01*
X003337Y004356D02*
Y004483D01*
X003654Y004356D02*
Y004483D01*
X003463Y004344D02*
X003527D01*
X003463Y004496D02*
X003527D01*
X003038Y004256D02*
X003102D01*
X003038Y004104D02*
X003102D01*
X003229Y004117D02*
Y004244D01*
X002911Y004117D02*
Y004244D01*
X003337Y004826D02*
Y004953D01*
X003654Y004826D02*
Y004953D01*
X003463Y004814D02*
X003527D01*
X003463Y004966D02*
X003527D01*
X003463Y004056D02*
X003527D01*
X003463Y003904D02*
X003527D01*
X003654Y003917D02*
Y004044D01*
X003337Y003917D02*
Y004044D01*
X003464Y004544D02*
X003527D01*
X003464Y004696D02*
X003527D01*
X003337Y004556D02*
Y004683D01*
X003654Y004556D02*
Y004683D01*
X003038Y004056D02*
X003102D01*
X003038Y003904D02*
X003102D01*
X003229Y003917D02*
Y004044D01*
X002911Y003917D02*
Y004044D01*
X005284Y005006D02*
Y005133D01*
X004967Y005006D02*
Y005133D01*
X005094Y005146D02*
X005157D01*
X005094Y004994D02*
X005157D01*
X005094Y004256D02*
X005157D01*
X005094Y004104D02*
X005157D01*
X005284Y004117D02*
Y004244D01*
X004967Y004117D02*
Y004244D01*
X004324Y004256D02*
X004387D01*
X004324Y004104D02*
X004387D01*
X004514Y004117D02*
Y004244D01*
X004197Y004117D02*
Y004244D01*
X004967Y004356D02*
Y004483D01*
X005284Y004356D02*
Y004483D01*
X005094Y004344D02*
X005157D01*
X005094Y004496D02*
X005157D01*
X004668Y004256D02*
X004732D01*
X004668Y004104D02*
X004732D01*
X004859Y004117D02*
Y004244D01*
X004541Y004117D02*
Y004244D01*
X004967Y004826D02*
Y004953D01*
X005284Y004826D02*
Y004953D01*
X005094Y004814D02*
X005157D01*
X005094Y004966D02*
X005157D01*
X005094Y004056D02*
X005157D01*
X005094Y003904D02*
X005157D01*
X005284Y003917D02*
Y004044D01*
X004967Y003917D02*
Y004044D01*
X005094Y004544D02*
X005157D01*
X005094Y004696D02*
X005157D01*
X004967Y004556D02*
Y004683D01*
X005284Y004556D02*
Y004683D01*
X004668Y004056D02*
X004732D01*
X004668Y003904D02*
X004732D01*
X004859Y003917D02*
Y004044D01*
X004541Y003917D02*
Y004044D01*
X006044Y002267D02*
Y002393D01*
X005727Y002267D02*
Y002393D01*
X005854Y002406D02*
X005917D01*
X005854Y002254D02*
X005917D01*
X005853Y001516D02*
X005917D01*
X005853Y001364D02*
X005917D01*
X006044Y001377D02*
Y001503D01*
X005726Y001377D02*
Y001503D01*
X005083Y001516D02*
X005147D01*
X005083Y001364D02*
X005147D01*
X005274Y001377D02*
Y001503D01*
X004956Y001377D02*
Y001503D01*
X005726Y001617D02*
Y001743D01*
X006044Y001617D02*
Y001743D01*
X005853Y001604D02*
X005917D01*
X005853Y001756D02*
X005917D01*
X005428Y001516D02*
X005492D01*
X005428Y001364D02*
X005492D01*
X005619Y001377D02*
Y001503D01*
X005301Y001377D02*
Y001503D01*
X005726Y002086D02*
Y002214D01*
X006044Y002086D02*
Y002214D01*
X005853Y002074D02*
X005917D01*
X005853Y002226D02*
X005917D01*
X005853Y001316D02*
X005917D01*
X005853Y001164D02*
X005917D01*
X006044Y001177D02*
Y001303D01*
X005726Y001177D02*
Y001303D01*
X005854Y001804D02*
X005917D01*
X005854Y001956D02*
X005917D01*
X005727Y001817D02*
Y001943D01*
X006044Y001817D02*
Y001943D01*
X005428Y001316D02*
X005492D01*
X005428Y001164D02*
X005492D01*
X005619Y001177D02*
Y001303D01*
X005301Y001177D02*
Y001303D01*
X007674Y002267D02*
Y002393D01*
X007357Y002267D02*
Y002393D01*
X007483Y002406D02*
X007547D01*
X007483Y002254D02*
X007547D01*
X007483Y001516D02*
X007547D01*
X007483Y001364D02*
X007547D01*
X007674Y001377D02*
Y001503D01*
X007357Y001377D02*
Y001503D01*
X006714Y001516D02*
X006777D01*
X006714Y001364D02*
X006777D01*
X006904Y001377D02*
Y001503D01*
X006586Y001377D02*
Y001503D01*
X007357Y001617D02*
Y001743D01*
X007674Y001617D02*
Y001743D01*
X007483Y001604D02*
X007547D01*
X007483Y001756D02*
X007547D01*
X007058Y001516D02*
X007122D01*
X007058Y001364D02*
X007122D01*
X007249Y001377D02*
Y001503D01*
X006931Y001377D02*
Y001503D01*
X007357Y002086D02*
Y002214D01*
X007674Y002086D02*
Y002214D01*
X007483Y002074D02*
X007547D01*
X007483Y002226D02*
X007547D01*
X007483Y001316D02*
X007547D01*
X007483Y001164D02*
X007547D01*
X007674Y001177D02*
Y001303D01*
X007357Y001177D02*
Y001303D01*
X007483Y001804D02*
X007547D01*
X007483Y001956D02*
X007547D01*
X007357Y001817D02*
Y001943D01*
X007674Y001817D02*
Y001943D01*
X007058Y001316D02*
X007122D01*
X007058Y001164D02*
X007122D01*
X007249Y001177D02*
Y001303D01*
X006931Y001177D02*
Y001303D01*
D13*
X003534Y001963D02*
G03*
X003534Y002037I000000J000037D01*
G01*
X001144Y004703D02*
G03*
X001144Y004777I000000J000037D01*
G01*
X002774Y004703D02*
G03*
X002774Y004777I000000J000037D01*
G01*
X004404Y004703D02*
G03*
X004404Y004777I000000J000037D01*
G01*
X005164Y001963D02*
G03*
X005164Y002037I000000J000037D01*
G01*
X006794Y001963D02*
G03*
X006794Y002037I000000J000037D01*
G01*
X005090Y003400D02*
X005135D01*
X005305D02*
X005350D01*
Y003238D02*
Y003400D01*
X005090Y003238D02*
Y003400D01*
X003534Y002037D02*
Y002210D01*
Y001790D02*
Y001963D01*
Y001790D02*
X004054D01*
Y001794D02*
Y002210D01*
X003534D02*
X004054D01*
X001144Y004777D02*
Y004950D01*
Y004530D02*
Y004703D01*
Y004530D02*
X001664D01*
Y004534D02*
Y004950D01*
X001144D02*
X001664D01*
X002774D02*
X003294D01*
Y004534D02*
Y004950D01*
X002774Y004530D02*
X003294D01*
X002774D02*
Y004703D01*
Y004777D02*
Y004950D01*
X004404D02*
X004924D01*
Y004534D02*
Y004950D01*
X004404Y004530D02*
X004924D01*
X004404D02*
Y004703D01*
Y004777D02*
Y004950D01*
X005164Y002210D02*
X005684D01*
Y001794D02*
Y002210D01*
X005164Y001790D02*
X005684D01*
X005164D02*
Y001963D01*
Y002037D02*
Y002210D01*
X006794D02*
X007314D01*
Y001794D02*
Y002210D01*
X006794Y001790D02*
X007314D01*
X006794D02*
Y001963D01*
Y002037D02*
Y002210D01*
D14*
X005268Y003555D02*
Y003522D01*
X005252Y003505D01*
X005235Y003522D01*
Y003555D01*
X005218D02*
Y003505D01*
X005193D01*
X005185Y003513D01*
Y003547D01*
X005193Y003555D01*
X005218D01*
X005168Y003505D02*
X005152D01*
X005160D01*
Y003555D01*
X005168Y003547D01*
X001472Y004785D02*
Y004743D01*
X001463Y004735D01*
X001447D01*
X001438Y004743D01*
Y004785D01*
X001422D02*
X001388D01*
Y004777D01*
X001422Y004743D01*
Y004735D01*
X003102Y004785D02*
Y004743D01*
X003093Y004735D01*
X003077D01*
X003068Y004743D01*
Y004785D01*
X003018D02*
X003035Y004777D01*
X003052Y004760D01*
Y004743D01*
X003043Y004735D01*
X003027D01*
X003018Y004743D01*
Y004752D01*
X003027Y004760D01*
X003052D01*
X004732Y004785D02*
Y004743D01*
X004723Y004735D01*
X004707D01*
X004698Y004743D01*
Y004785D01*
X004648D02*
X004682D01*
Y004760D01*
X004665Y004768D01*
X004657D01*
X004648Y004760D01*
Y004743D01*
X004657Y004735D01*
X004673D01*
X004682Y004743D01*
X005492Y002045D02*
Y002003D01*
X005483Y001995D01*
X005467D01*
X005458Y002003D01*
Y002045D01*
X005442Y002037D02*
X005433Y002045D01*
X005417D01*
X005408Y002037D01*
Y002028D01*
X005417Y002020D01*
X005425D01*
X005417D01*
X005408Y002012D01*
Y002003D01*
X005417Y001995D01*
X005433D01*
X005442Y002003D01*
X007122Y002045D02*
Y002003D01*
X007113Y001995D01*
X007097D01*
X007088Y002003D01*
Y002045D01*
X007038Y001995D02*
X007072D01*
X007038Y002028D01*
Y002037D01*
X007047Y002045D01*
X007063D01*
X007072Y002037D01*
X002268Y005045D02*
Y005095D01*
X002243D01*
X002235Y005087D01*
Y005070D01*
X002243Y005062D01*
X002268D01*
X002252D02*
X002235Y005045D01*
X002218D02*
X002202D01*
X002210D01*
Y005095D01*
X002218Y005087D01*
X002177D02*
X002168Y005095D01*
X002152D01*
X002143Y005087D01*
Y005053D01*
X002152Y005045D01*
X002168D01*
X002177Y005053D01*
Y005087D01*
X002127Y005095D02*
X002093D01*
Y005087D01*
X002127Y005053D01*
Y005045D01*
X002268Y004145D02*
Y004195D01*
X002243D01*
X002235Y004187D01*
Y004170D01*
X002243Y004162D01*
X002268D01*
X002252D02*
X002235Y004145D01*
X002218D02*
X002202D01*
X002210D01*
Y004195D01*
X002218Y004187D01*
X002177D02*
X002168Y004195D01*
X002152D01*
X002143Y004187D01*
Y004153D01*
X002152Y004145D01*
X002168D01*
X002177Y004153D01*
Y004187D01*
X002093Y004195D02*
X002110Y004187D01*
X002127Y004170D01*
Y004153D01*
X002118Y004145D01*
X002102D01*
X002093Y004153D01*
Y004162D01*
X002102Y004170D01*
X002127D01*
X001067Y004295D02*
Y004345D01*
X001042D01*
X001034Y004337D01*
Y004320D01*
X001042Y004312D01*
X001067D01*
X001051D02*
X001034Y004295D01*
X001017D02*
X001001D01*
X001009D01*
Y004345D01*
X001017Y004337D01*
X000976D02*
X000968Y004345D01*
X000951D01*
X000943Y004337D01*
Y004303D01*
X000951Y004295D01*
X000968D01*
X000976Y004303D01*
Y004337D01*
X000893Y004345D02*
X000926D01*
Y004320D01*
X000909Y004328D01*
X000901D01*
X000893Y004320D01*
Y004303D01*
X000901Y004295D01*
X000918D01*
X000926Y004303D01*
X002258Y004385D02*
Y004435D01*
X002233D01*
X002225Y004427D01*
Y004410D01*
X002233Y004402D01*
X002258D01*
X002242D02*
X002225Y004385D01*
X002208D02*
X002192D01*
X002200D01*
Y004435D01*
X002208Y004427D01*
X002167D02*
X002158Y004435D01*
X002142D01*
X002133Y004427D01*
Y004393D01*
X002142Y004385D01*
X002158D01*
X002167Y004393D01*
Y004427D01*
X002092Y004385D02*
Y004435D01*
X002117Y004410D01*
X002083D01*
X001807Y004275D02*
Y004325D01*
X001782D01*
X001774Y004317D01*
Y004300D01*
X001782Y004292D01*
X001807D01*
X001791D02*
X001774Y004275D01*
X001757D02*
X001741D01*
X001749D01*
Y004325D01*
X001757Y004317D01*
X001716D02*
X001708Y004325D01*
X001691D01*
X001683Y004317D01*
Y004283D01*
X001691Y004275D01*
X001708D01*
X001716Y004283D01*
Y004317D01*
X001666D02*
X001658Y004325D01*
X001641D01*
X001633Y004317D01*
Y004308D01*
X001641Y004300D01*
X001649D01*
X001641D01*
X001633Y004292D01*
Y004283D01*
X001641Y004275D01*
X001658D01*
X001666Y004283D01*
X003857Y005045D02*
Y005095D01*
X003832D01*
X003823Y005087D01*
Y005070D01*
X003832Y005062D01*
X003857D01*
X003840D02*
X003823Y005045D01*
X003807Y005087D02*
X003798Y005095D01*
X003782D01*
X003773Y005087D01*
Y005078D01*
X003782Y005070D01*
X003773Y005062D01*
Y005053D01*
X003782Y005045D01*
X003798D01*
X003807Y005053D01*
Y005062D01*
X003798Y005070D01*
X003807Y005078D01*
Y005087D01*
X003798Y005070D02*
X003782D01*
X003757Y005087D02*
X003748Y005095D01*
X003732D01*
X003723Y005087D01*
Y005078D01*
X003732Y005070D01*
X003723Y005062D01*
Y005053D01*
X003732Y005045D01*
X003748D01*
X003757Y005053D01*
Y005062D01*
X003748Y005070D01*
X003757Y005078D01*
Y005087D01*
X003748Y005070D02*
X003732D01*
X003857Y004145D02*
Y004195D01*
X003832D01*
X003823Y004187D01*
Y004170D01*
X003832Y004162D01*
X003857D01*
X003840D02*
X003823Y004145D01*
X003807Y004187D02*
X003798Y004195D01*
X003782D01*
X003773Y004187D01*
Y004178D01*
X003782Y004170D01*
X003773Y004162D01*
Y004153D01*
X003782Y004145D01*
X003798D01*
X003807Y004153D01*
Y004162D01*
X003798Y004170D01*
X003807Y004178D01*
Y004187D01*
X003798Y004170D02*
X003782D01*
X003757Y004195D02*
X003723D01*
Y004187D01*
X003757Y004153D01*
Y004145D01*
X002697Y004315D02*
Y004365D01*
X002672D01*
X002663Y004357D01*
Y004340D01*
X002672Y004332D01*
X002697D01*
X002680D02*
X002663Y004315D01*
X002647Y004357D02*
X002638Y004365D01*
X002622D01*
X002613Y004357D01*
Y004348D01*
X002622Y004340D01*
X002613Y004332D01*
Y004323D01*
X002622Y004315D01*
X002638D01*
X002647Y004323D01*
Y004332D01*
X002638Y004340D01*
X002647Y004348D01*
Y004357D01*
X002638Y004340D02*
X002622D01*
X002563Y004365D02*
X002580Y004357D01*
X002597Y004340D01*
Y004323D01*
X002588Y004315D01*
X002572D01*
X002563Y004323D01*
Y004332D01*
X002572Y004340D01*
X002597D01*
X003847Y004385D02*
Y004435D01*
X003822D01*
X003813Y004427D01*
Y004410D01*
X003822Y004402D01*
X003847D01*
X003830D02*
X003813Y004385D01*
X003797Y004427D02*
X003788Y004435D01*
X003772D01*
X003763Y004427D01*
Y004418D01*
X003772Y004410D01*
X003763Y004402D01*
Y004393D01*
X003772Y004385D01*
X003788D01*
X003797Y004393D01*
Y004402D01*
X003788Y004410D01*
X003797Y004418D01*
Y004427D01*
X003788Y004410D02*
X003772D01*
X003713Y004435D02*
X003747D01*
Y004410D01*
X003730Y004418D01*
X003722D01*
X003713Y004410D01*
Y004393D01*
X003722Y004385D01*
X003738D01*
X003747Y004393D01*
X003417Y004275D02*
Y004325D01*
X003392D01*
X003383Y004317D01*
Y004300D01*
X003392Y004292D01*
X003417D01*
X003400D02*
X003383Y004275D01*
X003367Y004317D02*
X003358Y004325D01*
X003342D01*
X003333Y004317D01*
Y004308D01*
X003342Y004300D01*
X003333Y004292D01*
Y004283D01*
X003342Y004275D01*
X003358D01*
X003367Y004283D01*
Y004292D01*
X003358Y004300D01*
X003367Y004308D01*
Y004317D01*
X003358Y004300D02*
X003342D01*
X003292Y004275D02*
Y004325D01*
X003317Y004300D01*
X003283D01*
X005487Y005045D02*
Y005095D01*
X005462D01*
X005453Y005087D01*
Y005070D01*
X005462Y005062D01*
X005487D01*
X005470D02*
X005453Y005045D01*
X005403Y005095D02*
X005420Y005087D01*
X005437Y005070D01*
Y005053D01*
X005428Y005045D01*
X005412D01*
X005403Y005053D01*
Y005062D01*
X005412Y005070D01*
X005437D01*
X005387Y005053D02*
X005378Y005045D01*
X005362D01*
X005353Y005053D01*
Y005087D01*
X005362Y005095D01*
X005378D01*
X005387Y005087D01*
Y005078D01*
X005378Y005070D01*
X005353D01*
X005487Y004145D02*
Y004195D01*
X005462D01*
X005453Y004187D01*
Y004170D01*
X005462Y004162D01*
X005487D01*
X005470D02*
X005453Y004145D01*
X005403Y004195D02*
X005420Y004187D01*
X005437Y004170D01*
Y004153D01*
X005428Y004145D01*
X005412D01*
X005403Y004153D01*
Y004162D01*
X005412Y004170D01*
X005437D01*
X005387Y004187D02*
X005378Y004195D01*
X005362D01*
X005353Y004187D01*
Y004178D01*
X005362Y004170D01*
X005353Y004162D01*
Y004153D01*
X005362Y004145D01*
X005378D01*
X005387Y004153D01*
Y004162D01*
X005378Y004170D01*
X005387Y004178D01*
Y004187D01*
X005378Y004170D02*
X005362D01*
X004327Y004315D02*
Y004365D01*
X004302D01*
X004293Y004357D01*
Y004340D01*
X004302Y004332D01*
X004327D01*
X004310D02*
X004293Y004315D01*
X004243Y004365D02*
X004260Y004357D01*
X004277Y004340D01*
Y004323D01*
X004268Y004315D01*
X004252D01*
X004243Y004323D01*
Y004332D01*
X004252Y004340D01*
X004277D01*
X004227Y004365D02*
X004193D01*
Y004357D01*
X004227Y004323D01*
Y004315D01*
X005477Y004385D02*
Y004435D01*
X005452D01*
X005443Y004427D01*
Y004410D01*
X005452Y004402D01*
X005477D01*
X005460D02*
X005443Y004385D01*
X005393Y004435D02*
X005410Y004427D01*
X005427Y004410D01*
Y004393D01*
X005418Y004385D01*
X005402D01*
X005393Y004393D01*
Y004402D01*
X005402Y004410D01*
X005427D01*
X005343Y004435D02*
X005360Y004427D01*
X005377Y004410D01*
Y004393D01*
X005368Y004385D01*
X005352D01*
X005343Y004393D01*
Y004402D01*
X005352Y004410D01*
X005377D01*
X005041Y004281D02*
Y004331D01*
X005016D01*
X005007Y004322D01*
Y004306D01*
X005016Y004297D01*
X005041D01*
X005024D02*
X005007Y004281D01*
X004957Y004331D02*
X004974Y004322D01*
X004991Y004306D01*
Y004289D01*
X004982Y004281D01*
X004966D01*
X004957Y004289D01*
Y004297D01*
X004966Y004306D01*
X004991D01*
X004907Y004331D02*
X004941D01*
Y004306D01*
X004924Y004314D01*
X004916D01*
X004907Y004306D01*
Y004289D01*
X004916Y004281D01*
X004932D01*
X004941Y004289D01*
X006230Y002305D02*
Y002355D01*
X006205D01*
X006197Y002347D01*
Y002330D01*
X006205Y002322D01*
X006230D01*
X006213D02*
X006197Y002305D01*
X006180Y002347D02*
X006172Y002355D01*
X006155D01*
X006147Y002347D01*
Y002338D01*
X006155Y002330D01*
X006163D01*
X006155D01*
X006147Y002322D01*
Y002313D01*
X006155Y002305D01*
X006172D01*
X006180Y002313D01*
X006130Y002305D02*
X006113D01*
X006122D01*
Y002355D01*
X006130Y002347D01*
X006247Y001405D02*
Y001455D01*
X006222D01*
X006213Y001447D01*
Y001430D01*
X006222Y001422D01*
X006247D01*
X006230D02*
X006213Y001405D01*
X006197Y001447D02*
X006188Y001455D01*
X006172D01*
X006163Y001447D01*
Y001438D01*
X006172Y001430D01*
X006180D01*
X006172D01*
X006163Y001422D01*
Y001413D01*
X006172Y001405D01*
X006188D01*
X006197Y001413D01*
X006147Y001447D02*
X006138Y001455D01*
X006122D01*
X006113Y001447D01*
Y001413D01*
X006122Y001405D01*
X006138D01*
X006147Y001413D01*
Y001447D01*
X005087Y001575D02*
Y001625D01*
X005062D01*
X005053Y001617D01*
Y001600D01*
X005062Y001592D01*
X005087D01*
X005070D02*
X005053Y001575D01*
X005003D02*
X005037D01*
X005003Y001608D01*
Y001617D01*
X005012Y001625D01*
X005028D01*
X005037Y001617D01*
X004987Y001583D02*
X004978Y001575D01*
X004962D01*
X004953Y001583D01*
Y001617D01*
X004962Y001625D01*
X004978D01*
X004987Y001617D01*
Y001608D01*
X004978Y001600D01*
X004953D01*
X006237Y001645D02*
Y001695D01*
X006212D01*
X006203Y001687D01*
Y001670D01*
X006212Y001662D01*
X006237D01*
X006220D02*
X006203Y001645D01*
X006153D02*
X006187D01*
X006153Y001678D01*
Y001687D01*
X006162Y001695D01*
X006178D01*
X006187Y001687D01*
X006137D02*
X006128Y001695D01*
X006112D01*
X006103Y001687D01*
Y001678D01*
X006112Y001670D01*
X006103Y001662D01*
Y001653D01*
X006112Y001645D01*
X006128D01*
X006137Y001653D01*
Y001662D01*
X006128Y001670D01*
X006137Y001678D01*
Y001687D01*
X006128Y001670D02*
X006112D01*
X005777Y001535D02*
Y001585D01*
X005752D01*
X005743Y001577D01*
Y001560D01*
X005752Y001552D01*
X005777D01*
X005760D02*
X005743Y001535D01*
X005693D02*
X005727D01*
X005693Y001568D01*
Y001577D01*
X005702Y001585D01*
X005718D01*
X005727Y001577D01*
X005677Y001585D02*
X005643D01*
Y001577D01*
X005677Y001543D01*
Y001535D01*
X007868Y002305D02*
Y002355D01*
X007843D01*
X007835Y002347D01*
Y002330D01*
X007843Y002322D01*
X007868D01*
X007852D02*
X007835Y002305D01*
X007818D02*
X007802D01*
X007810D01*
Y002355D01*
X007818Y002347D01*
X007743Y002305D02*
X007777D01*
X007743Y002338D01*
Y002347D01*
X007752Y002355D01*
X007768D01*
X007777Y002347D01*
X007852Y001405D02*
Y001455D01*
X007827D01*
X007818Y001447D01*
Y001430D01*
X007827Y001422D01*
X007852D01*
X007835D02*
X007818Y001405D01*
X007802D02*
X007785D01*
X007793D01*
Y001455D01*
X007802Y001447D01*
X007760Y001405D02*
X007743D01*
X007752D01*
Y001455D01*
X007760Y001447D01*
X006708Y001575D02*
Y001625D01*
X006683D01*
X006675Y001617D01*
Y001600D01*
X006683Y001592D01*
X006708D01*
X006692D02*
X006675Y001575D01*
X006658D02*
X006642D01*
X006650D01*
Y001625D01*
X006658Y001617D01*
X006617D02*
X006608Y001625D01*
X006592D01*
X006583Y001617D01*
Y001583D01*
X006592Y001575D01*
X006608D01*
X006617Y001583D01*
Y001617D01*
X007817Y001645D02*
Y001695D01*
X007792D01*
X007783Y001687D01*
Y001670D01*
X007792Y001662D01*
X007817D01*
X007800D02*
X007783Y001645D01*
X007767Y001653D02*
X007758Y001645D01*
X007742D01*
X007733Y001653D01*
Y001687D01*
X007742Y001695D01*
X007758D01*
X007767Y001687D01*
Y001678D01*
X007758Y001670D01*
X007733D01*
X007372Y001535D02*
Y001585D01*
X007347D01*
X007338Y001577D01*
Y001560D01*
X007347Y001552D01*
X007372D01*
X007355D02*
X007338Y001535D01*
X007322Y001577D02*
X007313Y001585D01*
X007297D01*
X007288Y001577D01*
Y001568D01*
X007297Y001560D01*
X007288Y001552D01*
Y001543D01*
X007297Y001535D01*
X007313D01*
X007322Y001543D01*
Y001552D01*
X007313Y001560D01*
X007322Y001568D01*
Y001577D01*
X007313Y001560D02*
X007297D01*
X002210Y004897D02*
X002218Y004905D01*
X002235D01*
X002243Y004897D01*
Y004863D01*
X002235Y004855D01*
X002218D01*
X002210Y004863D01*
X002160Y004905D02*
X002177Y004897D01*
X002193Y004880D01*
Y004863D01*
X002185Y004855D01*
X002168D01*
X002160Y004863D01*
Y004872D01*
X002168Y004880D01*
X002193D01*
X002143Y004905D02*
X002110D01*
Y004897D01*
X002143Y004863D01*
Y004855D01*
X002193Y003987D02*
X002202Y003995D01*
X002218D01*
X002227Y003987D01*
Y003953D01*
X002218Y003945D01*
X002202D01*
X002193Y003953D01*
X002143Y003995D02*
X002160Y003987D01*
X002177Y003970D01*
Y003953D01*
X002168Y003945D01*
X002152D01*
X002143Y003953D01*
Y003962D01*
X002152Y003970D01*
X002177D01*
X002093Y003995D02*
X002110Y003987D01*
X002127Y003970D01*
Y003953D01*
X002118Y003945D01*
X002102D01*
X002093Y003953D01*
Y003962D01*
X002102Y003970D01*
X002127D01*
X002193Y004637D02*
X002202Y004645D01*
X002218D01*
X002227Y004637D01*
Y004603D01*
X002218Y004595D01*
X002202D01*
X002193Y004603D01*
X002143Y004645D02*
X002160Y004637D01*
X002177Y004620D01*
Y004603D01*
X002168Y004595D01*
X002152D01*
X002143Y004603D01*
Y004612D01*
X002152Y004620D01*
X002177D01*
X002093Y004645D02*
X002127D01*
Y004620D01*
X002110Y004628D01*
X002102D01*
X002093Y004620D01*
Y004603D01*
X002102Y004595D01*
X002118D01*
X002127Y004603D01*
X001163Y003997D02*
X001172Y004005D01*
X001188D01*
X001197Y003997D01*
Y003963D01*
X001188Y003955D01*
X001172D01*
X001163Y003963D01*
X001113Y004005D02*
X001130Y003997D01*
X001147Y003980D01*
Y003963D01*
X001138Y003955D01*
X001122D01*
X001113Y003963D01*
Y003972D01*
X001122Y003980D01*
X001147D01*
X001072Y003955D02*
Y004005D01*
X001097Y003980D01*
X001063D01*
X003840Y004897D02*
X003848Y004905D01*
X003865D01*
X003873Y004897D01*
Y004863D01*
X003865Y004855D01*
X003848D01*
X003840Y004863D01*
X003790Y004905D02*
X003823D01*
Y004880D01*
X003807Y004888D01*
X003798D01*
X003790Y004880D01*
Y004863D01*
X003798Y004855D01*
X003815D01*
X003823Y004863D01*
X003740Y004905D02*
X003773D01*
Y004880D01*
X003757Y004888D01*
X003748D01*
X003740Y004880D01*
Y004863D01*
X003748Y004855D01*
X003765D01*
X003773Y004863D01*
X003823Y003987D02*
X003832Y003995D01*
X003848D01*
X003857Y003987D01*
Y003953D01*
X003848Y003945D01*
X003832D01*
X003823Y003953D01*
X003773Y003995D02*
X003807D01*
Y003970D01*
X003790Y003978D01*
X003782D01*
X003773Y003970D01*
Y003953D01*
X003782Y003945D01*
X003798D01*
X003807Y003953D01*
X003732Y003945D02*
Y003995D01*
X003757Y003970D01*
X003723D01*
X003823Y004637D02*
X003832Y004645D01*
X003848D01*
X003857Y004637D01*
Y004603D01*
X003848Y004595D01*
X003832D01*
X003823Y004603D01*
X003773Y004645D02*
X003807D01*
Y004620D01*
X003790Y004628D01*
X003782D01*
X003773Y004620D01*
Y004603D01*
X003782Y004595D01*
X003798D01*
X003807Y004603D01*
X003757Y004637D02*
X003748Y004645D01*
X003732D01*
X003723Y004637D01*
Y004628D01*
X003732Y004620D01*
X003740D01*
X003732D01*
X003723Y004612D01*
Y004603D01*
X003732Y004595D01*
X003748D01*
X003757Y004603D01*
X002793Y003987D02*
X002802Y003995D01*
X002818D01*
X002827Y003987D01*
Y003953D01*
X002818Y003945D01*
X002802D01*
X002793Y003953D01*
X002743Y003995D02*
X002777D01*
Y003970D01*
X002760Y003978D01*
X002752D01*
X002743Y003970D01*
Y003953D01*
X002752Y003945D01*
X002768D01*
X002777Y003953D01*
X002693Y003945D02*
X002727D01*
X002693Y003978D01*
Y003987D01*
X002702Y003995D01*
X002718D01*
X002727Y003987D01*
X005470Y004897D02*
X005478Y004905D01*
X005495D01*
X005503Y004897D01*
Y004863D01*
X005495Y004855D01*
X005478D01*
X005470Y004863D01*
X005428Y004855D02*
Y004905D01*
X005453Y004880D01*
X005420D01*
X005403Y004897D02*
X005395Y004905D01*
X005378D01*
X005370Y004897D01*
Y004888D01*
X005378Y004880D01*
X005387D01*
X005378D01*
X005370Y004872D01*
Y004863D01*
X005378Y004855D01*
X005395D01*
X005403Y004863D01*
X005453Y003987D02*
X005462Y003995D01*
X005478D01*
X005487Y003987D01*
Y003953D01*
X005478Y003945D01*
X005462D01*
X005453Y003953D01*
X005412Y003945D02*
Y003995D01*
X005437Y003970D01*
X005403D01*
X005353Y003945D02*
X005387D01*
X005353Y003978D01*
Y003987D01*
X005362Y003995D01*
X005378D01*
X005387Y003987D01*
X005437Y004637D02*
X005445Y004645D01*
X005462D01*
X005470Y004637D01*
Y004603D01*
X005462Y004595D01*
X005445D01*
X005437Y004603D01*
X005395Y004595D02*
Y004645D01*
X005420Y004620D01*
X005387D01*
X005370Y004595D02*
X005353D01*
X005362D01*
Y004645D01*
X005370Y004637D01*
X004423Y003987D02*
X004432Y003995D01*
X004448D01*
X004457Y003987D01*
Y003953D01*
X004448Y003945D01*
X004432D01*
X004423Y003953D01*
X004382Y003945D02*
Y003995D01*
X004407Y003970D01*
X004373D01*
X004357Y003987D02*
X004348Y003995D01*
X004332D01*
X004323Y003987D01*
Y003953D01*
X004332Y003945D01*
X004348D01*
X004357Y003953D01*
Y003987D01*
X006222Y002157D02*
X006230Y002165D01*
X006247D01*
X006255Y002157D01*
Y002123D01*
X006247Y002115D01*
X006230D01*
X006222Y002123D01*
X006205Y002115D02*
X006188D01*
X006197D01*
Y002165D01*
X006205Y002157D01*
X006163Y002123D02*
X006155Y002115D01*
X006138D01*
X006130Y002123D01*
Y002157D01*
X006138Y002165D01*
X006155D01*
X006163Y002157D01*
Y002148D01*
X006155Y002140D01*
X006130D01*
X006205Y001247D02*
X006213Y001255D01*
X006230D01*
X006238Y001247D01*
Y001213D01*
X006230Y001205D01*
X006213D01*
X006205Y001213D01*
X006188Y001205D02*
X006172D01*
X006180D01*
Y001255D01*
X006188Y001247D01*
X006147D02*
X006138Y001255D01*
X006122D01*
X006113Y001247D01*
Y001238D01*
X006122Y001230D01*
X006113Y001222D01*
Y001213D01*
X006122Y001205D01*
X006138D01*
X006147Y001213D01*
Y001222D01*
X006138Y001230D01*
X006147Y001238D01*
Y001247D01*
X006138Y001230D02*
X006122D01*
X006205Y001897D02*
X006213Y001905D01*
X006230D01*
X006238Y001897D01*
Y001863D01*
X006230Y001855D01*
X006213D01*
X006205Y001863D01*
X006188Y001855D02*
X006172D01*
X006180D01*
Y001905D01*
X006188Y001897D01*
X006147Y001905D02*
X006113D01*
Y001897D01*
X006147Y001863D01*
Y001855D01*
X005179Y001247D02*
X005187Y001255D01*
X005204D01*
X005212Y001247D01*
Y001213D01*
X005204Y001205D01*
X005187D01*
X005179Y001213D01*
X005162Y001205D02*
X005146D01*
X005154D01*
Y001255D01*
X005162Y001247D01*
X005088Y001255D02*
X005104Y001247D01*
X005121Y001230D01*
Y001213D01*
X005113Y001205D01*
X005096D01*
X005088Y001213D01*
Y001222D01*
X005096Y001230D01*
X005121D01*
X007810Y002157D02*
X007818Y002165D01*
X007835D01*
X007843Y002157D01*
Y002123D01*
X007835Y002115D01*
X007818D01*
X007810Y002123D01*
X007793Y002165D02*
X007760D01*
Y002157D01*
X007793Y002123D01*
Y002115D01*
X007793Y001247D02*
X007802Y001255D01*
X007818D01*
X007827Y001247D01*
Y001213D01*
X007818Y001205D01*
X007802D01*
X007793Y001213D01*
X007743Y001255D02*
X007760Y001247D01*
X007777Y001230D01*
Y001213D01*
X007768Y001205D01*
X007752D01*
X007743Y001213D01*
Y001222D01*
X007752Y001230D01*
X007777D01*
X007793Y001897D02*
X007802Y001905D01*
X007818D01*
X007827Y001897D01*
Y001863D01*
X007818Y001855D01*
X007802D01*
X007793Y001863D01*
X007743Y001905D02*
X007777D01*
Y001880D01*
X007760Y001888D01*
X007752D01*
X007743Y001880D01*
Y001863D01*
X007752Y001855D01*
X007768D01*
X007777Y001863D01*
X006818Y001247D02*
X006827Y001255D01*
X006843D01*
X006852Y001247D01*
Y001213D01*
X006843Y001205D01*
X006827D01*
X006818Y001213D01*
X006777Y001205D02*
Y001255D01*
X006802Y001230D01*
X006768D01*
X004583Y002157D02*
X004592Y002165D01*
X004608D01*
X004617Y002157D01*
Y002123D01*
X004608Y002115D01*
X004592D01*
X004583Y002123D01*
X004567Y002157D02*
X004558Y002165D01*
X004542D01*
X004533Y002157D01*
Y002148D01*
X004542Y002140D01*
X004550D01*
X004542D01*
X004533Y002132D01*
Y002123D01*
X004542Y002115D01*
X004558D01*
X004567Y002123D01*
X004517Y002115D02*
X004500D01*
X004508D01*
Y002165D01*
X004517Y002157D01*
X003862Y002045D02*
Y002003D01*
X003853Y001995D01*
X003837D01*
X003828Y002003D01*
Y002045D01*
X003787Y001995D02*
Y002045D01*
X003812Y002020D01*
X003778D01*
X004617Y002305D02*
Y002355D01*
X004592D01*
X004583Y002347D01*
Y002330D01*
X004592Y002322D01*
X004617D01*
X004600D02*
X004583Y002305D01*
X004533Y002355D02*
X004567D01*
Y002330D01*
X004550Y002338D01*
X004542D01*
X004533Y002330D01*
Y002313D01*
X004542Y002305D01*
X004558D01*
X004567Y002313D01*
X004517Y002347D02*
X004508Y002355D01*
X004492D01*
X004483Y002347D01*
Y002313D01*
X004492Y002305D01*
X004508D01*
X004517Y002313D01*
Y002347D01*
X004607Y001645D02*
Y001695D01*
X004582D01*
X004573Y001687D01*
Y001670D01*
X004582Y001662D01*
X004607D01*
X004590D02*
X004573Y001645D01*
X004532D02*
Y001695D01*
X004557Y001670D01*
X004523D01*
X004507Y001695D02*
X004473D01*
Y001687D01*
X004507Y001653D01*
Y001645D01*
X004617Y001405D02*
Y001455D01*
X004592D01*
X004583Y001447D01*
Y001430D01*
X004592Y001422D01*
X004617D01*
X004600D02*
X004583Y001405D01*
X004542D02*
Y001455D01*
X004567Y001430D01*
X004533D01*
X004517Y001413D02*
X004508Y001405D01*
X004492D01*
X004483Y001413D01*
Y001447D01*
X004492Y001455D01*
X004508D01*
X004517Y001447D01*
Y001438D01*
X004508Y001430D01*
X004483D01*
X003457Y001575D02*
Y001625D01*
X003432D01*
X003423Y001617D01*
Y001600D01*
X003432Y001592D01*
X003457D01*
X003440D02*
X003423Y001575D01*
X003382D02*
Y001625D01*
X003407Y001600D01*
X003373D01*
X003357Y001617D02*
X003348Y001625D01*
X003332D01*
X003323Y001617D01*
Y001608D01*
X003332Y001600D01*
X003323Y001592D01*
Y001583D01*
X003332Y001575D01*
X003348D01*
X003357Y001583D01*
Y001592D01*
X003348Y001600D01*
X003357Y001608D01*
Y001617D01*
X003348Y001600D02*
X003332D01*
X004187Y001535D02*
Y001585D01*
X004162D01*
X004153Y001577D01*
Y001560D01*
X004162Y001552D01*
X004187D01*
X004170D02*
X004153Y001535D01*
X004112D02*
Y001585D01*
X004137Y001560D01*
X004103D01*
X004053Y001585D02*
X004070Y001577D01*
X004087Y001560D01*
Y001543D01*
X004078Y001535D01*
X004062D01*
X004053Y001543D01*
Y001552D01*
X004062Y001560D01*
X004087D01*
X004583Y001897D02*
X004592Y001905D01*
X004608D01*
X004617Y001897D01*
Y001863D01*
X004608Y001855D01*
X004592D01*
X004583Y001863D01*
X004533Y001855D02*
X004567D01*
X004533Y001888D01*
Y001897D01*
X004542Y001905D01*
X004558D01*
X004567Y001897D01*
X004517Y001863D02*
X004508Y001855D01*
X004492D01*
X004483Y001863D01*
Y001897D01*
X004492Y001905D01*
X004508D01*
X004517Y001897D01*
Y001888D01*
X004508Y001880D01*
X004483D01*
X004583Y001247D02*
X004592Y001255D01*
X004608D01*
X004617Y001247D01*
Y001213D01*
X004608Y001205D01*
X004592D01*
X004583Y001213D01*
X004567Y001247D02*
X004558Y001255D01*
X004542D01*
X004533Y001247D01*
Y001238D01*
X004542Y001230D01*
X004550D01*
X004542D01*
X004533Y001222D01*
Y001213D01*
X004542Y001205D01*
X004558D01*
X004567Y001213D01*
X004517Y001247D02*
X004508Y001255D01*
X004492D01*
X004483Y001247D01*
Y001213D01*
X004492Y001205D01*
X004508D01*
X004517Y001213D01*
Y001247D01*
X003563D02*
X003572Y001255D01*
X003588D01*
X003597Y001247D01*
Y001213D01*
X003588Y001205D01*
X003572D01*
X003563Y001213D01*
X003513Y001205D02*
X003547D01*
X003513Y001238D01*
Y001247D01*
X003522Y001255D01*
X003538D01*
X003547Y001247D01*
X003497D02*
X003488Y001255D01*
X003472D01*
X003463Y001247D01*
Y001238D01*
X003472Y001230D01*
X003463Y001222D01*
Y001213D01*
X003472Y001205D01*
X003488D01*
X003497Y001213D01*
Y001222D01*
X003488Y001230D01*
X003497Y001238D01*
Y001247D01*
X003488Y001230D02*
X003472D01*
D81*
X005312Y003255D02*
G03*
X005312Y003255I-000012J000000D01*
G01*
X003541Y002320D02*
G03*
X003541Y002320I-000012J000000D01*
G01*
X001151Y005060D02*
G03*
X001151Y005060I-000012J000000D01*
G01*
X002781D02*
G03*
X002781Y005060I-000012J000000D01*
G01*
X004411D02*
G03*
X004411Y005060I-000012J000000D01*
G01*
X005171Y002320D02*
G03*
X005171Y002320I-000012J000000D01*
G01*
X006801D02*
G03*
X006801Y002320I-000012J000000D01*
G01*
M02*
