G04*
G04 #@! TF.GenerationSoftware,Altium Limited,Altium Designer,20.1.10 (176)*
G04*
G04 Layer_Color=8388736*
%FSAX42Y42*%
%MOMM*%
G71*
G04*
G04 #@! TF.SameCoordinates,63434018-A3C6-436E-83B0-3C2E02A57827*
G04*
G04*
G04 #@! TF.FilePolarity,Negative*
G04*
G01*
G75*
%ADD12C,0.20*%
%ADD15C,0.40*%
%ADD16R,1.50X1.00*%
%ADD17R,1.20X1.90*%
%ADD18R,1.00X1.50*%
%ADD19R,2.62X0.84*%
%ADD20O,2.62X0.84*%
%ADD21C,3.25*%
%ADD22C,3.00*%
%ADD23R,3.25X3.25*%
%ADD24C,1.57*%
%ADD25R,1.57X1.57*%
%ADD26C,1.40*%
%ADD27P,1.98X4X270.0*%
%ADD28C,1.22*%
%ADD29C,1.20*%
%ADD30C,0.90*%
%ADD31C,1.70*%
%ADD32C,2.90*%
%ADD33C,3.20*%
%ADD34C,2.20*%
%ADD35C,4.20*%
G36*
X003131Y000738D02*
X003131Y000738D01*
X003131Y000738D01*
X003143Y000725D01*
X003169Y000702D01*
X003198Y000682D01*
X003229Y000666D01*
X003245Y000660D01*
Y000660D01*
X003273Y000656D01*
X003329Y000646D01*
X003385Y000634D01*
X003440Y000621D01*
X003468Y000613D01*
X003642Y000439D01*
X003642Y000439D01*
X003655Y000431D01*
X003683Y000417D01*
X003713Y000405D01*
X003743Y000397D01*
X003774Y000391D01*
X003805Y000388D01*
X003837Y000389D01*
X003868Y000392D01*
X003883Y000395D01*
X003883Y000395D01*
X003914Y000396D01*
X003976Y000396D01*
X004038Y000396D01*
X004100Y000395D01*
X004116Y000395D01*
X004120Y000390D01*
X004123Y000382D01*
X004120Y000378D01*
X004115Y000372D01*
X004113Y000369D01*
X004018Y000239D01*
X003956Y000177D01*
X003849Y000145D01*
X003346Y000145D01*
Y000145D01*
X003322Y000145D01*
X003273Y000154D01*
X003228Y000173D01*
X003187Y000200D01*
X003152Y000235D01*
X003125Y000276D01*
X003106Y000322D01*
X003096Y000370D01*
X003096Y000395D01*
X003096Y000760D01*
X003108Y000765D01*
X003131Y000738D01*
D02*
G37*
G36*
X000128Y002297D02*
X000152Y002274D01*
X000177Y002251D01*
X000190Y002241D01*
X000190Y002241D01*
X000209Y002234D01*
X000247Y002222D01*
X000286Y002212D01*
X000325Y002204D01*
X000345Y002202D01*
X000345Y002202D01*
X000379Y002200D01*
X000447Y002200D01*
X000516Y002204D01*
X000583Y002212D01*
X000617Y002218D01*
X000643Y002227D01*
X000694Y002249D01*
X000744Y002273D01*
X000791Y002301D01*
X000803Y002309D01*
X000815Y002303D01*
X000812Y001863D01*
X000812Y001845D01*
X000807Y001810D01*
X000798Y001776D01*
X000785Y001744D01*
X000767Y001714D01*
X000746Y001686D01*
X000721Y001661D01*
X000693Y001640D01*
X000662Y001622D01*
X000630Y001609D01*
X000596Y001600D01*
X000561Y001595D01*
X000544Y001595D01*
X000355D01*
X000355Y001595D01*
X000355Y001595D01*
X000334Y001595D01*
X000293Y001601D01*
X000253Y001613D01*
X000215Y001630D01*
X000180Y001653D01*
X000149Y001681D01*
X000122Y001712D01*
X000099Y001748D01*
X000091Y001767D01*
X000095Y002316D01*
X000099Y002319D01*
X000108Y002320D01*
X000128Y002297D01*
D02*
G37*
G36*
X002174Y006336D02*
X002103Y006266D01*
X002066Y006192D01*
X002052Y006052D01*
X002052Y006052D01*
X002048Y006031D01*
X002032Y005990D01*
X002009Y005952D01*
X001981Y005919D01*
X001947Y005891D01*
X001909Y005870D01*
X001868Y005855D01*
X001824Y005847D01*
X001802Y005847D01*
X001220Y005848D01*
X001215Y005859D01*
X001577Y006227D01*
X001586Y006241D01*
X001608Y006266D01*
X001633Y006289D01*
X001660Y006308D01*
X001689Y006323D01*
X001720Y006335D01*
X001752Y006343D01*
X001785Y006347D01*
X001802Y006347D01*
X002170Y006347D01*
X002174Y006336D01*
D02*
G37*
G36*
X006992Y000643D02*
X007575Y000643D01*
X007580Y000631D01*
X007218Y000263D01*
X007208Y000249D01*
X007187Y000224D01*
X007162Y000202D01*
X007135Y000183D01*
X007105Y000167D01*
X007074Y000155D01*
X007042Y000147D01*
X007009Y000143D01*
X006992Y000143D01*
X006625Y000143D01*
X006620Y000155D01*
X006692Y000225D01*
X006728Y000299D01*
X006743Y000438D01*
X006743Y000438D01*
X006747Y000460D01*
X006763Y000501D01*
X006785Y000538D01*
X006814Y000571D01*
X006848Y000599D01*
X006886Y000621D01*
X006927Y000636D01*
X006970Y000643D01*
X006992Y000643D01*
D02*
G37*
G36*
X008248Y004898D02*
X008437Y004898D01*
X008437Y004898D01*
X008437Y004898D01*
X008457Y004898D01*
X008499Y004892D01*
X008539Y004880D01*
X008577Y004862D01*
X008612Y004839D01*
X008643Y004812D01*
X008670Y004780D01*
X008693Y004745D01*
X008701Y004726D01*
X008697Y004177D01*
X008692Y004174D01*
X008684Y004172D01*
X008664Y004195D01*
X008640Y004219D01*
X008615Y004241D01*
X008602Y004252D01*
X008602Y004252D01*
X008583Y004259D01*
X008545Y004271D01*
X008506Y004281D01*
X008466Y004288D01*
X008447Y004291D01*
X008447Y004291D01*
X008413Y004293D01*
X008344Y004293D01*
X008276Y004289D01*
X008209Y004281D01*
X008175Y004275D01*
X008149Y004265D01*
X008098Y004244D01*
X008048Y004219D01*
X008000Y004191D01*
X007988Y004183D01*
X007977Y004190D01*
X007980Y004630D01*
X007980Y004630D01*
X007980Y004630D01*
X007980Y004647D01*
X007985Y004682D01*
X007994Y004716D01*
X008007Y004749D01*
X008025Y004779D01*
X008046Y004807D01*
X008071Y004832D01*
X008099Y004853D01*
X008130Y004870D01*
X008162Y004884D01*
X008196Y004893D01*
X008231Y004898D01*
X008248Y004898D01*
D02*
G37*
G36*
X005520Y006335D02*
X005566Y006316D01*
X005607Y006289D01*
X005641Y006254D01*
X005669Y006213D01*
X005688Y006167D01*
X005697Y006119D01*
X005697Y006094D01*
X005697Y005729D01*
X005685Y005724D01*
X005662Y005751D01*
X005662D01*
X005662Y005751D01*
X005651Y005764D01*
X005625Y005788D01*
X005596Y005807D01*
X005565Y005823D01*
X005548Y005829D01*
X005520Y005833D01*
X005464Y005843D01*
X005408Y005855D01*
X005353Y005868D01*
X005326Y005876D01*
X005152Y006050D01*
X005152Y006050D01*
X005138Y006058D01*
X005110Y006072D01*
X005081Y006084D01*
X005051Y006092D01*
X005020Y006098D01*
X004988Y006101D01*
X004957Y006100D01*
X004926Y006097D01*
X004910Y006094D01*
X004879Y006094D01*
X004817Y006093D01*
X004755Y006093D01*
X004693Y006094D01*
X004677Y006094D01*
X004673Y006100D01*
X004671Y006107D01*
X004673Y006111D01*
X004678Y006117D01*
X004681Y006120D01*
X004775Y006250D01*
X004837Y006312D01*
X004945Y006344D01*
X005447Y006344D01*
X005447Y006344D01*
Y006344D01*
X005472Y006344D01*
X005520Y006335D01*
D02*
G37*
D12*
X006993Y000645D02*
G03*
X006743Y000395I000000J-000250D01*
G01*
X006993Y000145D02*
G03*
X007170Y000218I000000J000250D01*
G01*
X006609Y000145D02*
G03*
X006743Y000395I-000166J000250D01*
G01*
X003556Y000531D02*
G03*
X003832Y000396I000251J000164D01*
G01*
X004131Y000394D02*
G03*
X004041Y000279I000265J-000300D01*
G01*
X003556Y000531D02*
G03*
X003346Y000645I-000210J-000136D01*
G01*
X003096Y000395D02*
G03*
X003346Y000145I000250J000000D01*
G01*
X003820D02*
G03*
X004041Y000279I000000J000250D01*
G01*
X003096Y000779D02*
G03*
X003346Y000645I000250J000166D01*
G01*
X001802Y005846D02*
G03*
X002052Y006096I000000J000250D01*
G01*
X002186Y006346D02*
G03*
X002052Y006096I000166J-000250D01*
G01*
X001801Y006346D02*
G03*
X001625Y006272I000000J-000250D01*
G01*
X005697Y005710D02*
G03*
X005447Y005844I-000250J-000166D01*
G01*
X004974Y006344D02*
G03*
X004752Y006210I000000J-000250D01*
G01*
X005697Y006094D02*
G03*
X005447Y006344I-000250J000000D01*
G01*
X005238Y005958D02*
G03*
X005447Y005844I000210J000136D01*
G01*
X004662Y006095D02*
G03*
X004752Y006210I-000265J000300D01*
G01*
X005238Y005958D02*
G03*
X004962Y006093I-000251J-000164D01*
G01*
X006993Y000645D02*
X007592D01*
X007170Y000218D02*
X007597Y000646D01*
X006609Y000145D02*
X006993D01*
X003096Y000395D02*
Y000779D01*
X003346Y000145D02*
X003820D01*
X003832Y000396D02*
X004133D01*
X001801Y006346D02*
X002186D01*
X001197Y005845D02*
X001625Y006272D01*
X001203Y005846D02*
X001802D01*
X004661Y006093D02*
X004962D01*
X004974Y006344D02*
X005447D01*
X005697Y005710D02*
Y006094D01*
D15*
X000095Y001847D02*
G03*
X000345Y001597I000250J000000D01*
G01*
X000095Y002336D02*
G03*
X000345Y002202I000250J000166D01*
G01*
X000545Y001597D02*
G03*
X000795Y001847I000000J000250D01*
G01*
X000540Y002202D02*
G03*
X000795Y002344I000000J000300D01*
G01*
X008252Y004291D02*
G03*
X007997Y004149I000000J-000300D01*
G01*
X008247Y004896D02*
G03*
X007997Y004646I000000J-000250D01*
G01*
X008697Y004157D02*
G03*
X008447Y004291I-000250J-000166D01*
G01*
X008697Y004646D02*
G03*
X008447Y004896I-000250J000000D01*
G01*
X000095Y001847D02*
Y002336D01*
X000345Y002202D02*
X000540D01*
X000345Y001597D02*
X000545D01*
X000795Y001847D02*
Y002344D01*
X007997Y004149D02*
Y004646D01*
X008247Y004896D02*
X008447D01*
X008252Y004291D02*
X008447D01*
X008697Y004157D02*
Y004646D01*
D16*
X004900Y005480D02*
D03*
Y005670D02*
D03*
X003200Y003490D02*
D03*
Y003300D02*
D03*
X002540Y004260D02*
D03*
Y004450D02*
D03*
Y004787D02*
D03*
Y004597D02*
D03*
X000940Y004450D02*
D03*
Y004260D02*
D03*
Y004597D02*
D03*
Y004787D02*
D03*
X002210Y004450D02*
D03*
Y004260D02*
D03*
Y004597D02*
D03*
Y004787D02*
D03*
X005370Y005670D02*
D03*
Y005480D02*
D03*
X008030Y002087D02*
D03*
Y002277D02*
D03*
Y001940D02*
D03*
Y001750D02*
D03*
X006760Y002087D02*
D03*
Y002277D02*
D03*
Y001940D02*
D03*
Y001750D02*
D03*
X004830Y002087D02*
D03*
Y002277D02*
D03*
Y001940D02*
D03*
Y001750D02*
D03*
X003560Y002087D02*
D03*
Y002277D02*
D03*
Y001940D02*
D03*
Y001750D02*
D03*
X005410Y004597D02*
D03*
Y004787D02*
D03*
Y004450D02*
D03*
Y004260D02*
D03*
X004140Y004597D02*
D03*
Y004787D02*
D03*
Y004450D02*
D03*
Y004260D02*
D03*
X003810Y004597D02*
D03*
Y004787D02*
D03*
Y004450D02*
D03*
Y004260D02*
D03*
X005160Y001940D02*
D03*
Y001750D02*
D03*
Y002087D02*
D03*
Y002277D02*
D03*
X006430Y002087D02*
D03*
Y002277D02*
D03*
Y001940D02*
D03*
Y001750D02*
D03*
X003440Y000990D02*
D03*
Y000800D02*
D03*
D17*
X003612Y003223D02*
D03*
X003912D02*
D03*
X003612Y003017D02*
D03*
X003912D02*
D03*
X003612Y003429D02*
D03*
X003912D02*
D03*
D18*
X003725Y003635D02*
D03*
X003915D02*
D03*
X004548Y002900D02*
D03*
X004738D02*
D03*
X004210D02*
D03*
X004400D02*
D03*
X003739Y002475D02*
D03*
X003549D02*
D03*
X004106D02*
D03*
X003916D02*
D03*
X004285D02*
D03*
X004475D02*
D03*
X004653D02*
D03*
X004843D02*
D03*
X003917Y001520D02*
D03*
X004107D02*
D03*
X003739D02*
D03*
X003549D02*
D03*
X004474D02*
D03*
X004284D02*
D03*
X004653D02*
D03*
X004843D02*
D03*
X002719Y004030D02*
D03*
X002529D02*
D03*
X002719Y004985D02*
D03*
X002529D02*
D03*
X000929D02*
D03*
X001119D02*
D03*
X000929Y004030D02*
D03*
X001119D02*
D03*
X002223Y004985D02*
D03*
X002033D02*
D03*
X002223Y004030D02*
D03*
X002033D02*
D03*
X001487D02*
D03*
X001297D02*
D03*
X001296Y004985D02*
D03*
X001486D02*
D03*
X001664Y004030D02*
D03*
X001854D02*
D03*
X001855Y004985D02*
D03*
X001665D02*
D03*
X006443Y001520D02*
D03*
X006253D02*
D03*
X005423Y004030D02*
D03*
X005233D02*
D03*
X003823D02*
D03*
X003633D02*
D03*
X007675Y002475D02*
D03*
X007485D02*
D03*
X007484Y001520D02*
D03*
X007674D02*
D03*
X007116Y002475D02*
D03*
X007306D02*
D03*
X007307Y001520D02*
D03*
X007117D02*
D03*
X008043D02*
D03*
X007853D02*
D03*
X008043Y002475D02*
D03*
X007853D02*
D03*
X006749Y001520D02*
D03*
X006939D02*
D03*
X006749Y002475D02*
D03*
X006939D02*
D03*
X005423Y004985D02*
D03*
X005233D02*
D03*
X003823D02*
D03*
X003633D02*
D03*
X006443Y002475D02*
D03*
X006253D02*
D03*
X005055Y004985D02*
D03*
X004865D02*
D03*
X004864Y004030D02*
D03*
X005054D02*
D03*
X004496Y004985D02*
D03*
X004686D02*
D03*
X004687Y004030D02*
D03*
X004497D02*
D03*
X004129D02*
D03*
X004319D02*
D03*
X004129Y004985D02*
D03*
X004319D02*
D03*
X003455D02*
D03*
X003265D02*
D03*
X003264Y004030D02*
D03*
X003454D02*
D03*
X002896Y004985D02*
D03*
X003086D02*
D03*
X003087Y004030D02*
D03*
X002897D02*
D03*
X005149Y002475D02*
D03*
X005339D02*
D03*
X005516D02*
D03*
X005706D02*
D03*
X006075D02*
D03*
X005885D02*
D03*
X005884Y001520D02*
D03*
X006074D02*
D03*
X005707D02*
D03*
X005517D02*
D03*
X005149D02*
D03*
X005339D02*
D03*
D19*
X002824Y004720D02*
D03*
X003510D02*
D03*
X002824Y004620D02*
D03*
Y004520D02*
D03*
Y004420D02*
D03*
Y004320D02*
D03*
X003510Y004620D02*
D03*
Y004520D02*
D03*
Y004420D02*
D03*
X001910D02*
D03*
Y004520D02*
D03*
Y004620D02*
D03*
X001224Y004320D02*
D03*
Y004420D02*
D03*
Y004520D02*
D03*
Y004620D02*
D03*
X001910Y004720D02*
D03*
X001224D02*
D03*
X007730Y001910D02*
D03*
Y002010D02*
D03*
Y002110D02*
D03*
X007044Y001810D02*
D03*
Y001910D02*
D03*
Y002010D02*
D03*
Y002110D02*
D03*
X007730Y002210D02*
D03*
X007044D02*
D03*
X004530Y001910D02*
D03*
Y002010D02*
D03*
Y002110D02*
D03*
X003844Y001810D02*
D03*
Y001910D02*
D03*
Y002010D02*
D03*
Y002110D02*
D03*
X004530Y002210D02*
D03*
X003844D02*
D03*
X005110Y004420D02*
D03*
Y004520D02*
D03*
Y004620D02*
D03*
X004424Y004320D02*
D03*
Y004420D02*
D03*
Y004520D02*
D03*
Y004620D02*
D03*
X005110Y004720D02*
D03*
X004424D02*
D03*
X006130Y001910D02*
D03*
Y002010D02*
D03*
Y002110D02*
D03*
X005444Y001810D02*
D03*
Y001910D02*
D03*
Y002010D02*
D03*
Y002110D02*
D03*
X006130Y002210D02*
D03*
X005444D02*
D03*
D20*
X003510Y004320D02*
D03*
X001910D02*
D03*
X007730Y001810D02*
D03*
X004530Y001810D02*
D03*
X005110Y004320D02*
D03*
X006130Y001810D02*
D03*
D21*
X007457Y003326D02*
D03*
X008447D02*
D03*
X005450Y003072D02*
D03*
D22*
X008206D02*
D03*
Y003580D02*
D03*
D23*
X005450D02*
D03*
D24*
X000347Y003747D02*
D03*
Y003947D02*
D03*
X000547Y003547D02*
D03*
X000347D02*
D03*
X000547Y003747D02*
D03*
Y003947D02*
D03*
Y004147D02*
D03*
X000347D02*
D03*
X000547Y004347D02*
D03*
Y003347D02*
D03*
X000347Y003147D02*
D03*
X000547D02*
D03*
X000347Y003347D02*
D03*
X000547Y002947D02*
D03*
X000347Y002747D02*
D03*
X000547D02*
D03*
X000347Y002947D02*
D03*
X000547Y002547D02*
D03*
X000347D02*
D03*
D25*
Y004347D02*
D03*
D26*
X004825Y003375D02*
D03*
X004952Y003502D02*
D03*
D27*
X005079Y003375D02*
D03*
D28*
X003225Y000990D02*
D03*
Y000800D02*
D03*
X005580Y005479D02*
D03*
Y005670D02*
D03*
D29*
X003010Y005210D02*
D03*
X005164D02*
D03*
X004637D02*
D03*
X003564D02*
D03*
X001437D02*
D03*
X001964D02*
D03*
X004581Y002700D02*
D03*
X004053D02*
D03*
X005657D02*
D03*
X006184D02*
D03*
X007257D02*
D03*
X007784D02*
D03*
D30*
X004282Y002746D02*
D03*
X007390Y002760D02*
D03*
X002874Y004165D02*
D03*
X002719Y003830D02*
D03*
X000375Y002300D02*
D03*
X004900Y005825D02*
D03*
X004850Y002900D02*
D03*
X005136Y005478D02*
D03*
X004865Y005213D02*
D03*
X003050Y003490D02*
D03*
X003375Y003300D02*
D03*
Y003475D02*
D03*
X004275Y005675D02*
D03*
X003610Y000800D02*
D03*
X007109Y002690D02*
D03*
X006620Y001990D02*
D03*
X006920Y002760D02*
D03*
X007853Y001320D02*
D03*
X008100Y002720D02*
D03*
X006939Y001320D02*
D03*
X006749Y002720D02*
D03*
X007219Y001320D02*
D03*
X007094Y001655D02*
D03*
X007600Y001320D02*
D03*
X005509Y002690D02*
D03*
X005020Y001990D02*
D03*
X005885Y002760D02*
D03*
X005320D02*
D03*
X006253Y001320D02*
D03*
X006500Y002720D02*
D03*
X005339Y001320D02*
D03*
X005149Y002720D02*
D03*
X005619Y001320D02*
D03*
X005494Y001655D02*
D03*
X006000Y001320D02*
D03*
X001289Y005200D02*
D03*
X000800Y004500D02*
D03*
X001665Y005270D02*
D03*
X001100D02*
D03*
X002033Y003830D02*
D03*
X002280Y005230D02*
D03*
X001119Y003830D02*
D03*
X000929Y005230D02*
D03*
X001399Y003830D02*
D03*
X001274Y004165D02*
D03*
X001780Y003830D02*
D03*
X004489Y005200D02*
D03*
X004000Y004500D02*
D03*
X004300Y005270D02*
D03*
X005233Y003830D02*
D03*
X005480Y005230D02*
D03*
X004319Y003830D02*
D03*
X004129Y005230D02*
D03*
X004599Y003830D02*
D03*
X004474Y004165D02*
D03*
X004980Y003830D02*
D03*
X002400Y004500D02*
D03*
X003265Y005220D02*
D03*
X002700D02*
D03*
X003633Y003830D02*
D03*
X003880Y005230D02*
D03*
X002529D02*
D03*
X002999Y003830D02*
D03*
X003380D02*
D03*
X004653Y001320D02*
D03*
X003739D02*
D03*
X003720Y002760D02*
D03*
X003909Y002690D02*
D03*
X003549Y002720D02*
D03*
X004900D02*
D03*
X004400Y001320D02*
D03*
X004019D02*
D03*
X003420Y001990D02*
D03*
X003894Y001655D02*
D03*
D31*
X006300Y003400D02*
D03*
Y003050D02*
D03*
D32*
X007597Y003000D02*
D03*
D33*
X007097Y003400D02*
D03*
D34*
X004000Y005425D02*
D03*
Y005900D02*
D03*
X004800Y000650D02*
D03*
Y001155D02*
D03*
X005630Y001120D02*
D03*
X005950D02*
D03*
X003165Y005400D02*
D03*
X002865D02*
D03*
X005665Y000680D02*
D03*
X006415Y000380D02*
D03*
X005165D02*
D03*
X005665D02*
D03*
X005415D02*
D03*
X005915D02*
D03*
X006165D02*
D03*
X005165Y000680D02*
D03*
X005415D02*
D03*
X005915D02*
D03*
X006165D02*
D03*
X006415D02*
D03*
X003640Y006080D02*
D03*
X003390D02*
D03*
X003140D02*
D03*
X002640D02*
D03*
X002390D02*
D03*
X003390Y005780D02*
D03*
X003140D02*
D03*
X002640D02*
D03*
X002890D02*
D03*
X002390D02*
D03*
X003640D02*
D03*
X002890Y006080D02*
D03*
D35*
X000397Y001845D02*
D03*
X003347Y000395D02*
D03*
X001800Y006095D02*
D03*
X008397Y004645D02*
D03*
X006993Y000395D02*
D03*
X005447Y006095D02*
D03*
X004397Y003245D02*
D03*
M02*
