M48
;Layer_Color=9474304
;FILE_FORMAT=4:2
METRIC
;TYPE=PLATED
T01F00S00C0.50
T02F00S00C0.51
T03F00S00C0.80
T04F00S00C0.86
T05F00S00C0.95
T06F00S00C1.00
T07F00S00C2.60
;TYPE=NON_PLATED
%
T01
X001000Y002500
X001450Y002670
X001930
X002500Y002500
X002935Y002570
Y002684
X002930Y002810
X003200Y002723
X003500Y002860
X003701
X003645Y003610
X003450
X003946Y003747
X002400Y003800
Y003925
X002290Y003747
X002390Y003400
X001977Y003610
X001780
X001110Y003630
X001090Y003150
X000810Y003270
X001443Y002094
X002070Y001960
X003245Y001880
X003410
X003500Y001790
X003200Y001586
X003185Y001297
Y000940
X003500Y000800
X003700
X003890
X003200Y002190
X004258Y002410
X004510
X004760Y002540
X004870Y002670
X004751Y002773
X004860Y003080
X005173Y002860
X005370
X005560
X005930Y002410
X006170
X006413Y002540
Y002723
X006540
X006940
X007260Y002398
X007600Y002410
X007844
X007890Y001612
X007523Y001415
X007522Y000983
X007724
X007488Y000800
X007229
X007040
X006840
X006540Y001115
Y001300
Y001480
X006220Y001612
X005853Y001415
X005852Y000983
X006054
X005570Y000800
X005170
X005270Y001030
X004870Y001115
Y001300
Y001480
Y001890
X005080Y001880
X005170Y001790
X004870Y002180
X004550Y001612
X004183Y001415
X004182Y000983
X004384
X004750Y001000
X005000Y000500
X006750Y001880
X006840Y001790
X006540Y002190
X005620Y003747
X005390Y003600
X005212Y003630
X004077Y003809
Y003925
X004090Y003420
X008147Y002723
X008250Y002000
X005620Y004103
Y004280
X005410Y004590
X005320Y004680
X005620Y004817
Y004990
Y005170
X005321Y005680
X005120
X004930
X005030Y005810
X004638Y005493
X004436
X004000Y005500
X004270Y004864
X004637Y005061
X004560Y004060
X004340
X003946Y004280
Y004660
X003740Y004590
X003650Y004680
X003946Y004990
Y005170
X003744Y005686
X003605
X003240
X003250Y006000
X003750
X002968Y005493
X002766
X002290Y005440
Y005170
Y004990
Y004660
X002070Y004590
X001980Y004680
X002290Y004280
X002640Y004060
X002890
X002967Y005061
X002600Y004864
X001980Y005710
X001780
X001590
X001410
X001298Y005493
X001096
X001297Y005061
X000930Y004864
X000970Y004060
X001220
T02
X001115Y001733
X001306
X001574
X001765
T03
X006158Y000340
Y000560
Y000780
X006458
Y000560
Y000340
X002635Y005711
Y005931
Y006151
X002335
Y005931
Y005711
T04
X000347Y002347
Y002547
X000547
Y002347
Y002747
Y002947
X000347
Y002747
Y003147
Y003347
Y003547
Y003747
Y003947
X000547
Y003747
Y003547
Y003347
Y003147
Y004147
X000347
Y004347
Y004547
X000547
Y004347
Y004747
X000347
T05
X005230Y003236
Y003490
X005520
Y003236
T06
X003980Y000450
X004070Y000750
X005370Y000710
Y000410
X005771Y000560
X004721Y005712
X004811Y006032
X003424Y006081
Y005781
X003023Y005931
T07
X000395Y001845
X003345Y000395
X006991
X004395Y003245
X008395Y002545
X005445Y006095
X001799
M30
