G04*
G04 #@! TF.GenerationSoftware,Altium Limited,Altium Designer,23.9.2 (47)*
G04*
G04 Layer_Physical_Order=6*
G04 Layer_Color=16711680*
%FSAX42Y42*%
%MOMM*%
G71*
G04*
G04 #@! TF.SameCoordinates,0275EF52-C3CF-4463-BECB-0B3C2057F634*
G04*
G04*
G04 #@! TF.FilePolarity,Positive*
G04*
G01*
G75*
%ADD10C,0.25*%
%ADD14C,0.20*%
%ADD15C,0.50*%
%ADD37R,0.80X1.30*%
%ADD38R,1.80X0.70*%
%ADD39O,1.80X0.70*%
%ADD40R,0.60X1.20*%
%ADD41O,0.64X1.20*%
%ADD47C,0.30*%
G04:AMPARAMS|DCode=48|XSize=5mm|YSize=3mm|CornerRadius=0.08mm|HoleSize=0mm|Usage=FLASHONLY|Rotation=0.000|XOffset=0mm|YOffset=0mm|HoleType=Round|Shape=RoundedRectangle|*
%AMROUNDEDRECTD48*
21,1,5.00,2.85,0,0,0.0*
21,1,4.85,3.00,0,0,0.0*
1,1,0.15,2.42,-1.43*
1,1,0.15,-2.42,-1.43*
1,1,0.15,-2.42,1.43*
1,1,0.15,2.42,1.43*
%
%ADD48ROUNDEDRECTD48*%
%ADD49C,2.00*%
%ADD50C,1.37*%
%ADD51R,1.37X1.37*%
%ADD52C,1.02*%
G04:AMPARAMS|DCode=53|XSize=2.8mm|YSize=2.8mm|CornerRadius=0.7mm|HoleSize=0mm|Usage=FLASHONLY|Rotation=180.000|XOffset=0mm|YOffset=0mm|HoleType=Round|Shape=RoundedRectangle|*
%AMROUNDEDRECTD53*
21,1,2.80,1.40,0,0,180.0*
21,1,1.40,2.80,0,0,180.0*
1,1,1.40,-0.70,0.70*
1,1,1.40,0.70,0.70*
1,1,1.40,0.70,-0.70*
1,1,1.40,-0.70,-0.70*
%
%ADD53ROUNDEDRECTD53*%
%ADD54O,2.00X1.60*%
%ADD55R,1.60X1.40*%
%ADD56O,1.60X1.40*%
%ADD57C,0.80*%
%ADD58C,4.00*%
%ADD72R,0.90X0.70*%
G04:AMPARAMS|DCode=73|XSize=0.7mm|YSize=0.9mm|CornerRadius=0.18mm|HoleSize=0mm|Usage=FLASHONLY|Rotation=90.000|XOffset=0mm|YOffset=0mm|HoleType=Round|Shape=RoundedRectangle|*
%AMROUNDEDRECTD73*
21,1,0.70,0.55,0,0,90.0*
21,1,0.35,0.90,0,0,90.0*
1,1,0.35,0.28,0.18*
1,1,0.35,0.28,-0.18*
1,1,0.35,-0.28,-0.18*
1,1,0.35,-0.28,0.18*
%
%ADD73ROUNDEDRECTD73*%
G04:AMPARAMS|DCode=74|XSize=0.9mm|YSize=0.95mm|CornerRadius=0.23mm|HoleSize=0mm|Usage=FLASHONLY|Rotation=180.000|XOffset=0mm|YOffset=0mm|HoleType=Round|Shape=RoundedRectangle|*
%AMROUNDEDRECTD74*
21,1,0.90,0.50,0,0,180.0*
21,1,0.45,0.95,0,0,180.0*
1,1,0.45,-0.23,0.25*
1,1,0.45,0.23,0.25*
1,1,0.45,0.23,-0.25*
1,1,0.45,-0.23,-0.25*
%
%ADD74ROUNDEDRECTD74*%
%ADD75R,0.90X0.95*%
%ADD76R,0.90X0.95*%
%ADD77C,0.40*%
G36*
X004137Y005846D02*
Y005268D01*
X004117D01*
Y005098D01*
X004224D01*
Y005043D01*
X004220Y005040D01*
X004204Y005034D01*
X004190Y005043D01*
X004169Y005047D01*
X004059D01*
X004037Y005043D01*
X004019Y005030D01*
X004017Y005028D01*
X003993Y005028D01*
X003990Y005033D01*
X003970Y005047D01*
X003946Y005051D01*
X003923Y005047D01*
X003920Y005045D01*
X003900Y005055D01*
Y005080D01*
X003786D01*
Y005215D01*
X003881D01*
X003891Y005195D01*
X003890Y005193D01*
X003885Y005170D01*
X003890Y005147D01*
X003903Y005127D01*
X003923Y005113D01*
X003946Y005109D01*
X003970Y005113D01*
X003990Y005127D01*
X004003Y005147D01*
X004008Y005170D01*
X004003Y005193D01*
X003996Y005204D01*
Y005230D01*
X003993Y005244D01*
X003985Y005255D01*
X003945Y005296D01*
X003933Y005303D01*
X003920Y005306D01*
X003906D01*
Y005325D01*
X003874D01*
X003872Y005345D01*
X003883Y005348D01*
X003895Y005356D01*
X003903Y005368D01*
X003906Y005380D01*
X003841D01*
X003775D01*
X003778Y005368D01*
X003786Y005356D01*
X003798Y005348D01*
X003809Y005345D01*
X003807Y005325D01*
X003776D01*
Y005299D01*
X003756Y005291D01*
X003716Y005331D01*
Y005390D01*
X003686D01*
Y005578D01*
X003735Y005626D01*
X003744Y005625D01*
X003767Y005629D01*
X003787Y005642D01*
X003800Y005662D01*
X003805Y005686D01*
X003800Y005709D01*
X003787Y005729D01*
X003767Y005742D01*
X003744Y005747D01*
X003720Y005742D01*
X003700Y005729D01*
X003687Y005709D01*
X003685Y005697D01*
X003664D01*
X003662Y005709D01*
X003649Y005729D01*
X003629Y005742D01*
X003605Y005747D01*
X003582Y005742D01*
X003562Y005729D01*
X003549Y005709D01*
X003544Y005686D01*
X003546Y005677D01*
X003484Y005615D01*
X003390D01*
Y005445D01*
X003390D01*
Y005437D01*
X003390D01*
Y005267D01*
X003390D01*
X003390Y005258D01*
X003390D01*
X003390Y005247D01*
Y005103D01*
X003320D01*
Y005247D01*
X003320Y005267D01*
X003320Y005278D01*
Y005332D01*
X003200D01*
Y005278D01*
X003200Y005258D01*
X003200Y005247D01*
Y005209D01*
X003123D01*
Y005264D01*
X003123D01*
Y005274D01*
X003123D01*
Y005444D01*
X003031D01*
X003021Y005464D01*
X003024Y005469D01*
X003029Y005493D01*
X003024Y005516D01*
X003011Y005536D01*
X002991Y005549D01*
X002968Y005554D01*
X002944Y005549D01*
X002930Y005540D01*
X002804D01*
X002789Y005549D01*
X002766Y005554D01*
X002751Y005551D01*
X002741Y005569D01*
X002839Y005667D01*
X002839Y005667D01*
X002848Y005681D01*
X002851Y005696D01*
Y005819D01*
X002871Y005823D01*
X002874Y005816D01*
X002888Y005797D01*
X002907Y005783D01*
X002929Y005774D01*
X002953Y005770D01*
X003003D01*
Y005911D01*
X002862D01*
Y005901D01*
X002842Y005895D01*
X002839Y005900D01*
X002839Y005900D01*
X002799Y005939D01*
X002786Y005948D01*
X002771Y005951D01*
X002753Y005957D01*
X002753Y005957D01*
X002743Y005982D01*
X002727Y006003D01*
X002706Y006019D01*
X002682Y006029D01*
X002663Y006031D01*
Y006051D01*
X002682Y006054D01*
X002706Y006064D01*
X002727Y006080D01*
X002743Y006101D01*
X002747Y006110D01*
X002811D01*
X002811Y006110D01*
X002827Y006114D01*
X002840Y006122D01*
X002927Y006209D01*
X003367D01*
X003371Y006189D01*
X003363Y006186D01*
X003338Y006167D01*
X003319Y006142D01*
X003307Y006113D01*
X003305Y006101D01*
X003424D01*
X003542D01*
X003541Y006113D01*
X003528Y006142D01*
X003509Y006167D01*
X003484Y006186D01*
X003476Y006189D01*
X003480Y006209D01*
X003773D01*
X004137Y005846D01*
D02*
G37*
G36*
X005437Y006352D02*
X005480Y006351D01*
X005503Y006345D01*
X005529Y006340D01*
X005533Y006339D01*
X005566Y006331D01*
X005655Y006265D01*
X005711Y006168D01*
X005719Y006018D01*
X005717Y005255D01*
X005718Y003094D01*
X005742Y002985D01*
X005793Y002918D01*
X005873Y002864D01*
X005867Y002844D01*
X005793D01*
X005681Y002956D01*
X005670Y002963D01*
X005658Y002966D01*
X005293D01*
X005280Y002983D01*
Y003118D01*
X005266D01*
Y003146D01*
X005330D01*
Y003192D01*
X005420D01*
Y003146D01*
X005620D01*
Y003326D01*
X005420D01*
Y003284D01*
X005330D01*
Y003326D01*
X005130D01*
Y003284D01*
X005076D01*
X005068Y003296D01*
X005054Y003305D01*
X005038Y003308D01*
X004992D01*
X004976Y003305D01*
X004962Y003296D01*
X004954Y003284D01*
X004890D01*
Y003308D01*
X004760D01*
Y003173D01*
X004890D01*
Y003192D01*
X004957D01*
X004962Y003184D01*
X004976Y003175D01*
X004992Y003172D01*
X005038D01*
X005054Y003175D01*
X005068Y003184D01*
X005073Y003192D01*
X005130D01*
Y003146D01*
X005174D01*
Y003118D01*
X005160D01*
Y002963D01*
X005090D01*
Y003118D01*
X004970D01*
Y003079D01*
X004931D01*
X004919Y003091D01*
X004917Y003103D01*
X004903Y003123D01*
X004883Y003137D01*
X004860Y003141D01*
X004837Y003137D01*
X004817Y003123D01*
X004803Y003103D01*
X004799Y003080D01*
X004803Y003057D01*
X004811Y003046D01*
X004796Y003031D01*
X004794Y003033D01*
X004780Y003036D01*
X004513D01*
X004508Y003056D01*
X004518Y003061D01*
X004551Y003089D01*
X004579Y003122D01*
X004599Y003160D01*
X004612Y003202D01*
X004616Y003245D01*
X004612Y003288D01*
X004599Y003330D01*
X004579Y003368D01*
X004551Y003401D01*
X004518Y003429D01*
X004480Y003449D01*
X004438Y003462D01*
X004415Y003464D01*
X004416Y003484D01*
X004641D01*
X004668Y003458D01*
X004682Y003448D01*
X004700Y003444D01*
X004855D01*
Y003422D01*
X004985D01*
Y003444D01*
X005142D01*
X005156Y003426D01*
X005175Y003411D01*
X005197Y003402D01*
X005220Y003399D01*
X005240D01*
X005263Y003402D01*
X005285Y003411D01*
X005304Y003426D01*
X005318Y003444D01*
X005432D01*
X005446Y003426D01*
X005465Y003411D01*
X005487Y003402D01*
X005510Y003399D01*
X005530D01*
X005553Y003402D01*
X005575Y003411D01*
X005594Y003426D01*
X005609Y003445D01*
X005618Y003467D01*
X005621Y003490D01*
X005618Y003513D01*
X005609Y003535D01*
X005594Y003554D01*
X005575Y003569D01*
X005553Y003578D01*
X005530Y003581D01*
X005510D01*
X005487Y003578D01*
X005465Y003569D01*
X005464Y003568D01*
X005458Y003571D01*
X005447Y003581D01*
X005451Y003600D01*
X005447Y003623D01*
X005433Y003643D01*
X005426Y003648D01*
Y003719D01*
X005445Y003720D01*
X005446Y003720D01*
X005527D01*
X005530Y003719D01*
X005566D01*
X005577Y003704D01*
X005597Y003690D01*
X005620Y003686D01*
X005643Y003690D01*
X005663Y003704D01*
X005677Y003723D01*
X005681Y003747D01*
X005677Y003770D01*
X005663Y003790D01*
X005643Y003803D01*
X005620Y003808D01*
X005597Y003803D01*
X005595Y003802D01*
X005575Y003813D01*
Y003830D01*
X005543D01*
X005541Y003850D01*
X005552Y003852D01*
X005565Y003860D01*
X005573Y003873D01*
X005575Y003885D01*
X005510D01*
X005445D01*
X005447Y003873D01*
X005456Y003860D01*
X005468Y003852D01*
X005479Y003850D01*
X005477Y003830D01*
X005445D01*
Y003774D01*
X005425Y003772D01*
X005423Y003784D01*
X005415Y003795D01*
X005385Y003825D01*
Y003895D01*
X005359D01*
X005350Y003915D01*
X005430Y003994D01*
X005437Y004006D01*
X005440Y004020D01*
Y004410D01*
X005535Y004505D01*
X005543Y004516D01*
X005546Y004530D01*
Y004620D01*
X005543Y004634D01*
X005535Y004645D01*
X005469Y004712D01*
X005477Y004732D01*
X005491D01*
Y004817D01*
X005531D01*
Y004732D01*
X005571D01*
Y004753D01*
X005591Y004764D01*
X005597Y004760D01*
X005600Y004759D01*
Y004817D01*
Y004874D01*
X005597Y004873D01*
X005591Y004869D01*
X005571Y004880D01*
X005571Y004902D01*
X005570Y004921D01*
Y004927D01*
X005590Y004938D01*
X005597Y004933D01*
X005620Y004929D01*
X005643Y004933D01*
X005663Y004947D01*
X005677Y004967D01*
X005681Y004990D01*
X005677Y005013D01*
X005663Y005033D01*
X005643Y005047D01*
X005620Y005051D01*
X005597Y005047D01*
X005590Y005042D01*
X005570Y005053D01*
Y005080D01*
X005450Y005080D01*
X005449Y005099D01*
Y005215D01*
X005476D01*
Y005208D01*
X005479Y005194D01*
X005487Y005183D01*
X005525Y005145D01*
X005536Y005137D01*
X005550Y005134D01*
X005572D01*
X005577Y005127D01*
X005597Y005113D01*
X005620Y005109D01*
X005643Y005113D01*
X005663Y005127D01*
X005677Y005147D01*
X005681Y005170D01*
X005677Y005193D01*
X005663Y005213D01*
X005643Y005227D01*
X005620Y005231D01*
X005597Y005227D01*
X005596Y005226D01*
X005576Y005237D01*
Y005325D01*
X005544D01*
X005542Y005345D01*
X005553Y005348D01*
X005565Y005356D01*
X005573Y005368D01*
X005576Y005380D01*
X005511D01*
Y005400D01*
D01*
Y005380D01*
X005445D01*
X005448Y005368D01*
X005456Y005356D01*
X005468Y005348D01*
X005479Y005345D01*
X005477Y005325D01*
X005446D01*
Y005299D01*
X005426Y005291D01*
X005386Y005331D01*
Y005390D01*
X005356D01*
Y005632D01*
X005364Y005637D01*
X005377Y005657D01*
X005382Y005680D01*
X005377Y005703D01*
X005364Y005723D01*
X005344Y005737D01*
X005321Y005741D01*
X005297Y005737D01*
X005277Y005723D01*
X005264Y005703D01*
X005259Y005680D01*
X005264Y005657D01*
X005277Y005637D01*
X005285Y005632D01*
Y005390D01*
X005256D01*
Y005280D01*
X005335D01*
X005378Y005238D01*
Y005080D01*
X005311D01*
X005296Y005095D01*
X005284Y005103D01*
X005270Y005106D01*
X005180D01*
Y005258D01*
X005180D01*
X005180Y005267D01*
X005180D01*
X005180Y005278D01*
Y005437D01*
X005180D01*
Y005445D01*
X005180D01*
Y005615D01*
X005167D01*
X005161Y005635D01*
X005164Y005637D01*
X005177Y005657D01*
X005182Y005680D01*
X005177Y005703D01*
X005164Y005723D01*
X005144Y005737D01*
X005120Y005741D01*
X005097Y005737D01*
X005077Y005723D01*
X005064Y005703D01*
X005059Y005680D01*
X005064Y005657D01*
X005077Y005637D01*
X005080Y005635D01*
X005075Y005615D01*
X005060D01*
Y005445D01*
X005060D01*
Y005437D01*
X005060D01*
Y005267D01*
X005060D01*
X005060Y005258D01*
X005060D01*
X005060Y005247D01*
Y005106D01*
X004990D01*
Y005247D01*
X004990Y005267D01*
X004990Y005278D01*
Y005332D01*
X004870D01*
Y005278D01*
X004870Y005258D01*
X004870Y005247D01*
Y005209D01*
X004793D01*
Y005264D01*
X004793D01*
Y005274D01*
X004793D01*
Y005444D01*
X004701D01*
X004691Y005464D01*
X004694Y005469D01*
X004699Y005493D01*
X004694Y005516D01*
X004681Y005536D01*
X004661Y005549D01*
X004638Y005554D01*
X004614Y005549D01*
X004600Y005540D01*
X004474D01*
X004459Y005549D01*
X004436Y005554D01*
X004413Y005549D01*
X004393Y005536D01*
X004380Y005516D01*
X004375Y005493D01*
X004380Y005469D01*
X004390Y005454D01*
Y005348D01*
X004270D01*
X004252Y005344D01*
X004238Y005335D01*
X004232Y005337D01*
X004218Y005342D01*
Y005863D01*
X004218Y005863D01*
X004215Y005878D01*
X004206Y005891D01*
X003819Y006279D01*
X003806Y006288D01*
X003790Y006291D01*
X003790Y006291D01*
X002910D01*
X002910Y006291D01*
X002894Y006288D01*
X002881Y006279D01*
X002794Y006192D01*
X002747D01*
X002743Y006202D01*
X002727Y006223D01*
X002706Y006239D01*
X002682Y006249D01*
X002655Y006252D01*
X002615D01*
X002589Y006249D01*
X002565Y006239D01*
X002544Y006223D01*
X002528Y006202D01*
X002524Y006192D01*
X002447D01*
X002443Y006202D01*
X002427Y006223D01*
X002406Y006239D01*
X002382Y006249D01*
X002355Y006252D01*
X002315D01*
X002289Y006249D01*
X002265Y006239D01*
X002244Y006223D01*
X002228Y006202D01*
X002218Y006177D01*
X002215Y006151D01*
X002218Y006125D01*
X002228Y006101D01*
X002244Y006080D01*
X002265Y006064D01*
X002289Y006054D01*
X002308Y006051D01*
Y006031D01*
X002289Y006029D01*
X002265Y006019D01*
X002244Y006003D01*
X002228Y005982D01*
X002218Y005957D01*
X002215Y005931D01*
X002218Y005905D01*
X002228Y005881D01*
X002214Y005867D01*
X002212Y005868D01*
X002197Y005871D01*
X002197Y005871D01*
X001886D01*
X001883Y005891D01*
X001921Y005911D01*
X001955Y005939D01*
X001982Y005972D01*
X002003Y006010D01*
X002015Y006052D01*
X002020Y006095D01*
X002015Y006138D01*
X002003Y006180D01*
X001982Y006218D01*
X001955Y006251D01*
X001921Y006279D01*
X001883Y006299D01*
X001842Y006312D01*
X001799Y006316D01*
X001755Y006312D01*
X001714Y006299D01*
X001676Y006279D01*
X001642Y006251D01*
X001615Y006218D01*
X001594Y006180D01*
X001582Y006138D01*
X001577Y006095D01*
X001582Y006052D01*
X001594Y006010D01*
X001615Y005972D01*
X001642Y005939D01*
X001676Y005911D01*
X001714Y005891D01*
X001711Y005871D01*
X001319D01*
X001303Y005868D01*
X001290Y005859D01*
X001290Y005859D01*
X000809Y005377D01*
X000800Y005364D01*
X000797Y005348D01*
X000797Y005348D01*
Y005268D01*
X000777D01*
Y005098D01*
X000884D01*
Y005043D01*
X000880Y005040D01*
X000864Y005034D01*
X000850Y005043D01*
X000829Y005047D01*
X000719D01*
X000697Y005043D01*
X000679Y005030D01*
X000667Y005012D01*
X000663Y004991D01*
X000667Y004969D01*
X000679Y004951D01*
X000697Y004939D01*
X000705Y004937D01*
Y004917D01*
X000697Y004916D01*
X000679Y004903D01*
X000667Y004885D01*
X000663Y004864D01*
X000667Y004842D01*
X000679Y004824D01*
X000697Y004812D01*
X000705Y004810D01*
Y004790D01*
X000697Y004789D01*
X000679Y004776D01*
X000667Y004758D01*
X000663Y004737D01*
X000667Y004715D01*
X000679Y004697D01*
X000697Y004685D01*
X000705Y004683D01*
Y004663D01*
X000697Y004662D01*
X000679Y004649D01*
X000667Y004631D01*
X000663Y004610D01*
X000667Y004588D01*
X000679Y004570D01*
X000697Y004558D01*
X000705Y004556D01*
Y004536D01*
X000697Y004535D01*
X000679Y004522D01*
X000667Y004504D01*
X000663Y004483D01*
X000667Y004461D01*
X000679Y004443D01*
X000697Y004431D01*
X000705Y004429D01*
Y004409D01*
X000697Y004408D01*
X000679Y004395D01*
X000667Y004377D01*
X000663Y004356D01*
X000667Y004334D01*
X000679Y004316D01*
X000697Y004304D01*
X000705Y004302D01*
Y004282D01*
X000697Y004281D01*
X000679Y004268D01*
X000667Y004250D01*
X000663Y004229D01*
X000667Y004207D01*
X000679Y004189D01*
X000697Y004177D01*
X000705Y004175D01*
Y004155D01*
X000697Y004154D01*
X000679Y004141D01*
X000667Y004123D01*
X000663Y004102D01*
X000667Y004080D01*
X000679Y004062D01*
X000697Y004050D01*
X000719Y004046D01*
X000829D01*
X000850Y004050D01*
X000869Y004062D01*
X000881Y004080D01*
X000885Y004102D01*
X000881Y004123D01*
X000869Y004141D01*
X000850Y004154D01*
X000843Y004155D01*
Y004175D01*
X000850Y004177D01*
X000869Y004189D01*
X000881Y004207D01*
X000885Y004229D01*
X000881Y004250D01*
X000869Y004268D01*
X000850Y004281D01*
X000843Y004282D01*
Y004302D01*
X000850Y004304D01*
X000869Y004316D01*
X000881Y004334D01*
X000885Y004356D01*
X000881Y004377D01*
X000869Y004395D01*
X000850Y004408D01*
X000843Y004409D01*
Y004429D01*
X000850Y004431D01*
X000869Y004443D01*
X000881Y004461D01*
X000885Y004483D01*
X000881Y004504D01*
X000869Y004522D01*
X000850Y004535D01*
X000843Y004536D01*
Y004556D01*
X000850Y004558D01*
X000869Y004570D01*
X000881Y004588D01*
X000885Y004610D01*
X000881Y004631D01*
X000869Y004649D01*
X000850Y004662D01*
X000843Y004663D01*
Y004683D01*
X000850Y004685D01*
X000869Y004697D01*
X000881Y004715D01*
X000885Y004737D01*
X000881Y004758D01*
X000869Y004776D01*
X000850Y004789D01*
X000843Y004790D01*
Y004810D01*
X000850Y004812D01*
X000869Y004824D01*
X000889Y004819D01*
X000906Y004807D01*
X000930Y004803D01*
X000939Y004804D01*
X000959Y004789D01*
Y004274D01*
X000959Y004272D01*
Y004254D01*
X000977D01*
X000979Y004254D01*
X001048D01*
Y004215D01*
X001098D01*
X001148D01*
Y004237D01*
X001155Y004240D01*
X001172Y004224D01*
Y004167D01*
X001176Y004147D01*
X001187Y004130D01*
X001184Y004108D01*
X001177Y004103D01*
X001163Y004083D01*
X001159Y004060D01*
X001163Y004037D01*
X001177Y004017D01*
X001197Y004003D01*
X001220Y003999D01*
X001229Y004001D01*
X001357Y003872D01*
Y003832D01*
X001333D01*
Y003662D01*
X001453D01*
Y003711D01*
X001530D01*
Y003662D01*
X001650D01*
Y003832D01*
X001530D01*
Y003782D01*
X001453D01*
Y003832D01*
X001428D01*
Y003887D01*
X001426Y003901D01*
X001418Y003913D01*
X001279Y004051D01*
X001281Y004060D01*
X001277Y004083D01*
X001263Y004103D01*
X001261Y004105D01*
X001261Y004129D01*
X001262Y004130D01*
X001273Y004147D01*
X001277Y004167D01*
Y004224D01*
X001288Y004233D01*
X001290Y004231D01*
X001299Y004218D01*
Y004167D01*
X001303Y004147D01*
X001314Y004130D01*
X001331Y004118D01*
X001352Y004114D01*
X001372Y004118D01*
X001389Y004130D01*
X001400Y004147D01*
X001404Y004167D01*
Y004224D01*
X001415Y004233D01*
X001417Y004231D01*
X001426Y004218D01*
Y004167D01*
X001430Y004147D01*
X001441Y004130D01*
X001443Y004129D01*
Y004071D01*
X001446Y004058D01*
X001453Y004046D01*
X001535Y003965D01*
X001546Y003957D01*
X001560Y003954D01*
X001920D01*
X001934Y003957D01*
X001945Y003965D01*
X002014Y004034D01*
X002018Y004034D01*
X002034Y004027D01*
Y003895D01*
X001915D01*
Y003785D01*
X001941D01*
Y003658D01*
X001934Y003653D01*
X001920Y003633D01*
X001916Y003610D01*
X001920Y003587D01*
X001934Y003567D01*
X001935Y003566D01*
X001929Y003546D01*
X001828D01*
X001822Y003566D01*
X001823Y003567D01*
X001837Y003587D01*
X001841Y003610D01*
X001837Y003633D01*
X001831Y003642D01*
X001840Y003662D01*
X001840D01*
Y003832D01*
X001720D01*
Y003662D01*
X001720Y003662D01*
X001729Y003642D01*
X001723Y003633D01*
X001719Y003610D01*
X001723Y003587D01*
X001737Y003567D01*
X001738Y003566D01*
X001732Y003546D01*
X000925D01*
X000827Y003643D01*
X000835Y003662D01*
X000855D01*
X000907Y003610D01*
X000907Y003610D01*
X000907Y003610D01*
X000908Y003608D01*
X000918Y003602D01*
X000930Y003599D01*
X000930Y003599D01*
X001058D01*
X001067Y003587D01*
X001087Y003573D01*
X001110Y003569D01*
X001133Y003573D01*
X001153Y003587D01*
X001167Y003607D01*
X001171Y003630D01*
X001169Y003642D01*
X001183Y003661D01*
Y003727D01*
X001143D01*
Y003703D01*
X001123Y003689D01*
X001110Y003691D01*
X001103Y003690D01*
X001088Y003703D01*
Y003832D01*
X001088D01*
X001088Y003840D01*
X001088D01*
X001088Y003852D01*
Y004010D01*
X001048D01*
Y004017D01*
X001045Y004031D01*
X001037Y004043D01*
X001029Y004051D01*
X001031Y004060D01*
X001027Y004083D01*
X001013Y004103D01*
X000993Y004117D01*
X000970Y004121D01*
X000947Y004117D01*
X000927Y004103D01*
X000913Y004083D01*
X000909Y004060D01*
X000913Y004037D01*
X000927Y004017D01*
X000947Y004003D01*
X000968Y003999D01*
Y003840D01*
X000968D01*
X000968Y003832D01*
X000968D01*
X000968Y003820D01*
Y003662D01*
X000948Y003661D01*
X000942D01*
X000898Y003705D01*
Y003820D01*
X000898Y003840D01*
X000898Y003852D01*
Y003905D01*
X000838D01*
X000778D01*
Y003870D01*
X000758Y003862D01*
X000660Y003960D01*
X000649Y003968D01*
X000635Y003970D01*
X000633D01*
X000624Y003991D01*
X000610Y004010D01*
X000591Y004024D01*
X000570Y004033D01*
X000547Y004036D01*
X000523Y004033D01*
X000502Y004024D01*
X000483Y004010D01*
X000469Y003991D01*
X000460Y003970D01*
X000457Y003947D01*
X000460Y003924D01*
X000465Y003913D01*
X000454Y003892D01*
X000453Y003891D01*
X000447Y003890D01*
X000427Y003910D01*
X000433Y003924D01*
X000436Y003947D01*
X000433Y003970D01*
X000424Y003991D01*
X000410Y004010D01*
X000391Y004024D01*
X000370Y004033D01*
X000347Y004036D01*
X000323Y004033D01*
X000302Y004024D01*
X000283Y004010D01*
X000273Y003997D01*
X000253Y004003D01*
Y004091D01*
X000273Y004097D01*
X000283Y004084D01*
X000302Y004069D01*
X000323Y004060D01*
X000347Y004057D01*
X000370Y004060D01*
X000391Y004069D01*
X000410Y004084D01*
X000424Y004102D01*
X000433Y004124D01*
X000436Y004147D01*
X000433Y004170D01*
X000424Y004191D01*
X000410Y004210D01*
X000391Y004224D01*
X000370Y004233D01*
X000347Y004236D01*
X000323Y004233D01*
X000302Y004224D01*
X000290Y004215D01*
X000277Y004230D01*
X000312Y004265D01*
X000323Y004260D01*
X000347Y004257D01*
X000370Y004260D01*
X000391Y004269D01*
X000410Y004284D01*
X000424Y004302D01*
X000433Y004324D01*
X000436Y004347D01*
X000433Y004370D01*
X000424Y004391D01*
X000410Y004410D01*
X000391Y004424D01*
X000370Y004433D01*
X000347Y004436D01*
X000323Y004433D01*
X000302Y004424D01*
X000283Y004410D01*
X000269Y004391D01*
X000260Y004370D01*
X000257Y004347D01*
X000260Y004324D01*
X000265Y004312D01*
X000197Y004244D01*
X000189Y004233D01*
X000187Y004220D01*
Y003534D01*
X000189Y003521D01*
X000197Y003511D01*
X000207Y003503D01*
X000207Y003503D01*
X000279Y003432D01*
X000282Y003416D01*
X000280Y003406D01*
X000280Y003405D01*
X000269Y003391D01*
X000260Y003370D01*
X000257Y003347D01*
X000260Y003324D01*
X000269Y003302D01*
X000283Y003284D01*
X000302Y003269D01*
X000323Y003260D01*
X000347Y003257D01*
X000370Y003260D01*
X000384Y003266D01*
X000424Y003227D01*
X000424Y003227D01*
X000433Y003220D01*
X000445Y003218D01*
X000464D01*
X000474Y003198D01*
X000469Y003191D01*
X000460Y003170D01*
X000457Y003147D01*
X000460Y003124D01*
X000462Y003120D01*
X000445Y003108D01*
X000432Y003121D01*
X000433Y003124D01*
X000436Y003147D01*
X000433Y003170D01*
X000424Y003191D01*
X000410Y003210D01*
X000391Y003224D01*
X000370Y003233D01*
X000347Y003236D01*
X000323Y003233D01*
X000302Y003224D01*
X000283Y003210D01*
X000269Y003191D01*
X000260Y003170D01*
X000257Y003147D01*
X000260Y003124D01*
X000269Y003102D01*
X000283Y003084D01*
X000302Y003069D01*
X000323Y003060D01*
X000347Y003057D01*
X000370Y003060D01*
X000391Y003069D01*
X000395Y003072D01*
X000441Y003025D01*
X000441Y003025D01*
X000451Y003019D01*
X000463Y003016D01*
X000463Y003016D01*
X000463D01*
X000473Y002996D01*
X000469Y002991D01*
X000460Y002970D01*
X000457Y002947D01*
X000460Y002924D01*
X000464Y002914D01*
X000454Y002892D01*
X000453Y002891D01*
X000446Y002890D01*
X000427Y002910D01*
X000433Y002924D01*
X000436Y002947D01*
X000433Y002970D01*
X000424Y002991D01*
X000410Y003010D01*
X000391Y003024D01*
X000370Y003033D01*
X000347Y003036D01*
X000323Y003033D01*
X000302Y003024D01*
X000283Y003010D01*
X000269Y002991D01*
X000260Y002970D01*
X000257Y002947D01*
X000260Y002924D01*
X000269Y002902D01*
X000283Y002884D01*
X000302Y002869D01*
X000323Y002860D01*
X000347Y002857D01*
X000370Y002860D01*
X000384Y002866D01*
X000424Y002826D01*
X000424Y002826D01*
X000434Y002819D01*
X000446Y002817D01*
X000463D01*
X000473Y002797D01*
X000469Y002791D01*
X000460Y002770D01*
X000457Y002747D01*
X000460Y002724D01*
X000469Y002702D01*
X000483Y002684D01*
X000502Y002669D01*
X000523Y002660D01*
X000547Y002657D01*
X000570Y002660D01*
X000591Y002669D01*
X000610Y002684D01*
X000624Y002702D01*
X000633Y002724D01*
X000636Y002747D01*
X000633Y002770D01*
X000624Y002791D01*
X000624Y002792D01*
X000634Y002812D01*
X000707D01*
X000799Y002720D01*
X000811Y002712D01*
X000824Y002709D01*
X001382D01*
X001393Y002689D01*
X001389Y002670D01*
X001393Y002647D01*
X001407Y002627D01*
X001427Y002613D01*
X001450Y002609D01*
X001473Y002613D01*
X001493Y002627D01*
X001507Y002647D01*
X001511Y002670D01*
X001507Y002689D01*
X001518Y002709D01*
X001862D01*
X001873Y002689D01*
X001869Y002670D01*
X001873Y002647D01*
X001887Y002627D01*
X001907Y002613D01*
X001930Y002609D01*
X001953Y002613D01*
X001973Y002627D01*
X001987Y002647D01*
X001991Y002670D01*
X001987Y002689D01*
X001998Y002709D01*
X002740D01*
X002875Y002575D01*
X002874Y002570D01*
X002879Y002547D01*
X002892Y002527D01*
X002912Y002513D01*
X002935Y002509D01*
X002959Y002513D01*
X002978Y002527D01*
X002992Y002547D01*
X002996Y002570D01*
X002992Y002593D01*
X002978Y002613D01*
X002976Y002615D01*
Y002639D01*
X002978Y002641D01*
X002992Y002661D01*
X002996Y002684D01*
X002992Y002708D01*
X002978Y002728D01*
X002965Y002737D01*
X002962Y002756D01*
X002963Y002760D01*
X002973Y002767D01*
X002987Y002787D01*
X002991Y002810D01*
X002987Y002833D01*
X002985Y002835D01*
X003001Y002848D01*
X003084Y002765D01*
Y001539D01*
X003087Y001526D01*
X003095Y001514D01*
X003174Y001435D01*
Y001410D01*
X003177Y001396D01*
X003185Y001385D01*
X003193Y001377D01*
X003187Y001363D01*
X003184Y001358D01*
X003162Y001353D01*
X003142Y001340D01*
X003128Y001320D01*
X003124Y001297D01*
X003128Y001273D01*
X003142Y001254D01*
X003162Y001240D01*
X003185Y001236D01*
X003208Y001240D01*
X003244Y001204D01*
Y001145D01*
X003276D01*
X003278Y001125D01*
X003267Y001122D01*
X003255Y001114D01*
X003247Y001102D01*
X003244Y001090D01*
X003309D01*
X003375D01*
X003372Y001102D01*
X003364Y001114D01*
X003352Y001122D01*
X003341Y001125D01*
X003343Y001145D01*
X003374D01*
Y001255D01*
X003295D01*
X003276Y001273D01*
X003287Y001291D01*
X003295Y001289D01*
X003423D01*
X003464Y001248D01*
Y001190D01*
X003434D01*
Y001080D01*
X003464D01*
Y000893D01*
X003464Y000892D01*
Y000848D01*
X003456Y000843D01*
X003443Y000823D01*
X003438Y000800D01*
X003443Y000777D01*
X003456Y000757D01*
X003476Y000743D01*
X003500Y000739D01*
X003523Y000743D01*
X003543Y000757D01*
X003556Y000777D01*
X003561Y000800D01*
X003556Y000823D01*
X003543Y000843D01*
X003535Y000848D01*
Y000893D01*
X003535Y000895D01*
Y001080D01*
X003564D01*
Y001190D01*
X003535D01*
Y001263D01*
X003532Y001277D01*
X003525Y001288D01*
X003463Y001350D01*
X003451Y001358D01*
X003438Y001361D01*
X003314D01*
X003307Y001370D01*
X003316Y001390D01*
X003370D01*
Y001560D01*
X003370D01*
X003370Y001560D01*
X003369Y001580D01*
Y001633D01*
X003309D01*
Y001653D01*
X003289D01*
Y001738D01*
X003249D01*
Y001649D01*
X003229Y001638D01*
X003223Y001642D01*
X003200Y001647D01*
X003177Y001642D01*
X003176Y001642D01*
X003156Y001652D01*
Y002123D01*
X003176Y002134D01*
X003177Y002133D01*
X003200Y002129D01*
X003223Y002133D01*
X003243Y002147D01*
X003257Y002167D01*
X003261Y002190D01*
X003257Y002213D01*
X003243Y002233D01*
X003223Y002247D01*
X003200Y002251D01*
X003177Y002247D01*
X003176Y002246D01*
X003156Y002257D01*
Y002657D01*
X003176Y002667D01*
X003177Y002667D01*
X003200Y002662D01*
X003223Y002667D01*
X003225Y002668D01*
X003245Y002657D01*
Y002640D01*
X003277D01*
X003279Y002620D01*
X003268Y002618D01*
X003255Y002610D01*
X003247Y002597D01*
X003245Y002585D01*
X003310D01*
X003375D01*
X003373Y002597D01*
X003364Y002610D01*
X003352Y002618D01*
X003341Y002620D01*
X003343Y002640D01*
X003375D01*
Y002750D01*
X003297D01*
X003294Y002751D01*
X003254D01*
X003243Y002766D01*
X003223Y002780D01*
X003200Y002784D01*
X003177Y002780D01*
X003176Y002779D01*
X003172Y002779D01*
X003154Y002789D01*
X003153Y002793D01*
X003145Y002805D01*
X003054Y002896D01*
X003062Y002914D01*
X003440D01*
X003451Y002894D01*
X003443Y002883D01*
X003439Y002860D01*
X003443Y002837D01*
X003457Y002817D01*
X003464Y002812D01*
Y002685D01*
X003435D01*
Y002575D01*
X003565D01*
Y002647D01*
X003565Y002650D01*
X003565Y002653D01*
Y002685D01*
X003536D01*
Y002812D01*
X003543Y002817D01*
X003557Y002837D01*
X003561Y002860D01*
X003557Y002883D01*
X003549Y002894D01*
X003560Y002914D01*
X003641D01*
X003651Y002894D01*
X003644Y002883D01*
X003639Y002860D01*
X003644Y002837D01*
X003650Y002828D01*
X003640Y002808D01*
X003640D01*
Y002638D01*
X003760D01*
Y002808D01*
X003760Y002808D01*
X003751Y002828D01*
X003757Y002837D01*
X003762Y002860D01*
X003757Y002883D01*
X003750Y002894D01*
X003760Y002914D01*
X004739D01*
X004801Y002852D01*
X004813Y002844D01*
X004826Y002841D01*
X004981D01*
X005039Y002783D01*
Y002750D01*
X004915D01*
Y002731D01*
X004895D01*
X004884Y002728D01*
X004870Y002731D01*
X004847Y002727D01*
X004827Y002713D01*
X004813Y002693D01*
X004809Y002670D01*
X004813Y002647D01*
X004827Y002627D01*
X004847Y002613D01*
X004870Y002609D01*
X004893Y002613D01*
X004913Y002627D01*
X004922Y002640D01*
X004947D01*
X004949Y002620D01*
X004938Y002618D01*
X004925Y002610D01*
X004917Y002597D01*
X004915Y002585D01*
X004980D01*
Y002565D01*
X005000D01*
Y002509D01*
X005007D01*
X005019Y002512D01*
X005025Y002510D01*
X005039Y002500D01*
Y002437D01*
X004965Y002363D01*
X004957Y002351D01*
X004954Y002338D01*
Y001840D01*
X004957Y001826D01*
X004965Y001815D01*
X005021Y001758D01*
X005013Y001738D01*
X004999D01*
Y001653D01*
X004979D01*
Y001633D01*
X004919D01*
Y001580D01*
X004919Y001568D01*
X004919D01*
X004920Y001560D01*
X004917Y001541D01*
X004900Y001532D01*
X004893Y001537D01*
X004870Y001541D01*
X004847Y001537D01*
X004827Y001523D01*
X004826Y001523D01*
X004802D01*
X004801Y001525D01*
X004783Y001537D01*
X004775Y001539D01*
Y001559D01*
X004783Y001560D01*
X004801Y001573D01*
X004813Y001591D01*
X004817Y001612D01*
X004813Y001634D01*
X004801Y001652D01*
X004783Y001664D01*
X004775Y001666D01*
Y001686D01*
X004783Y001687D01*
X004801Y001700D01*
X004813Y001718D01*
X004817Y001739D01*
X004813Y001761D01*
X004801Y001779D01*
X004783Y001791D01*
X004775Y001793D01*
Y001813D01*
X004783Y001814D01*
X004801Y001827D01*
X004808Y001838D01*
X004813Y001840D01*
X004829Y001843D01*
X004833Y001843D01*
X004847Y001833D01*
X004850Y001833D01*
Y001890D01*
Y001947D01*
X004847Y001947D01*
X004827Y001933D01*
X004816Y001918D01*
X004810Y001913D01*
X004793Y001911D01*
X004783Y001918D01*
X004775Y001920D01*
Y001940D01*
X004783Y001941D01*
X004801Y001954D01*
X004813Y001972D01*
X004817Y001993D01*
X004813Y002015D01*
X004801Y002033D01*
X004783Y002045D01*
X004775Y002047D01*
Y002067D01*
X004783Y002068D01*
X004801Y002081D01*
X004813Y002099D01*
X004817Y002120D01*
X004835Y002131D01*
X004847Y002123D01*
X004870Y002119D01*
X004893Y002123D01*
X004913Y002137D01*
X004927Y002157D01*
X004931Y002180D01*
X004927Y002203D01*
X004913Y002223D01*
X004893Y002237D01*
X004870Y002241D01*
X004847Y002237D01*
X004834Y002228D01*
X004816Y002240D01*
X004817Y002247D01*
X004813Y002269D01*
X004801Y002287D01*
X004783Y002299D01*
X004775Y002301D01*
Y002321D01*
X004783Y002322D01*
X004801Y002335D01*
X004813Y002353D01*
X004817Y002374D01*
X004813Y002396D01*
X004801Y002414D01*
X004783Y002426D01*
X004761Y002430D01*
X004651D01*
X004630Y002426D01*
X004611Y002414D01*
X004599Y002396D01*
X004595Y002374D01*
X004599Y002353D01*
X004611Y002335D01*
X004630Y002322D01*
X004637Y002321D01*
Y002301D01*
X004630Y002299D01*
X004611Y002287D01*
X004599Y002269D01*
X004595Y002247D01*
X004599Y002226D01*
X004611Y002208D01*
X004630Y002195D01*
X004637Y002194D01*
Y002174D01*
X004630Y002172D01*
X004611Y002160D01*
X004599Y002142D01*
X004595Y002120D01*
X004599Y002099D01*
X004611Y002081D01*
X004630Y002068D01*
X004637Y002067D01*
Y002047D01*
X004630Y002045D01*
X004611Y002033D01*
X004599Y002015D01*
X004595Y001993D01*
X004599Y001972D01*
X004611Y001954D01*
X004630Y001941D01*
X004637Y001940D01*
Y001920D01*
X004630Y001918D01*
X004611Y001906D01*
X004599Y001888D01*
X004595Y001866D01*
X004599Y001845D01*
X004611Y001827D01*
X004630Y001814D01*
X004637Y001813D01*
Y001793D01*
X004630Y001791D01*
X004611Y001779D01*
X004599Y001761D01*
X004595Y001739D01*
X004599Y001718D01*
X004611Y001700D01*
X004630Y001687D01*
X004637Y001686D01*
Y001666D01*
X004630Y001664D01*
X004611Y001652D01*
X004591Y001657D01*
X004574Y001669D01*
X004550Y001673D01*
X004541Y001672D01*
X004521Y001687D01*
Y002202D01*
X004521Y002204D01*
Y002222D01*
X004503D01*
X004501Y002222D01*
X004432D01*
Y002261D01*
X004382D01*
X004332D01*
Y002239D01*
X004325Y002236D01*
X004308Y002252D01*
Y002309D01*
X004304Y002329D01*
X004296Y002341D01*
X004293Y002346D01*
X004300Y002365D01*
X004302Y002367D01*
X004315Y002387D01*
X004320Y002410D01*
X004315Y002433D01*
X004302Y002453D01*
X004282Y002467D01*
X004258Y002471D01*
X004242Y002468D01*
X004123Y002586D01*
Y002638D01*
X004147D01*
Y002808D01*
X004027D01*
Y002759D01*
X003950D01*
Y002808D01*
X003830D01*
Y002638D01*
X003950D01*
Y002688D01*
X004027D01*
Y002638D01*
X004052D01*
Y002572D01*
X004054Y002558D01*
X004062Y002546D01*
X004197Y002411D01*
X004197Y002410D01*
X004202Y002387D01*
X004215Y002368D01*
X004218Y002360D01*
Y002346D01*
X004207Y002329D01*
X004203Y002309D01*
Y002252D01*
X004192Y002243D01*
X004190Y002245D01*
X004181Y002258D01*
Y002309D01*
X004177Y002329D01*
X004166Y002346D01*
X004149Y002358D01*
X004128Y002362D01*
X004108Y002358D01*
X004091Y002346D01*
X004080Y002329D01*
X004076Y002309D01*
Y002252D01*
X004065Y002243D01*
X004063Y002245D01*
X004054Y002258D01*
Y002309D01*
X004050Y002329D01*
X004039Y002346D01*
X004037Y002347D01*
Y002399D01*
X004034Y002412D01*
X004027Y002424D01*
X003945Y002505D01*
X003934Y002513D01*
X003920Y002516D01*
X003560D01*
X003546Y002513D01*
X003535Y002505D01*
X003465Y002435D01*
X003457Y002424D01*
X003454Y002410D01*
Y001975D01*
X003419Y001939D01*
X003410Y001941D01*
X003387Y001937D01*
X003367Y001923D01*
X003353Y001903D01*
X003349Y001880D01*
X003353Y001857D01*
X003367Y001837D01*
X003387Y001823D01*
X003410Y001819D01*
X003426Y001822D01*
X003428Y001821D01*
X003441Y001808D01*
X003442Y001806D01*
X003439Y001790D01*
X003443Y001767D01*
X003449Y001758D01*
X003439Y001738D01*
X003439D01*
Y001580D01*
X003439Y001568D01*
X003439D01*
X003440Y001560D01*
X003440D01*
Y001390D01*
X003521D01*
X003525Y001389D01*
X003537D01*
X003541Y001386D01*
X003553Y001378D01*
X003566Y001375D01*
X003640D01*
Y001212D01*
X003640D01*
X003640Y001203D01*
X003640D01*
X003640Y001192D01*
Y001033D01*
X003640D01*
Y001025D01*
X003640D01*
Y000855D01*
X003641D01*
X003651Y000835D01*
X003643Y000823D01*
X003639Y000800D01*
X003643Y000777D01*
X003657Y000757D01*
X003677Y000743D01*
X003700Y000739D01*
X003723Y000743D01*
X003743Y000757D01*
X003757Y000777D01*
X003761Y000800D01*
X003757Y000823D01*
X003749Y000835D01*
X003759Y000855D01*
X003760D01*
Y001025D01*
X003760D01*
Y001033D01*
X003760D01*
Y001203D01*
X003760D01*
X003760Y001212D01*
X003760D01*
X003760Y001223D01*
Y001375D01*
X003830D01*
Y001223D01*
X003830Y001203D01*
X003830Y001192D01*
Y001138D01*
X003890D01*
X003950D01*
Y001192D01*
X003950Y001212D01*
X003950Y001223D01*
Y001261D01*
X004027D01*
Y001212D01*
X004027D01*
Y001202D01*
X004027D01*
Y001032D01*
X004119D01*
X004129Y001012D01*
X004126Y001007D01*
X004121Y000983D01*
X004126Y000960D01*
X004139Y000940D01*
X004159Y000927D01*
X004182Y000922D01*
X004206Y000927D01*
X004220Y000936D01*
X004346D01*
X004361Y000927D01*
X004384Y000922D01*
X004407Y000927D01*
X004427Y000940D01*
X004440Y000960D01*
X004445Y000983D01*
X004440Y001007D01*
X004430Y001022D01*
Y001128D01*
X004550D01*
X004568Y001132D01*
X004582Y001141D01*
X004588Y001139D01*
X004602Y001134D01*
Y000607D01*
X004602Y000607D01*
X004605Y000592D01*
X004614Y000579D01*
X004971Y000221D01*
X004971Y000221D01*
X004984Y000212D01*
X005000Y000209D01*
X005000Y000209D01*
X005890D01*
X005890Y000209D01*
X005906Y000212D01*
X005919Y000221D01*
X005991Y000294D01*
X006049D01*
X006051Y000290D01*
X006067Y000269D01*
X006088Y000253D01*
X006112Y000243D01*
X006138Y000239D01*
X006178D01*
X006204Y000243D01*
X006229Y000253D01*
X006250Y000269D01*
X006266Y000290D01*
X006270Y000299D01*
X006347D01*
X006351Y000290D01*
X006367Y000269D01*
X006388Y000253D01*
X006412Y000243D01*
X006438Y000239D01*
X006478D01*
X006504Y000243D01*
X006529Y000253D01*
X006550Y000269D01*
X006566Y000290D01*
X006576Y000314D01*
X006579Y000340D01*
X006576Y000366D01*
X006566Y000390D01*
X006550Y000411D01*
X006529Y000427D01*
X006504Y000437D01*
X006485Y000440D01*
Y000460D01*
X006504Y000463D01*
X006529Y000473D01*
X006550Y000489D01*
X006566Y000510D01*
X006576Y000534D01*
X006579Y000560D01*
X006576Y000586D01*
X006566Y000610D01*
X006550Y000631D01*
X006529Y000647D01*
X006504Y000657D01*
X006485Y000660D01*
Y000680D01*
X006504Y000683D01*
X006529Y000693D01*
X006550Y000709D01*
X006566Y000730D01*
X006570Y000739D01*
X006613D01*
X006711Y000641D01*
X006724Y000632D01*
X006740Y000629D01*
X006740Y000629D01*
X006937D01*
X006940Y000609D01*
X006907Y000599D01*
X006869Y000579D01*
X006835Y000551D01*
X006808Y000518D01*
X006787Y000480D01*
X006775Y000438D01*
X006770Y000395D01*
X006775Y000352D01*
X006787Y000310D01*
X006808Y000272D01*
X006835Y000239D01*
X006869Y000211D01*
X006907Y000191D01*
X006948Y000178D01*
X006991Y000174D01*
X007035Y000178D01*
X007076Y000191D01*
X007114Y000211D01*
X007148Y000239D01*
X007175Y000272D01*
X007196Y000310D01*
X007208Y000352D01*
X007213Y000395D01*
X007208Y000438D01*
X007196Y000480D01*
X007175Y000518D01*
X007148Y000551D01*
X007114Y000579D01*
X007076Y000599D01*
X007043Y000609D01*
X007046Y000629D01*
X007531D01*
X007531Y000629D01*
X007547Y000632D01*
X007560Y000641D01*
X008011Y001093D01*
X008020Y001106D01*
X008023Y001121D01*
X008023Y001121D01*
Y001208D01*
X008043D01*
Y001378D01*
X007936D01*
Y001433D01*
X007940Y001436D01*
X007956Y001442D01*
X007970Y001433D01*
X007991Y001429D01*
X008101D01*
X008123Y001433D01*
X008141Y001446D01*
X008153Y001464D01*
X008157Y001485D01*
X008153Y001507D01*
X008141Y001525D01*
X008123Y001537D01*
X008115Y001539D01*
Y001559D01*
X008123Y001560D01*
X008141Y001573D01*
X008153Y001591D01*
X008157Y001612D01*
X008153Y001634D01*
X008141Y001652D01*
X008123Y001664D01*
X008115Y001666D01*
Y001686D01*
X008123Y001687D01*
X008141Y001700D01*
X008153Y001718D01*
X008157Y001739D01*
X008153Y001761D01*
X008141Y001779D01*
X008123Y001791D01*
X008115Y001793D01*
Y001813D01*
X008123Y001814D01*
X008141Y001827D01*
X008153Y001845D01*
X008157Y001866D01*
X008153Y001888D01*
X008141Y001906D01*
X008123Y001918D01*
X008115Y001920D01*
Y001940D01*
X008123Y001941D01*
X008141Y001954D01*
X008153Y001972D01*
X008157Y001993D01*
X008153Y002015D01*
X008141Y002033D01*
X008123Y002045D01*
X008115Y002047D01*
Y002067D01*
X008123Y002068D01*
X008141Y002081D01*
X008153Y002099D01*
X008157Y002120D01*
X008153Y002142D01*
X008141Y002160D01*
X008123Y002172D01*
X008115Y002174D01*
Y002194D01*
X008123Y002195D01*
X008141Y002208D01*
X008153Y002226D01*
X008157Y002247D01*
X008153Y002269D01*
X008141Y002287D01*
X008123Y002299D01*
X008115Y002301D01*
Y002321D01*
X008123Y002322D01*
X008141Y002335D01*
X008153Y002353D01*
X008157Y002374D01*
X008153Y002396D01*
X008141Y002414D01*
X008123Y002426D01*
X008101Y002430D01*
X007991D01*
X007970Y002426D01*
X007951Y002414D01*
X007939Y002396D01*
X007935Y002374D01*
X007939Y002353D01*
X007951Y002335D01*
X007970Y002322D01*
X007977Y002321D01*
Y002301D01*
X007970Y002299D01*
X007951Y002287D01*
X007939Y002269D01*
X007935Y002247D01*
X007939Y002226D01*
X007951Y002208D01*
X007970Y002195D01*
X007977Y002194D01*
Y002174D01*
X007970Y002172D01*
X007951Y002160D01*
X007939Y002142D01*
X007935Y002120D01*
X007939Y002099D01*
X007951Y002081D01*
X007970Y002068D01*
X007977Y002067D01*
Y002047D01*
X007970Y002045D01*
X007951Y002033D01*
X007939Y002015D01*
X007935Y001993D01*
X007939Y001972D01*
X007951Y001954D01*
X007970Y001941D01*
X007977Y001940D01*
Y001920D01*
X007970Y001918D01*
X007951Y001906D01*
X007939Y001888D01*
X007935Y001866D01*
X007939Y001845D01*
X007951Y001827D01*
X007970Y001814D01*
X007977Y001813D01*
Y001793D01*
X007970Y001791D01*
X007951Y001779D01*
X007939Y001761D01*
X007935Y001739D01*
X007939Y001718D01*
X007951Y001700D01*
X007970Y001687D01*
X007977Y001686D01*
Y001666D01*
X007970Y001664D01*
X007951Y001652D01*
X007931Y001657D01*
X007914Y001669D01*
X007890Y001673D01*
X007881Y001672D01*
X007861Y001687D01*
Y002202D01*
X007861Y002204D01*
Y002222D01*
X007843D01*
X007841Y002222D01*
X007772D01*
Y002261D01*
X007722D01*
X007672D01*
Y002239D01*
X007665Y002236D01*
X007648Y002252D01*
Y002309D01*
X007644Y002329D01*
X007637Y002340D01*
X007633Y002346D01*
X007641Y002365D01*
X007643Y002367D01*
X007657Y002387D01*
X007661Y002410D01*
X007657Y002433D01*
X007643Y002453D01*
X007623Y002467D01*
X007600Y002471D01*
X007583Y002468D01*
X007463Y002588D01*
Y002638D01*
X007487D01*
Y002808D01*
X007367D01*
Y002759D01*
X007330D01*
Y002808D01*
X007210D01*
Y002638D01*
X007330D01*
Y002688D01*
X007367D01*
Y002638D01*
X007392D01*
Y002573D01*
X007394Y002559D01*
X007402Y002548D01*
X007539Y002411D01*
X007539Y002410D01*
X007544Y002387D01*
X007556Y002368D01*
X007558Y002361D01*
Y002346D01*
X007547Y002329D01*
X007543Y002309D01*
Y002252D01*
X007532Y002243D01*
X007530Y002245D01*
X007521Y002258D01*
Y002309D01*
X007517Y002329D01*
X007506Y002346D01*
X007489Y002358D01*
X007468Y002362D01*
X007448Y002358D01*
X007431Y002346D01*
X007420Y002329D01*
X007416Y002309D01*
Y002252D01*
X007405Y002243D01*
X007403Y002245D01*
X007394Y002258D01*
Y002309D01*
X007390Y002329D01*
X007379Y002346D01*
X007362Y002358D01*
X007341Y002362D01*
X007331Y002359D01*
X007324Y002367D01*
X007317Y002377D01*
X007321Y002398D01*
X007317Y002421D01*
X007303Y002441D01*
X007296Y002446D01*
Y002455D01*
X007293Y002469D01*
X007285Y002480D01*
X007136Y002629D01*
X007140Y002638D01*
X007140D01*
Y002808D01*
X007020D01*
Y002731D01*
X007000Y002729D01*
X006996Y002747D01*
X006983Y002766D01*
X006963Y002780D01*
X006959Y002781D01*
X006956Y002783D01*
X006942Y002785D01*
X006940D01*
X006926Y002783D01*
X006924Y002781D01*
X006916Y002780D01*
X006896Y002766D01*
X006883Y002747D01*
X006882Y002743D01*
X006815Y002675D01*
X006807Y002663D01*
X006806Y002658D01*
X006786Y002660D01*
Y002715D01*
X006783Y002729D01*
X006775Y002740D01*
X006764Y002748D01*
X006678Y002834D01*
X006677Y002835D01*
X006683Y002855D01*
X008550Y002856D01*
X008687Y002718D01*
X008716Y002606D01*
X008718Y001847D01*
X008713Y001779D01*
X008687Y001719D01*
X008644Y001662D01*
X007218Y000234D01*
X007142Y000168D01*
X007073Y000138D01*
X007015Y000130D01*
X004978Y000131D01*
X004901Y000146D01*
X004832Y000180D01*
X004762Y000254D01*
X004703Y000348D01*
X004622Y000421D01*
X004515Y000464D01*
X004431Y000481D01*
X004272Y000457D01*
X004206Y000420D01*
X004116Y000349D01*
X004080Y000292D01*
X004011Y000199D01*
X003964Y000165D01*
X003902Y000140D01*
X003842Y000127D01*
X003325Y000130D01*
X003225Y000163D01*
X003185Y000195D01*
X003146Y000236D01*
X003103Y000320D01*
X003093Y000384D01*
X003095Y001354D01*
X003074Y001448D01*
X003040Y001499D01*
X003010Y001529D01*
X002969Y001557D01*
X002909Y001580D01*
X002825Y001584D01*
X001891Y001586D01*
X001302D01*
X001152Y001585D01*
X000390D01*
X000340Y001586D01*
X000331Y001586D01*
X000313Y001588D01*
X000296Y001592D01*
X000289Y001594D01*
X000270Y001600D01*
X000270Y001600D01*
X000270Y001600D01*
X000252Y001606D01*
X000249Y001607D01*
X000235Y001614D01*
X000231Y001616D01*
X000215Y001627D01*
X000215D01*
X000215Y001627D01*
X000200Y001637D01*
X000186Y001648D01*
X000186D01*
X000186Y001648D01*
X000172Y001661D01*
X000169Y001664D01*
X000163Y001670D01*
X000160Y001674D01*
X000160Y001674D01*
X000151Y001685D01*
X000135Y001708D01*
X000121Y001732D01*
X000110Y001758D01*
X000106Y001772D01*
X000106Y001772D01*
X000095Y001819D01*
X000094Y001845D01*
Y004698D01*
X000147Y004799D01*
X001576Y006237D01*
X001661Y006305D01*
X001715Y006334D01*
X001783Y006350D01*
X001852Y006355D01*
X003862D01*
X003953Y006318D01*
X003997Y006290D01*
X004032Y006255D01*
X004122Y006135D01*
X004272Y006025D01*
X004492Y006015D01*
X004662Y006095D01*
X004802Y006285D01*
X004858Y006320D01*
X004888Y006334D01*
X004922Y006345D01*
X005062Y006355D01*
X005437Y006352D01*
D02*
G37*
G36*
X001770Y005769D02*
X001757Y005767D01*
X001737Y005753D01*
X001723Y005733D01*
X001719Y005710D01*
X001723Y005687D01*
X001737Y005667D01*
X001744Y005662D01*
Y005615D01*
X001720D01*
Y005445D01*
X001720D01*
Y005437D01*
X001720D01*
Y005267D01*
X001720D01*
X001720Y005258D01*
X001720D01*
X001720Y005247D01*
Y005103D01*
X001650D01*
Y005247D01*
X001650Y005267D01*
X001650Y005278D01*
Y005332D01*
X001530D01*
Y005278D01*
X001530Y005258D01*
X001530Y005247D01*
Y005209D01*
X001453D01*
Y005264D01*
X001453D01*
Y005274D01*
X001453D01*
Y005444D01*
X001361D01*
X001351Y005464D01*
X001354Y005469D01*
X001359Y005493D01*
X001354Y005516D01*
X001341Y005536D01*
X001321Y005549D01*
X001298Y005554D01*
X001274Y005549D01*
X001260Y005540D01*
X001134D01*
X001122Y005547D01*
X001116Y005569D01*
X001336Y005789D01*
X001395D01*
X001400Y005771D01*
X001400Y005771D01*
X001387Y005767D01*
X001383Y005764D01*
X001367Y005753D01*
X001353Y005733D01*
X001353Y005730D01*
X001467D01*
X001467Y005733D01*
X001453Y005753D01*
X001437Y005764D01*
X001433Y005767D01*
X001420Y005771D01*
X001420Y005771D01*
X001425Y005789D01*
X001578D01*
X001580Y005769D01*
X001567Y005767D01*
X001547Y005753D01*
X001533Y005733D01*
X001529Y005710D01*
X001533Y005687D01*
X001547Y005667D01*
X001554Y005662D01*
Y005615D01*
X001530D01*
Y005457D01*
X001530Y005445D01*
X001530Y005425D01*
Y005372D01*
X001650D01*
Y005425D01*
X001650Y005437D01*
X001650Y005457D01*
Y005615D01*
X001626D01*
Y005662D01*
X001633Y005667D01*
X001647Y005687D01*
X001651Y005710D01*
X001647Y005733D01*
X001633Y005753D01*
X001613Y005767D01*
X001600Y005769D01*
X001602Y005789D01*
X001768D01*
X001770Y005769D01*
D02*
G37*
G36*
X002222Y005747D02*
X002218Y005737D01*
X002215Y005711D01*
X002218Y005685D01*
X002228Y005661D01*
X002244Y005640D01*
X002265Y005624D01*
X002289Y005614D01*
X002315Y005610D01*
X002355D01*
X002382Y005614D01*
X002406Y005624D01*
X002427Y005640D01*
X002443Y005661D01*
X002447Y005670D01*
X002524D01*
X002528Y005661D01*
X002539Y005646D01*
X002540Y005643D01*
X002538Y005626D01*
X002535Y005621D01*
X002530Y005618D01*
X002479Y005566D01*
X002470Y005553D01*
X002467Y005537D01*
X002467Y005537D01*
Y005268D01*
X002447D01*
Y005098D01*
X002554D01*
Y005043D01*
X002550Y005040D01*
X002534Y005034D01*
X002520Y005043D01*
X002499Y005047D01*
X002389D01*
X002367Y005043D01*
X002349Y005030D01*
X002329Y005036D01*
X002313Y005047D01*
X002290Y005051D01*
X002267Y005047D01*
X002250Y005036D01*
X002237Y005040D01*
X002230Y005045D01*
Y005080D01*
X002116D01*
Y005140D01*
X002113Y005154D01*
X002105Y005165D01*
X002016Y005254D01*
Y005280D01*
X002046D01*
Y005390D01*
X002016D01*
Y005649D01*
X002016Y005650D01*
Y005662D01*
X002024Y005667D01*
X002037Y005687D01*
X002042Y005710D01*
X002037Y005733D01*
X002024Y005753D01*
X002004Y005767D01*
X001990Y005769D01*
X001992Y005789D01*
X002180D01*
X002222Y005747D01*
D02*
G37*
G36*
X002367Y004939D02*
X002375Y004937D01*
Y004917D01*
X002367Y004916D01*
X002349Y004903D01*
X002337Y004885D01*
X002333Y004864D01*
X002337Y004842D01*
X002349Y004824D01*
X002367Y004812D01*
X002375Y004810D01*
Y004790D01*
X002367Y004789D01*
X002349Y004776D01*
X002337Y004758D01*
X002333Y004737D01*
X002335Y004726D01*
X002317Y004714D01*
X002313Y004717D01*
X002310Y004717D01*
Y004660D01*
Y004603D01*
X002313Y004603D01*
X002314Y004604D01*
X002336Y004594D01*
X002337Y004588D01*
X002349Y004570D01*
X002367Y004558D01*
X002375Y004556D01*
Y004536D01*
X002367Y004535D01*
X002349Y004522D01*
X002337Y004504D01*
X002333Y004483D01*
X002337Y004461D01*
X002349Y004443D01*
X002367Y004431D01*
X002375Y004429D01*
Y004409D01*
X002367Y004408D01*
X002349Y004395D01*
X002337Y004377D01*
X002333Y004356D01*
X002335Y004346D01*
X002317Y004334D01*
X002313Y004337D01*
X002290Y004341D01*
X002267Y004337D01*
X002247Y004323D01*
X002233Y004303D01*
X002229Y004280D01*
X002233Y004257D01*
X002247Y004237D01*
X002267Y004223D01*
X002290Y004219D01*
X002313Y004223D01*
X002313Y004224D01*
X002336Y004214D01*
X002337Y004207D01*
X002349Y004189D01*
X002367Y004177D01*
X002375Y004175D01*
Y004155D01*
X002367Y004154D01*
X002349Y004141D01*
X002337Y004123D01*
X002333Y004102D01*
X002337Y004080D01*
X002349Y004062D01*
X002367Y004050D01*
X002389Y004046D01*
X002499D01*
X002520Y004050D01*
X002539Y004062D01*
X002551Y004080D01*
X002555Y004102D01*
X002551Y004123D01*
X002539Y004141D01*
X002520Y004154D01*
X002513Y004155D01*
Y004175D01*
X002520Y004177D01*
X002539Y004189D01*
X002551Y004207D01*
X002555Y004229D01*
X002551Y004250D01*
X002539Y004268D01*
X002520Y004281D01*
X002513Y004282D01*
Y004302D01*
X002520Y004304D01*
X002539Y004316D01*
X002551Y004334D01*
X002555Y004356D01*
X002551Y004377D01*
X002539Y004395D01*
X002520Y004408D01*
X002513Y004409D01*
Y004429D01*
X002520Y004431D01*
X002539Y004443D01*
X002551Y004461D01*
X002555Y004483D01*
X002551Y004504D01*
X002539Y004522D01*
X002520Y004535D01*
X002513Y004536D01*
Y004556D01*
X002520Y004558D01*
X002539Y004570D01*
X002551Y004588D01*
X002555Y004610D01*
X002551Y004631D01*
X002539Y004649D01*
X002520Y004662D01*
X002513Y004663D01*
Y004683D01*
X002520Y004685D01*
X002539Y004697D01*
X002551Y004715D01*
X002555Y004737D01*
X002551Y004758D01*
X002539Y004776D01*
X002520Y004789D01*
X002513Y004790D01*
Y004810D01*
X002520Y004812D01*
X002539Y004824D01*
X002559Y004819D01*
X002576Y004807D01*
X002600Y004803D01*
X002609Y004804D01*
X002629Y004789D01*
Y004274D01*
X002629Y004272D01*
Y004254D01*
X002647D01*
X002649Y004254D01*
X002718D01*
Y004215D01*
X002768D01*
X002818D01*
Y004237D01*
X002825Y004240D01*
X002842Y004224D01*
Y004167D01*
X002846Y004147D01*
X002857Y004130D01*
X002854Y004108D01*
X002847Y004103D01*
X002833Y004083D01*
X002829Y004060D01*
X002833Y004037D01*
X002847Y004017D01*
X002867Y004003D01*
X002890Y003999D01*
X002907Y004002D01*
X003027Y003882D01*
Y003832D01*
X003003D01*
Y003662D01*
X003123D01*
Y003711D01*
X003200D01*
Y003662D01*
X003320D01*
Y003832D01*
X003200D01*
Y003782D01*
X003123D01*
Y003832D01*
X003098D01*
Y003897D01*
X003096Y003911D01*
X003088Y003923D01*
X002951Y004059D01*
X002951Y004060D01*
X002947Y004083D01*
X002933Y004103D01*
X002931Y004105D01*
Y004129D01*
X002932Y004130D01*
X002943Y004147D01*
X002947Y004167D01*
Y004224D01*
X002958Y004233D01*
X002960Y004231D01*
X002969Y004218D01*
Y004167D01*
X002973Y004147D01*
X002984Y004130D01*
X003001Y004118D01*
X003022Y004114D01*
X003042Y004118D01*
X003059Y004130D01*
X003070Y004147D01*
X003074Y004167D01*
Y004224D01*
X003085Y004233D01*
X003087Y004231D01*
X003096Y004218D01*
Y004167D01*
X003100Y004147D01*
X003111Y004130D01*
X003113Y004129D01*
Y004071D01*
X003116Y004058D01*
X003123Y004046D01*
X003205Y003965D01*
X003216Y003957D01*
X003230Y003954D01*
X003590D01*
X003604Y003957D01*
X003615Y003965D01*
X003685Y004035D01*
X003690Y004042D01*
X003710Y004038D01*
Y003895D01*
X003585D01*
Y003785D01*
X003609D01*
Y003658D01*
X003602Y003653D01*
X003588Y003633D01*
X003584Y003610D01*
X003588Y003591D01*
X003577Y003571D01*
X003518D01*
X003508Y003591D01*
X003512Y003610D01*
X003507Y003633D01*
X003501Y003642D01*
X003510Y003662D01*
X003510D01*
Y003832D01*
X003390D01*
Y003662D01*
X003390D01*
X003399Y003642D01*
X003394Y003633D01*
X003389Y003610D01*
X003393Y003591D01*
X003382Y003571D01*
X002126D01*
X002124Y003570D01*
X002118Y003574D01*
X002106Y003586D01*
Y003720D01*
X002187D01*
X002190Y003719D01*
X002236D01*
X002247Y003704D01*
X002267Y003690D01*
X002290Y003686D01*
X002313Y003690D01*
X002333Y003704D01*
X002347Y003723D01*
X002349Y003738D01*
X002369Y003748D01*
X002370Y003748D01*
X002377Y003743D01*
X002400Y003739D01*
X002410Y003741D01*
X002426Y003725D01*
X002426Y003725D01*
X002436Y003719D01*
X002448Y003716D01*
X002448Y003697D01*
Y003662D01*
X002568D01*
Y003820D01*
X002568Y003840D01*
X002568Y003852D01*
Y003905D01*
X002508D01*
Y003925D01*
X002488D01*
Y004010D01*
X002448D01*
Y003989D01*
X002428Y003978D01*
X002423Y003982D01*
X002420Y003982D01*
Y003925D01*
X002400D01*
Y003905D01*
X002343D01*
X002343Y003902D01*
X002357Y003882D01*
X002369Y003874D01*
Y003851D01*
X002357Y003843D01*
X002343Y003823D01*
X002341Y003809D01*
X002321Y003799D01*
X002320Y003799D01*
X002313Y003803D01*
X002290Y003808D01*
X002267Y003803D01*
X002255Y003796D01*
X002235Y003805D01*
Y003830D01*
X002203D01*
X002201Y003850D01*
X002212Y003852D01*
X002225Y003860D01*
X002233Y003873D01*
X002235Y003885D01*
X002170D01*
Y003905D01*
X002150D01*
Y003961D01*
X002143D01*
X002128Y003958D01*
X002126Y003956D01*
X002106Y003967D01*
Y004405D01*
X002195Y004495D01*
X002203Y004506D01*
X002206Y004520D01*
Y004610D01*
X002203Y004624D01*
X002195Y004635D01*
X002119Y004712D01*
X002123Y004732D01*
X002151D01*
Y004817D01*
X002171D01*
Y004837D01*
X002231D01*
Y004890D01*
X002231Y004902D01*
X002231D01*
X002230Y004910D01*
X002230D01*
Y004935D01*
X002237Y004940D01*
X002250Y004944D01*
X002267Y004933D01*
X002290Y004929D01*
X002313Y004933D01*
X002330Y004944D01*
X002349Y004951D01*
X002367Y004939D01*
D02*
G37*
G36*
X004018Y004953D02*
X004019Y004951D01*
X004037Y004939D01*
X004045Y004937D01*
Y004917D01*
X004037Y004916D01*
X004019Y004903D01*
X004007Y004885D01*
X004003Y004864D01*
X004007Y004842D01*
X004019Y004824D01*
X004037Y004812D01*
X004045Y004810D01*
Y004790D01*
X004037Y004789D01*
X004019Y004776D01*
X004007Y004758D01*
X004003Y004737D01*
X004007Y004715D01*
X004019Y004697D01*
X004037Y004685D01*
X004045Y004683D01*
Y004663D01*
X004037Y004662D01*
X004027Y004655D01*
X004020Y004657D01*
X004007Y004664D01*
X004003Y004683D01*
X003990Y004703D01*
X003970Y004717D01*
X003966Y004717D01*
Y004660D01*
Y004603D01*
X003970Y004603D01*
X003983Y004613D01*
X003988Y004612D01*
X004003Y004605D01*
X004004Y004604D01*
X004007Y004588D01*
X004019Y004570D01*
X004037Y004558D01*
X004045Y004556D01*
Y004536D01*
X004037Y004535D01*
X004019Y004522D01*
X004007Y004504D01*
X004003Y004483D01*
X004007Y004461D01*
X004019Y004443D01*
X004037Y004431D01*
X004045Y004429D01*
Y004409D01*
X004037Y004408D01*
X004019Y004395D01*
X004007Y004377D01*
X004003Y004356D01*
X004007Y004334D01*
X004019Y004316D01*
X004037Y004304D01*
X004045Y004302D01*
Y004282D01*
X004037Y004281D01*
X004027Y004273D01*
X004018Y004276D01*
X004007Y004283D01*
X004003Y004303D01*
X003990Y004323D01*
X003970Y004337D01*
X003946Y004341D01*
X003923Y004337D01*
X003903Y004323D01*
X003890Y004303D01*
X003885Y004280D01*
X003890Y004257D01*
X003903Y004237D01*
X003923Y004223D01*
X003946Y004219D01*
X003970Y004223D01*
X003983Y004232D01*
X003990Y004231D01*
X004003Y004225D01*
X004004Y004224D01*
X004007Y004207D01*
X004019Y004189D01*
X004037Y004177D01*
X004045Y004175D01*
Y004155D01*
X004037Y004154D01*
X004019Y004141D01*
X004007Y004123D01*
X004003Y004102D01*
X004007Y004080D01*
X004019Y004062D01*
X004037Y004050D01*
X004059Y004046D01*
X004169D01*
X004190Y004050D01*
X004209Y004062D01*
X004221Y004080D01*
X004225Y004102D01*
X004221Y004123D01*
X004209Y004141D01*
X004190Y004154D01*
X004183Y004155D01*
Y004175D01*
X004190Y004177D01*
X004209Y004189D01*
X004221Y004207D01*
X004225Y004229D01*
X004221Y004250D01*
X004209Y004268D01*
X004190Y004281D01*
X004183Y004282D01*
Y004302D01*
X004190Y004304D01*
X004209Y004316D01*
X004221Y004334D01*
X004225Y004356D01*
X004221Y004377D01*
X004209Y004395D01*
X004190Y004408D01*
X004183Y004409D01*
Y004429D01*
X004190Y004431D01*
X004209Y004443D01*
X004221Y004461D01*
X004225Y004483D01*
X004221Y004504D01*
X004209Y004522D01*
X004190Y004535D01*
X004183Y004536D01*
Y004556D01*
X004190Y004558D01*
X004209Y004570D01*
X004221Y004588D01*
X004225Y004610D01*
X004221Y004631D01*
X004209Y004649D01*
X004190Y004662D01*
X004183Y004663D01*
Y004683D01*
X004190Y004685D01*
X004209Y004697D01*
X004221Y004715D01*
X004225Y004737D01*
X004221Y004758D01*
X004209Y004776D01*
X004190Y004789D01*
X004183Y004790D01*
Y004810D01*
X004190Y004812D01*
X004209Y004824D01*
X004229Y004819D01*
X004246Y004807D01*
X004270Y004803D01*
X004279Y004804D01*
X004299Y004789D01*
Y004274D01*
X004299Y004272D01*
Y004254D01*
X004317D01*
X004319Y004254D01*
X004388D01*
Y004215D01*
X004438D01*
X004488D01*
Y004237D01*
X004495Y004240D01*
X004512Y004224D01*
Y004167D01*
X004516Y004147D01*
X004527Y004130D01*
X004524Y004108D01*
X004517Y004103D01*
X004503Y004083D01*
X004499Y004060D01*
X004503Y004037D01*
X004517Y004017D01*
X004537Y004003D01*
X004560Y003999D01*
X004577Y004002D01*
X004697Y003882D01*
Y003832D01*
X004673D01*
Y003662D01*
X004793D01*
Y003711D01*
X004870D01*
Y003662D01*
X004944D01*
X004955Y003642D01*
X004952Y003638D01*
X003932D01*
X003918Y003635D01*
X003907Y003627D01*
X003794Y003514D01*
X003751D01*
X003743Y003533D01*
X003771Y003561D01*
X003779Y003572D01*
X003782Y003586D01*
Y003720D01*
X003857D01*
X003860Y003719D01*
X003893D01*
X003903Y003704D01*
X003923Y003690D01*
X003946Y003686D01*
X003970Y003690D01*
X003990Y003704D01*
X004003Y003723D01*
X004008Y003747D01*
X004003Y003770D01*
X003990Y003790D01*
X003970Y003803D01*
X003946Y003808D01*
X003925Y003804D01*
X003919Y003805D01*
X003905Y003813D01*
Y003830D01*
X003873D01*
X003871Y003850D01*
X003882Y003852D01*
X003895Y003860D01*
X003903Y003873D01*
X003905Y003885D01*
X003840D01*
Y003905D01*
X003820D01*
Y003961D01*
X003813D01*
X003802Y003959D01*
X003789Y003965D01*
X003782Y003971D01*
Y004451D01*
X003840Y004510D01*
X003848Y004521D01*
X003851Y004535D01*
Y004637D01*
X003848Y004651D01*
X003840Y004662D01*
X003791Y004712D01*
X003799Y004732D01*
X003821D01*
Y004817D01*
X003841D01*
Y004837D01*
X003901D01*
Y004890D01*
X003901Y004902D01*
X003901D01*
X003900Y004910D01*
X003905Y004925D01*
X003923Y004933D01*
X003946Y004929D01*
X003970Y004933D01*
X003990Y004947D01*
X003994Y004953D01*
X004018Y004953D01*
D02*
G37*
G36*
X005280Y002902D02*
X005292Y002899D01*
X005302D01*
X005313Y002879D01*
X005309Y002860D01*
X005313Y002837D01*
X005319Y002828D01*
X005310Y002808D01*
X005310D01*
Y002638D01*
X005430D01*
Y002808D01*
X005430Y002808D01*
X005421Y002828D01*
X005427Y002837D01*
X005431Y002860D01*
X005427Y002879D01*
X005438Y002899D01*
X005492D01*
X005502Y002880D01*
X005618D01*
X005628Y002895D01*
X005646Y002897D01*
X005726Y002817D01*
X005719Y002798D01*
X005697D01*
Y002759D01*
X005620D01*
Y002808D01*
X005620D01*
X005611Y002828D01*
X005616Y002837D01*
X005617Y002840D01*
X005502D01*
X005503Y002837D01*
X005509Y002828D01*
X005500Y002808D01*
X005500D01*
Y002638D01*
X005620D01*
Y002688D01*
X005697D01*
Y002628D01*
X005722D01*
Y002583D01*
X005724Y002569D01*
X005732Y002557D01*
X005871Y002419D01*
X005869Y002410D01*
X005873Y002387D01*
X005886Y002368D01*
X005888Y002361D01*
Y002346D01*
X005877Y002329D01*
X005873Y002309D01*
Y002252D01*
X005862Y002243D01*
X005860Y002245D01*
X005851Y002258D01*
Y002309D01*
X005847Y002329D01*
X005836Y002346D01*
X005819Y002358D01*
X005798Y002362D01*
X005778Y002358D01*
X005761Y002346D01*
X005750Y002329D01*
X005746Y002309D01*
Y002252D01*
X005735Y002243D01*
X005733Y002245D01*
X005724Y002258D01*
Y002309D01*
X005720Y002329D01*
X005709Y002346D01*
X005707Y002347D01*
Y002399D01*
X005704Y002412D01*
X005697Y002424D01*
X005615Y002505D01*
X005604Y002513D01*
X005590Y002516D01*
X005230D01*
X005216Y002513D01*
X005205Y002505D01*
X005131Y002431D01*
X005111Y002439D01*
Y002575D01*
X005235D01*
Y002685D01*
X005208D01*
Y002812D01*
X005216Y002817D01*
X005229Y002837D01*
X005234Y002860D01*
X005230Y002882D01*
X005230Y002887D01*
X005238Y002902D01*
X005280D01*
X005280Y002902D01*
D02*
G37*
G36*
X006252Y002630D02*
X006252D01*
Y002565D01*
X006312D01*
Y002545D01*
X006332D01*
Y002460D01*
X006372D01*
Y002474D01*
X006386Y002482D01*
X006392Y002483D01*
X006393Y002483D01*
Y002540D01*
Y002597D01*
X006392Y002597D01*
X006386Y002598D01*
X006372Y002606D01*
Y002628D01*
X006372D01*
Y002657D01*
X006382Y002662D01*
X006392Y002666D01*
X006413Y002662D01*
X006436Y002667D01*
X006456Y002680D01*
X006465Y002694D01*
X006467Y002694D01*
X006486D01*
X006488Y002694D01*
X006497Y002680D01*
X006517Y002667D01*
X006540Y002662D01*
X006563Y002667D01*
X006583Y002680D01*
X006588Y002688D01*
X006614D01*
Y002620D01*
X006585D01*
Y002510D01*
X006617D01*
X006619Y002490D01*
X006608Y002488D01*
X006595Y002480D01*
X006587Y002467D01*
X006585Y002455D01*
X006650D01*
Y002435D01*
X006670D01*
Y002379D01*
X006677D01*
X006692Y002382D01*
X006694Y002384D01*
X006714Y002373D01*
Y002175D01*
X006625Y002085D01*
X006617Y002074D01*
X006614Y002060D01*
Y001840D01*
X006617Y001826D01*
X006625Y001815D01*
X006683Y001757D01*
X006675Y001738D01*
X006669D01*
Y001653D01*
X006649D01*
Y001633D01*
X006589D01*
Y001580D01*
X006589Y001568D01*
X006589D01*
X006590Y001560D01*
X006587Y001541D01*
X006570Y001532D01*
X006563Y001537D01*
X006540Y001541D01*
X006517Y001537D01*
X006497Y001523D01*
X006496Y001523D01*
X006472D01*
X006471Y001525D01*
X006453Y001537D01*
X006445Y001539D01*
Y001559D01*
X006453Y001560D01*
X006471Y001573D01*
X006483Y001591D01*
X006487Y001612D01*
X006483Y001634D01*
X006471Y001652D01*
X006453Y001664D01*
X006445Y001666D01*
Y001686D01*
X006453Y001687D01*
X006471Y001700D01*
X006483Y001718D01*
X006487Y001739D01*
X006483Y001761D01*
X006471Y001779D01*
X006453Y001791D01*
X006445Y001793D01*
Y001813D01*
X006453Y001814D01*
X006471Y001827D01*
X006483Y001845D01*
X006487Y001866D01*
X006483Y001888D01*
X006471Y001906D01*
X006453Y001918D01*
X006445Y001920D01*
Y001940D01*
X006453Y001941D01*
X006471Y001954D01*
X006483Y001972D01*
X006487Y001993D01*
X006483Y002015D01*
X006471Y002033D01*
X006453Y002045D01*
X006445Y002047D01*
Y002067D01*
X006453Y002068D01*
X006471Y002081D01*
X006483Y002099D01*
X006487Y002120D01*
X006485Y002131D01*
X006503Y002142D01*
X006517Y002133D01*
X006540Y002129D01*
X006563Y002133D01*
X006583Y002147D01*
X006597Y002167D01*
X006601Y002190D01*
X006597Y002213D01*
X006583Y002233D01*
X006563Y002247D01*
X006540Y002251D01*
X006517Y002247D01*
X006506Y002239D01*
X006497Y002243D01*
X006487Y002251D01*
X006483Y002269D01*
X006471Y002287D01*
X006453Y002299D01*
X006445Y002301D01*
Y002321D01*
X006453Y002322D01*
X006471Y002335D01*
X006483Y002353D01*
X006487Y002374D01*
X006483Y002396D01*
X006471Y002414D01*
X006453Y002426D01*
X006431Y002430D01*
X006321D01*
X006300Y002426D01*
X006281Y002414D01*
X006269Y002396D01*
X006265Y002374D01*
X006269Y002353D01*
X006281Y002335D01*
X006300Y002322D01*
X006307Y002321D01*
Y002301D01*
X006300Y002299D01*
X006281Y002287D01*
X006269Y002269D01*
X006265Y002247D01*
X006269Y002226D01*
X006281Y002208D01*
X006300Y002195D01*
X006307Y002194D01*
Y002174D01*
X006300Y002172D01*
X006281Y002160D01*
X006269Y002142D01*
X006265Y002120D01*
X006269Y002099D01*
X006281Y002081D01*
X006300Y002068D01*
X006307Y002067D01*
Y002047D01*
X006300Y002045D01*
X006281Y002033D01*
X006269Y002015D01*
X006265Y001993D01*
X006269Y001972D01*
X006281Y001954D01*
X006300Y001941D01*
X006307Y001940D01*
Y001920D01*
X006300Y001918D01*
X006281Y001906D01*
X006269Y001888D01*
X006265Y001866D01*
X006269Y001845D01*
X006281Y001827D01*
X006300Y001814D01*
X006307Y001813D01*
Y001793D01*
X006300Y001791D01*
X006281Y001779D01*
X006269Y001761D01*
X006265Y001739D01*
X006269Y001718D01*
X006281Y001700D01*
X006300Y001687D01*
X006307Y001686D01*
Y001666D01*
X006300Y001664D01*
X006281Y001652D01*
X006261Y001657D01*
X006244Y001669D01*
X006220Y001673D01*
X006211Y001672D01*
X006191Y001687D01*
Y002202D01*
X006191Y002204D01*
Y002222D01*
X006173D01*
X006171Y002222D01*
X006102D01*
Y002261D01*
X006052D01*
X006002D01*
Y002239D01*
X005995Y002236D01*
X005978Y002252D01*
Y002309D01*
X005974Y002329D01*
X005967Y002340D01*
X005963Y002346D01*
X005971Y002365D01*
X005973Y002367D01*
X005987Y002387D01*
X005991Y002410D01*
X005987Y002433D01*
X005973Y002453D01*
X005953Y002467D01*
X005930Y002471D01*
X005921Y002469D01*
X005793Y002598D01*
Y002628D01*
X005817D01*
Y002778D01*
X005887D01*
Y002733D01*
X005947D01*
X006007D01*
Y002778D01*
X006062D01*
Y002630D01*
X006062D01*
Y002460D01*
X006086D01*
Y002451D01*
X006089Y002437D01*
X006097Y002425D01*
X006109Y002413D01*
X006109Y002410D01*
X006113Y002387D01*
X006127Y002367D01*
X006147Y002353D01*
X006170Y002349D01*
X006193Y002353D01*
X006213Y002367D01*
X006227Y002387D01*
X006231Y002410D01*
X006227Y002433D01*
X006213Y002453D01*
X006193Y002467D01*
X006182Y002469D01*
Y002628D01*
X006182D01*
Y002778D01*
X006252D01*
Y002630D01*
D02*
G37*
G36*
X006493Y001443D02*
X006497Y001437D01*
X006517Y001423D01*
X006540Y001419D01*
X006563Y001423D01*
X006570Y001428D01*
X006590Y001417D01*
Y001390D01*
X006704D01*
Y001300D01*
X006707Y001286D01*
X006715Y001275D01*
X006715Y001274D01*
X006707Y001255D01*
X006704Y001255D01*
X006684Y001262D01*
X006681Y001276D01*
X006673Y001287D01*
X006635Y001325D01*
X006624Y001333D01*
X006610Y001336D01*
X006588D01*
X006583Y001343D01*
X006563Y001357D01*
X006540Y001361D01*
X006517Y001357D01*
X006497Y001343D01*
X006483Y001323D01*
X006479Y001300D01*
X006483Y001277D01*
X006497Y001257D01*
X006517Y001243D01*
X006540Y001239D01*
X006563Y001243D01*
X006564Y001244D01*
X006584Y001233D01*
Y001182D01*
X006564Y001171D01*
X006563Y001172D01*
X006560Y001172D01*
Y001115D01*
Y001058D01*
X006563Y001058D01*
X006564Y001059D01*
X006575Y001055D01*
X006584Y001048D01*
X006587Y001038D01*
X006595Y001025D01*
X006607Y001017D01*
X006622Y001014D01*
X006629D01*
Y001070D01*
X006649D01*
Y001090D01*
X006715D01*
X006712Y001102D01*
X006704Y001114D01*
X006692Y001122D01*
X006681Y001125D01*
X006683Y001145D01*
X006714D01*
Y001236D01*
X006714Y001247D01*
X006734Y001256D01*
X006782Y001208D01*
X006774Y001190D01*
X006774D01*
Y001080D01*
X006804D01*
Y000848D01*
X006796Y000843D01*
X006783Y000823D01*
X006778Y000800D01*
X006783Y000777D01*
X006796Y000757D01*
X006816Y000743D01*
X006840Y000739D01*
X006863Y000743D01*
X006883Y000757D01*
X006896Y000777D01*
X006901Y000800D01*
X006896Y000823D01*
X006883Y000843D01*
X006875Y000848D01*
Y001080D01*
X006904D01*
Y001190D01*
X006875D01*
Y001201D01*
X006872Y001214D01*
X006865Y001226D01*
X006776Y001315D01*
Y001372D01*
X006780Y001390D01*
X006861D01*
X006865Y001389D01*
X006877D01*
X006881Y001386D01*
X006893Y001378D01*
X006906Y001375D01*
X006980D01*
Y001212D01*
X006980D01*
X006980Y001203D01*
X006980D01*
X006980Y001192D01*
Y001033D01*
X006980D01*
Y001025D01*
X006980D01*
Y000855D01*
X006981D01*
X006991Y000835D01*
X006983Y000823D01*
X006978Y000800D01*
X006983Y000777D01*
X006996Y000757D01*
X007016Y000743D01*
X007040Y000739D01*
X007063Y000743D01*
X007083Y000757D01*
X007096Y000777D01*
X007101Y000800D01*
X007096Y000823D01*
X007088Y000835D01*
X007098Y000855D01*
X007100D01*
Y001025D01*
X007100D01*
Y001033D01*
X007100D01*
Y001203D01*
X007100D01*
X007100Y001212D01*
X007100D01*
X007100Y001223D01*
Y001375D01*
X007170D01*
Y001223D01*
X007170Y001203D01*
X007170Y001192D01*
Y001138D01*
X007230D01*
X007290D01*
Y001192D01*
X007290Y001212D01*
X007290Y001223D01*
Y001261D01*
X007367D01*
Y001212D01*
X007367D01*
Y001202D01*
X007367D01*
Y001032D01*
X007459D01*
X007469Y001012D01*
X007466Y001007D01*
X007461Y000983D01*
X007466Y000960D01*
X007479Y000940D01*
X007499Y000927D01*
X007522Y000922D01*
X007546Y000927D01*
X007560Y000936D01*
X007686D01*
X007701Y000927D01*
X007701Y000926D01*
X007708Y000905D01*
X007514Y000711D01*
X006757D01*
X006659Y000809D01*
X006646Y000818D01*
X006630Y000821D01*
X006630Y000821D01*
X006570D01*
X006566Y000830D01*
X006550Y000851D01*
X006529Y000867D01*
X006504Y000877D01*
X006478Y000881D01*
X006438D01*
X006412Y000877D01*
X006388Y000867D01*
X006367Y000851D01*
X006351Y000830D01*
X006347Y000821D01*
X006270D01*
X006266Y000830D01*
X006255Y000844D01*
X006255Y000845D01*
X006257Y000866D01*
X006259Y000869D01*
X006262Y000871D01*
X006341Y000950D01*
X006341Y000950D01*
X006350Y000964D01*
X006353Y000979D01*
Y001208D01*
X006373D01*
Y001378D01*
X006266D01*
Y001433D01*
X006270Y001436D01*
X006286Y001442D01*
X006300Y001433D01*
X006321Y001429D01*
X006431D01*
X006453Y001433D01*
X006471Y001446D01*
X006493Y001443D01*
D02*
G37*
G36*
X004823Y001443D02*
X004827Y001437D01*
X004847Y001423D01*
X004870Y001419D01*
X004893Y001423D01*
X004900Y001428D01*
X004920Y001417D01*
Y001390D01*
X005034D01*
Y001320D01*
X005037Y001306D01*
X005045Y001295D01*
X005130Y001210D01*
X005125Y001190D01*
X005104D01*
Y001080D01*
X005144D01*
Y000855D01*
X005126Y000843D01*
X005113Y000823D01*
X005108Y000800D01*
X005113Y000777D01*
X005126Y000757D01*
X005146Y000743D01*
X005170Y000739D01*
X005193Y000743D01*
X005213Y000757D01*
X005226Y000777D01*
X005231Y000800D01*
X005226Y000823D01*
X005216Y000839D01*
Y000970D01*
X005236Y000981D01*
X005247Y000973D01*
X005270Y000969D01*
X005281Y000971D01*
X005287Y000965D01*
X005299Y000957D01*
X005310Y000955D01*
Y000855D01*
X005430D01*
Y001025D01*
X005430D01*
Y001033D01*
X005430D01*
Y001203D01*
X005430D01*
X005430Y001212D01*
X005430D01*
X005430Y001223D01*
Y001375D01*
X005500D01*
Y001223D01*
X005500Y001203D01*
X005500Y001192D01*
Y001138D01*
X005560D01*
X005620D01*
Y001192D01*
X005620Y001212D01*
X005620Y001223D01*
Y001261D01*
X005697D01*
Y001212D01*
X005697D01*
Y001202D01*
X005697D01*
Y001032D01*
X005789D01*
X005799Y001012D01*
X005796Y001007D01*
X005791Y000983D01*
X005796Y000960D01*
X005809Y000940D01*
X005829Y000927D01*
X005852Y000922D01*
X005876Y000927D01*
X005890Y000936D01*
X005980D01*
X005989Y000916D01*
X005971Y000899D01*
X005962Y000886D01*
X005959Y000870D01*
X005959Y000870D01*
Y000570D01*
X005959Y000570D01*
X005962Y000554D01*
X005971Y000541D01*
X005990Y000521D01*
X005990Y000521D01*
X006004Y000513D01*
X006019Y000510D01*
X006019Y000510D01*
X006051D01*
X006067Y000489D01*
X006088Y000473D01*
X006112Y000463D01*
X006131Y000460D01*
Y000440D01*
X006112Y000437D01*
X006088Y000427D01*
X006067Y000411D01*
X006051Y000390D01*
X006045Y000375D01*
X005974D01*
X005959Y000372D01*
X005946Y000363D01*
X005946Y000363D01*
X005873Y000291D01*
X005445D01*
X005438Y000311D01*
X005456Y000324D01*
X005475Y000349D01*
X005487Y000379D01*
X005488Y000390D01*
X005370D01*
X005252D01*
X005253Y000379D01*
X005265Y000349D01*
X005284Y000324D01*
X005302Y000311D01*
X005295Y000291D01*
X005017D01*
X004683Y000624D01*
Y000956D01*
X004703Y000962D01*
X004707Y000957D01*
X004727Y000943D01*
X004730Y000943D01*
Y001000D01*
Y001057D01*
X004727Y001057D01*
X004707Y001043D01*
X004703Y001038D01*
X004683Y001044D01*
Y001208D01*
X004703D01*
Y001378D01*
X004596D01*
Y001433D01*
X004600Y001436D01*
X004616Y001442D01*
X004630Y001433D01*
X004651Y001429D01*
X004761D01*
X004783Y001433D01*
X004801Y001446D01*
X004823Y001443D01*
D02*
G37*
%LPC*%
G36*
X003404Y006061D02*
X003305D01*
X003306Y006058D01*
X003287Y006048D01*
X003273Y006057D01*
X003270Y006057D01*
Y006000D01*
Y005943D01*
X003273Y005943D01*
X003293Y005957D01*
X003307Y005977D01*
X003311Y005998D01*
X003317Y006002D01*
X003330Y006005D01*
X003338Y005996D01*
X003363Y005976D01*
X003392Y005964D01*
X003404Y005963D01*
Y006061D01*
D02*
G37*
G36*
X003770Y006057D02*
Y006020D01*
X003807D01*
X003807Y006023D01*
X003793Y006043D01*
X003773Y006057D01*
X003770Y006057D01*
D02*
G37*
G36*
X003730D02*
X003727Y006057D01*
X003707Y006043D01*
X003693Y006023D01*
X003693Y006020D01*
X003730D01*
Y006057D01*
D02*
G37*
G36*
X003542Y006061D02*
X003444D01*
Y005963D01*
X003455Y005964D01*
X003484Y005976D01*
X003509Y005996D01*
X003528Y006021D01*
X003541Y006050D01*
X003542Y006061D01*
D02*
G37*
G36*
X003003Y006092D02*
X002953D01*
X002929Y006089D01*
X002907Y006080D01*
X002888Y006065D01*
X002874Y006047D01*
X002865Y006025D01*
X002862Y006001D01*
Y005951D01*
X003003D01*
Y006092D01*
D02*
G37*
G36*
X003807Y005980D02*
X003770D01*
Y005943D01*
X003773Y005943D01*
X003793Y005957D01*
X003807Y005977D01*
X003807Y005980D01*
D02*
G37*
G36*
X003730D02*
X003693D01*
X003693Y005977D01*
X003707Y005957D01*
X003727Y005943D01*
X003730Y005943D01*
Y005980D01*
D02*
G37*
G36*
X003093Y006092D02*
X003043D01*
Y005951D01*
X003183D01*
Y005956D01*
X003203Y005962D01*
X003207Y005957D01*
X003227Y005943D01*
X003230Y005943D01*
Y006000D01*
Y006057D01*
X003227Y006057D01*
X003207Y006043D01*
X003199Y006031D01*
X003177Y006033D01*
X003171Y006047D01*
X003157Y006065D01*
X003138Y006080D01*
X003116Y006089D01*
X003093Y006092D01*
D02*
G37*
G36*
X003444Y005900D02*
Y005801D01*
X003542D01*
X003541Y005813D01*
X003528Y005842D01*
X003509Y005867D01*
X003484Y005886D01*
X003455Y005898D01*
X003444Y005900D01*
D02*
G37*
G36*
X003404D02*
X003392Y005898D01*
X003363Y005886D01*
X003338Y005867D01*
X003319Y005842D01*
X003307Y005813D01*
X003305Y005801D01*
X003404D01*
Y005900D01*
D02*
G37*
G36*
X003183Y005911D02*
X003043D01*
Y005770D01*
X003093D01*
X003116Y005774D01*
X003138Y005783D01*
X003157Y005797D01*
X003171Y005816D01*
X003180Y005838D01*
X003183Y005861D01*
Y005911D01*
D02*
G37*
G36*
X003542Y005761D02*
X003444D01*
Y005663D01*
X003455Y005664D01*
X003484Y005676D01*
X003509Y005696D01*
X003528Y005721D01*
X003541Y005750D01*
X003542Y005761D01*
D02*
G37*
G36*
X003404D02*
X003305D01*
X003307Y005750D01*
X003319Y005721D01*
X003338Y005696D01*
X003363Y005676D01*
X003392Y005664D01*
X003404Y005663D01*
Y005761D01*
D02*
G37*
G36*
X004020Y005557D02*
Y005520D01*
X004057D01*
X004057Y005523D01*
X004043Y005543D01*
X004023Y005557D01*
X004020Y005557D01*
D02*
G37*
G36*
X003980D02*
X003977Y005557D01*
X003957Y005543D01*
X003943Y005523D01*
X003943Y005520D01*
X003980D01*
Y005557D01*
D02*
G37*
G36*
X004057Y005480D02*
X004020D01*
Y005443D01*
X004023Y005443D01*
X004043Y005457D01*
X004057Y005477D01*
X004057Y005480D01*
D02*
G37*
G36*
X003980D02*
X003943D01*
X003943Y005477D01*
X003957Y005457D01*
X003977Y005443D01*
X003980Y005443D01*
Y005480D01*
D02*
G37*
G36*
X003868Y005456D02*
X003861D01*
Y005420D01*
X003906D01*
X003903Y005432D01*
X003895Y005445D01*
X003883Y005453D01*
X003868Y005456D01*
D02*
G37*
G36*
X003821D02*
X003813D01*
X003798Y005453D01*
X003786Y005445D01*
X003778Y005432D01*
X003775Y005420D01*
X003821D01*
Y005456D01*
D02*
G37*
G36*
X003240Y005747D02*
X003217Y005742D01*
X003197Y005729D01*
X003183Y005709D01*
X003179Y005686D01*
X003183Y005662D01*
X003197Y005642D01*
X003208Y005635D01*
X003202Y005615D01*
X003200D01*
Y005457D01*
X003200Y005445D01*
X003200Y005425D01*
Y005372D01*
X003320D01*
Y005425D01*
X003320Y005437D01*
X003320Y005457D01*
Y005615D01*
X003285D01*
Y005645D01*
X003297Y005662D01*
X003301Y005686D01*
X003297Y005709D01*
X003283Y005729D01*
X003263Y005742D01*
X003240Y005747D01*
D02*
G37*
G36*
X004811Y006153D02*
X004779Y006149D01*
X004750Y006137D01*
X004725Y006118D01*
X004706Y006093D01*
X004694Y006064D01*
X004689Y006032D01*
X004694Y006001D01*
X004706Y005972D01*
X004725Y005947D01*
X004750Y005928D01*
X004779Y005915D01*
X004811Y005911D01*
X004842Y005915D01*
X004871Y005928D01*
X004896Y005947D01*
X004915Y005972D01*
X004927Y006001D01*
X004932Y006032D01*
X004927Y006064D01*
X004915Y006093D01*
X004896Y006118D01*
X004871Y006137D01*
X004842Y006149D01*
X004811Y006153D01*
D02*
G37*
G36*
X005445Y006316D02*
X005402Y006312D01*
X005360Y006299D01*
X005322Y006279D01*
X005289Y006251D01*
X005261Y006218D01*
X005241Y006180D01*
X005228Y006138D01*
X005224Y006095D01*
X005228Y006052D01*
X005241Y006010D01*
X005261Y005972D01*
X005289Y005939D01*
X005322Y005911D01*
X005360Y005891D01*
X005402Y005878D01*
X005445Y005874D01*
X005488Y005878D01*
X005530Y005891D01*
X005568Y005911D01*
X005601Y005939D01*
X005629Y005972D01*
X005649Y006010D01*
X005662Y006052D01*
X005666Y006095D01*
X005662Y006138D01*
X005649Y006180D01*
X005629Y006218D01*
X005601Y006251D01*
X005568Y006279D01*
X005530Y006299D01*
X005488Y006312D01*
X005445Y006316D01*
D02*
G37*
G36*
X005050Y005867D02*
Y005830D01*
X005087D01*
X005087Y005833D01*
X005073Y005853D01*
X005053Y005867D01*
X005050Y005867D01*
D02*
G37*
G36*
X005010D02*
X005007Y005867D01*
X004987Y005853D01*
X004973Y005833D01*
X004973Y005830D01*
X005010D01*
Y005867D01*
D02*
G37*
G36*
X005087Y005790D02*
X005050D01*
Y005753D01*
X005053Y005753D01*
X005073Y005767D01*
X005087Y005787D01*
X005087Y005790D01*
D02*
G37*
G36*
X005010D02*
X004973D01*
X004973Y005787D01*
X004987Y005767D01*
X005007Y005753D01*
X005010Y005753D01*
Y005790D01*
D02*
G37*
G36*
X004721Y005833D02*
X004689Y005829D01*
X004660Y005817D01*
X004635Y005798D01*
X004616Y005773D01*
X004604Y005744D01*
X004599Y005712D01*
X004604Y005681D01*
X004616Y005652D01*
X004635Y005627D01*
X004660Y005608D01*
X004689Y005595D01*
X004721Y005591D01*
X004752Y005595D01*
X004781Y005608D01*
X004806Y005627D01*
X004825Y005652D01*
X004837Y005681D01*
X004842Y005712D01*
X004837Y005744D01*
X004825Y005773D01*
X004806Y005798D01*
X004781Y005817D01*
X004752Y005829D01*
X004721Y005833D01*
D02*
G37*
G36*
X005538Y005456D02*
X005531D01*
Y005420D01*
X005576D01*
X005573Y005432D01*
X005565Y005445D01*
X005553Y005453D01*
X005538Y005456D01*
D02*
G37*
G36*
X005491D02*
X005483D01*
X005468Y005453D01*
X005456Y005445D01*
X005448Y005432D01*
X005445Y005420D01*
X005491D01*
Y005456D01*
D02*
G37*
G36*
X004930Y005741D02*
X004907Y005737D01*
X004887Y005723D01*
X004873Y005703D01*
X004869Y005680D01*
X004873Y005657D01*
X004887Y005637D01*
X004890Y005635D01*
X004884Y005615D01*
X004870D01*
Y005457D01*
X004870Y005445D01*
X004870Y005425D01*
Y005372D01*
X004990D01*
Y005425D01*
X004990Y005437D01*
X004990Y005457D01*
Y005615D01*
X004975D01*
X004970Y005635D01*
X004973Y005637D01*
X004987Y005657D01*
X004991Y005680D01*
X004987Y005703D01*
X004973Y005723D01*
X004953Y005737D01*
X004930Y005741D01*
D02*
G37*
G36*
X005640Y004874D02*
Y004837D01*
X005677D01*
X005677Y004840D01*
X005663Y004860D01*
X005643Y004873D01*
X005640Y004874D01*
D02*
G37*
G36*
X005677Y004797D02*
X005640D01*
Y004759D01*
X005643Y004760D01*
X005663Y004773D01*
X005677Y004793D01*
X005677Y004797D01*
D02*
G37*
G36*
X000435Y004835D02*
X000258D01*
Y004658D01*
X000435D01*
Y004835D01*
D02*
G37*
G36*
X000547Y004836D02*
X000523Y004833D01*
X000502Y004824D01*
X000483Y004810D01*
X000469Y004791D01*
X000460Y004770D01*
X000457Y004747D01*
X000460Y004724D01*
X000469Y004702D01*
X000483Y004684D01*
X000502Y004669D01*
X000523Y004660D01*
X000547Y004657D01*
X000570Y004660D01*
X000591Y004669D01*
X000610Y004684D01*
X000624Y004702D01*
X000633Y004724D01*
X000636Y004747D01*
X000633Y004770D01*
X000624Y004791D01*
X000610Y004810D01*
X000591Y004824D01*
X000570Y004833D01*
X000547Y004836D01*
D02*
G37*
G36*
Y004636D02*
X000523Y004633D01*
X000502Y004624D01*
X000483Y004610D01*
X000469Y004591D01*
X000460Y004570D01*
X000457Y004547D01*
X000460Y004524D01*
X000469Y004502D01*
X000483Y004484D01*
X000502Y004469D01*
X000523Y004460D01*
X000547Y004457D01*
X000570Y004460D01*
X000591Y004469D01*
X000610Y004484D01*
X000624Y004502D01*
X000633Y004524D01*
X000636Y004547D01*
X000633Y004570D01*
X000624Y004591D01*
X000610Y004610D01*
X000591Y004624D01*
X000570Y004633D01*
X000547Y004636D01*
D02*
G37*
G36*
X000347D02*
X000323Y004633D01*
X000302Y004624D01*
X000283Y004610D01*
X000269Y004591D01*
X000260Y004570D01*
X000257Y004547D01*
X000260Y004524D01*
X000269Y004502D01*
X000283Y004484D01*
X000302Y004469D01*
X000323Y004460D01*
X000347Y004457D01*
X000370Y004460D01*
X000391Y004469D01*
X000410Y004484D01*
X000424Y004502D01*
X000433Y004524D01*
X000436Y004547D01*
X000433Y004570D01*
X000424Y004591D01*
X000410Y004610D01*
X000391Y004624D01*
X000370Y004633D01*
X000347Y004636D01*
D02*
G37*
G36*
X000547Y004436D02*
X000523Y004433D01*
X000502Y004424D01*
X000483Y004410D01*
X000469Y004391D01*
X000460Y004370D01*
X000457Y004347D01*
X000460Y004324D01*
X000469Y004302D01*
X000483Y004284D01*
X000502Y004269D01*
X000523Y004260D01*
X000547Y004257D01*
X000570Y004260D01*
X000591Y004269D01*
X000610Y004284D01*
X000624Y004302D01*
X000633Y004324D01*
X000636Y004347D01*
X000633Y004370D01*
X000624Y004391D01*
X000610Y004410D01*
X000591Y004424D01*
X000570Y004433D01*
X000547Y004436D01*
D02*
G37*
G36*
X005620Y004341D02*
X005597Y004337D01*
X005577Y004323D01*
X005563Y004303D01*
X005559Y004280D01*
X005563Y004257D01*
X005577Y004237D01*
X005597Y004223D01*
X005620Y004219D01*
X005643Y004223D01*
X005663Y004237D01*
X005677Y004257D01*
X005681Y004280D01*
X005677Y004303D01*
X005663Y004323D01*
X005643Y004337D01*
X005620Y004341D01*
D02*
G37*
G36*
X005640Y004161D02*
Y004123D01*
X005677D01*
X005677Y004127D01*
X005663Y004147D01*
X005643Y004160D01*
X005640Y004161D01*
D02*
G37*
G36*
X005600D02*
X005597Y004160D01*
X005577Y004147D01*
X005563Y004127D01*
X005563Y004123D01*
X005600D01*
Y004161D01*
D02*
G37*
G36*
X001148Y004175D02*
X001118D01*
Y004115D01*
X001148D01*
Y004175D01*
D02*
G37*
G36*
X001078D02*
X001048D01*
Y004115D01*
X001078D01*
Y004175D01*
D02*
G37*
G36*
X000547Y004236D02*
X000523Y004233D01*
X000502Y004224D01*
X000483Y004210D01*
X000469Y004191D01*
X000460Y004170D01*
X000457Y004147D01*
X000460Y004124D01*
X000469Y004102D01*
X000483Y004084D01*
X000502Y004069D01*
X000523Y004060D01*
X000547Y004057D01*
X000570Y004060D01*
X000591Y004069D01*
X000610Y004084D01*
X000624Y004102D01*
X000633Y004124D01*
X000636Y004147D01*
X000633Y004170D01*
X000624Y004191D01*
X000610Y004210D01*
X000591Y004224D01*
X000570Y004233D01*
X000547Y004236D01*
D02*
G37*
G36*
X005677Y004083D02*
X005640D01*
Y004046D01*
X005643Y004047D01*
X005663Y004060D01*
X005677Y004080D01*
X005677Y004083D01*
D02*
G37*
G36*
X005600D02*
X005563D01*
X005563Y004080D01*
X005577Y004060D01*
X005597Y004047D01*
X005600Y004046D01*
Y004083D01*
D02*
G37*
G36*
X000898Y004010D02*
X000858D01*
Y003945D01*
X000898D01*
Y004010D01*
D02*
G37*
G36*
X000818D02*
X000778D01*
Y003945D01*
X000818D01*
Y004010D01*
D02*
G37*
G36*
X005538Y003961D02*
X005530D01*
Y003925D01*
X005575D01*
X005573Y003937D01*
X005565Y003950D01*
X005552Y003958D01*
X005538Y003961D01*
D02*
G37*
G36*
X005490D02*
X005483D01*
X005468Y003958D01*
X005456Y003950D01*
X005447Y003937D01*
X005445Y003925D01*
X005490D01*
Y003961D01*
D02*
G37*
G36*
X001263Y003832D02*
X001223D01*
Y003767D01*
X001263D01*
Y003832D01*
D02*
G37*
G36*
X001183D02*
X001143D01*
Y003767D01*
X001183D01*
Y003832D01*
D02*
G37*
G36*
X001263Y003727D02*
X001223D01*
Y003662D01*
X001263D01*
Y003727D01*
D02*
G37*
G36*
X007677Y002808D02*
X007637D01*
Y002743D01*
X007677D01*
Y002808D01*
D02*
G37*
G36*
X004337D02*
X004297D01*
Y002743D01*
X004337D01*
Y002808D01*
D02*
G37*
G36*
X007597D02*
X007557D01*
Y002743D01*
X007597D01*
Y002808D01*
D02*
G37*
G36*
X004257D02*
X004217D01*
Y002743D01*
X004257D01*
Y002808D01*
D02*
G37*
G36*
X004751Y002834D02*
X004728Y002830D01*
X004708Y002816D01*
X004703Y002809D01*
X004643D01*
X004640Y002808D01*
X004582D01*
Y002650D01*
X004582Y002630D01*
X004582Y002618D01*
Y002565D01*
X004642D01*
Y002545D01*
X004662D01*
Y002460D01*
X004702D01*
Y002485D01*
X004705Y002487D01*
X004722Y002493D01*
X004737Y002483D01*
X004740Y002483D01*
Y002540D01*
Y002597D01*
X004737Y002597D01*
X004722Y002587D01*
X004705Y002593D01*
X004702Y002595D01*
Y002618D01*
X004702Y002638D01*
X004702Y002650D01*
Y002710D01*
X004722Y002721D01*
X004728Y002717D01*
X004751Y002712D01*
X004775Y002717D01*
X004795Y002730D01*
X004808Y002750D01*
X004812Y002773D01*
X004808Y002797D01*
X004795Y002816D01*
X004775Y002830D01*
X004751Y002834D01*
D02*
G37*
G36*
X008042Y002808D02*
X007922D01*
Y002650D01*
X007922Y002630D01*
X007922Y002618D01*
Y002565D01*
X008042D01*
Y002618D01*
X008042Y002638D01*
X008042Y002650D01*
Y002689D01*
X008097D01*
X008104Y002680D01*
X008124Y002667D01*
X008147Y002662D01*
X008170Y002667D01*
X008190Y002680D01*
X008204Y002700D01*
X008208Y002723D01*
X008204Y002747D01*
X008190Y002766D01*
X008170Y002780D01*
X008147Y002784D01*
X008124Y002780D01*
X008104Y002766D01*
X008100Y002761D01*
X008042D01*
Y002808D01*
D02*
G37*
G36*
X000347Y002836D02*
X000323Y002833D01*
X000302Y002824D01*
X000283Y002810D01*
X000269Y002791D01*
X000260Y002770D01*
X000257Y002747D01*
X000260Y002724D01*
X000269Y002702D01*
X000283Y002684D01*
X000302Y002669D01*
X000323Y002660D01*
X000347Y002657D01*
X000370Y002660D01*
X000391Y002669D01*
X000410Y002684D01*
X000424Y002702D01*
X000433Y002724D01*
X000436Y002747D01*
X000433Y002770D01*
X000424Y002791D01*
X000410Y002810D01*
X000391Y002824D01*
X000370Y002833D01*
X000347Y002836D01*
D02*
G37*
G36*
X007677Y002703D02*
X007637D01*
Y002638D01*
X007677D01*
Y002703D01*
D02*
G37*
G36*
X007597D02*
X007557D01*
Y002638D01*
X007597D01*
Y002703D01*
D02*
G37*
G36*
X004337D02*
X004297D01*
Y002638D01*
X004337D01*
Y002703D01*
D02*
G37*
G36*
X004257D02*
X004217D01*
Y002638D01*
X004257D01*
Y002703D01*
D02*
G37*
G36*
X000567Y002634D02*
Y002567D01*
X000633D01*
X000633Y002570D01*
X000624Y002591D01*
X000610Y002610D01*
X000591Y002624D01*
X000570Y002633D01*
X000567Y002634D01*
D02*
G37*
G36*
X000527D02*
X000523Y002633D01*
X000502Y002624D01*
X000483Y002610D01*
X000469Y002591D01*
X000460Y002570D01*
X000460Y002567D01*
X000527D01*
Y002634D01*
D02*
G37*
G36*
X000367D02*
Y002567D01*
X000433D01*
X000433Y002570D01*
X000424Y002591D01*
X000410Y002610D01*
X000391Y002624D01*
X000370Y002633D01*
X000367Y002634D01*
D02*
G37*
G36*
X000327D02*
X000323Y002633D01*
X000302Y002624D01*
X000283Y002610D01*
X000269Y002591D01*
X000260Y002570D01*
X000260Y002567D01*
X000327D01*
Y002634D01*
D02*
G37*
G36*
X004780Y002597D02*
Y002560D01*
X004817D01*
X004817Y002563D01*
X004803Y002583D01*
X004783Y002597D01*
X004780Y002597D01*
D02*
G37*
G36*
X002520Y002557D02*
Y002520D01*
X002557D01*
X002557Y002523D01*
X002543Y002543D01*
X002523Y002557D01*
X002520Y002557D01*
D02*
G37*
G36*
X002480D02*
X002477Y002557D01*
X002457Y002543D01*
X002443Y002523D01*
X002443Y002520D01*
X002480D01*
Y002557D01*
D02*
G37*
G36*
X001020D02*
Y002520D01*
X001057D01*
X001057Y002523D01*
X001043Y002543D01*
X001023Y002557D01*
X001020Y002557D01*
D02*
G37*
G36*
X000980D02*
X000977Y002557D01*
X000957Y002543D01*
X000943Y002523D01*
X000943Y002520D01*
X000980D01*
Y002557D01*
D02*
G37*
G36*
X004960Y002545D02*
X004915D01*
X004917Y002533D01*
X004925Y002520D01*
X004938Y002512D01*
X004952Y002509D01*
X004960D01*
Y002545D01*
D02*
G37*
G36*
X003375Y002545D02*
X003330D01*
Y002509D01*
X003337D01*
X003352Y002512D01*
X003364Y002520D01*
X003373Y002533D01*
X003375Y002545D01*
D02*
G37*
G36*
X003290D02*
X003245D01*
X003247Y002533D01*
X003255Y002520D01*
X003268Y002512D01*
X003282Y002509D01*
X003290D01*
Y002545D01*
D02*
G37*
G36*
X004817Y002520D02*
X004780D01*
Y002483D01*
X004783Y002483D01*
X004803Y002497D01*
X004817Y002517D01*
X004817Y002520D01*
D02*
G37*
G36*
X000633Y002527D02*
X000567D01*
Y002460D01*
X000570Y002460D01*
X000591Y002469D01*
X000610Y002484D01*
X000624Y002502D01*
X000633Y002524D01*
X000633Y002527D01*
D02*
G37*
G36*
X000527D02*
X000460D01*
X000460Y002524D01*
X000469Y002502D01*
X000483Y002484D01*
X000502Y002469D01*
X000523Y002460D01*
X000527Y002460D01*
Y002527D01*
D02*
G37*
G36*
X000433D02*
X000367D01*
Y002460D01*
X000370Y002460D01*
X000391Y002469D01*
X000410Y002484D01*
X000424Y002502D01*
X000433Y002524D01*
X000433Y002527D01*
D02*
G37*
G36*
X000327D02*
X000260D01*
X000260Y002524D01*
X000269Y002502D01*
X000283Y002484D01*
X000302Y002469D01*
X000323Y002460D01*
X000327Y002460D01*
Y002527D01*
D02*
G37*
G36*
X008042Y002525D02*
X008002D01*
Y002460D01*
X008042D01*
Y002525D01*
D02*
G37*
G36*
X007962D02*
X007922D01*
Y002460D01*
X007962D01*
Y002525D01*
D02*
G37*
G36*
X004622D02*
X004582D01*
Y002460D01*
X004622D01*
Y002525D01*
D02*
G37*
G36*
X002557Y002480D02*
X002520D01*
Y002443D01*
X002523Y002443D01*
X002543Y002457D01*
X002557Y002477D01*
X002557Y002480D01*
D02*
G37*
G36*
X002480D02*
X002443D01*
X002443Y002477D01*
X002457Y002457D01*
X002477Y002443D01*
X002480Y002443D01*
Y002480D01*
D02*
G37*
G36*
X001057D02*
X001020D01*
Y002443D01*
X001023Y002443D01*
X001043Y002457D01*
X001057Y002477D01*
X001057Y002480D01*
D02*
G37*
G36*
X000980D02*
X000943D01*
X000943Y002477D01*
X000957Y002457D01*
X000977Y002443D01*
X000980Y002443D01*
Y002480D01*
D02*
G37*
G36*
X007852Y002808D02*
X007732D01*
Y002638D01*
X007732D01*
X007732Y002630D01*
X007732D01*
X007732Y002618D01*
Y002460D01*
X007756D01*
Y002450D01*
X007759Y002436D01*
X007767Y002425D01*
X007784Y002408D01*
X007788Y002387D01*
X007801Y002367D01*
X007821Y002353D01*
X007844Y002349D01*
X007868Y002353D01*
X007888Y002367D01*
X007901Y002387D01*
X007906Y002410D01*
X007901Y002433D01*
X007888Y002453D01*
X007868Y002467D01*
X007852Y002470D01*
Y002630D01*
X007852D01*
X007852Y002638D01*
X007852D01*
X007852Y002650D01*
Y002808D01*
D02*
G37*
G36*
X004512D02*
X004392D01*
Y002638D01*
X004392D01*
X004392Y002630D01*
X004392D01*
X004392Y002618D01*
Y002460D01*
X004416D01*
Y002445D01*
X004419Y002431D01*
X004427Y002419D01*
X004452Y002394D01*
X004452Y002394D01*
X004453Y002387D01*
X004467Y002367D01*
X004487Y002353D01*
X004510Y002349D01*
X004533Y002353D01*
X004553Y002367D01*
X004567Y002387D01*
X004571Y002410D01*
X004567Y002433D01*
X004553Y002453D01*
X004533Y002467D01*
X004512Y002471D01*
Y002630D01*
X004512D01*
X004512Y002638D01*
X004512D01*
X004512Y002650D01*
Y002808D01*
D02*
G37*
G36*
X008395Y002766D02*
X008352Y002762D01*
X008311Y002749D01*
X008272Y002729D01*
X008239Y002701D01*
X008211Y002668D01*
X008191Y002629D01*
X008178Y002588D01*
X008174Y002545D01*
X008178Y002502D01*
X008191Y002460D01*
X008211Y002422D01*
X008239Y002388D01*
X008272Y002361D01*
X008311Y002340D01*
X008352Y002328D01*
X008395Y002324D01*
X008438Y002328D01*
X008480Y002340D01*
X008518Y002361D01*
X008551Y002388D01*
X008579Y002422D01*
X008599Y002460D01*
X008612Y002502D01*
X008616Y002545D01*
X008612Y002588D01*
X008599Y002629D01*
X008579Y002668D01*
X008551Y002701D01*
X008518Y002729D01*
X008480Y002749D01*
X008438Y002762D01*
X008395Y002766D01*
D02*
G37*
G36*
X007772Y002361D02*
X007742D01*
Y002301D01*
X007772D01*
Y002361D01*
D02*
G37*
G36*
X007702D02*
X007672D01*
Y002301D01*
X007702D01*
Y002361D01*
D02*
G37*
G36*
X004432D02*
X004402D01*
Y002301D01*
X004432D01*
Y002361D01*
D02*
G37*
G36*
X004362D02*
X004332D01*
Y002301D01*
X004362D01*
Y002361D01*
D02*
G37*
G36*
X000347Y002436D02*
X000323Y002433D01*
X000302Y002424D01*
X000283Y002410D01*
X000269Y002391D01*
X000260Y002370D01*
X000257Y002347D01*
X000260Y002324D01*
X000269Y002302D01*
X000283Y002284D01*
X000302Y002269D01*
X000323Y002260D01*
X000347Y002257D01*
X000370Y002260D01*
X000391Y002269D01*
X000410Y002284D01*
X000424Y002302D01*
X000433Y002324D01*
X000436Y002347D01*
X000433Y002370D01*
X000424Y002391D01*
X000410Y002410D01*
X000391Y002424D01*
X000370Y002433D01*
X000347Y002436D01*
D02*
G37*
G36*
X000547Y002436D02*
X000523Y002433D01*
X000502Y002424D01*
X000483Y002410D01*
X000469Y002391D01*
X000460Y002370D01*
X000457Y002347D01*
X000460Y002324D01*
X000469Y002302D01*
X000483Y002284D01*
X000502Y002269D01*
X000523Y002260D01*
X000547Y002257D01*
X000570Y002260D01*
X000591Y002269D01*
X000610Y002284D01*
X000624Y002302D01*
X000633Y002324D01*
X000636Y002347D01*
X000633Y002370D01*
X000624Y002391D01*
X000610Y002410D01*
X000591Y002424D01*
X000570Y002433D01*
X000547Y002436D01*
D02*
G37*
G36*
X008270Y002057D02*
Y002020D01*
X008307D01*
X008307Y002023D01*
X008293Y002043D01*
X008273Y002057D01*
X008270Y002057D01*
D02*
G37*
G36*
X008230D02*
X008227Y002057D01*
X008207Y002043D01*
X008193Y002023D01*
X008193Y002020D01*
X008230D01*
Y002057D01*
D02*
G37*
G36*
X002090Y002017D02*
Y001980D01*
X002127D01*
X002127Y001983D01*
X002113Y002003D01*
X002093Y002017D01*
X002090Y002017D01*
D02*
G37*
G36*
X002050D02*
X002047Y002017D01*
X002027Y002003D01*
X002013Y001983D01*
X002013Y001980D01*
X002050D01*
Y002017D01*
D02*
G37*
G36*
X008307Y001980D02*
X008270D01*
Y001943D01*
X008273Y001943D01*
X008293Y001957D01*
X008307Y001977D01*
X008307Y001980D01*
D02*
G37*
G36*
X008230D02*
X008193D01*
X008193Y001977D01*
X008207Y001957D01*
X008227Y001943D01*
X008230Y001943D01*
Y001980D01*
D02*
G37*
G36*
X004890Y001947D02*
Y001910D01*
X004927D01*
X004927Y001913D01*
X004913Y001933D01*
X004893Y001947D01*
X004890Y001947D01*
D02*
G37*
G36*
X002127Y001940D02*
X002090D01*
Y001903D01*
X002093Y001903D01*
X002113Y001917D01*
X002127Y001937D01*
X002127Y001940D01*
D02*
G37*
G36*
X002050D02*
X002013D01*
X002013Y001937D01*
X002027Y001917D01*
X002047Y001903D01*
X002050Y001903D01*
Y001940D01*
D02*
G37*
G36*
X003265Y001937D02*
Y001900D01*
X003302D01*
X003302Y001903D01*
X003288Y001923D01*
X003268Y001937D01*
X003265Y001937D01*
D02*
G37*
G36*
X003225D02*
X003222Y001937D01*
X003202Y001923D01*
X003188Y001903D01*
X003188Y001900D01*
X003225D01*
Y001937D01*
D02*
G37*
G36*
X001443Y002155D02*
X001420Y002151D01*
X001400Y002137D01*
X001387Y002118D01*
X001382Y002094D01*
X001384Y002087D01*
X001315Y002017D01*
X001245D01*
Y001848D01*
X001365D01*
Y001967D01*
X001433Y002035D01*
X001443Y002033D01*
X001448Y002034D01*
X001515Y001967D01*
Y001848D01*
X001635D01*
Y002017D01*
X001565D01*
X001502Y002081D01*
X001504Y002094D01*
X001500Y002118D01*
X001487Y002137D01*
X001467Y002151D01*
X001443Y002155D01*
D02*
G37*
G36*
X004927Y001870D02*
X004890D01*
Y001833D01*
X004893Y001833D01*
X004913Y001847D01*
X004927Y001867D01*
X004927Y001870D01*
D02*
G37*
G36*
X003302Y001860D02*
X003265D01*
Y001823D01*
X003268Y001823D01*
X003288Y001837D01*
X003302Y001857D01*
X003302Y001860D01*
D02*
G37*
G36*
X003225D02*
X003188D01*
X003188Y001857D01*
X003202Y001837D01*
X003222Y001823D01*
X003225Y001823D01*
Y001860D01*
D02*
G37*
G36*
X001594Y001801D02*
Y001752D01*
X001643D01*
X001636Y001768D01*
X001625Y001783D01*
X001610Y001794D01*
X001594Y001801D01*
D02*
G37*
G36*
X001326D02*
Y001752D01*
X001374D01*
X001367Y001768D01*
X001356Y001783D01*
X001341Y001794D01*
X001326Y001801D01*
D02*
G37*
G36*
X001285D02*
X001270Y001794D01*
X001255Y001783D01*
X001244Y001768D01*
X001237Y001752D01*
X001285D01*
Y001801D01*
D02*
G37*
G36*
X001555D02*
X001539Y001794D01*
X001524Y001783D01*
X001513Y001768D01*
X001506Y001752D01*
X001555D01*
Y001801D01*
D02*
G37*
G36*
X004959Y001738D02*
X004919D01*
Y001673D01*
X004959D01*
Y001738D01*
D02*
G37*
G36*
X003369D02*
X003329D01*
Y001673D01*
X003369D01*
Y001738D01*
D02*
G37*
G36*
X001643Y001712D02*
X001594D01*
Y001664D01*
X001610Y001671D01*
X001625Y001682D01*
X001636Y001697D01*
X001643Y001712D01*
D02*
G37*
G36*
X001374D02*
X001326D01*
Y001664D01*
X001341Y001671D01*
X001356Y001682D01*
X001367Y001697D01*
X001374Y001712D01*
D02*
G37*
G36*
X001555D02*
X001506D01*
X001513Y001697D01*
X001524Y001682D01*
X001539Y001671D01*
X001555Y001664D01*
Y001712D01*
D02*
G37*
G36*
X001285D02*
X001237D01*
X001244Y001697D01*
X001255Y001682D01*
X001270Y001671D01*
X001285Y001664D01*
Y001712D01*
D02*
G37*
G36*
X001825Y002017D02*
X001705D01*
Y001848D01*
X001734D01*
Y001796D01*
X001729Y001794D01*
X001715Y001783D01*
X001703Y001768D01*
X001696Y001751D01*
X001694Y001733D01*
X001696Y001714D01*
X001703Y001697D01*
X001715Y001682D01*
X001729Y001671D01*
X001747Y001664D01*
X001765Y001661D01*
X001783Y001664D01*
X001801Y001671D01*
X001815Y001682D01*
X001827Y001697D01*
X001834Y001714D01*
X001836Y001733D01*
X001834Y001751D01*
X001827Y001768D01*
X001815Y001783D01*
X001801Y001794D01*
X001796Y001796D01*
Y001848D01*
X001825D01*
Y002017D01*
D02*
G37*
G36*
X001175Y002017D02*
X001055D01*
Y001848D01*
X001084D01*
Y001796D01*
X001079Y001794D01*
X001065Y001783D01*
X001053Y001768D01*
X001046Y001751D01*
X001044Y001733D01*
X001046Y001714D01*
X001053Y001697D01*
X001065Y001682D01*
X001079Y001671D01*
X001097Y001664D01*
X001115Y001661D01*
X001133Y001664D01*
X001151Y001671D01*
X001165Y001682D01*
X001177Y001697D01*
X001184Y001714D01*
X001186Y001733D01*
X001184Y001751D01*
X001177Y001768D01*
X001165Y001783D01*
X001151Y001794D01*
X001146Y001796D01*
Y001848D01*
X001175D01*
Y002017D01*
D02*
G37*
G36*
X000395Y002066D02*
X000352Y002062D01*
X000310Y002049D01*
X000272Y002029D01*
X000239Y002001D01*
X000211Y001968D01*
X000191Y001930D01*
X000178Y001888D01*
X000174Y001845D01*
X000178Y001802D01*
X000191Y001760D01*
X000211Y001722D01*
X000239Y001689D01*
X000272Y001661D01*
X000310Y001641D01*
X000352Y001628D01*
X000395Y001624D01*
X000438Y001628D01*
X000480Y001641D01*
X000518Y001661D01*
X000551Y001689D01*
X000579Y001722D01*
X000599Y001760D01*
X000612Y001802D01*
X000616Y001845D01*
X000612Y001888D01*
X000599Y001930D01*
X000579Y001968D01*
X000551Y002001D01*
X000518Y002029D01*
X000480Y002049D01*
X000438Y002062D01*
X000395Y002066D01*
D02*
G37*
G36*
X003375Y001050D02*
X003329D01*
Y001014D01*
X003337D01*
X003352Y001017D01*
X003364Y001025D01*
X003372Y001038D01*
X003375Y001050D01*
D02*
G37*
G36*
X003289D02*
X003244D01*
X003247Y001038D01*
X003255Y001025D01*
X003267Y001017D01*
X003282Y001014D01*
X003289D01*
Y001050D01*
D02*
G37*
G36*
X003205Y000997D02*
Y000960D01*
X003242D01*
X003242Y000964D01*
X003228Y000983D01*
X003208Y000997D01*
X003205Y000997D01*
D02*
G37*
G36*
X003165D02*
X003162Y000997D01*
X003142Y000983D01*
X003128Y000964D01*
X003128Y000960D01*
X003165D01*
Y000997D01*
D02*
G37*
G36*
X003242Y000920D02*
X003205D01*
Y000883D01*
X003208Y000884D01*
X003228Y000897D01*
X003242Y000917D01*
X003242Y000920D01*
D02*
G37*
G36*
X003165D02*
X003128D01*
X003128Y000917D01*
X003142Y000897D01*
X003162Y000884D01*
X003165Y000883D01*
Y000920D01*
D02*
G37*
G36*
X003950Y001098D02*
X003890D01*
X003830D01*
Y001045D01*
X003830Y001033D01*
X003830Y001013D01*
Y000855D01*
X003831D01*
X003842Y000835D01*
X003834Y000823D01*
X003829Y000800D01*
X003834Y000777D01*
X003847Y000757D01*
X003867Y000743D01*
X003890Y000739D01*
X003914Y000743D01*
X003929Y000754D01*
X003938Y000752D01*
X003943Y000750D01*
X003950Y000745D01*
X003953Y000719D01*
X003965Y000689D01*
X003984Y000664D01*
X004009Y000645D01*
X004039Y000633D01*
X004070Y000629D01*
X004101Y000633D01*
X004131Y000645D01*
X004156Y000664D01*
X004175Y000689D01*
X004187Y000719D01*
X004191Y000750D01*
X004187Y000781D01*
X004175Y000811D01*
X004156Y000836D01*
X004131Y000855D01*
X004101Y000867D01*
X004070Y000871D01*
X004039Y000867D01*
X004009Y000855D01*
X003984Y000836D01*
X003969Y000815D01*
X003952Y000817D01*
X003948Y000819D01*
X003947Y000821D01*
X003947Y000823D01*
X003944Y000827D01*
X003940Y000837D01*
X003949Y000855D01*
X003950D01*
Y001013D01*
X003950Y001025D01*
X003950Y001045D01*
Y001098D01*
D02*
G37*
G36*
X003980Y000571D02*
X003949Y000567D01*
X003919Y000555D01*
X003894Y000536D01*
X003875Y000511D01*
X003863Y000481D01*
X003859Y000450D01*
X003863Y000419D01*
X003875Y000389D01*
X003894Y000364D01*
X003919Y000345D01*
X003949Y000333D01*
X003980Y000329D01*
X004011Y000333D01*
X004041Y000345D01*
X004066Y000364D01*
X004085Y000389D01*
X004097Y000419D01*
X004101Y000450D01*
X004097Y000481D01*
X004085Y000511D01*
X004066Y000536D01*
X004041Y000555D01*
X004011Y000567D01*
X003980Y000571D01*
D02*
G37*
G36*
X003345Y000616D02*
X003302Y000612D01*
X003260Y000599D01*
X003222Y000579D01*
X003189Y000551D01*
X003161Y000518D01*
X003141Y000480D01*
X003128Y000438D01*
X003124Y000395D01*
X003128Y000352D01*
X003141Y000310D01*
X003161Y000272D01*
X003189Y000239D01*
X003222Y000211D01*
X003260Y000191D01*
X003302Y000178D01*
X003345Y000174D01*
X003388Y000178D01*
X003430Y000191D01*
X003468Y000211D01*
X003501Y000239D01*
X003529Y000272D01*
X003549Y000310D01*
X003562Y000352D01*
X003566Y000395D01*
X003562Y000438D01*
X003549Y000480D01*
X003529Y000518D01*
X003501Y000551D01*
X003468Y000579D01*
X003430Y000599D01*
X003388Y000612D01*
X003345Y000616D01*
D02*
G37*
G36*
X001467Y005690D02*
X001430D01*
Y005653D01*
X001433Y005653D01*
X001453Y005667D01*
X001467Y005687D01*
X001467Y005690D01*
D02*
G37*
G36*
X001390D02*
X001353D01*
X001353Y005687D01*
X001367Y005667D01*
X001387Y005653D01*
X001390Y005653D01*
Y005690D01*
D02*
G37*
G36*
X002310Y005497D02*
Y005460D01*
X002347D01*
X002347Y005463D01*
X002333Y005483D01*
X002313Y005497D01*
X002310Y005497D01*
D02*
G37*
G36*
X002270D02*
X002267Y005497D01*
X002247Y005483D01*
X002233Y005463D01*
X002233Y005463D01*
X002213Y005453D01*
X002198Y005456D01*
X002191D01*
Y005400D01*
X002171D01*
Y005380D01*
X002105D01*
X002108Y005368D01*
X002116Y005356D01*
X002128Y005348D01*
X002139Y005345D01*
X002137Y005325D01*
X002106D01*
Y005215D01*
X002136D01*
Y005208D01*
X002139Y005194D01*
X002147Y005183D01*
X002185Y005145D01*
X002196Y005137D01*
X002210Y005134D01*
X002242D01*
X002247Y005127D01*
X002267Y005113D01*
X002290Y005109D01*
X002313Y005113D01*
X002333Y005127D01*
X002347Y005147D01*
X002351Y005170D01*
X002347Y005193D01*
X002333Y005213D01*
X002313Y005227D01*
X002290Y005231D01*
X002267Y005227D01*
X002256Y005219D01*
X002236Y005230D01*
Y005325D01*
X002204D01*
X002202Y005345D01*
X002213Y005348D01*
X002225Y005356D01*
X002233Y005368D01*
X002236Y005380D01*
X002244Y005386D01*
X002256Y005390D01*
X002267Y005383D01*
X002270Y005383D01*
Y005440D01*
Y005497D01*
D02*
G37*
G36*
X002151Y005456D02*
X002143D01*
X002128Y005453D01*
X002116Y005445D01*
X002108Y005432D01*
X002105Y005420D01*
X002151D01*
Y005456D01*
D02*
G37*
G36*
X002347Y005420D02*
X002310D01*
Y005383D01*
X002313Y005383D01*
X002333Y005397D01*
X002347Y005417D01*
X002347Y005420D01*
D02*
G37*
G36*
X002231Y004797D02*
X002191D01*
Y004732D01*
X002231D01*
Y004797D01*
D02*
G37*
G36*
X002270Y004717D02*
X002267Y004717D01*
X002247Y004703D01*
X002233Y004683D01*
X002233Y004680D01*
X002270D01*
Y004717D01*
D02*
G37*
G36*
Y004640D02*
X002233D01*
X002233Y004637D01*
X002247Y004617D01*
X002267Y004603D01*
X002270Y004603D01*
Y004640D01*
D02*
G37*
G36*
X002818Y004175D02*
X002788D01*
Y004115D01*
X002818D01*
Y004175D01*
D02*
G37*
G36*
X002748D02*
X002718D01*
Y004115D01*
X002748D01*
Y004175D01*
D02*
G37*
G36*
X002568Y004010D02*
X002528D01*
Y003945D01*
X002568D01*
Y004010D01*
D02*
G37*
G36*
X002380Y003982D02*
X002377Y003982D01*
X002357Y003968D01*
X002343Y003949D01*
X002343Y003945D01*
X002380D01*
Y003982D01*
D02*
G37*
G36*
X002198Y003961D02*
X002190D01*
Y003925D01*
X002235D01*
X002233Y003937D01*
X002225Y003950D01*
X002212Y003958D01*
X002198Y003961D01*
D02*
G37*
G36*
X002933Y003832D02*
X002893D01*
Y003767D01*
X002933D01*
Y003832D01*
D02*
G37*
G36*
X002853D02*
X002813D01*
Y003767D01*
X002853D01*
Y003832D01*
D02*
G37*
G36*
X002640Y004121D02*
X002617Y004117D01*
X002597Y004103D01*
X002583Y004083D01*
X002579Y004060D01*
X002583Y004037D01*
X002597Y004017D01*
X002607Y004010D01*
Y004005D01*
X002610Y003992D01*
X002618Y003980D01*
X002638Y003960D01*
Y003840D01*
X002638D01*
X002638Y003832D01*
X002638D01*
X002638Y003820D01*
Y003662D01*
X002758D01*
Y003832D01*
X002758D01*
X002758Y003840D01*
X002758D01*
X002758Y003852D01*
Y004010D01*
X002703D01*
X002692Y004030D01*
X002697Y004037D01*
X002701Y004060D01*
X002697Y004083D01*
X002683Y004103D01*
X002663Y004117D01*
X002640Y004121D01*
D02*
G37*
G36*
X002933Y003727D02*
X002893D01*
Y003662D01*
X002933D01*
Y003727D01*
D02*
G37*
G36*
X002853D02*
X002813D01*
Y003662D01*
X002853D01*
Y003727D01*
D02*
G37*
G36*
X003901Y004797D02*
X003861D01*
Y004732D01*
X003901D01*
Y004797D01*
D02*
G37*
G36*
X003926Y004717D02*
X003923Y004717D01*
X003903Y004703D01*
X003890Y004683D01*
X003889Y004680D01*
X003926D01*
Y004717D01*
D02*
G37*
G36*
Y004640D02*
X003889D01*
X003890Y004637D01*
X003903Y004617D01*
X003923Y004603D01*
X003926Y004603D01*
Y004640D01*
D02*
G37*
G36*
X004488Y004175D02*
X004458D01*
Y004115D01*
X004488D01*
Y004175D01*
D02*
G37*
G36*
X004418D02*
X004388D01*
X004388Y004131D01*
Y004131D01*
Y004131D01*
X004388Y004124D01*
X004368Y004113D01*
X004363Y004117D01*
X004340Y004121D01*
X004317Y004117D01*
X004297Y004103D01*
X004283Y004083D01*
X004279Y004060D01*
X004283Y004037D01*
X004297Y004017D01*
X004308Y004009D01*
Y003840D01*
X004308D01*
X004308Y003832D01*
X004308D01*
X004308Y003820D01*
Y003662D01*
X004428D01*
Y003832D01*
X004428D01*
X004428Y003840D01*
X004428D01*
X004428Y003852D01*
Y004010D01*
X004404D01*
Y004029D01*
X004401Y004043D01*
X004399Y004047D01*
X004401Y004060D01*
X004397Y004083D01*
X004388Y004095D01*
X004398Y004115D01*
X004404Y004115D01*
X004418D01*
Y004175D01*
D02*
G37*
G36*
X004158Y004010D02*
X004118D01*
Y003991D01*
X004104Y003983D01*
X004098Y003982D01*
X004097Y003982D01*
Y003925D01*
X004077D01*
Y003905D01*
X004020D01*
X004021Y003902D01*
X004034Y003882D01*
X004038Y003879D01*
Y003855D01*
X004034Y003853D01*
X004021Y003833D01*
X004016Y003809D01*
X004021Y003786D01*
X004034Y003766D01*
X004054Y003753D01*
X004077Y003748D01*
X004078Y003749D01*
X004098Y003729D01*
X004098Y003729D01*
X004108Y003722D01*
X004118Y003720D01*
Y003662D01*
X004238D01*
Y003820D01*
X004238Y003840D01*
X004238Y003840D01*
X004238D01*
Y003905D01*
X004178D01*
Y003925D01*
X004158D01*
Y004010D01*
D02*
G37*
G36*
X004238D02*
X004198D01*
Y003945D01*
X004238D01*
Y004010D01*
D02*
G37*
G36*
X004057Y003982D02*
X004054Y003982D01*
X004034Y003968D01*
X004021Y003949D01*
X004020Y003945D01*
X004057D01*
Y003982D01*
D02*
G37*
G36*
X003868Y003961D02*
X003860D01*
Y003925D01*
X003905D01*
X003903Y003937D01*
X003895Y003950D01*
X003882Y003958D01*
X003868Y003961D01*
D02*
G37*
G36*
X004603Y003832D02*
X004563D01*
Y003767D01*
X004603D01*
Y003832D01*
D02*
G37*
G36*
X004523D02*
X004483D01*
Y003767D01*
X004523D01*
Y003832D01*
D02*
G37*
G36*
X004603Y003727D02*
X004563D01*
Y003662D01*
X004603D01*
Y003727D01*
D02*
G37*
G36*
X004523D02*
X004483D01*
Y003662D01*
X004523D01*
Y003727D01*
D02*
G37*
G36*
X006007Y002693D02*
X005967D01*
Y002628D01*
X006007D01*
Y002693D01*
D02*
G37*
G36*
X005927D02*
X005887D01*
Y002628D01*
X005927D01*
Y002693D01*
D02*
G37*
G36*
X006433Y002597D02*
Y002560D01*
X006470D01*
X006469Y002563D01*
X006456Y002583D01*
X006436Y002597D01*
X006433Y002597D01*
D02*
G37*
G36*
X006470Y002520D02*
X006433D01*
Y002483D01*
X006436Y002483D01*
X006456Y002497D01*
X006469Y002517D01*
X006470Y002520D01*
D02*
G37*
G36*
X006292Y002525D02*
X006252D01*
Y002460D01*
X006292D01*
Y002525D01*
D02*
G37*
G36*
X006630Y002415D02*
X006585D01*
X006587Y002403D01*
X006595Y002390D01*
X006608Y002382D01*
X006622Y002379D01*
X006630D01*
Y002415D01*
D02*
G37*
G36*
X006102Y002361D02*
X006072D01*
Y002301D01*
X006102D01*
Y002361D01*
D02*
G37*
G36*
X006032D02*
X006002D01*
Y002301D01*
X006032D01*
Y002361D01*
D02*
G37*
G36*
X006629Y001738D02*
X006589D01*
Y001673D01*
X006629D01*
Y001738D01*
D02*
G37*
G36*
X006520Y001172D02*
X006517Y001172D01*
X006497Y001158D01*
X006483Y001138D01*
X006483Y001135D01*
X006520D01*
Y001172D01*
D02*
G37*
G36*
Y001095D02*
X006483D01*
X006483Y001092D01*
X006497Y001072D01*
X006517Y001058D01*
X006520Y001058D01*
Y001095D01*
D02*
G37*
G36*
X006715Y001050D02*
X006669D01*
Y001014D01*
X006677D01*
X006692Y001017D01*
X006704Y001025D01*
X006712Y001038D01*
X006715Y001050D01*
D02*
G37*
G36*
X007507Y000857D02*
Y000820D01*
X007545D01*
X007544Y000823D01*
X007531Y000843D01*
X007511Y000857D01*
X007507Y000857D01*
D02*
G37*
G36*
X007468D02*
X007464Y000857D01*
X007444Y000843D01*
X007431Y000823D01*
X007430Y000820D01*
X007468D01*
Y000857D01*
D02*
G37*
G36*
X007545Y000780D02*
X007507D01*
Y000743D01*
X007511Y000743D01*
X007531Y000757D01*
X007544Y000777D01*
X007545Y000780D01*
D02*
G37*
G36*
X007468D02*
X007430D01*
X007431Y000777D01*
X007444Y000757D01*
X007464Y000743D01*
X007468Y000743D01*
Y000780D01*
D02*
G37*
G36*
X007290Y001098D02*
X007230D01*
X007170D01*
Y001045D01*
X007170Y001033D01*
X007170Y001013D01*
Y000855D01*
X007170D01*
X007180Y000835D01*
X007173Y000823D01*
X007168Y000800D01*
X007173Y000777D01*
X007186Y000757D01*
X007206Y000743D01*
X007229Y000739D01*
X007253Y000743D01*
X007272Y000757D01*
X007286Y000777D01*
X007290Y000800D01*
X007286Y000823D01*
X007278Y000835D01*
X007288Y000855D01*
X007290D01*
Y001013D01*
X007290Y001025D01*
X007290Y001045D01*
Y001098D01*
D02*
G37*
G36*
X004870Y001361D02*
X004847Y001357D01*
X004827Y001343D01*
X004813Y001323D01*
X004809Y001300D01*
X004813Y001277D01*
X004827Y001257D01*
X004847Y001243D01*
X004870Y001239D01*
X004893Y001243D01*
X004894Y001244D01*
X004914Y001233D01*
Y001182D01*
X004894Y001171D01*
X004893Y001172D01*
X004890Y001172D01*
Y001115D01*
Y001058D01*
X004893Y001058D01*
X004894Y001059D01*
X004905Y001055D01*
X004914Y001048D01*
X004917Y001038D01*
X004925Y001025D01*
X004937Y001017D01*
X004952Y001014D01*
X004959D01*
Y001070D01*
X004979D01*
Y001090D01*
X005045D01*
X005042Y001102D01*
X005034Y001114D01*
X005022Y001122D01*
X005011Y001125D01*
X005013Y001145D01*
X005044D01*
Y001255D01*
X005014D01*
Y001262D01*
X005011Y001276D01*
X005003Y001287D01*
X004965Y001325D01*
X004954Y001333D01*
X004940Y001336D01*
X004918D01*
X004913Y001343D01*
X004893Y001357D01*
X004870Y001361D01*
D02*
G37*
G36*
X004850Y001172D02*
X004847Y001172D01*
X004827Y001158D01*
X004813Y001138D01*
X004813Y001135D01*
X004850D01*
Y001172D01*
D02*
G37*
G36*
Y001095D02*
X004813D01*
X004813Y001092D01*
X004827Y001072D01*
X004847Y001058D01*
X004850Y001058D01*
Y001095D01*
D02*
G37*
G36*
X004770Y001057D02*
Y001020D01*
X004807D01*
X004807Y001023D01*
X004793Y001043D01*
X004773Y001057D01*
X004770Y001057D01*
D02*
G37*
G36*
X005045Y001050D02*
X004999D01*
Y001014D01*
X005007D01*
X005022Y001017D01*
X005034Y001025D01*
X005042Y001038D01*
X005045Y001050D01*
D02*
G37*
G36*
X004807Y000980D02*
X004770D01*
Y000943D01*
X004773Y000943D01*
X004793Y000957D01*
X004807Y000977D01*
X004807Y000980D01*
D02*
G37*
G36*
X005620Y001098D02*
X005560D01*
X005500D01*
Y001045D01*
X005500Y001033D01*
X005500Y001013D01*
Y000855D01*
X005515D01*
X005521Y000835D01*
X005513Y000823D01*
X005509Y000800D01*
X005513Y000777D01*
X005527Y000757D01*
X005547Y000743D01*
X005570Y000739D01*
X005593Y000743D01*
X005613Y000757D01*
X005627Y000777D01*
X005631Y000800D01*
X005627Y000823D01*
X005619Y000835D01*
X005620Y000855D01*
X005620D01*
Y001013D01*
X005620Y001025D01*
X005620Y001045D01*
Y001098D01*
D02*
G37*
G36*
X005390Y000828D02*
Y000730D01*
X005488D01*
X005487Y000741D01*
X005475Y000771D01*
X005456Y000796D01*
X005431Y000815D01*
X005401Y000827D01*
X005390Y000828D01*
D02*
G37*
G36*
X005350D02*
X005339Y000827D01*
X005309Y000815D01*
X005284Y000796D01*
X005265Y000771D01*
X005253Y000741D01*
X005252Y000730D01*
X005350D01*
Y000828D01*
D02*
G37*
G36*
X005488Y000690D02*
X005390D01*
Y000592D01*
X005401Y000593D01*
X005431Y000605D01*
X005456Y000624D01*
X005475Y000649D01*
X005487Y000679D01*
X005488Y000690D01*
D02*
G37*
G36*
X005350D02*
X005252D01*
X005253Y000679D01*
X005265Y000649D01*
X005284Y000624D01*
X005309Y000605D01*
X005339Y000593D01*
X005350Y000592D01*
Y000690D01*
D02*
G37*
G36*
X005841Y000721D02*
X005791D01*
Y000580D01*
X005932D01*
Y000630D01*
X005929Y000653D01*
X005920Y000675D01*
X005905Y000694D01*
X005886Y000709D01*
X005865Y000718D01*
X005841Y000721D01*
D02*
G37*
G36*
X005751D02*
X005701D01*
X005678Y000718D01*
X005656Y000709D01*
X005637Y000694D01*
X005622Y000675D01*
X005613Y000653D01*
X005610Y000630D01*
Y000580D01*
X005751D01*
Y000721D01*
D02*
G37*
G36*
X005020Y000557D02*
Y000520D01*
X005057D01*
X005057Y000523D01*
X005043Y000543D01*
X005023Y000557D01*
X005020Y000557D01*
D02*
G37*
G36*
X004980D02*
X004977Y000557D01*
X004957Y000543D01*
X004943Y000523D01*
X004943Y000520D01*
X004980D01*
Y000557D01*
D02*
G37*
G36*
X005057Y000480D02*
X005020D01*
Y000443D01*
X005023Y000443D01*
X005043Y000457D01*
X005057Y000477D01*
X005057Y000480D01*
D02*
G37*
G36*
X004980D02*
X004943D01*
X004943Y000477D01*
X004957Y000457D01*
X004977Y000443D01*
X004980Y000443D01*
Y000480D01*
D02*
G37*
G36*
X005390Y000528D02*
Y000430D01*
X005488D01*
X005487Y000441D01*
X005475Y000471D01*
X005456Y000496D01*
X005431Y000515D01*
X005401Y000527D01*
X005390Y000528D01*
D02*
G37*
G36*
X005350D02*
X005339Y000527D01*
X005309Y000515D01*
X005284Y000496D01*
X005265Y000471D01*
X005253Y000441D01*
X005252Y000430D01*
X005350D01*
Y000528D01*
D02*
G37*
G36*
X005932Y000540D02*
X005791D01*
Y000399D01*
X005841D01*
X005865Y000402D01*
X005886Y000411D01*
X005905Y000426D01*
X005920Y000445D01*
X005929Y000467D01*
X005932Y000490D01*
Y000540D01*
D02*
G37*
G36*
X005751D02*
X005610D01*
Y000490D01*
X005613Y000467D01*
X005622Y000445D01*
X005637Y000426D01*
X005656Y000411D01*
X005678Y000402D01*
X005701Y000399D01*
X005751D01*
Y000540D01*
D02*
G37*
%LPD*%
D10*
X005292Y002933D02*
X005658D01*
X005779Y002811D01*
X006655D01*
X006750Y002715D01*
X000220Y004220D02*
X000347Y004347D01*
X000220Y003534D02*
Y004220D01*
X000632Y003448D02*
X000810Y003270D01*
X000567Y003448D02*
X000632D01*
D14*
X003450Y003610D02*
Y003747D01*
X004077Y003793D02*
Y003809D01*
Y003793D02*
X004120Y003750D01*
X000930Y003630D02*
X001110D01*
X000928Y003631D02*
X000930Y003630D01*
X004847Y002933D02*
X005292D01*
X004835Y002945D02*
X004847Y002933D01*
X004642Y002723D02*
Y002772D01*
X000220Y003534D02*
X000306Y003448D01*
X000446Y003847D02*
X000643D01*
X000347Y003947D02*
X000446Y003847D01*
X000446Y002847D02*
X000607D01*
X000347Y002947D02*
X000446Y002847D01*
X000363Y003147D02*
X000463Y003047D01*
X000611D01*
X000347Y003347D02*
X000445Y003248D01*
X000602D01*
X000603Y003247D01*
X000347Y003147D02*
X000363D01*
X000306Y003448D02*
X000567D01*
X000567Y003448D01*
X000838Y003722D02*
X000928Y003631D01*
X000928D01*
X000838Y003722D02*
Y003747D01*
X001115Y001733D02*
Y001933D01*
X001765Y001733D02*
Y001933D01*
X002400Y003795D02*
X002448Y003747D01*
X002508D01*
X002400Y003795D02*
Y003800D01*
X004174Y003750D02*
X004178Y003747D01*
X004120Y003750D02*
X004174D01*
D15*
X007468Y001518D02*
Y001583D01*
X007427Y001476D02*
X007468Y001518D01*
X007427Y001297D02*
Y001476D01*
X007796Y001302D02*
Y001447D01*
X007722Y001520D02*
X007796Y001447D01*
X007722Y001520D02*
Y001583D01*
X007617Y001302D02*
X007796D01*
X007427Y001117D02*
Y001296D01*
X007617Y001117D02*
Y001302D01*
X007724Y000982D02*
Y001174D01*
X007890D01*
Y001612D01*
X007523Y000982D02*
X007724D01*
X007523Y001415D02*
X007553Y001445D01*
X007523Y001415D02*
X007523Y000982D01*
X007596Y001489D02*
Y001582D01*
X007553Y001445D02*
X007596Y001489D01*
X005883Y001445D02*
X005926Y001489D01*
Y001582D01*
X005853Y001415D02*
X005853Y000982D01*
X005853Y001415D02*
X005883Y001445D01*
X005853Y000982D02*
X006054D01*
X006220Y001174D02*
Y001612D01*
X006054Y001174D02*
X006220D01*
X006054Y000982D02*
Y001174D01*
X005947Y001117D02*
Y001302D01*
X005757Y001117D02*
Y001296D01*
X005947Y001302D02*
X006126D01*
X006052Y001520D02*
Y001583D01*
Y001520D02*
X006126Y001447D01*
Y001302D02*
Y001447D01*
X005757Y001297D02*
Y001476D01*
X005798Y001518D01*
Y001583D01*
X004128Y001518D02*
Y001583D01*
X004087Y001476D02*
X004128Y001518D01*
X004087Y001297D02*
Y001476D01*
X004456Y001302D02*
Y001447D01*
X004382Y001520D02*
X004456Y001447D01*
X004382Y001520D02*
Y001583D01*
X004277Y001302D02*
X004456D01*
X004087Y001117D02*
Y001296D01*
X004277Y001117D02*
Y001302D01*
X004384Y000982D02*
Y001174D01*
X004550D01*
Y001612D01*
X004183Y000982D02*
X004384D01*
X004183Y001415D02*
X004213Y001445D01*
X004183Y001415D02*
X004183Y000982D01*
X004256Y001489D02*
Y001582D01*
X004213Y001445D02*
X004256Y001489D01*
X004564Y004987D02*
X004607Y005031D01*
X004564Y004894D02*
Y004987D01*
X004637Y005494D02*
X004637Y005061D01*
X004607Y005031D02*
X004637Y005061D01*
X004436Y005494D02*
X004637D01*
X004270Y004864D02*
Y005302D01*
X004436D01*
Y005494D01*
X004543Y005174D02*
Y005359D01*
X004733Y005180D02*
Y005359D01*
X004364Y005174D02*
X004543D01*
X004438Y004893D02*
Y004956D01*
X004364Y005029D02*
X004438Y004956D01*
X004364Y005029D02*
Y005174D01*
X004733Y005000D02*
Y005179D01*
X004692Y004958D02*
X004733Y005000D01*
X004692Y004893D02*
Y004958D01*
X001352Y004893D02*
Y004958D01*
X001393Y005000D01*
Y005179D01*
X001024Y005029D02*
Y005174D01*
Y005029D02*
X001098Y004956D01*
Y004893D02*
Y004956D01*
X001024Y005174D02*
X001203D01*
X001393Y005180D02*
Y005359D01*
X001203Y005174D02*
Y005359D01*
X001096Y005302D02*
Y005494D01*
X000930Y005302D02*
X001096D01*
X000930Y004864D02*
Y005302D01*
X001096Y005494D02*
X001297D01*
X001267Y005031D02*
X001297Y005061D01*
X001297Y005494D02*
X001297Y005061D01*
X001224Y004894D02*
Y004987D01*
X001267Y005031D01*
X002894Y004987D02*
X002937Y005031D01*
X002894Y004894D02*
Y004987D01*
X002967Y005494D02*
X002967Y005061D01*
X002937Y005031D02*
X002967Y005061D01*
X002766Y005494D02*
X002967D01*
X002600Y004864D02*
Y005302D01*
X002766D01*
Y005494D01*
X002873Y005174D02*
Y005359D01*
X003063Y005180D02*
Y005359D01*
X002694Y005174D02*
X002873D01*
X002768Y004893D02*
Y004956D01*
X002694Y005029D02*
X002768Y004956D01*
X002694Y005029D02*
Y005174D01*
X003063Y005000D02*
Y005179D01*
X003022Y004958D02*
X003063Y005000D01*
X003022Y004893D02*
Y004958D01*
X003870Y003400D02*
X004000Y003530D01*
X002390Y003400D02*
X003870D01*
X004000Y003530D02*
X004660D01*
X004700Y003490D01*
X004860Y003080D02*
X004865D01*
X004912Y003033D01*
X005030D01*
X005015Y003238D02*
X005220D01*
X005518D01*
X004700Y003490D02*
X004920D01*
X004827Y003238D02*
X005015D01*
X005220Y003226D02*
X005230Y003236D01*
X005220Y003030D02*
Y003226D01*
X004825Y003240D02*
X004827Y003238D01*
X005518D02*
X005520Y003236D01*
X005230Y003490D02*
X005520D01*
X004920D02*
X005230D01*
D37*
X007983Y001293D02*
D03*
X007793D02*
D03*
X007617Y001117D02*
D03*
Y001297D02*
D03*
X007427Y001117D02*
D03*
Y001297D02*
D03*
X005757D02*
D03*
Y001117D02*
D03*
X005947Y001297D02*
D03*
Y001117D02*
D03*
X006123Y001293D02*
D03*
X006313D02*
D03*
X004643D02*
D03*
X004453D02*
D03*
X004277Y001117D02*
D03*
Y001297D02*
D03*
X004087Y001117D02*
D03*
Y001297D02*
D03*
X004733Y005179D02*
D03*
Y005359D02*
D03*
X004543Y005179D02*
D03*
Y005359D02*
D03*
X004367Y005183D02*
D03*
X004177D02*
D03*
X000837D02*
D03*
X001027D02*
D03*
X001203Y005359D02*
D03*
Y005179D02*
D03*
X001393Y005359D02*
D03*
Y005179D02*
D03*
X003063D02*
D03*
Y005359D02*
D03*
X002873Y005179D02*
D03*
Y005359D02*
D03*
X002697Y005183D02*
D03*
X002507D02*
D03*
X007270Y002723D02*
D03*
X007080D02*
D03*
X007982D02*
D03*
X007792D02*
D03*
X007617Y002723D02*
D03*
X007427D02*
D03*
X007230Y001297D02*
D03*
X007040D02*
D03*
X006840Y001475D02*
D03*
X006650D02*
D03*
X007792Y002545D02*
D03*
X007982D02*
D03*
X007230Y000940D02*
D03*
X007040D02*
D03*
X007230Y001118D02*
D03*
X007040D02*
D03*
X006649Y001653D02*
D03*
X006839D02*
D03*
X004642Y002545D02*
D03*
X004452D02*
D03*
X003700Y000940D02*
D03*
X003890D02*
D03*
X004452Y002723D02*
D03*
X004642D02*
D03*
X004087Y002723D02*
D03*
X004277D02*
D03*
X003310Y001475D02*
D03*
X003500D02*
D03*
X003700Y002723D02*
D03*
X003890D02*
D03*
X003700Y001118D02*
D03*
X003890D02*
D03*
X003700Y001297D02*
D03*
X003890D02*
D03*
X003499Y001653D02*
D03*
X003309D02*
D03*
X005370Y001118D02*
D03*
X005560D02*
D03*
X006122Y002713D02*
D03*
X006312D02*
D03*
X005757D02*
D03*
X005947D02*
D03*
X005370Y001297D02*
D03*
X005560D02*
D03*
X004980Y001475D02*
D03*
X005170D02*
D03*
X005370Y000940D02*
D03*
X005560D02*
D03*
X005370Y002723D02*
D03*
X005560D02*
D03*
X005169Y001653D02*
D03*
X004979D02*
D03*
X006312Y002545D02*
D03*
X006122D02*
D03*
X001575Y001933D02*
D03*
X001765D02*
D03*
X001305Y001933D02*
D03*
X001115D02*
D03*
X003063Y003747D02*
D03*
X002873D02*
D03*
X001981Y004817D02*
D03*
X002171D02*
D03*
X001780Y005352D02*
D03*
X001590D02*
D03*
X001780Y003747D02*
D03*
X001590D02*
D03*
X001780Y005530D02*
D03*
X001590D02*
D03*
X000838Y003925D02*
D03*
X001028D02*
D03*
X002170Y004995D02*
D03*
X001980D02*
D03*
X001780Y005173D02*
D03*
X001590D02*
D03*
X001393Y003747D02*
D03*
X001203D02*
D03*
X001028Y003747D02*
D03*
X000838D02*
D03*
X003651Y004817D02*
D03*
X003841D02*
D03*
X003450Y005352D02*
D03*
X003260D02*
D03*
X003450Y003747D02*
D03*
X003260D02*
D03*
X003450Y005530D02*
D03*
X003260D02*
D03*
X002508Y003925D02*
D03*
X002698D02*
D03*
X003840Y004995D02*
D03*
X003650D02*
D03*
X003450Y005173D02*
D03*
X003260D02*
D03*
X002698Y003747D02*
D03*
X002508D02*
D03*
X004368D02*
D03*
X004178D02*
D03*
X004733Y003747D02*
D03*
X004543D02*
D03*
X005120Y005173D02*
D03*
X004930D02*
D03*
X005510Y004995D02*
D03*
X005320D02*
D03*
X004178Y003925D02*
D03*
X004368D02*
D03*
X005120Y005530D02*
D03*
X004930D02*
D03*
X005120Y003747D02*
D03*
X004930D02*
D03*
X005120Y005352D02*
D03*
X004930D02*
D03*
X005321Y004817D02*
D03*
X005511D02*
D03*
X005030Y003033D02*
D03*
X005220D02*
D03*
D38*
X007020Y001485D02*
D03*
X005350D02*
D03*
X003680D02*
D03*
X005140Y004991D02*
D03*
X001800D02*
D03*
X003470D02*
D03*
D39*
X007020Y001739D02*
D03*
Y001866D02*
D03*
Y001993D02*
D03*
Y002120D02*
D03*
Y002247D02*
D03*
Y002374D02*
D03*
Y001612D02*
D03*
X008046Y001485D02*
D03*
Y001612D02*
D03*
Y001739D02*
D03*
Y002247D02*
D03*
Y001866D02*
D03*
Y002374D02*
D03*
Y001993D02*
D03*
Y002120D02*
D03*
X006376D02*
D03*
Y001993D02*
D03*
Y002374D02*
D03*
Y001866D02*
D03*
Y002247D02*
D03*
Y001739D02*
D03*
Y001612D02*
D03*
Y001485D02*
D03*
X005350Y001612D02*
D03*
Y002374D02*
D03*
Y002247D02*
D03*
Y002120D02*
D03*
Y001993D02*
D03*
Y001866D02*
D03*
Y001739D02*
D03*
X003680D02*
D03*
Y001866D02*
D03*
Y001993D02*
D03*
Y002120D02*
D03*
Y002247D02*
D03*
Y002374D02*
D03*
Y001612D02*
D03*
X004706Y001485D02*
D03*
Y001612D02*
D03*
Y001739D02*
D03*
Y002247D02*
D03*
Y001866D02*
D03*
Y002374D02*
D03*
Y001993D02*
D03*
Y002120D02*
D03*
X004114Y004356D02*
D03*
Y004483D02*
D03*
Y004102D02*
D03*
Y004610D02*
D03*
Y004229D02*
D03*
Y004737D02*
D03*
Y004864D02*
D03*
Y004991D02*
D03*
X005140Y004864D02*
D03*
Y004102D02*
D03*
Y004229D02*
D03*
Y004356D02*
D03*
Y004483D02*
D03*
Y004610D02*
D03*
Y004737D02*
D03*
X001800D02*
D03*
Y004610D02*
D03*
Y004483D02*
D03*
Y004356D02*
D03*
Y004229D02*
D03*
Y004102D02*
D03*
Y004864D02*
D03*
X000774Y004991D02*
D03*
Y004864D02*
D03*
Y004737D02*
D03*
Y004229D02*
D03*
Y004610D02*
D03*
Y004102D02*
D03*
Y004483D02*
D03*
Y004356D02*
D03*
X002444D02*
D03*
Y004483D02*
D03*
Y004102D02*
D03*
Y004610D02*
D03*
Y004229D02*
D03*
Y004737D02*
D03*
Y004864D02*
D03*
Y004991D02*
D03*
X003470Y004864D02*
D03*
Y004102D02*
D03*
Y004229D02*
D03*
Y004356D02*
D03*
Y004483D02*
D03*
Y004610D02*
D03*
Y004737D02*
D03*
D40*
X007722Y002281D02*
D03*
X006052D02*
D03*
X004382D02*
D03*
X004438Y004195D02*
D03*
X001098D02*
D03*
X002768D02*
D03*
D41*
X007595Y001583D02*
D03*
X007341Y002281D02*
D03*
X007468D02*
D03*
X007722Y001583D02*
D03*
X007341D02*
D03*
X007595Y002281D02*
D03*
X007468Y001583D02*
D03*
X005798D02*
D03*
X005925Y002281D02*
D03*
X005671Y001583D02*
D03*
X006052D02*
D03*
X005798Y002281D02*
D03*
X005671D02*
D03*
X005925Y001583D02*
D03*
X004255D02*
D03*
X004001Y002281D02*
D03*
X004128D02*
D03*
X004382Y001583D02*
D03*
X004001D02*
D03*
X004255Y002281D02*
D03*
X004128Y001583D02*
D03*
X004692Y004893D02*
D03*
X004565Y004195D02*
D03*
X004819Y004893D02*
D03*
X004438D02*
D03*
X004692Y004195D02*
D03*
X004819D02*
D03*
X004565Y004893D02*
D03*
X001225D02*
D03*
X001479Y004195D02*
D03*
X001352D02*
D03*
X001098Y004893D02*
D03*
X001479D02*
D03*
X001225Y004195D02*
D03*
X001352Y004893D02*
D03*
X003022D02*
D03*
X002895Y004195D02*
D03*
X003149Y004893D02*
D03*
X002768D02*
D03*
X003022Y004195D02*
D03*
X003149D02*
D03*
X002895Y004893D02*
D03*
D47*
X005321Y005335D02*
Y005680D01*
X005512Y005208D02*
X005550Y005170D01*
X005512Y005208D02*
Y005269D01*
X005511Y005270D02*
X005512Y005269D01*
X003500Y000800D02*
Y000893D01*
X005180Y000805D02*
Y001124D01*
X005169Y001135D02*
X005180Y001124D01*
X005169Y001135D02*
Y001221D01*
X007229Y000800D02*
Y000916D01*
X006839Y000800D02*
Y001201D01*
X007040Y000800D02*
Y001118D01*
X007040D02*
Y001297D01*
X007229Y000916D02*
X007230Y000915D01*
Y000940D01*
X003890Y000800D02*
Y000940D01*
X003700Y000820D02*
Y000940D01*
Y000820D02*
X003700Y000820D01*
X003700Y000940D02*
X003700Y000940D01*
X003700Y000940D02*
Y001118D01*
X005511Y004817D02*
X005620D01*
X005511Y004817D02*
X005511Y004817D01*
X002823Y002795D02*
X002935Y002682D01*
X006840Y002650D02*
X006940Y002750D01*
X006413Y002540D02*
X006420D01*
X006317D02*
X006413D01*
X004477Y002420D02*
X004500D01*
X004452Y002445D02*
Y002723D01*
X004500Y002420D02*
X004510Y002410D01*
X004452Y002445D02*
X004477Y002420D01*
X006163Y002410D02*
X006170D01*
X006122Y002451D02*
Y002545D01*
Y002451D02*
X006163Y002410D01*
X007832D02*
X007844D01*
X007792Y002450D02*
X007832Y002410D01*
X007792Y002450D02*
Y002545D01*
X007792Y002545D02*
Y002723D01*
X006122Y002545D02*
Y002723D01*
X004087Y002572D02*
X004258Y002400D01*
X004087Y002572D02*
Y002723D01*
X007427Y002573D02*
Y002723D01*
Y002573D02*
X007600Y002400D01*
X005757Y002583D02*
X005930Y002410D01*
X005757Y002583D02*
Y002723D01*
X004560Y004070D02*
X004733Y003897D01*
Y003747D02*
Y003897D01*
X004340Y004057D02*
X004368Y004029D01*
Y003747D02*
Y004029D01*
X004340Y004057D02*
Y004070D01*
X002643Y004005D02*
X002698Y003950D01*
X002643Y004005D02*
Y004057D01*
X002640Y004060D02*
X002643Y004057D01*
X002890Y004070D02*
X003063Y003897D01*
Y003747D02*
Y003897D01*
X002698Y003747D02*
Y003950D01*
X001028Y003747D02*
Y003925D01*
X001012Y003941D02*
X001028Y003925D01*
X000970Y004059D02*
Y004060D01*
X001012Y003941D02*
Y004017D01*
X000970Y004059D02*
X001012Y004017D01*
X001393Y003747D02*
Y003887D01*
X001220Y004060D02*
X001393Y003887D01*
X000869Y003410D02*
X002098D01*
X002166Y003478D01*
X003808D01*
X000889Y003460D02*
X002051D01*
X002126Y003535D02*
X003695D01*
X002051Y003460D02*
X002126Y003535D01*
X003808Y003478D02*
X003932Y003602D01*
X004980D02*
X005026Y003648D01*
X003932Y003602D02*
X004980D01*
X005026Y003648D02*
Y003856D01*
X005092Y003922D02*
X005307D01*
X005404Y004020D02*
Y004424D01*
X005307Y003922D02*
X005404Y004020D01*
X005026Y003856D02*
X005092Y003922D01*
X005404Y004424D02*
X005510Y004530D01*
Y004620D01*
X005414Y004716D02*
X005510Y004620D01*
X005414Y004716D02*
Y005252D01*
X005331Y005335D02*
X005414Y005252D01*
X005321Y005335D02*
X005331D01*
X000740Y003680D02*
Y003830D01*
X000635Y003935D02*
X000740Y003830D01*
X000559Y003935D02*
X000635D01*
X000547Y003947D02*
X000559Y003935D01*
X001977Y003837D02*
X001980Y003840D01*
X001977Y003593D02*
Y003837D01*
X003645Y003610D02*
Y003835D01*
X003650Y003840D01*
X003750Y004702D02*
X003815Y004637D01*
Y004535D02*
Y004637D01*
X003746Y004466D02*
X003815Y004535D01*
X003746Y003586D02*
Y004466D01*
X002170Y004520D02*
Y004610D01*
X002070Y003580D02*
Y004420D01*
X002170Y004520D01*
X002000Y003510D02*
X002070Y003580D01*
X000547Y003732D02*
X000869Y003410D01*
X000684Y003666D02*
X000889Y003460D01*
X000910Y003510D02*
X002000D01*
X000740Y003680D02*
X000910Y003510D01*
X002170Y003775D02*
X002190Y003755D01*
X002282D02*
X002290Y003747D01*
X002190Y003755D02*
X002282D01*
X003840Y003775D02*
X003860Y003755D01*
X003938D02*
X003946Y003747D01*
X003860Y003755D02*
X003938D01*
X005510Y003775D02*
X005530Y003755D01*
X005612D02*
X005620Y003747D01*
X005530Y003755D02*
X005612D01*
X003304Y001197D02*
X003308Y001201D01*
X003200Y002730D02*
X003214D01*
X004975Y001480D02*
X004975Y001480D01*
X007984Y002725D02*
X008147D01*
X006315Y002720D02*
X006413D01*
X003920Y005270D02*
X003960Y005230D01*
Y005170D02*
X003960Y005170D01*
X003960Y005170D02*
Y005230D01*
X003841Y005270D02*
X003920D01*
X003695Y003535D02*
X003746Y003586D01*
X002080Y004700D02*
X002170Y004610D01*
X002080Y004700D02*
Y005140D01*
X001981Y005239D02*
X002080Y005140D01*
X001981Y005239D02*
Y005335D01*
X004643Y002773D02*
X004751D01*
X003195Y001287D02*
X003212D01*
X003185Y001297D02*
X003195Y001287D01*
X003302Y001197D02*
X003304D01*
X003212Y001287D02*
X003302Y001197D01*
X001590Y005530D02*
Y005711D01*
X001780Y005530D02*
Y005710D01*
X001780Y005173D02*
Y005352D01*
X001980Y005649D02*
Y005710D01*
Y005649D02*
X001981Y005649D01*
Y005335D02*
Y005649D01*
X003260Y005530D02*
Y005560D01*
X003250Y005570D02*
X003260Y005560D01*
X003250Y005570D02*
Y005676D01*
X003240Y005686D02*
X003250Y005676D01*
X003260Y005530D02*
X003260Y005530D01*
X003651Y005593D02*
X003744Y005686D01*
X003651Y005335D02*
Y005593D01*
X003450Y005530D02*
Y005531D01*
Y005352D02*
Y005530D01*
X003450Y005173D02*
Y005352D01*
X003450Y005531D02*
X003605Y005686D01*
X003840Y004995D02*
X003845Y004990D01*
X003960D01*
X005120Y005670D02*
X005130Y005680D01*
X005120Y005173D02*
Y005352D01*
X005120Y005530D02*
Y005670D01*
Y005530D02*
X005120Y005530D01*
X005320Y003840D02*
X005330D01*
X005350Y003820D01*
Y003810D02*
Y003820D01*
Y003810D02*
X005390Y003770D01*
Y003600D02*
Y003770D01*
X005212Y003630D02*
Y003631D01*
X005120Y003722D02*
X005212Y003631D01*
X005120Y003722D02*
Y003747D01*
X005550Y005170D02*
X005620D01*
X001780Y003747D02*
X001780Y003747D01*
X001780Y003600D02*
Y003747D01*
X001780Y003600D02*
X001780Y003600D01*
X001443Y002089D02*
Y002094D01*
X001442D02*
X001443D01*
Y002089D02*
X001575Y001958D01*
X001305Y001958D02*
X001442Y002094D01*
X001575Y001933D02*
Y001958D01*
X002755Y002745D02*
X002930Y002570D01*
X000824Y002745D02*
X002755D01*
X000722Y002847D02*
X000824Y002745D01*
X000845Y002795D02*
X002823D01*
X000693Y002947D02*
X000845Y002795D01*
X002861Y002850D02*
X002912Y002799D01*
X000861Y002850D02*
X002861D01*
X007260Y002398D02*
Y002455D01*
X007080Y002635D02*
X007260Y002455D01*
X007080Y002635D02*
Y002702D01*
X007188Y002281D02*
X007341D01*
X007170Y002298D02*
Y002415D01*
Y002298D02*
X007188Y002281D01*
X007120Y002465D02*
X007170Y002415D01*
X006940Y002465D02*
X007120D01*
X005065Y002315D02*
X005230Y002480D01*
X005065Y001895D02*
Y002315D01*
Y001895D02*
X005080Y001880D01*
X004990Y001840D02*
Y002338D01*
X004995Y002877D02*
X005075Y002798D01*
X004826Y002877D02*
X004995D01*
X004990Y002338D02*
X005075Y002423D01*
Y002798D01*
X003500Y002630D02*
X003500Y002630D01*
Y002860D01*
X000919Y002950D02*
X004753D01*
X000940Y003000D02*
X004780D01*
X000614Y003326D02*
X000940Y003000D01*
X004780D02*
X004835Y002945D01*
X000622Y003247D02*
X000919Y002950D01*
X004753D02*
X004826Y002877D01*
X005173Y002633D02*
Y002860D01*
X005170Y002630D02*
X005173Y002633D01*
X006122Y002545D02*
X006122Y002545D01*
X006750Y002160D02*
Y002715D01*
X006650Y002060D02*
X006750Y002160D01*
X006650Y001840D02*
Y002060D01*
Y001840D02*
X006740Y001750D01*
Y001300D02*
X006839Y001201D01*
X006740Y001300D02*
Y001750D01*
X006540Y002723D02*
X006632D01*
X006650Y002565D02*
X006650Y002565D01*
Y002706D01*
X006632Y002723D02*
X006650Y002706D01*
X004990Y001840D02*
X005070Y001760D01*
Y001320D02*
Y001760D01*
Y001320D02*
X005169Y001221D01*
X004975Y001480D02*
X004980Y001475D01*
X004895Y002695D02*
X004980D01*
X004870Y002670D02*
X004895Y002695D01*
X004642Y002772D02*
X004643Y002773D01*
X002999Y002900D02*
X003120Y002779D01*
Y001539D02*
Y002779D01*
Y001539D02*
X003210Y001449D01*
X003438Y001325D02*
X003499Y001263D01*
X003295Y001325D02*
X003438D01*
X003210Y001410D02*
X003295Y001325D01*
X003210Y001410D02*
Y001449D01*
X000890Y002900D02*
X002999D01*
X003499Y001135D02*
Y001263D01*
X000567Y003326D02*
X000614D01*
X000547Y003347D02*
X000567Y003326D01*
X003700Y002723D02*
X003700Y002724D01*
Y002860D01*
X003701Y002860D01*
X003700Y001118D02*
Y001297D01*
X006540Y001300D02*
X006610D01*
X004870D02*
X004940D01*
X004910Y001480D02*
X004975D01*
X003297Y001488D02*
X003310Y001475D01*
X003202Y001528D02*
Y001583D01*
Y001528D02*
X003242Y001488D01*
X003297D01*
X003200Y001586D02*
X003202Y001583D01*
X003229Y002715D02*
X003294D01*
X003214Y002730D02*
X003229Y002715D01*
X003294D02*
X003308Y002701D01*
X000547Y002947D02*
X000693D01*
X000494D02*
X000547D01*
X000664Y003047D02*
X000861Y002850D01*
X003499Y000893D02*
Y001135D01*
Y000893D02*
X003500Y000893D01*
X005370Y002723D02*
X005370Y002723D01*
Y002860D01*
X005370Y002860D01*
X006312Y002723D02*
X006315Y002720D01*
X006312Y002545D02*
X006317Y002540D01*
X006940Y002750D02*
X006942D01*
X006840Y002500D02*
Y002650D01*
X005560Y000824D02*
Y000940D01*
Y000824D02*
X005570Y000814D01*
Y000800D02*
Y000814D01*
X000684Y003666D02*
Y003806D01*
X000643Y003847D02*
X000684Y003806D01*
X000547Y003732D02*
Y003747D01*
X000607Y002847D02*
X000722D01*
X000611Y003047D02*
X000664D01*
X000547Y003147D02*
X000643D01*
X000890Y002900D01*
X000603Y003247D02*
X000622D01*
X007426Y001297D02*
X007427Y001296D01*
X006906Y001411D02*
X007271D01*
X007341Y001481D01*
Y001583D01*
X007040Y001297D02*
X007040Y001297D01*
X007230D02*
X007426D01*
X006750Y001880D02*
X006880Y002010D01*
X006839Y001653D02*
X006839Y001653D01*
Y001475D02*
Y001653D01*
X006880Y002010D02*
Y002405D01*
X006940Y002465D01*
X007270Y002723D02*
X007427D01*
X007792Y002723D02*
X007792Y002723D01*
X007982D02*
X007984Y002725D01*
X006648Y001201D02*
X006649Y001200D01*
X006648Y001201D02*
Y001262D01*
X006610Y001300D02*
X006648Y001262D01*
X006892Y001425D02*
X006906Y001411D01*
X006865Y001425D02*
X006892D01*
X006840Y001450D02*
X006865Y001425D01*
X006840Y001450D02*
Y001475D01*
X006839Y001475D02*
X006840Y001475D01*
X006645Y001480D02*
X006650Y001475D01*
X006562Y001480D02*
X006645D01*
X003603Y005067D02*
X003650Y005020D01*
X003227Y005067D02*
X003603D01*
X003149Y004989D02*
X003227Y005067D01*
X001955Y005045D02*
X001955D01*
X001933Y005068D02*
X001955Y005045D01*
X001558Y005068D02*
X001933D01*
X001955Y005045D02*
X001980Y005020D01*
X001479Y004989D02*
X001558Y005068D01*
X001305Y001933D02*
Y001958D01*
X004900Y005070D02*
X005270D01*
X005320Y005020D01*
X004819Y004989D02*
X004900Y005070D01*
X002175Y004990D02*
X002290D01*
X002170Y004995D02*
X002175Y004990D01*
X005510Y004995D02*
X005515Y004990D01*
X005598D01*
X004930Y005530D02*
Y005660D01*
X004930Y005530D02*
Y005650D01*
X004930Y005650D02*
X004930Y005650D01*
Y005530D02*
X004930Y005530D01*
X004930Y005660D02*
X004930Y005660D01*
X001590Y005530D02*
X001590Y005530D01*
X005273Y001030D02*
X005313Y000990D01*
X005345D01*
X005270Y001030D02*
X005273D01*
X005370Y000915D02*
Y000965D01*
X005345Y000990D02*
X005370Y000965D01*
X003500Y002630D02*
X003510D01*
X003530Y002650D01*
X003890Y002723D02*
X004087D01*
X003560Y002480D02*
X003920D01*
X004001Y002399D01*
X003490Y002410D02*
X003560Y002480D01*
X004001Y001481D02*
Y001583D01*
X004086Y001297D02*
X004087Y001296D01*
X004452Y002723D02*
X004452Y002723D01*
X004001Y002281D02*
Y002399D01*
X003499Y001475D02*
X003500Y001475D01*
Y001450D02*
Y001475D01*
X003525Y001425D02*
X003552D01*
X003500Y001450D02*
X003525Y001425D01*
X003499Y001475D02*
Y001653D01*
X003499Y001653D02*
X003499Y001653D01*
X003552Y001425D02*
X003566Y001411D01*
X003931D01*
X003700Y001297D02*
X003700Y001297D01*
X003890D02*
X004086D01*
X003931Y001411D02*
X004001Y001481D01*
X003490Y001960D02*
Y002410D01*
X003410Y001880D02*
X003490Y001960D01*
X005169Y001475D02*
X005170Y001475D01*
Y001450D02*
Y001475D01*
X005169Y001475D02*
Y001653D01*
X005170Y001450D02*
X005195Y001425D01*
X005222D01*
X005169Y001653D02*
X005169Y001653D01*
X005590Y002480D02*
X005671Y002399D01*
Y002281D02*
Y002399D01*
X005222Y001425D02*
X005236Y001411D01*
X005601D01*
X005230Y002480D02*
X005590D01*
X006122Y002723D02*
X006122Y002723D01*
X005560Y001297D02*
X005756D01*
X005671Y001481D02*
Y001583D01*
X005601Y001411D02*
X005671Y001481D01*
X005756Y001297D02*
X005757Y001296D01*
X005560Y002723D02*
X005757D01*
X004978Y001201D02*
X004979Y001200D01*
X004978Y001201D02*
Y001262D01*
X004940Y001300D02*
X004978Y001262D01*
X005370Y001297D02*
X005370Y001297D01*
X005370Y001118D02*
Y001297D01*
X005370Y000915D02*
Y001118D01*
X003661Y005335D02*
X003750Y005246D01*
Y004702D02*
Y005246D01*
X003651Y005335D02*
X003661D01*
X001780Y005530D02*
X001780Y005530D01*
Y005352D02*
Y005530D01*
X001981Y004817D02*
Y004995D01*
Y004817D02*
X001981Y004817D01*
X001980Y004995D02*
Y005020D01*
Y004995D02*
X001981Y004995D01*
X001780Y005173D02*
X001780Y005173D01*
X001393Y003747D02*
X001590D01*
X001479Y004071D02*
Y004189D01*
X001560Y003990D02*
X001920D01*
X001479Y004071D02*
X001560Y003990D01*
X001920D02*
X001990Y004060D01*
Y004510D01*
X002070Y004590D01*
X001479Y004887D02*
Y004989D01*
X001393Y005174D02*
X001394Y005173D01*
X001590D01*
X001028Y003747D02*
X001028Y003747D01*
X002172Y005208D02*
X002210Y005170D01*
X002171Y005270D02*
X002172Y005269D01*
Y005208D02*
Y005269D01*
X002210Y005170D02*
X002290D01*
X003651Y004817D02*
Y004995D01*
Y004817D02*
X003651Y004817D01*
X003650Y004995D02*
Y005020D01*
Y004995D02*
X003651Y004995D01*
X003450Y005173D02*
X003450Y005173D01*
X003063Y003747D02*
X003260D01*
X003149Y004071D02*
Y004189D01*
X003230Y003990D02*
X003590D01*
X003149Y004071D02*
X003230Y003990D01*
X003590D02*
X003660Y004060D01*
Y004510D01*
X003740Y004590D01*
X003149Y004887D02*
Y004989D01*
X003063Y005174D02*
X003064Y005173D01*
X003260D01*
X002698Y003747D02*
X002698Y003747D01*
X004733Y003747D02*
X004930D01*
X004368D02*
X004368Y003747D01*
X004733Y005174D02*
X004734Y005173D01*
X004930D01*
X004819Y004887D02*
Y004989D01*
X005120Y005173D02*
X005120Y005173D01*
X005120Y005352D02*
Y005530D01*
X005321Y004817D02*
Y004995D01*
X005320Y004995D02*
X005321Y004995D01*
X005320Y004995D02*
Y005020D01*
X004819Y004071D02*
X004900Y003990D01*
X005260D01*
X005330Y004060D01*
X004819Y004071D02*
Y004189D01*
X005321Y004817D02*
X005321Y004817D01*
X005330Y004510D02*
X005410Y004590D01*
X005330Y004060D02*
Y004510D01*
D48*
X007531Y001932D02*
D03*
X005861D02*
D03*
X004191D02*
D03*
X004629Y004544D02*
D03*
X001289D02*
D03*
X002959D02*
D03*
D49*
X004070Y000750D02*
D03*
X003424Y005781D02*
D03*
X004721Y005712D02*
D03*
X005370Y000710D02*
D03*
X003424Y006081D02*
D03*
X004811Y006032D02*
D03*
X003980Y000450D02*
D03*
X005370Y000410D02*
D03*
D50*
X000347Y004147D02*
D03*
Y004347D02*
D03*
X000547Y003947D02*
D03*
X000347D02*
D03*
X000547Y004147D02*
D03*
Y004347D02*
D03*
Y004547D02*
D03*
X000347D02*
D03*
X000547Y004747D02*
D03*
Y003747D02*
D03*
X000347Y003547D02*
D03*
X000547D02*
D03*
X000347Y003747D02*
D03*
X000547Y003347D02*
D03*
X000347Y003147D02*
D03*
X000547D02*
D03*
X000347Y003347D02*
D03*
X000547Y002947D02*
D03*
X000347D02*
D03*
X000547Y002747D02*
D03*
X000347Y002547D02*
D03*
X000547D02*
D03*
Y002347D02*
D03*
X000347Y002347D02*
D03*
Y002747D02*
D03*
D51*
Y004747D02*
D03*
D52*
X001574Y001733D02*
D03*
X001765D02*
D03*
X001115D02*
D03*
X001306D02*
D03*
D53*
X003023Y005931D02*
D03*
X005771Y000560D02*
D03*
D54*
X002635Y006151D02*
D03*
Y005931D02*
D03*
Y005711D02*
D03*
X002335Y006151D02*
D03*
Y005931D02*
D03*
Y005711D02*
D03*
X006458Y000780D02*
D03*
Y000560D02*
D03*
Y000340D02*
D03*
X006158Y000780D02*
D03*
Y000560D02*
D03*
Y000340D02*
D03*
D55*
X005230Y003236D02*
D03*
X005520D02*
D03*
D56*
X005230Y003490D02*
D03*
X005520D02*
D03*
D57*
X005321Y005680D02*
D03*
X005170Y000800D02*
D03*
X007040D02*
D03*
X003890D02*
D03*
X003700D02*
D03*
X007229D02*
D03*
X007488D02*
D03*
X006840D02*
D03*
X005620Y004103D02*
D03*
Y004817D02*
D03*
X007522Y000983D02*
D03*
X007724D02*
D03*
X007890Y001612D02*
D03*
X007523Y001415D02*
D03*
X005853D02*
D03*
X006220Y001612D02*
D03*
X006054Y000983D02*
D03*
X005852D02*
D03*
X004182D02*
D03*
X004384D02*
D03*
X004550Y001612D02*
D03*
X004183Y001415D02*
D03*
X004637Y005061D02*
D03*
X004270Y004864D02*
D03*
X004436Y005493D02*
D03*
X004638D02*
D03*
X001298D02*
D03*
X001096D02*
D03*
X000930Y004864D02*
D03*
X001297Y005061D02*
D03*
X002967D02*
D03*
X002600Y004864D02*
D03*
X002766Y005493D02*
D03*
X002968D02*
D03*
X002290Y005440D02*
D03*
X002400Y003925D02*
D03*
X004077D02*
D03*
X004760Y002540D02*
D03*
X007844Y002410D02*
D03*
X006170D02*
D03*
X004510D02*
D03*
X004258D02*
D03*
X007600D02*
D03*
X005930D02*
D03*
X008250Y002000D02*
D03*
X005000Y000500D02*
D03*
X004750Y001000D02*
D03*
X004000Y005500D02*
D03*
X003750Y006000D02*
D03*
X003250D02*
D03*
X002500Y002500D02*
D03*
X001000D02*
D03*
X003946Y004660D02*
D03*
X002290D02*
D03*
X004560Y004060D02*
D03*
X002640D02*
D03*
X004340D02*
D03*
X002890D02*
D03*
X000970D02*
D03*
X001220D02*
D03*
X001977Y003610D02*
D03*
X003450D02*
D03*
X003645D02*
D03*
X003946Y003747D02*
D03*
X002290D02*
D03*
X004751Y002773D02*
D03*
X001980Y005710D02*
D03*
X003240Y005686D02*
D03*
X003946Y004990D02*
D03*
X004077Y003809D02*
D03*
X003605Y005686D02*
D03*
X005120Y005680D02*
D03*
X005390Y003600D02*
D03*
X005212Y003630D02*
D03*
X005620Y005170D02*
D03*
X001780Y003610D02*
D03*
X001110Y003630D02*
D03*
X002390Y003400D02*
D03*
X004090Y003420D02*
D03*
X001443Y002094D02*
D03*
X001450Y002670D02*
D03*
X001930D02*
D03*
X001090Y003150D02*
D03*
X007260Y002398D02*
D03*
X005560Y002860D02*
D03*
X003185Y000940D02*
D03*
X006540Y001115D02*
D03*
X004870D02*
D03*
X003245Y001880D02*
D03*
X003500Y002860D02*
D03*
X005173D02*
D03*
X006413Y002723D02*
D03*
X004870Y001890D02*
D03*
X005080Y001880D02*
D03*
X004870Y002180D02*
D03*
Y002670D02*
D03*
X002935Y002684D02*
D03*
Y002570D02*
D03*
X003185Y001297D02*
D03*
X006540Y002723D02*
D03*
X003701Y002860D02*
D03*
X006540Y001300D02*
D03*
X004870D02*
D03*
Y001480D02*
D03*
X003200Y002723D02*
D03*
X002930Y002810D02*
D03*
X005370Y002860D02*
D03*
X006413Y002540D02*
D03*
X006940Y002723D02*
D03*
X005570Y000800D02*
D03*
X008147Y002723D02*
D03*
X006540Y002190D02*
D03*
X006750Y001880D02*
D03*
X006840Y001790D02*
D03*
X006540Y001480D02*
D03*
X003410Y001880D02*
D03*
X003500Y001790D02*
D03*
X003500Y000800D02*
D03*
X003200Y002190D02*
D03*
X002400Y003800D02*
D03*
X003200Y001586D02*
D03*
X005270Y001030D02*
D03*
X005620Y003747D02*
D03*
Y004280D02*
D03*
Y004990D02*
D03*
X005320Y004680D02*
D03*
X005410Y004590D02*
D03*
X003946Y005170D02*
D03*
X003740Y004590D02*
D03*
X003946Y004280D02*
D03*
X003650Y004680D02*
D03*
X003744Y005686D02*
D03*
X002070Y004590D02*
D03*
X001980Y004680D02*
D03*
X001780Y005710D02*
D03*
X001590D02*
D03*
X004930Y005680D02*
D03*
X001410Y005710D02*
D03*
X005030Y005810D02*
D03*
X002290Y005170D02*
D03*
Y004990D02*
D03*
Y004280D02*
D03*
X005170Y001790D02*
D03*
X000810Y003270D02*
D03*
X004860Y003080D02*
D03*
X002070Y001960D02*
D03*
D58*
X001799Y006095D02*
D03*
X004395Y003245D02*
D03*
X005445Y006095D02*
D03*
X000395Y001845D02*
D03*
X003345Y000395D02*
D03*
X008395Y002545D02*
D03*
X006991Y000395D02*
D03*
D72*
X005321Y005335D02*
D03*
X005511Y005270D02*
D03*
X006649Y001200D02*
D03*
X006839Y001135D02*
D03*
X006650Y002565D02*
D03*
X006840Y002500D02*
D03*
X003309Y001200D02*
D03*
X003499Y001135D02*
D03*
X003310Y002695D02*
D03*
X003500Y002630D02*
D03*
X005169Y001135D02*
D03*
X004979Y001200D02*
D03*
X005170Y002630D02*
D03*
X004980Y002695D02*
D03*
X002170Y003775D02*
D03*
X001980Y003840D02*
D03*
X002171Y005270D02*
D03*
X001981Y005335D02*
D03*
X003840Y003775D02*
D03*
X003650Y003840D02*
D03*
X003841Y005270D02*
D03*
X003651Y005335D02*
D03*
X005510Y003775D02*
D03*
X005320Y003840D02*
D03*
D73*
X005511Y005400D02*
D03*
X006649Y001070D02*
D03*
X006650Y002435D02*
D03*
X003309Y001070D02*
D03*
X003310Y002565D02*
D03*
X004979Y001070D02*
D03*
X004980Y002565D02*
D03*
X002170Y003905D02*
D03*
X002171Y005400D02*
D03*
X003840Y003905D02*
D03*
X003841Y005400D02*
D03*
X005510Y003905D02*
D03*
D74*
X005015Y003240D02*
D03*
D75*
X004825Y003240D02*
D03*
D76*
X004920Y003490D02*
D03*
D77*
X006740Y000670D02*
X007531D01*
X007983Y001121D02*
Y001293D01*
X007531Y000670D02*
X007983Y001121D01*
X006458Y000780D02*
X006630D01*
X006740Y000670D01*
X006158Y000780D02*
X006458D01*
X000837Y005183D02*
Y005348D01*
X001319Y005830D02*
X002197D01*
X000837Y005348D02*
X001319Y005830D01*
X006313Y000979D02*
Y001293D01*
X006233Y000900D02*
X006313Y000979D01*
X002335Y005711D02*
X002635D01*
X002315D02*
X002335D01*
X002197Y005830D02*
X002315Y005711D01*
X002703Y005589D02*
X002810Y005696D01*
X002507Y005537D02*
X002559Y005589D01*
X002703D01*
X002810Y005696D02*
Y005871D01*
X002507Y005183D02*
Y005537D01*
X003790Y006250D02*
X004177Y005863D01*
X002910Y006250D02*
X003790D01*
X004177Y005183D02*
Y005863D01*
X006030Y000900D02*
X006233D01*
X006000Y000870D02*
X006030Y000900D01*
X006000Y000570D02*
Y000870D01*
Y000570D02*
X006019Y000550D01*
X002811Y006151D02*
X002910Y006250D01*
X002335Y006151D02*
X002635D01*
X002811D01*
X002656Y005910D02*
X002771D01*
X002810Y005871D01*
X002635Y005931D02*
X002656Y005910D01*
X002335Y005931D02*
X002635D01*
X006019Y000550D02*
X006148D01*
X006158Y000560D01*
X006408D01*
X005890Y000250D02*
X005974Y000334D01*
X005000Y000250D02*
X005890D01*
X006103Y000334D02*
X006108Y000340D01*
X005974Y000334D02*
X006103D01*
X006094Y000340D02*
X006408D01*
X004643Y000607D02*
X005000Y000250D01*
X004643Y000607D02*
Y001293D01*
M02*
