G04*
G04 #@! TF.GenerationSoftware,Altium Limited,Altium Designer,20.1.10 (176)*
G04*
G04 Layer_Physical_Order=1*
G04 Layer_Color=5064179*
%FSAX42Y42*%
%MOMM*%
G71*
G04*
G04 #@! TF.SameCoordinates,9C08BAFA-1892-4BA1-9AB8-C06810583842*
G04*
G04*
G04 #@! TF.FilePolarity,Positive*
G04*
G01*
G75*
%ADD10C,0.20*%
%ADD29R,0.80X1.30*%
%ADD30R,1.30X0.80*%
%ADD31O,2.41X0.64*%
%ADD32R,2.41X0.64*%
%ADD33C,0.30*%
%ADD34C,0.50*%
%ADD35C,0.75*%
%ADD36C,0.38*%
%ADD37C,1.02*%
%ADD38C,1.20*%
%ADD39P,1.70X4X270.0*%
%ADD40C,1.37*%
%ADD41R,1.37X1.37*%
%ADD42C,3.05*%
%ADD43C,2.79*%
%ADD44R,3.05X3.05*%
%ADD45C,0.50*%
%ADD46C,0.70*%
%ADD47C,2.80*%
%ADD48C,4.00*%
G36*
X002173Y006333D02*
X002101Y006264D01*
X002064Y006189D01*
X002050Y006050D01*
X002050Y006050D01*
X002046Y006028D01*
X002030Y005988D01*
X002008Y005950D01*
X001979Y005917D01*
X001945Y005889D01*
X001907Y005867D01*
X001866Y005853D01*
X001822Y005845D01*
X001801Y005845D01*
X001218Y005845D01*
X001213Y005857D01*
X001567Y006217D01*
X001575Y006225D01*
X001575Y006225D01*
X001584Y006239D01*
X001606Y006264D01*
X001631Y006286D01*
X001658Y006305D01*
X001687Y006321D01*
X001718Y006333D01*
X001751Y006341D01*
X001784Y006345D01*
X001800Y006345D01*
X002168Y006345D01*
X002173Y006333D01*
D02*
G37*
G36*
X005522Y006329D02*
X005567Y006311D01*
X005608Y006283D01*
X005643Y006248D01*
X005670Y006208D01*
X005689Y006162D01*
X005699Y006114D01*
X005699Y006089D01*
X005699Y005723D01*
X005687Y005719D01*
X005664Y005746D01*
X005664Y005746D01*
X005664D01*
X005652Y005759D01*
X005626Y005782D01*
X005597Y005802D01*
X005566Y005817D01*
X005550Y005823D01*
X005522Y005828D01*
X005465Y005838D01*
X005410Y005849D01*
X005354Y005863D01*
X005327Y005871D01*
X005153Y006045D01*
X005153Y006045D01*
X005140Y006053D01*
X005112Y006067D01*
X005082Y006078D01*
X005052Y006087D01*
X005021Y006093D01*
X004990Y006095D01*
X004958Y006095D01*
X004927Y006092D01*
X004912Y006089D01*
X004881Y006088D01*
X004819Y006087D01*
X004757Y006087D01*
X004695Y006089D01*
X004679Y006089D01*
X004675Y006094D01*
X004672Y006102D01*
X004675Y006106D01*
X004680Y006112D01*
X004682Y006115D01*
X004776Y006245D01*
X004839Y006307D01*
X004946Y006339D01*
X005449Y006339D01*
X005449Y006339D01*
X005449Y006339D01*
X005473Y006339D01*
X005522Y006329D01*
D02*
G37*
G36*
X003820Y006314D02*
Y006314D01*
X003849Y006312D01*
X003863Y006311D01*
X003904Y006298D01*
X003942Y006278D01*
X003975Y006250D01*
X004000Y006220D01*
X004014Y006196D01*
X004023Y006180D01*
X004029Y006172D01*
X004055Y006133D01*
X004092Y006090D01*
X004134Y006053D01*
X004181Y006022D01*
X004232Y005997D01*
X004285Y005979D01*
X004340Y005968D01*
X004397Y005964D01*
X004453Y005968D01*
X004508Y005979D01*
X004562Y005997D01*
X004612Y006022D01*
X004659Y006053D01*
X004671Y006063D01*
X004934D01*
X004964Y006063D01*
X004964Y006063D01*
X004993Y006064D01*
X005028Y006061D01*
X005069Y006051D01*
X005108Y006035D01*
X005144Y006013D01*
X005176Y005986D01*
X005194Y005965D01*
X005211Y005942D01*
X005219Y005930D01*
X005229Y005919D01*
X005248Y005896D01*
X005282Y005868D01*
X005319Y005845D01*
X005360Y005828D01*
X005403Y005818D01*
X005447Y005814D01*
Y005814D01*
X005476Y005812D01*
X005485Y005812D01*
X005495Y005805D01*
X005487Y005775D01*
X005413D01*
Y005605D01*
X005413D01*
X005413Y005589D01*
X005413D01*
Y005419D01*
X005437D01*
Y005369D01*
X005430Y005359D01*
X005426Y005341D01*
X005430Y005324D01*
X005440Y005309D01*
X005455Y005299D01*
X005472Y005295D01*
X005490Y005299D01*
X005505Y005309D01*
X005515Y005324D01*
X005518Y005341D01*
X005515Y005359D01*
X005508Y005369D01*
Y005419D01*
X005533D01*
Y005589D01*
X005533D01*
X005533Y005605D01*
X005533D01*
X005533Y005768D01*
X005540Y005774D01*
X005540D01*
X005540Y005774D01*
X005540D01*
X005564Y005787D01*
X005569Y005785D01*
X005605Y005763D01*
X005637Y005736D01*
X005665Y005703D01*
X005666Y005701D01*
Y003895D01*
X005666Y003895D01*
X005666D01*
X005669Y003851D01*
X005680Y003808D01*
X005696Y003767D01*
X005719Y003730D01*
X005748Y003696D01*
X005782Y003668D01*
X005819Y003645D01*
X005860Y003628D01*
X005903Y003618D01*
X005947Y003614D01*
Y003614D01*
X005947Y003614D01*
X007747D01*
X007747Y003614D01*
Y003614D01*
X007791Y003618D01*
X007833Y003628D01*
X007874Y003645D01*
X007912Y003668D01*
X007945Y003696D01*
X007974Y003730D01*
X007997Y003767D01*
X008014Y003808D01*
X008024Y003851D01*
X008028Y003895D01*
X008027D01*
X008027Y003895D01*
Y004138D01*
X008034Y004148D01*
X008061Y004181D01*
X008093Y004208D01*
X008129Y004230D01*
X008168Y004246D01*
X008209Y004256D01*
X008251Y004260D01*
X008252Y004259D01*
X008447D01*
X008447Y004260D01*
X008489Y004256D01*
X008530Y004246D01*
X008569Y004230D01*
X008605Y004208D01*
X008637Y004181D01*
X008665Y004148D01*
X008666Y004146D01*
Y001849D01*
X008666Y001849D01*
X008666D01*
X008664Y001820D01*
X008662Y001806D01*
X008650Y001764D01*
X008629Y001726D01*
X008621Y001716D01*
X008602Y001693D01*
X008581Y001672D01*
X007585Y000676D01*
X007573Y000675D01*
X007572Y000676D01*
X006993D01*
Y000676D01*
X006949Y000672D01*
X006906Y000662D01*
X006866Y000645D01*
X006828Y000622D01*
X006794Y000594D01*
X006766Y000560D01*
X006743Y000523D01*
X006726Y000482D01*
X006716Y000439D01*
X006712Y000395D01*
X006712D01*
X006710Y000366D01*
X006709Y000353D01*
X006699Y000312D01*
X006683Y000273D01*
X006661Y000237D01*
X006634Y000204D01*
X006602Y000177D01*
X006599Y000176D01*
X004973D01*
X004973Y000176D01*
Y000176D01*
X004944Y000178D01*
X004930Y000179D01*
X004889Y000192D01*
X004851Y000212D01*
X004818Y000240D01*
X004793Y000270D01*
X004779Y000294D01*
X004770Y000310D01*
X004765Y000318D01*
X004739Y000357D01*
X004701Y000400D01*
X004659Y000437D01*
X004612Y000468D01*
X004562Y000493D01*
X004508Y000511D01*
X004453Y000522D01*
X004397Y000526D01*
X004340Y000522D01*
X004285Y000511D01*
X004232Y000493D01*
X004181Y000468D01*
X004134Y000437D01*
X004121Y000426D01*
X003838D01*
X003808Y000426D01*
X003808Y000426D01*
X003808Y000426D01*
Y000426D01*
X003779Y000428D01*
X003765Y000429D01*
X003724Y000439D01*
X003685Y000455D01*
X003649Y000477D01*
X003617Y000504D01*
X003600Y000525D01*
X003582Y000548D01*
X003574Y000560D01*
X003564Y000571D01*
X003545Y000594D01*
X003512Y000622D01*
X003474Y000645D01*
X003433Y000662D01*
X003391Y000672D01*
X003347Y000676D01*
X003317Y000678D01*
X003304Y000679D01*
X003273Y000686D01*
X003273Y000688D01*
X003301Y000718D01*
X003347D01*
Y000888D01*
X003347D01*
X003347Y000904D01*
X003347D01*
Y001074D01*
X003347D01*
X003338Y001104D01*
X003343Y001125D01*
X003338Y001146D01*
X003326Y001165D01*
X003308Y001177D01*
X003287Y001181D01*
X003265Y001177D01*
X003247Y001165D01*
X003235Y001146D01*
X003230Y001125D01*
X003235Y001104D01*
X003227Y001074D01*
X003227D01*
Y000904D01*
X003227D01*
X003227Y000888D01*
X003227D01*
Y000739D01*
X003197Y000722D01*
X003188Y000727D01*
X003156Y000754D01*
X003129Y000787D01*
X003127Y000789D01*
Y001785D01*
X003157Y001794D01*
X003160Y001790D01*
X003229Y001720D01*
X003218Y001706D01*
X003211Y001689D01*
X003209Y001670D01*
X003211Y001652D01*
X003218Y001635D01*
X003230Y001620D01*
X003244Y001609D01*
X003262Y001602D01*
X003280Y001599D01*
X003298Y001602D01*
X003316Y001609D01*
X003330Y001620D01*
X003342Y001635D01*
X003349Y001652D01*
X003351Y001670D01*
X003349Y001689D01*
X003342Y001706D01*
X003330Y001721D01*
X003316Y001732D01*
X003302Y001738D01*
X003300Y001747D01*
X003292Y001758D01*
X003243Y001807D01*
X003256Y001837D01*
X003346D01*
Y002007D01*
X003346D01*
X003346Y002023D01*
X003346D01*
Y002193D01*
X003322D01*
Y002258D01*
X003326Y002260D01*
X003338Y002279D01*
X003342Y002300D01*
X003338Y002321D01*
X003326Y002340D01*
X003308Y002352D01*
X003286Y002356D01*
X003265Y002352D01*
X003251Y002343D01*
X003234Y002347D01*
X003221Y002355D01*
Y002420D01*
X003475Y002675D01*
X003483Y002686D01*
X003486Y002700D01*
Y003150D01*
X003483Y003164D01*
X003475Y003175D01*
X003228Y003423D01*
X003240Y003453D01*
X004257D01*
X004267Y003423D01*
X004240Y003401D01*
X004213Y003368D01*
X004192Y003330D01*
X004180Y003288D01*
X004176Y003245D01*
X004180Y003202D01*
X004192Y003160D01*
X004213Y003122D01*
X004240Y003089D01*
X004274Y003061D01*
X004312Y003041D01*
X004354Y003028D01*
X004397Y003024D01*
X004440Y003028D01*
X004481Y003041D01*
X004519Y003061D01*
X004553Y003089D01*
X004580Y003122D01*
X004601Y003160D01*
X004613Y003202D01*
X004618Y003245D01*
X004613Y003288D01*
X004601Y003330D01*
X004580Y003368D01*
X004553Y003401D01*
X004527Y003423D01*
X004536Y003453D01*
X005263D01*
X005277Y003456D01*
X005289Y003463D01*
X005625Y003800D01*
X005633Y003811D01*
X005636Y003825D01*
Y004700D01*
X005633Y004714D01*
X005625Y004725D01*
X005549Y004801D01*
X005549Y004802D01*
X005551Y004820D01*
X005549Y004838D01*
X005542Y004856D01*
X005530Y004870D01*
X005516Y004882D01*
X005498Y004889D01*
X005480Y004891D01*
X005462Y004889D01*
X005444Y004882D01*
X005430Y004870D01*
X005418Y004856D01*
X005411Y004838D01*
X005409Y004820D01*
X005411Y004802D01*
X005418Y004784D01*
X005430Y004770D01*
X005444Y004758D01*
X005462Y004751D01*
X005480Y004749D01*
X005498Y004751D01*
X005499Y004751D01*
X005564Y004685D01*
Y003840D01*
X005249Y003524D01*
X004118D01*
X004111Y003533D01*
X003989D01*
X003982Y003524D01*
X003226D01*
X002681Y004069D01*
X002670Y004077D01*
X002656Y004080D01*
X000646D01*
X000636Y004089D01*
X000627Y004107D01*
X000633Y004122D01*
X000636Y004145D01*
X000633Y004168D01*
X000624Y004190D01*
X000610Y004208D01*
X000591Y004222D01*
X000570Y004231D01*
X000547Y004234D01*
X000524Y004231D01*
X000502Y004222D01*
X000483Y004208D01*
X000469Y004190D01*
X000465Y004180D01*
X000435Y004186D01*
Y004234D01*
X000258D01*
Y004056D01*
X000306D01*
X000312Y004026D01*
X000302Y004022D01*
X000283Y004008D01*
X000269Y003990D01*
X000260Y003968D01*
X000257Y003945D01*
X000260Y003922D01*
X000269Y003900D01*
X000283Y003882D01*
X000302Y003868D01*
X000319Y003861D01*
X000321Y003845D01*
X000319Y003829D01*
X000302Y003822D01*
X000283Y003808D01*
X000269Y003790D01*
X000260Y003768D01*
X000257Y003745D01*
X000260Y003722D01*
X000269Y003700D01*
X000283Y003682D01*
X000302Y003668D01*
X000319Y003661D01*
X000321Y003645D01*
X000319Y003629D01*
X000302Y003622D01*
X000283Y003608D01*
X000269Y003590D01*
X000260Y003568D01*
X000257Y003545D01*
X000260Y003522D01*
X000269Y003500D01*
X000283Y003482D01*
X000302Y003468D01*
X000319Y003461D01*
X000321Y003445D01*
X000319Y003429D01*
X000302Y003422D01*
X000283Y003408D01*
X000269Y003390D01*
X000260Y003368D01*
X000257Y003345D01*
X000260Y003322D01*
X000269Y003300D01*
X000283Y003282D01*
X000302Y003268D01*
X000319Y003261D01*
X000321Y003245D01*
X000319Y003229D01*
X000302Y003222D01*
X000283Y003208D01*
X000269Y003190D01*
X000260Y003168D01*
X000257Y003145D01*
X000260Y003122D01*
X000269Y003100D01*
X000283Y003082D01*
X000302Y003068D01*
X000319Y003061D01*
X000321Y003045D01*
X000319Y003029D01*
X000302Y003022D01*
X000283Y003008D01*
X000269Y002990D01*
X000260Y002968D01*
X000257Y002945D01*
X000260Y002922D01*
X000269Y002900D01*
X000283Y002882D01*
X000302Y002868D01*
X000319Y002861D01*
X000321Y002845D01*
X000319Y002829D01*
X000302Y002822D01*
X000283Y002808D01*
X000269Y002790D01*
X000260Y002768D01*
X000257Y002745D01*
X000260Y002722D01*
X000269Y002700D01*
X000283Y002682D01*
X000302Y002668D01*
X000319Y002661D01*
X000321Y002645D01*
X000319Y002629D01*
X000302Y002622D01*
X000283Y002608D01*
X000269Y002590D01*
X000260Y002568D01*
X000257Y002545D01*
X000260Y002522D01*
X000269Y002500D01*
X000283Y002482D01*
X000302Y002468D01*
X000319Y002461D01*
X000321Y002445D01*
X000319Y002429D01*
X000302Y002422D01*
X000283Y002408D01*
X000269Y002390D01*
X000260Y002368D01*
X000257Y002345D01*
X000260Y002322D01*
X000269Y002300D01*
X000283Y002282D01*
X000285Y002281D01*
X000283Y002244D01*
X000276Y002240D01*
X000263Y002244D01*
X000224Y002260D01*
X000188Y002282D01*
X000156Y002309D01*
X000129Y002342D01*
X000127Y002344D01*
Y004611D01*
X000127Y004641D01*
X000130Y004670D01*
X000131Y004684D01*
X000144Y004726D01*
X000164Y004764D01*
X000173Y004774D01*
X000191Y004797D01*
X000192Y004797D01*
X000213Y004818D01*
X001210Y005815D01*
X001800D01*
X001801Y005814D01*
Y005814D01*
X001844Y005818D01*
X001887Y005828D01*
X001928Y005845D01*
X001966Y005868D01*
X001999Y005896D01*
X002028Y005930D01*
X002051Y005968D01*
X002068Y006008D01*
X002078Y006051D01*
X002081Y006095D01*
X002081D01*
X002083Y006124D01*
X002084Y006137D01*
X002094Y006178D01*
X002110Y006217D01*
X002132Y006253D01*
X002160Y006286D01*
X002192Y006313D01*
X002194Y006314D01*
X003820D01*
X003820Y006314D01*
D02*
G37*
G36*
X008247Y004895D02*
X008436Y004895D01*
X008436Y004895D01*
X008436Y004895D01*
X008452Y004895D01*
X008485Y004891D01*
X008518Y004883D01*
X008550Y004872D01*
X008565Y004865D01*
X008580Y004857D01*
X008608Y004838D01*
X008633Y004815D01*
X008654Y004789D01*
X008672Y004760D01*
X008686Y004729D01*
X008695Y004696D01*
X008700Y004663D01*
X008700Y004646D01*
X008700Y004191D01*
X008687Y004185D01*
X008681Y004190D01*
X008642Y004217D01*
X008600Y004240D01*
X008557Y004259D01*
X008512Y004275D01*
X008465Y004286D01*
X008418Y004293D01*
X008370Y004295D01*
X008347Y004295D01*
X008163Y004276D01*
X008163Y004276D01*
X008149Y004273D01*
X008123Y004264D01*
X008097Y004252D01*
X008073Y004237D01*
X008052Y004219D01*
X008032Y004199D01*
X008016Y004176D01*
X008009Y004164D01*
X007997Y004168D01*
X007997Y004645D01*
X007997Y004645D01*
X007997Y004645D01*
X007997Y004670D01*
X008006Y004718D01*
X008025Y004763D01*
X008053Y004804D01*
X008088Y004839D01*
X008129Y004867D01*
X008174Y004885D01*
X008223Y004895D01*
X008247Y004895D01*
D02*
G37*
G36*
X003020Y003405D02*
X003019Y003400D01*
X003023Y003379D01*
X003035Y003360D01*
X003054Y003348D01*
X003075Y003344D01*
X003096Y003348D01*
X003115Y003360D01*
X003127Y003379D01*
X003131Y003400D01*
X003131Y003401D01*
X003143Y003407D01*
X003280Y003270D01*
Y002900D01*
X000865D01*
Y003040D01*
X000914D01*
Y003160D01*
X000744D01*
Y003040D01*
X000794D01*
Y002900D01*
X000650D01*
Y003475D01*
X000984D01*
Y003350D01*
X000945D01*
Y003230D01*
X001115D01*
Y003350D01*
X001076D01*
Y003475D01*
X001597D01*
Y003350D01*
X001548D01*
Y003230D01*
X001718D01*
Y003350D01*
X001669D01*
Y003475D01*
X002308D01*
X002313Y003463D01*
X002207Y003357D01*
X002199Y003346D01*
X002196Y003332D01*
Y003172D01*
X002160Y003136D01*
X002120D01*
Y003160D01*
X001950D01*
Y003040D01*
X002120D01*
Y003064D01*
X002171D01*
X002176Y003054D01*
X002177Y003052D01*
X002143Y003019D01*
X001870D01*
Y003041D01*
X001919D01*
Y003160D01*
X001749D01*
Y003136D01*
X001718D01*
Y003160D01*
X001548D01*
Y003040D01*
X001718D01*
Y003065D01*
X001749D01*
Y003041D01*
X001798D01*
Y003017D01*
X001794Y003015D01*
X001782Y002996D01*
X001778Y002975D01*
X001782Y002954D01*
X001794Y002935D01*
X001813Y002923D01*
X001834Y002919D01*
X001856Y002923D01*
X001874Y002935D01*
X001882Y002947D01*
X002158D01*
X002172Y002950D01*
X002183Y002958D01*
X002325Y003100D01*
X002333Y003111D01*
X002336Y003125D01*
Y003315D01*
X002362Y003341D01*
X002429D01*
X002430Y003329D01*
X002425Y003328D01*
X002406Y003320D01*
X002389Y003307D01*
X002376Y003290D01*
X002368Y003271D01*
X002365Y003250D01*
X002368Y003229D01*
X002376Y003210D01*
X002389Y003193D01*
X002406Y003180D01*
X002425Y003172D01*
X002446Y003169D01*
X002467Y003172D01*
X002472Y003174D01*
X002541Y003105D01*
X002552Y003097D01*
X002566Y003094D01*
X003005D01*
X003019Y003097D01*
X003030Y003105D01*
X003145Y003220D01*
X003150Y003219D01*
X003171Y003223D01*
X003190Y003235D01*
X003202Y003254D01*
X003206Y003275D01*
X003202Y003296D01*
X003190Y003315D01*
X003171Y003327D01*
X003150Y003331D01*
X003129Y003327D01*
X003110Y003315D01*
X003098Y003296D01*
X003094Y003275D01*
X003095Y003270D01*
X002990Y003166D01*
X002746D01*
X002741Y003178D01*
X002742Y003179D01*
X002700Y003222D01*
X002658Y003179D01*
X002659Y003178D01*
X002654Y003166D01*
X002581D01*
X002522Y003224D01*
X002524Y003229D01*
X002527Y003250D01*
X002524Y003271D01*
X002516Y003290D01*
X002503Y003307D01*
X002486Y003320D01*
X002467Y003328D01*
X002462Y003329D01*
X002463Y003341D01*
X002501D01*
X002503Y003337D01*
X002516Y003320D01*
X002533Y003307D01*
X002552Y003299D01*
X002573Y003296D01*
X002594Y003299D01*
X002613Y003307D01*
X002630Y003320D01*
X002643Y003337D01*
X002651Y003356D01*
X002654Y003377D01*
X002651Y003398D01*
X002643Y003417D01*
X002630Y003434D01*
X002613Y003447D01*
X002594Y003455D01*
X002573Y003458D01*
X002552Y003455D01*
X002533Y003447D01*
X002516Y003434D01*
X002503Y003417D01*
X002501Y003413D01*
X002380D01*
X002375Y003424D01*
X002425Y003475D01*
X002950D01*
X003020Y003405D01*
D02*
G37*
G36*
X000766Y002472D02*
Y002352D01*
X000760Y002342D01*
X000732Y002309D01*
X000700Y002282D01*
X000664Y002260D01*
X000625Y002244D01*
X000594Y002236D01*
X000584Y002265D01*
X000591Y002268D01*
X000610Y002282D01*
X000624Y002300D01*
X000633Y002322D01*
X000633Y002325D01*
X000547D01*
Y002365D01*
X000633D01*
X000633Y002368D01*
X000629Y002377D01*
X000736Y002484D01*
X000766Y002472D01*
D02*
G37*
G36*
X000801Y002321D02*
Y001843D01*
X000801Y001843D01*
X000801Y001819D01*
X000791Y001770D01*
X000772Y001725D01*
X000745Y001684D01*
X000710Y001649D01*
X000669Y001622D01*
X000624Y001603D01*
X000575Y001593D01*
X000551Y001593D01*
X000362Y001593D01*
X000346Y001593D01*
X000312Y001597D01*
X000280Y001605D01*
X000248Y001616D01*
X000233Y001624D01*
X000218Y001631D01*
X000190Y001650D01*
X000165Y001673D01*
X000143Y001699D01*
X000126Y001728D01*
X000112Y001759D01*
X000103Y001792D01*
X000098Y001825D01*
X000098Y001842D01*
X000097Y002306D01*
X000108Y002311D01*
X000114Y002306D01*
X000152Y002275D01*
X000193Y002248D01*
X000236Y002226D01*
X000282Y002210D01*
X000330Y002198D01*
X000378Y002192D01*
X000427Y002191D01*
X000451Y002193D01*
X000635Y002212D01*
X000635Y002212D01*
X000635Y002212D01*
X000648Y002215D01*
X000675Y002224D01*
X000701Y002236D01*
X000724Y002251D01*
X000746Y002269D01*
X000765Y002289D01*
X000782Y002312D01*
X000788Y002324D01*
X000801Y002321D01*
D02*
G37*
G36*
X003134Y000745D02*
X003146Y000732D01*
X003172Y000709D01*
X003201Y000689D01*
X003232Y000674D01*
X003248Y000667D01*
Y000667D01*
X003277Y000663D01*
X003297Y000660D01*
X003300Y000659D01*
X003301Y000659D01*
X003302Y000659D01*
X003303Y000658D01*
X003304Y000658D01*
X003333Y000653D01*
X003388Y000641D01*
X003444Y000628D01*
X003471Y000620D01*
X003645Y000446D01*
X003645Y000446D01*
X003659Y000438D01*
X003687Y000424D01*
X003716Y000412D01*
X003746Y000404D01*
X003777Y000398D01*
X003808Y000395D01*
X003840Y000396D01*
X003871Y000399D01*
X003887Y000402D01*
X003887Y000402D01*
X003918Y000403D01*
X003980Y000403D01*
X004042Y000403D01*
X004103Y000402D01*
X004120Y000402D01*
X004124Y000397D01*
X004126Y000389D01*
X004123Y000385D01*
X004118Y000379D01*
X004116Y000376D01*
X004022Y000246D01*
X003959Y000184D01*
X003852Y000152D01*
X003350Y000152D01*
Y000152D01*
X003325Y000152D01*
X003277Y000161D01*
X003231Y000180D01*
X003190Y000207D01*
X003155Y000242D01*
X003128Y000283D01*
X003109Y000329D01*
X003100Y000377D01*
X003100Y000402D01*
X003100Y000767D01*
X003112Y000772D01*
X003134Y000745D01*
D02*
G37*
G36*
X006998Y000651D02*
X007581Y000651D01*
X007586Y000640D01*
X007224Y000272D01*
X007214Y000258D01*
X007193Y000233D01*
X007168Y000210D01*
X007141Y000191D01*
X007111Y000176D01*
X007080Y000164D01*
X007048Y000156D01*
X007015Y000152D01*
X006998Y000152D01*
X006631Y000152D01*
X006626Y000163D01*
X006698Y000233D01*
X006734Y000307D01*
X006749Y000447D01*
X006749Y000447D01*
X006753Y000468D01*
X006769Y000509D01*
X006791Y000547D01*
X006820Y000580D01*
X006854Y000608D01*
X006892Y000629D01*
X006933Y000644D01*
X006976Y000651D01*
X006998Y000651D01*
D02*
G37*
%LPC*%
G36*
X001800Y006316D02*
X001757Y006312D01*
X001716Y006299D01*
X001677Y006279D01*
X001644Y006251D01*
X001616Y006218D01*
X001596Y006180D01*
X001583Y006138D01*
X001579Y006095D01*
X001583Y006052D01*
X001596Y006010D01*
X001616Y005972D01*
X001644Y005939D01*
X001677Y005911D01*
X001716Y005891D01*
X001757Y005878D01*
X001800Y005874D01*
X001843Y005878D01*
X001885Y005891D01*
X001923Y005911D01*
X001957Y005939D01*
X001984Y005972D01*
X002004Y006010D01*
X002017Y006052D01*
X002021Y006095D01*
X002017Y006138D01*
X002004Y006180D01*
X001984Y006218D01*
X001957Y006251D01*
X001923Y006279D01*
X001885Y006299D01*
X001843Y006312D01*
X001800Y006316D01*
D02*
G37*
G36*
X005447D02*
X005404Y006312D01*
X005362Y006299D01*
X005324Y006279D01*
X005290Y006251D01*
X005263Y006218D01*
X005242Y006180D01*
X005230Y006138D01*
X005226Y006095D01*
X005230Y006052D01*
X005242Y006010D01*
X005263Y005972D01*
X005290Y005939D01*
X005324Y005911D01*
X005362Y005891D01*
X005404Y005878D01*
X005447Y005874D01*
X005490Y005878D01*
X005531Y005891D01*
X005569Y005911D01*
X005603Y005939D01*
X005630Y005972D01*
X005651Y006010D01*
X005663Y006052D01*
X005668Y006095D01*
X005663Y006138D01*
X005651Y006180D01*
X005630Y006218D01*
X005603Y006251D01*
X005569Y006279D01*
X005531Y006299D01*
X005490Y006312D01*
X005447Y006316D01*
D02*
G37*
G36*
X003093Y006192D02*
X003062Y006189D01*
X003032Y006180D01*
X003004Y006165D01*
X002980Y006145D01*
X002960Y006121D01*
X002945Y006093D01*
X002944Y006090D01*
X002839D01*
X002838Y006093D01*
X002823Y006121D01*
X002803Y006145D01*
X002779Y006165D01*
X002751Y006180D01*
X002721Y006189D01*
X002689Y006192D01*
X002658Y006189D01*
X002628Y006180D01*
X002600Y006165D01*
X002576Y006145D01*
X002556Y006121D01*
X002541Y006093D01*
X002532Y006063D01*
X002529Y006031D01*
X002532Y006000D01*
X002541Y005970D01*
X002542Y005967D01*
X002278Y005703D01*
X002265Y005684D01*
X002261Y005661D01*
Y005373D01*
X002259D01*
Y005216D01*
X002259Y005203D01*
X002259D01*
X002260Y005187D01*
X002260D01*
Y005030D01*
X002259Y005001D01*
X002259Y004987D01*
Y004845D01*
X002259Y004815D01*
X002259Y004801D01*
Y004658D01*
X002259Y004645D01*
X002259D01*
X002260Y004629D01*
X002260D01*
Y004473D01*
X002260Y004451D01*
X002260Y004429D01*
Y004273D01*
X002380D01*
Y004322D01*
X002422D01*
X002436Y004325D01*
X002448Y004332D01*
X002465Y004350D01*
X002473Y004362D01*
X002476Y004375D01*
Y004898D01*
X002473Y004912D01*
X002465Y004923D01*
X002448Y004941D01*
X002436Y004949D01*
X002422Y004951D01*
X002379D01*
Y004987D01*
X002380Y005017D01*
X002380Y005030D01*
Y005173D01*
X002380Y005187D01*
X002380D01*
X002379Y005203D01*
X002379D01*
Y005373D01*
X002378D01*
Y005637D01*
X002533Y005792D01*
X002556Y005772D01*
X002541Y005745D01*
X002532Y005714D01*
X002530Y005703D01*
X002848D01*
X002847Y005714D01*
X002838Y005745D01*
X002823Y005772D01*
X002803Y005797D01*
X002779Y005817D01*
X002751Y005832D01*
X002721Y005841D01*
X002707Y005842D01*
Y005872D01*
X002721Y005874D01*
X002751Y005883D01*
X002779Y005898D01*
X002803Y005918D01*
X002823Y005942D01*
X002838Y005970D01*
X002839Y005973D01*
X002944D01*
X002945Y005970D01*
X002960Y005942D01*
X002980Y005918D01*
X003004Y005898D01*
X003032Y005883D01*
X003062Y005874D01*
X003076Y005872D01*
Y005842D01*
X003062Y005841D01*
X003032Y005832D01*
X003004Y005817D01*
X002980Y005797D01*
X002960Y005772D01*
X002945Y005745D01*
X002936Y005714D01*
X002934Y005703D01*
X003252D01*
X003251Y005714D01*
X003242Y005745D01*
X003227Y005772D01*
X003207Y005797D01*
X003183Y005817D01*
X003155Y005832D01*
X003125Y005841D01*
X003111Y005842D01*
Y005872D01*
X003125Y005874D01*
X003155Y005883D01*
X003183Y005898D01*
X003207Y005918D01*
X003227Y005942D01*
X003242Y005970D01*
X003251Y006000D01*
X003254Y006031D01*
X003251Y006063D01*
X003242Y006093D01*
X003227Y006121D01*
X003207Y006145D01*
X003183Y006165D01*
X003155Y006180D01*
X003125Y006189D01*
X003093Y006192D01*
D02*
G37*
G36*
X004573Y005775D02*
X004453D01*
Y005731D01*
X004312D01*
X004309Y005735D01*
X004291Y005747D01*
X004269Y005751D01*
X004248Y005747D01*
X004230Y005735D01*
X004227Y005731D01*
X004083D01*
Y005775D01*
X003963D01*
Y005605D01*
X003963D01*
X003961Y005589D01*
X003961Y005589D01*
X003961Y005576D01*
Y005419D01*
X004081D01*
Y005589D01*
X004081D01*
X004083Y005605D01*
X004083Y005605D01*
X004083Y005618D01*
Y005659D01*
X004227D01*
X004230Y005655D01*
X004248Y005643D01*
X004269Y005639D01*
X004291Y005643D01*
X004309Y005655D01*
X004312Y005659D01*
X004453D01*
Y005605D01*
X004573D01*
Y005775D01*
D02*
G37*
G36*
X005263D02*
X005223D01*
Y005726D01*
X005167D01*
Y005775D01*
X005127D01*
Y005690D01*
X005107D01*
Y005670D01*
X005047D01*
Y005619D01*
X005047Y005589D01*
X005047Y005576D01*
Y005419D01*
X005047D01*
X005047Y005403D01*
X005047D01*
Y005233D01*
X005071D01*
Y005188D01*
X005036D01*
X005006Y005188D01*
X004983Y005188D01*
X004953D01*
Y005233D01*
X004977D01*
Y005403D01*
X004977D01*
X004977Y005419D01*
X004977D01*
Y005589D01*
X004977D01*
X004977Y005605D01*
X004977D01*
X004977Y005619D01*
Y005775D01*
X004857D01*
Y005726D01*
X004763D01*
Y005775D01*
X004643D01*
Y005605D01*
X004763D01*
Y005655D01*
X004857D01*
Y005605D01*
X004857D01*
X004857Y005589D01*
X004857D01*
X004857Y005576D01*
Y005419D01*
X004857D01*
X004857Y005403D01*
X004857D01*
Y005233D01*
X004882D01*
Y005188D01*
X004836D01*
Y005188D01*
X004810Y005176D01*
X004796Y005173D01*
X004791Y005174D01*
X004791Y005174D01*
X004766Y005191D01*
Y005280D01*
X004555D01*
Y005356D01*
X004562Y005365D01*
X004565Y005383D01*
X004562Y005401D01*
X004552Y005415D01*
X004537Y005425D01*
X004519Y005429D01*
X004502Y005425D01*
X004487Y005415D01*
X004477Y005401D01*
X004473Y005383D01*
X004477Y005365D01*
X004484Y005355D01*
Y005245D01*
X004484Y005241D01*
Y005176D01*
Y005076D01*
Y004976D01*
Y004874D01*
X004348D01*
X004332Y004889D01*
X004330Y004900D01*
X004318Y004918D01*
X004300Y004930D01*
X004289Y004932D01*
X004261Y004960D01*
X004246Y004970D01*
X004229Y004974D01*
X004080D01*
Y005076D01*
Y005180D01*
X004080D01*
X004077Y005209D01*
X004077Y005210D01*
X004081Y005228D01*
X004077Y005248D01*
X004065Y005265D01*
X004048Y005277D01*
X004028Y005281D01*
X003901D01*
Y005321D01*
X003898Y005335D01*
X003891Y005346D01*
X003867Y005370D01*
Y005419D01*
X003891D01*
Y005576D01*
X003893Y005605D01*
X003893Y005618D01*
Y005670D01*
X003773D01*
Y005618D01*
X003771Y005589D01*
X003771Y005576D01*
Y005540D01*
X003729D01*
Y005589D01*
X003729D01*
Y005605D01*
X003729D01*
Y005775D01*
X003609D01*
Y005605D01*
X003609D01*
Y005589D01*
X003609D01*
Y005433D01*
X003609Y005419D01*
X003609D01*
X003610Y005403D01*
X003610D01*
Y005233D01*
X003610D01*
Y005217D01*
X003610D01*
Y005047D01*
X003610D01*
X003609Y005031D01*
X003609D01*
Y004875D01*
X003609Y004861D01*
X003610Y004832D01*
Y004781D01*
X003670D01*
X003730D01*
Y004832D01*
X003730Y004846D01*
X003729Y004875D01*
Y005031D01*
X003729D01*
X003730Y005047D01*
X003730D01*
X003730Y005061D01*
Y005092D01*
X003799D01*
Y004976D01*
Y004876D01*
Y004848D01*
X003939D01*
X004080D01*
Y004882D01*
X004210D01*
X004224Y004867D01*
X004227Y004857D01*
X004239Y004839D01*
X004257Y004827D01*
X004267Y004824D01*
X004296Y004796D01*
X004311Y004786D01*
X004329Y004782D01*
X004484D01*
Y004776D01*
X004766D01*
Y004897D01*
X004836D01*
Y004878D01*
X005006D01*
Y004878D01*
X005013Y004878D01*
Y004878D01*
X005036Y004878D01*
X005183D01*
Y004998D01*
X005013D01*
Y004998D01*
X005006Y004998D01*
Y004998D01*
X004836D01*
Y004969D01*
X004766D01*
Y005072D01*
X004782Y005083D01*
X004785Y005085D01*
X004796Y005087D01*
X004810Y005084D01*
X004836Y005068D01*
Y005068D01*
X004983D01*
X005013Y005068D01*
X005036Y005068D01*
X005183D01*
X005183Y005068D01*
X005213Y005084D01*
X005223Y005082D01*
X005241Y005086D01*
X005256Y005096D01*
X005266Y005111D01*
X005269Y005128D01*
X005266Y005146D01*
X005256Y005161D01*
X005241Y005170D01*
X005223Y005174D01*
X005213Y005172D01*
X005183Y005188D01*
Y005188D01*
X005143D01*
Y005233D01*
X005167D01*
Y005403D01*
X005167D01*
X005167Y005419D01*
X005167D01*
Y005469D01*
X005223D01*
Y005419D01*
X005343D01*
Y005575D01*
X005343Y005589D01*
X005343Y005619D01*
Y005670D01*
X005283D01*
Y005690D01*
X005263D01*
Y005775D01*
D02*
G37*
G36*
X005343D02*
X005303D01*
Y005710D01*
X005343D01*
Y005775D01*
D02*
G37*
G36*
X003893D02*
X003853D01*
Y005710D01*
X003893D01*
Y005775D01*
D02*
G37*
G36*
X003813D02*
X003773D01*
Y005710D01*
X003813D01*
Y005775D01*
D02*
G37*
G36*
X005087D02*
X005047D01*
Y005710D01*
X005087D01*
Y005775D01*
D02*
G37*
G36*
X004399Y005424D02*
Y005403D01*
X004420D01*
X004412Y005415D01*
X004399Y005424D01*
D02*
G37*
G36*
X004359D02*
X004347Y005415D01*
X004338Y005403D01*
X004359D01*
Y005424D01*
D02*
G37*
G36*
X001551Y005406D02*
Y005385D01*
X001572D01*
X001564Y005398D01*
X001551Y005406D01*
D02*
G37*
G36*
X001511D02*
X001499Y005398D01*
X001491Y005385D01*
X001511D01*
Y005406D01*
D02*
G37*
G36*
X001736Y005403D02*
X001724Y005395D01*
X001716Y005382D01*
X001736D01*
Y005403D01*
D02*
G37*
G36*
X004420Y005363D02*
X004399D01*
Y005342D01*
X004412Y005351D01*
X004420Y005363D01*
D02*
G37*
G36*
X004359D02*
X004338D01*
X004347Y005351D01*
X004359Y005342D01*
Y005363D01*
D02*
G37*
G36*
X001572Y005345D02*
X001551D01*
Y005324D01*
X001564Y005333D01*
X001572Y005345D01*
D02*
G37*
G36*
X001511D02*
X001491D01*
X001499Y005333D01*
X001511Y005324D01*
Y005345D01*
D02*
G37*
G36*
X002189Y005373D02*
X002149D01*
Y005308D01*
X002189D01*
Y005373D01*
D02*
G37*
G36*
X002109D02*
X002069D01*
Y005308D01*
X002109D01*
Y005373D01*
D02*
G37*
G36*
X001776Y005403D02*
Y005362D01*
X001756D01*
Y005342D01*
X001716D01*
X001724Y005330D01*
X001739Y005320D01*
X001748Y005318D01*
X001760Y005301D01*
X001746Y005272D01*
X001719D01*
Y005240D01*
X001860D01*
X002001D01*
X002001Y005240D01*
Y005272D01*
X001969D01*
X001966Y005273D01*
X001962Y005272D01*
X001875D01*
Y005279D01*
X001872Y005293D01*
X001865Y005305D01*
X001801Y005368D01*
X001799Y005380D01*
X001789Y005395D01*
X001776Y005403D01*
D02*
G37*
G36*
X003539Y005775D02*
X003419D01*
Y005726D01*
X003377D01*
X003363Y005723D01*
X003352Y005716D01*
X003334Y005698D01*
X003326Y005686D01*
X003324Y005673D01*
Y005227D01*
X003296Y005215D01*
X003240Y005271D01*
X003242Y005273D01*
X003251Y005303D01*
X003254Y005335D01*
X003251Y005366D01*
X003242Y005396D01*
X003227Y005424D01*
X003207Y005448D01*
X003183Y005468D01*
X003155Y005483D01*
X003125Y005492D01*
X003111Y005494D01*
Y005524D01*
X003125Y005525D01*
X003155Y005535D01*
X003183Y005549D01*
X003207Y005569D01*
X003227Y005594D01*
X003242Y005622D01*
X003251Y005652D01*
X003252Y005663D01*
X002934D01*
X002936Y005652D01*
X002945Y005622D01*
X002960Y005594D01*
X002980Y005569D01*
X003004Y005549D01*
X003032Y005535D01*
X003062Y005525D01*
X003076Y005524D01*
Y005494D01*
X003062Y005492D01*
X003032Y005483D01*
X003004Y005468D01*
X002980Y005448D01*
X002960Y005424D01*
X002945Y005396D01*
X002944Y005393D01*
X002839D01*
X002838Y005396D01*
X002823Y005424D01*
X002803Y005448D01*
X002779Y005468D01*
X002751Y005483D01*
X002721Y005492D01*
X002707Y005494D01*
Y005524D01*
X002721Y005525D01*
X002751Y005535D01*
X002779Y005549D01*
X002803Y005569D01*
X002823Y005594D01*
X002838Y005622D01*
X002847Y005652D01*
X002848Y005663D01*
X002530D01*
X002532Y005652D01*
X002541Y005622D01*
X002556Y005594D01*
X002576Y005569D01*
X002600Y005549D01*
X002628Y005535D01*
X002658Y005525D01*
X002672Y005524D01*
Y005494D01*
X002658Y005492D01*
X002628Y005483D01*
X002600Y005468D01*
X002576Y005448D01*
X002556Y005424D01*
X002541Y005396D01*
X002532Y005366D01*
X002529Y005335D01*
X002532Y005303D01*
X002541Y005273D01*
X002556Y005245D01*
X002576Y005221D01*
X002600Y005201D01*
X002628Y005186D01*
X002658Y005177D01*
X002672Y005176D01*
Y005146D01*
X002658Y005144D01*
X002628Y005135D01*
X002600Y005120D01*
X002576Y005100D01*
X002556Y005076D01*
X002541Y005048D01*
X002532Y005018D01*
X002530Y005007D01*
X002848D01*
X002847Y005018D01*
X002838Y005048D01*
X002823Y005076D01*
X002803Y005100D01*
X002779Y005120D01*
X002751Y005135D01*
X002721Y005144D01*
X002707Y005146D01*
Y005176D01*
X002721Y005177D01*
X002751Y005186D01*
X002779Y005201D01*
X002803Y005221D01*
X002823Y005245D01*
X002838Y005273D01*
X002839Y005276D01*
X002944D01*
X002945Y005273D01*
X002960Y005245D01*
X002980Y005221D01*
X003004Y005201D01*
X003032Y005186D01*
X003062Y005177D01*
X003076Y005176D01*
Y005146D01*
X003062Y005144D01*
X003032Y005135D01*
X003004Y005120D01*
X002980Y005100D01*
X002960Y005076D01*
X002945Y005048D01*
X002936Y005018D01*
X002934Y005007D01*
X003093D01*
Y004967D01*
X002934D01*
X002936Y004955D01*
X002945Y004925D01*
X002960Y004897D01*
X002980Y004873D01*
X003004Y004853D01*
X003032Y004838D01*
X003062Y004829D01*
X003076Y004827D01*
Y004797D01*
X003062Y004796D01*
X003032Y004787D01*
X003004Y004772D01*
X002980Y004752D01*
X002960Y004728D01*
X002945Y004700D01*
X002944Y004697D01*
X002839D01*
X002838Y004700D01*
X002823Y004728D01*
X002803Y004752D01*
X002779Y004772D01*
X002751Y004787D01*
X002721Y004796D01*
X002707Y004797D01*
Y004827D01*
X002721Y004829D01*
X002751Y004838D01*
X002779Y004853D01*
X002803Y004873D01*
X002823Y004897D01*
X002838Y004925D01*
X002847Y004955D01*
X002848Y004967D01*
X002530D01*
X002532Y004955D01*
X002541Y004925D01*
X002556Y004897D01*
X002576Y004873D01*
X002600Y004853D01*
X002628Y004838D01*
X002658Y004829D01*
X002672Y004827D01*
Y004797D01*
X002658Y004796D01*
X002628Y004787D01*
X002600Y004772D01*
X002576Y004752D01*
X002556Y004728D01*
X002541Y004700D01*
X002532Y004670D01*
X002529Y004638D01*
X002532Y004607D01*
X002541Y004577D01*
X002556Y004549D01*
X002576Y004525D01*
X002600Y004505D01*
X002628Y004490D01*
X002658Y004481D01*
X002672Y004479D01*
Y004449D01*
X002658Y004448D01*
X002628Y004439D01*
X002600Y004424D01*
X002576Y004404D01*
X002556Y004379D01*
X002541Y004352D01*
X002532Y004321D01*
X002530Y004310D01*
X002848D01*
X002847Y004321D01*
X002838Y004352D01*
X002823Y004379D01*
X002803Y004404D01*
X002779Y004424D01*
X002751Y004439D01*
X002721Y004448D01*
X002707Y004449D01*
Y004479D01*
X002721Y004481D01*
X002751Y004490D01*
X002779Y004505D01*
X002803Y004525D01*
X002823Y004549D01*
X002838Y004577D01*
X002839Y004580D01*
X002944D01*
X002945Y004577D01*
X002960Y004549D01*
X002980Y004525D01*
X003004Y004505D01*
X003032Y004490D01*
X003062Y004481D01*
X003076Y004479D01*
Y004449D01*
X003062Y004448D01*
X003032Y004439D01*
X003004Y004424D01*
X002980Y004404D01*
X002960Y004379D01*
X002945Y004352D01*
X002936Y004321D01*
X002934Y004310D01*
X003252D01*
X003251Y004321D01*
X003242Y004352D01*
X003227Y004379D01*
X003207Y004404D01*
X003183Y004424D01*
X003155Y004439D01*
X003125Y004448D01*
X003111Y004449D01*
Y004479D01*
X003125Y004481D01*
X003155Y004490D01*
X003183Y004505D01*
X003207Y004525D01*
X003227Y004549D01*
X003242Y004577D01*
X003251Y004607D01*
X003254Y004638D01*
X003251Y004670D01*
X003242Y004700D01*
X003227Y004728D01*
X003207Y004752D01*
X003183Y004772D01*
X003155Y004787D01*
X003125Y004796D01*
X003111Y004797D01*
Y004827D01*
X003125Y004829D01*
X003155Y004838D01*
X003183Y004853D01*
X003207Y004873D01*
X003227Y004897D01*
X003242Y004925D01*
X003251Y004955D01*
X003252Y004968D01*
X003282Y004966D01*
Y004965D01*
X003287Y004943D01*
X003299Y004924D01*
X003318Y004911D01*
X003341Y004906D01*
X003419D01*
Y004875D01*
X003419Y004861D01*
X003419D01*
X003420Y004846D01*
X003420D01*
Y004692D01*
X003419Y004662D01*
X003419Y004646D01*
Y004613D01*
X003377D01*
X003363Y004610D01*
X003352Y004603D01*
X003334Y004585D01*
X003326Y004573D01*
X003324Y004560D01*
Y004037D01*
X003326Y004023D01*
X003334Y004012D01*
X003352Y003994D01*
X003363Y003987D01*
X003377Y003984D01*
X003420D01*
Y003948D01*
X003419Y003918D01*
X003419Y003905D01*
Y003762D01*
X003419Y003748D01*
X003419D01*
X003420Y003733D01*
X003420D01*
Y003693D01*
X003372D01*
X003349Y003716D01*
Y003724D01*
X003352Y003729D01*
X003356Y003750D01*
X003352Y003771D01*
X003340Y003790D01*
X003321Y003802D01*
X003300Y003806D01*
X003279Y003802D01*
X003260Y003790D01*
X003248Y003771D01*
X003244Y003750D01*
X003248Y003729D01*
X003257Y003716D01*
Y003697D01*
X003260Y003680D01*
X003270Y003665D01*
X003320Y003615D01*
X003335Y003605D01*
X003353Y003601D01*
X003420D01*
Y003563D01*
X003540D01*
Y003719D01*
X003540Y003733D01*
X003540D01*
X003539Y003748D01*
X003539D01*
Y003905D01*
X003540Y003934D01*
X003540Y003948D01*
Y004090D01*
X003540Y004112D01*
X003540Y004134D01*
Y004277D01*
X003540Y004290D01*
X003540D01*
X003539Y004306D01*
X003539D01*
Y004462D01*
X003539Y004484D01*
X003539Y004506D01*
Y004646D01*
X003540Y004676D01*
X003540Y004692D01*
Y004832D01*
X003540Y004846D01*
X003540D01*
X003539Y004861D01*
X003539D01*
Y005031D01*
X003539D01*
X003540Y005047D01*
X003540D01*
Y005203D01*
X003540Y005217D01*
X003540Y005247D01*
Y005403D01*
X003540D01*
X003539Y005419D01*
X003539D01*
Y005575D01*
X003539Y005597D01*
X003539Y005619D01*
Y005775D01*
D02*
G37*
G36*
X005500Y005079D02*
Y005031D01*
X005548D01*
X005542Y005046D01*
X005530Y005061D01*
X005516Y005072D01*
X005500Y005079D01*
D02*
G37*
G36*
X005460D02*
X005444Y005072D01*
X005430Y005061D01*
X005418Y005046D01*
X005412Y005031D01*
X005460D01*
Y005079D01*
D02*
G37*
G36*
X005548Y004990D02*
X005500D01*
Y004942D01*
X005516Y004949D01*
X005530Y004960D01*
X005542Y004975D01*
X005548Y004990D01*
D02*
G37*
G36*
X005460D02*
X005412D01*
X005418Y004975D01*
X005430Y004960D01*
X005444Y004949D01*
X005460Y004942D01*
Y004990D01*
D02*
G37*
G36*
X001315Y005272D02*
X001034D01*
Y005151D01*
X000963D01*
Y005170D01*
X000816D01*
X000793Y005170D01*
Y005170D01*
X000786Y005170D01*
Y005170D01*
X000616D01*
Y005050D01*
X000786D01*
Y005050D01*
X000793Y005050D01*
Y005050D01*
X000963D01*
Y005079D01*
X001034D01*
Y004988D01*
X001031Y004984D01*
X001005Y004966D01*
X001004Y004966D01*
X001000Y004966D01*
X000993Y004965D01*
X000963Y004980D01*
Y004980D01*
X000816D01*
X000786Y004980D01*
X000763Y004980D01*
X000616D01*
Y004956D01*
X000556D01*
X000545Y004963D01*
X000528Y004966D01*
X000510Y004963D01*
X000495Y004953D01*
X000485Y004938D01*
X000482Y004920D01*
X000485Y004903D01*
X000495Y004888D01*
X000510Y004878D01*
X000528Y004874D01*
X000545Y004878D01*
X000555Y004884D01*
X000616D01*
Y004860D01*
X000657D01*
Y004815D01*
X000632D01*
Y004645D01*
X000632D01*
X000632Y004629D01*
X000632D01*
Y004579D01*
X000576D01*
Y004629D01*
X000457D01*
Y004473D01*
X000457Y004459D01*
X000457Y004429D01*
Y004378D01*
X000517D01*
Y004358D01*
X000537D01*
Y004273D01*
X000576D01*
Y004322D01*
X000632D01*
Y004273D01*
X000672D01*
Y004358D01*
X000692D01*
Y004378D01*
X000752D01*
Y004429D01*
X000752Y004459D01*
X000752Y004472D01*
Y004629D01*
X000752D01*
X000752Y004645D01*
X000752D01*
Y004815D01*
X000728D01*
Y004860D01*
X000763D01*
X000793Y004860D01*
X000816Y004860D01*
X000847D01*
Y004815D01*
X000822D01*
Y004645D01*
X000822D01*
X000822Y004629D01*
X000822D01*
Y004459D01*
X000822D01*
X000822Y004443D01*
X000822D01*
X000822Y004429D01*
Y004273D01*
X000942D01*
Y004322D01*
X001036D01*
Y004273D01*
X001156D01*
Y004443D01*
X001036D01*
Y004393D01*
X000942D01*
Y004443D01*
X000942D01*
X000942Y004459D01*
X000942D01*
X000942Y004472D01*
Y004629D01*
X000942D01*
X000942Y004645D01*
X000942D01*
Y004815D01*
X000918D01*
Y004860D01*
X000963D01*
X000963Y004860D01*
X000993Y004876D01*
X001000Y004874D01*
X001004Y004875D01*
X001009Y004874D01*
X001031Y004857D01*
X001034Y004853D01*
Y004768D01*
X001237D01*
Y004688D01*
X001230Y004678D01*
X001227Y004660D01*
X001230Y004643D01*
X001240Y004628D01*
X001255Y004618D01*
X001273Y004614D01*
X001290Y004618D01*
X001305Y004628D01*
X001315Y004643D01*
X001319Y004660D01*
X001315Y004678D01*
X001308Y004688D01*
Y004768D01*
X001315D01*
Y004868D01*
Y004968D01*
Y005068D01*
Y005174D01*
X001445D01*
X001460Y005159D01*
X001462Y005149D01*
X001474Y005130D01*
X001492Y005118D01*
X001503Y005116D01*
X001531Y005088D01*
X001546Y005078D01*
X001564Y005074D01*
X001719D01*
Y004968D01*
Y004868D01*
X001719D01*
X001722Y004839D01*
X001722Y004838D01*
X001718Y004820D01*
X001722Y004800D01*
X001734Y004783D01*
X001751Y004771D01*
X001771Y004767D01*
X001898D01*
Y004727D01*
X001901Y004713D01*
X001909Y004702D01*
X001933Y004678D01*
Y004629D01*
X001908D01*
Y004472D01*
X001906Y004443D01*
X001906Y004430D01*
Y004378D01*
X001966D01*
X002026D01*
Y004430D01*
X002028Y004459D01*
X002028Y004472D01*
Y004508D01*
X002070D01*
Y004459D01*
X002070D01*
Y004443D01*
X002070D01*
Y004273D01*
X002190D01*
Y004443D01*
X002190D01*
Y004459D01*
X002190D01*
Y004615D01*
X002190Y004629D01*
X002190D01*
X002189Y004645D01*
X002189D01*
Y004815D01*
X002189D01*
Y004831D01*
X002189D01*
Y005001D01*
X002189D01*
X002190Y005017D01*
X002190D01*
Y005173D01*
X002190Y005187D01*
X002189Y005216D01*
Y005268D01*
X002069D01*
Y005216D01*
X002069Y005203D01*
X002070Y005173D01*
Y005017D01*
X002070D01*
X002069Y005001D01*
X002069D01*
X002069Y004987D01*
Y004956D01*
X002001D01*
Y005068D01*
Y005168D01*
Y005200D01*
X001860D01*
X001719D01*
Y005166D01*
X001583D01*
X001568Y005181D01*
X001566Y005192D01*
X001553Y005210D01*
X001535Y005222D01*
X001525Y005224D01*
X001496Y005253D01*
X001481Y005262D01*
X001464Y005266D01*
X001315D01*
Y005272D01*
D02*
G37*
G36*
X003919Y004808D02*
X003799D01*
Y004776D01*
X003919D01*
Y004808D01*
D02*
G37*
G36*
X004259Y004744D02*
Y004723D01*
X004280D01*
X004272Y004735D01*
X004259Y004744D01*
D02*
G37*
G36*
X004219D02*
X004207Y004735D01*
X004198Y004723D01*
X004219D01*
Y004744D01*
D02*
G37*
G36*
X004080Y004808D02*
X003959D01*
Y004776D01*
X003994D01*
Y004731D01*
X003988Y004723D01*
X004070D01*
X004065Y004731D01*
Y004776D01*
X004080D01*
Y004808D01*
D02*
G37*
G36*
X001473Y004701D02*
Y004680D01*
X001494D01*
X001485Y004693D01*
X001473Y004701D01*
D02*
G37*
G36*
X001433D02*
X001420Y004693D01*
X001412Y004680D01*
X001433D01*
Y004701D01*
D02*
G37*
G36*
X001494Y004640D02*
X001473D01*
Y004619D01*
X001485Y004628D01*
X001494Y004640D01*
D02*
G37*
G36*
X001433D02*
X001412D01*
X001420Y004628D01*
X001433Y004619D01*
Y004640D01*
D02*
G37*
G36*
X004280Y004683D02*
X004198D01*
X004207Y004671D01*
X004218Y004663D01*
X004221Y004651D01*
X004221Y004650D01*
X004219Y004631D01*
X004207Y004622D01*
X004204Y004618D01*
X004083D01*
Y004662D01*
X004083Y004662D01*
X004076Y004683D01*
X003980D01*
X003973Y004670D01*
X003966Y004662D01*
X003963D01*
Y004492D01*
X003963D01*
X003961Y004476D01*
X003961Y004476D01*
X003961Y004463D01*
Y004306D01*
X004081D01*
Y004476D01*
X004081D01*
X004083Y004492D01*
X004083Y004492D01*
X004083Y004505D01*
Y004547D01*
X004204D01*
X004207Y004543D01*
X004225Y004531D01*
X004246Y004526D01*
X004268Y004531D01*
X004286Y004543D01*
X004289Y004547D01*
X004453D01*
Y004492D01*
X004573D01*
Y004662D01*
X004453D01*
Y004618D01*
X004289D01*
X004286Y004622D01*
X004268Y004634D01*
X004267Y004634D01*
X004267Y004635D01*
X004264Y004666D01*
X004272Y004671D01*
X004280Y004683D01*
D02*
G37*
G36*
X005343Y004662D02*
X005303D01*
Y004597D01*
X005343D01*
Y004662D01*
D02*
G37*
G36*
X003893D02*
X003853D01*
Y004597D01*
X003893D01*
Y004662D01*
D02*
G37*
G36*
X003813D02*
X003773D01*
Y004597D01*
X003813D01*
Y004662D01*
D02*
G37*
G36*
X005087D02*
X005047D01*
Y004597D01*
X005087D01*
Y004662D01*
D02*
G37*
G36*
X000327Y004753D02*
X000309Y004749D01*
X000294Y004739D01*
X000284Y004724D01*
X000281Y004707D01*
X000284Y004689D01*
X000291Y004679D01*
Y004629D01*
X000266D01*
Y004459D01*
X000266D01*
X000266Y004443D01*
X000258Y004416D01*
X000237Y004404D01*
X000225Y004406D01*
X000204Y004402D01*
X000185Y004390D01*
X000173Y004371D01*
X000169Y004350D01*
X000173Y004329D01*
X000185Y004310D01*
X000204Y004298D01*
X000225Y004294D01*
X000237Y004296D01*
X000261Y004281D01*
X000267Y004276D01*
Y004273D01*
X000387D01*
Y004443D01*
X000387D01*
X000386Y004459D01*
X000386D01*
Y004629D01*
X000362D01*
Y004679D01*
X000369Y004689D01*
X000373Y004707D01*
X000369Y004724D01*
X000359Y004739D01*
X000344Y004749D01*
X000327Y004753D01*
D02*
G37*
G36*
X001838Y004629D02*
X001718D01*
Y004459D01*
X001718D01*
X001716Y004443D01*
X001716Y004443D01*
X001716Y004430D01*
Y004394D01*
X001553D01*
X001543Y004401D01*
X001526Y004404D01*
X001508Y004401D01*
X001498Y004394D01*
X001346D01*
Y004443D01*
X001226D01*
Y004273D01*
X001346D01*
Y004323D01*
X001498D01*
X001508Y004316D01*
X001526Y004313D01*
X001543Y004316D01*
X001553Y004323D01*
X001716D01*
Y004273D01*
X001836D01*
Y004443D01*
X001836D01*
X001838Y004459D01*
X001838Y004459D01*
X001838Y004472D01*
Y004629D01*
D02*
G37*
G36*
X004399Y004311D02*
Y004290D01*
X004420D01*
X004412Y004302D01*
X004399Y004311D01*
D02*
G37*
G36*
X004359D02*
X004347Y004302D01*
X004338Y004290D01*
X004359D01*
Y004311D01*
D02*
G37*
G36*
X002026Y004338D02*
X001986D01*
Y004273D01*
X002026D01*
Y004338D01*
D02*
G37*
G36*
X001946D02*
X001906D01*
Y004273D01*
X001946D01*
Y004338D01*
D02*
G37*
G36*
X000752D02*
X000712D01*
Y004273D01*
X000752D01*
Y004338D01*
D02*
G37*
G36*
X000497D02*
X000457D01*
Y004273D01*
X000497D01*
Y004338D01*
D02*
G37*
G36*
X004420Y004250D02*
X004399D01*
Y004229D01*
X004412Y004238D01*
X004420Y004250D01*
D02*
G37*
G36*
X004359D02*
X004338D01*
X004347Y004238D01*
X004359Y004229D01*
Y004250D01*
D02*
G37*
G36*
X005533Y004662D02*
X005413D01*
Y004492D01*
X005413D01*
X005413Y004476D01*
X005413D01*
Y004306D01*
X005437D01*
Y004267D01*
X005433Y004265D01*
X005421Y004246D01*
X005417Y004225D01*
X005421Y004204D01*
X005433Y004185D01*
X005451Y004173D01*
X005473Y004169D01*
X005494Y004173D01*
X005512Y004185D01*
X005525Y004204D01*
X005529Y004225D01*
X005525Y004246D01*
X005512Y004265D01*
X005508Y004267D01*
Y004306D01*
X005533D01*
Y004476D01*
X005533D01*
X005533Y004492D01*
X005533D01*
Y004662D01*
D02*
G37*
G36*
X003730Y004741D02*
X003670D01*
X003610D01*
Y004692D01*
X003609Y004662D01*
X003609Y004646D01*
Y004492D01*
X003609D01*
Y004476D01*
X003609D01*
Y004320D01*
X003609Y004306D01*
X003609D01*
X003610Y004290D01*
X003610D01*
Y004120D01*
X003610D01*
Y004104D01*
X003610D01*
Y003934D01*
X003610D01*
X003609Y003918D01*
X003609D01*
Y003762D01*
X003609Y003749D01*
X003610Y003719D01*
Y003668D01*
X003670D01*
X003730D01*
Y003719D01*
X003730Y003733D01*
X003729Y003762D01*
Y003918D01*
X003729D01*
X003730Y003934D01*
X003730D01*
X003730Y003948D01*
Y003979D01*
X003799D01*
Y003863D01*
Y003763D01*
Y003735D01*
X003939D01*
X004080D01*
Y003769D01*
X004216D01*
X004232Y003754D01*
X004234Y003744D01*
X004246Y003725D01*
X004252Y003721D01*
X004246Y003690D01*
X004231Y003680D01*
X004223Y003667D01*
X004264D01*
Y003647D01*
X004284D01*
Y003607D01*
X004296Y003615D01*
X004306Y003630D01*
X004309Y003645D01*
X004310Y003648D01*
X004335Y003669D01*
X004484D01*
Y003663D01*
X004766D01*
Y003784D01*
X004836D01*
Y003765D01*
X005006D01*
Y003765D01*
X005013Y003765D01*
Y003765D01*
X005183D01*
Y003885D01*
X005013D01*
Y003885D01*
X005006Y003885D01*
Y003885D01*
X004836D01*
Y003856D01*
X004766D01*
Y003947D01*
X004769Y003952D01*
X004791Y003968D01*
X004796Y003969D01*
X004800Y003968D01*
X004806Y003970D01*
X004836Y003955D01*
Y003955D01*
X004983D01*
X005013Y003955D01*
X005036Y003955D01*
X005183D01*
X005183Y003955D01*
X005213Y003971D01*
X005223Y003969D01*
X005241Y003973D01*
X005256Y003983D01*
X005266Y003998D01*
X005269Y004015D01*
X005266Y004033D01*
X005256Y004048D01*
X005241Y004057D01*
X005223Y004061D01*
X005213Y004059D01*
X005183Y004075D01*
Y004075D01*
X005142D01*
Y004120D01*
X005167D01*
Y004290D01*
X005167D01*
X005167Y004306D01*
X005167D01*
Y004356D01*
X005223D01*
Y004306D01*
X005299D01*
X005304Y004277D01*
X005285Y004265D01*
X005273Y004246D01*
X005269Y004225D01*
X005273Y004204D01*
X005285Y004185D01*
X005304Y004173D01*
X005325Y004169D01*
X005346Y004173D01*
X005365Y004185D01*
X005377Y004204D01*
X005381Y004225D01*
X005377Y004246D01*
X005365Y004265D01*
X005346Y004277D01*
X005345Y004277D01*
X005343Y004306D01*
X005343Y004308D01*
Y004462D01*
X005343Y004476D01*
X005343Y004506D01*
Y004557D01*
X005283D01*
Y004577D01*
X005263D01*
Y004662D01*
X005223D01*
Y004613D01*
X005167D01*
Y004662D01*
X005127D01*
Y004577D01*
X005107D01*
Y004557D01*
X005047D01*
Y004506D01*
X005047Y004476D01*
X005047Y004463D01*
Y004306D01*
X005047D01*
X005047Y004290D01*
X005047D01*
Y004120D01*
X005071D01*
Y004075D01*
X005036D01*
X005006Y004075D01*
X004983Y004075D01*
X004953D01*
Y004120D01*
X004977D01*
Y004290D01*
X004977D01*
X004977Y004306D01*
X004977D01*
Y004476D01*
X004977D01*
X004977Y004492D01*
X004977D01*
X004977Y004506D01*
Y004662D01*
X004857D01*
Y004613D01*
X004763D01*
Y004662D01*
X004643D01*
Y004492D01*
X004763D01*
Y004542D01*
X004857D01*
Y004492D01*
X004857D01*
X004857Y004476D01*
X004857D01*
X004857Y004463D01*
Y004306D01*
X004857D01*
X004857Y004290D01*
X004857D01*
Y004120D01*
X004882D01*
Y004075D01*
X004836D01*
X004836Y004075D01*
X004806Y004059D01*
X004800Y004060D01*
X004796Y004059D01*
X004793Y004060D01*
X004769Y004077D01*
X004766Y004082D01*
Y004167D01*
X004555D01*
Y004243D01*
X004562Y004252D01*
X004565Y004270D01*
X004562Y004288D01*
X004552Y004302D01*
X004537Y004312D01*
X004519Y004316D01*
X004502Y004312D01*
X004487Y004302D01*
X004477Y004288D01*
X004473Y004270D01*
X004477Y004252D01*
X004484Y004242D01*
Y004132D01*
X004484Y004128D01*
Y004063D01*
Y003963D01*
Y003863D01*
Y003761D01*
X004354D01*
X004339Y003776D01*
X004337Y003786D01*
X004325Y003805D01*
X004307Y003817D01*
X004296Y003819D01*
X004268Y003847D01*
X004253Y003857D01*
X004235Y003861D01*
X004080D01*
Y003963D01*
Y004067D01*
X004080D01*
X004077Y004096D01*
X004077Y004097D01*
X004081Y004115D01*
X004077Y004135D01*
X004065Y004152D01*
X004048Y004164D01*
X004028Y004168D01*
X003901D01*
Y004208D01*
X003898Y004222D01*
X003891Y004233D01*
X003867Y004257D01*
Y004306D01*
X003891D01*
Y004463D01*
X003893Y004492D01*
X003893Y004505D01*
Y004557D01*
X003773D01*
Y004505D01*
X003771Y004476D01*
X003771Y004463D01*
Y004427D01*
X003729D01*
Y004476D01*
X003729D01*
Y004492D01*
X003729D01*
Y004646D01*
X003730Y004676D01*
X003730Y004692D01*
Y004741D01*
D02*
G37*
G36*
X003252Y004270D02*
X003113D01*
Y004131D01*
X003125Y004132D01*
X003155Y004141D01*
X003183Y004156D01*
X003207Y004176D01*
X003227Y004201D01*
X003242Y004228D01*
X003251Y004259D01*
X003252Y004270D01*
D02*
G37*
G36*
X003073D02*
X002934D01*
X002936Y004259D01*
X002945Y004228D01*
X002960Y004201D01*
X002980Y004176D01*
X003004Y004156D01*
X003032Y004141D01*
X003062Y004132D01*
X003073Y004131D01*
Y004270D01*
D02*
G37*
G36*
X002848D02*
X002709D01*
Y004131D01*
X002721Y004132D01*
X002751Y004141D01*
X002779Y004156D01*
X002803Y004176D01*
X002823Y004201D01*
X002838Y004228D01*
X002847Y004259D01*
X002848Y004270D01*
D02*
G37*
G36*
X002669D02*
X002530D01*
X002532Y004259D01*
X002541Y004228D01*
X002556Y004201D01*
X002576Y004176D01*
X002600Y004156D01*
X002628Y004141D01*
X002658Y004132D01*
X002669Y004131D01*
Y004270D01*
D02*
G37*
G36*
X003919Y003695D02*
X003799D01*
Y003663D01*
X003919D01*
Y003695D01*
D02*
G37*
G36*
X004244Y003627D02*
X004223D01*
X004231Y003615D01*
X004244Y003607D01*
Y003627D01*
D02*
G37*
G36*
X004080Y003695D02*
X003959D01*
Y003663D01*
X004014D01*
X004014Y003663D01*
Y003581D01*
X004009Y003573D01*
X004091D01*
X004086Y003581D01*
Y003677D01*
X004083Y003691D01*
X004080Y003695D01*
D02*
G37*
G36*
X003730Y003628D02*
X003690D01*
Y003563D01*
X003730D01*
Y003628D01*
D02*
G37*
G36*
X003650D02*
X003610D01*
Y003563D01*
X003650D01*
Y003628D01*
D02*
G37*
G36*
X005654Y003668D02*
X005623Y003665D01*
X005593Y003656D01*
X005565Y003641D01*
X005541Y003621D01*
X005521Y003597D01*
X005506Y003569D01*
X005497Y003539D01*
X005494Y003508D01*
X005497Y003477D01*
X005506Y003447D01*
X005515Y003429D01*
X005493Y003406D01*
X005479Y003414D01*
X005447Y003424D01*
X005413Y003427D01*
X005379Y003424D01*
X005346Y003414D01*
X005316Y003398D01*
X005290Y003376D01*
X005269Y003350D01*
X005253Y003320D01*
X005243Y003288D01*
X005240Y003254D01*
X005243Y003220D01*
X005253Y003188D01*
X005269Y003158D01*
X005290Y003132D01*
X005316Y003110D01*
X005346Y003094D01*
X005379Y003084D01*
X005413Y003081D01*
X005447Y003084D01*
X005479Y003094D01*
X005493Y003102D01*
X005515Y003079D01*
X005506Y003061D01*
X005497Y003031D01*
X005494Y003000D01*
X005497Y002969D01*
X005506Y002939D01*
X005521Y002911D01*
X005541Y002887D01*
X005565Y002867D01*
X005593Y002852D01*
X005623Y002843D01*
X005654Y002840D01*
X005685Y002843D01*
X005715Y002852D01*
X005743Y002867D01*
X005768Y002887D01*
X005787Y002911D01*
X005802Y002939D01*
X005811Y002969D01*
X005815Y003000D01*
X005811Y003031D01*
X005802Y003061D01*
X005787Y003089D01*
X005768Y003113D01*
X005743Y003133D01*
X005715Y003148D01*
X005685Y003157D01*
X005654Y003160D01*
X005623Y003157D01*
X005593Y003148D01*
X005582Y003143D01*
X005561Y003165D01*
X005573Y003188D01*
X005583Y003220D01*
X005586Y003254D01*
X005583Y003288D01*
X005573Y003320D01*
X005561Y003343D01*
X005582Y003365D01*
X005593Y003360D01*
X005623Y003351D01*
X005654Y003348D01*
X005685Y003351D01*
X005715Y003360D01*
X005743Y003375D01*
X005768Y003395D01*
X005787Y003419D01*
X005802Y003447D01*
X005811Y003477D01*
X005815Y003508D01*
X005811Y003539D01*
X005802Y003569D01*
X005787Y003597D01*
X005768Y003621D01*
X005743Y003641D01*
X005715Y003656D01*
X005685Y003665D01*
X005654Y003668D01*
D02*
G37*
G36*
X008410Y003681D02*
X008376Y003678D01*
X008344Y003668D01*
X008314Y003652D01*
X008287Y003630D01*
X008266Y003604D01*
X008250Y003574D01*
X008240Y003542D01*
X008237Y003508D01*
X008240Y003474D01*
X008250Y003442D01*
X008266Y003412D01*
X008287Y003386D01*
X008314Y003364D01*
X008344Y003348D01*
X008376Y003338D01*
X008410Y003335D01*
X008444Y003338D01*
X008476Y003348D01*
X008506Y003364D01*
X008532Y003386D01*
X008554Y003412D01*
X008570Y003442D01*
X008580Y003474D01*
X008583Y003508D01*
X008580Y003542D01*
X008570Y003574D01*
X008554Y003604D01*
X008532Y003630D01*
X008506Y003652D01*
X008476Y003668D01*
X008444Y003678D01*
X008410Y003681D01*
D02*
G37*
G36*
X006403Y003427D02*
X006370Y003424D01*
X006337Y003414D01*
X006307Y003398D01*
X006281Y003376D01*
X006259Y003350D01*
X006243Y003320D01*
X006233Y003288D01*
X006230Y003254D01*
X006233Y003220D01*
X006243Y003188D01*
X006259Y003158D01*
X006281Y003132D01*
X006307Y003110D01*
X006337Y003094D01*
X006370Y003084D01*
X006403Y003081D01*
X006437Y003084D01*
X006470Y003094D01*
X006500Y003110D01*
X006526Y003132D01*
X006547Y003158D01*
X006563Y003188D01*
X006573Y003220D01*
X006577Y003254D01*
X006573Y003288D01*
X006563Y003320D01*
X006547Y003350D01*
X006526Y003376D01*
X006500Y003398D01*
X006470Y003414D01*
X006437Y003424D01*
X006403Y003427D01*
D02*
G37*
G36*
X004750Y002950D02*
Y002930D01*
X004770D01*
X004762Y002942D01*
X004750Y002950D01*
D02*
G37*
G36*
X004710D02*
X004697Y002942D01*
X004689Y002930D01*
X004710D01*
Y002950D01*
D02*
G37*
G36*
X004540D02*
Y002930D01*
X004560D01*
X004552Y002942D01*
X004540Y002950D01*
D02*
G37*
G36*
X004500D02*
X004487Y002942D01*
X004479Y002930D01*
X004500D01*
Y002950D01*
D02*
G37*
G36*
X005149Y002937D02*
X005109D01*
Y002872D01*
X005149D01*
Y002937D01*
D02*
G37*
G36*
X005069D02*
X005029D01*
Y002872D01*
X005069D01*
Y002937D01*
D02*
G37*
G36*
X004560Y002890D02*
X004540D01*
Y002869D01*
X004552Y002877D01*
X004560Y002890D01*
D02*
G37*
G36*
X004500D02*
X004479D01*
X004487Y002877D01*
X004500Y002869D01*
Y002890D01*
D02*
G37*
G36*
X008582Y003172D02*
X008238D01*
Y002828D01*
X008582D01*
Y003172D01*
D02*
G37*
G36*
X004960Y002836D02*
X004840D01*
Y002805D01*
X004960D01*
Y002836D01*
D02*
G37*
G36*
X004770Y002890D02*
X004689D01*
X004694Y002882D01*
Y002836D01*
X004679D01*
Y002805D01*
X004800D01*
Y002836D01*
X004765D01*
Y002882D01*
X004770Y002890D01*
D02*
G37*
G36*
X008306Y002463D02*
Y002443D01*
X008327D01*
X008319Y002455D01*
X008306Y002463D01*
D02*
G37*
G36*
X008266D02*
X008254Y002455D01*
X008246Y002443D01*
X008266D01*
Y002463D01*
D02*
G37*
G36*
X004274Y002836D02*
X003993D01*
Y002715D01*
X003922D01*
Y002735D01*
X003752D01*
Y002735D01*
X003745Y002735D01*
Y002735D01*
X003722Y002735D01*
X003575D01*
Y002615D01*
X003745D01*
Y002615D01*
X003752Y002615D01*
Y002615D01*
X003775Y002615D01*
X003922D01*
Y002644D01*
X003993D01*
Y002553D01*
X003990Y002548D01*
X003965Y002531D01*
X003963Y002530D01*
X003959Y002531D01*
X003952Y002530D01*
X003922Y002545D01*
Y002545D01*
X003775D01*
X003745Y002545D01*
X003722Y002545D01*
X003575D01*
X003575Y002545D01*
X003545Y002529D01*
X003536Y002530D01*
X003518Y002527D01*
X003503Y002517D01*
X003493Y002502D01*
X003490Y002485D01*
X003493Y002467D01*
X003503Y002452D01*
X003518Y002442D01*
X003536Y002439D01*
X003545Y002441D01*
X003575Y002425D01*
Y002425D01*
X003616D01*
Y002379D01*
X003592D01*
Y002209D01*
X003592D01*
X003592Y002193D01*
X003592D01*
Y002144D01*
X003536D01*
Y002193D01*
X003416D01*
Y002037D01*
X003416Y002023D01*
X003416Y001993D01*
Y001942D01*
X003476D01*
Y001922D01*
X003496D01*
Y001837D01*
X003536D01*
Y001887D01*
X003591D01*
Y001837D01*
X003631D01*
Y001922D01*
X003651D01*
Y001942D01*
X003711D01*
Y001993D01*
X003712Y002023D01*
X003712Y002037D01*
Y002193D01*
X003712D01*
X003712Y002209D01*
X003712D01*
Y002379D01*
X003688D01*
Y002425D01*
X003722D01*
X003752Y002425D01*
X003775Y002425D01*
X003806D01*
Y002379D01*
X003782D01*
Y002209D01*
X003782D01*
X003782Y002193D01*
X003782D01*
Y002023D01*
X003782D01*
X003781Y002007D01*
X003781D01*
X003781Y001993D01*
Y001837D01*
X003901D01*
Y001887D01*
X003995D01*
Y001837D01*
X004115D01*
Y002007D01*
X003995D01*
Y001958D01*
X003901D01*
Y002007D01*
X003901D01*
X003902Y002023D01*
X003902D01*
X003902Y002037D01*
Y002193D01*
X003902D01*
X003902Y002209D01*
X003902D01*
Y002379D01*
X003877D01*
Y002425D01*
X003922D01*
X003922Y002425D01*
X003952Y002441D01*
X003959Y002439D01*
X003963Y002440D01*
X003969Y002439D01*
X003990Y002423D01*
X003993Y002418D01*
Y002333D01*
X004204D01*
Y002257D01*
X004197Y002247D01*
X004194Y002230D01*
X004197Y002212D01*
X004207Y002197D01*
X004222Y002187D01*
X004240Y002184D01*
X004257Y002187D01*
X004272Y002197D01*
X004282Y002212D01*
X004285Y002230D01*
X004282Y002247D01*
X004275Y002257D01*
Y002368D01*
X004274Y002371D01*
Y002433D01*
Y002533D01*
Y002633D01*
Y002739D01*
X004404D01*
X004415Y002728D01*
X004416Y002722D01*
X004428Y002703D01*
X004447Y002691D01*
X004453Y002690D01*
X004491Y002652D01*
X004506Y002642D01*
X004523Y002639D01*
X004679D01*
Y002533D01*
Y002433D01*
X004679D01*
X004682Y002404D01*
X004682Y002403D01*
X004678Y002385D01*
X004682Y002364D01*
X004693Y002347D01*
X004711Y002336D01*
X004731Y002332D01*
X004858D01*
Y002292D01*
X004861Y002278D01*
X004868Y002266D01*
X004892Y002242D01*
Y002193D01*
X004868D01*
Y002036D01*
X004865Y002007D01*
X004865Y001994D01*
Y001942D01*
X004925D01*
X004985D01*
Y001994D01*
X004988Y002023D01*
X004988Y002036D01*
Y002073D01*
X005030D01*
Y002023D01*
X005030D01*
Y002007D01*
X005030D01*
Y001847D01*
X005030Y001817D01*
X005030Y001807D01*
Y001752D01*
X005150D01*
Y001807D01*
X005150Y001837D01*
X005150Y001847D01*
Y002007D01*
X005150D01*
Y002023D01*
X005150D01*
Y002179D01*
X005150Y002193D01*
X005150D01*
X005149Y002209D01*
X005149D01*
Y002379D01*
X005149D01*
Y002395D01*
X005149D01*
Y002565D01*
X005149D01*
X005150Y002581D01*
X005150D01*
Y002737D01*
X005150Y002751D01*
X005149Y002781D01*
Y002832D01*
X005029D01*
Y002781D01*
X005029Y002767D01*
X005030Y002737D01*
Y002581D01*
X005030D01*
X005029Y002565D01*
X005029D01*
X005029Y002551D01*
Y002520D01*
X004960D01*
Y002633D01*
Y002733D01*
Y002765D01*
X004820D01*
X004679D01*
Y002731D01*
X004542D01*
X004523Y002750D01*
X004520Y002765D01*
X004508Y002783D01*
X004490Y002795D01*
X004475Y002798D01*
X004456Y002817D01*
X004441Y002827D01*
X004423Y002831D01*
X004274D01*
Y002836D01*
D02*
G37*
G36*
X005339Y002937D02*
X005219D01*
Y002781D01*
X005219Y002767D01*
X005219D01*
X005220Y002751D01*
X005220D01*
Y002595D01*
X005219Y002565D01*
X005219Y002551D01*
Y002409D01*
X005219Y002395D01*
X005219Y002366D01*
Y002209D01*
X005219D01*
X005220Y002193D01*
X005220D01*
Y002037D01*
X005220Y002015D01*
X005220Y001993D01*
Y001847D01*
X005220Y001817D01*
X005220Y001807D01*
Y001661D01*
X005220Y001647D01*
X005220D01*
X005220Y001632D01*
X005220D01*
Y001475D01*
X005220Y001446D01*
X005220Y001432D01*
Y001290D01*
X005220Y001268D01*
X005220Y001246D01*
Y001103D01*
X005220Y001090D01*
X005220D01*
X005220Y001074D01*
X005220D01*
Y000918D01*
X005220Y000896D01*
X005220Y000874D01*
Y000718D01*
X005340D01*
Y000767D01*
X005382D01*
X005396Y000770D01*
X005408Y000777D01*
X005425Y000795D01*
X005433Y000807D01*
X005436Y000820D01*
Y001343D01*
X005433Y001357D01*
X005425Y001368D01*
X005408Y001386D01*
X005396Y001393D01*
X005382Y001396D01*
X005340D01*
Y001432D01*
X005340Y001462D01*
Y001465D01*
X005361Y001487D01*
X005425D01*
X005447Y001491D01*
X005466Y001504D01*
X005479Y001523D01*
X005484Y001545D01*
X005479Y001568D01*
X005466Y001587D01*
X005447Y001599D01*
X005425Y001604D01*
X005346D01*
X005340Y001632D01*
X005340Y001647D01*
X005340D01*
Y001807D01*
X005340Y001837D01*
X005340Y001847D01*
Y001887D01*
X005382D01*
X005396Y001889D01*
X005407Y001897D01*
X005425Y001915D01*
X005433Y001926D01*
X005435Y001940D01*
Y002369D01*
X005447Y002376D01*
X005465Y002382D01*
X005479Y002373D01*
X005500Y002369D01*
X005521Y002373D01*
X005540Y002385D01*
X005552Y002404D01*
X005556Y002425D01*
X005552Y002446D01*
X005546Y002455D01*
Y002575D01*
X005542Y002593D01*
X005532Y002607D01*
X005432Y002707D01*
X005418Y002717D01*
X005400Y002721D01*
X005363D01*
X005340Y002751D01*
Y002751D01*
X005340D01*
X005339Y002767D01*
X005339D01*
Y002937D01*
D02*
G37*
G36*
X003375Y002481D02*
X003354Y002477D01*
X003335Y002465D01*
X003323Y002446D01*
X003319Y002425D01*
X003323Y002404D01*
X003335Y002385D01*
X003354Y002373D01*
X003375Y002369D01*
X003396Y002373D01*
X003415Y002385D01*
X003427Y002404D01*
X003431Y002425D01*
X003427Y002446D01*
X003415Y002465D01*
X003396Y002477D01*
X003375Y002481D01*
D02*
G37*
G36*
X008339Y002403D02*
X008234D01*
X008226Y002387D01*
X008226D01*
Y002338D01*
X008171D01*
Y002387D01*
X008131D01*
Y002302D01*
X008111D01*
Y002282D01*
X008051D01*
Y002231D01*
X008050Y002201D01*
X008050Y002188D01*
Y002031D01*
X008050D01*
X008050Y002015D01*
X008050D01*
Y001845D01*
X008075D01*
Y001800D01*
X008040D01*
X008010Y001800D01*
X007987Y001800D01*
X007957D01*
Y001845D01*
X007980D01*
Y002015D01*
X007980D01*
X007980Y002031D01*
X007980D01*
Y002201D01*
X007980D01*
X007981Y002217D01*
X007981D01*
X007981Y002231D01*
Y002387D01*
X007861D01*
Y002217D01*
X007861D01*
X007860Y002201D01*
X007860D01*
X007860Y002188D01*
Y002146D01*
X007780D01*
Y002164D01*
X007610D01*
Y002044D01*
X007780D01*
Y002075D01*
X007860D01*
Y002031D01*
X007860D01*
X007860Y002015D01*
X007860D01*
Y001845D01*
X007885D01*
Y001800D01*
X007840D01*
X007840Y001800D01*
X007810Y001784D01*
X007802Y001786D01*
X007769D01*
Y001892D01*
X007566D01*
Y001972D01*
X007572Y001982D01*
X007576Y002000D01*
X007572Y002018D01*
X007562Y002032D01*
X007548Y002042D01*
X007530Y002046D01*
X007512Y002042D01*
X007498Y002032D01*
X007488Y002018D01*
X007484Y002000D01*
X007488Y001982D01*
X007494Y001972D01*
Y001892D01*
X007488D01*
Y001788D01*
Y001688D01*
Y001588D01*
Y001486D01*
X007358D01*
X007343Y001501D01*
X007341Y001511D01*
X007329Y001530D01*
X007311Y001542D01*
X007300Y001544D01*
X007271Y001572D01*
X007257Y001582D01*
X007239Y001586D01*
X007083D01*
Y001688D01*
Y001792D01*
X007083D01*
X007081Y001821D01*
X007081Y001822D01*
X007084Y001840D01*
X007080Y001860D01*
X007069Y001877D01*
X007052Y001889D01*
X007032Y001893D01*
X006978D01*
Y001983D01*
X006976Y001997D01*
X006973Y002001D01*
X006980Y002023D01*
X006987Y002031D01*
X007085D01*
Y002201D01*
X007085D01*
X007087Y002217D01*
X007087Y002217D01*
X007087Y002230D01*
Y002263D01*
X007184D01*
X007185Y002260D01*
X007204Y002248D01*
X007225Y002244D01*
X007246Y002248D01*
X007265Y002260D01*
X007266Y002263D01*
X007610D01*
Y002234D01*
X007780D01*
Y002354D01*
X007610D01*
Y002334D01*
X007268D01*
X007265Y002340D01*
X007246Y002352D01*
X007225Y002356D01*
X007204Y002352D01*
X007185Y002340D01*
X007182Y002334D01*
X007087D01*
Y002387D01*
X006967D01*
Y002217D01*
X006967D01*
X006965Y002201D01*
X006965Y002201D01*
X006965Y002188D01*
Y002054D01*
X006935Y002042D01*
X006895Y002082D01*
Y002188D01*
X006897Y002217D01*
X006897Y002230D01*
Y002282D01*
X006777D01*
Y002230D01*
X006775Y002201D01*
X006775Y002188D01*
Y002152D01*
X006733D01*
Y002201D01*
X006733D01*
X006733Y002217D01*
X006733D01*
Y002387D01*
X006613D01*
Y002217D01*
X006613D01*
X006613Y002201D01*
X006613D01*
Y002045D01*
X006613Y002031D01*
X006613D01*
X006613Y002015D01*
X006613D01*
Y001845D01*
X006613D01*
Y001829D01*
X006613D01*
Y001659D01*
X006613D01*
X006613Y001643D01*
X006613D01*
Y001487D01*
X006613Y001473D01*
X006613Y001444D01*
Y001393D01*
X006673D01*
X006733D01*
Y001444D01*
X006733Y001458D01*
X006733Y001487D01*
Y001643D01*
X006733D01*
X006733Y001659D01*
X006733D01*
X006733Y001673D01*
Y001707D01*
X006802D01*
Y001588D01*
Y001488D01*
Y001460D01*
X006943D01*
X007083D01*
Y001494D01*
X007220D01*
X007235Y001479D01*
X007237Y001469D01*
X007249Y001450D01*
X007268Y001438D01*
X007278Y001436D01*
X007307Y001408D01*
X007321Y001398D01*
X007339Y001394D01*
X007488D01*
Y001388D01*
X007769D01*
Y001509D01*
X007840D01*
Y001490D01*
X008010D01*
Y001490D01*
X008017Y001490D01*
Y001490D01*
X008187D01*
Y001610D01*
X008017D01*
Y001610D01*
X008010Y001610D01*
Y001610D01*
X007840D01*
Y001581D01*
X007769D01*
Y001694D01*
X007802D01*
X007802Y001694D01*
X007810Y001695D01*
X007840Y001680D01*
Y001680D01*
X007987D01*
X008017Y001680D01*
X008040Y001680D01*
X008187D01*
Y001704D01*
X008247D01*
X008257Y001697D01*
X008275Y001694D01*
X008293Y001697D01*
X008307Y001707D01*
X008317Y001722D01*
X008321Y001740D01*
X008317Y001757D01*
X008307Y001772D01*
X008293Y001782D01*
X008275Y001786D01*
X008257Y001782D01*
X008248Y001776D01*
X008187D01*
Y001800D01*
X008146D01*
Y001845D01*
X008170D01*
Y002015D01*
X008170D01*
X008170Y002031D01*
X008170D01*
Y002074D01*
X008226D01*
Y002031D01*
X008346D01*
Y002187D01*
X008346Y002201D01*
X008346Y002231D01*
Y002282D01*
X008286D01*
Y002322D01*
X008346D01*
Y002387D01*
X008346Y002387D01*
X008339Y002403D01*
D02*
G37*
G36*
X006543Y002387D02*
X006423D01*
Y002336D01*
X006378D01*
X006368Y002342D01*
X006350Y002346D01*
X006332Y002342D01*
X006318Y002332D01*
X006308Y002318D01*
X006304Y002300D01*
X006308Y002282D01*
X006318Y002268D01*
X006332Y002258D01*
X006350Y002254D01*
X006368Y002258D01*
X006378Y002264D01*
X006423D01*
X006423Y002209D01*
X006423Y002187D01*
Y002045D01*
X006423Y002031D01*
X006423D01*
X006423Y002015D01*
X006423D01*
Y001859D01*
X006423Y001829D01*
X006423Y001816D01*
X006423Y001786D01*
X006378D01*
X006368Y001792D01*
X006350Y001796D01*
X006332Y001792D01*
X006318Y001782D01*
X006308Y001768D01*
X006304Y001750D01*
X006308Y001732D01*
X006318Y001718D01*
X006332Y001708D01*
X006350Y001704D01*
X006368Y001708D01*
X006378Y001714D01*
X006423D01*
Y001673D01*
X006423Y001643D01*
X006423Y001630D01*
Y001487D01*
X006423Y001473D01*
X006423D01*
X006423Y001458D01*
X006423D01*
Y001288D01*
X006425D01*
Y000866D01*
X006261Y000702D01*
X006238Y000721D01*
X006252Y000748D01*
X006262Y000778D01*
X006263Y000790D01*
X005945D01*
X005946Y000778D01*
X005955Y000748D01*
X005970Y000721D01*
X005990Y000696D01*
X006015Y000676D01*
X006042Y000661D01*
X006072Y000652D01*
X006083Y000651D01*
Y000621D01*
X006072Y000620D01*
X006042Y000611D01*
X006015Y000596D01*
X005990Y000576D01*
X005970Y000552D01*
X005955Y000524D01*
X005954Y000521D01*
X005849D01*
X005849Y000524D01*
X005834Y000552D01*
X005814Y000576D01*
X005789Y000596D01*
X005762Y000611D01*
X005731Y000620D01*
X005721Y000621D01*
Y000651D01*
X005731Y000652D01*
X005762Y000661D01*
X005789Y000676D01*
X005814Y000696D01*
X005834Y000721D01*
X005849Y000748D01*
X005858Y000778D01*
X005859Y000790D01*
X005541D01*
X005542Y000778D01*
X005551Y000748D01*
X005566Y000721D01*
X005586Y000696D01*
X005611Y000676D01*
X005638Y000661D01*
X005669Y000652D01*
X005679Y000651D01*
Y000621D01*
X005669Y000620D01*
X005638Y000611D01*
X005611Y000596D01*
X005586Y000576D01*
X005566Y000552D01*
X005551Y000524D01*
X005542Y000494D01*
X005539Y000462D01*
X005542Y000431D01*
X005551Y000401D01*
X005566Y000373D01*
X005586Y000349D01*
X005611Y000329D01*
X005638Y000314D01*
X005669Y000305D01*
X005700Y000302D01*
X005731Y000305D01*
X005762Y000314D01*
X005789Y000329D01*
X005814Y000349D01*
X005834Y000373D01*
X005849Y000401D01*
X005849Y000404D01*
X005954D01*
X005955Y000401D01*
X005970Y000373D01*
X005990Y000349D01*
X006015Y000329D01*
X006042Y000314D01*
X006072Y000305D01*
X006104Y000302D01*
X006135Y000305D01*
X006165Y000314D01*
X006193Y000329D01*
X006218Y000349D01*
X006238Y000373D01*
X006252Y000401D01*
X006262Y000431D01*
X006265Y000462D01*
X006262Y000494D01*
X006252Y000524D01*
X006251Y000526D01*
X006524Y000800D01*
X006524Y000800D01*
X006525Y000800D01*
X006537Y000819D01*
X006542Y000842D01*
Y001288D01*
X006543D01*
Y001444D01*
X006543Y001458D01*
X006543D01*
X006543Y001473D01*
X006543D01*
Y001630D01*
X006543Y001659D01*
X006543Y001673D01*
Y001815D01*
X006543Y001845D01*
X006543Y001859D01*
Y002002D01*
X006543Y002015D01*
X006543D01*
X006543Y002031D01*
X006543D01*
Y002187D01*
X006543Y002209D01*
X006543Y002231D01*
Y002387D01*
D02*
G37*
G36*
X006862Y002388D02*
X006858Y002387D01*
X006857D01*
Y002322D01*
X006897D01*
Y002349D01*
X006898Y002352D01*
X006897Y002356D01*
Y002387D01*
X006865D01*
X006862Y002388D01*
D02*
G37*
G36*
X006817Y002387D02*
X006777D01*
Y002322D01*
X006817D01*
Y002387D01*
D02*
G37*
G36*
X008091D02*
X008051D01*
Y002322D01*
X008091D01*
Y002387D01*
D02*
G37*
G36*
X004400Y002270D02*
Y002250D01*
X004420D01*
X004412Y002262D01*
X004400Y002270D01*
D02*
G37*
G36*
X004360D02*
X004347Y002262D01*
X004339Y002250D01*
X004360D01*
Y002270D01*
D02*
G37*
G36*
X006124Y002359D02*
Y002220D01*
X006263D01*
X006262Y002231D01*
X006252Y002262D01*
X006238Y002289D01*
X006218Y002314D01*
X006193Y002334D01*
X006165Y002349D01*
X006135Y002358D01*
X006124Y002359D01*
D02*
G37*
G36*
X006084D02*
X006072Y002358D01*
X006042Y002349D01*
X006015Y002334D01*
X005990Y002314D01*
X005970Y002289D01*
X005955Y002262D01*
X005946Y002231D01*
X005945Y002220D01*
X006084D01*
Y002359D01*
D02*
G37*
G36*
X005720D02*
Y002220D01*
X005859D01*
X005858Y002231D01*
X005849Y002262D01*
X005834Y002289D01*
X005814Y002314D01*
X005789Y002334D01*
X005762Y002349D01*
X005731Y002358D01*
X005720Y002359D01*
D02*
G37*
G36*
X005680D02*
X005669Y002358D01*
X005638Y002349D01*
X005611Y002334D01*
X005586Y002314D01*
X005566Y002289D01*
X005551Y002262D01*
X005542Y002231D01*
X005541Y002220D01*
X005680D01*
Y002359D01*
D02*
G37*
G36*
X004420Y002210D02*
X004400D01*
Y002189D01*
X004412Y002197D01*
X004420Y002210D01*
D02*
G37*
G36*
X004360D02*
X004339D01*
X004347Y002197D01*
X004360Y002189D01*
Y002210D01*
D02*
G37*
G36*
X004798Y002193D02*
X004678D01*
Y002149D01*
X004611D01*
X004608Y002153D01*
X004590Y002165D01*
X004569Y002169D01*
X004547Y002165D01*
X004529Y002153D01*
X004517Y002135D01*
X004513Y002113D01*
X004517Y002092D01*
X004529Y002074D01*
X004547Y002062D01*
X004569Y002057D01*
X004590Y002062D01*
X004608Y002074D01*
X004611Y002078D01*
X004678D01*
Y002023D01*
X004678D01*
X004675Y002007D01*
X004675Y002007D01*
X004675Y001994D01*
Y001958D01*
X004305D01*
Y002007D01*
X004185D01*
Y001837D01*
X004305D01*
Y001887D01*
X004654D01*
X004675Y001865D01*
X004675Y001837D01*
X004687Y001810D01*
X004774D01*
X004789Y001837D01*
X004795D01*
Y002007D01*
X004795D01*
X004798Y002023D01*
X004798Y002023D01*
X004798Y002036D01*
Y002193D01*
D02*
G37*
G36*
X007370Y002041D02*
Y002020D01*
X007391D01*
X007382Y002032D01*
X007370Y002041D01*
D02*
G37*
G36*
X007330D02*
X007318Y002032D01*
X007309Y002020D01*
X007330D01*
Y002041D01*
D02*
G37*
G36*
X007391Y001980D02*
X007370D01*
Y001959D01*
X007382Y001968D01*
X007391Y001980D01*
D02*
G37*
G36*
X007330D02*
X007309D01*
X007318Y001968D01*
X007330Y001959D01*
Y001980D01*
D02*
G37*
G36*
X006263Y002180D02*
X005945D01*
X005946Y002169D01*
X005955Y002138D01*
X005970Y002111D01*
X005990Y002086D01*
X006015Y002066D01*
X006042Y002051D01*
X006072Y002042D01*
X006083Y002041D01*
Y002011D01*
X006072Y002010D01*
X006042Y002001D01*
X006015Y001986D01*
X005990Y001966D01*
X005970Y001942D01*
X005955Y001914D01*
X005954Y001911D01*
X005849D01*
X005849Y001914D01*
X005834Y001942D01*
X005814Y001966D01*
X005789Y001986D01*
X005762Y002001D01*
X005731Y002010D01*
X005721Y002011D01*
Y002041D01*
X005731Y002042D01*
X005762Y002051D01*
X005789Y002066D01*
X005814Y002086D01*
X005834Y002111D01*
X005849Y002138D01*
X005858Y002169D01*
X005859Y002180D01*
X005541D01*
X005542Y002169D01*
X005551Y002138D01*
X005566Y002111D01*
X005586Y002086D01*
X005611Y002066D01*
X005638Y002051D01*
X005669Y002042D01*
X005679Y002041D01*
Y002011D01*
X005669Y002010D01*
X005638Y002001D01*
X005611Y001986D01*
X005586Y001966D01*
X005566Y001942D01*
X005551Y001914D01*
X005542Y001884D01*
X005539Y001852D01*
X005542Y001821D01*
X005551Y001791D01*
X005566Y001763D01*
X005586Y001739D01*
X005611Y001719D01*
X005638Y001704D01*
X005669Y001695D01*
X005679Y001694D01*
Y001664D01*
X005669Y001663D01*
X005638Y001653D01*
X005611Y001639D01*
X005586Y001619D01*
X005566Y001594D01*
X005551Y001566D01*
X005542Y001536D01*
X005541Y001525D01*
X005859D01*
X005858Y001536D01*
X005849Y001566D01*
X005834Y001594D01*
X005814Y001619D01*
X005789Y001639D01*
X005762Y001653D01*
X005731Y001663D01*
X005721Y001664D01*
Y001694D01*
X005731Y001695D01*
X005762Y001704D01*
X005789Y001719D01*
X005814Y001739D01*
X005834Y001763D01*
X005849Y001791D01*
X005849Y001794D01*
X005954D01*
X005955Y001791D01*
X005970Y001763D01*
X005990Y001739D01*
X006015Y001719D01*
X006042Y001704D01*
X006072Y001695D01*
X006083Y001694D01*
Y001664D01*
X006072Y001663D01*
X006042Y001653D01*
X006015Y001639D01*
X005990Y001619D01*
X005970Y001594D01*
X005955Y001566D01*
X005946Y001536D01*
X005945Y001525D01*
X006263D01*
X006262Y001536D01*
X006252Y001566D01*
X006238Y001594D01*
X006218Y001619D01*
X006193Y001639D01*
X006165Y001653D01*
X006135Y001663D01*
X006125Y001664D01*
Y001694D01*
X006135Y001695D01*
X006165Y001704D01*
X006193Y001719D01*
X006218Y001739D01*
X006238Y001763D01*
X006252Y001791D01*
X006262Y001821D01*
X006265Y001852D01*
X006262Y001884D01*
X006252Y001914D01*
X006238Y001942D01*
X006218Y001966D01*
X006193Y001986D01*
X006165Y002001D01*
X006135Y002010D01*
X006125Y002011D01*
Y002041D01*
X006135Y002042D01*
X006165Y002051D01*
X006193Y002066D01*
X006218Y002086D01*
X006238Y002111D01*
X006252Y002138D01*
X006262Y002169D01*
X006263Y002180D01*
D02*
G37*
G36*
X008536Y002387D02*
X008416D01*
Y002217D01*
X008416D01*
X008416Y002201D01*
X008416D01*
Y002031D01*
X008441D01*
Y001981D01*
X008434Y001971D01*
X008430Y001953D01*
X008434Y001936D01*
X008443Y001921D01*
X008458Y001911D01*
X008476Y001907D01*
X008493Y001911D01*
X008508Y001921D01*
X008518Y001936D01*
X008522Y001953D01*
X008518Y001971D01*
X008512Y001980D01*
Y002031D01*
X008536D01*
Y002201D01*
X008536D01*
X008536Y002217D01*
X008536D01*
Y002387D01*
D02*
G37*
G36*
X004985Y001902D02*
X004945D01*
Y001837D01*
X004985D01*
Y001902D01*
D02*
G37*
G36*
X004905D02*
X004865D01*
Y001837D01*
X004905D01*
Y001902D01*
D02*
G37*
G36*
X003711D02*
X003671D01*
Y001837D01*
X003711D01*
Y001902D01*
D02*
G37*
G36*
X003456D02*
X003416D01*
Y001837D01*
X003456D01*
Y001902D01*
D02*
G37*
G36*
X004540Y001831D02*
Y001810D01*
X004561D01*
X004552Y001822D01*
X004540Y001831D01*
D02*
G37*
G36*
X004500D02*
X004488Y001822D01*
X004479Y001810D01*
X004500D01*
Y001831D01*
D02*
G37*
G36*
X004561Y001770D02*
X004540D01*
Y001749D01*
X004552Y001758D01*
X004561Y001770D01*
D02*
G37*
G36*
X004500D02*
X004479D01*
X004488Y001758D01*
X004500Y001749D01*
Y001770D01*
D02*
G37*
G36*
X004961Y001717D02*
X004840D01*
Y001685D01*
X004961D01*
Y001717D01*
D02*
G37*
G36*
X004771Y001770D02*
X004689D01*
X004694Y001762D01*
Y001717D01*
X004679D01*
Y001685D01*
X004800D01*
Y001717D01*
X004766D01*
Y001762D01*
X004771Y001770D01*
D02*
G37*
G36*
X003300Y001548D02*
Y001500D01*
X003348D01*
X003342Y001516D01*
X003330Y001530D01*
X003316Y001542D01*
X003300Y001548D01*
D02*
G37*
G36*
X003260Y001548D02*
X003244Y001542D01*
X003230Y001530D01*
X003218Y001516D01*
X003212Y001500D01*
X003260D01*
Y001548D01*
D02*
G37*
G36*
X003348Y001460D02*
X003300D01*
Y001412D01*
X003316Y001418D01*
X003330Y001430D01*
X003342Y001444D01*
X003348Y001460D01*
D02*
G37*
G36*
X003260D02*
X003212D01*
X003218Y001444D01*
X003230Y001430D01*
X003244Y001418D01*
X003260Y001412D01*
Y001460D01*
D02*
G37*
G36*
X004275Y001717D02*
X003994D01*
Y001596D01*
X003923D01*
Y001615D01*
X003753D01*
Y001615D01*
X003746Y001615D01*
Y001615D01*
X003576D01*
Y001495D01*
X003746D01*
Y001495D01*
X003753Y001495D01*
Y001495D01*
X003923D01*
Y001524D01*
X003994D01*
Y001433D01*
X003990Y001428D01*
X003965Y001411D01*
X003964Y001411D01*
X003960Y001412D01*
X003953Y001410D01*
X003923Y001425D01*
Y001425D01*
X003776D01*
X003746Y001425D01*
X003723Y001425D01*
X003576D01*
Y001403D01*
X003546Y001397D01*
X003538Y001402D01*
X003520Y001406D01*
X003502Y001402D01*
X003488Y001392D01*
X003478Y001378D01*
X003474Y001360D01*
X003478Y001342D01*
X003488Y001328D01*
X003502Y001318D01*
X003520Y001314D01*
X003538Y001318D01*
X003546Y001323D01*
X003576Y001317D01*
Y001305D01*
X003617D01*
Y001260D01*
X003592D01*
Y001090D01*
X003592D01*
X003592Y001074D01*
X003592D01*
Y001024D01*
X003537D01*
Y001074D01*
X003417D01*
Y000918D01*
X003417Y000904D01*
X003417Y000874D01*
Y000823D01*
X003477D01*
Y000803D01*
X003497D01*
Y000718D01*
X003537D01*
Y000767D01*
X003592D01*
Y000718D01*
X003632D01*
Y000803D01*
X003652D01*
Y000823D01*
X003712D01*
Y000874D01*
X003712Y000904D01*
X003712Y000917D01*
Y001074D01*
X003712D01*
X003712Y001090D01*
X003712D01*
Y001260D01*
X003688D01*
Y001305D01*
X003723D01*
X003753Y001305D01*
X003776Y001305D01*
X003806D01*
Y001260D01*
X003782D01*
Y001090D01*
X003782D01*
X003782Y001074D01*
X003782D01*
Y000904D01*
X003782D01*
X003782Y000888D01*
X003782D01*
X003782Y000874D01*
Y000718D01*
X003902D01*
Y000767D01*
X003996D01*
Y000718D01*
X004116D01*
Y000888D01*
X003996D01*
Y000838D01*
X003902D01*
Y000888D01*
X003902D01*
X003902Y000904D01*
X003902D01*
X003902Y000917D01*
Y001074D01*
X003902D01*
X003902Y001090D01*
X003902D01*
Y001260D01*
X003878D01*
Y001305D01*
X003923D01*
X003923Y001305D01*
X003953Y001321D01*
X003960Y001320D01*
X003964Y001321D01*
X003970Y001319D01*
X003990Y001303D01*
X003994Y001298D01*
Y001213D01*
X004204D01*
Y001137D01*
X004198Y001128D01*
X004194Y001110D01*
X004198Y001092D01*
X004208Y001078D01*
X004222Y001068D01*
X004240Y001064D01*
X004258Y001068D01*
X004272Y001078D01*
X004282Y001092D01*
X004286Y001110D01*
X004282Y001128D01*
X004276Y001138D01*
Y001248D01*
X004275Y001252D01*
Y001313D01*
Y001413D01*
Y001513D01*
Y001619D01*
X004405D01*
X004420Y001604D01*
X004422Y001594D01*
X004434Y001575D01*
X004452Y001563D01*
X004463Y001561D01*
X004491Y001533D01*
X004506Y001523D01*
X004524Y001519D01*
X004679D01*
Y001413D01*
Y001313D01*
X004679D01*
X004682Y001284D01*
X004682Y001283D01*
X004678Y001265D01*
X004682Y001245D01*
X004694Y001228D01*
X004711Y001216D01*
X004731Y001212D01*
X004858D01*
Y001172D01*
X004861Y001158D01*
X004869Y001147D01*
X004893Y001123D01*
Y001074D01*
X004868D01*
Y000917D01*
X004866Y000888D01*
X004866Y000875D01*
Y000823D01*
X004926D01*
X004986D01*
Y000875D01*
X004988Y000904D01*
X004988Y000917D01*
Y000953D01*
X005030D01*
Y000904D01*
X005030D01*
Y000888D01*
X005030D01*
Y000718D01*
X005150D01*
Y000888D01*
X005150D01*
Y000904D01*
X005150D01*
Y001060D01*
X005150Y001074D01*
X005150D01*
X005150Y001090D01*
X005150D01*
Y001260D01*
X005150D01*
Y001276D01*
X005150D01*
Y001446D01*
X005150D01*
X005150Y001462D01*
X005150D01*
Y001618D01*
X005150Y001632D01*
X005150Y001661D01*
Y001712D01*
X005030D01*
Y001661D01*
X005030Y001647D01*
X005030Y001618D01*
Y001462D01*
X005030D01*
X005030Y001446D01*
X005030D01*
X005030Y001432D01*
Y001401D01*
X004961D01*
Y001513D01*
Y001613D01*
Y001645D01*
X004820D01*
X004679D01*
Y001611D01*
X004543D01*
X004528Y001626D01*
X004526Y001636D01*
X004513Y001655D01*
X004495Y001667D01*
X004485Y001669D01*
X004456Y001697D01*
X004441Y001707D01*
X004424Y001711D01*
X004275D01*
Y001717D01*
D02*
G37*
G36*
X006733Y001353D02*
X006693D01*
Y001288D01*
X006733D01*
Y001353D01*
D02*
G37*
G36*
X006653D02*
X006613D01*
Y001288D01*
X006653D01*
Y001353D01*
D02*
G37*
G36*
X007152Y001289D02*
Y001269D01*
X007173D01*
X007165Y001281D01*
X007152Y001289D01*
D02*
G37*
G36*
X007112D02*
X007100Y001281D01*
X007092Y001269D01*
X007112D01*
Y001289D01*
D02*
G37*
G36*
X007083Y001420D02*
X006943D01*
X006802D01*
Y001388D01*
X006907D01*
Y001276D01*
X006902Y001269D01*
X006983D01*
X006978Y001276D01*
Y001388D01*
X007083D01*
Y001420D01*
D02*
G37*
G36*
X006263Y001485D02*
X005945D01*
X005946Y001474D01*
X005955Y001443D01*
X005970Y001416D01*
X005990Y001391D01*
X006015Y001371D01*
X006042Y001356D01*
X006072Y001347D01*
X006083Y001346D01*
Y001316D01*
X006072Y001315D01*
X006042Y001306D01*
X006015Y001291D01*
X005990Y001271D01*
X005970Y001247D01*
X005955Y001219D01*
X005954Y001216D01*
X005849D01*
X005849Y001219D01*
X005834Y001247D01*
X005814Y001271D01*
X005789Y001291D01*
X005762Y001306D01*
X005731Y001315D01*
X005721Y001316D01*
Y001346D01*
X005731Y001347D01*
X005762Y001356D01*
X005789Y001371D01*
X005814Y001391D01*
X005834Y001416D01*
X005849Y001443D01*
X005858Y001474D01*
X005859Y001485D01*
X005541D01*
X005542Y001474D01*
X005551Y001443D01*
X005566Y001416D01*
X005586Y001391D01*
X005611Y001371D01*
X005638Y001356D01*
X005669Y001347D01*
X005679Y001346D01*
Y001316D01*
X005669Y001315D01*
X005638Y001306D01*
X005611Y001291D01*
X005586Y001271D01*
X005566Y001247D01*
X005551Y001219D01*
X005542Y001189D01*
X005539Y001157D01*
X005542Y001126D01*
X005551Y001096D01*
X005566Y001068D01*
X005586Y001044D01*
X005611Y001024D01*
X005638Y001009D01*
X005669Y001000D01*
X005679Y000999D01*
Y000969D01*
X005669Y000968D01*
X005638Y000958D01*
X005611Y000944D01*
X005586Y000924D01*
X005566Y000899D01*
X005551Y000871D01*
X005542Y000841D01*
X005541Y000830D01*
X005859D01*
X005858Y000841D01*
X005849Y000871D01*
X005834Y000899D01*
X005814Y000924D01*
X005789Y000944D01*
X005762Y000958D01*
X005731Y000968D01*
X005721Y000969D01*
Y000999D01*
X005731Y001000D01*
X005762Y001009D01*
X005789Y001024D01*
X005814Y001044D01*
X005834Y001068D01*
X005849Y001096D01*
X005849Y001099D01*
X005954D01*
X005955Y001096D01*
X005970Y001068D01*
X005990Y001044D01*
X006015Y001024D01*
X006042Y001009D01*
X006072Y001000D01*
X006083Y000999D01*
Y000969D01*
X006072Y000968D01*
X006042Y000958D01*
X006015Y000944D01*
X005990Y000924D01*
X005970Y000899D01*
X005955Y000871D01*
X005946Y000841D01*
X005945Y000830D01*
X006263D01*
X006262Y000841D01*
X006252Y000871D01*
X006238Y000899D01*
X006218Y000924D01*
X006193Y000944D01*
X006165Y000958D01*
X006135Y000968D01*
X006125Y000969D01*
Y000999D01*
X006135Y001000D01*
X006165Y001009D01*
X006193Y001024D01*
X006218Y001044D01*
X006238Y001068D01*
X006252Y001096D01*
X006262Y001126D01*
X006265Y001157D01*
X006262Y001189D01*
X006252Y001219D01*
X006238Y001247D01*
X006218Y001271D01*
X006193Y001291D01*
X006165Y001306D01*
X006135Y001315D01*
X006125Y001316D01*
Y001346D01*
X006135Y001347D01*
X006165Y001356D01*
X006193Y001371D01*
X006218Y001391D01*
X006238Y001416D01*
X006252Y001443D01*
X006262Y001474D01*
X006263Y001485D01*
D02*
G37*
G36*
X007173Y001229D02*
X007152D01*
Y001208D01*
X007165Y001216D01*
X007173Y001229D01*
D02*
G37*
G36*
X007112D02*
X007092D01*
X007100Y001216D01*
X007112Y001208D01*
Y001229D01*
D02*
G37*
G36*
X006983D02*
X006962D01*
Y001208D01*
X006975Y001216D01*
X006983Y001229D01*
D02*
G37*
G36*
X006922D02*
X006902D01*
X006910Y001216D01*
X006922Y001208D01*
Y001229D01*
D02*
G37*
G36*
X004400Y001151D02*
Y001130D01*
X004421D01*
X004412Y001142D01*
X004400Y001151D01*
D02*
G37*
G36*
X004360D02*
X004348Y001142D01*
X004339Y001130D01*
X004360D01*
Y001151D01*
D02*
G37*
G36*
X004421Y001090D02*
X004400D01*
Y001069D01*
X004412Y001078D01*
X004421Y001090D01*
D02*
G37*
G36*
X004360D02*
X004339D01*
X004348Y001078D01*
X004360Y001069D01*
Y001090D01*
D02*
G37*
G36*
X004798Y001074D02*
X004678D01*
Y000904D01*
X004678D01*
X004676Y000888D01*
X004676Y000888D01*
X004676Y000875D01*
Y000838D01*
X004533D01*
X004531Y000842D01*
X004512Y000854D01*
X004491Y000859D01*
X004469Y000854D01*
X004451Y000842D01*
X004449Y000838D01*
X004306D01*
Y000888D01*
X004186D01*
Y000718D01*
X004306D01*
Y000767D01*
X004449D01*
X004451Y000763D01*
X004469Y000751D01*
X004491Y000747D01*
X004512Y000751D01*
X004531Y000763D01*
X004533Y000767D01*
X004676D01*
Y000718D01*
X004796D01*
Y000888D01*
X004796D01*
X004798Y000904D01*
X004798Y000904D01*
X004798Y000917D01*
Y001074D01*
D02*
G37*
G36*
X004986Y000783D02*
X004946D01*
Y000718D01*
X004986D01*
Y000783D01*
D02*
G37*
G36*
X004906D02*
X004866D01*
Y000718D01*
X004906D01*
Y000783D01*
D02*
G37*
G36*
X003712D02*
X003672D01*
Y000718D01*
X003712D01*
Y000783D01*
D02*
G37*
G36*
X003457D02*
X003417D01*
Y000718D01*
X003457D01*
Y000783D01*
D02*
G37*
G36*
X008397Y004866D02*
X008354Y004862D01*
X008312Y004849D01*
X008274Y004829D01*
X008240Y004801D01*
X008213Y004768D01*
X008192Y004730D01*
X008180Y004688D01*
X008176Y004645D01*
X008180Y004602D01*
X008192Y004560D01*
X008213Y004522D01*
X008240Y004489D01*
X008274Y004461D01*
X008312Y004441D01*
X008354Y004428D01*
X008397Y004424D01*
X008440Y004428D01*
X008481Y004441D01*
X008519Y004461D01*
X008553Y004489D01*
X008580Y004522D01*
X008601Y004560D01*
X008613Y004602D01*
X008618Y004645D01*
X008613Y004688D01*
X008601Y004730D01*
X008580Y004768D01*
X008553Y004801D01*
X008519Y004829D01*
X008481Y004849D01*
X008440Y004862D01*
X008397Y004866D01*
D02*
G37*
G36*
X002075Y003456D02*
X002054Y003452D01*
X002035Y003440D01*
X002023Y003421D01*
X002019Y003400D01*
X002020Y003395D01*
X002010Y003385D01*
X002002Y003374D01*
X001999Y003360D01*
Y003350D01*
X001950D01*
Y003230D01*
X002120D01*
Y003350D01*
X002120D01*
X002116Y003363D01*
X002127Y003379D01*
X002131Y003400D01*
X002127Y003421D01*
X002115Y003440D01*
X002096Y003452D01*
X002075Y003456D01*
D02*
G37*
G36*
X001432Y003457D02*
X001410Y003452D01*
X001392Y003440D01*
X001380Y003422D01*
X001376Y003401D01*
X001380Y003379D01*
X001386Y003370D01*
Y003350D01*
X001347D01*
Y003336D01*
X001316D01*
Y003350D01*
X001146D01*
Y003230D01*
X001316D01*
Y003244D01*
X001347D01*
Y003230D01*
X001517D01*
Y003350D01*
X001478D01*
Y003371D01*
X001484Y003379D01*
X001488Y003401D01*
X001484Y003422D01*
X001472Y003440D01*
X001453Y003452D01*
X001432Y003457D01*
D02*
G37*
G36*
X001919Y003351D02*
X001854D01*
Y003310D01*
X001919D01*
Y003351D01*
D02*
G37*
G36*
X001814D02*
X001749D01*
Y003310D01*
X001814D01*
Y003351D01*
D02*
G37*
G36*
X000914Y003350D02*
X000849D01*
Y003310D01*
X000914D01*
Y003350D01*
D02*
G37*
G36*
X000809D02*
X000744D01*
Y003310D01*
X000809D01*
Y003350D01*
D02*
G37*
G36*
X002700Y003363D02*
X002658Y003321D01*
X002700Y003278D01*
X002742Y003321D01*
X002700Y003363D01*
D02*
G37*
G36*
X001919Y003271D02*
X001854D01*
Y003231D01*
X001919D01*
Y003271D01*
D02*
G37*
G36*
X001814D02*
X001749D01*
Y003231D01*
X001814D01*
Y003271D01*
D02*
G37*
G36*
X000914Y003270D02*
X000849D01*
Y003230D01*
X000914D01*
Y003270D01*
D02*
G37*
G36*
X000809D02*
X000744D01*
Y003230D01*
X000809D01*
Y003270D01*
D02*
G37*
G36*
X002629Y003292D02*
X002587Y003250D01*
X002629Y003208D01*
X002672Y003250D01*
X002629Y003292D01*
D02*
G37*
G36*
X002771D02*
X002728Y003250D01*
X002771Y003208D01*
X002813Y003250D01*
X002771Y003292D01*
D02*
G37*
G36*
X001316Y003160D02*
X001251D01*
Y003120D01*
X001316D01*
Y003160D01*
D02*
G37*
G36*
X001211D02*
X001146D01*
Y003120D01*
X001211D01*
Y003160D01*
D02*
G37*
G36*
X001316Y003080D02*
X001251D01*
Y003040D01*
X001316D01*
Y003080D01*
D02*
G37*
G36*
X001211D02*
X001146D01*
Y003040D01*
X001211D01*
Y003080D01*
D02*
G37*
G36*
X001115Y003160D02*
X000945D01*
Y003040D01*
X000995D01*
Y002995D01*
X000997Y002981D01*
X001005Y002969D01*
X001025Y002950D01*
X001036Y002942D01*
X001050Y002939D01*
X001389D01*
X001391Y002935D01*
X001409Y002923D01*
X001431Y002919D01*
X001452Y002923D01*
X001471Y002935D01*
X001483Y002954D01*
X001487Y002975D01*
X001483Y002996D01*
X001471Y003015D01*
X001467Y003017D01*
Y003040D01*
X001517D01*
Y003160D01*
X001347D01*
Y003040D01*
X001396D01*
Y003018D01*
X001391Y003015D01*
X001389Y003011D01*
X001066D01*
Y003040D01*
X001115D01*
Y003160D01*
D02*
G37*
G36*
X000397Y002066D02*
X000354Y002062D01*
X000312Y002049D01*
X000274Y002029D01*
X000240Y002001D01*
X000213Y001968D01*
X000192Y001930D01*
X000180Y001888D01*
X000176Y001845D01*
X000180Y001802D01*
X000192Y001760D01*
X000213Y001722D01*
X000240Y001689D01*
X000274Y001661D01*
X000312Y001641D01*
X000354Y001628D01*
X000397Y001624D01*
X000440Y001628D01*
X000481Y001641D01*
X000519Y001661D01*
X000553Y001689D01*
X000580Y001722D01*
X000601Y001760D01*
X000613Y001802D01*
X000618Y001845D01*
X000613Y001888D01*
X000601Y001930D01*
X000580Y001968D01*
X000553Y002001D01*
X000519Y002029D01*
X000481Y002049D01*
X000440Y002062D01*
X000397Y002066D01*
D02*
G37*
G36*
X003347Y000616D02*
X003304Y000612D01*
X003262Y000599D01*
X003224Y000579D01*
X003190Y000551D01*
X003163Y000518D01*
X003142Y000480D01*
X003130Y000438D01*
X003126Y000395D01*
X003130Y000352D01*
X003142Y000310D01*
X003163Y000272D01*
X003190Y000239D01*
X003224Y000211D01*
X003262Y000191D01*
X003304Y000178D01*
X003347Y000174D01*
X003390Y000178D01*
X003431Y000191D01*
X003469Y000211D01*
X003503Y000239D01*
X003530Y000272D01*
X003551Y000310D01*
X003563Y000352D01*
X003568Y000395D01*
X003563Y000438D01*
X003551Y000480D01*
X003530Y000518D01*
X003503Y000551D01*
X003469Y000579D01*
X003431Y000599D01*
X003390Y000612D01*
X003347Y000616D01*
D02*
G37*
G36*
X006993D02*
X006950Y000612D01*
X006908Y000599D01*
X006870Y000579D01*
X006837Y000551D01*
X006809Y000518D01*
X006789Y000480D01*
X006776Y000438D01*
X006772Y000395D01*
X006776Y000352D01*
X006789Y000310D01*
X006809Y000272D01*
X006837Y000239D01*
X006870Y000211D01*
X006908Y000191D01*
X006950Y000178D01*
X006993Y000174D01*
X007036Y000178D01*
X007078Y000191D01*
X007116Y000211D01*
X007149Y000239D01*
X007177Y000272D01*
X007197Y000310D01*
X007210Y000352D01*
X007214Y000395D01*
X007210Y000438D01*
X007197Y000480D01*
X007177Y000518D01*
X007149Y000551D01*
X007116Y000579D01*
X007078Y000599D01*
X007036Y000612D01*
X006993Y000616D01*
D02*
G37*
%LPD*%
D10*
X004042Y006210D02*
G03*
X004751Y006210I000355J000185D01*
G01*
X006609Y000145D02*
G03*
X006743Y000395I-000166J000250D01*
G01*
X004751Y000280D02*
G03*
X004042Y000280I-000355J-000185D01*
G01*
X001801Y005845D02*
G03*
X002051Y006095I000000J000250D01*
G01*
X001047Y002845D02*
G03*
X000797Y002595I000000J-000250D01*
G01*
X005697Y003895D02*
G03*
X005947Y003645I000250J000000D01*
G01*
X000097Y002334D02*
G03*
X000347Y002200I000250J000166D01*
G01*
X000097Y001845D02*
G03*
X000347Y001595I000250J000000D01*
G01*
X005237Y005959D02*
G03*
X004961Y006094I-000251J-000164D01*
G01*
X003556Y000531D02*
G03*
X003347Y000645I-000210J-000136D01*
G01*
X003097Y002595D02*
G03*
X002847Y002845I-000250J000000D01*
G01*
X003097Y000395D02*
G03*
X003347Y000145I000250J000000D01*
G01*
X008697Y004645D02*
G03*
X008447Y004895I-000250J000000D01*
G01*
X008623Y001672D02*
G03*
X008697Y001849I-000177J000177D01*
G01*
X008247Y004895D02*
G03*
X007997Y004645I000000J-000250D01*
G01*
X007747Y003645D02*
G03*
X007997Y003895I000000J000250D01*
G01*
X006993Y000645D02*
G03*
X006743Y000395I000000J-000250D01*
G01*
X005697Y006095D02*
G03*
X005447Y006345I-000250J000000D01*
G01*
X005237Y005959D02*
G03*
X005447Y005845I000210J000136D01*
G01*
X005697Y005711D02*
G03*
X005447Y005845I-000250J-000166D01*
G01*
X004973Y006345D02*
G03*
X004751Y006210I000000J-000250D01*
G01*
Y000280D02*
G03*
X004973Y000145I000222J000115D01*
G01*
X004042Y006210D02*
G03*
X003820Y006345I-000222J-000115D01*
G01*
X003556Y000531D02*
G03*
X003808Y000395I000251J000164D01*
G01*
X003820Y000145D02*
G03*
X004042Y000280I000000J000250D01*
G01*
X003097Y000779D02*
G03*
X003347Y000645I000250J000166D01*
G01*
X002185Y006345D02*
G03*
X002051Y006095I000166J-000250D01*
G01*
X001800Y006345D02*
G03*
X001623Y006272I000000J-000250D01*
G01*
X000542Y002200D02*
G03*
X000797Y002342I000000J000300D01*
G01*
X000547Y001595D02*
G03*
X000797Y001845I000000J000250D01*
G01*
X008697Y004156D02*
G03*
X008447Y004290I-000250J-000166D01*
G01*
X008252D02*
G03*
X007997Y004148I000000J-000300D01*
G01*
X006993Y000145D02*
G03*
X007170Y000218I000000J000250D01*
G01*
X000170Y004818D02*
G03*
X000097Y004641I000177J-000177D01*
G01*
X007572Y000645D02*
G03*
X007598Y000646I000000J000300D01*
G01*
X000170Y004818D02*
X001623Y006272D01*
X005947Y003645D02*
X007747D01*
X006993Y000645D02*
X007572D01*
X007170Y000218D02*
X008623Y001672D01*
X004973Y006345D02*
X005447D01*
X001800D02*
X003820D01*
X008247Y004895D02*
X008447D01*
X008252Y004290D02*
X008447D01*
X004973Y000145D02*
X006993D01*
X001047Y002845D02*
X002847D01*
X003347Y000145D02*
X003820D01*
X004660Y006094D02*
X004961D01*
X003808Y000395D02*
X004132D01*
X001202Y005845D02*
X001801D01*
X000347Y002200D02*
X000542D01*
X000347Y001595D02*
X000547D01*
X008697Y001849D02*
Y004645D01*
X005697Y003895D02*
Y006095D01*
X003097Y000395D02*
Y002595D01*
X000797Y001845D02*
Y002595D01*
X000097Y001845D02*
Y004641D01*
X007997Y003895D02*
Y004645D01*
X000347Y003945D02*
X000446Y004044D01*
X000640D01*
D29*
X005280Y001547D02*
D03*
X003286Y002108D02*
D03*
X003476D02*
D03*
X005283Y004577D02*
D03*
X005473D02*
D03*
X008286Y002302D02*
D03*
X008476D02*
D03*
X008111D02*
D03*
X007921D02*
D03*
X006673Y001930D02*
D03*
X006483D02*
D03*
X006837Y002302D02*
D03*
X007027D02*
D03*
X005107Y004577D02*
D03*
X004917D02*
D03*
X003833D02*
D03*
X004023D02*
D03*
X003670Y004205D02*
D03*
X003480D02*
D03*
Y003648D02*
D03*
X003670D02*
D03*
X005473Y004391D02*
D03*
X005283D02*
D03*
X004703Y004577D02*
D03*
X004513D02*
D03*
X004021Y004391D02*
D03*
X003831D02*
D03*
X003669Y003833D02*
D03*
X003479D02*
D03*
X005107Y004205D02*
D03*
X004917D02*
D03*
X003669Y004391D02*
D03*
X003479D02*
D03*
X005107D02*
D03*
X004917D02*
D03*
X003669Y004577D02*
D03*
X003479D02*
D03*
X003480Y004019D02*
D03*
X003670D02*
D03*
X003286Y001922D02*
D03*
X003476D02*
D03*
X003841D02*
D03*
X003651D02*
D03*
X004735D02*
D03*
X004925D02*
D03*
X005279Y002294D02*
D03*
X005089D02*
D03*
Y002852D02*
D03*
X005279D02*
D03*
X004055Y001922D02*
D03*
X004245D02*
D03*
X004738Y002108D02*
D03*
X004928D02*
D03*
X005090Y002666D02*
D03*
X005280D02*
D03*
X003652Y002294D02*
D03*
X003842D02*
D03*
X005090Y002108D02*
D03*
X005280D02*
D03*
X003652D02*
D03*
X003842D02*
D03*
X005090Y001922D02*
D03*
X005280D02*
D03*
X005279Y002480D02*
D03*
X005089D02*
D03*
X000327Y004358D02*
D03*
X000517D02*
D03*
X000882D02*
D03*
X000692D02*
D03*
X001776D02*
D03*
X001966D02*
D03*
X002319Y004730D02*
D03*
X002129D02*
D03*
X002319Y005288D02*
D03*
X002129D02*
D03*
X000516Y004544D02*
D03*
X000326D02*
D03*
X001286Y004358D02*
D03*
X001096D02*
D03*
X001968Y004544D02*
D03*
X001778D02*
D03*
X002130Y005102D02*
D03*
X002320D02*
D03*
X000882Y004730D02*
D03*
X000692D02*
D03*
X002320Y004544D02*
D03*
X002130D02*
D03*
X000882D02*
D03*
X000692D02*
D03*
X002320Y004358D02*
D03*
X002130D02*
D03*
X002129Y004916D02*
D03*
X002319D02*
D03*
X005473Y005690D02*
D03*
X005283D02*
D03*
X004917D02*
D03*
X005107D02*
D03*
X004023D02*
D03*
X003833D02*
D03*
X003480Y005318D02*
D03*
X003670D02*
D03*
Y004761D02*
D03*
X003480D02*
D03*
X005283Y005504D02*
D03*
X005473D02*
D03*
X004513Y005690D02*
D03*
X004703D02*
D03*
X003831Y005504D02*
D03*
X004021D02*
D03*
X003669Y004946D02*
D03*
X003479D02*
D03*
X004917Y005318D02*
D03*
X005107D02*
D03*
X003479Y005504D02*
D03*
X003669D02*
D03*
X004917D02*
D03*
X005107D02*
D03*
X003479Y005690D02*
D03*
X003669D02*
D03*
X003670Y005132D02*
D03*
X003480D02*
D03*
X003477Y000803D02*
D03*
X003287D02*
D03*
X003652D02*
D03*
X003842D02*
D03*
X004926D02*
D03*
X004736D02*
D03*
X005090Y001175D02*
D03*
X005280D02*
D03*
X005090Y001361D02*
D03*
X005280D02*
D03*
X003652Y000989D02*
D03*
X003842D02*
D03*
X004056Y000803D02*
D03*
X004246D02*
D03*
X004738Y000989D02*
D03*
X004928D02*
D03*
X005090Y001547D02*
D03*
X003652Y001175D02*
D03*
X003842D02*
D03*
X003287Y000989D02*
D03*
X003477D02*
D03*
X005090Y000803D02*
D03*
X005280D02*
D03*
X005090Y000989D02*
D03*
X005280D02*
D03*
X005280Y001732D02*
D03*
X005090D02*
D03*
X006673Y001373D02*
D03*
X006483D02*
D03*
X008286Y002116D02*
D03*
X008476D02*
D03*
X006835Y002116D02*
D03*
X007025D02*
D03*
X006483Y001558D02*
D03*
X006673D02*
D03*
X007920Y001930D02*
D03*
X008110D02*
D03*
X006483Y002116D02*
D03*
X006673D02*
D03*
X007920D02*
D03*
X008110D02*
D03*
X006483Y002302D02*
D03*
X006673D02*
D03*
X006673Y001744D02*
D03*
X006483D02*
D03*
D30*
X001231Y003290D02*
D03*
Y003100D02*
D03*
X001432Y003100D02*
D03*
Y003290D02*
D03*
X001633Y003100D02*
D03*
Y003290D02*
D03*
X001834Y003290D02*
D03*
Y003100D02*
D03*
X001030Y003100D02*
D03*
Y003290D02*
D03*
X000829D02*
D03*
Y003100D02*
D03*
X002035Y003100D02*
D03*
Y003290D02*
D03*
X008102Y001740D02*
D03*
Y001550D02*
D03*
X005098Y004015D02*
D03*
Y003825D02*
D03*
X004921Y003825D02*
D03*
Y004015D02*
D03*
X003660Y002675D02*
D03*
Y002485D02*
D03*
X003837Y002485D02*
D03*
Y002675D02*
D03*
X000701Y005110D02*
D03*
Y004920D02*
D03*
X000878Y004920D02*
D03*
Y005110D02*
D03*
X005098Y004938D02*
D03*
Y005128D02*
D03*
X004921Y005128D02*
D03*
Y004938D02*
D03*
X003661Y001365D02*
D03*
Y001555D02*
D03*
X003838Y001365D02*
D03*
Y001555D02*
D03*
X007925Y001740D02*
D03*
Y001550D02*
D03*
X007695Y002294D02*
D03*
Y002104D02*
D03*
D31*
X003939Y004115D02*
D03*
X004820Y002385D02*
D03*
X001860Y004820D02*
D03*
X003939Y005228D02*
D03*
X004820Y001265D02*
D03*
X006943Y001840D02*
D03*
D32*
X003939Y004015D02*
D03*
Y003915D02*
D03*
Y003815D02*
D03*
X004625Y004115D02*
D03*
Y004015D02*
D03*
Y003915D02*
D03*
Y003815D02*
D03*
X003939Y003715D02*
D03*
X004625D02*
D03*
X004134Y002785D02*
D03*
X004820D02*
D03*
X004134Y002685D02*
D03*
Y002585D02*
D03*
Y002485D02*
D03*
Y002385D02*
D03*
X004820Y002685D02*
D03*
Y002585D02*
D03*
Y002485D02*
D03*
X001174Y005220D02*
D03*
X001860D02*
D03*
X001174Y005120D02*
D03*
Y005020D02*
D03*
Y004920D02*
D03*
Y004820D02*
D03*
X001860Y005120D02*
D03*
Y005020D02*
D03*
Y004920D02*
D03*
X004625Y004828D02*
D03*
X003939D02*
D03*
X004625Y004928D02*
D03*
Y005028D02*
D03*
Y005128D02*
D03*
Y005228D02*
D03*
X003939Y004928D02*
D03*
Y005028D02*
D03*
Y005128D02*
D03*
X004134Y001665D02*
D03*
X004820D02*
D03*
X004134Y001565D02*
D03*
Y001465D02*
D03*
Y001365D02*
D03*
Y001265D02*
D03*
X004820Y001565D02*
D03*
Y001465D02*
D03*
Y001365D02*
D03*
X007629Y001440D02*
D03*
X006943D02*
D03*
X007629Y001540D02*
D03*
Y001640D02*
D03*
Y001740D02*
D03*
Y001840D02*
D03*
X006943Y001540D02*
D03*
Y001640D02*
D03*
Y001740D02*
D03*
D33*
X004625Y005128D02*
X004808D01*
X004810Y005130D01*
X006942Y001440D02*
X006943Y001440D01*
X006942Y001249D02*
Y001440D01*
X004134Y001265D02*
X004223D01*
X004240Y001248D01*
Y001110D02*
Y001248D01*
Y001110D02*
X004240Y001110D01*
X003666Y001560D02*
X004129D01*
X004134Y001565D01*
X003661Y001555D02*
X003666Y001560D01*
X003661Y001555D02*
X003661Y001555D01*
X003838D01*
X003838Y001555D01*
X003520Y001360D02*
X003656D01*
X003661Y001365D01*
X003652Y001357D02*
X003661Y001365D01*
X003661Y001365D01*
X003652Y001175D02*
Y001357D01*
X003652Y000989D02*
X003652Y000989D01*
Y001175D01*
X003477Y000989D02*
X003652D01*
X003652Y000989D01*
X003287Y000989D02*
X003287Y000989D01*
Y000803D02*
Y000989D01*
X005263Y003488D02*
X005600Y003825D01*
X003212Y003488D02*
X005263D01*
X002656Y004044D02*
X003212Y003488D01*
X004012Y003715D02*
X004050Y003677D01*
Y003553D02*
Y003677D01*
X003359Y005171D02*
Y005673D01*
Y005171D02*
X003391Y005140D01*
X003472D02*
X003480Y005132D01*
X003391Y005140D02*
X003472D01*
X004737Y000987D02*
X004738Y000989D01*
X004737Y000804D02*
Y000987D01*
X004736Y000803D02*
X004737Y000804D01*
X004246Y000803D02*
X004491D01*
X005280Y001175D02*
X005280Y001174D01*
Y000989D02*
Y001174D01*
Y000989D02*
X005280Y000989D01*
X005090Y001175D02*
Y001546D01*
X005090Y001547D01*
X005090Y001175D02*
X005090Y001175D01*
X004820Y001365D02*
X005085D01*
X005090Y001361D01*
X000547Y002345D02*
X000730Y002528D01*
Y002720D02*
X000829Y002819D01*
X000730Y002528D02*
Y002720D01*
X000829Y002819D02*
Y003100D01*
X001174Y004820D02*
X001256D01*
X001273Y004803D01*
Y004660D02*
Y004803D01*
X001834Y002990D02*
Y003100D01*
X002158Y002983D02*
X002300Y003125D01*
Y003329D01*
X002348Y003377D01*
X002573D01*
X001841Y002983D02*
X002158D01*
X002175Y003100D02*
X002232Y003157D01*
Y003332D02*
X002450Y003550D01*
X002232Y003157D02*
Y003332D01*
X001633Y003100D02*
X001633Y003100D01*
X001834D01*
X001144Y003868D02*
X001332D01*
X001633Y003290D02*
Y003567D01*
X001332Y003868D02*
X001633Y003567D01*
X001431Y003099D02*
X001432Y003100D01*
X001431Y002975D02*
Y003099D01*
X001431Y002975D02*
X001431Y002975D01*
X001050Y002975D02*
X001431D01*
X001030Y002995D02*
Y003100D01*
Y002995D02*
X001050Y002975D01*
X000665Y002663D02*
Y003229D01*
X000726Y003290D02*
X000829D01*
X000665Y003229D02*
X000726Y003290D01*
X000547Y002545D02*
X000665Y002663D01*
X002035Y003290D02*
Y003360D01*
X002075Y003400D01*
X002450Y003550D02*
X002925D01*
X002035Y003100D02*
X002175D01*
X002925Y003550D02*
X003075Y003400D01*
X000547Y003945D02*
X002655D01*
X003450Y002700D02*
Y003150D01*
X002655Y003945D02*
X003450Y003150D01*
X002566Y003130D02*
X003005D01*
X002446Y003250D02*
X002566Y003130D01*
X003005D02*
X003150Y003275D01*
X003185Y002435D02*
X003450Y002700D01*
X003185Y001815D02*
X003267Y001733D01*
X003185Y001815D02*
Y002435D01*
X003267Y001683D02*
X003280Y001670D01*
X003267Y001683D02*
Y001733D01*
X000640Y004044D02*
X002656D01*
X005473Y005504D02*
X005473Y005504D01*
X005473Y005342D02*
Y005504D01*
X005472Y005341D02*
X005473Y005342D01*
X005480Y004820D02*
X005600Y004700D01*
Y003825D02*
Y004700D01*
X000225Y004350D02*
X000319D01*
X000327Y004358D02*
Y004707D01*
X000319Y004350D02*
X000327Y004358D01*
X001526Y004359D02*
X001775D01*
X001776Y004358D01*
X001287Y004359D02*
X001526D01*
X001286Y004357D02*
X001287Y004359D01*
X001286Y004358D02*
X001286Y004357D01*
X004509Y005695D02*
X004513Y005690D01*
X004269Y005695D02*
X004509D01*
X004023Y005690D02*
X004028Y005695D01*
X004269D01*
X004246Y004582D02*
X004508D01*
X004022Y004576D02*
X004023Y004577D01*
X004028Y004582D01*
X004246D01*
X004508D02*
X004513Y004577D01*
X005474Y004226D02*
X005475Y004225D01*
X005473D02*
Y004391D01*
X007029Y002298D02*
X007691D01*
X007026Y002301D02*
X007029Y002298D01*
X004733Y002113D02*
X004738Y002108D01*
X004569Y002113D02*
X004733D01*
X003275Y001125D02*
X003281Y001119D01*
X003286Y002108D02*
X003286Y002108D01*
Y002300D01*
X004491Y000803D02*
X004736D01*
X003287Y001039D02*
Y001125D01*
X003275Y001037D02*
X003279D01*
X003281Y001039D01*
X005382Y002480D02*
X005400Y002463D01*
X005279Y002480D02*
X005382D01*
X005400Y001940D02*
Y002463D01*
X005382Y001922D02*
X005400Y001940D01*
X005280Y001922D02*
X005382D01*
X003669Y005132D02*
X003672Y005130D01*
X003670Y005132D02*
X003674Y005128D01*
X003377Y005690D02*
X003479D01*
X003359Y005673D02*
X003377Y005690D01*
X003669Y005504D02*
Y005690D01*
X003669Y005128D02*
X003672Y005130D01*
X003669Y004947D02*
Y005128D01*
X003669Y004946D02*
X003669Y004947D01*
X004022Y005506D02*
X004022Y005506D01*
X003669Y005504D02*
X003831D01*
X005273D02*
X005286Y005492D01*
X005107Y005504D02*
X005273D01*
X003831Y005355D02*
X003865Y005321D01*
Y005243D02*
Y005321D01*
X003831Y005355D02*
Y005504D01*
X003881Y005228D02*
X003939D01*
X003865Y005243D02*
X003881Y005228D01*
X003674Y005128D02*
X003939D01*
X004630Y004933D02*
X004630Y004933D01*
X004012Y004828D02*
X004029Y004811D01*
X003670Y005132D02*
Y005318D01*
X003479Y005319D02*
Y005504D01*
X003479Y005504D02*
X003479Y005504D01*
Y005319D02*
X003480Y005318D01*
X005107Y005136D02*
Y005504D01*
X005107Y005504D02*
X005107Y005504D01*
X005107Y005136D02*
X005107Y005136D01*
X005223Y005128D02*
X005223Y005128D01*
X005115Y005128D02*
X005223D01*
X005098Y005128D02*
X005107Y005136D01*
X005115Y005128D01*
X005093Y004933D02*
X005098Y004938D01*
X004630Y004933D02*
X005093D01*
X004625Y004928D02*
X004630Y004933D01*
X004029Y004703D02*
Y004811D01*
X003939Y004828D02*
X004012D01*
X004022Y005689D02*
X004023Y005690D01*
X004022Y005506D02*
Y005689D01*
X004917Y005132D02*
X004921Y005128D01*
X004917Y005132D02*
Y005690D01*
X004703D02*
X004917D01*
X004536Y005228D02*
X004625D01*
X004519Y005245D02*
Y005383D01*
X004519Y005383D02*
X004519Y005383D01*
Y005245D02*
X004536Y005228D01*
X005107Y005690D02*
X005283D01*
X005473Y005690D02*
X005473Y005690D01*
X005473Y005504D02*
Y005690D01*
Y005504D02*
X005473Y005504D01*
X003865Y004130D02*
X003881Y004115D01*
X004519Y004132D02*
X004536Y004115D01*
X004625Y003815D02*
X004630Y003820D01*
X004630Y003820D01*
X003669Y004015D02*
X003672Y004017D01*
X003670Y004019D02*
X003674Y004015D01*
X003669Y004019D02*
X003672Y004017D01*
X003674Y004015D02*
X003939D01*
X003359Y004037D02*
Y004560D01*
Y004037D02*
X003377Y004019D01*
X003359Y004560D02*
X003377Y004577D01*
X003479D01*
X003377Y004019D02*
X003480D01*
X005107Y004391D02*
X005107Y004391D01*
X003669Y004391D02*
Y004577D01*
X003831Y004242D02*
Y004391D01*
X003669D02*
X003831D01*
X003865Y004130D02*
Y004208D01*
X003881Y004115D02*
X003939D01*
X003831Y004242D02*
X003865Y004208D01*
X005107Y004391D02*
X005273D01*
X005286Y004379D01*
X003670Y004019D02*
Y004205D01*
X003479Y004206D02*
Y004391D01*
Y004206D02*
X003480Y004205D01*
X003479Y004391D02*
X003479Y004391D01*
X004797Y004015D02*
X004798Y004014D01*
X004800D01*
X004625Y004015D02*
X004797D01*
X005098Y004015D02*
X005107Y004023D01*
X005115Y004015D01*
X005107Y004023D02*
X005107Y004023D01*
Y004391D01*
X005115Y004015D02*
X005223D01*
X005223Y004015D01*
X004630Y003820D02*
X005093D01*
X005098Y003825D01*
X003939Y003715D02*
X004012D01*
X004022Y004393D02*
Y004576D01*
X004703Y004577D02*
X004917D01*
Y004019D02*
X004921Y004015D01*
X004917Y004019D02*
Y004577D01*
X004519Y004132D02*
Y004270D01*
X004519Y004270D02*
X004519Y004270D01*
X004536Y004115D02*
X004625D01*
X005107Y004577D02*
X005283D01*
X005473Y004391D02*
Y004577D01*
Y004391D02*
X005473Y004391D01*
X005473Y004577D02*
X005473Y004577D01*
X003669Y003833D02*
X003669Y003834D01*
Y004015D01*
X004878Y002385D02*
X004894Y002369D01*
X004223Y002385D02*
X004239Y002368D01*
X004129Y002680D02*
X004134Y002685D01*
X004129Y002680D02*
X004129Y002680D01*
X005087Y002482D02*
X005089Y002485D01*
X005085Y002485D02*
X005089Y002480D01*
X005087Y002482D02*
X005089Y002480D01*
X004820Y002485D02*
X005085D01*
X003652Y002108D02*
X003652Y002108D01*
X005090Y001922D02*
Y002108D01*
X004928D02*
Y002257D01*
Y002108D02*
X005090D01*
X004894Y002292D02*
X004928Y002257D01*
X004820Y002385D02*
X004878D01*
X004894Y002292D02*
Y002369D01*
X004737Y002107D02*
X004737Y002107D01*
X003485Y002108D02*
X003652D01*
X003473Y002121D02*
X003485Y002108D01*
X005089Y002294D02*
Y002480D01*
X005279Y002109D02*
Y002294D01*
X005279Y002294D02*
X005279Y002294D01*
Y002109D02*
X005279Y002109D01*
X003961Y002485D02*
X003962Y002485D01*
X003959Y002485D02*
X003961D01*
X003962Y002485D02*
X004134D01*
X003652Y002476D02*
X003660Y002485D01*
X003644Y002485D02*
X003652Y002476D01*
X003652Y002476D02*
X003652Y002476D01*
X003652Y002108D02*
Y002476D01*
X003536Y002485D02*
X003644D01*
X003536Y002485D02*
X003536Y002485D01*
X003665Y002680D02*
X004129D01*
X003660Y002675D02*
X003665Y002680D01*
X004730Y002801D02*
Y002910D01*
X004746Y002785D02*
X004820D01*
X004730Y002801D02*
X004746Y002785D01*
X004737Y001923D02*
Y002107D01*
X004735Y001922D02*
X004737Y001923D01*
X004245Y001922D02*
X004735D01*
X003841D02*
X004055D01*
X003837Y002485D02*
X003841Y002481D01*
Y001922D02*
Y002481D01*
X004239Y002230D02*
X004240Y002230D01*
X004239Y002230D02*
Y002368D01*
X004134Y002385D02*
X004223D01*
X003476Y001922D02*
X003651D01*
X003286Y001922D02*
Y002108D01*
X003286Y002108D02*
X003286Y002108D01*
X003286Y001922D02*
X003286Y001922D01*
X005089Y002666D02*
X005090Y002666D01*
X005089Y002485D02*
Y002666D01*
X003842Y000803D02*
Y001361D01*
Y000803D02*
X004056D01*
X003838Y001365D02*
X003842Y001361D01*
X003477Y000803D02*
X003652D01*
X003962Y001365D02*
X004134D01*
X003962Y001366D02*
X003962Y001365D01*
X003960Y001366D02*
X003962D01*
X004820Y001265D02*
X004878D01*
X004894Y001250D01*
Y001172D02*
Y001250D01*
Y001172D02*
X004928Y001138D01*
Y000989D02*
Y001138D01*
X004747Y001665D02*
X004820D01*
X004730Y001682D02*
X004747Y001665D01*
X004730Y001682D02*
Y001790D01*
X000327Y004358D02*
X000327Y004358D01*
Y004707D02*
X000327Y004707D01*
X000517Y004358D02*
X000692D01*
X000882D02*
X000882Y004358D01*
X000882Y004358D02*
X001096D01*
X000882Y004358D02*
Y004729D01*
X000882Y004730D01*
X001776Y004358D02*
X001777Y004359D01*
Y004542D01*
X001839Y005237D02*
X001856Y005220D01*
X001839Y005237D02*
Y005279D01*
X001756Y005362D02*
X001839Y005279D01*
X000701Y005110D02*
X000706Y005115D01*
X001169D01*
X000528Y004920D02*
X000701D01*
X000692Y004544D02*
Y004912D01*
X000701Y004920D01*
X001000Y004920D02*
X001001Y004920D01*
X001000Y004920D02*
X001001Y004920D01*
X001174D02*
X001174Y004920D01*
X001001Y004920D02*
X001174D01*
X002320Y004544D02*
X002320Y004544D01*
X002319Y004730D02*
X002320Y004729D01*
Y004544D02*
Y004729D01*
X002129Y004730D02*
Y004916D01*
X001856Y005220D02*
X001949D01*
X001966Y005237D01*
X001169Y005115D02*
X001169Y005115D01*
X001860Y004920D02*
X002125D01*
X002129Y004916D01*
X001934Y004727D02*
X001968Y004693D01*
X001860Y004820D02*
X001918D01*
X001934Y004805D01*
Y004727D02*
Y004805D01*
X001968Y004544D02*
Y004693D01*
X000516Y004544D02*
X000680D01*
X000686Y004550D01*
X000878Y004920D02*
X000882Y004915D01*
Y004730D02*
Y004915D01*
X001968Y004544D02*
X002130D01*
X001770Y004550D02*
X001777Y004542D01*
X001777Y004542D02*
X001778Y004544D01*
X002128Y004918D02*
X002130Y004916D01*
X002128Y004918D02*
X002130Y004920D01*
Y005101D01*
X002130Y005102D01*
Y004358D02*
Y004544D01*
X000692D02*
Y004544D01*
X000692Y004544D01*
X000686Y004550D02*
X000692Y004544D01*
X000692Y004544D02*
X000692Y004544D01*
X002319Y004916D02*
X002422D01*
X002320Y004358D02*
X002422D01*
X002440Y004375D01*
X002422Y004916D02*
X002440Y004898D01*
Y004375D02*
Y004898D01*
X005280Y000803D02*
X005382D01*
X005280Y001361D02*
X005382D01*
X005400Y001343D01*
Y000820D02*
Y001343D01*
X005382Y000803D02*
X005400Y000820D01*
X004928Y000989D02*
X005090D01*
Y000803D02*
Y000989D01*
X008476Y002302D02*
X008476Y002302D01*
Y002116D02*
Y002302D01*
X008111Y002302D02*
X008286D01*
X007530Y001857D02*
Y002000D01*
X007547Y001840D02*
X007629D01*
X007921Y002116D02*
Y002302D01*
X007921Y002302D02*
X007921Y002302D01*
X007921Y002302D02*
X007921Y002302D01*
X007025Y002116D02*
X007026Y002118D01*
Y002301D01*
X007691Y002298D02*
X007695Y002294D01*
X006837Y002302D02*
Y002327D01*
X006862Y002352D01*
X006483Y001931D02*
X006483Y001930D01*
X006483Y002116D02*
X006483Y002116D01*
Y001931D02*
Y002116D01*
X006673Y001744D02*
Y001930D01*
X006673Y001930D01*
X006835Y002091D02*
X006943Y001983D01*
Y001840D02*
Y001983D01*
X006941Y001742D02*
X006943Y001740D01*
X006675Y001742D02*
X006941D01*
X007530Y001857D02*
X007547Y001840D01*
X008102Y001740D02*
X008275D01*
X007629Y001540D02*
X007634Y001545D01*
X008097D01*
X008102Y001550D01*
X008476Y001953D02*
X008476Y001954D01*
X008476Y002116D02*
X008476Y002116D01*
Y001954D02*
Y002116D01*
X008110Y002116D02*
X008110Y002116D01*
X008283Y002110D02*
X008290Y002104D01*
X008117Y002110D02*
X008283D01*
X007921Y001744D02*
X007925Y001740D01*
X007921Y001744D02*
Y002116D01*
X007695Y002104D02*
X007701Y002110D01*
X007914D01*
X007920Y002116D01*
X006673D02*
X006835D01*
Y002091D02*
Y002116D01*
X006673Y001559D02*
Y001744D01*
X006673Y001558D02*
X006673Y001559D01*
X008110Y001748D02*
Y002116D01*
X008102Y001740D02*
X008110Y001748D01*
X008110Y002116D02*
X008110Y002116D01*
X006673D02*
X006673Y002116D01*
Y002302D01*
X006673Y002302D01*
X008110Y002116D02*
X008117Y002110D01*
X007920Y002116D02*
X007921Y002116D01*
X007923Y002114D01*
X007920Y002116D02*
X007921Y002117D01*
X006350Y002300D02*
X006480D01*
X006350Y001750D02*
X006478D01*
X006480Y002300D02*
X006483Y002302D01*
X006673Y001744D02*
X006675Y001742D01*
X008286Y002302D02*
Y002423D01*
D34*
X007802Y001740D02*
X007802Y001740D01*
X007629Y001740D02*
X007802D01*
X005280Y001732D02*
X005280Y001732D01*
Y001547D02*
Y001732D01*
Y001547D02*
X005280Y001547D01*
X000974Y003819D02*
X001030Y003763D01*
Y003290D02*
Y003763D01*
X001514Y005170D02*
X001564Y005120D01*
X001464Y005220D02*
X001514Y005170D01*
X004278Y004878D02*
X004329Y004828D01*
X004229Y004928D02*
X004278Y004878D01*
X004285Y003765D02*
X004335Y003715D01*
X004235Y003815D02*
X004285Y003765D01*
X007289Y001490D02*
X007339Y001440D01*
X007239Y001540D02*
X007289Y001490D01*
X004468Y002740D02*
X004523Y002685D01*
X004423Y002785D02*
X004468Y002740D01*
Y002743D01*
X004424Y001665D02*
X004474Y001615D01*
X004524Y001565D01*
X001432Y003290D02*
Y003400D01*
X001432Y003401D02*
X001432Y003400D01*
X001432Y003290D02*
X001432Y003290D01*
X001231Y003290D02*
X001432D01*
X001231Y003290D02*
X001231Y003290D01*
X005500Y002425D02*
Y002575D01*
X005400Y002675D02*
X005500Y002575D01*
X004134Y001665D02*
X004424D01*
X004524Y001565D02*
X004820D01*
X004523Y002685D02*
X004820D01*
X004134Y002785D02*
X004423D01*
X004329Y004828D02*
X004625D01*
X003939Y004928D02*
X004229D01*
X004335Y003715D02*
X004625D01*
X003939Y003815D02*
X004235D01*
X003465Y003648D02*
X003479D01*
X003465Y003647D02*
X003465Y003648D01*
X003353Y003647D02*
X003465D01*
X003303Y003697D02*
X003353Y003647D01*
X003300Y003750D02*
X003303Y003747D01*
Y003697D02*
Y003747D01*
X005288Y002675D02*
X005400D01*
X005280Y002666D02*
X005288Y002675D01*
X005279Y002666D02*
X005279Y002666D01*
X006483Y000841D02*
Y001373D01*
X002320Y005102D02*
X002320Y005102D01*
X002320Y005102D02*
Y005287D01*
X002319Y005288D02*
X002320Y005287D01*
X003479Y004761D02*
Y004946D01*
Y004761D02*
X003480Y004761D01*
X003479Y003648D02*
Y003833D01*
X003479Y003833D02*
X003479Y003833D01*
X005279Y002666D02*
Y002852D01*
X005279Y002852D02*
X005279Y002852D01*
X001564Y005120D02*
X001860D01*
X001174Y005220D02*
X001464D01*
X006943Y001540D02*
X007239D01*
X007339Y001440D02*
X007629D01*
Y001740D02*
X007629Y001740D01*
X006483Y001558D02*
X006483Y001558D01*
Y001373D02*
X006483Y001373D01*
X006483Y001373D02*
Y001558D01*
D35*
X005700Y001852D02*
X006104D01*
X005700Y001157D02*
X006104D01*
X002689Y004638D02*
X003093D01*
X002689Y005335D02*
X003093D01*
X003341Y004965D02*
Y005087D01*
X003093Y005335D02*
X003341Y005087D01*
X003479Y004946D02*
Y004962D01*
X003477Y004965D02*
X003479Y004962D01*
X003341Y004965D02*
X003477D01*
X005280Y001547D02*
X005281Y001545D01*
X005425D01*
X006483Y000841D02*
X006483Y000842D01*
X006104Y000462D02*
X006483Y000841D01*
X006483Y000842D02*
Y001373D01*
X002319Y005288D02*
Y005661D01*
X002689Y006031D01*
X005700Y000462D02*
X006104D01*
X002689Y006031D02*
X003093D01*
D36*
X006478Y001750D02*
X006483Y001744D01*
D37*
X005480Y004820D02*
D03*
Y005010D02*
D03*
X003280Y001670D02*
D03*
Y001480D02*
D03*
D38*
X002446Y003250D02*
D03*
X002573Y003377D02*
D03*
D39*
X002700Y003250D02*
D03*
D40*
X000347Y002345D02*
D03*
X000547D02*
D03*
X000347Y002745D02*
D03*
X000547Y002545D02*
D03*
X000347D02*
D03*
X000547Y002745D02*
D03*
X000347Y003145D02*
D03*
X000547Y002945D02*
D03*
X000347D02*
D03*
X000547Y003145D02*
D03*
Y004145D02*
D03*
X000347Y003945D02*
D03*
X000547D02*
D03*
Y003745D02*
D03*
Y003545D02*
D03*
X000347Y003345D02*
D03*
X000547D02*
D03*
X000347Y003745D02*
D03*
Y003545D02*
D03*
D41*
Y004145D02*
D03*
D42*
X006403Y003254D02*
D03*
X005413D02*
D03*
X008410Y003508D02*
D03*
D43*
X005654D02*
D03*
Y003000D02*
D03*
D44*
X008410D02*
D03*
D45*
X004810Y005130D02*
D03*
X007802Y001740D02*
D03*
X006942Y001249D02*
D03*
X003520Y001360D02*
D03*
X004050Y003553D02*
D03*
X004264Y003647D02*
D03*
X001526Y004359D02*
D03*
X005472Y005341D02*
D03*
X005223Y005128D02*
D03*
X004239Y004703D02*
D03*
X004029D02*
D03*
X004519Y005383D02*
D03*
X004379D02*
D03*
X004800Y004014D02*
D03*
X005223Y004015D02*
D03*
X004519Y004270D02*
D03*
X004379D02*
D03*
X003959Y002485D02*
D03*
X003536Y002485D02*
D03*
X004520Y002910D02*
D03*
X004730D02*
D03*
X004240Y002230D02*
D03*
X004380D02*
D03*
X003960Y001366D02*
D03*
X004730Y001790D02*
D03*
X004520D02*
D03*
X004380Y001110D02*
D03*
X004240D02*
D03*
X000327Y004707D02*
D03*
X001756Y005362D02*
D03*
X001531Y005365D02*
D03*
X000528Y004920D02*
D03*
X001000D02*
D03*
X001453Y004660D02*
D03*
X001273D02*
D03*
X008275Y001740D02*
D03*
X007132Y001249D02*
D03*
X006350Y002300D02*
D03*
Y001750D02*
D03*
X008286Y002423D02*
D03*
X008476Y001953D02*
D03*
X007530Y002000D02*
D03*
X007350D02*
D03*
D46*
X001834Y002975D02*
D03*
X000974Y003819D02*
D03*
X001144Y003868D02*
D03*
X001514Y005170D02*
D03*
X004278Y004878D02*
D03*
X004285Y003765D02*
D03*
X007289Y001490D02*
D03*
X004468Y002743D02*
D03*
X004474Y001615D02*
D03*
X003375Y002425D02*
D03*
X005325Y004225D02*
D03*
X001431Y002975D02*
D03*
X001432Y003401D02*
D03*
X002075Y003400D02*
D03*
X003075D02*
D03*
X003150Y003275D02*
D03*
X005500Y002425D02*
D03*
X000225Y004350D02*
D03*
X004269Y005695D02*
D03*
X004246Y004582D02*
D03*
X003300Y003750D02*
D03*
X005473Y004225D02*
D03*
X004569Y002113D02*
D03*
X003286Y002300D02*
D03*
X004491Y000803D02*
D03*
X003287Y001125D02*
D03*
X007225Y002300D02*
D03*
X005425Y001545D02*
D03*
D47*
X005700Y001852D02*
D03*
Y001157D02*
D03*
Y000462D02*
D03*
Y000810D02*
D03*
Y001505D02*
D03*
X003093Y004987D02*
D03*
Y004638D02*
D03*
Y004290D02*
D03*
Y005335D02*
D03*
Y005683D02*
D03*
X006104Y000462D02*
D03*
Y000810D02*
D03*
Y001157D02*
D03*
Y001505D02*
D03*
Y001852D02*
D03*
Y002200D02*
D03*
X002689Y005683D02*
D03*
Y005335D02*
D03*
Y004987D02*
D03*
X003093Y006031D02*
D03*
X002689Y004290D02*
D03*
Y004638D02*
D03*
Y006031D02*
D03*
X005700Y002200D02*
D03*
D48*
X000397Y001845D02*
D03*
X003347Y000395D02*
D03*
X001800Y006095D02*
D03*
X008397Y004645D02*
D03*
X006993Y000395D02*
D03*
X005447Y006095D02*
D03*
X004397Y003245D02*
D03*
M02*
