M48
;Layer_Color=9474304
;FILE_FORMAT=4:2
METRIC
;TYPE=PLATED
T1F00S00C0.20
T2F00S00C0.30
T3F00S00C0.40
T4F00S00C0.51
T5F00S00C0.80
T6F00S00C0.86
T7F00S00C0.95
T8F00S00C1.00
T9F00S00C2.60
;TYPE=NON_PLATED
%
T01
X003406Y000822
X003700Y000820
X003890
X003222Y001300
Y001586
X003500Y001790
X003410Y001880
X003222Y002190
Y002724
X003000Y002740
X002960Y002790
X002930Y002845
X003643Y002835
X003592Y002723
X003540Y003630
X003550Y003747
X003928Y003746
X002400Y003800
X002258Y003746
X001880Y003747
X001809Y003630
X001010Y003610
X004070Y003800
X005220Y003747
X005212Y003630
X005598Y003746
X005370Y002828
X005270Y002723
X004892Y002724
X004751Y002721
X004452Y002400
X004310
X004892Y002190
X004981Y001831
X005080Y001880
X005170Y001790
X004892Y001480
Y001300
X004549Y001521
Y001763
X004183Y001440
X004183Y001205
X004182Y000983
X004384
X005076Y000822
X005270Y001030
X005560Y000822
X005852Y000983
X006054
X005853Y001205
X005853Y001440
X006219Y001521
Y001763
X006562Y001480
Y001300
X006746Y000822
X007040Y000820
X007229
X007380Y000870
X007522Y000983
X007724
X007523Y001205
X007523Y001440
X007889Y001521
Y001763
X007792Y002400
X007650
X006940Y002550
X006940Y002723
X006530Y002590
X006410Y002570
X006414Y002476
X006122Y002400
X005980
X006562Y002190
X006750Y001880
X006840Y001790
X008147Y002725
X005598Y004280
X005410Y004590
X005320Y004680
X005598Y004990
Y005170
X005414Y005648
X005120Y005650
X004930
X005020Y005770
X004638Y005493
X004436
X004637Y005271
X004637Y005036
X004271Y004955
Y004713
X004368Y004070
X004510
X004090Y005648
X003744
X003654Y005650
X003260Y005650
X002968Y005493
X002766
X002967Y005271
X002967Y005036
X002601Y004955
Y004713
X002169Y004674
X002070Y004590
X001980Y004680
X002258Y004990
Y005170
X002074Y005648
X001780Y005650
X001590
X001410
X001298Y005493
X001096
X001297Y005271
X001297Y005036
X000931Y004955
Y004713
X001028Y004070
X001170
X002258Y004280
X002619Y004162
X002698Y004070
X002840
X003928Y004280
X003900Y004680
X003740Y004590
X003650Y004680
X003928Y004990
Y005170
T02
X000810Y003270
X001900Y002660
T03
X001443Y002094
X001449Y002664
X001100Y003150
X002380Y003410
X002070Y001960
X003020Y002190
X004120Y003450
X004860Y003080
T04
X001115Y001733
X001306
X001574
X001765
T05
X006158Y000340
Y000560
Y000780
X006458
Y000560
Y000340
X002635Y005711
Y005931
Y006151
X002335
Y005931
Y005711
T06
X000347Y002347
Y002547
X000547
Y002347
Y002747
Y002947
X000347
Y002747
Y003147
Y003347
Y003547
Y003747
Y003947
X000547
Y003747
Y003547
Y003347
Y003147
Y004147
X000347
Y004347
Y004547
X000547
Y004347
Y004747
X000347
T07
X005230Y003236
Y003490
X005520
Y003236
T08
X003980Y000450
X004070Y000770
X005370Y000710
Y000410
X005771Y000560
X004721Y005712
X004811Y006032
X003424Y006081
Y005781
X003023Y005931
T09
X000395Y001845
X003345Y000395
X006991
X004395Y003245
X008395Y002545
X005445Y006095
X001799
M30
