G04*
G04 #@! TF.GenerationSoftware,Altium Limited,Altium Designer,23.9.2 (47)*
G04*
G04 Layer_Physical_Order=1*
G04 Layer_Color=255*
%FSAX42Y42*%
%MOMM*%
G71*
G04*
G04 #@! TF.SameCoordinates,0275EF52-C3CF-4463-BECB-0B3C2057F634*
G04*
G04*
G04 #@! TF.FilePolarity,Positive*
G04*
G01*
G75*
%ADD14C,0.20*%
%ADD15C,0.50*%
%ADD37R,0.80X1.30*%
%ADD38R,1.80X0.70*%
%ADD39O,1.80X0.70*%
%ADD40R,0.60X1.20*%
%ADD41O,0.64X1.20*%
%ADD42R,1.30X0.80*%
%ADD43R,1.00X1.70*%
%ADD44R,2.00X2.80*%
%ADD45R,1.78X0.81*%
%ADD46O,1.78X0.81*%
%ADD47C,0.30*%
G04:AMPARAMS|DCode=48|XSize=5mm|YSize=3mm|CornerRadius=0.08mm|HoleSize=0mm|Usage=FLASHONLY|Rotation=0.000|XOffset=0mm|YOffset=0mm|HoleType=Round|Shape=RoundedRectangle|*
%AMROUNDEDRECTD48*
21,1,5.00,2.85,0,0,0.0*
21,1,4.85,3.00,0,0,0.0*
1,1,0.15,2.42,-1.43*
1,1,0.15,-2.42,-1.43*
1,1,0.15,-2.42,1.43*
1,1,0.15,2.42,1.43*
%
%ADD48ROUNDEDRECTD48*%
%ADD49C,2.00*%
%ADD50C,1.37*%
%ADD51R,1.37X1.37*%
%ADD52C,1.02*%
G04:AMPARAMS|DCode=53|XSize=2.8mm|YSize=2.8mm|CornerRadius=0.7mm|HoleSize=0mm|Usage=FLASHONLY|Rotation=180.000|XOffset=0mm|YOffset=0mm|HoleType=Round|Shape=RoundedRectangle|*
%AMROUNDEDRECTD53*
21,1,2.80,1.40,0,0,180.0*
21,1,1.40,2.80,0,0,180.0*
1,1,1.40,-0.70,0.70*
1,1,1.40,0.70,0.70*
1,1,1.40,0.70,-0.70*
1,1,1.40,-0.70,-0.70*
%
%ADD53ROUNDEDRECTD53*%
%ADD54O,2.00X1.60*%
%ADD55R,1.60X1.40*%
%ADD56O,1.60X1.40*%
%ADD57C,0.80*%
%ADD58C,4.00*%
G36*
X005437Y006352D02*
X005480Y006351D01*
X005503Y006345D01*
X005529Y006340D01*
X005533Y006339D01*
X005566Y006331D01*
X005655Y006265D01*
X005711Y006168D01*
X005719Y006018D01*
X005717Y005255D01*
X005718Y003094D01*
X005742Y002985D01*
X005793Y002918D01*
X005881Y002859D01*
X005875Y002839D01*
X005766D01*
X005720Y002888D01*
X005719Y002894D01*
X005711Y002905D01*
X005656Y002960D01*
X005644Y002968D01*
X005631Y002971D01*
X005080D01*
Y003175D01*
X005092Y003190D01*
X005130D01*
Y003146D01*
X005330D01*
Y003190D01*
X005420D01*
Y003146D01*
X005620D01*
Y003326D01*
X005420D01*
Y003282D01*
X005330D01*
Y003326D01*
X005130D01*
Y003282D01*
X005080D01*
Y003367D01*
X005080Y003387D01*
X005080D01*
Y003387D01*
X005080D01*
Y003597D01*
X005074D01*
X005066Y003617D01*
X005110Y003662D01*
X005139D01*
X005153Y003642D01*
X005150Y003630D01*
X005155Y003606D01*
X005168Y003587D01*
X005169Y003585D01*
X005167Y003563D01*
X005156Y003554D01*
X005141Y003535D01*
X005132Y003513D01*
X005129Y003490D01*
X005132Y003467D01*
X005141Y003445D01*
X005156Y003426D01*
X005175Y003411D01*
X005197Y003402D01*
X005220Y003399D01*
X005240D01*
X005263Y003402D01*
X005285Y003411D01*
X005304Y003426D01*
X005318Y003444D01*
X005432D01*
X005446Y003426D01*
X005465Y003411D01*
X005487Y003402D01*
X005510Y003399D01*
X005530D01*
X005553Y003402D01*
X005575Y003411D01*
X005594Y003426D01*
X005609Y003445D01*
X005618Y003467D01*
X005621Y003490D01*
X005618Y003513D01*
X005609Y003535D01*
X005594Y003554D01*
X005575Y003569D01*
X005553Y003578D01*
X005530Y003581D01*
X005510D01*
X005487Y003578D01*
X005465Y003569D01*
X005464Y003568D01*
X005458Y003571D01*
X005447Y003581D01*
X005451Y003600D01*
X005447Y003623D01*
X005433Y003643D01*
X005416Y003655D01*
Y003661D01*
X005413Y003675D01*
X005406Y003687D01*
X005380Y003712D01*
Y003832D01*
X005380D01*
X005381Y003840D01*
X005381D01*
X005381Y003852D01*
Y004010D01*
X005381D01*
Y004018D01*
X005381D01*
Y004177D01*
X005381Y004188D01*
X005381Y004208D01*
Y004355D01*
X005381Y004367D01*
X005381D01*
X005380Y004375D01*
X005380D01*
Y004495D01*
X005415Y004530D01*
X005430Y004533D01*
X005450Y004522D01*
Y004480D01*
X005490D01*
Y004545D01*
X005476D01*
X005465Y004565D01*
X005467Y004567D01*
X005471Y004590D01*
X005467Y004613D01*
X005453Y004633D01*
X005433Y004647D01*
X005410Y004651D01*
X005394Y004648D01*
X005392Y004649D01*
X005379Y004662D01*
X005378Y004664D01*
X005381Y004680D01*
X005377Y004703D01*
X005371Y004712D01*
X005381Y004732D01*
X005381D01*
Y004890D01*
X005381Y004902D01*
X005381D01*
X005380Y004910D01*
X005380D01*
Y005068D01*
X005380Y005080D01*
X005380D01*
Y005088D01*
X005380D01*
Y005258D01*
X005380D01*
X005381Y005267D01*
X005381D01*
X005381Y005278D01*
Y005425D01*
X005381Y005437D01*
X005381D01*
X005380Y005445D01*
X005380D01*
Y005615D01*
X005367D01*
X005361Y005635D01*
X005364Y005637D01*
X005377Y005657D01*
X005382Y005680D01*
X005377Y005703D01*
X005364Y005723D01*
X005344Y005737D01*
X005321Y005741D01*
X005297Y005737D01*
X005277Y005723D01*
X005264Y005703D01*
X005259Y005680D01*
X005264Y005657D01*
X005277Y005637D01*
X005280Y005635D01*
X005275Y005615D01*
X005260D01*
Y005456D01*
X005260Y005445D01*
X005260D01*
X005261Y005437D01*
X005261D01*
Y005387D01*
X005180D01*
Y005425D01*
X005181Y005445D01*
X005181Y005456D01*
Y005510D01*
X005121D01*
X005061D01*
Y005456D01*
X005060Y005437D01*
X005060Y005425D01*
Y005297D01*
X005042Y005289D01*
X005004Y005327D01*
X004993Y005335D01*
X004990Y005335D01*
Y005437D01*
X004990D01*
X004991Y005445D01*
X004991D01*
X004991Y005456D01*
Y005615D01*
X004975D01*
X004970Y005635D01*
X004973Y005637D01*
X004987Y005657D01*
X004991Y005680D01*
X004987Y005703D01*
X004973Y005723D01*
X004953Y005737D01*
X004930Y005741D01*
X004907Y005737D01*
X004887Y005723D01*
X004873Y005703D01*
X004869Y005680D01*
X004873Y005657D01*
X004887Y005637D01*
X004890Y005635D01*
X004884Y005615D01*
X004871D01*
Y005606D01*
X004811D01*
X004805Y005626D01*
X004806Y005627D01*
X004825Y005652D01*
X004837Y005681D01*
X004842Y005712D01*
X004837Y005744D01*
X004825Y005773D01*
X004806Y005798D01*
X004781Y005817D01*
X004752Y005829D01*
X004721Y005833D01*
X004689Y005829D01*
X004660Y005817D01*
X004635Y005798D01*
X004616Y005773D01*
X004604Y005744D01*
X004599Y005712D01*
X004604Y005681D01*
X004616Y005652D01*
X004635Y005627D01*
X004636Y005626D01*
X004630Y005606D01*
X004380D01*
X004366Y005603D01*
X004355Y005595D01*
X004270Y005510D01*
X004262Y005499D01*
X004259Y005485D01*
Y005456D01*
X004258Y005437D01*
X004239Y005437D01*
X004217D01*
Y005352D01*
X004197D01*
Y005332D01*
X004138D01*
Y005278D01*
X004137Y005258D01*
X004137Y005247D01*
Y005193D01*
X004197D01*
Y005173D01*
X004217D01*
Y005088D01*
X004257Y005088D01*
X004259Y005069D01*
Y005058D01*
X004262Y005044D01*
X004270Y005033D01*
X004385Y004918D01*
Y004865D01*
X004387Y004855D01*
X004373Y004835D01*
X004345D01*
X004329Y004855D01*
X004331Y004864D01*
X004326Y004887D01*
X004313Y004907D01*
X004293Y004920D01*
X004270Y004925D01*
X004246Y004920D01*
X004228Y004908D01*
X004218Y004903D01*
X004206D01*
X004188Y004916D01*
X004187Y004916D01*
X004189Y004936D01*
X004222D01*
Y005046D01*
X004002D01*
Y005046D01*
X003982Y005039D01*
X003970Y005047D01*
X003946Y005051D01*
X003923Y005047D01*
X003920Y005044D01*
X003900Y005055D01*
X003900Y005080D01*
X003900Y005105D01*
X003920Y005116D01*
X003923Y005113D01*
X003946Y005109D01*
X003970Y005113D01*
X003990Y005127D01*
X004003Y005147D01*
X004008Y005170D01*
X004003Y005193D01*
X003990Y005213D01*
X003970Y005227D01*
X003946Y005231D01*
X003923Y005227D01*
X003920Y005224D01*
X003900Y005235D01*
Y005247D01*
X003901Y005267D01*
X003901Y005278D01*
Y005332D01*
X003841D01*
X003781D01*
Y005278D01*
X003780Y005258D01*
X003780Y005247D01*
Y005100D01*
X003780Y005088D01*
X003780Y005068D01*
Y004921D01*
X003780Y004910D01*
X003781Y004890D01*
Y004837D01*
X003840D01*
X003901D01*
Y004890D01*
X003901Y004902D01*
X003900Y004921D01*
Y004925D01*
X003920Y004936D01*
X003923Y004933D01*
X003946Y004929D01*
X003970Y004933D01*
X003982Y004941D01*
X004002Y004936D01*
Y004936D01*
X004034D01*
X004036Y004916D01*
X004035Y004916D01*
X004017Y004903D01*
X004005Y004885D01*
X004001Y004864D01*
X004005Y004842D01*
X004017Y004824D01*
X004035Y004812D01*
X004043Y004810D01*
Y004790D01*
X004035Y004789D01*
X004017Y004776D01*
X004005Y004758D01*
X004001Y004737D01*
X004005Y004715D01*
X004005Y004715D01*
X003990Y004703D01*
X003970Y004717D01*
X003966Y004717D01*
Y004660D01*
Y004603D01*
X003970Y004603D01*
X003982Y004611D01*
X003983Y004611D01*
X004002Y004602D01*
X004005Y004588D01*
X004017Y004570D01*
X004035Y004558D01*
X004043Y004556D01*
Y004536D01*
X004035Y004535D01*
X004017Y004522D01*
X004005Y004504D01*
X004001Y004483D01*
X004005Y004461D01*
X004017Y004443D01*
X004035Y004431D01*
X004043Y004429D01*
Y004409D01*
X004035Y004408D01*
X004017Y004395D01*
X004005Y004377D01*
X004001Y004356D01*
X004005Y004334D01*
X003990Y004323D01*
X003970Y004337D01*
X003946Y004341D01*
X003923Y004337D01*
X003921Y004335D01*
X003901Y004345D01*
X003901Y004367D01*
X003900Y004386D01*
Y004440D01*
X003780D01*
Y004386D01*
X003780Y004375D01*
X003781Y004355D01*
Y004208D01*
X003781Y004197D01*
X003781Y004177D01*
Y004123D01*
X003840D01*
X003901D01*
Y004177D01*
X003901Y004188D01*
X003901Y004215D01*
X003921Y004225D01*
X003923Y004223D01*
X003946Y004219D01*
X003970Y004223D01*
X003981Y004231D01*
X003985Y004231D01*
X004002Y004222D01*
X004005Y004207D01*
X004017Y004189D01*
X004035Y004177D01*
X004043Y004175D01*
Y004155D01*
X004035Y004154D01*
X004017Y004141D01*
X004005Y004123D01*
X004001Y004102D01*
X004005Y004080D01*
X004017Y004062D01*
X004035Y004050D01*
X004057Y004046D01*
X004167D01*
X004188Y004050D01*
X004206Y004062D01*
X004219Y004080D01*
X004223Y004102D01*
X004219Y004123D01*
X004206Y004141D01*
X004188Y004154D01*
X004181Y004155D01*
Y004175D01*
X004188Y004177D01*
X004206Y004189D01*
X004219Y004207D01*
X004223Y004229D01*
X004219Y004250D01*
X004206Y004268D01*
X004188Y004281D01*
X004181Y004282D01*
Y004302D01*
X004188Y004304D01*
X004206Y004316D01*
X004219Y004334D01*
X004223Y004356D01*
X004219Y004377D01*
X004206Y004395D01*
X004188Y004408D01*
X004181Y004409D01*
Y004429D01*
X004188Y004431D01*
X004206Y004443D01*
X004219Y004461D01*
X004223Y004483D01*
X004219Y004504D01*
X004206Y004522D01*
X004188Y004535D01*
X004181Y004536D01*
Y004556D01*
X004188Y004558D01*
X004206Y004570D01*
X004219Y004588D01*
X004223Y004610D01*
X004219Y004631D01*
X004206Y004649D01*
X004188Y004662D01*
X004181Y004663D01*
Y004683D01*
X004188Y004685D01*
X004206Y004697D01*
X004219Y004715D01*
X004223Y004737D01*
X004219Y004758D01*
X004206Y004776D01*
X004188Y004789D01*
X004181Y004790D01*
Y004810D01*
X004188Y004812D01*
X004206Y004824D01*
X004218D01*
X004228Y004820D01*
X004246Y004807D01*
X004270Y004803D01*
X004279Y004804D01*
X004299Y004789D01*
Y004274D01*
X004299Y004272D01*
Y004254D01*
X004317D01*
X004319Y004254D01*
X004373D01*
X004387Y004234D01*
X004385Y004224D01*
Y004167D01*
X004385Y004165D01*
X004341Y004121D01*
X004340Y004121D01*
X004317Y004117D01*
X004297Y004103D01*
X004283Y004083D01*
X004279Y004060D01*
X004283Y004037D01*
X004297Y004017D01*
X004307Y004010D01*
Y003840D01*
X004307D01*
X004307Y003832D01*
X004307D01*
X004307Y003820D01*
Y003666D01*
X004237D01*
Y003727D01*
X004177D01*
Y003767D01*
X004237D01*
Y003820D01*
X004237Y003840D01*
X004237Y003840D01*
X004237D01*
Y003905D01*
X004177D01*
Y003925D01*
X004157D01*
Y004010D01*
X004117D01*
Y003991D01*
X004097Y003982D01*
X004097Y003982D01*
Y003925D01*
X004077D01*
Y003905D01*
X004020D01*
X004021Y003902D01*
X004034Y003882D01*
X004038Y003879D01*
Y003855D01*
X004034Y003853D01*
X004021Y003833D01*
X004016Y003809D01*
X004021Y003786D01*
X004034Y003766D01*
X004054Y003753D01*
X004077Y003748D01*
X004097Y003752D01*
X004117Y003742D01*
Y003666D01*
X003913D01*
X003910Y003675D01*
X003915Y003681D01*
X003927Y003689D01*
X003946Y003686D01*
X003970Y003690D01*
X003990Y003704D01*
X004003Y003723D01*
X004008Y003747D01*
X004003Y003770D01*
X003990Y003790D01*
X003970Y003803D01*
X003946Y003808D01*
X003923Y003803D01*
X003920Y003801D01*
X003900Y003812D01*
Y003820D01*
X003901Y003840D01*
X003901Y003852D01*
Y003905D01*
X003840D01*
X003781D01*
Y003852D01*
X003780Y003832D01*
X003780Y003820D01*
Y003662D01*
X003833D01*
X003841Y003642D01*
X003745Y003546D01*
X003693D01*
X003687Y003566D01*
X003688Y003567D01*
X003702Y003587D01*
X003706Y003610D01*
X003702Y003633D01*
X003696Y003642D01*
X003707Y003662D01*
X003710D01*
Y003832D01*
X003710D01*
X003711Y003840D01*
X003711D01*
X003710Y003852D01*
Y004010D01*
X003711D01*
Y004018D01*
X003710D01*
Y004177D01*
X003711Y004188D01*
X003710Y004208D01*
Y004355D01*
X003711Y004367D01*
X003711D01*
X003710Y004375D01*
X003710D01*
Y004495D01*
X003745Y004530D01*
X003760Y004533D01*
X003780Y004522D01*
Y004480D01*
X003820D01*
Y004545D01*
X003806D01*
X003795Y004565D01*
X003797Y004567D01*
X003801Y004590D01*
X003797Y004613D01*
X003783Y004633D01*
X003763Y004647D01*
X003740Y004651D01*
X003724Y004648D01*
X003722Y004649D01*
X003709Y004662D01*
X003708Y004664D01*
X003711Y004680D01*
X003707Y004703D01*
X003701Y004712D01*
X003711Y004732D01*
X003710D01*
Y004890D01*
X003711Y004902D01*
X003711D01*
X003710Y004910D01*
X003710D01*
Y005068D01*
X003710Y005080D01*
X003710D01*
Y005088D01*
X003710D01*
Y005258D01*
X003710D01*
X003711Y005267D01*
X003711D01*
X003711Y005278D01*
Y005425D01*
X003711Y005437D01*
X003711D01*
X003710Y005445D01*
X003710D01*
Y005602D01*
X003735Y005626D01*
X003744Y005625D01*
X003767Y005629D01*
X003780Y005614D01*
Y005550D01*
X003820D01*
Y005615D01*
X003797D01*
X003780Y005634D01*
X003781Y005638D01*
X003787Y005642D01*
X003800Y005662D01*
X003805Y005686D01*
X003800Y005709D01*
X003787Y005729D01*
X003767Y005742D01*
X003744Y005747D01*
X003720Y005742D01*
X003700Y005729D01*
X003687Y005709D01*
X003685Y005697D01*
X003664D01*
X003662Y005709D01*
X003649Y005729D01*
X003629Y005742D01*
X003605Y005747D01*
X003582Y005742D01*
X003562Y005729D01*
X003549Y005709D01*
X003544Y005686D01*
X003549Y005662D01*
X003562Y005642D01*
X003580Y005631D01*
X003586Y005622D01*
X003590Y005613D01*
X003590Y005607D01*
Y005456D01*
X003590Y005445D01*
X003590D01*
X003591Y005437D01*
X003591D01*
Y005387D01*
X003510D01*
Y005425D01*
X003511Y005445D01*
X003511Y005456D01*
Y005510D01*
X003451D01*
X003391D01*
Y005456D01*
X003390Y005437D01*
X003390Y005425D01*
Y005297D01*
X003372Y005289D01*
X003334Y005327D01*
X003323Y005335D01*
X003320Y005335D01*
Y005437D01*
X003320D01*
X003321Y005445D01*
X003321D01*
X003321Y005456D01*
Y005615D01*
X003297D01*
Y005651D01*
X003295Y005660D01*
X003297Y005662D01*
X003301Y005686D01*
X003297Y005709D01*
X003283Y005729D01*
X003263Y005742D01*
X003240Y005747D01*
X003217Y005742D01*
X003197Y005729D01*
X003183Y005709D01*
X003179Y005686D01*
X003183Y005662D01*
X003197Y005642D01*
X003207Y005636D01*
X003201Y005616D01*
X002738D01*
X002724Y005613D01*
X002713Y005630D01*
X002718Y005633D01*
X002727Y005640D01*
X002743Y005661D01*
X002753Y005685D01*
X002756Y005711D01*
X002753Y005737D01*
X002743Y005762D01*
X002727Y005783D01*
X002706Y005799D01*
X002682Y005809D01*
X002663Y005811D01*
Y005831D01*
X002682Y005834D01*
X002706Y005844D01*
X002727Y005860D01*
X002743Y005881D01*
X002753Y005905D01*
X002756Y005931D01*
X002753Y005957D01*
X002743Y005982D01*
X002727Y006003D01*
X002706Y006019D01*
X002682Y006029D01*
X002663Y006031D01*
Y006051D01*
X002682Y006054D01*
X002706Y006064D01*
X002727Y006080D01*
X002743Y006101D01*
X002753Y006125D01*
X002756Y006151D01*
X002753Y006177D01*
X002743Y006202D01*
X002727Y006223D01*
X002706Y006239D01*
X002682Y006249D01*
X002655Y006252D01*
X002615D01*
X002589Y006249D01*
X002565Y006239D01*
X002544Y006223D01*
X002528Y006202D01*
X002518Y006177D01*
X002515Y006151D01*
X002518Y006125D01*
X002528Y006101D01*
X002544Y006080D01*
X002565Y006064D01*
X002589Y006054D01*
X002608Y006051D01*
Y006031D01*
X002589Y006029D01*
X002565Y006019D01*
X002544Y006003D01*
X002528Y005982D01*
X002518Y005957D01*
X002515Y005931D01*
X002518Y005905D01*
X002528Y005881D01*
X002544Y005860D01*
X002565Y005844D01*
X002589Y005834D01*
X002608Y005831D01*
Y005811D01*
X002589Y005809D01*
X002565Y005799D01*
X002544Y005783D01*
X002528Y005762D01*
X002518Y005737D01*
X002515Y005711D01*
X002518Y005685D01*
X002528Y005661D01*
X002544Y005640D01*
X002565Y005624D01*
X002589Y005614D01*
X002615Y005610D01*
X002655D01*
X002682Y005614D01*
X002696Y005620D01*
X002702Y005622D01*
X002712Y005605D01*
X002708Y005601D01*
X002600Y005493D01*
X002592Y005481D01*
X002589Y005467D01*
Y005456D01*
X002588Y005437D01*
X002569Y005437D01*
X002548D01*
Y005352D01*
X002527D01*
Y005332D01*
X002468D01*
Y005278D01*
X002467Y005258D01*
X002467Y005247D01*
Y005193D01*
X002527D01*
Y005173D01*
X002547D01*
Y005088D01*
X002587Y005088D01*
X002589Y005069D01*
Y005058D01*
X002592Y005044D01*
X002600Y005033D01*
X002715Y004918D01*
Y004865D01*
X002717Y004855D01*
X002703Y004835D01*
X002675D01*
X002659Y004855D01*
X002661Y004864D01*
X002656Y004887D01*
X002643Y004907D01*
X002623Y004920D01*
X002600Y004925D01*
X002576Y004920D01*
X002558Y004908D01*
X002548Y004903D01*
X002536D01*
X002518Y004916D01*
X002517Y004916D01*
X002519Y004936D01*
X002552D01*
Y005046D01*
X002332D01*
X002332Y005046D01*
X002312Y005047D01*
X002290Y005051D01*
X002267Y005047D01*
X002250Y005035D01*
X002238Y005039D01*
X002230Y005044D01*
X002230Y005080D01*
X002230Y005116D01*
X002238Y005121D01*
X002250Y005125D01*
X002267Y005113D01*
X002290Y005109D01*
X002313Y005113D01*
X002333Y005127D01*
X002347Y005147D01*
X002351Y005170D01*
X002347Y005193D01*
X002333Y005213D01*
X002313Y005227D01*
X002290Y005231D01*
X002267Y005227D01*
X002250Y005215D01*
X002238Y005219D01*
X002230Y005224D01*
Y005247D01*
X002231Y005267D01*
X002231Y005278D01*
Y005332D01*
X002171D01*
X002111D01*
Y005278D01*
X002110Y005258D01*
X002110Y005247D01*
Y005100D01*
X002110Y005088D01*
X002110Y005068D01*
Y004921D01*
X002110Y004910D01*
X002110Y004890D01*
Y004837D01*
X002170D01*
X002231D01*
Y004890D01*
X002231Y004902D01*
X002230Y004921D01*
Y004936D01*
X002238Y004941D01*
X002250Y004945D01*
X002267Y004933D01*
X002290Y004929D01*
X002313Y004933D01*
X002332Y004936D01*
X002332Y004936D01*
X002332Y004936D01*
X002364D01*
X002366Y004916D01*
X002365Y004916D01*
X002347Y004903D01*
X002335Y004885D01*
X002331Y004864D01*
X002335Y004842D01*
X002347Y004824D01*
X002365Y004812D01*
X002373Y004810D01*
Y004790D01*
X002365Y004789D01*
X002347Y004776D01*
X002335Y004758D01*
X002331Y004737D01*
X002332Y004728D01*
X002314Y004716D01*
X002313Y004717D01*
X002310Y004717D01*
Y004660D01*
Y004603D01*
X002313Y004603D01*
X002334Y004593D01*
X002335Y004588D01*
X002347Y004570D01*
X002365Y004558D01*
X002373Y004556D01*
Y004536D01*
X002365Y004535D01*
X002347Y004522D01*
X002335Y004504D01*
X002331Y004483D01*
X002335Y004461D01*
X002347Y004443D01*
X002365Y004431D01*
X002373Y004429D01*
Y004409D01*
X002365Y004408D01*
X002347Y004395D01*
X002335Y004377D01*
X002331Y004356D01*
X002332Y004348D01*
X002314Y004336D01*
X002313Y004337D01*
X002290Y004341D01*
X002267Y004337D01*
X002250Y004326D01*
X002237Y004330D01*
X002231Y004335D01*
X002231Y004367D01*
X002230Y004386D01*
Y004440D01*
X002110D01*
Y004386D01*
X002110Y004375D01*
X002110Y004355D01*
Y004208D01*
X002110Y004197D01*
X002110Y004177D01*
Y004123D01*
X002170D01*
X002231D01*
Y004177D01*
X002231Y004188D01*
X002231Y004225D01*
X002237Y004230D01*
X002250Y004234D01*
X002267Y004223D01*
X002290Y004219D01*
X002313Y004223D01*
X002334Y004213D01*
X002335Y004207D01*
X002347Y004189D01*
X002365Y004177D01*
X002373Y004175D01*
Y004155D01*
X002365Y004154D01*
X002347Y004141D01*
X002335Y004123D01*
X002331Y004102D01*
X002335Y004080D01*
X002347Y004062D01*
X002365Y004050D01*
X002387Y004046D01*
X002497D01*
X002518Y004050D01*
X002536Y004062D01*
X002549Y004080D01*
X002553Y004102D01*
X002549Y004123D01*
X002536Y004141D01*
X002518Y004154D01*
X002511Y004155D01*
Y004175D01*
X002518Y004177D01*
X002536Y004189D01*
X002549Y004207D01*
X002553Y004229D01*
X002549Y004250D01*
X002536Y004268D01*
X002518Y004281D01*
X002511Y004282D01*
Y004302D01*
X002518Y004304D01*
X002536Y004316D01*
X002549Y004334D01*
X002553Y004356D01*
X002549Y004377D01*
X002536Y004395D01*
X002518Y004408D01*
X002511Y004409D01*
Y004429D01*
X002518Y004431D01*
X002536Y004443D01*
X002549Y004461D01*
X002553Y004483D01*
X002549Y004504D01*
X002536Y004522D01*
X002518Y004535D01*
X002511Y004536D01*
Y004556D01*
X002518Y004558D01*
X002536Y004570D01*
X002549Y004588D01*
X002553Y004610D01*
X002549Y004631D01*
X002536Y004649D01*
X002518Y004662D01*
X002511Y004663D01*
Y004683D01*
X002518Y004685D01*
X002536Y004697D01*
X002549Y004715D01*
X002553Y004737D01*
X002549Y004758D01*
X002536Y004776D01*
X002518Y004789D01*
X002511Y004790D01*
Y004810D01*
X002518Y004812D01*
X002536Y004824D01*
X002548D01*
X002558Y004820D01*
X002576Y004807D01*
X002600Y004803D01*
X002609Y004804D01*
X002629Y004789D01*
Y004274D01*
X002629Y004272D01*
Y004254D01*
X002647D01*
X002649Y004254D01*
X002703D01*
X002717Y004234D01*
X002715Y004224D01*
Y004185D01*
X002649Y004119D01*
X002640Y004121D01*
X002617Y004117D01*
X002597Y004103D01*
X002583Y004083D01*
X002579Y004060D01*
X002583Y004037D01*
X002597Y004017D01*
X002617Y004003D01*
X002637Y003999D01*
Y003840D01*
X002637D01*
X002637Y003832D01*
X002637D01*
X002637Y003820D01*
Y003666D01*
X002567D01*
Y003727D01*
X002507D01*
Y003767D01*
X002567D01*
Y003820D01*
X002567Y003840D01*
X002567Y003852D01*
Y003905D01*
X002507D01*
Y003925D01*
X002487D01*
Y004010D01*
X002447D01*
Y003990D01*
X002427Y003979D01*
X002423Y003982D01*
X002420Y003982D01*
Y003925D01*
X002400D01*
Y003905D01*
X002343D01*
X002343Y003902D01*
X002357Y003882D01*
X002369Y003874D01*
Y003851D01*
X002357Y003843D01*
X002343Y003823D01*
X002341Y003809D01*
X002321Y003799D01*
X002320Y003799D01*
X002313Y003803D01*
X002290Y003808D01*
X002267Y003803D01*
X002250Y003792D01*
X002238Y003796D01*
X002230Y003801D01*
Y003820D01*
X002231Y003840D01*
X002231Y003852D01*
Y003905D01*
X002170D01*
X002110D01*
Y003852D01*
X002110Y003832D01*
X002110Y003820D01*
Y003662D01*
X002110D01*
X002111Y003642D01*
X002053Y003584D01*
X002035Y003594D01*
X002038Y003610D01*
X002033Y003633D01*
X002028Y003642D01*
X002039Y003662D01*
X002040D01*
Y003832D01*
X002040D01*
X002041Y003840D01*
X002041D01*
X002041Y003852D01*
Y004010D01*
X002041D01*
Y004018D01*
X002041D01*
Y004177D01*
X002041Y004188D01*
X002041Y004208D01*
Y004355D01*
X002041Y004367D01*
X002041D01*
X002040Y004375D01*
X002040D01*
Y004495D01*
X002075Y004530D01*
X002090Y004533D01*
X002110Y004522D01*
Y004480D01*
X002150D01*
Y004545D01*
X002136D01*
X002125Y004565D01*
X002127Y004567D01*
X002131Y004590D01*
X002127Y004613D01*
X002113Y004633D01*
X002093Y004647D01*
X002070Y004651D01*
X002054Y004648D01*
X002052Y004649D01*
X002039Y004662D01*
X002038Y004664D01*
X002041Y004680D01*
X002037Y004703D01*
X002031Y004712D01*
X002041Y004732D01*
X002041D01*
Y004890D01*
X002041Y004902D01*
X002041D01*
X002040Y004910D01*
X002040D01*
Y005068D01*
X002040Y005080D01*
X002040D01*
Y005088D01*
X002040D01*
Y005258D01*
X002040D01*
X002041Y005267D01*
X002041D01*
X002041Y005278D01*
Y005425D01*
X002041Y005437D01*
X002041D01*
X002040Y005445D01*
X002040D01*
Y005615D01*
X002016D01*
Y005662D01*
X002024Y005667D01*
X002037Y005687D01*
X002042Y005710D01*
X002037Y005733D01*
X002024Y005753D01*
X002004Y005767D01*
X001980Y005771D01*
X001957Y005767D01*
X001937Y005753D01*
X001924Y005733D01*
X001919Y005710D01*
X001924Y005687D01*
X001937Y005667D01*
X001945Y005662D01*
Y005615D01*
X001920D01*
Y005456D01*
X001920Y005445D01*
X001920D01*
X001921Y005437D01*
X001921D01*
Y005387D01*
X001840D01*
Y005425D01*
X001841Y005445D01*
X001841Y005456D01*
Y005510D01*
X001781D01*
X001721D01*
Y005456D01*
X001720Y005437D01*
X001720Y005425D01*
Y005297D01*
X001702Y005289D01*
X001664Y005327D01*
X001653Y005335D01*
X001650Y005335D01*
Y005437D01*
X001650D01*
X001651Y005445D01*
X001651D01*
X001651Y005456D01*
Y005615D01*
X001626D01*
Y005662D01*
X001633Y005667D01*
X001647Y005687D01*
X001651Y005710D01*
X001647Y005733D01*
X001633Y005753D01*
X001613Y005767D01*
X001590Y005771D01*
X001567Y005767D01*
X001547Y005753D01*
X001533Y005733D01*
X001529Y005710D01*
X001533Y005687D01*
X001547Y005667D01*
X001555Y005661D01*
Y005616D01*
X001068D01*
X001054Y005613D01*
X001042Y005605D01*
X000930Y005493D01*
X000922Y005481D01*
X000919Y005467D01*
Y005456D01*
X000918Y005437D01*
X000899Y005437D01*
X000877D01*
Y005352D01*
X000857D01*
Y005332D01*
X000797D01*
Y005278D01*
X000797Y005258D01*
X000797Y005247D01*
Y005193D01*
X000857D01*
Y005173D01*
X000877D01*
Y005088D01*
X000917Y005088D01*
X000919Y005069D01*
Y005058D01*
X000922Y005044D01*
X000930Y005033D01*
X001045Y004918D01*
Y004865D01*
X001047Y004855D01*
X001033Y004835D01*
X001005D01*
X000989Y004855D01*
X000991Y004864D01*
X000986Y004887D01*
X000973Y004907D01*
X000953Y004920D01*
X000930Y004925D01*
X000906Y004920D01*
X000888Y004908D01*
X000878Y004903D01*
X000866D01*
X000848Y004916D01*
X000847Y004916D01*
X000849Y004936D01*
X000882D01*
Y005046D01*
X000662D01*
Y004936D01*
X000694D01*
X000696Y004916D01*
X000695Y004916D01*
X000677Y004903D01*
X000665Y004885D01*
X000661Y004864D01*
X000665Y004842D01*
X000677Y004824D01*
X000695Y004812D01*
X000703Y004810D01*
Y004790D01*
X000695Y004789D01*
X000677Y004776D01*
X000665Y004758D01*
X000661Y004737D01*
X000665Y004715D01*
X000677Y004697D01*
X000695Y004685D01*
X000703Y004683D01*
Y004663D01*
X000695Y004662D01*
X000677Y004649D01*
X000665Y004631D01*
X000661Y004610D01*
X000665Y004588D01*
X000677Y004570D01*
X000695Y004558D01*
X000703Y004556D01*
Y004536D01*
X000695Y004535D01*
X000677Y004522D01*
X000665Y004504D01*
X000661Y004483D01*
X000665Y004461D01*
X000677Y004443D01*
X000695Y004431D01*
X000703Y004429D01*
Y004409D01*
X000695Y004408D01*
X000677Y004395D01*
X000665Y004377D01*
X000661Y004356D01*
X000665Y004334D01*
X000677Y004316D01*
X000695Y004304D01*
X000703Y004302D01*
Y004282D01*
X000695Y004281D01*
X000677Y004268D01*
X000665Y004250D01*
X000661Y004229D01*
X000665Y004207D01*
X000677Y004189D01*
X000695Y004177D01*
X000703Y004175D01*
Y004155D01*
X000695Y004154D01*
X000677Y004141D01*
X000665Y004123D01*
X000661Y004102D01*
X000665Y004080D01*
X000677Y004062D01*
X000695Y004050D01*
X000717Y004046D01*
X000827D01*
X000848Y004050D01*
X000866Y004062D01*
X000879Y004080D01*
X000883Y004102D01*
X000879Y004123D01*
X000866Y004141D01*
X000848Y004154D01*
X000841Y004155D01*
Y004175D01*
X000848Y004177D01*
X000866Y004189D01*
X000879Y004207D01*
X000883Y004229D01*
X000879Y004250D01*
X000866Y004268D01*
X000848Y004281D01*
X000841Y004282D01*
Y004302D01*
X000848Y004304D01*
X000866Y004316D01*
X000879Y004334D01*
X000883Y004356D01*
X000879Y004377D01*
X000866Y004395D01*
X000848Y004408D01*
X000841Y004409D01*
Y004429D01*
X000848Y004431D01*
X000866Y004443D01*
X000879Y004461D01*
X000883Y004483D01*
X000879Y004504D01*
X000866Y004522D01*
X000848Y004535D01*
X000841Y004536D01*
Y004556D01*
X000848Y004558D01*
X000866Y004570D01*
X000879Y004588D01*
X000883Y004610D01*
X000879Y004631D01*
X000866Y004649D01*
X000848Y004662D01*
X000841Y004663D01*
Y004683D01*
X000848Y004685D01*
X000866Y004697D01*
X000879Y004715D01*
X000883Y004737D01*
X000879Y004758D01*
X000866Y004776D01*
X000848Y004789D01*
X000841Y004790D01*
Y004810D01*
X000848Y004812D01*
X000866Y004824D01*
X000878D01*
X000888Y004820D01*
X000906Y004807D01*
X000930Y004803D01*
X000939Y004804D01*
X000959Y004789D01*
Y004274D01*
X000959Y004272D01*
Y004254D01*
X000977D01*
X000979Y004254D01*
X001033D01*
X001047Y004234D01*
X001045Y004224D01*
Y004167D01*
X001045Y004165D01*
X000995Y004115D01*
X000993Y004117D01*
X000970Y004121D01*
X000947Y004117D01*
X000927Y004103D01*
X000913Y004083D01*
X000909Y004060D01*
X000913Y004037D01*
X000927Y004017D01*
X000947Y004003D01*
X000967Y003999D01*
Y003840D01*
X000967D01*
X000967Y003832D01*
X000967D01*
X000967Y003820D01*
Y003662D01*
X001037D01*
X001051Y003642D01*
X001049Y003630D01*
X001053Y003607D01*
X001057Y003601D01*
X001046Y003581D01*
X000748D01*
X000659Y003671D01*
X000648Y003678D01*
X000634Y003681D01*
X000633Y003681D01*
X000622Y003699D01*
X000624Y003702D01*
X000633Y003724D01*
X000636Y003747D01*
X000633Y003770D01*
X000624Y003791D01*
X000610Y003810D01*
X000591Y003824D01*
X000570Y003833D01*
X000547Y003836D01*
X000523Y003833D01*
X000502Y003824D01*
X000483Y003810D01*
X000469Y003791D01*
X000460Y003770D01*
X000457Y003747D01*
X000460Y003724D01*
X000465Y003712D01*
X000456Y003692D01*
X000454Y003690D01*
X000448Y003689D01*
X000427Y003710D01*
X000433Y003724D01*
X000436Y003747D01*
X000433Y003770D01*
X000424Y003791D01*
X000410Y003810D01*
X000391Y003824D01*
X000370Y003833D01*
X000347Y003836D01*
X000323Y003833D01*
X000302Y003824D01*
X000283Y003810D01*
X000271Y003793D01*
X000265Y003793D01*
X000251Y003799D01*
Y003895D01*
X000265Y003900D01*
X000271Y003900D01*
X000283Y003884D01*
X000302Y003869D01*
X000323Y003860D01*
X000347Y003857D01*
X000370Y003860D01*
X000391Y003869D01*
X000410Y003884D01*
X000424Y003902D01*
X000433Y003924D01*
X000436Y003947D01*
X000433Y003970D01*
X000424Y003991D01*
X000419Y003998D01*
X000429Y004018D01*
X000448D01*
X000448Y004018D01*
X000460Y004020D01*
X000470Y004027D01*
X000509Y004066D01*
X000523Y004060D01*
X000547Y004057D01*
X000570Y004060D01*
X000591Y004069D01*
X000610Y004084D01*
X000624Y004102D01*
X000633Y004124D01*
X000636Y004147D01*
X000633Y004170D01*
X000624Y004191D01*
X000610Y004210D01*
X000591Y004224D01*
X000570Y004233D01*
X000547Y004236D01*
X000523Y004233D01*
X000502Y004224D01*
X000483Y004210D01*
X000469Y004191D01*
X000460Y004170D01*
X000457Y004147D01*
X000460Y004124D01*
X000466Y004110D01*
X000448Y004091D01*
X000440Y004092D01*
X000440Y004092D01*
X000429Y004114D01*
X000433Y004124D01*
X000436Y004147D01*
X000433Y004170D01*
X000424Y004191D01*
X000410Y004210D01*
X000391Y004224D01*
X000370Y004233D01*
X000347Y004236D01*
X000323Y004233D01*
X000302Y004224D01*
X000283Y004210D01*
X000269Y004191D01*
X000260Y004170D01*
X000258Y004156D01*
X000255Y004155D01*
X000245Y004149D01*
X000245Y004149D01*
X000158Y004062D01*
X000152Y004052D01*
X000149Y004040D01*
X000149Y004040D01*
Y002205D01*
X000149Y002205D01*
X000152Y002193D01*
X000158Y002183D01*
X000225Y002117D01*
X000225Y002117D01*
X000235Y002110D01*
X000247Y002108D01*
X000486D01*
X000822Y001772D01*
X000822Y001772D01*
X000832Y001765D01*
X000844Y001763D01*
X001031D01*
X001045Y001743D01*
X001044Y001733D01*
X001046Y001714D01*
X001053Y001697D01*
X001065Y001682D01*
X001079Y001671D01*
X001097Y001664D01*
X001115Y001661D01*
X001133Y001664D01*
X001151Y001671D01*
X001165Y001682D01*
X001177Y001697D01*
X001184Y001714D01*
X001186Y001733D01*
X001184Y001751D01*
X001177Y001768D01*
X001166Y001783D01*
X001166Y001784D01*
X001173Y001803D01*
X001248D01*
X001255Y001784D01*
X001255Y001783D01*
X001244Y001768D01*
X001237Y001752D01*
X001306D01*
X001374D01*
X001367Y001768D01*
X001356Y001783D01*
X001356Y001784D01*
X001363Y001803D01*
X001517D01*
X001524Y001784D01*
X001524Y001783D01*
X001513Y001768D01*
X001506Y001752D01*
X001574D01*
X001643D01*
X001636Y001768D01*
X001625Y001783D01*
X001625Y001784D01*
X001632Y001803D01*
X001652D01*
X001698Y001756D01*
X001696Y001751D01*
X001694Y001733D01*
X001696Y001714D01*
X001703Y001697D01*
X001715Y001682D01*
X001729Y001671D01*
X001747Y001664D01*
X001765Y001661D01*
X001783Y001664D01*
X001801Y001671D01*
X001815Y001682D01*
X001827Y001697D01*
X001834Y001714D01*
X001836Y001733D01*
X001834Y001751D01*
X001827Y001768D01*
X001815Y001783D01*
X001801Y001794D01*
X001783Y001801D01*
X001765Y001804D01*
X001747Y001801D01*
X001741Y001799D01*
X001686Y001855D01*
X001676Y001862D01*
X001664Y001864D01*
X001664Y001864D01*
X000873D01*
X000537Y002200D01*
X000527Y002207D01*
X000515Y002209D01*
X000515Y002209D01*
X000276D01*
X000251Y002234D01*
Y002295D01*
X000265Y002300D01*
X000271Y002300D01*
X000283Y002284D01*
X000302Y002269D01*
X000323Y002260D01*
X000347Y002257D01*
X000370Y002260D01*
X000391Y002269D01*
X000410Y002284D01*
X000424Y002302D01*
X000433Y002324D01*
X000436Y002347D01*
X000433Y002370D01*
X000424Y002391D01*
X000410Y002410D01*
X000391Y002424D01*
X000370Y002433D01*
X000347Y002436D01*
X000323Y002433D01*
X000302Y002424D01*
X000283Y002410D01*
X000271Y002393D01*
X000265Y002393D01*
X000251Y002399D01*
Y002495D01*
X000265Y002500D01*
X000271Y002500D01*
X000283Y002484D01*
X000302Y002469D01*
X000323Y002460D01*
X000327Y002460D01*
Y002547D01*
Y002634D01*
X000323Y002633D01*
X000302Y002624D01*
X000283Y002610D01*
X000271Y002593D01*
X000265Y002593D01*
X000251Y002599D01*
Y002695D01*
X000265Y002700D01*
X000271Y002700D01*
X000283Y002684D01*
X000302Y002669D01*
X000323Y002660D01*
X000347Y002657D01*
X000370Y002660D01*
X000391Y002669D01*
X000410Y002684D01*
X000423Y002701D01*
X000470D01*
X000483Y002684D01*
X000502Y002669D01*
X000523Y002660D01*
X000547Y002657D01*
X000570Y002660D01*
X000591Y002669D01*
X000599Y002676D01*
X000948Y002328D01*
X000962Y002318D01*
X000980Y002314D01*
X001150D01*
Y002300D01*
X001320D01*
Y002365D01*
X001342Y002387D01*
X001360Y002379D01*
Y002300D01*
X001530D01*
Y002332D01*
X001548D01*
X001561Y002335D01*
X001562Y002335D01*
X001582Y002324D01*
Y002229D01*
X001528D01*
X001511Y002226D01*
X001496Y002216D01*
X001434Y002153D01*
X001420Y002151D01*
X001400Y002137D01*
X001387Y002118D01*
X001382Y002094D01*
X001387Y002071D01*
X001400Y002051D01*
X001420Y002038D01*
X001443Y002033D01*
X001467Y002038D01*
X001487Y002051D01*
X001500Y002071D01*
X001504Y002094D01*
X001504Y002094D01*
X001547Y002138D01*
X001582D01*
Y002040D01*
X001822D01*
Y002360D01*
X001617D01*
X001609Y002378D01*
X001625Y002395D01*
X002140D01*
X002154Y002397D01*
X002165Y002405D01*
X002398Y002637D01*
X002622D01*
Y002608D01*
X002637D01*
X002643Y002588D01*
X002639Y002586D01*
X002625Y002566D01*
X002621Y002542D01*
X002625Y002518D01*
X002639Y002498D01*
X002659Y002485D01*
X002682Y002480D01*
X002779D01*
X002803Y002485D01*
X002823Y002498D01*
X002836Y002518D01*
X002841Y002542D01*
X002836Y002566D01*
X002823Y002586D01*
X002819Y002588D01*
X002825Y002608D01*
X002840D01*
Y002730D01*
X002840D01*
Y002735D01*
X002840D01*
Y002857D01*
X002840D01*
Y002862D01*
X002840D01*
Y002969D01*
X002840Y002984D01*
X002840Y003004D01*
Y003096D01*
X002840Y003111D01*
X002840Y003131D01*
Y003223D01*
X002840Y003238D01*
X002840Y003258D01*
Y003365D01*
X002622D01*
Y003258D01*
X002622Y003243D01*
X002622Y003223D01*
Y003131D01*
X002622Y003116D01*
X002622Y003096D01*
X002622Y002983D01*
X002608Y002969D01*
X002378D01*
Y003323D01*
X002395Y003340D01*
X002413Y003343D01*
X002433Y003357D01*
X002447Y003377D01*
X002451Y003400D01*
X002447Y003423D01*
X002433Y003443D01*
X002417Y003454D01*
X002418Y003469D01*
X002420Y003474D01*
X003760D01*
X003774Y003477D01*
X003785Y003485D01*
X003895Y003594D01*
X004640D01*
Y003566D01*
X004190D01*
X004172Y003562D01*
X004158Y003552D01*
X004085Y003480D01*
X004067Y003477D01*
X004047Y003463D01*
X004033Y003443D01*
X004029Y003420D01*
X004033Y003397D01*
X004047Y003377D01*
X004067Y003363D01*
X004090Y003359D01*
X004113Y003363D01*
X004133Y003377D01*
X004147Y003397D01*
X004150Y003415D01*
X004209Y003474D01*
X004324D01*
X004326Y003454D01*
X004310Y003449D01*
X004272Y003429D01*
X004239Y003401D01*
X004211Y003368D01*
X004191Y003330D01*
X004178Y003288D01*
X004174Y003245D01*
X004178Y003202D01*
X004191Y003160D01*
X004211Y003122D01*
X004239Y003089D01*
X004272Y003061D01*
X004310Y003041D01*
X004352Y003028D01*
X004395Y003024D01*
X004438Y003028D01*
X004480Y003041D01*
X004518Y003061D01*
X004551Y003089D01*
X004579Y003122D01*
X004599Y003160D01*
X004612Y003202D01*
X004616Y003245D01*
X004612Y003288D01*
X004599Y003330D01*
X004579Y003368D01*
X004551Y003401D01*
X004518Y003429D01*
X004480Y003449D01*
X004464Y003454D01*
X004466Y003474D01*
X004640D01*
Y003407D01*
X004640Y003387D01*
X004640D01*
Y003387D01*
X004640D01*
Y003177D01*
X004640D01*
Y003175D01*
X004640D01*
Y002971D01*
X004030D01*
X003990Y003010D01*
X003979Y003018D01*
X003965Y003021D01*
X003105D01*
X003091Y003018D01*
X003080Y003010D01*
X002939Y002869D01*
X002930Y002871D01*
X002907Y002867D01*
X002887Y002853D01*
X002873Y002833D01*
X002869Y002810D01*
X002873Y002787D01*
X002887Y002767D01*
X002901Y002758D01*
X002903Y002738D01*
X002902Y002734D01*
X002892Y002728D01*
X002879Y002708D01*
X002874Y002684D01*
X002879Y002661D01*
X002892Y002641D01*
X002895Y002639D01*
Y002615D01*
X002892Y002613D01*
X002879Y002593D01*
X002874Y002570D01*
X002879Y002547D01*
X002892Y002527D01*
X002912Y002513D01*
X002935Y002509D01*
X002959Y002513D01*
X002978Y002527D01*
X002992Y002547D01*
X002996Y002570D01*
X002994Y002583D01*
X003121Y002710D01*
X003143Y002704D01*
X003143Y002700D01*
X003157Y002680D01*
X003177Y002667D01*
X003200Y002662D01*
X003223Y002667D01*
X003230Y002671D01*
X003250Y002660D01*
Y002650D01*
X003249Y002630D01*
X003249Y002618D01*
Y002565D01*
X003369D01*
Y002618D01*
X003370Y002638D01*
X003370Y002650D01*
Y002808D01*
X003379Y002824D01*
X003431D01*
X003440Y002808D01*
Y002638D01*
X003440D01*
X003439Y002630D01*
X003440D01*
X003440Y002618D01*
Y002460D01*
X003439D01*
Y002452D01*
X003440D01*
Y002293D01*
X003440Y002282D01*
X003440Y002262D01*
Y002115D01*
X003440Y002103D01*
X003439D01*
X003440Y002095D01*
X003440D01*
Y001975D01*
X003405Y001940D01*
X003390Y001937D01*
X003370Y001948D01*
Y001990D01*
X003310D01*
X003250D01*
Y001945D01*
X003245Y001941D01*
X003222Y001937D01*
X003202Y001923D01*
X003188Y001903D01*
X003188Y001900D01*
X003302D01*
X003302Y001903D01*
X003300Y001905D01*
X003311Y001925D01*
X003344D01*
X003355Y001905D01*
X003353Y001903D01*
X003349Y001880D01*
X003353Y001857D01*
X003367Y001837D01*
X003387Y001823D01*
X003410Y001819D01*
X003426Y001822D01*
X003428Y001821D01*
X003441Y001808D01*
X003442Y001806D01*
X003439Y001790D01*
X003443Y001767D01*
X003449Y001758D01*
X003440Y001738D01*
X003440D01*
Y001580D01*
X003440Y001568D01*
X003439D01*
X003440Y001560D01*
X003440D01*
Y001402D01*
X003440Y001390D01*
X003440D01*
Y001382D01*
X003440D01*
Y001212D01*
X003440D01*
X003439Y001203D01*
X003439D01*
X003439Y001192D01*
Y001045D01*
X003439Y001033D01*
X003439D01*
X003440Y001025D01*
X003440D01*
Y000919D01*
X003439Y000915D01*
X003440Y000912D01*
Y000855D01*
X003441D01*
X003451Y000835D01*
X003443Y000823D01*
X003438Y000800D01*
X003443Y000777D01*
X003456Y000757D01*
X003476Y000743D01*
X003500Y000739D01*
X003523Y000743D01*
X003543Y000757D01*
X003556Y000777D01*
X003561Y000800D01*
X003556Y000823D01*
X003548Y000835D01*
X003558Y000855D01*
X003560D01*
Y001014D01*
X003560Y001025D01*
X003560D01*
X003559Y001033D01*
X003559D01*
Y001083D01*
X003640D01*
Y001045D01*
X003639Y001025D01*
X003639Y001014D01*
Y000960D01*
X003759D01*
Y001014D01*
X003760Y001033D01*
X003760Y001045D01*
Y001173D01*
X003778Y001181D01*
X003816Y001143D01*
X003827Y001135D01*
X003830Y001135D01*
Y001033D01*
X003830D01*
X003829Y001025D01*
X003829D01*
X003829Y001014D01*
Y000855D01*
X003831D01*
X003842Y000835D01*
X003834Y000823D01*
X003829Y000800D01*
X003834Y000777D01*
X003847Y000757D01*
X003867Y000743D01*
X003890Y000739D01*
X003914Y000743D01*
X003929Y000754D01*
X003938Y000752D01*
X003943Y000750D01*
X003950Y000745D01*
X003953Y000719D01*
X003965Y000689D01*
X003984Y000664D01*
X004009Y000645D01*
X004039Y000633D01*
X004070Y000629D01*
X004101Y000633D01*
X004131Y000645D01*
X004156Y000664D01*
X004175Y000689D01*
X004187Y000719D01*
X004191Y000750D01*
X004187Y000781D01*
X004175Y000811D01*
X004156Y000836D01*
X004144Y000844D01*
X004151Y000864D01*
X004422D01*
X004436Y000867D01*
X004448Y000875D01*
X004550Y000977D01*
X004558Y000989D01*
X004561Y001003D01*
Y001014D01*
X004562Y001033D01*
X004581Y001033D01*
X004603D01*
Y001118D01*
X004622D01*
Y001138D01*
X004683D01*
Y001192D01*
X004683Y001212D01*
X004683Y001223D01*
Y001277D01*
X004623D01*
Y001297D01*
X004603D01*
Y001382D01*
X004563Y001382D01*
X004561Y001401D01*
Y001412D01*
X004558Y001426D01*
X004550Y001437D01*
X004435Y001553D01*
X004435Y001554D01*
Y001611D01*
X004433Y001621D01*
X004447Y001641D01*
X004475D01*
X004491Y001621D01*
X004489Y001612D01*
X004494Y001589D01*
X004507Y001569D01*
X004527Y001556D01*
X004550Y001551D01*
X004574Y001556D01*
X004592Y001568D01*
X004602Y001573D01*
X004614D01*
X004632Y001560D01*
X004633Y001560D01*
X004631Y001540D01*
X004598D01*
Y001430D01*
X004818D01*
X004818Y001430D01*
Y001430D01*
X004838Y001429D01*
X004847Y001423D01*
X004870Y001419D01*
X004893Y001423D01*
X004900Y001428D01*
X004920Y001417D01*
X004920Y001390D01*
X004920Y001363D01*
X004900Y001352D01*
X004893Y001357D01*
X004870Y001361D01*
X004847Y001357D01*
X004827Y001343D01*
X004813Y001323D01*
X004809Y001300D01*
X004813Y001277D01*
X004827Y001257D01*
X004847Y001243D01*
X004870Y001239D01*
X004893Y001243D01*
X004900Y001248D01*
X004920Y001237D01*
Y001223D01*
X004919Y001203D01*
X004919Y001192D01*
Y001178D01*
X004899Y001168D01*
X004893Y001172D01*
X004890Y001172D01*
Y001115D01*
Y001058D01*
X004893Y001058D01*
X004899Y001062D01*
X004919Y001052D01*
X004919Y001033D01*
X004920Y001014D01*
Y000960D01*
X005040D01*
Y001014D01*
X005040Y001025D01*
X005039Y001045D01*
Y001098D01*
X004979D01*
Y001138D01*
X005039D01*
Y001192D01*
X005040Y001212D01*
X005040Y001223D01*
Y001370D01*
X005040Y001382D01*
X005040Y001402D01*
Y001549D01*
X005040Y001560D01*
X005040Y001580D01*
Y001633D01*
X004919D01*
Y001580D01*
X004919Y001568D01*
X004920Y001549D01*
Y001543D01*
X004900Y001532D01*
X004893Y001537D01*
X004870Y001541D01*
X004847Y001537D01*
X004838Y001531D01*
X004818Y001540D01*
Y001540D01*
X004786D01*
X004784Y001560D01*
X004785Y001560D01*
X004803Y001573D01*
X004815Y001591D01*
X004819Y001612D01*
X004815Y001634D01*
X004803Y001652D01*
X004785Y001664D01*
X004777Y001666D01*
Y001686D01*
X004785Y001687D01*
X004803Y001700D01*
X004815Y001718D01*
X004819Y001739D01*
X004815Y001761D01*
X004803Y001779D01*
X004785Y001791D01*
X004777Y001793D01*
Y001813D01*
X004785Y001814D01*
X004803Y001827D01*
X004810Y001836D01*
X004813Y001838D01*
X004832Y001842D01*
X004835Y001841D01*
X004847Y001833D01*
X004850Y001833D01*
Y001890D01*
Y001947D01*
X004847Y001947D01*
X004827Y001933D01*
X004817Y001919D01*
X004811Y001913D01*
X004794Y001913D01*
X004782Y001920D01*
X004783Y001941D01*
X004785Y001941D01*
X004803Y001954D01*
X004815Y001972D01*
X004819Y001993D01*
X004815Y002015D01*
X004803Y002033D01*
X004785Y002045D01*
X004777Y002047D01*
Y002067D01*
X004785Y002068D01*
X004803Y002081D01*
X004815Y002099D01*
X004819Y002118D01*
X004827Y002124D01*
X004838Y002129D01*
X004847Y002123D01*
X004870Y002119D01*
X004893Y002123D01*
X004899Y002128D01*
X004919Y002117D01*
X004919Y002103D01*
X004920Y002084D01*
Y002030D01*
X004980D01*
X005040D01*
Y002084D01*
X005040Y002095D01*
X005040Y002115D01*
Y002262D01*
X005040Y002273D01*
X005040Y002293D01*
Y002347D01*
X004919D01*
Y002293D01*
X004919Y002282D01*
X004919Y002262D01*
Y002243D01*
X004899Y002232D01*
X004893Y002237D01*
X004870Y002241D01*
X004847Y002237D01*
X004836Y002230D01*
X004818Y002242D01*
X004819Y002247D01*
X004815Y002269D01*
X004803Y002287D01*
X004785Y002299D01*
X004777Y002301D01*
Y002321D01*
X004785Y002322D01*
X004803Y002335D01*
X004815Y002353D01*
X004819Y002374D01*
X004815Y002396D01*
X004803Y002414D01*
X004785Y002426D01*
X004763Y002430D01*
X004653D01*
X004632Y002426D01*
X004614Y002414D01*
X004601Y002396D01*
X004597Y002374D01*
X004601Y002353D01*
X004614Y002335D01*
X004632Y002322D01*
X004639Y002321D01*
Y002301D01*
X004632Y002299D01*
X004614Y002287D01*
X004601Y002269D01*
X004597Y002247D01*
X004601Y002226D01*
X004614Y002208D01*
X004632Y002195D01*
X004639Y002194D01*
Y002174D01*
X004632Y002172D01*
X004614Y002160D01*
X004601Y002142D01*
X004597Y002120D01*
X004601Y002099D01*
X004614Y002081D01*
X004632Y002068D01*
X004639Y002067D01*
Y002047D01*
X004632Y002045D01*
X004614Y002033D01*
X004601Y002015D01*
X004597Y001993D01*
X004601Y001972D01*
X004614Y001954D01*
X004632Y001941D01*
X004639Y001940D01*
Y001920D01*
X004632Y001918D01*
X004614Y001906D01*
X004601Y001888D01*
X004597Y001866D01*
X004601Y001845D01*
X004614Y001827D01*
X004632Y001814D01*
X004639Y001813D01*
Y001793D01*
X004632Y001791D01*
X004614Y001779D01*
X004601Y001761D01*
X004597Y001739D01*
X004601Y001718D01*
X004614Y001700D01*
X004632Y001687D01*
X004639Y001686D01*
Y001666D01*
X004632Y001664D01*
X004614Y001652D01*
X004602D01*
X004592Y001656D01*
X004574Y001669D01*
X004550Y001673D01*
X004541Y001672D01*
X004521Y001687D01*
Y002202D01*
X004521Y002204D01*
Y002222D01*
X004503D01*
X004501Y002222D01*
X004447D01*
X004433Y002242D01*
X004435Y002252D01*
Y002309D01*
X004431Y002329D01*
X004427Y002336D01*
X004458Y002368D01*
X004467Y002367D01*
X004487Y002353D01*
X004510Y002349D01*
X004533Y002353D01*
X004553Y002367D01*
X004567Y002387D01*
X004571Y002410D01*
X004567Y002433D01*
X004553Y002453D01*
X004533Y002467D01*
X004513Y002471D01*
Y002630D01*
X004513D01*
X004513Y002638D01*
X004513D01*
Y002808D01*
X004526Y002823D01*
X004570D01*
X004583Y002808D01*
Y002743D01*
X004643D01*
Y002703D01*
X004583D01*
Y002650D01*
X004583Y002630D01*
X004583Y002618D01*
Y002565D01*
X004643D01*
Y002545D01*
X004663D01*
Y002460D01*
X004703D01*
Y002484D01*
X004704Y002485D01*
X004723Y002493D01*
X004737Y002483D01*
X004740Y002483D01*
Y002540D01*
Y002597D01*
X004737Y002597D01*
X004723Y002587D01*
X004704Y002595D01*
X004703Y002596D01*
Y002618D01*
X004703Y002638D01*
X004703Y002650D01*
Y002709D01*
X004723Y002720D01*
X004728Y002717D01*
X004751Y002712D01*
X004775Y002717D01*
X004795Y002730D01*
X004808Y002750D01*
X004812Y002773D01*
X004808Y002797D01*
X004804Y002803D01*
X004814Y002823D01*
X004907D01*
X004920Y002808D01*
X004920Y002803D01*
Y002758D01*
X004910Y002756D01*
X004898Y002748D01*
X004879Y002729D01*
X004870Y002731D01*
X004847Y002727D01*
X004827Y002713D01*
X004813Y002693D01*
X004809Y002670D01*
X004813Y002647D01*
X004827Y002627D01*
X004847Y002613D01*
X004870Y002609D01*
X004893Y002613D01*
X004899Y002618D01*
X004919Y002607D01*
Y002565D01*
X005040D01*
Y002618D01*
X005040Y002638D01*
X005040Y002650D01*
Y002803D01*
X005040Y002808D01*
X005053Y002823D01*
X005097D01*
X005110Y002808D01*
Y002638D01*
X005110D01*
X005109Y002630D01*
X005110D01*
X005110Y002618D01*
Y002460D01*
X005109D01*
Y002452D01*
X005110D01*
Y002293D01*
X005110Y002282D01*
X005110Y002262D01*
Y002115D01*
X005110Y002103D01*
X005109D01*
X005110Y002095D01*
X005110D01*
Y001975D01*
X005075Y001940D01*
X005060Y001937D01*
X005040Y001948D01*
Y001990D01*
X005000D01*
Y001925D01*
X005014D01*
X005025Y001905D01*
X005023Y001903D01*
X005019Y001880D01*
X005023Y001857D01*
X005037Y001837D01*
X005057Y001823D01*
X005080Y001819D01*
X005096Y001822D01*
X005098Y001821D01*
X005111Y001808D01*
X005112Y001806D01*
X005109Y001790D01*
X005113Y001767D01*
X005119Y001758D01*
X005110Y001738D01*
X005110D01*
Y001580D01*
X005110Y001568D01*
X005109D01*
X005110Y001560D01*
X005110D01*
Y001402D01*
X005110Y001390D01*
X005110D01*
Y001382D01*
X005110D01*
Y001212D01*
X005110D01*
X005109Y001203D01*
X005109D01*
X005109Y001192D01*
Y001045D01*
X005109Y001033D01*
X005109D01*
X005110Y001025D01*
X005110D01*
Y000855D01*
X005111D01*
X005121Y000835D01*
X005113Y000823D01*
X005108Y000800D01*
X005113Y000777D01*
X005126Y000757D01*
X005146Y000743D01*
X005170Y000739D01*
X005193Y000743D01*
X005213Y000757D01*
X005226Y000777D01*
X005231Y000800D01*
X005226Y000823D01*
X005218Y000835D01*
X005228Y000855D01*
X005230D01*
Y000964D01*
X005250Y000973D01*
X005270Y000969D01*
X005289Y000973D01*
X005309Y000962D01*
Y000960D01*
X005429D01*
Y001025D01*
X005429D01*
X005430Y001033D01*
X005430D01*
X005430Y001045D01*
Y001173D01*
X005448Y001181D01*
X005486Y001143D01*
X005497Y001135D01*
X005500Y001135D01*
Y001033D01*
X005500D01*
X005499Y001025D01*
X005499D01*
X005499Y001014D01*
Y000855D01*
X005511D01*
X005521Y000835D01*
X005513Y000823D01*
X005509Y000800D01*
X005513Y000777D01*
X005527Y000757D01*
X005547Y000743D01*
X005570Y000739D01*
X005593Y000743D01*
X005613Y000757D01*
X005627Y000777D01*
X005631Y000800D01*
X005627Y000823D01*
X005619Y000835D01*
X005619Y000855D01*
X005632Y000870D01*
X006058D01*
X006064Y000857D01*
X006066Y000850D01*
X006051Y000830D01*
X006041Y000806D01*
X006037Y000780D01*
X006041Y000754D01*
X006051Y000730D01*
X006067Y000709D01*
X006088Y000693D01*
X006112Y000683D01*
X006131Y000680D01*
Y000660D01*
X006112Y000657D01*
X006088Y000647D01*
X006067Y000631D01*
X006051Y000610D01*
X006041Y000586D01*
X006037Y000560D01*
X006041Y000534D01*
X006051Y000510D01*
X006067Y000489D01*
X006088Y000473D01*
X006112Y000463D01*
X006131Y000460D01*
Y000440D01*
X006112Y000437D01*
X006088Y000427D01*
X006067Y000411D01*
X006051Y000390D01*
X006041Y000366D01*
X006037Y000340D01*
X006041Y000314D01*
X006051Y000290D01*
X006067Y000269D01*
X006088Y000253D01*
X006112Y000243D01*
X006138Y000239D01*
X006178D01*
X006204Y000243D01*
X006229Y000253D01*
X006250Y000269D01*
X006266Y000290D01*
X006276Y000314D01*
X006279Y000340D01*
X006276Y000366D01*
X006266Y000390D01*
X006250Y000411D01*
X006229Y000427D01*
X006204Y000437D01*
X006185Y000440D01*
Y000460D01*
X006204Y000463D01*
X006229Y000473D01*
X006250Y000489D01*
X006266Y000510D01*
X006276Y000534D01*
X006279Y000560D01*
X006276Y000586D01*
X006266Y000610D01*
X006250Y000631D01*
X006229Y000647D01*
X006204Y000657D01*
X006185Y000660D01*
Y000680D01*
X006204Y000683D01*
X006229Y000693D01*
X006250Y000709D01*
X006266Y000730D01*
X006276Y000754D01*
X006279Y000780D01*
X006276Y000806D01*
X006266Y000830D01*
X006250Y000851D01*
X006229Y000867D01*
X006204Y000877D01*
X006178Y000881D01*
X006152D01*
X006144Y000901D01*
X006220Y000977D01*
X006228Y000989D01*
X006231Y001003D01*
Y001014D01*
X006233Y001033D01*
X006251Y001033D01*
X006272D01*
Y001118D01*
X006292D01*
Y001138D01*
X006353D01*
Y001192D01*
X006353Y001212D01*
X006353Y001223D01*
Y001277D01*
X006293D01*
Y001297D01*
X006273D01*
Y001382D01*
X006233Y001382D01*
X006231Y001401D01*
Y001412D01*
X006228Y001426D01*
X006220Y001437D01*
X006105Y001553D01*
X006105Y001554D01*
Y001611D01*
X006103Y001621D01*
X006117Y001641D01*
X006145D01*
X006161Y001621D01*
X006159Y001612D01*
X006164Y001589D01*
X006177Y001569D01*
X006197Y001556D01*
X006220Y001551D01*
X006244Y001556D01*
X006262Y001568D01*
X006272Y001573D01*
X006284D01*
X006302Y001560D01*
X006303Y001560D01*
X006301Y001540D01*
X006268D01*
Y001430D01*
X006488D01*
X006488Y001430D01*
Y001430D01*
X006508Y001429D01*
X006517Y001423D01*
X006540Y001419D01*
X006563Y001423D01*
X006570Y001428D01*
X006590Y001417D01*
X006590Y001390D01*
X006590Y001363D01*
X006570Y001352D01*
X006563Y001357D01*
X006540Y001361D01*
X006517Y001357D01*
X006497Y001343D01*
X006483Y001323D01*
X006479Y001300D01*
X006483Y001277D01*
X006497Y001257D01*
X006517Y001243D01*
X006540Y001239D01*
X006563Y001243D01*
X006570Y001248D01*
X006590Y001237D01*
Y001223D01*
X006589Y001203D01*
X006589Y001192D01*
Y001178D01*
X006569Y001168D01*
X006563Y001172D01*
X006560Y001172D01*
Y001115D01*
Y001058D01*
X006563Y001058D01*
X006569Y001062D01*
X006589Y001052D01*
X006589Y001033D01*
X006590Y001014D01*
Y000960D01*
X006710D01*
Y001014D01*
X006710Y001025D01*
X006709Y001045D01*
Y001098D01*
X006649D01*
Y001138D01*
X006709D01*
Y001192D01*
X006710Y001212D01*
X006710Y001223D01*
Y001370D01*
X006710Y001382D01*
X006710Y001402D01*
Y001549D01*
X006710Y001560D01*
X006710Y001580D01*
Y001633D01*
X006589D01*
Y001580D01*
X006589Y001568D01*
X006590Y001549D01*
Y001543D01*
X006570Y001532D01*
X006563Y001537D01*
X006540Y001541D01*
X006517Y001537D01*
X006508Y001531D01*
X006488Y001540D01*
Y001540D01*
X006456D01*
X006454Y001560D01*
X006455Y001560D01*
X006473Y001573D01*
X006485Y001591D01*
X006489Y001612D01*
X006485Y001634D01*
X006473Y001652D01*
X006455Y001664D01*
X006447Y001666D01*
Y001686D01*
X006455Y001687D01*
X006473Y001700D01*
X006485Y001718D01*
X006489Y001739D01*
X006485Y001761D01*
X006473Y001779D01*
X006455Y001791D01*
X006447Y001793D01*
Y001813D01*
X006455Y001814D01*
X006473Y001827D01*
X006485Y001845D01*
X006489Y001866D01*
X006485Y001888D01*
X006473Y001906D01*
X006455Y001918D01*
X006447Y001920D01*
Y001940D01*
X006455Y001941D01*
X006473Y001954D01*
X006485Y001972D01*
X006489Y001993D01*
X006485Y002015D01*
X006473Y002033D01*
X006455Y002045D01*
X006447Y002047D01*
Y002067D01*
X006455Y002068D01*
X006473Y002081D01*
X006485Y002099D01*
X006489Y002120D01*
X006488Y002129D01*
X006506Y002141D01*
X006517Y002133D01*
X006540Y002129D01*
X006563Y002133D01*
X006569Y002138D01*
X006589Y002127D01*
X006589Y002103D01*
X006590Y002084D01*
Y002030D01*
X006650D01*
X006710D01*
Y002084D01*
X006710Y002095D01*
X006710Y002115D01*
Y002262D01*
X006710Y002273D01*
X006710Y002293D01*
Y002347D01*
X006589D01*
Y002293D01*
X006589Y002282D01*
X006589Y002253D01*
X006569Y002242D01*
X006563Y002247D01*
X006540Y002251D01*
X006517Y002247D01*
X006508Y002241D01*
X006501Y002243D01*
X006488Y002252D01*
X006485Y002269D01*
X006473Y002287D01*
X006455Y002299D01*
X006447Y002301D01*
Y002321D01*
X006455Y002322D01*
X006473Y002335D01*
X006485Y002353D01*
X006489Y002374D01*
X006485Y002396D01*
X006473Y002414D01*
X006455Y002426D01*
X006433Y002430D01*
X006323D01*
X006302Y002426D01*
X006284Y002414D01*
X006271Y002396D01*
X006267Y002374D01*
X006271Y002353D01*
X006284Y002335D01*
X006302Y002322D01*
X006309Y002321D01*
Y002301D01*
X006302Y002299D01*
X006284Y002287D01*
X006271Y002269D01*
X006267Y002247D01*
X006271Y002226D01*
X006284Y002208D01*
X006302Y002195D01*
X006309Y002194D01*
Y002174D01*
X006302Y002172D01*
X006284Y002160D01*
X006271Y002142D01*
X006267Y002120D01*
X006271Y002099D01*
X006284Y002081D01*
X006302Y002068D01*
X006309Y002067D01*
Y002047D01*
X006302Y002045D01*
X006284Y002033D01*
X006271Y002015D01*
X006267Y001993D01*
X006271Y001972D01*
X006284Y001954D01*
X006302Y001941D01*
X006309Y001940D01*
Y001920D01*
X006302Y001918D01*
X006284Y001906D01*
X006271Y001888D01*
X006267Y001866D01*
X006271Y001845D01*
X006284Y001827D01*
X006302Y001814D01*
X006309Y001813D01*
Y001793D01*
X006302Y001791D01*
X006284Y001779D01*
X006271Y001761D01*
X006267Y001739D01*
X006271Y001718D01*
X006284Y001700D01*
X006302Y001687D01*
X006309Y001686D01*
Y001666D01*
X006302Y001664D01*
X006284Y001652D01*
X006272D01*
X006262Y001656D01*
X006244Y001669D01*
X006220Y001673D01*
X006211Y001672D01*
X006191Y001687D01*
Y002202D01*
X006191Y002204D01*
Y002222D01*
X006173D01*
X006171Y002222D01*
X006117D01*
X006103Y002242D01*
X006105Y002252D01*
Y002309D01*
X006101Y002329D01*
X006097Y002336D01*
X006127Y002367D01*
X006147Y002353D01*
X006170Y002349D01*
X006193Y002353D01*
X006213Y002367D01*
X006227Y002387D01*
X006231Y002410D01*
X006227Y002433D01*
X006213Y002453D01*
X006193Y002467D01*
X006183Y002469D01*
Y002628D01*
X006183D01*
Y002778D01*
X006253D01*
Y002733D01*
X006313D01*
Y002693D01*
X006253D01*
Y002630D01*
X006253D01*
Y002565D01*
X006313D01*
Y002545D01*
X006333D01*
Y002460D01*
X006373D01*
Y002474D01*
X006393Y002483D01*
X006393Y002483D01*
Y002540D01*
Y002597D01*
X006393Y002597D01*
X006373Y002606D01*
Y002628D01*
X006373D01*
Y002656D01*
X006393Y002666D01*
X006413Y002662D01*
X006436Y002667D01*
X006456Y002680D01*
X006465Y002694D01*
X006467Y002694D01*
X006486D01*
X006488Y002694D01*
X006497Y002680D01*
X006517Y002667D01*
X006540Y002662D01*
X006563Y002667D01*
X006570Y002671D01*
X006590Y002660D01*
Y002630D01*
X006589D01*
Y002565D01*
X006710D01*
Y002628D01*
X006710D01*
Y002778D01*
X006780D01*
Y002752D01*
X006779Y002748D01*
X006780Y002745D01*
Y002630D01*
X006779D01*
Y002460D01*
X006779D01*
Y002452D01*
X006779D01*
Y002293D01*
X006779Y002282D01*
X006779Y002262D01*
Y002115D01*
X006779Y002103D01*
X006779D01*
X006780Y002095D01*
X006780D01*
Y001975D01*
X006745Y001940D01*
X006730Y001937D01*
X006710Y001948D01*
Y001990D01*
X006670D01*
Y001925D01*
X006684D01*
X006695Y001905D01*
X006693Y001903D01*
X006689Y001880D01*
X006693Y001857D01*
X006707Y001837D01*
X006727Y001823D01*
X006750Y001819D01*
X006766Y001822D01*
X006768Y001821D01*
X006781Y001808D01*
X006782Y001806D01*
X006779Y001790D01*
X006783Y001767D01*
X006789Y001758D01*
X006779Y001738D01*
X006779D01*
Y001580D01*
X006779Y001568D01*
X006779D01*
X006780Y001560D01*
X006780D01*
Y001402D01*
X006780Y001390D01*
X006780D01*
Y001382D01*
X006780D01*
Y001212D01*
X006780D01*
X006779Y001203D01*
X006779D01*
X006779Y001192D01*
Y001045D01*
X006779Y001033D01*
X006779D01*
X006780Y001025D01*
X006780D01*
Y000855D01*
X006781D01*
X006791Y000835D01*
X006783Y000823D01*
X006778Y000800D01*
X006783Y000777D01*
X006796Y000757D01*
X006816Y000743D01*
X006840Y000739D01*
X006863Y000743D01*
X006883Y000757D01*
X006896Y000777D01*
X006901Y000800D01*
X006896Y000823D01*
X006888Y000835D01*
X006898Y000855D01*
X006900D01*
Y001014D01*
X006900Y001025D01*
X006900D01*
X006899Y001033D01*
X006899D01*
Y001083D01*
X006980D01*
Y001045D01*
X006979Y001025D01*
X006979Y001014D01*
Y000960D01*
X007099D01*
Y001014D01*
X007100Y001033D01*
X007100Y001045D01*
Y001173D01*
X007118Y001181D01*
X007156Y001143D01*
X007167Y001135D01*
X007170Y001135D01*
Y001033D01*
X007170D01*
X007169Y001025D01*
X007169D01*
X007169Y001014D01*
Y000855D01*
X007170D01*
X007180Y000835D01*
X007173Y000823D01*
X007168Y000800D01*
X007173Y000777D01*
X007186Y000757D01*
X007206Y000743D01*
X007229Y000739D01*
X007253Y000743D01*
X007272Y000757D01*
X007286Y000777D01*
X007290Y000800D01*
X007286Y000823D01*
X007278Y000835D01*
X007288Y000855D01*
X007289D01*
Y000864D01*
X007440D01*
X007446Y000844D01*
X007444Y000843D01*
X007431Y000823D01*
X007430Y000820D01*
X007545D01*
X007544Y000823D01*
X007531Y000843D01*
X007529Y000844D01*
X007535Y000864D01*
X007747D01*
X007761Y000867D01*
X007772Y000875D01*
X007890Y000993D01*
X007898Y001005D01*
X007900Y001014D01*
X007901Y001018D01*
X007911Y001033D01*
X007921Y001033D01*
X007943D01*
Y001118D01*
X007962D01*
Y001138D01*
X008022D01*
Y001192D01*
X008023Y001212D01*
X008023Y001223D01*
Y001277D01*
X007963D01*
Y001297D01*
X007943D01*
Y001382D01*
X007903Y001382D01*
X007901Y001401D01*
Y001412D01*
X007898Y001426D01*
X007890Y001437D01*
X007775Y001553D01*
X007775Y001554D01*
Y001611D01*
X007773Y001621D01*
X007787Y001641D01*
X007815D01*
X007831Y001621D01*
X007829Y001612D01*
X007834Y001589D01*
X007847Y001569D01*
X007867Y001556D01*
X007890Y001551D01*
X007914Y001556D01*
X007932Y001568D01*
X007942Y001573D01*
X007954D01*
X007972Y001560D01*
X007973Y001560D01*
X007971Y001540D01*
X007938D01*
Y001430D01*
X008158D01*
Y001540D01*
X008126D01*
X008124Y001560D01*
X008125Y001560D01*
X008143Y001573D01*
X008155Y001591D01*
X008159Y001612D01*
X008155Y001634D01*
X008143Y001652D01*
X008125Y001664D01*
X008117Y001666D01*
Y001686D01*
X008125Y001687D01*
X008143Y001700D01*
X008155Y001718D01*
X008159Y001739D01*
X008155Y001761D01*
X008143Y001779D01*
X008125Y001791D01*
X008117Y001793D01*
Y001813D01*
X008125Y001814D01*
X008143Y001827D01*
X008155Y001845D01*
X008159Y001866D01*
X008155Y001888D01*
X008143Y001906D01*
X008125Y001918D01*
X008117Y001920D01*
Y001940D01*
X008125Y001941D01*
X008143Y001954D01*
X008155Y001972D01*
X008159Y001993D01*
X008155Y002015D01*
X008143Y002033D01*
X008125Y002045D01*
X008117Y002047D01*
Y002067D01*
X008125Y002068D01*
X008143Y002081D01*
X008155Y002099D01*
X008159Y002120D01*
X008155Y002142D01*
X008143Y002160D01*
X008125Y002172D01*
X008117Y002174D01*
Y002194D01*
X008125Y002195D01*
X008143Y002208D01*
X008155Y002226D01*
X008159Y002247D01*
X008155Y002269D01*
X008143Y002287D01*
X008125Y002299D01*
X008117Y002301D01*
Y002321D01*
X008125Y002322D01*
X008143Y002335D01*
X008155Y002353D01*
X008159Y002374D01*
X008155Y002396D01*
X008143Y002414D01*
X008125Y002426D01*
X008103Y002430D01*
X007993D01*
X007972Y002426D01*
X007954Y002414D01*
X007941Y002396D01*
X007937Y002374D01*
X007941Y002353D01*
X007954Y002335D01*
X007972Y002322D01*
X007979Y002321D01*
Y002301D01*
X007972Y002299D01*
X007954Y002287D01*
X007941Y002269D01*
X007937Y002247D01*
X007941Y002226D01*
X007954Y002208D01*
X007972Y002195D01*
X007979Y002194D01*
Y002174D01*
X007972Y002172D01*
X007954Y002160D01*
X007941Y002142D01*
X007937Y002120D01*
X007941Y002099D01*
X007954Y002081D01*
X007972Y002068D01*
X007979Y002067D01*
Y002047D01*
X007972Y002045D01*
X007954Y002033D01*
X007941Y002015D01*
X007937Y001993D01*
X007941Y001972D01*
X007954Y001954D01*
X007972Y001941D01*
X007979Y001940D01*
Y001920D01*
X007972Y001918D01*
X007954Y001906D01*
X007941Y001888D01*
X007937Y001866D01*
X007941Y001845D01*
X007954Y001827D01*
X007972Y001814D01*
X007979Y001813D01*
Y001793D01*
X007972Y001791D01*
X007954Y001779D01*
X007941Y001761D01*
X007937Y001739D01*
X007941Y001718D01*
X007954Y001700D01*
X007972Y001687D01*
X007979Y001686D01*
Y001666D01*
X007972Y001664D01*
X007954Y001652D01*
X007942D01*
X007932Y001656D01*
X007914Y001669D01*
X007890Y001673D01*
X007881Y001672D01*
X007861Y001687D01*
Y002202D01*
X007861Y002204D01*
Y002222D01*
X007843D01*
X007841Y002222D01*
X007787D01*
X007773Y002242D01*
X007775Y002252D01*
Y002309D01*
X007771Y002329D01*
X007767Y002336D01*
X007798Y002367D01*
X007801Y002367D01*
X007821Y002353D01*
X007844Y002349D01*
X007868Y002353D01*
X007888Y002367D01*
X007901Y002387D01*
X007906Y002410D01*
X007901Y002433D01*
X007888Y002453D01*
X007868Y002467D01*
X007853Y002470D01*
Y002630D01*
X007853D01*
X007853Y002638D01*
X007853D01*
X007853Y002650D01*
Y002808D01*
X007733D01*
Y002759D01*
X007677D01*
Y002808D01*
X007557D01*
Y002649D01*
X007557Y002638D01*
X007557D01*
X007560Y002630D01*
X007560Y002630D01*
Y002529D01*
X007556Y002528D01*
X007545Y002520D01*
X007508Y002484D01*
X007490Y002491D01*
Y002619D01*
X007490Y002630D01*
X007490D01*
X007487Y002638D01*
X007487Y002638D01*
Y002808D01*
X007367D01*
Y002649D01*
X007367Y002638D01*
X007367D01*
X007370Y002630D01*
X007370Y002630D01*
Y002581D01*
X007290D01*
Y002630D01*
X007290D01*
X007291Y002638D01*
X007291D01*
X007290Y002650D01*
Y002808D01*
X007171D01*
Y002708D01*
X007161Y002706D01*
X007150Y002698D01*
X007119Y002668D01*
X007100Y002675D01*
Y002808D01*
X006981D01*
Y002808D01*
X006961Y002810D01*
X006961Y002810D01*
X006961Y002810D01*
X006942Y002830D01*
X006946Y002851D01*
X006950Y002855D01*
X008550Y002856D01*
X008687Y002718D01*
X008716Y002606D01*
X008718Y001847D01*
X008713Y001779D01*
X008687Y001719D01*
X008644Y001662D01*
X008041Y001059D01*
X008022Y001067D01*
Y001098D01*
X007982D01*
Y001033D01*
X007989D01*
X007997Y001015D01*
X007218Y000234D01*
X007142Y000168D01*
X007073Y000138D01*
X007015Y000130D01*
X004978Y000131D01*
X004901Y000146D01*
X004832Y000180D01*
X004762Y000254D01*
X004703Y000348D01*
X004622Y000421D01*
X004515Y000464D01*
X004431Y000481D01*
X004272Y000457D01*
X004206Y000420D01*
X004116Y000349D01*
X004080Y000292D01*
X004011Y000199D01*
X003964Y000165D01*
X003902Y000140D01*
X003842Y000127D01*
X003325Y000130D01*
X003225Y000163D01*
X003185Y000195D01*
X003146Y000236D01*
X003103Y000320D01*
X003093Y000384D01*
X003095Y001354D01*
X003074Y001448D01*
X003040Y001499D01*
X003010Y001529D01*
X002969Y001557D01*
X002909Y001580D01*
X002825Y001584D01*
X001891Y001586D01*
X001302D01*
X001152Y001585D01*
X000390D01*
X000340Y001586D01*
X000331Y001586D01*
X000313Y001588D01*
X000296Y001592D01*
X000289Y001594D01*
X000270Y001600D01*
X000270Y001600D01*
X000270Y001600D01*
X000252Y001606D01*
X000249Y001607D01*
X000235Y001614D01*
X000231Y001616D01*
X000215Y001627D01*
X000215D01*
X000215Y001627D01*
X000200Y001637D01*
X000186Y001648D01*
X000186D01*
X000186Y001648D01*
X000172Y001661D01*
X000169Y001664D01*
X000163Y001670D01*
X000160Y001674D01*
X000160Y001674D01*
X000151Y001685D01*
X000135Y001708D01*
X000121Y001732D01*
X000110Y001758D01*
X000106Y001772D01*
X000106Y001772D01*
X000095Y001819D01*
X000094Y001845D01*
Y004698D01*
X000147Y004799D01*
X000778Y005433D01*
X000797Y005425D01*
Y005372D01*
X000838D01*
Y005437D01*
X000809D01*
X000801Y005457D01*
X001576Y006237D01*
X001661Y006305D01*
X001715Y006334D01*
X001783Y006350D01*
X001852Y006355D01*
X003862D01*
X003953Y006318D01*
X003997Y006290D01*
X004032Y006255D01*
X004122Y006135D01*
X004272Y006025D01*
X004492Y006015D01*
X004662Y006095D01*
X004802Y006285D01*
X004858Y006320D01*
X004888Y006334D01*
X004922Y006345D01*
X005062Y006355D01*
X005437Y006352D01*
D02*
G37*
G36*
X002362Y003469D02*
X002363Y003454D01*
X002347Y003443D01*
X002333Y003423D01*
X002330Y003405D01*
X002300Y003375D01*
X002290Y003360D01*
X002287Y003342D01*
Y002942D01*
X002011Y002666D01*
X002002Y002668D01*
X001990Y002674D01*
X001987Y002693D01*
X001973Y002713D01*
X001953Y002727D01*
X001930Y002731D01*
X001907Y002727D01*
X001889Y002715D01*
X001862D01*
X001849Y002730D01*
Y002735D01*
X001849D01*
Y002842D01*
X001849Y002857D01*
X001849Y002877D01*
Y002969D01*
X001849Y002984D01*
X001849Y003004D01*
Y003096D01*
X001849Y003111D01*
X001849Y003131D01*
Y003223D01*
X001849Y003238D01*
X001849Y003258D01*
Y003365D01*
X001631D01*
Y003258D01*
X001631Y003243D01*
X001631Y003223D01*
Y003131D01*
X001631Y003116D01*
X001631Y003096D01*
Y003004D01*
X001631Y002989D01*
X001631Y002969D01*
X001631Y002873D01*
X001611Y002865D01*
X001536Y002940D01*
Y002952D01*
X001535Y002955D01*
Y003037D01*
X001486D01*
Y003085D01*
X001535D01*
Y003205D01*
X001365D01*
Y003085D01*
X001414D01*
Y003037D01*
X001365D01*
Y002917D01*
X001466D01*
X001467Y002912D01*
X001475Y002900D01*
X001509Y002865D01*
X001502Y002847D01*
X001365D01*
Y002727D01*
X001394D01*
X001394Y002726D01*
X001403Y002707D01*
X001393Y002693D01*
X001389Y002670D01*
X001393Y002647D01*
X001405Y002630D01*
X001402Y002618D01*
X001397Y002609D01*
X001360D01*
Y002539D01*
X001359Y002534D01*
Y002534D01*
X001338Y002513D01*
X001320Y002521D01*
Y002530D01*
X001255D01*
Y002490D01*
X001289D01*
X001297Y002472D01*
X001245Y002420D01*
X001150D01*
Y002406D01*
X000999D01*
X000983Y002422D01*
X000993Y002440D01*
X001000Y002439D01*
X001023Y002443D01*
X001043Y002457D01*
X001057Y002477D01*
X001057Y002480D01*
X001000D01*
Y002500D01*
X000980D01*
Y002557D01*
X000977Y002557D01*
X000957Y002543D01*
X000943Y002523D01*
X000939Y002500D01*
X000940Y002493D01*
X000922Y002483D01*
X000631Y002773D01*
X000624Y002791D01*
X000610Y002810D01*
X000591Y002824D01*
X000570Y002833D01*
X000547Y002836D01*
X000523Y002833D01*
X000502Y002824D01*
X000483Y002810D01*
X000470Y002793D01*
X000423D01*
X000410Y002810D01*
X000391Y002824D01*
X000370Y002833D01*
X000347Y002836D01*
X000323Y002833D01*
X000302Y002824D01*
X000283Y002810D01*
X000271Y002793D01*
X000265Y002793D01*
X000251Y002799D01*
Y002895D01*
X000265Y002900D01*
X000271Y002900D01*
X000283Y002884D01*
X000302Y002869D01*
X000323Y002860D01*
X000347Y002857D01*
X000370Y002860D01*
X000391Y002869D01*
X000410Y002884D01*
X000424Y002902D01*
X000433Y002924D01*
X000436Y002947D01*
X000433Y002970D01*
X000424Y002991D01*
X000410Y003010D01*
X000391Y003024D01*
X000370Y003033D01*
X000347Y003036D01*
X000323Y003033D01*
X000302Y003024D01*
X000283Y003010D01*
X000271Y002993D01*
X000265Y002993D01*
X000251Y002999D01*
Y003095D01*
X000265Y003100D01*
X000271Y003100D01*
X000283Y003084D01*
X000302Y003069D01*
X000323Y003060D01*
X000347Y003057D01*
X000370Y003060D01*
X000391Y003069D01*
X000410Y003084D01*
X000424Y003102D01*
X000433Y003124D01*
X000436Y003147D01*
X000433Y003170D01*
X000424Y003191D01*
X000410Y003210D01*
X000391Y003224D01*
X000370Y003233D01*
X000347Y003236D01*
X000323Y003233D01*
X000302Y003224D01*
X000283Y003210D01*
X000271Y003193D01*
X000265Y003193D01*
X000251Y003199D01*
Y003295D01*
X000265Y003300D01*
X000271Y003300D01*
X000283Y003284D01*
X000302Y003269D01*
X000323Y003260D01*
X000347Y003257D01*
X000370Y003260D01*
X000391Y003269D01*
X000410Y003284D01*
X000424Y003302D01*
X000433Y003324D01*
X000436Y003347D01*
X000433Y003370D01*
X000424Y003391D01*
X000416Y003402D01*
X000428Y003417D01*
X000429Y003417D01*
X000441Y003415D01*
X000441Y003415D01*
X000462D01*
X000472Y003395D01*
X000469Y003391D01*
X000460Y003370D01*
X000457Y003347D01*
X000460Y003324D01*
X000469Y003302D01*
X000483Y003284D01*
X000502Y003269D01*
X000523Y003260D01*
X000547Y003257D01*
X000570Y003260D01*
X000591Y003269D01*
X000610Y003284D01*
X000624Y003302D01*
X000633Y003324D01*
X000636Y003347D01*
X000633Y003370D01*
X000624Y003391D01*
X000635Y003410D01*
X001143D01*
X001155Y003395D01*
X001155Y003391D01*
X001153Y003371D01*
X000875D01*
X000861Y003368D01*
X000850Y003360D01*
X000819Y003329D01*
X000810Y003331D01*
X000787Y003327D01*
X000767Y003313D01*
X000753Y003293D01*
X000749Y003270D01*
X000753Y003247D01*
X000767Y003227D01*
X000787Y003213D01*
X000810Y003209D01*
X000833Y003213D01*
X000853Y003227D01*
X000867Y003247D01*
X000871Y003270D01*
X000869Y003279D01*
X000890Y003299D01*
X001155D01*
Y003275D01*
X001325D01*
Y003295D01*
X001365D01*
Y003275D01*
X001535D01*
Y003390D01*
X001535Y003395D01*
X001546Y003410D01*
X002206D01*
X002219Y003413D01*
X002231Y003420D01*
X002285Y003474D01*
X002360D01*
X002362Y003469D01*
D02*
G37*
G36*
X005502Y002880D02*
X005560D01*
Y002840D01*
X005502D01*
X005503Y002837D01*
X005509Y002828D01*
X005501Y002808D01*
X005501D01*
Y002708D01*
X005491Y002706D01*
X005480Y002698D01*
X005449Y002668D01*
X005431Y002675D01*
Y002808D01*
X005431D01*
X005421Y002828D01*
X005427Y002837D01*
X005431Y002860D01*
X005427Y002879D01*
X005438Y002899D01*
X005492D01*
X005502Y002880D01*
D02*
G37*
%LPC*%
G36*
X003444Y006200D02*
Y006101D01*
X003542D01*
X003541Y006113D01*
X003528Y006142D01*
X003509Y006167D01*
X003484Y006186D01*
X003455Y006198D01*
X003444Y006200D01*
D02*
G37*
G36*
X003404D02*
X003392Y006198D01*
X003363Y006186D01*
X003338Y006167D01*
X003319Y006142D01*
X003307Y006113D01*
X003305Y006101D01*
X003404D01*
Y006200D01*
D02*
G37*
G36*
Y006061D02*
X003305D01*
X003306Y006058D01*
X003287Y006048D01*
X003273Y006057D01*
X003270Y006057D01*
Y006000D01*
Y005943D01*
X003273Y005943D01*
X003293Y005957D01*
X003307Y005977D01*
X003311Y005998D01*
X003317Y006002D01*
X003330Y006005D01*
X003338Y005996D01*
X003363Y005976D01*
X003392Y005964D01*
X003404Y005963D01*
Y006061D01*
D02*
G37*
G36*
X003770Y006057D02*
Y006020D01*
X003807D01*
X003807Y006023D01*
X003793Y006043D01*
X003773Y006057D01*
X003770Y006057D01*
D02*
G37*
G36*
X003730D02*
X003727Y006057D01*
X003707Y006043D01*
X003693Y006023D01*
X003693Y006020D01*
X003730D01*
Y006057D01*
D02*
G37*
G36*
X003542Y006061D02*
X003444D01*
Y005963D01*
X003455Y005964D01*
X003484Y005976D01*
X003509Y005996D01*
X003528Y006021D01*
X003541Y006050D01*
X003542Y006061D01*
D02*
G37*
G36*
X003003Y006092D02*
X002953D01*
X002929Y006089D01*
X002907Y006080D01*
X002888Y006065D01*
X002874Y006047D01*
X002865Y006025D01*
X002862Y006001D01*
Y005951D01*
X003003D01*
Y006092D01*
D02*
G37*
G36*
X003807Y005980D02*
X003770D01*
Y005943D01*
X003773Y005943D01*
X003793Y005957D01*
X003807Y005977D01*
X003807Y005980D01*
D02*
G37*
G36*
X003730D02*
X003693D01*
X003693Y005977D01*
X003707Y005957D01*
X003727Y005943D01*
X003730Y005943D01*
Y005980D01*
D02*
G37*
G36*
X003093Y006092D02*
X003043D01*
Y005951D01*
X003183D01*
Y005956D01*
X003203Y005962D01*
X003207Y005957D01*
X003227Y005943D01*
X003230Y005943D01*
Y006000D01*
Y006057D01*
X003227Y006057D01*
X003207Y006043D01*
X003199Y006031D01*
X003177Y006033D01*
X003171Y006047D01*
X003157Y006065D01*
X003138Y006080D01*
X003116Y006089D01*
X003093Y006092D01*
D02*
G37*
G36*
X004811Y006153D02*
X004779Y006149D01*
X004750Y006137D01*
X004725Y006118D01*
X004706Y006093D01*
X004694Y006064D01*
X004689Y006032D01*
X004694Y006001D01*
X004706Y005972D01*
X004725Y005947D01*
X004750Y005928D01*
X004779Y005915D01*
X004811Y005911D01*
X004842Y005915D01*
X004871Y005928D01*
X004896Y005947D01*
X004915Y005972D01*
X004927Y006001D01*
X004932Y006032D01*
X004927Y006064D01*
X004915Y006093D01*
X004896Y006118D01*
X004871Y006137D01*
X004842Y006149D01*
X004811Y006153D01*
D02*
G37*
G36*
X005445Y006316D02*
X005402Y006312D01*
X005360Y006299D01*
X005322Y006279D01*
X005289Y006251D01*
X005261Y006218D01*
X005241Y006180D01*
X005228Y006138D01*
X005224Y006095D01*
X005228Y006052D01*
X005241Y006010D01*
X005261Y005972D01*
X005289Y005939D01*
X005322Y005911D01*
X005360Y005891D01*
X005402Y005878D01*
X005445Y005874D01*
X005488Y005878D01*
X005530Y005891D01*
X005568Y005911D01*
X005601Y005939D01*
X005629Y005972D01*
X005649Y006010D01*
X005662Y006052D01*
X005666Y006095D01*
X005662Y006138D01*
X005649Y006180D01*
X005629Y006218D01*
X005601Y006251D01*
X005568Y006279D01*
X005530Y006299D01*
X005488Y006312D01*
X005445Y006316D01*
D02*
G37*
G36*
X001799D02*
X001755Y006312D01*
X001714Y006299D01*
X001676Y006279D01*
X001642Y006251D01*
X001615Y006218D01*
X001594Y006180D01*
X001582Y006138D01*
X001577Y006095D01*
X001582Y006052D01*
X001594Y006010D01*
X001615Y005972D01*
X001642Y005939D01*
X001676Y005911D01*
X001714Y005891D01*
X001755Y005878D01*
X001799Y005874D01*
X001842Y005878D01*
X001883Y005891D01*
X001921Y005911D01*
X001955Y005939D01*
X001982Y005972D01*
X002003Y006010D01*
X002015Y006052D01*
X002020Y006095D01*
X002015Y006138D01*
X002003Y006180D01*
X001982Y006218D01*
X001955Y006251D01*
X001921Y006279D01*
X001883Y006299D01*
X001842Y006312D01*
X001799Y006316D01*
D02*
G37*
G36*
X005050Y005867D02*
Y005830D01*
X005087D01*
X005087Y005833D01*
X005073Y005853D01*
X005053Y005867D01*
X005050Y005867D01*
D02*
G37*
G36*
X005010D02*
X005007Y005867D01*
X004987Y005853D01*
X004973Y005833D01*
X004973Y005830D01*
X005010D01*
Y005867D01*
D02*
G37*
G36*
X003444Y005900D02*
Y005801D01*
X003542D01*
X003541Y005813D01*
X003528Y005842D01*
X003509Y005867D01*
X003484Y005886D01*
X003455Y005898D01*
X003444Y005900D01*
D02*
G37*
G36*
X003404D02*
X003392Y005898D01*
X003363Y005886D01*
X003338Y005867D01*
X003319Y005842D01*
X003307Y005813D01*
X003305Y005801D01*
X003404D01*
Y005900D01*
D02*
G37*
G36*
X003183Y005911D02*
X003043D01*
Y005770D01*
X003093D01*
X003116Y005774D01*
X003138Y005783D01*
X003157Y005797D01*
X003171Y005816D01*
X003180Y005838D01*
X003183Y005861D01*
Y005911D01*
D02*
G37*
G36*
X003003D02*
X002862D01*
Y005861D01*
X002865Y005838D01*
X002874Y005816D01*
X002888Y005797D01*
X002907Y005783D01*
X002929Y005774D01*
X002953Y005770D01*
X003003D01*
Y005911D01*
D02*
G37*
G36*
X005087Y005790D02*
X005050D01*
Y005753D01*
X005053Y005753D01*
X005073Y005767D01*
X005087Y005787D01*
X005087Y005790D01*
D02*
G37*
G36*
X005010D02*
X004973D01*
X004973Y005787D01*
X004987Y005767D01*
X005007Y005753D01*
X005010Y005753D01*
Y005790D01*
D02*
G37*
G36*
X001430Y005767D02*
Y005730D01*
X001467D01*
X001467Y005733D01*
X001453Y005753D01*
X001433Y005767D01*
X001430Y005767D01*
D02*
G37*
G36*
X001390D02*
X001387Y005767D01*
X001367Y005753D01*
X001353Y005733D01*
X001353Y005730D01*
X001390D01*
Y005767D01*
D02*
G37*
G36*
X003542Y005761D02*
X003444D01*
Y005663D01*
X003455Y005664D01*
X003484Y005676D01*
X003509Y005696D01*
X003528Y005721D01*
X003541Y005750D01*
X003542Y005761D01*
D02*
G37*
G36*
X003404D02*
X003305D01*
X003307Y005750D01*
X003319Y005721D01*
X003338Y005696D01*
X003363Y005676D01*
X003392Y005664D01*
X003404Y005663D01*
Y005761D01*
D02*
G37*
G36*
X001467Y005690D02*
X001430D01*
Y005653D01*
X001433Y005653D01*
X001453Y005667D01*
X001467Y005687D01*
X001467Y005690D01*
D02*
G37*
G36*
X001390D02*
X001353D01*
X001353Y005687D01*
X001367Y005667D01*
X001387Y005653D01*
X001390Y005653D01*
Y005690D01*
D02*
G37*
G36*
X001780Y005771D02*
X001757Y005767D01*
X001737Y005753D01*
X001723Y005733D01*
X001719Y005710D01*
X001723Y005687D01*
X001737Y005667D01*
X001757Y005653D01*
X001780Y005649D01*
X001803Y005653D01*
X001823Y005667D01*
X001837Y005687D01*
X001841Y005710D01*
X001837Y005733D01*
X001823Y005753D01*
X001803Y005767D01*
X001780Y005771D01*
D02*
G37*
G36*
X002355Y006252D02*
X002315D01*
X002289Y006249D01*
X002265Y006239D01*
X002244Y006223D01*
X002228Y006202D01*
X002218Y006177D01*
X002215Y006151D01*
X002218Y006125D01*
X002228Y006101D01*
X002244Y006080D01*
X002265Y006064D01*
X002289Y006054D01*
X002308Y006051D01*
Y006031D01*
X002289Y006029D01*
X002265Y006019D01*
X002244Y006003D01*
X002228Y005982D01*
X002218Y005957D01*
X002215Y005931D01*
X002218Y005905D01*
X002228Y005881D01*
X002244Y005860D01*
X002265Y005844D01*
X002289Y005834D01*
X002308Y005831D01*
Y005811D01*
X002289Y005809D01*
X002265Y005799D01*
X002244Y005783D01*
X002228Y005762D01*
X002218Y005737D01*
X002215Y005711D01*
X002218Y005685D01*
X002228Y005661D01*
X002244Y005640D01*
X002265Y005624D01*
X002289Y005614D01*
X002315Y005610D01*
X002355D01*
X002382Y005614D01*
X002406Y005624D01*
X002427Y005640D01*
X002443Y005661D01*
X002453Y005685D01*
X002456Y005711D01*
X002453Y005737D01*
X002443Y005762D01*
X002427Y005783D01*
X002406Y005799D01*
X002382Y005809D01*
X002363Y005811D01*
Y005831D01*
X002382Y005834D01*
X002406Y005844D01*
X002427Y005860D01*
X002443Y005881D01*
X002453Y005905D01*
X002456Y005931D01*
X002453Y005957D01*
X002443Y005982D01*
X002427Y006003D01*
X002406Y006019D01*
X002382Y006029D01*
X002363Y006031D01*
Y006051D01*
X002382Y006054D01*
X002406Y006064D01*
X002427Y006080D01*
X002443Y006101D01*
X002453Y006125D01*
X002456Y006151D01*
X002453Y006177D01*
X002443Y006202D01*
X002427Y006223D01*
X002406Y006239D01*
X002382Y006249D01*
X002355Y006252D01*
D02*
G37*
G36*
X005570Y005615D02*
X005530D01*
Y005550D01*
X005570D01*
Y005615D01*
D02*
G37*
G36*
X003900D02*
X003860D01*
Y005550D01*
X003900D01*
Y005615D01*
D02*
G37*
G36*
X002230D02*
X002190D01*
Y005550D01*
X002230D01*
Y005615D01*
D02*
G37*
G36*
X002150D02*
X002110D01*
Y005550D01*
X002150D01*
Y005615D01*
D02*
G37*
G36*
X005490D02*
X005450D01*
Y005550D01*
X005490D01*
Y005615D01*
D02*
G37*
G36*
X003511Y005615D02*
X003471D01*
Y005550D01*
X003511D01*
Y005615D01*
D02*
G37*
G36*
X001841D02*
X001801D01*
Y005550D01*
X001841D01*
Y005615D01*
D02*
G37*
G36*
X003431D02*
X003391D01*
Y005550D01*
X003431D01*
Y005615D01*
D02*
G37*
G36*
X005120Y005741D02*
X005097Y005737D01*
X005077Y005723D01*
X005064Y005703D01*
X005059Y005680D01*
X005064Y005657D01*
X005077Y005637D01*
X005080Y005635D01*
X005074Y005615D01*
X005061D01*
Y005550D01*
X005121D01*
X005181D01*
Y005615D01*
X005167D01*
X005161Y005635D01*
X005164Y005637D01*
X005177Y005657D01*
X005182Y005680D01*
X005177Y005703D01*
X005164Y005723D01*
X005144Y005737D01*
X005120Y005741D01*
D02*
G37*
G36*
X001761Y005615D02*
X001721D01*
Y005550D01*
X001761D01*
Y005615D01*
D02*
G37*
G36*
X004020Y005557D02*
Y005520D01*
X004057D01*
X004057Y005523D01*
X004043Y005543D01*
X004023Y005557D01*
X004020Y005557D01*
D02*
G37*
G36*
X003980D02*
X003977Y005557D01*
X003957Y005543D01*
X003943Y005523D01*
X003943Y005520D01*
X003980D01*
Y005557D01*
D02*
G37*
G36*
X002310Y005497D02*
Y005460D01*
X002347D01*
X002347Y005463D01*
X002333Y005483D01*
X002313Y005497D01*
X002310Y005497D01*
D02*
G37*
G36*
X004057Y005480D02*
X004020D01*
Y005443D01*
X004023Y005443D01*
X004043Y005457D01*
X004057Y005477D01*
X004057Y005480D01*
D02*
G37*
G36*
X003980D02*
X003943D01*
X003943Y005477D01*
X003957Y005457D01*
X003977Y005443D01*
X003980Y005443D01*
Y005480D01*
D02*
G37*
G36*
X002347Y005420D02*
X002310D01*
Y005383D01*
X002313Y005383D01*
X002333Y005397D01*
X002347Y005417D01*
X002347Y005420D01*
D02*
G37*
G36*
X002230Y005510D02*
X002170D01*
X002110D01*
Y005456D01*
X002110Y005445D01*
X002110D01*
X002111Y005437D01*
X002111D01*
Y005372D01*
X002171D01*
X002231D01*
Y005385D01*
X002236Y005389D01*
X002251Y005394D01*
X002267Y005383D01*
X002270Y005383D01*
Y005440D01*
Y005497D01*
X002267Y005497D01*
X002250Y005486D01*
X002237Y005490D01*
X002230Y005495D01*
Y005510D01*
D02*
G37*
G36*
X004178Y005437D02*
X004138D01*
Y005372D01*
X004178D01*
Y005437D01*
D02*
G37*
G36*
X002508D02*
X002468D01*
Y005372D01*
X002508D01*
Y005437D01*
D02*
G37*
G36*
X003900Y005510D02*
X003840D01*
X003780D01*
Y005456D01*
X003780Y005445D01*
X003781Y005425D01*
Y005372D01*
X003841D01*
X003901D01*
Y005425D01*
X003901Y005437D01*
X003900Y005456D01*
Y005510D01*
D02*
G37*
G36*
X005570D02*
X005510D01*
X005450D01*
Y005456D01*
X005450Y005445D01*
X005451Y005425D01*
Y005372D01*
X005511D01*
X005571D01*
Y005425D01*
X005571Y005437D01*
X005570Y005456D01*
Y005457D01*
Y005510D01*
D02*
G37*
G36*
X005571Y005332D02*
X005511D01*
X005451D01*
Y005278D01*
X005450Y005258D01*
X005450Y005247D01*
Y005100D01*
X005450Y005088D01*
X005450Y005068D01*
Y004921D01*
X005450Y004910D01*
X005451Y004890D01*
Y004837D01*
X005511D01*
Y004817D01*
X005531D01*
Y004732D01*
X005571D01*
Y004753D01*
X005590Y004764D01*
X005597Y004760D01*
X005600Y004759D01*
Y004817D01*
Y004874D01*
X005597Y004873D01*
X005590Y004869D01*
X005571Y004880D01*
X005571Y004902D01*
X005570Y004921D01*
Y004927D01*
X005590Y004938D01*
X005597Y004933D01*
X005620Y004929D01*
X005643Y004933D01*
X005663Y004947D01*
X005677Y004967D01*
X005681Y004990D01*
X005677Y005013D01*
X005663Y005033D01*
X005643Y005047D01*
X005620Y005051D01*
X005597Y005047D01*
X005590Y005042D01*
X005570Y005053D01*
X005570Y005080D01*
X005570Y005107D01*
X005590Y005118D01*
X005597Y005113D01*
X005620Y005109D01*
X005643Y005113D01*
X005663Y005127D01*
X005677Y005147D01*
X005681Y005170D01*
X005677Y005193D01*
X005663Y005213D01*
X005643Y005227D01*
X005620Y005231D01*
X005597Y005227D01*
X005590Y005222D01*
X005570Y005233D01*
Y005247D01*
X005571Y005267D01*
X005571Y005278D01*
Y005332D01*
D02*
G37*
G36*
X004177Y005153D02*
X004137D01*
Y005088D01*
X004177D01*
Y005153D01*
D02*
G37*
G36*
X002507D02*
X002467D01*
Y005088D01*
X002507D01*
Y005153D01*
D02*
G37*
G36*
X000837D02*
X000797D01*
Y005088D01*
X000837D01*
Y005153D01*
D02*
G37*
G36*
X005640Y004874D02*
Y004837D01*
X005677D01*
X005677Y004840D01*
X005663Y004860D01*
X005643Y004873D01*
X005640Y004874D01*
D02*
G37*
G36*
X000547Y004836D02*
X000523Y004833D01*
X000502Y004824D01*
X000483Y004810D01*
X000470Y004793D01*
X000435D01*
Y004835D01*
X000258D01*
Y004658D01*
X000435D01*
Y004701D01*
X000470D01*
X000483Y004684D01*
X000502Y004669D01*
X000523Y004660D01*
X000547Y004657D01*
X000570Y004660D01*
X000591Y004669D01*
X000610Y004684D01*
X000624Y004702D01*
X000633Y004724D01*
X000636Y004747D01*
X000633Y004770D01*
X000624Y004791D01*
X000610Y004810D01*
X000591Y004824D01*
X000570Y004833D01*
X000547Y004836D01*
D02*
G37*
G36*
X005677Y004797D02*
X005640D01*
Y004759D01*
X005643Y004760D01*
X005663Y004773D01*
X005677Y004793D01*
X005677Y004797D01*
D02*
G37*
G36*
X005491Y004797D02*
X005451D01*
Y004732D01*
X005491D01*
Y004797D01*
D02*
G37*
G36*
X003901D02*
X003860D01*
Y004732D01*
X003901D01*
Y004797D01*
D02*
G37*
G36*
X003821D02*
X003781D01*
Y004732D01*
X003821D01*
Y004797D01*
D02*
G37*
G36*
X002231D02*
X002191D01*
Y004732D01*
X002231D01*
Y004797D01*
D02*
G37*
G36*
X002150D02*
X002110D01*
Y004732D01*
X002150D01*
Y004797D01*
D02*
G37*
G36*
X003926Y004717D02*
X003923Y004717D01*
X003903Y004703D01*
X003890Y004683D01*
X003889Y004680D01*
X003926D01*
Y004717D01*
D02*
G37*
G36*
X002270D02*
X002267Y004717D01*
X002247Y004703D01*
X002233Y004683D01*
X002233Y004680D01*
X002270D01*
Y004717D01*
D02*
G37*
G36*
X003926Y004640D02*
X003889D01*
X003890Y004637D01*
X003903Y004617D01*
X003923Y004603D01*
X003926Y004603D01*
Y004640D01*
D02*
G37*
G36*
X002270D02*
X002233D01*
X002233Y004637D01*
X002247Y004617D01*
X002267Y004603D01*
X002270Y004603D01*
Y004640D01*
D02*
G37*
G36*
X000547Y004636D02*
X000523Y004633D01*
X000502Y004624D01*
X000483Y004610D01*
X000470Y004593D01*
X000423D01*
X000410Y004610D01*
X000391Y004624D01*
X000370Y004633D01*
X000347Y004636D01*
X000323Y004633D01*
X000302Y004624D01*
X000283Y004610D01*
X000269Y004591D01*
X000260Y004570D01*
X000257Y004547D01*
X000260Y004524D01*
X000269Y004502D01*
X000283Y004484D01*
X000302Y004469D01*
X000323Y004460D01*
X000347Y004457D01*
X000370Y004460D01*
X000391Y004469D01*
X000410Y004484D01*
X000423Y004501D01*
X000470D01*
X000483Y004484D01*
X000502Y004469D01*
X000523Y004460D01*
X000547Y004457D01*
X000570Y004460D01*
X000591Y004469D01*
X000610Y004484D01*
X000624Y004502D01*
X000633Y004524D01*
X000636Y004547D01*
X000633Y004570D01*
X000624Y004591D01*
X000610Y004610D01*
X000591Y004624D01*
X000570Y004633D01*
X000547Y004636D01*
D02*
G37*
G36*
X005570Y004545D02*
X005530D01*
Y004480D01*
X005570D01*
Y004545D01*
D02*
G37*
G36*
X003900D02*
X003860D01*
Y004480D01*
X003900D01*
Y004545D01*
D02*
G37*
G36*
X002230D02*
X002190D01*
Y004480D01*
X002230D01*
Y004545D01*
D02*
G37*
G36*
X000547Y004436D02*
X000523Y004433D01*
X000502Y004424D01*
X000483Y004410D01*
X000470Y004393D01*
X000423D01*
X000410Y004410D01*
X000391Y004424D01*
X000370Y004433D01*
X000347Y004436D01*
X000323Y004433D01*
X000302Y004424D01*
X000283Y004410D01*
X000269Y004391D01*
X000260Y004370D01*
X000257Y004347D01*
X000260Y004324D01*
X000269Y004302D01*
X000283Y004284D01*
X000302Y004269D01*
X000323Y004260D01*
X000347Y004257D01*
X000370Y004260D01*
X000391Y004269D01*
X000410Y004284D01*
X000423Y004301D01*
X000470D01*
X000483Y004284D01*
X000502Y004269D01*
X000523Y004260D01*
X000547Y004257D01*
X000570Y004260D01*
X000591Y004269D01*
X000610Y004284D01*
X000624Y004302D01*
X000633Y004324D01*
X000636Y004347D01*
X000633Y004370D01*
X000624Y004391D01*
X000610Y004410D01*
X000591Y004424D01*
X000570Y004433D01*
X000547Y004436D01*
D02*
G37*
G36*
X005570Y004440D02*
X005450D01*
Y004386D01*
X005450Y004375D01*
X005451Y004355D01*
Y004208D01*
X005451Y004197D01*
X005451Y004177D01*
Y004123D01*
X005511D01*
Y004083D01*
X005451D01*
Y004030D01*
X005451Y004018D01*
X005451Y003998D01*
Y003945D01*
X005511D01*
X005571D01*
Y003998D01*
X005571Y004010D01*
X005571Y004040D01*
X005590Y004051D01*
X005597Y004047D01*
X005600Y004046D01*
Y004103D01*
Y004161D01*
X005597Y004160D01*
X005590Y004156D01*
X005571Y004167D01*
X005571Y004188D01*
X005571Y004217D01*
X005590Y004228D01*
X005597Y004223D01*
X005620Y004219D01*
X005643Y004223D01*
X005663Y004237D01*
X005677Y004257D01*
X005681Y004280D01*
X005677Y004303D01*
X005663Y004323D01*
X005643Y004337D01*
X005620Y004341D01*
X005597Y004337D01*
X005590Y004332D01*
X005571Y004343D01*
X005571Y004367D01*
X005570Y004386D01*
Y004440D01*
D02*
G37*
G36*
X005640Y004161D02*
Y004123D01*
X005677D01*
X005677Y004127D01*
X005663Y004147D01*
X005643Y004160D01*
X005640Y004161D01*
D02*
G37*
G36*
X005677Y004083D02*
X005640D01*
Y004046D01*
X005643Y004047D01*
X005663Y004060D01*
X005677Y004080D01*
X005677Y004083D01*
D02*
G37*
G36*
X000897Y004010D02*
X000857D01*
Y003945D01*
X000897D01*
Y004010D01*
D02*
G37*
G36*
X002567D02*
X002527D01*
Y003945D01*
X002567D01*
Y004010D01*
D02*
G37*
G36*
X004237D02*
X004197D01*
Y003945D01*
X004237D01*
Y004010D01*
D02*
G37*
G36*
X000817D02*
X000777D01*
Y003945D01*
X000817D01*
Y004010D01*
D02*
G37*
G36*
X004057Y003982D02*
X004054Y003982D01*
X004034Y003968D01*
X004021Y003949D01*
X004020Y003945D01*
X004057D01*
Y003982D01*
D02*
G37*
G36*
X002380D02*
X002377Y003982D01*
X002357Y003968D01*
X002343Y003949D01*
X002343Y003945D01*
X002380D01*
Y003982D01*
D02*
G37*
G36*
X003901Y004083D02*
X003840D01*
X003781D01*
Y004030D01*
X003781Y004018D01*
X003781Y003998D01*
Y003945D01*
X003840D01*
X003901D01*
Y003998D01*
X003901Y004010D01*
X003901Y004030D01*
Y004083D01*
D02*
G37*
G36*
X002231D02*
X002170D01*
X002110D01*
Y004030D01*
X002110Y004018D01*
X002110Y003998D01*
Y003945D01*
X002170D01*
X002231D01*
Y003998D01*
X002231Y004010D01*
X002231Y004030D01*
Y004083D01*
D02*
G37*
G36*
X000547Y004036D02*
X000523Y004033D01*
X000502Y004024D01*
X000483Y004010D01*
X000469Y003991D01*
X000460Y003970D01*
X000457Y003947D01*
X000460Y003924D01*
X000469Y003902D01*
X000483Y003884D01*
X000502Y003869D01*
X000523Y003860D01*
X000547Y003857D01*
X000570Y003860D01*
X000591Y003869D01*
X000610Y003884D01*
X000624Y003902D01*
X000633Y003924D01*
X000636Y003947D01*
X000633Y003970D01*
X000624Y003991D01*
X000610Y004010D01*
X000591Y004024D01*
X000570Y004033D01*
X000547Y004036D01*
D02*
G37*
G36*
X000897Y003905D02*
X000837D01*
X000777D01*
Y003852D01*
X000777Y003832D01*
X000777Y003820D01*
Y003767D01*
X000837D01*
X000897D01*
Y003820D01*
X000897Y003840D01*
X000897Y003852D01*
Y003905D01*
D02*
G37*
G36*
X005571Y003905D02*
X005511D01*
X005451D01*
Y003852D01*
X005450Y003832D01*
X005450Y003820D01*
Y003662D01*
X005570D01*
Y003684D01*
X005590Y003695D01*
X005597Y003690D01*
X005620Y003686D01*
X005643Y003690D01*
X005663Y003704D01*
X005677Y003723D01*
X005681Y003747D01*
X005677Y003770D01*
X005663Y003790D01*
X005643Y003803D01*
X005620Y003808D01*
X005597Y003803D01*
X005590Y003799D01*
X005570Y003810D01*
Y003820D01*
X005571Y003840D01*
X005571Y003852D01*
Y003905D01*
D02*
G37*
G36*
X000897Y003727D02*
X000857D01*
Y003662D01*
X000897D01*
Y003727D01*
D02*
G37*
G36*
X000817D02*
X000777D01*
Y003662D01*
X000817D01*
Y003727D01*
D02*
G37*
G36*
X008043Y002808D02*
X008003D01*
Y002743D01*
X008043D01*
Y002808D01*
D02*
G37*
G36*
X007963D02*
X007923D01*
Y002743D01*
X007963D01*
Y002808D01*
D02*
G37*
G36*
X008147Y002784D02*
X008124Y002780D01*
X008104Y002766D01*
X008090Y002747D01*
X008086Y002723D01*
X008090Y002700D01*
X008104Y002680D01*
X008124Y002667D01*
X008147Y002662D01*
X008170Y002667D01*
X008190Y002680D01*
X008204Y002700D01*
X008208Y002723D01*
X008204Y002747D01*
X008190Y002766D01*
X008170Y002780D01*
X008147Y002784D01*
D02*
G37*
G36*
X000567Y002634D02*
Y002567D01*
X000633D01*
X000633Y002570D01*
X000624Y002591D01*
X000610Y002610D01*
X000591Y002624D01*
X000570Y002633D01*
X000567Y002634D01*
D02*
G37*
G36*
X000527D02*
X000523Y002633D01*
X000502Y002624D01*
X000483Y002610D01*
X000469Y002591D01*
X000460Y002570D01*
X000460Y002567D01*
X000527D01*
Y002634D01*
D02*
G37*
G36*
X000367D02*
Y002567D01*
X000433D01*
X000433Y002570D01*
X000424Y002591D01*
X000410Y002610D01*
X000391Y002624D01*
X000370Y002633D01*
X000367Y002634D01*
D02*
G37*
G36*
X008043Y002703D02*
X007923D01*
Y002650D01*
X007923Y002630D01*
X007923Y002618D01*
Y002565D01*
X008043D01*
Y002618D01*
X008043Y002638D01*
X008043Y002650D01*
Y002703D01*
D02*
G37*
G36*
X006433Y002597D02*
Y002560D01*
X006470D01*
X006469Y002563D01*
X006456Y002583D01*
X006436Y002597D01*
X006433Y002597D01*
D02*
G37*
G36*
X004780D02*
Y002560D01*
X004817D01*
X004817Y002563D01*
X004803Y002583D01*
X004783Y002597D01*
X004780Y002597D01*
D02*
G37*
G36*
X002520Y002557D02*
Y002520D01*
X002557D01*
X002557Y002523D01*
X002543Y002543D01*
X002523Y002557D01*
X002520Y002557D01*
D02*
G37*
G36*
X002480D02*
X002477Y002557D01*
X002457Y002543D01*
X002443Y002523D01*
X002443Y002520D01*
X002480D01*
Y002557D01*
D02*
G37*
G36*
X006470Y002520D02*
X006433D01*
Y002483D01*
X006436Y002483D01*
X006456Y002497D01*
X006469Y002517D01*
X006470Y002520D01*
D02*
G37*
G36*
X004817D02*
X004780D01*
Y002483D01*
X004783Y002483D01*
X004803Y002497D01*
X004817Y002517D01*
X004817Y002520D01*
D02*
G37*
G36*
X000633Y002527D02*
X000567D01*
Y002460D01*
X000570Y002460D01*
X000591Y002469D01*
X000610Y002484D01*
X000624Y002502D01*
X000633Y002524D01*
X000633Y002527D01*
D02*
G37*
G36*
X000527D02*
X000460D01*
X000460Y002524D01*
X000469Y002502D01*
X000483Y002484D01*
X000502Y002469D01*
X000523Y002460D01*
X000527Y002460D01*
Y002527D01*
D02*
G37*
G36*
X000433D02*
X000367D01*
Y002460D01*
X000370Y002460D01*
X000391Y002469D01*
X000410Y002484D01*
X000424Y002502D01*
X000433Y002524D01*
X000433Y002527D01*
D02*
G37*
G36*
X008043Y002525D02*
X008003D01*
Y002460D01*
X008043D01*
Y002525D01*
D02*
G37*
G36*
X007963D02*
X007923D01*
Y002460D01*
X007963D01*
Y002525D01*
D02*
G37*
G36*
X006293D02*
X006253D01*
Y002460D01*
X006293D01*
Y002525D01*
D02*
G37*
G36*
X004623D02*
X004583D01*
Y002460D01*
X004623D01*
Y002525D01*
D02*
G37*
G36*
X002557Y002480D02*
X002520D01*
Y002443D01*
X002523Y002443D01*
X002543Y002457D01*
X002557Y002477D01*
X002557Y002480D01*
D02*
G37*
G36*
X002480D02*
X002443D01*
X002443Y002477D01*
X002457Y002457D01*
X002477Y002443D01*
X002480Y002443D01*
Y002480D01*
D02*
G37*
G36*
X006710Y002525D02*
X006589D01*
Y002472D01*
X006589Y002460D01*
X006589Y002440D01*
Y002387D01*
X006710D01*
Y002440D01*
X006710Y002452D01*
X006710Y002472D01*
Y002525D01*
D02*
G37*
G36*
X005040D02*
X004919D01*
Y002472D01*
X004919Y002460D01*
X004919Y002440D01*
Y002387D01*
X005040D01*
Y002440D01*
X005040Y002452D01*
X005040Y002472D01*
Y002525D01*
D02*
G37*
G36*
X003369D02*
X003249D01*
Y002472D01*
X003249Y002460D01*
X003249Y002440D01*
Y002387D01*
X003369D01*
Y002440D01*
X003369Y002452D01*
X003369Y002472D01*
Y002525D01*
D02*
G37*
G36*
X008395Y002766D02*
X008352Y002762D01*
X008311Y002749D01*
X008272Y002729D01*
X008239Y002701D01*
X008211Y002668D01*
X008191Y002629D01*
X008178Y002588D01*
X008174Y002545D01*
X008178Y002502D01*
X008191Y002460D01*
X008211Y002422D01*
X008239Y002388D01*
X008272Y002361D01*
X008311Y002340D01*
X008352Y002328D01*
X008395Y002324D01*
X008438Y002328D01*
X008480Y002340D01*
X008518Y002361D01*
X008551Y002388D01*
X008579Y002422D01*
X008599Y002460D01*
X008612Y002502D01*
X008616Y002545D01*
X008612Y002588D01*
X008599Y002629D01*
X008579Y002668D01*
X008551Y002701D01*
X008518Y002729D01*
X008480Y002749D01*
X008438Y002762D01*
X008395Y002766D01*
D02*
G37*
G36*
X000547Y002436D02*
X000523Y002433D01*
X000502Y002424D01*
X000483Y002410D01*
X000469Y002391D01*
X000460Y002370D01*
X000457Y002347D01*
X000460Y002324D01*
X000469Y002302D01*
X000483Y002284D01*
X000502Y002269D01*
X000523Y002260D01*
X000547Y002257D01*
X000570Y002260D01*
X000591Y002269D01*
X000610Y002284D01*
X000624Y002302D01*
X000633Y002324D01*
X000636Y002347D01*
X000633Y002370D01*
X000624Y002391D01*
X000610Y002410D01*
X000591Y002424D01*
X000570Y002433D01*
X000547Y002436D01*
D02*
G37*
G36*
X002512Y002360D02*
X002412D01*
Y002220D01*
X002512D01*
Y002360D01*
D02*
G37*
G36*
X002372D02*
X002272D01*
Y002220D01*
X002372D01*
Y002360D01*
D02*
G37*
G36*
X002190D02*
X002090D01*
Y002220D01*
X002190D01*
Y002360D01*
D02*
G37*
G36*
X002050D02*
X001950D01*
Y002220D01*
X002050D01*
Y002360D01*
D02*
G37*
G36*
X002512Y002180D02*
X002412D01*
Y002040D01*
X002512D01*
Y002180D01*
D02*
G37*
G36*
X002372D02*
X002272D01*
Y002040D01*
X002372D01*
Y002180D01*
D02*
G37*
G36*
X002880Y002360D02*
X002640D01*
Y002040D01*
X002880D01*
Y002154D01*
X003152D01*
X003157Y002147D01*
X003177Y002133D01*
X003200Y002129D01*
X003223Y002133D01*
X003229Y002138D01*
X003249Y002127D01*
X003249Y002103D01*
X003250Y002084D01*
Y002030D01*
X003310D01*
X003370D01*
Y002084D01*
X003370Y002095D01*
X003369Y002115D01*
Y002262D01*
X003369Y002273D01*
X003369Y002293D01*
Y002347D01*
X003249D01*
Y002293D01*
X003249Y002282D01*
X003249Y002253D01*
X003229Y002242D01*
X003223Y002247D01*
X003200Y002251D01*
X003177Y002247D01*
X003157Y002233D01*
X003152Y002226D01*
X002880D01*
Y002360D01*
D02*
G37*
G36*
X008270Y002057D02*
Y002020D01*
X008307D01*
X008307Y002023D01*
X008293Y002043D01*
X008273Y002057D01*
X008270Y002057D01*
D02*
G37*
G36*
X008230D02*
X008227Y002057D01*
X008207Y002043D01*
X008193Y002023D01*
X008193Y002020D01*
X008230D01*
Y002057D01*
D02*
G37*
G36*
X002190Y002180D02*
X001950D01*
Y002040D01*
X002062D01*
X002064Y002020D01*
X002057Y002019D01*
X002047Y002017D01*
X002027Y002003D01*
X002013Y001983D01*
X002013Y001980D01*
X002127D01*
X002127Y001983D01*
X002113Y002003D01*
X002093Y002017D01*
X002083Y002019D01*
X002076Y002020D01*
X002078Y002040D01*
X002190D01*
Y002180D01*
D02*
G37*
G36*
X008307Y001980D02*
X008270D01*
Y001943D01*
X008273Y001943D01*
X008293Y001957D01*
X008307Y001977D01*
X008307Y001980D01*
D02*
G37*
G36*
X008230D02*
X008193D01*
X008193Y001977D01*
X008207Y001957D01*
X008227Y001943D01*
X008230Y001943D01*
Y001980D01*
D02*
G37*
G36*
X004960Y001990D02*
X004920D01*
Y001953D01*
X004900Y001942D01*
X004893Y001947D01*
X004890Y001947D01*
Y001910D01*
X004931D01*
X004939Y001923D01*
X004943Y001925D01*
X004960D01*
Y001990D01*
D02*
G37*
G36*
X006630D02*
X006590D01*
Y001925D01*
X006630D01*
Y001990D01*
D02*
G37*
G36*
X002127Y001940D02*
X002090D01*
Y001903D01*
X002093Y001903D01*
X002113Y001917D01*
X002127Y001937D01*
X002127Y001940D01*
D02*
G37*
G36*
X002050D02*
X002013D01*
X002013Y001937D01*
X002027Y001917D01*
X002047Y001903D01*
X002050Y001903D01*
Y001940D01*
D02*
G37*
G36*
X004927Y001870D02*
X004890D01*
Y001833D01*
X004893Y001833D01*
X004913Y001847D01*
X004927Y001867D01*
X004927Y001870D01*
D02*
G37*
G36*
X003302Y001860D02*
X003265D01*
Y001823D01*
X003268Y001823D01*
X003288Y001837D01*
X003302Y001857D01*
X003302Y001860D01*
D02*
G37*
G36*
X003225D02*
X003188D01*
X003188Y001857D01*
X003202Y001837D01*
X003222Y001823D01*
X003225Y001823D01*
Y001860D01*
D02*
G37*
G36*
X006710Y001738D02*
X006669D01*
Y001673D01*
X006710D01*
Y001738D01*
D02*
G37*
G36*
X006629D02*
X006589D01*
Y001673D01*
X006629D01*
Y001738D01*
D02*
G37*
G36*
X005040D02*
X004999D01*
Y001673D01*
X005040D01*
Y001738D01*
D02*
G37*
G36*
X004960D02*
X004919D01*
Y001673D01*
X004960D01*
Y001738D01*
D02*
G37*
G36*
X003369D02*
X003329D01*
Y001673D01*
X003369D01*
Y001738D01*
D02*
G37*
G36*
X001643Y001712D02*
X001594D01*
Y001664D01*
X001610Y001671D01*
X001625Y001682D01*
X001636Y001697D01*
X001643Y001712D01*
D02*
G37*
G36*
X001374D02*
X001326D01*
Y001664D01*
X001341Y001671D01*
X001356Y001682D01*
X001367Y001697D01*
X001374Y001712D01*
D02*
G37*
G36*
X001555D02*
X001506D01*
X001513Y001697D01*
X001524Y001682D01*
X001539Y001671D01*
X001555Y001664D01*
Y001712D01*
D02*
G37*
G36*
X001285D02*
X001237D01*
X001244Y001697D01*
X001255Y001682D01*
X001270Y001671D01*
X001285Y001664D01*
Y001712D01*
D02*
G37*
G36*
X003290Y001738D02*
X003249D01*
Y001649D01*
X003229Y001638D01*
X003223Y001642D01*
X003200Y001647D01*
X003177Y001642D01*
X003157Y001629D01*
X003143Y001609D01*
X003139Y001586D01*
X003143Y001562D01*
X003157Y001542D01*
X003177Y001529D01*
X003200Y001524D01*
X003208Y001526D01*
X003250Y001485D01*
Y001402D01*
X003250Y001390D01*
X003250Y001370D01*
Y001336D01*
X003231D01*
X003228Y001340D01*
X003208Y001353D01*
X003185Y001358D01*
X003162Y001353D01*
X003142Y001340D01*
X003128Y001320D01*
X003124Y001297D01*
X003128Y001273D01*
X003142Y001254D01*
X003162Y001240D01*
X003185Y001236D01*
X003208Y001240D01*
X003228Y001254D01*
X003230Y001256D01*
X003250Y001250D01*
Y001223D01*
X003249Y001203D01*
X003249Y001192D01*
Y001138D01*
X003369D01*
Y001192D01*
X003370Y001212D01*
X003370Y001223D01*
Y001370D01*
X003370Y001382D01*
X003370Y001402D01*
Y001549D01*
X003370Y001560D01*
X003370D01*
X003369Y001568D01*
X003369D01*
Y001633D01*
X003310D01*
Y001653D01*
X003290D01*
Y001738D01*
D02*
G37*
G36*
X000395Y002066D02*
X000352Y002062D01*
X000310Y002049D01*
X000272Y002029D01*
X000239Y002001D01*
X000211Y001968D01*
X000191Y001930D01*
X000178Y001888D01*
X000174Y001845D01*
X000178Y001802D01*
X000191Y001760D01*
X000211Y001722D01*
X000239Y001689D01*
X000272Y001661D01*
X000310Y001641D01*
X000352Y001628D01*
X000395Y001624D01*
X000438Y001628D01*
X000480Y001641D01*
X000518Y001661D01*
X000551Y001689D01*
X000579Y001722D01*
X000599Y001760D01*
X000612Y001802D01*
X000616Y001845D01*
X000612Y001888D01*
X000599Y001930D01*
X000579Y001968D01*
X000551Y002001D01*
X000518Y002029D01*
X000480Y002049D01*
X000438Y002062D01*
X000395Y002066D01*
D02*
G37*
G36*
X007983Y001382D02*
Y001317D01*
X008023D01*
Y001382D01*
X007983D01*
D02*
G37*
G36*
X006313D02*
Y001317D01*
X006353D01*
Y001382D01*
X006313D01*
D02*
G37*
G36*
X004643D02*
Y001317D01*
X004683D01*
Y001382D01*
X004643D01*
D02*
G37*
G36*
X006520Y001172D02*
X006517Y001172D01*
X006497Y001158D01*
X006483Y001138D01*
X006483Y001135D01*
X006520D01*
Y001172D01*
D02*
G37*
G36*
X004850D02*
X004847Y001172D01*
X004827Y001158D01*
X004813Y001138D01*
X004813Y001135D01*
X004850D01*
Y001172D01*
D02*
G37*
G36*
X006520Y001095D02*
X006483D01*
X006483Y001092D01*
X006497Y001072D01*
X006517Y001058D01*
X006520Y001058D01*
Y001095D01*
D02*
G37*
G36*
X004850D02*
X004813D01*
X004813Y001092D01*
X004827Y001072D01*
X004847Y001058D01*
X004850Y001058D01*
Y001095D01*
D02*
G37*
G36*
X006353Y001098D02*
X006312D01*
Y001033D01*
X006353D01*
Y001098D01*
D02*
G37*
G36*
X004770Y001057D02*
Y001020D01*
X004807D01*
X004807Y001023D01*
X004793Y001043D01*
X004773Y001057D01*
X004770Y001057D01*
D02*
G37*
G36*
X004683Y001098D02*
X004642D01*
Y001033D01*
X004665D01*
X004677Y001033D01*
X004680Y001032D01*
X004690Y001020D01*
X004730D01*
Y001057D01*
X004727Y001057D01*
X004707Y001043D01*
X004702Y001037D01*
X004702Y001037D01*
D01*
X004683Y001043D01*
X004683Y001051D01*
Y001098D01*
D02*
G37*
G36*
X003369Y001098D02*
X003249D01*
Y001045D01*
X003249Y001033D01*
X003250Y001014D01*
Y000987D01*
X003230Y000981D01*
X003228Y000983D01*
X003208Y000997D01*
X003205Y000997D01*
Y000940D01*
Y000883D01*
X003208Y000884D01*
X003228Y000897D01*
X003230Y000899D01*
X003250Y000893D01*
Y000855D01*
X003290D01*
Y000940D01*
X003310D01*
Y000960D01*
X003370D01*
Y001014D01*
X003370Y001025D01*
X003369Y001045D01*
Y001098D01*
D02*
G37*
G36*
X003165Y000997D02*
X003162Y000997D01*
X003142Y000983D01*
X003128Y000964D01*
X003128Y000960D01*
X003165D01*
Y000997D01*
D02*
G37*
G36*
X004807Y000980D02*
X004770D01*
Y000943D01*
X004773Y000943D01*
X004793Y000957D01*
X004807Y000977D01*
X004807Y000980D01*
D02*
G37*
G36*
X004730D02*
X004693D01*
X004693Y000977D01*
X004707Y000957D01*
X004727Y000943D01*
X004730Y000943D01*
Y000980D01*
D02*
G37*
G36*
X003165Y000920D02*
X003128D01*
X003128Y000917D01*
X003142Y000897D01*
X003162Y000884D01*
X003165Y000883D01*
Y000920D01*
D02*
G37*
G36*
X006710D02*
X006670D01*
Y000855D01*
X006710D01*
Y000920D01*
D02*
G37*
G36*
X006630D02*
X006590D01*
Y000855D01*
X006630D01*
Y000920D01*
D02*
G37*
G36*
X005040D02*
X005000D01*
Y000855D01*
X005040D01*
Y000920D01*
D02*
G37*
G36*
X004960D02*
X004920D01*
Y000855D01*
X004960D01*
Y000920D01*
D02*
G37*
G36*
X003370D02*
X003330D01*
Y000855D01*
X003370D01*
Y000920D01*
D02*
G37*
G36*
X005429Y000920D02*
X005389D01*
Y000855D01*
X005429D01*
Y000920D01*
D02*
G37*
G36*
X005349D02*
X005309D01*
Y000855D01*
X005349D01*
Y000920D01*
D02*
G37*
G36*
X007545Y000780D02*
X007507D01*
Y000743D01*
X007511Y000743D01*
X007531Y000757D01*
X007544Y000777D01*
X007545Y000780D01*
D02*
G37*
G36*
X007468D02*
X007430D01*
X007431Y000777D01*
X007444Y000757D01*
X007464Y000743D01*
X007468Y000743D01*
Y000780D01*
D02*
G37*
G36*
X007099Y000920D02*
X006979D01*
Y000855D01*
X006981D01*
X006991Y000835D01*
X006983Y000823D01*
X006978Y000800D01*
X006983Y000777D01*
X006996Y000757D01*
X007016Y000743D01*
X007040Y000739D01*
X007063Y000743D01*
X007083Y000757D01*
X007096Y000777D01*
X007101Y000800D01*
X007096Y000823D01*
X007088Y000835D01*
X007098Y000855D01*
X007099D01*
Y000920D01*
D02*
G37*
G36*
X003759D02*
X003639D01*
Y000855D01*
X003641D01*
X003651Y000835D01*
X003643Y000823D01*
X003639Y000800D01*
X003643Y000777D01*
X003657Y000757D01*
X003677Y000743D01*
X003700Y000739D01*
X003723Y000743D01*
X003743Y000757D01*
X003757Y000777D01*
X003761Y000800D01*
X003757Y000823D01*
X003749Y000835D01*
X003759Y000855D01*
X003759D01*
Y000920D01*
D02*
G37*
G36*
X005390Y000828D02*
Y000730D01*
X005488D01*
X005487Y000741D01*
X005475Y000771D01*
X005456Y000796D01*
X005431Y000815D01*
X005401Y000827D01*
X005390Y000828D01*
D02*
G37*
G36*
X005350D02*
X005339Y000827D01*
X005309Y000815D01*
X005284Y000796D01*
X005265Y000771D01*
X005253Y000741D01*
X005252Y000730D01*
X005350D01*
Y000828D01*
D02*
G37*
G36*
X005488Y000690D02*
X005390D01*
Y000592D01*
X005401Y000593D01*
X005431Y000605D01*
X005456Y000624D01*
X005475Y000649D01*
X005487Y000679D01*
X005488Y000690D01*
D02*
G37*
G36*
X005350D02*
X005252D01*
X005253Y000679D01*
X005265Y000649D01*
X005284Y000624D01*
X005309Y000605D01*
X005339Y000593D01*
X005350Y000592D01*
Y000690D01*
D02*
G37*
G36*
X005841Y000721D02*
X005791D01*
Y000580D01*
X005932D01*
Y000630D01*
X005929Y000653D01*
X005920Y000675D01*
X005905Y000694D01*
X005886Y000709D01*
X005865Y000718D01*
X005841Y000721D01*
D02*
G37*
G36*
X005751D02*
X005701D01*
X005678Y000718D01*
X005656Y000709D01*
X005637Y000694D01*
X005622Y000675D01*
X005613Y000653D01*
X005610Y000630D01*
Y000580D01*
X005751D01*
Y000721D01*
D02*
G37*
G36*
X005020Y000557D02*
Y000520D01*
X005057D01*
X005057Y000523D01*
X005043Y000543D01*
X005023Y000557D01*
X005020Y000557D01*
D02*
G37*
G36*
X004980D02*
X004977Y000557D01*
X004957Y000543D01*
X004943Y000523D01*
X004943Y000520D01*
X004980D01*
Y000557D01*
D02*
G37*
G36*
X005057Y000480D02*
X005020D01*
Y000443D01*
X005023Y000443D01*
X005043Y000457D01*
X005057Y000477D01*
X005057Y000480D01*
D02*
G37*
G36*
X004980D02*
X004943D01*
X004943Y000477D01*
X004957Y000457D01*
X004977Y000443D01*
X004980Y000443D01*
Y000480D01*
D02*
G37*
G36*
X005390Y000528D02*
Y000430D01*
X005488D01*
X005487Y000441D01*
X005475Y000471D01*
X005456Y000496D01*
X005431Y000515D01*
X005401Y000527D01*
X005390Y000528D01*
D02*
G37*
G36*
X005350D02*
X005339Y000527D01*
X005309Y000515D01*
X005284Y000496D01*
X005265Y000471D01*
X005253Y000441D01*
X005252Y000430D01*
X005350D01*
Y000528D01*
D02*
G37*
G36*
X005932Y000540D02*
X005791D01*
Y000399D01*
X005841D01*
X005865Y000402D01*
X005886Y000411D01*
X005905Y000426D01*
X005920Y000445D01*
X005929Y000467D01*
X005932Y000490D01*
Y000540D01*
D02*
G37*
G36*
X005751D02*
X005610D01*
Y000490D01*
X005613Y000467D01*
X005622Y000445D01*
X005637Y000426D01*
X005656Y000411D01*
X005678Y000402D01*
X005701Y000399D01*
X005751D01*
Y000540D01*
D02*
G37*
G36*
X003980Y000571D02*
X003949Y000567D01*
X003919Y000555D01*
X003894Y000536D01*
X003875Y000511D01*
X003863Y000481D01*
X003859Y000450D01*
X003863Y000419D01*
X003875Y000389D01*
X003894Y000364D01*
X003919Y000345D01*
X003949Y000333D01*
X003980Y000329D01*
X004011Y000333D01*
X004041Y000345D01*
X004066Y000364D01*
X004085Y000389D01*
X004097Y000419D01*
X004101Y000450D01*
X004097Y000481D01*
X004085Y000511D01*
X004066Y000536D01*
X004041Y000555D01*
X004011Y000567D01*
X003980Y000571D01*
D02*
G37*
G36*
X005488Y000390D02*
X005390D01*
Y000292D01*
X005401Y000293D01*
X005431Y000305D01*
X005456Y000324D01*
X005475Y000349D01*
X005487Y000379D01*
X005488Y000390D01*
D02*
G37*
G36*
X005350D02*
X005252D01*
X005253Y000379D01*
X005265Y000349D01*
X005284Y000324D01*
X005309Y000305D01*
X005339Y000293D01*
X005350Y000292D01*
Y000390D01*
D02*
G37*
G36*
X006478Y000881D02*
X006438D01*
X006412Y000877D01*
X006388Y000867D01*
X006367Y000851D01*
X006351Y000830D01*
X006341Y000806D01*
X006337Y000780D01*
X006341Y000754D01*
X006351Y000730D01*
X006367Y000709D01*
X006388Y000693D01*
X006412Y000683D01*
X006431Y000680D01*
Y000660D01*
X006412Y000657D01*
X006388Y000647D01*
X006367Y000631D01*
X006351Y000610D01*
X006341Y000586D01*
X006337Y000560D01*
X006341Y000534D01*
X006351Y000510D01*
X006367Y000489D01*
X006388Y000473D01*
X006412Y000463D01*
X006431Y000460D01*
Y000440D01*
X006412Y000437D01*
X006388Y000427D01*
X006367Y000411D01*
X006351Y000390D01*
X006341Y000366D01*
X006337Y000340D01*
X006341Y000314D01*
X006351Y000290D01*
X006367Y000269D01*
X006388Y000253D01*
X006412Y000243D01*
X006438Y000239D01*
X006478D01*
X006504Y000243D01*
X006529Y000253D01*
X006550Y000269D01*
X006566Y000290D01*
X006576Y000314D01*
X006579Y000340D01*
X006576Y000366D01*
X006566Y000390D01*
X006550Y000411D01*
X006529Y000427D01*
X006504Y000437D01*
X006485Y000440D01*
Y000460D01*
X006504Y000463D01*
X006529Y000473D01*
X006550Y000489D01*
X006566Y000510D01*
X006576Y000534D01*
X006579Y000560D01*
X006576Y000586D01*
X006566Y000610D01*
X006550Y000631D01*
X006529Y000647D01*
X006504Y000657D01*
X006485Y000660D01*
Y000680D01*
X006504Y000683D01*
X006529Y000693D01*
X006550Y000709D01*
X006566Y000730D01*
X006576Y000754D01*
X006579Y000780D01*
X006576Y000806D01*
X006566Y000830D01*
X006550Y000851D01*
X006529Y000867D01*
X006504Y000877D01*
X006478Y000881D01*
D02*
G37*
G36*
X006991Y000616D02*
X006948Y000612D01*
X006907Y000599D01*
X006869Y000579D01*
X006835Y000551D01*
X006808Y000518D01*
X006787Y000480D01*
X006775Y000438D01*
X006770Y000395D01*
X006775Y000352D01*
X006787Y000310D01*
X006808Y000272D01*
X006835Y000239D01*
X006869Y000211D01*
X006907Y000191D01*
X006948Y000178D01*
X006991Y000174D01*
X007035Y000178D01*
X007076Y000191D01*
X007114Y000211D01*
X007148Y000239D01*
X007175Y000272D01*
X007196Y000310D01*
X007208Y000352D01*
X007213Y000395D01*
X007208Y000438D01*
X007196Y000480D01*
X007175Y000518D01*
X007148Y000551D01*
X007114Y000579D01*
X007076Y000599D01*
X007035Y000612D01*
X006991Y000616D01*
D02*
G37*
G36*
X003345D02*
X003302Y000612D01*
X003260Y000599D01*
X003222Y000579D01*
X003189Y000551D01*
X003161Y000518D01*
X003141Y000480D01*
X003128Y000438D01*
X003124Y000395D01*
X003128Y000352D01*
X003141Y000310D01*
X003161Y000272D01*
X003189Y000239D01*
X003222Y000211D01*
X003260Y000191D01*
X003302Y000178D01*
X003345Y000174D01*
X003388Y000178D01*
X003430Y000191D01*
X003468Y000211D01*
X003501Y000239D01*
X003529Y000272D01*
X003549Y000310D01*
X003562Y000352D01*
X003566Y000395D01*
X003562Y000438D01*
X003549Y000480D01*
X003529Y000518D01*
X003501Y000551D01*
X003468Y000579D01*
X003430Y000599D01*
X003388Y000612D01*
X003345Y000616D01*
D02*
G37*
G36*
X000547Y003236D02*
X000523Y003233D01*
X000502Y003224D01*
X000483Y003210D01*
X000469Y003191D01*
X000460Y003170D01*
X000457Y003147D01*
X000460Y003124D01*
X000469Y003102D01*
X000483Y003084D01*
X000502Y003069D01*
X000523Y003060D01*
X000547Y003057D01*
X000570Y003060D01*
X000591Y003069D01*
X000610Y003084D01*
X000624Y003102D01*
X000633Y003124D01*
X000636Y003147D01*
X000633Y003170D01*
X000624Y003191D01*
X000610Y003210D01*
X000591Y003224D01*
X000570Y003233D01*
X000547Y003236D01*
D02*
G37*
G36*
X001090Y003211D02*
X001067Y003207D01*
X001047Y003193D01*
X001033Y003173D01*
X001029Y003150D01*
X001033Y003127D01*
X001047Y003107D01*
X001067Y003093D01*
X001090Y003089D01*
X001113Y003093D01*
X001133Y003107D01*
X001135Y003109D01*
X001155Y003109D01*
Y003085D01*
X001204D01*
Y003037D01*
X001155D01*
Y002917D01*
X001325D01*
Y003037D01*
X001276D01*
Y003085D01*
X001325D01*
Y003205D01*
X001155D01*
Y003197D01*
X001135Y003191D01*
X001133Y003193D01*
X001113Y003207D01*
X001090Y003211D01*
D02*
G37*
G36*
X000547Y003036D02*
X000523Y003033D01*
X000502Y003024D01*
X000483Y003010D01*
X000469Y002991D01*
X000460Y002970D01*
X000457Y002947D01*
X000460Y002924D01*
X000469Y002902D01*
X000483Y002884D01*
X000502Y002869D01*
X000523Y002860D01*
X000547Y002857D01*
X000570Y002860D01*
X000591Y002869D01*
X000610Y002884D01*
X000624Y002902D01*
X000633Y002924D01*
X000636Y002947D01*
X000633Y002970D01*
X000624Y002991D01*
X000610Y003010D01*
X000591Y003024D01*
X000570Y003033D01*
X000547Y003036D01*
D02*
G37*
G36*
X001325Y002847D02*
X001260D01*
Y002807D01*
X001325D01*
Y002847D01*
D02*
G37*
G36*
X001220D02*
X001155D01*
Y002807D01*
X001220D01*
Y002847D01*
D02*
G37*
G36*
X001325Y002767D02*
X001260D01*
Y002727D01*
X001325D01*
Y002767D01*
D02*
G37*
G36*
X001220D02*
X001155D01*
Y002727D01*
X001220D01*
Y002767D01*
D02*
G37*
G36*
X001320Y002610D02*
X001255D01*
Y002570D01*
X001320D01*
Y002610D01*
D02*
G37*
G36*
X001215D02*
X001150D01*
Y002570D01*
X001215D01*
Y002610D01*
D02*
G37*
G36*
X001020Y002557D02*
Y002520D01*
X001057D01*
X001057Y002523D01*
X001043Y002543D01*
X001023Y002557D01*
X001020Y002557D01*
D02*
G37*
G36*
X001215Y002530D02*
X001150D01*
Y002490D01*
X001215D01*
Y002530D01*
D02*
G37*
%LPD*%
D14*
X000499Y002138D02*
X000844Y001793D01*
X000247Y002138D02*
X000499D01*
X000180Y002205D02*
X000247Y002138D01*
X000180Y002205D02*
Y004040D01*
X000220Y002222D02*
Y003964D01*
Y002222D02*
X000263Y002178D01*
X000515D01*
X000860Y001833D01*
X001664D01*
X000220Y003964D02*
X000305Y004048D01*
X000448D01*
X006940Y002750D02*
X006964Y002726D01*
X000180Y004040D02*
X000267Y004127D01*
X000340Y003547D02*
X000441Y003446D01*
X005753Y002808D02*
X006920D01*
X005686Y002880D02*
X005753Y002808D01*
X006920D02*
X006940Y002789D01*
Y002750D02*
Y002789D01*
X006964Y002726D02*
X006965Y002725D01*
X000441Y003446D02*
X000594D01*
X000347Y003747D02*
X000448Y003645D01*
X000634D01*
X000448Y004048D02*
X000547Y004147D01*
X000327Y004127D02*
X000347Y004147D01*
X000267Y004127D02*
X000327D01*
X001664Y001833D02*
X001765Y001733D01*
X001099Y001748D02*
Y001772D01*
X000844Y001793D02*
X001078D01*
X001099Y001772D01*
Y001748D02*
X001115Y001733D01*
X001440Y003345D02*
X001450Y003335D01*
D15*
X002332Y003342D02*
X002390Y003400D01*
X002332Y002923D02*
Y003342D01*
X000347Y002747D02*
X000593D01*
X000307D02*
X000347D01*
X004190Y003520D02*
X004685D01*
X004090Y003420D02*
X004190Y003520D01*
X001443Y002094D02*
Y002098D01*
X001528Y002183D01*
X001685D01*
X001702Y002200D01*
X001740Y002669D02*
X001929D01*
X001930Y002670D01*
X000593Y002747D02*
X000980Y002360D01*
X000347Y004347D02*
X000547D01*
X000347Y004747D02*
X000547D01*
X000347Y004547D02*
X000547D01*
X001235Y002360D02*
X001260D01*
X000980D02*
X001235D01*
X004710Y003282D02*
Y003492D01*
Y003070D02*
Y003282D01*
X001260Y002360D02*
X001275Y002375D01*
Y002385D02*
X001405Y002515D01*
X001275Y002375D02*
Y002385D01*
X001405Y002515D02*
Y002534D01*
X001420Y002550D01*
X001445D01*
X001460Y002565D01*
X001605Y002669D02*
X001740D01*
X001740Y002669D01*
X001460Y002565D02*
X001501D01*
X001605Y002669D01*
X002731Y002669D02*
Y002796D01*
X001955Y002546D02*
X002332Y002923D01*
X002731D01*
X001720Y002546D02*
X001955D01*
X002070Y001960D02*
Y002200D01*
X002392D01*
X005010Y003230D02*
Y003282D01*
Y003070D02*
Y003230D01*
X005016Y003236D01*
X005230D01*
X005520D01*
X005230Y003490D02*
X005520D01*
X005010Y003282D02*
Y003492D01*
D37*
X007039Y000940D02*
D03*
X007229D02*
D03*
X004367Y003925D02*
D03*
X004177D02*
D03*
X006103Y001297D02*
D03*
X006293D02*
D03*
X006649Y001118D02*
D03*
X006839D02*
D03*
X007772Y001118D02*
D03*
X007962D02*
D03*
X007773Y001297D02*
D03*
X007963D02*
D03*
X006650Y002188D02*
D03*
X006839D02*
D03*
X007427Y001118D02*
D03*
X007617D02*
D03*
X006840Y001475D02*
D03*
X006650D02*
D03*
X007620Y001297D02*
D03*
X007430D02*
D03*
X007793Y002723D02*
D03*
X007983D02*
D03*
X007793Y002545D02*
D03*
X007983D02*
D03*
X007230Y001118D02*
D03*
X007040D02*
D03*
X006840Y001297D02*
D03*
X006650D02*
D03*
X007617Y002723D02*
D03*
X007427D02*
D03*
X006650Y002367D02*
D03*
X006839D02*
D03*
X007231Y002723D02*
D03*
X007041D02*
D03*
X006840Y002713D02*
D03*
X006650D02*
D03*
X006650Y001653D02*
D03*
X006839D02*
D03*
X006650Y000940D02*
D03*
X006840D02*
D03*
X007040Y001297D02*
D03*
X007230D02*
D03*
X007430Y002545D02*
D03*
X007620D02*
D03*
X007040D02*
D03*
X007230D02*
D03*
X006650Y002545D02*
D03*
X006839D02*
D03*
X006840Y002010D02*
D03*
X006650D02*
D03*
X005559Y000940D02*
D03*
X005369D02*
D03*
X004622Y001118D02*
D03*
X004433D02*
D03*
X004623Y001297D02*
D03*
X004433D02*
D03*
X003499Y002188D02*
D03*
X003310D02*
D03*
X003890Y001297D02*
D03*
X003700D02*
D03*
X003310Y002010D02*
D03*
X003500D02*
D03*
X003499Y001653D02*
D03*
X003310D02*
D03*
X004277Y001118D02*
D03*
X004087D02*
D03*
X003500Y000940D02*
D03*
X003310D02*
D03*
X003310Y001475D02*
D03*
X003500D02*
D03*
X004090Y001297D02*
D03*
X004280D02*
D03*
X004643Y002545D02*
D03*
X004453D02*
D03*
X003700Y001118D02*
D03*
X003890D02*
D03*
X004087Y002723D02*
D03*
X004277D02*
D03*
X003701D02*
D03*
X003890D02*
D03*
X003890Y002545D02*
D03*
X003700D02*
D03*
X003499Y002545D02*
D03*
X003310D02*
D03*
X004643Y002723D02*
D03*
X004453D02*
D03*
X003499Y001118D02*
D03*
X003309D02*
D03*
X003889Y000940D02*
D03*
X003699D02*
D03*
X003310Y001297D02*
D03*
X003500D02*
D03*
X003499Y002367D02*
D03*
X003310D02*
D03*
X003310Y002723D02*
D03*
X003500D02*
D03*
X004280Y002545D02*
D03*
X004090D02*
D03*
X006292Y001118D02*
D03*
X006103D02*
D03*
X005169Y002188D02*
D03*
X004979D02*
D03*
X005170Y000940D02*
D03*
X004980D02*
D03*
X004980Y001475D02*
D03*
X005170D02*
D03*
X005760Y001297D02*
D03*
X005950D02*
D03*
X006313Y002713D02*
D03*
X006123D02*
D03*
X006313Y002545D02*
D03*
X006123D02*
D03*
X005169Y001118D02*
D03*
X004979D02*
D03*
X005370D02*
D03*
X005560D02*
D03*
X004980Y001297D02*
D03*
X005170D02*
D03*
X005757Y002713D02*
D03*
X005947D02*
D03*
X005169Y002367D02*
D03*
X004979D02*
D03*
X005371Y002723D02*
D03*
X005560D02*
D03*
X004980Y002723D02*
D03*
X005170D02*
D03*
X005950Y002545D02*
D03*
X005760D02*
D03*
X005560D02*
D03*
X005370D02*
D03*
X005169Y002545D02*
D03*
X004979D02*
D03*
X004980Y002010D02*
D03*
X005170D02*
D03*
X005169Y001653D02*
D03*
X004979D02*
D03*
X005947Y001118D02*
D03*
X005757D02*
D03*
X005560Y001297D02*
D03*
X005370D02*
D03*
X001590Y003925D02*
D03*
X001780D02*
D03*
X001981Y003925D02*
D03*
X002170D02*
D03*
X001200Y003925D02*
D03*
X001390D02*
D03*
X001980Y005530D02*
D03*
X002170D02*
D03*
X001203Y005352D02*
D03*
X001393D02*
D03*
X001981Y004817D02*
D03*
X002170D02*
D03*
X002170Y003747D02*
D03*
X001980D02*
D03*
X001779Y003747D02*
D03*
X001589D02*
D03*
X001981Y004103D02*
D03*
X002170D02*
D03*
X001393Y003747D02*
D03*
X001203D02*
D03*
X002170Y005173D02*
D03*
X001980D02*
D03*
X001780Y005352D02*
D03*
X001590D02*
D03*
X001591Y005530D02*
D03*
X001781D02*
D03*
X001981Y005352D02*
D03*
X002171D02*
D03*
X000837Y003925D02*
D03*
X001027D02*
D03*
X000837Y003747D02*
D03*
X001027D02*
D03*
X001390Y005173D02*
D03*
X001200D02*
D03*
X002170Y004995D02*
D03*
X001980D02*
D03*
X003260Y003925D02*
D03*
X003450D02*
D03*
X003651Y003925D02*
D03*
X003840D02*
D03*
X002870Y003925D02*
D03*
X003060D02*
D03*
X003650Y005530D02*
D03*
X003840D02*
D03*
X002873Y005352D02*
D03*
X003063D02*
D03*
X003651Y004817D02*
D03*
X003840D02*
D03*
X003840Y003747D02*
D03*
X003650D02*
D03*
X003449Y003747D02*
D03*
X003260D02*
D03*
X003651Y004103D02*
D03*
X003840D02*
D03*
X003063Y003747D02*
D03*
X002873D02*
D03*
X003840Y005173D02*
D03*
X003650D02*
D03*
X003450Y005352D02*
D03*
X003260D02*
D03*
X003261Y005530D02*
D03*
X003451D02*
D03*
X003651Y005352D02*
D03*
X003841D02*
D03*
X002507Y003925D02*
D03*
X002697D02*
D03*
X002507Y003747D02*
D03*
X002697D02*
D03*
X003060Y005173D02*
D03*
X002870D02*
D03*
X003840Y004995D02*
D03*
X003650D02*
D03*
X002527Y005352D02*
D03*
X002717D02*
D03*
X002527Y005173D02*
D03*
X002717D02*
D03*
X003651Y004282D02*
D03*
X003840D02*
D03*
X003260Y005173D02*
D03*
X003450D02*
D03*
X003840Y004460D02*
D03*
X003650D02*
D03*
X000857Y005352D02*
D03*
X001048D02*
D03*
X000857Y005173D02*
D03*
X001047D02*
D03*
X001981Y004282D02*
D03*
X002170D02*
D03*
X001590Y005173D02*
D03*
X001780D02*
D03*
X002170Y004460D02*
D03*
X001980D02*
D03*
X005510Y004995D02*
D03*
X005320D02*
D03*
X004730Y005173D02*
D03*
X004540D02*
D03*
X004177Y003747D02*
D03*
X004367D02*
D03*
X005321Y005352D02*
D03*
X005511D02*
D03*
X004931Y005530D02*
D03*
X005121D02*
D03*
X005120Y005352D02*
D03*
X004930D02*
D03*
X005510Y005173D02*
D03*
X005320D02*
D03*
X004733Y003747D02*
D03*
X004543D02*
D03*
X004197Y005352D02*
D03*
X004388D02*
D03*
X004197Y005173D02*
D03*
X004387D02*
D03*
X005321Y004103D02*
D03*
X005510D02*
D03*
X005119Y003747D02*
D03*
X004929D02*
D03*
X005510Y003747D02*
D03*
X005320D02*
D03*
X005321Y004282D02*
D03*
X005510D02*
D03*
X005321Y004817D02*
D03*
X005510D02*
D03*
X004543Y005352D02*
D03*
X004733D02*
D03*
X005320Y005530D02*
D03*
X005510D02*
D03*
X004930Y005173D02*
D03*
X005120D02*
D03*
X004540Y003925D02*
D03*
X004730D02*
D03*
X005321Y003925D02*
D03*
X005510D02*
D03*
X004930Y003925D02*
D03*
X005120D02*
D03*
X005510Y004460D02*
D03*
X005320D02*
D03*
D38*
X008048Y001485D02*
D03*
X006378D02*
D03*
X004708D02*
D03*
X004112Y004991D02*
D03*
X000772D02*
D03*
X002442D02*
D03*
D39*
X008048Y001612D02*
D03*
Y001739D02*
D03*
Y001866D02*
D03*
Y001993D02*
D03*
Y002120D02*
D03*
Y002247D02*
D03*
Y002374D02*
D03*
X007022D02*
D03*
Y002247D02*
D03*
Y002120D02*
D03*
Y001993D02*
D03*
Y001866D02*
D03*
Y001739D02*
D03*
Y001612D02*
D03*
Y001485D02*
D03*
X005352D02*
D03*
Y001612D02*
D03*
Y001739D02*
D03*
Y001866D02*
D03*
Y001993D02*
D03*
Y002120D02*
D03*
Y002247D02*
D03*
Y002374D02*
D03*
X006378D02*
D03*
Y002247D02*
D03*
Y002120D02*
D03*
Y001993D02*
D03*
Y001866D02*
D03*
Y001739D02*
D03*
Y001612D02*
D03*
X004708D02*
D03*
Y001739D02*
D03*
Y001866D02*
D03*
Y001993D02*
D03*
Y002120D02*
D03*
Y002247D02*
D03*
Y002374D02*
D03*
X003682D02*
D03*
Y002247D02*
D03*
Y002120D02*
D03*
Y001993D02*
D03*
Y001866D02*
D03*
Y001739D02*
D03*
Y001612D02*
D03*
Y001485D02*
D03*
X005138Y004991D02*
D03*
Y004864D02*
D03*
Y004737D02*
D03*
Y004610D02*
D03*
Y004483D02*
D03*
Y004356D02*
D03*
Y004229D02*
D03*
Y004102D02*
D03*
X004112D02*
D03*
Y004229D02*
D03*
Y004356D02*
D03*
Y004483D02*
D03*
Y004610D02*
D03*
Y004737D02*
D03*
Y004864D02*
D03*
X000772D02*
D03*
Y004737D02*
D03*
Y004610D02*
D03*
Y004483D02*
D03*
Y004356D02*
D03*
Y004229D02*
D03*
Y004102D02*
D03*
X001798D02*
D03*
Y004229D02*
D03*
Y004356D02*
D03*
Y004483D02*
D03*
Y004610D02*
D03*
Y004737D02*
D03*
Y004864D02*
D03*
Y004991D02*
D03*
X003468D02*
D03*
Y004864D02*
D03*
Y004737D02*
D03*
Y004610D02*
D03*
Y004483D02*
D03*
Y004356D02*
D03*
Y004229D02*
D03*
Y004102D02*
D03*
X002442D02*
D03*
Y004229D02*
D03*
Y004356D02*
D03*
Y004483D02*
D03*
Y004610D02*
D03*
Y004737D02*
D03*
Y004864D02*
D03*
D40*
X007341Y002281D02*
D03*
X005671D02*
D03*
X004001D02*
D03*
X004819Y004195D02*
D03*
X001479D02*
D03*
X003149D02*
D03*
D41*
X007722Y001583D02*
D03*
X007595D02*
D03*
X007468D02*
D03*
X007341D02*
D03*
X007722Y002281D02*
D03*
X007595D02*
D03*
X007468D02*
D03*
X005798D02*
D03*
X005925D02*
D03*
X006052D02*
D03*
X005671Y001583D02*
D03*
X005798D02*
D03*
X005925D02*
D03*
X006052D02*
D03*
X004382D02*
D03*
X004255D02*
D03*
X004128D02*
D03*
X004001D02*
D03*
X004382Y002281D02*
D03*
X004255D02*
D03*
X004128D02*
D03*
X004692Y004195D02*
D03*
X004565D02*
D03*
X004438D02*
D03*
X004819Y004893D02*
D03*
X004692D02*
D03*
X004565D02*
D03*
X004438D02*
D03*
X001098D02*
D03*
X001225D02*
D03*
X001352D02*
D03*
X001479D02*
D03*
X001098Y004195D02*
D03*
X001225D02*
D03*
X001352D02*
D03*
X003022D02*
D03*
X002895D02*
D03*
X002768D02*
D03*
X003149Y004893D02*
D03*
X003022D02*
D03*
X002895D02*
D03*
X002768D02*
D03*
D42*
X001235Y002550D02*
D03*
Y002360D02*
D03*
X001445Y002550D02*
D03*
Y002359D02*
D03*
X001240Y002787D02*
D03*
Y002977D02*
D03*
X001240Y003335D02*
D03*
Y003145D02*
D03*
X001450Y003145D02*
D03*
Y003335D02*
D03*
Y002787D02*
D03*
Y002977D02*
D03*
D43*
X005010Y003282D02*
D03*
X004710D02*
D03*
X005010Y003492D02*
D03*
X004710D02*
D03*
X005010Y003070D02*
D03*
X004710D02*
D03*
D44*
X002392Y002200D02*
D03*
X002760D02*
D03*
X001702D02*
D03*
X002070D02*
D03*
D45*
X002731Y003304D02*
D03*
Y003177D02*
D03*
X001740D02*
D03*
Y003304D02*
D03*
X002731Y003050D02*
D03*
Y002923D02*
D03*
Y002796D02*
D03*
Y002669D02*
D03*
X001740Y002796D02*
D03*
Y002669D02*
D03*
Y002923D02*
D03*
Y002542D02*
D03*
Y003050D02*
D03*
D46*
X002731Y002542D02*
D03*
D47*
X001240Y002977D02*
X001240Y002977D01*
X001240Y002977D02*
Y003145D01*
X001092Y003148D02*
X001238D01*
X001240Y003145D01*
X001090Y003150D02*
X001092Y003148D01*
X001980Y005710D02*
Y005712D01*
Y005530D02*
Y005710D01*
X001981Y005352D02*
Y005530D01*
X003240Y005672D02*
X003261Y005651D01*
Y005535D02*
Y005651D01*
X003240Y005672D02*
Y005686D01*
X003650Y005530D02*
X003673Y005553D01*
Y005615D01*
X003744Y005686D01*
X005321Y005352D02*
Y005530D01*
X005320Y005530D02*
Y005680D01*
X005320Y005530D02*
X005320Y005530D01*
Y005680D02*
X005321Y005680D01*
X005320Y005530D02*
Y005555D01*
X003499Y000940D02*
Y001118D01*
X003500Y000800D02*
Y000893D01*
X005170Y000805D02*
Y000940D01*
X007230Y000800D02*
Y000915D01*
X006839Y000940D02*
Y001118D01*
X006840Y000800D02*
Y000940D01*
X006839Y001118D02*
X006839Y001118D01*
X006839Y001118D02*
X006840Y001119D01*
Y001296D01*
X006839Y001118D02*
X007040D01*
X006840Y001296D02*
X006840Y001297D01*
X007230Y000915D02*
X007244Y000900D01*
X007747D01*
X007865Y001018D01*
X005565Y000805D02*
Y000915D01*
X005559D02*
X005569Y000905D01*
X005565Y000915D02*
Y000935D01*
X006098Y000905D02*
X006195Y001003D01*
X005569Y000905D02*
X006098D01*
X003890Y000820D02*
Y000940D01*
Y000820D02*
X003890Y000820D01*
X003889Y000925D02*
X003914Y000900D01*
X003889Y000925D02*
Y000940D01*
X003890Y000940D01*
X007230Y000915D02*
Y000940D01*
X007229Y000940D02*
X007230Y000940D01*
X005510Y004817D02*
X005511Y004817D01*
X005620D01*
X005511Y004103D02*
X005620D01*
X005510Y004103D02*
X005511Y004103D01*
X004565Y003975D02*
X004590D01*
X004685Y004070D01*
Y004183D01*
X005170Y002367D02*
Y002723D01*
X003895Y002935D02*
X003971Y002859D01*
X003175Y002935D02*
X003895D01*
X002935Y002695D02*
X003175Y002935D01*
X007040Y002723D02*
Y002726D01*
X006840Y002725D02*
X006965D01*
X006840Y002367D02*
Y002723D01*
X003965Y002985D02*
X004015Y002935D01*
X003105Y002985D02*
X003965D01*
X002930Y002810D02*
X003105Y002985D01*
X004643Y002545D02*
X004647Y002540D01*
X004760D01*
X004077Y003925D02*
X004177D01*
X004177Y003925D01*
X002507Y003925D02*
X002507Y003925D01*
X002400Y003925D02*
X002507D01*
X006313Y002545D02*
X006317Y002540D01*
X006413D01*
X007729Y002287D02*
Y002349D01*
X007787Y002407D02*
X007843D01*
X007844Y002408D01*
X007722Y002281D02*
X007729Y002287D01*
Y002349D02*
X007787Y002407D01*
X006052Y002281D02*
X006059Y002287D01*
Y002349D02*
X006115Y002405D01*
X006165D01*
X006059Y002287D02*
Y002349D01*
X006165Y002405D02*
X006170Y002410D01*
X004382Y002281D02*
X004389Y002287D01*
Y002349D01*
X004450Y002410D02*
X004510D01*
X004389Y002349D02*
X004450Y002410D01*
X004510D02*
X004510Y002410D01*
X004258Y002400D02*
X004258Y002400D01*
X004258Y002283D02*
Y002400D01*
X004255Y002281D02*
X004258Y002283D01*
X007595Y002281D02*
X007598Y002283D01*
Y002398D02*
X007600Y002400D01*
X007598Y002283D02*
Y002398D01*
X007595Y002495D02*
X007620Y002520D01*
X007570Y002495D02*
X007595D01*
X007475Y002400D02*
X007570Y002495D01*
X007475Y002287D02*
Y002400D01*
X007620Y002520D02*
Y002545D01*
X004255Y002495D02*
X004280Y002520D01*
X004135Y002400D02*
X004230Y002495D01*
X004135Y002287D02*
Y002400D01*
X004280Y002520D02*
Y002545D01*
X004230Y002495D02*
X004255D01*
X005928Y002408D02*
X005930Y002410D01*
X005925Y002281D02*
X005928Y002283D01*
Y002408D01*
X005925Y002495D02*
X005950Y002520D01*
X005900Y002495D02*
X005925D01*
X005805Y002400D02*
X005900Y002495D01*
X005805Y002287D02*
Y002400D01*
X005950Y002520D02*
Y002545D01*
X004560Y004070D02*
X004562Y004072D01*
Y004187D02*
X004565Y004189D01*
X004562Y004072D02*
Y004187D01*
X004540Y003950D02*
X004565Y003975D01*
X004540Y003925D02*
Y003950D01*
X004340Y004070D02*
X004438Y004167D01*
X004340Y004070D02*
X004340D01*
X004438Y004167D02*
Y004189D01*
X002752Y004161D02*
X002768Y004176D01*
X002640Y004060D02*
X002741Y004161D01*
X002768Y004176D02*
Y004188D01*
X002741Y004161D02*
X002752D01*
X002892Y004072D02*
Y004187D01*
X002895Y004189D01*
X002890Y004070D02*
X002892Y004072D01*
X002870Y003925D02*
Y003950D01*
X002895Y003975D01*
X002920D01*
X003015Y004070D02*
Y004183D01*
X002920Y003975D02*
X003015Y004070D01*
X000980Y004070D02*
X001000D01*
X000970Y004060D02*
X000980Y004070D01*
X001000D02*
X001098Y004167D01*
Y004189D01*
X001220Y004060D02*
X001222Y004062D01*
Y004187D01*
X001225Y004189D01*
X001200Y003925D02*
Y003950D01*
X001225Y003975D02*
X001250D01*
X001200Y003950D02*
X001225Y003975D01*
X001250D02*
X001345Y004070D01*
Y004183D01*
X001352Y004893D02*
Y004918D01*
X001390Y004956D01*
Y005173D01*
X001047D02*
X001200D01*
Y004956D02*
Y005173D01*
X001225Y004887D02*
Y004931D01*
X001200Y004956D02*
X001225Y004931D01*
X002697Y005173D02*
X002717D01*
X002895Y004887D02*
Y004931D01*
X002870Y004956D02*
X002895Y004931D01*
X002717Y005173D02*
X002870D01*
X002870Y004956D02*
Y005173D01*
X003022Y004912D02*
Y004915D01*
X003063Y004956D01*
Y005173D01*
X004387D02*
X004540D01*
X004367D02*
X004387D01*
X004540Y004956D02*
Y005173D01*
Y004956D02*
X004565Y004931D01*
Y004893D02*
Y004931D01*
X004733Y004956D02*
Y005173D01*
X004692Y004887D02*
Y004915D01*
X004733Y004956D01*
X004380Y005570D02*
X004906D01*
X004295Y005485D02*
X004380Y005570D01*
X004295Y005058D02*
Y005485D01*
X004931Y005530D02*
Y005545D01*
X004906Y005570D02*
X004931Y005545D01*
X001980Y003747D02*
Y004103D01*
X001980Y003747D02*
X001980Y003747D01*
X001978Y003745D02*
X001980Y003747D01*
X001977Y003747D02*
X001978Y003745D01*
Y003592D02*
Y003745D01*
X001779Y003747D02*
X001977D01*
X001967Y003603D02*
X001980Y003590D01*
X002016Y003496D02*
X002150Y003630D01*
X003349D01*
X000713Y003496D02*
X002016D01*
X003449Y003722D02*
Y003747D01*
X003416Y003697D02*
X003424D01*
X003449Y003722D01*
X003349Y003630D02*
X003416Y003697D01*
X003650Y003747D02*
Y004103D01*
X003645Y003747D02*
X003647Y003744D01*
X003650Y003747D02*
X003650Y003747D01*
X003647Y003744D02*
X003650Y003747D01*
X003450Y003747D02*
X003645D01*
X003647Y003612D02*
X003650Y003610D01*
X003644Y003611D02*
X003645Y003610D01*
X003647Y003612D02*
Y003744D01*
X003880Y003630D02*
X005028D01*
X003760Y003510D02*
X003880Y003630D01*
X002270Y003510D02*
X003760D01*
X003840Y003747D02*
X003946D01*
X005510D02*
X005620D01*
X006628Y002720D02*
X006650Y002698D01*
X006540Y002720D02*
X006628D01*
X003946Y005170D02*
X003960D01*
X003843D02*
X003946D01*
X002170Y003747D02*
X002290D01*
X003200Y002730D02*
X003207Y002723D01*
X003651Y005352D02*
Y005530D01*
X004975Y001480D02*
X004975Y001480D01*
X004968Y002180D02*
X004978Y002190D01*
X001068Y005580D02*
X001580D01*
X000955Y005467D02*
X001068Y005580D01*
X001590Y005530D02*
Y005710D01*
Y005530D02*
X001591Y005530D01*
X001590Y005710D02*
X001590Y005710D01*
X001098Y004893D02*
Y004916D01*
X002738Y005580D02*
X003216D01*
X002625Y005467D02*
X002738Y005580D01*
X002768Y004893D02*
Y004916D01*
X003840Y004995D02*
X003845Y004990D01*
X003960D01*
X004930Y005535D02*
Y005650D01*
X004438Y004893D02*
Y004916D01*
Y004887D02*
Y004893D01*
X004930Y005650D02*
X004930Y005650D01*
X005320Y003747D02*
Y004103D01*
X005320Y003722D02*
Y003747D01*
Y003722D02*
X005380Y003661D01*
Y003610D02*
Y003661D01*
Y003610D02*
X005390Y003600D01*
X005119Y003747D02*
X005320D01*
X005320Y003747D01*
X005513Y005170D02*
X005620D01*
X002206Y003446D02*
X002270Y003510D01*
X000594Y003446D02*
X002206D01*
X001450Y002670D02*
Y002757D01*
X000875Y003335D02*
X001240D01*
X000810Y003270D02*
X000875Y003335D01*
X003497Y002826D02*
Y002860D01*
X003500Y002367D02*
Y002723D01*
X006650Y002713D02*
Y002723D01*
Y002698D02*
Y002713D01*
X004870Y002670D02*
X004923Y002723D01*
X005631Y002935D02*
X005686Y002880D01*
X004015Y002935D02*
X005631D01*
X003185Y000940D02*
X003310D01*
X004923Y002723D02*
X004980D01*
X003222Y001300D02*
X003307D01*
X004976Y001115D02*
X004979Y001118D01*
X004870Y001115D02*
X004976D01*
X004979Y000940D02*
X004980Y000940D01*
X006646Y001115D02*
X006649Y001118D01*
X006540Y001115D02*
X006646D01*
X003971Y002859D02*
X005171D01*
X003220Y002860D02*
X003497D01*
X002943Y002583D02*
X003220Y002860D01*
X003500Y002723D02*
X003700D01*
X003500D02*
Y002823D01*
Y002860D01*
X003497Y002826D02*
X003500Y002823D01*
X003500Y002723D02*
X003500Y002723D01*
X002935Y002684D02*
Y002695D01*
X005171Y002725D02*
Y002859D01*
X005170Y002723D02*
X005171Y002725D01*
X005170Y002723D02*
X005371D01*
X005371Y002723D01*
X005170Y001118D02*
Y001297D01*
Y000940D02*
Y001118D01*
X005080Y001880D02*
Y001895D01*
X004870Y002180D02*
X004968D01*
X003206Y001579D02*
X003310Y001475D01*
X003206Y001579D02*
Y001580D01*
X002770Y002190D02*
X003200D01*
X002760Y002200D02*
X002770Y002190D01*
X002935Y002570D02*
X002943Y002578D01*
X007865Y001018D02*
Y001412D01*
X002943Y002578D02*
Y002583D01*
X003207Y002723D02*
X003310D01*
X006964Y002726D02*
X007040D01*
X006540Y001300D02*
X006647D01*
X005600Y001410D02*
X005671Y001481D01*
X005237Y001410D02*
X005600D01*
X005222Y001425D02*
X005237Y001410D01*
X004870Y001300D02*
X004977D01*
X004870Y001480D02*
X004975D01*
X003200Y001586D02*
X003206Y001580D01*
X003475Y000915D02*
X003500Y000940D01*
X004422Y000900D02*
X004525Y001003D01*
X003914Y000900D02*
X004422D01*
X004087Y001297D02*
Y001510D01*
X004128Y001551D02*
Y001583D01*
X004087Y001510D02*
X004128Y001551D01*
X004280Y001297D02*
X004433D01*
X004262Y001535D02*
X004279Y001517D01*
Y001297D02*
Y001517D01*
X004255Y001583D02*
X004262Y001576D01*
X004433Y001297D02*
X004453D01*
X004262Y001535D02*
Y001576D01*
X005757Y001297D02*
Y001520D01*
X005798Y001561D02*
Y001583D01*
X005757Y001520D02*
X005798Y001561D01*
X005950Y001297D02*
X006103D01*
X005925Y001545D02*
Y001583D01*
X005950Y001297D02*
Y001520D01*
X005925Y001545D02*
X005950Y001520D01*
X006103Y001297D02*
X006123D01*
X006840Y002723D02*
Y002725D01*
X006815Y002748D02*
X006840Y002723D01*
X007430Y001297D02*
Y001516D01*
X007468Y001554D02*
Y001583D01*
X007430Y001516D02*
X007468Y001554D01*
X007595Y001545D02*
Y001583D01*
X007617Y001297D02*
Y001524D01*
X007595Y001545D02*
X007617Y001524D01*
X007620Y001297D02*
X007773D01*
X007793D01*
X005565Y000805D02*
X005570Y000800D01*
X005559Y000940D02*
X005565Y000935D01*
X006313Y001297D02*
X006313Y001297D01*
X006123Y001297D02*
X006123Y001297D01*
X000547Y003547D02*
X000662D01*
X000713Y003496D01*
X005028Y003630D02*
X005119Y003722D01*
X001754Y003695D02*
Y003722D01*
X001779Y003747D01*
X001605Y003546D02*
X001754Y003695D01*
X000734Y003546D02*
X001605D01*
X000634Y003645D02*
X000734Y003546D01*
X007065Y002595D02*
X007097D01*
X007175Y002673D01*
X007205D01*
X007230Y002698D01*
Y002723D01*
X007230Y002545D02*
X007430D01*
X007341Y002368D02*
X007420Y002447D01*
Y002535D01*
X007430Y002545D01*
X007430Y002545D01*
Y002723D01*
X007430Y002723D01*
X006562Y002190D02*
X006648D01*
X006650Y002188D01*
X006839Y002367D02*
X006840Y002367D01*
Y002723D02*
X006840Y002723D01*
X007040Y002545D02*
Y002570D01*
X007065Y002595D01*
X007792Y002545D02*
Y002723D01*
X007620Y002545D02*
X007792D01*
X007620Y002723D02*
X007792D01*
X007792Y002723D01*
X007181Y001168D02*
X007205D01*
X007230Y001143D01*
Y001118D02*
Y001143D01*
X007427Y001118D02*
X007427Y001118D01*
X007065Y001247D02*
X007082D01*
X007083Y001247D01*
X007103D01*
X007181Y001168D01*
X006562Y001480D02*
X006645D01*
X006650Y001475D01*
X006647Y001300D02*
X006650Y001297D01*
X006840Y001475D02*
Y001653D01*
Y001475D02*
X006840Y001475D01*
Y001450D02*
Y001475D01*
Y001450D02*
X006865Y001425D01*
X006892D01*
X006906Y001411D01*
X007040Y001272D02*
Y001297D01*
Y001272D02*
X007065Y001247D01*
X006906Y001411D02*
X007271D01*
X007617Y001118D02*
X007617Y001119D01*
X007772D01*
X007773Y001119D01*
X007962Y001118D02*
X007963Y001119D01*
Y001297D01*
X007983Y001118D02*
X007983Y001119D01*
X007271Y001411D02*
X007341Y001481D01*
X007230Y001297D02*
X007427D01*
X007341Y001481D02*
Y001583D01*
X007427Y001118D02*
Y001297D01*
X007427Y001297D01*
X007617Y001297D02*
X007620D01*
X007722Y001554D02*
Y001583D01*
X007773Y001119D02*
Y001297D01*
X007773Y001297D01*
X007793Y001297D02*
X007793Y001297D01*
X007722Y001554D02*
X007865Y001412D01*
X007963Y001297D02*
X007963Y001297D01*
X007983Y001297D02*
X007983Y001297D01*
X006750Y001880D02*
Y001895D01*
X006840Y001985D01*
X006839Y001653D02*
X006840Y001654D01*
X006839Y001653D02*
X006840Y001653D01*
X006839Y002188D02*
X006840Y002188D01*
Y001654D02*
Y001790D01*
Y002010D02*
Y002188D01*
Y002010D02*
X006840Y002010D01*
X006840Y001790D02*
X006840Y001790D01*
Y001985D02*
Y002010D01*
X007341Y002281D02*
Y002368D01*
X007468Y002281D02*
X007475Y002287D01*
X001591Y005530D02*
Y005535D01*
X003566Y001411D02*
X003931D01*
X003552Y001425D02*
X003566Y001411D01*
X003931D02*
X004001Y001481D01*
X001479Y004989D02*
X001555Y005065D01*
X001935D02*
X001955Y005045D01*
X001555Y005065D02*
X001935D01*
X001955Y005045D02*
X001955D01*
X001980Y005020D01*
Y004995D02*
X001980Y004995D01*
X001980Y004995D02*
Y005020D01*
X003625Y005020D02*
Y005052D01*
Y005020D02*
X003650Y004995D01*
X003230Y005070D02*
X003607D01*
X003625Y005052D01*
X003149Y004989D02*
X003230Y005070D01*
X005273Y005067D02*
X005320Y005020D01*
X004897Y005067D02*
X005273D01*
X004819Y004989D02*
X004897Y005067D01*
X003308Y002190D02*
X003310Y002188D01*
X003499D02*
X003500Y002188D01*
X003890Y002545D02*
X004090D01*
X003222Y002190D02*
X003308D01*
X003499Y002367D02*
X003500Y002367D01*
X003700Y002723D02*
X003700Y002723D01*
X003757Y002595D02*
X003835Y002673D01*
X003700Y002545D02*
Y002570D01*
X003725Y002595D02*
X003757D01*
X003700Y002570D02*
X003725Y002595D01*
X003835Y002673D02*
X003865D01*
X003890Y002698D01*
Y002723D01*
X003500Y001985D02*
Y002010D01*
X003500Y002010D02*
X003500Y002010D01*
X003500Y002010D02*
Y002188D01*
X004280Y002545D02*
X004452D01*
X004452Y002723D02*
X004452Y002723D01*
Y002545D02*
Y002723D01*
X004280Y002723D02*
X004452D01*
X004090Y002723D02*
X004090Y002723D01*
X004090Y002545D02*
Y002723D01*
X004080Y002535D02*
X004090Y002545D01*
X004090Y002545D01*
X004001Y002281D02*
Y002368D01*
X004080Y002447D02*
Y002535D01*
X004128Y002281D02*
X004135Y002287D01*
X004001Y002368D02*
X004080Y002447D01*
X003307Y001300D02*
X003310Y001297D01*
X003500Y001475D02*
Y001653D01*
Y001475D02*
X003500Y001475D01*
X003499Y001118D02*
X003499Y001118D01*
X003500Y001119D02*
Y001296D01*
X003500Y001297D01*
X003499Y001118D02*
X003500Y001119D01*
X003499Y001653D02*
X003500Y001654D01*
X003410Y001880D02*
Y001895D01*
X003500Y001985D01*
X003500Y001790D02*
X003500Y001790D01*
X003499Y001653D02*
X003500Y001653D01*
Y001654D02*
Y001790D01*
X003525Y001425D02*
X003552D01*
X003500Y001450D02*
X003525Y001425D01*
X003500Y001450D02*
Y001475D01*
X004277Y001119D02*
X004433D01*
X004277Y001118D02*
X004277Y001119D01*
X004087Y001297D02*
X004087Y001297D01*
X003742Y001247D02*
X003743Y001247D01*
X003763D01*
X003700Y001272D02*
X003725Y001247D01*
X003890Y001297D02*
X004087D01*
X003700Y001272D02*
Y001297D01*
X003725Y001247D02*
X003742D01*
X004087Y001118D02*
X004087Y001118D01*
Y001297D01*
X003763Y001247D02*
X003841Y001168D01*
X003865D02*
X003890Y001143D01*
X003841Y001168D02*
X003865D01*
X003890Y001118D02*
Y001143D01*
X004643Y001297D02*
X004643Y001297D01*
X004623Y001297D02*
X004623Y001297D01*
X004525Y001003D02*
Y001412D01*
X004622Y001118D02*
X004623Y001119D01*
X004643Y001118D02*
X004643Y001119D01*
X004433D02*
X004433Y001119D01*
X004623Y001119D02*
Y001297D01*
X004453Y001297D02*
X004453Y001297D01*
X004433Y001119D02*
Y001297D01*
X004433Y001297D01*
X003499Y001118D02*
X003700D01*
X004001Y001481D02*
Y001583D01*
X004382Y001554D02*
X004525Y001412D01*
X004382Y001554D02*
Y001583D01*
X001621Y002804D02*
X001732D01*
X001500Y002925D02*
X001621Y002804D01*
X001500Y002925D02*
Y002952D01*
X001732Y002804D02*
X001740Y002796D01*
X001451Y002977D02*
X001475D01*
X001500Y002952D01*
X001238Y002553D02*
Y002785D01*
X001240Y002787D01*
X001235Y002550D02*
X001238Y002553D01*
X001445Y002359D02*
X001453Y002368D01*
X001548D02*
X001610Y002430D01*
X002140D01*
X001453Y002368D02*
X001548D01*
X002140Y002430D02*
X002383Y002673D01*
X001450Y002997D02*
X001475D01*
X001450D02*
Y003145D01*
X002383Y002673D02*
X002711D01*
X004978Y002190D02*
X004979Y002188D01*
X005170Y002010D02*
Y002188D01*
X005169Y002188D02*
X005170Y002188D01*
X005169Y002367D02*
X005170Y002367D01*
X006103Y001297D02*
X006103Y001297D01*
X006103Y001119D02*
Y001297D01*
X006103Y001119D02*
X006103Y001119D01*
X005947Y001119D02*
X006103D01*
X005757Y001118D02*
X005757Y001118D01*
X005947Y001118D02*
X005947Y001119D01*
X005757Y001118D02*
Y001297D01*
X005433Y001247D02*
X005511Y001168D01*
X005535D01*
X005560Y001118D02*
Y001143D01*
X005535Y001168D02*
X005560Y001143D01*
X005170Y001118D02*
X005370D01*
X005169D02*
X005170D01*
X006293Y001297D02*
X006293Y001297D01*
X006052Y001554D02*
X006195Y001412D01*
Y001003D02*
Y001412D01*
X006313Y001118D02*
X006313Y001119D01*
X006292Y001118D02*
X006293Y001119D01*
Y001297D01*
X005170Y001654D02*
Y001790D01*
X005170Y001790D01*
X005412Y001247D02*
X005413Y001247D01*
X005370Y001272D02*
Y001297D01*
Y001272D02*
X005395Y001247D01*
X005413Y001247D02*
X005433D01*
X005395Y001247D02*
X005412D01*
X005080Y001895D02*
X005170Y001985D01*
Y002010D01*
X005170Y002010D02*
X005170Y002010D01*
X005195Y001425D02*
X005222D01*
X004975Y001480D02*
X004980Y001475D01*
X005170Y001450D02*
Y001475D01*
Y001450D02*
X005195Y001425D01*
X005170Y001475D02*
X005170Y001475D01*
X005170Y001475D02*
Y001653D01*
X005169Y001653D02*
X005170Y001654D01*
X005169Y001653D02*
X005170Y001653D01*
X005671Y001481D02*
Y001583D01*
X005757Y001297D02*
X005757Y001297D01*
X005560D02*
X005757D01*
X005170Y001297D02*
X005170Y001297D01*
X004977Y001300D02*
X004980Y001297D01*
X005950Y002723D02*
X006122D01*
X006122Y002723D01*
X006052Y001554D02*
Y001583D01*
X005750Y002535D02*
X005760Y002545D01*
X005427Y002595D02*
X005505Y002673D01*
X005370Y002545D02*
Y002570D01*
X005395Y002595D01*
X005560Y002545D02*
X005760D01*
X005395Y002595D02*
X005427D01*
X005760Y002723D02*
X005760Y002723D01*
X005505Y002673D02*
X005535D01*
X005560Y002698D01*
Y002723D01*
X005671Y002368D02*
X005750Y002447D01*
X005671Y002281D02*
Y002368D01*
X005798Y002281D02*
X005805Y002287D01*
X006122Y002545D02*
Y002723D01*
X005760Y002545D02*
X005760Y002545D01*
X005750Y002447D02*
Y002535D01*
X005760Y002545D02*
Y002723D01*
X005950Y002545D02*
X006122D01*
X001262Y003331D02*
X001435D01*
X005119Y003722D02*
Y003747D01*
X001980Y004460D02*
X001980Y004460D01*
X001980Y004460D02*
Y004485D01*
X001390Y003925D02*
X001390Y003925D01*
X001400Y003935D01*
X001390Y003925D02*
X001590D01*
X001980Y004680D02*
X001980Y004680D01*
Y004816D01*
X001981Y004817D01*
X001980Y004282D02*
X001981Y004282D01*
X001980Y004282D02*
Y004460D01*
X002170Y004282D02*
X002172Y004280D01*
X002290D01*
X001590Y003747D02*
Y003772D01*
X001615Y003797D01*
X001645D01*
X001723Y003875D01*
X001755D01*
X001780Y003900D01*
Y003925D01*
X001980Y004103D02*
X001981Y004103D01*
X000837Y005173D02*
X000837Y005173D01*
X000857Y005173D02*
X000857Y005173D01*
Y005351D02*
X000857Y005352D01*
X000857Y005173D02*
Y005351D01*
X000837Y005351D02*
X000837Y005352D01*
X001047Y005173D02*
X001047Y005173D01*
Y005351D02*
X001048Y005351D01*
X001047Y005173D02*
Y005351D01*
X001048Y005351D02*
X001203D01*
X001203Y005352D01*
X001390Y003747D02*
X001390Y003747D01*
Y003925D01*
X001639Y005302D02*
X001717Y005223D01*
X001615Y005302D02*
X001639D01*
X001717Y005223D02*
X001737D01*
X001590Y005327D02*
Y005352D01*
Y005327D02*
X001615Y005302D01*
X001755Y005223D02*
X001780Y005198D01*
X001738Y005223D02*
X001755D01*
X001780Y005173D02*
Y005198D01*
X001737Y005223D02*
X001738Y005223D01*
X001980Y005173D02*
X001980Y005174D01*
X001780Y005352D02*
X001981D01*
X001980Y005174D02*
Y005351D01*
X001981Y005352D02*
X001981Y005352D01*
X001980Y005351D02*
X001981Y005352D01*
X001028Y003925D02*
X001200D01*
X001028Y003747D02*
X001200D01*
X001028Y003747D02*
X001028Y003747D01*
X001028Y003747D02*
Y003925D01*
X001393Y005173D02*
X001393Y005173D01*
X001393Y005173D02*
X001590D01*
X001393Y005352D02*
X001393Y005352D01*
X001393Y005173D02*
Y005352D01*
X002175Y004990D02*
X002290D01*
X002170Y004995D02*
X002175Y004990D01*
X001980Y004817D02*
Y004995D01*
Y004817D02*
X001981Y004817D01*
X001980Y004485D02*
X002070Y004575D01*
Y004590D01*
X001400Y003935D02*
Y004023D01*
X001479Y004102D01*
Y004189D01*
X000955Y005058D02*
X001098Y004916D01*
X000955Y005058D02*
Y005467D01*
X001479Y004887D02*
Y004989D01*
X001345Y004183D02*
X001352Y004189D01*
X002170Y005173D02*
X002173Y005170D01*
X002290D01*
X003650Y004460D02*
X003650Y004460D01*
X003650Y004460D02*
Y004485D01*
X003060Y003925D02*
X003060Y003925D01*
X003070Y003935D01*
X003060Y003925D02*
X003260D01*
X003650Y004680D02*
X003650Y004680D01*
Y004816D01*
X003651Y004817D01*
X003650Y004282D02*
X003651Y004282D01*
X003650Y004282D02*
Y004460D01*
X003840Y004282D02*
X003842Y004280D01*
X003960D01*
X003260Y003747D02*
Y003772D01*
X003285Y003797D01*
X003315D01*
X003393Y003875D01*
X003425D01*
X003450Y003900D01*
Y003925D01*
X003650Y004103D02*
X003651Y004103D01*
X002507Y005173D02*
X002507Y005173D01*
X002697Y005173D02*
X002697Y005173D01*
X002527Y005173D02*
X002527Y005173D01*
Y005351D02*
X002527Y005352D01*
X002527Y005173D02*
Y005351D01*
X002507Y005351D02*
X002507Y005352D01*
X002717Y005173D02*
X002717Y005173D01*
Y005351D02*
X002717Y005351D01*
X002717Y005173D02*
Y005351D01*
X002717Y005351D02*
X002873D01*
X002873Y005352D01*
X003060Y003747D02*
X003060Y003747D01*
Y003925D01*
X003309Y005302D02*
X003387Y005223D01*
X003285Y005302D02*
X003309D01*
X003387Y005223D02*
X003407D01*
X003260Y005327D02*
Y005352D01*
Y005327D02*
X003285Y005302D01*
X003425Y005223D02*
X003450Y005198D01*
X003408Y005223D02*
X003425D01*
X003450Y005173D02*
Y005198D01*
X003407Y005223D02*
X003408Y005223D01*
X003650Y005173D02*
X003650Y005174D01*
X003450Y005352D02*
X003651D01*
X003650Y005174D02*
Y005351D01*
X003651Y005352D02*
X003651Y005352D01*
X003650Y005351D02*
X003651Y005352D01*
X002698Y003925D02*
X002870D01*
X002698Y003747D02*
X002870D01*
X002698Y003747D02*
X002698Y003747D01*
X002698Y003747D02*
Y003925D01*
X003063Y005173D02*
X003063Y005173D01*
X003063Y005173D02*
X003260D01*
X003063Y005352D02*
X003063Y005352D01*
X003063Y005173D02*
Y005352D01*
X003650Y004817D02*
Y004995D01*
Y004817D02*
X003651Y004817D01*
X003650Y004485D02*
X003740Y004575D01*
Y004590D01*
X003070Y003935D02*
Y004023D01*
X003149Y004102D01*
Y004189D01*
X002625Y005058D02*
X002768Y004916D01*
X002625Y005058D02*
Y005467D01*
X003149Y004887D02*
Y004989D01*
X003015Y004183D02*
X003022Y004189D01*
X003840Y005173D02*
X003843Y005170D01*
X004985Y003797D02*
X005063Y003875D01*
X004368Y003925D02*
X004540D01*
X004368Y003747D02*
X004368Y003747D01*
X004368Y003747D02*
Y003925D01*
X004368Y003747D02*
X004540D01*
X004730Y003925D02*
X004730Y003925D01*
X004740Y003935D01*
X004730Y003925D02*
X004930D01*
X004955Y003797D02*
X004985D01*
X005120Y003900D02*
Y003925D01*
X005320Y003747D02*
X005320Y003747D01*
X004930Y003772D02*
X004955Y003797D01*
X004730Y003747D02*
X004730Y003747D01*
Y003925D01*
X004930Y003747D02*
Y003772D01*
X005095Y003875D02*
X005120Y003900D01*
X005063Y003875D02*
X005095D01*
X005512Y004280D02*
X005620D01*
X004819Y004102D02*
Y004189D01*
X005320Y004282D02*
Y004460D01*
Y004282D02*
X005321Y004282D01*
X005410Y004575D02*
Y004590D01*
X005320Y004485D02*
X005410Y004575D01*
X005320Y004460D02*
Y004485D01*
Y004460D02*
X005320Y004460D01*
X005510Y004282D02*
X005512Y004280D01*
X005321Y005352D02*
X005321Y005352D01*
X004733Y005352D02*
X004733Y005352D01*
X004930Y005327D02*
X004955Y005302D01*
X004930Y005327D02*
Y005352D01*
X004955Y005302D02*
X004979D01*
X005320Y005351D02*
X005321Y005352D01*
X005120D02*
X005321D01*
X005320Y004103D02*
X005321Y004103D01*
X004819Y004887D02*
Y004989D01*
X005320Y004995D02*
Y005020D01*
Y004995D02*
X005320Y004995D01*
X005510Y004995D02*
X005515Y004990D01*
X005320Y004817D02*
Y004995D01*
Y004817D02*
X005321Y004817D01*
X005320Y004816D02*
X005321Y004817D01*
X005320Y004680D02*
Y004816D01*
X005320Y004680D02*
X005320Y004680D01*
X005320Y005174D02*
Y005351D01*
X005510Y005173D02*
X005513Y005170D01*
X005320Y005173D02*
X005320Y005174D01*
X005077Y005223D02*
X005078Y005223D01*
X004733Y005173D02*
X004930D01*
X004979Y005302D02*
X005057Y005223D01*
X005120Y005173D02*
Y005198D01*
X005095Y005223D02*
X005120Y005198D01*
X005078Y005223D02*
X005095D01*
X005057Y005223D02*
X005077D01*
X004733Y005173D02*
X004733Y005173D01*
Y005352D01*
X004740Y004023D02*
X004819Y004102D01*
X004740Y003935D02*
Y004023D01*
X004685Y004183D02*
X004692Y004189D01*
X004387Y005351D02*
X004388Y005351D01*
X004387Y005173D02*
X004387Y005173D01*
Y005351D01*
X004367Y005173D02*
X004367Y005173D01*
X004543Y005351D02*
X004543Y005352D01*
X004388Y005351D02*
X004543D01*
X004295Y005058D02*
X004438Y004916D01*
X004197Y005173D02*
Y005351D01*
X004177Y005351D02*
X004177Y005352D01*
X004197Y005351D02*
X004197Y005352D01*
X004197Y005173D02*
X004197Y005173D01*
X004177Y005173D02*
X004177Y005173D01*
X005515Y004990D02*
X005620D01*
D48*
X007531Y001932D02*
D03*
X005861D02*
D03*
X004191D02*
D03*
X004629Y004544D02*
D03*
X001289D02*
D03*
X002959D02*
D03*
D49*
X004070Y000750D02*
D03*
X003424Y005781D02*
D03*
X004721Y005712D02*
D03*
X005370Y000710D02*
D03*
X003424Y006081D02*
D03*
X004811Y006032D02*
D03*
X003980Y000450D02*
D03*
X005370Y000410D02*
D03*
D50*
X000347Y004147D02*
D03*
Y004347D02*
D03*
X000547Y003947D02*
D03*
X000347D02*
D03*
X000547Y004147D02*
D03*
Y004347D02*
D03*
Y004547D02*
D03*
X000347D02*
D03*
X000547Y004747D02*
D03*
Y003747D02*
D03*
X000347Y003547D02*
D03*
X000547D02*
D03*
X000347Y003747D02*
D03*
X000547Y003347D02*
D03*
X000347Y003147D02*
D03*
X000547D02*
D03*
X000347Y003347D02*
D03*
X000547Y002947D02*
D03*
X000347D02*
D03*
X000547Y002747D02*
D03*
X000347Y002547D02*
D03*
X000547D02*
D03*
Y002347D02*
D03*
X000347Y002347D02*
D03*
Y002747D02*
D03*
D51*
Y004747D02*
D03*
D52*
X001574Y001733D02*
D03*
X001765D02*
D03*
X001115D02*
D03*
X001306D02*
D03*
D53*
X003023Y005931D02*
D03*
X005771Y000560D02*
D03*
D54*
X002635Y006151D02*
D03*
Y005931D02*
D03*
Y005711D02*
D03*
X002335Y006151D02*
D03*
Y005931D02*
D03*
Y005711D02*
D03*
X006458Y000780D02*
D03*
Y000560D02*
D03*
Y000340D02*
D03*
X006158Y000780D02*
D03*
Y000560D02*
D03*
Y000340D02*
D03*
D55*
X005230Y003236D02*
D03*
X005520D02*
D03*
D56*
X005230Y003490D02*
D03*
X005520D02*
D03*
D57*
X005321Y005680D02*
D03*
X005170Y000800D02*
D03*
X007040D02*
D03*
X003890D02*
D03*
X003700D02*
D03*
X007229D02*
D03*
X007488D02*
D03*
X006840D02*
D03*
X005620Y004103D02*
D03*
Y004817D02*
D03*
X007522Y000983D02*
D03*
X007724D02*
D03*
X007890Y001612D02*
D03*
X007523Y001415D02*
D03*
X005853D02*
D03*
X006220Y001612D02*
D03*
X006054Y000983D02*
D03*
X005852D02*
D03*
X004182D02*
D03*
X004384D02*
D03*
X004550Y001612D02*
D03*
X004183Y001415D02*
D03*
X004637Y005061D02*
D03*
X004270Y004864D02*
D03*
X004436Y005493D02*
D03*
X004638D02*
D03*
X001298D02*
D03*
X001096D02*
D03*
X000930Y004864D02*
D03*
X001297Y005061D02*
D03*
X002967D02*
D03*
X002600Y004864D02*
D03*
X002766Y005493D02*
D03*
X002968D02*
D03*
X002290Y005440D02*
D03*
X002400Y003925D02*
D03*
X004077D02*
D03*
X004760Y002540D02*
D03*
X007844Y002410D02*
D03*
X006170D02*
D03*
X004510D02*
D03*
X004258D02*
D03*
X007600D02*
D03*
X005930D02*
D03*
X008250Y002000D02*
D03*
X005000Y000500D02*
D03*
X004750Y001000D02*
D03*
X004000Y005500D02*
D03*
X003750Y006000D02*
D03*
X003250D02*
D03*
X002500Y002500D02*
D03*
X001000D02*
D03*
X003946Y004660D02*
D03*
X002290D02*
D03*
X004560Y004060D02*
D03*
X002640D02*
D03*
X004340D02*
D03*
X002890D02*
D03*
X000970D02*
D03*
X001220D02*
D03*
X001977Y003610D02*
D03*
X003450D02*
D03*
X003645D02*
D03*
X003946Y003747D02*
D03*
X002290D02*
D03*
X004751Y002773D02*
D03*
X001980Y005710D02*
D03*
X003240Y005686D02*
D03*
X003946Y004990D02*
D03*
X004077Y003809D02*
D03*
X003605Y005686D02*
D03*
X005120Y005680D02*
D03*
X005390Y003600D02*
D03*
X005212Y003630D02*
D03*
X005620Y005170D02*
D03*
X001780Y003610D02*
D03*
X001110Y003630D02*
D03*
X002390Y003400D02*
D03*
X004090Y003420D02*
D03*
X001443Y002094D02*
D03*
X001450Y002670D02*
D03*
X001930D02*
D03*
X001090Y003150D02*
D03*
X007260Y002398D02*
D03*
X005560Y002860D02*
D03*
X003185Y000940D02*
D03*
X006540Y001115D02*
D03*
X004870D02*
D03*
X003245Y001880D02*
D03*
X003500Y002860D02*
D03*
X005173D02*
D03*
X006413Y002723D02*
D03*
X004870Y001890D02*
D03*
X005080Y001880D02*
D03*
X004870Y002180D02*
D03*
Y002670D02*
D03*
X002935Y002684D02*
D03*
Y002570D02*
D03*
X003185Y001297D02*
D03*
X006540Y002723D02*
D03*
X003701Y002860D02*
D03*
X006540Y001300D02*
D03*
X004870D02*
D03*
Y001480D02*
D03*
X003200Y002723D02*
D03*
X002930Y002810D02*
D03*
X005370Y002860D02*
D03*
X006413Y002540D02*
D03*
X006940Y002723D02*
D03*
X005570Y000800D02*
D03*
X008147Y002723D02*
D03*
X006540Y002190D02*
D03*
X006750Y001880D02*
D03*
X006840Y001790D02*
D03*
X006540Y001480D02*
D03*
X003410Y001880D02*
D03*
X003500Y001790D02*
D03*
X003500Y000800D02*
D03*
X003200Y002190D02*
D03*
X002400Y003800D02*
D03*
X003200Y001586D02*
D03*
X005270Y001030D02*
D03*
X005620Y003747D02*
D03*
Y004280D02*
D03*
Y004990D02*
D03*
X005320Y004680D02*
D03*
X005410Y004590D02*
D03*
X003946Y005170D02*
D03*
X003740Y004590D02*
D03*
X003946Y004280D02*
D03*
X003650Y004680D02*
D03*
X003744Y005686D02*
D03*
X002070Y004590D02*
D03*
X001980Y004680D02*
D03*
X001780Y005710D02*
D03*
X001590D02*
D03*
X004930Y005680D02*
D03*
X001410Y005710D02*
D03*
X005030Y005810D02*
D03*
X002290Y005170D02*
D03*
Y004990D02*
D03*
Y004280D02*
D03*
X005170Y001790D02*
D03*
X000810Y003270D02*
D03*
X004860Y003080D02*
D03*
X002070Y001960D02*
D03*
D58*
X001799Y006095D02*
D03*
X004395Y003245D02*
D03*
X005445Y006095D02*
D03*
X000395Y001845D02*
D03*
X003345Y000395D02*
D03*
X008395Y002545D02*
D03*
X006991Y000395D02*
D03*
M02*
