G04*
G04 #@! TF.GenerationSoftware,Altium Limited,Altium Designer,22.1.2 (22)*
G04*
G04 Layer_Color=65535*
%FSAX42Y42*%
%MOMM*%
G71*
G04*
G04 #@! TF.SameCoordinates,6FD1DDA5-32B1-4A23-A03F-20BB7E89EF8F*
G04*
G04*
G04 #@! TF.FilePolarity,Positive*
G04*
G01*
G75*
%ADD10C,0.15*%
%ADD11C,0.25*%
%ADD12C,0.15*%
%ADD13C,0.20*%
%ADD14C,0.10*%
D10*
X002351Y002462D02*
G03*
X002199Y002462I-000076J000000D01*
G01*
X003658Y001739D02*
G03*
X003658Y001871I000000J000066D01*
G01*
X001268Y004479D02*
G03*
X001268Y004611I000000J000066D01*
G01*
X002898Y004479D02*
G03*
X002898Y004611I000000J000066D01*
G01*
X004528Y004479D02*
G03*
X004528Y004611I000000J000066D01*
G01*
X005288Y001739D02*
G03*
X005288Y001871I000000J000066D01*
G01*
X006918Y001739D02*
G03*
X006918Y001871I000000J000066D01*
G01*
X001653Y002462D02*
X002199D01*
X002351D02*
X002898D01*
X001653Y003452D02*
X002898D01*
Y002462D02*
Y003452D01*
X001653Y002462D02*
Y003452D01*
X003658Y001324D02*
Y001739D01*
Y001871D02*
Y002292D01*
Y001324D02*
X004344D01*
X003658Y002292D02*
X004344D01*
Y001324D02*
Y002292D01*
X001268Y004065D02*
Y004479D01*
Y004611D02*
Y005032D01*
Y004065D02*
X001954D01*
X001268Y005032D02*
X001954D01*
Y004065D02*
Y005032D01*
X003584Y004065D02*
Y005032D01*
X002898D02*
X003584D01*
X002898Y004065D02*
X003584D01*
X002898Y004611D02*
Y005032D01*
Y004065D02*
Y004479D01*
X005214Y004065D02*
Y005032D01*
X004528D02*
X005214D01*
X004528Y004065D02*
X005214D01*
X004528Y004611D02*
Y005032D01*
Y004065D02*
Y004479D01*
X005974Y001324D02*
Y002292D01*
X005288D02*
X005974D01*
X005288Y001324D02*
X005974D01*
X005288Y001871D02*
Y002292D01*
Y001324D02*
Y001739D01*
X007604Y001324D02*
Y002292D01*
X006918D02*
X007604D01*
X006918Y001324D02*
X007604D01*
X006918Y001871D02*
Y002292D01*
Y001324D02*
Y001739D01*
D11*
X003724Y001389D02*
G03*
X003724Y001389I-000012J000000D01*
G01*
X001334Y004129D02*
G03*
X001334Y004129I-000012J000000D01*
G01*
X002964D02*
G03*
X002964Y004129I-000012J000000D01*
G01*
X004594D02*
G03*
X004594Y004129I-000012J000000D01*
G01*
X005354Y001389D02*
G03*
X005354Y001389I-000012J000000D01*
G01*
X006984D02*
G03*
X006984Y001389I-000012J000000D01*
G01*
X005387Y005454D02*
Y005771D01*
X005526D01*
Y005454D02*
Y005771D01*
X005387Y005454D02*
X005526D01*
Y005771D02*
X005882D01*
Y005454D02*
Y005771D01*
X005526Y005454D02*
X005882D01*
X001016Y001278D02*
Y001634D01*
Y001278D02*
X001334D01*
Y001634D01*
X001016D02*
Y001774D01*
Y001634D02*
X001334D01*
Y001774D01*
X001016D02*
X001334D01*
D12*
X007916Y001134D02*
Y001197D01*
X007764Y001134D02*
Y001197D01*
X007777Y001324D02*
X007904D01*
X007777Y001006D02*
X007904D01*
X005383Y003006D02*
X005447D01*
X005383Y002854D02*
X005447D01*
X005256Y002867D02*
Y002993D01*
X005574Y002867D02*
Y002993D01*
X006974Y001106D02*
X007037D01*
X006974Y000954D02*
X007037D01*
X006847Y000966D02*
Y001094D01*
X007164Y000966D02*
Y001094D01*
X005164Y005583D02*
Y005647D01*
X005316Y005583D02*
Y005647D01*
X005176Y005456D02*
X005303D01*
X005176Y005774D02*
X005303D01*
X001366Y003513D02*
X001494D01*
X001366Y003196D02*
X001494D01*
X001506Y003323D02*
Y003387D01*
X001354Y003323D02*
Y003387D01*
X001366Y003159D02*
X001494D01*
X001366Y002841D02*
X001494D01*
X001506Y002968D02*
Y003032D01*
X001354Y002968D02*
Y003032D01*
X001366Y002804D02*
X001494D01*
X001366Y002486D02*
X001494D01*
X001506Y002614D02*
Y002677D01*
X001354Y002614D02*
Y002677D01*
X000736Y002486D02*
X000864D01*
X000736Y002804D02*
X000864D01*
X000724Y002614D02*
Y002677D01*
X000876Y002614D02*
Y002677D01*
X004093Y002666D02*
X004157D01*
X004093Y002514D02*
X004157D01*
X003966Y002526D02*
Y002653D01*
X004284Y002526D02*
Y002653D01*
X004470Y002466D02*
Y002529D01*
X004317Y002466D02*
Y002529D01*
X004330Y002656D02*
X004457D01*
X004330Y002339D02*
X004457D01*
X004504Y002466D02*
Y002529D01*
X004656Y002466D02*
Y002529D01*
X004517Y002339D02*
X004644D01*
X004517Y002656D02*
X004644D01*
X003363D02*
X003426D01*
X003363Y002504D02*
X003426D01*
X003236Y002517D02*
Y002643D01*
X003553Y002517D02*
Y002643D01*
X003944Y001093D02*
Y001156D01*
X004096Y001093D02*
Y001156D01*
X003956Y000966D02*
X004083D01*
X003956Y001284D02*
X004083D01*
X004656Y001093D02*
Y001156D01*
X004504Y001093D02*
Y001156D01*
X004517Y001284D02*
X004644D01*
X004517Y000966D02*
X004644D01*
X003363Y001106D02*
X003426D01*
X003363Y000954D02*
X003426D01*
X003236Y000966D02*
Y001094D01*
X003553Y000966D02*
Y001094D01*
X003363Y002133D02*
X003426D01*
X003363Y002285D02*
X003426D01*
X003553Y002145D02*
Y002273D01*
X003236Y002145D02*
Y002273D01*
X004504Y002008D02*
Y002072D01*
X004656Y002008D02*
Y002072D01*
X004517Y001881D02*
X004644D01*
X004517Y002199D02*
X004644D01*
X003363Y001334D02*
X003426D01*
X003363Y001486D02*
X003426D01*
X003553Y001347D02*
Y001473D01*
X003236Y001347D02*
Y001473D01*
X004656Y001551D02*
Y001614D01*
X004504Y001551D02*
Y001614D01*
X004517Y001741D02*
X004644D01*
X004517Y001424D02*
X004644D01*
X003363Y002318D02*
X003426D01*
X003363Y002471D02*
X003426D01*
X003553Y002331D02*
Y002458D01*
X003236Y002331D02*
Y002458D01*
X003363Y002100D02*
X003426D01*
X003363Y001947D02*
X003426D01*
X003236Y001960D02*
Y002087D01*
X003553Y001960D02*
Y002087D01*
X003714Y001106D02*
X003777D01*
X003714Y000954D02*
X003777D01*
X003587Y000966D02*
Y001094D01*
X003904Y000966D02*
Y001094D01*
X004453Y001156D02*
Y001284D01*
X004136Y001156D02*
Y001284D01*
X004263Y001144D02*
X004326D01*
X004263Y001296D02*
X004326D01*
X003236Y001156D02*
Y001284D01*
X003553Y001156D02*
Y001284D01*
X003363Y001296D02*
X003426D01*
X003363Y001144D02*
X003426D01*
X003363Y001676D02*
X003426D01*
X003363Y001524D02*
X003426D01*
X003236Y001536D02*
Y001664D01*
X003553Y001536D02*
Y001664D01*
X003904Y002517D02*
Y002643D01*
X003587Y002517D02*
Y002643D01*
X003714Y002504D02*
X003777D01*
X003714Y002656D02*
X003777D01*
X004093Y002328D02*
X004156D01*
X004093Y002481D02*
X004156D01*
X004283Y002341D02*
Y002468D01*
X003966Y002341D02*
Y002468D01*
X003714Y001144D02*
X003777D01*
X003714Y001296D02*
X003777D01*
X003904Y001156D02*
Y001284D01*
X003587Y001156D02*
Y001284D01*
X004453Y000966D02*
Y001094D01*
X004136Y000966D02*
Y001094D01*
X004263Y000954D02*
X004326D01*
X004263Y001106D02*
X004326D01*
X003587Y002331D02*
Y002458D01*
X003904Y002331D02*
Y002458D01*
X003714Y002471D02*
X003777D01*
X003714Y002318D02*
X003777D01*
X001703Y005406D02*
X001767D01*
X001703Y005254D02*
X001767D01*
X001576Y005267D02*
Y005394D01*
X001894Y005267D02*
Y005394D01*
X002080Y005206D02*
Y005269D01*
X001927Y005206D02*
Y005269D01*
X001940Y005396D02*
X002067D01*
X001940Y005079D02*
X002067D01*
X002114Y005206D02*
Y005269D01*
X002266Y005206D02*
Y005269D01*
X002126Y005079D02*
X002253D01*
X002126Y005396D02*
X002253D01*
X000973Y005058D02*
X001036D01*
X000973Y005211D02*
X001036D01*
X001164Y005071D02*
Y005198D01*
X000846Y005071D02*
Y005198D01*
X000973Y005396D02*
X001036D01*
X000973Y005244D02*
X001036D01*
X000846Y005257D02*
Y005384D01*
X001164Y005257D02*
Y005384D01*
X000973Y004840D02*
X001036D01*
X000973Y004687D02*
X001036D01*
X000846Y004700D02*
Y004827D01*
X001164Y004700D02*
Y004827D01*
X001324Y003846D02*
X001387D01*
X001324Y003694D02*
X001387D01*
X001197Y003706D02*
Y003833D01*
X001514Y003706D02*
Y003833D01*
X001554Y003833D02*
Y003897D01*
X001706Y003833D02*
Y003897D01*
X001566Y003706D02*
X001693D01*
X001566Y004024D02*
X001693D01*
X001873Y004036D02*
X001936D01*
X001873Y003884D02*
X001936D01*
X001746Y003897D02*
Y004024D01*
X002064Y003897D02*
Y004024D01*
X002266Y003833D02*
Y003897D01*
X002114Y003833D02*
Y003897D01*
X002127Y004024D02*
X002254D01*
X002127Y003706D02*
X002254D01*
X000973Y003884D02*
X001036D01*
X000973Y004036D02*
X001036D01*
X001164Y003897D02*
Y004024D01*
X000846Y003897D02*
Y004024D01*
X000973Y003846D02*
X001036D01*
X000973Y003694D02*
X001036D01*
X000846Y003706D02*
Y003833D01*
X001164Y003706D02*
Y003833D01*
X000973Y004416D02*
X001036D01*
X000973Y004264D02*
X001036D01*
X000846Y004276D02*
Y004403D01*
X001164Y004276D02*
Y004403D01*
X001514Y005257D02*
Y005384D01*
X001197Y005257D02*
Y005384D01*
X001324Y005244D02*
X001387D01*
X001324Y005396D02*
X001387D01*
X001703Y005068D02*
X001767D01*
X001703Y005221D02*
X001767D01*
X001893Y005081D02*
Y005208D01*
X001576Y005081D02*
Y005208D01*
X000973Y004873D02*
X001036D01*
X000973Y005025D02*
X001036D01*
X001164Y004886D02*
Y005013D01*
X000846Y004886D02*
Y005013D01*
X002114Y004748D02*
Y004812D01*
X002266Y004748D02*
Y004812D01*
X002126Y004621D02*
X002253D01*
X002126Y004939D02*
X002253D01*
X001324Y003884D02*
X001387D01*
X001324Y004036D02*
X001387D01*
X001514Y003897D02*
Y004024D01*
X001197Y003897D02*
Y004024D01*
X002064Y003706D02*
Y003833D01*
X001746Y003706D02*
Y003833D01*
X001873Y003694D02*
X001936D01*
X001873Y003846D02*
X001936D01*
X000973Y004074D02*
X001036D01*
X000973Y004226D02*
X001036D01*
X001164Y004087D02*
Y004213D01*
X000846Y004087D02*
Y004213D01*
X002266Y004291D02*
Y004354D01*
X002114Y004291D02*
Y004354D01*
X002127Y004481D02*
X002254D01*
X002127Y004164D02*
X002254D01*
X001197Y005071D02*
Y005198D01*
X001514Y005071D02*
Y005198D01*
X001324Y005211D02*
X001387D01*
X001324Y005058D02*
X001387D01*
X002633Y002284D02*
X002697D01*
X002633Y002436D02*
X002697D01*
X002824Y002297D02*
Y002424D01*
X002507Y002297D02*
Y002424D01*
X003524Y005267D02*
Y005394D01*
X003206Y005267D02*
Y005394D01*
X003333Y005254D02*
X003397D01*
X003333Y005406D02*
X003397D01*
X003570Y005079D02*
X003697D01*
X003570Y005396D02*
X003697D01*
X003557Y005206D02*
Y005269D01*
X003710Y005206D02*
Y005269D01*
X003756Y005396D02*
X003883D01*
X003756Y005079D02*
X003883D01*
X003896Y005206D02*
Y005269D01*
X003744Y005206D02*
Y005269D01*
X002476Y005071D02*
Y005198D01*
X002793Y005071D02*
Y005198D01*
X002603Y005211D02*
X002667D01*
X002603Y005058D02*
X002667D01*
X002793Y005257D02*
Y005384D01*
X002476Y005257D02*
Y005384D01*
X002603Y005244D02*
X002667D01*
X002603Y005396D02*
X002667D01*
X002793Y004700D02*
Y004827D01*
X002476Y004700D02*
Y004827D01*
X002603Y004687D02*
X002667D01*
X002603Y004840D02*
X002667D01*
X003144Y003706D02*
Y003833D01*
X002827Y003706D02*
Y003833D01*
X002954Y003694D02*
X003017D01*
X002954Y003846D02*
X003017D01*
X003197Y004024D02*
X003324D01*
X003197Y003706D02*
X003324D01*
X003336Y003833D02*
Y003897D01*
X003184Y003833D02*
Y003897D01*
X003694Y003897D02*
Y004024D01*
X003376Y003897D02*
Y004024D01*
X003503Y003884D02*
X003567D01*
X003503Y004036D02*
X003567D01*
X003757Y003706D02*
X003884D01*
X003757Y004024D02*
X003884D01*
X003744Y003833D02*
Y003897D01*
X003896Y003833D02*
Y003897D01*
X002476Y003897D02*
Y004024D01*
X002793Y003897D02*
Y004024D01*
X002603Y004036D02*
X002667D01*
X002603Y003884D02*
X002667D01*
X002793Y003706D02*
Y003833D01*
X002476Y003706D02*
Y003833D01*
X002603Y003694D02*
X002667D01*
X002603Y003846D02*
X002667D01*
X002793Y004276D02*
Y004403D01*
X002476Y004276D02*
Y004403D01*
X002603Y004264D02*
X002667D01*
X002603Y004416D02*
X002667D01*
X002954Y005396D02*
X003017D01*
X002954Y005244D02*
X003017D01*
X002827Y005257D02*
Y005384D01*
X003144Y005257D02*
Y005384D01*
X003206Y005081D02*
Y005208D01*
X003524Y005081D02*
Y005208D01*
X003333Y005221D02*
X003397D01*
X003333Y005068D02*
X003397D01*
X002476Y004886D02*
Y005013D01*
X002793Y004886D02*
Y005013D01*
X002603Y005025D02*
X002667D01*
X002603Y004873D02*
X002667D01*
X003756Y004939D02*
X003883D01*
X003756Y004621D02*
X003883D01*
X003896Y004748D02*
Y004812D01*
X003744Y004748D02*
Y004812D01*
X002827Y003897D02*
Y004024D01*
X003144Y003897D02*
Y004024D01*
X002954Y004036D02*
X003017D01*
X002954Y003884D02*
X003017D01*
X003503Y003846D02*
X003567D01*
X003503Y003694D02*
X003567D01*
X003376Y003706D02*
Y003833D01*
X003694Y003706D02*
Y003833D01*
X002476Y004087D02*
Y004213D01*
X002793Y004087D02*
Y004213D01*
X002603Y004226D02*
X002667D01*
X002603Y004074D02*
X002667D01*
X003757Y004164D02*
X003884D01*
X003757Y004481D02*
X003884D01*
X003744Y004291D02*
Y004354D01*
X003896Y004291D02*
Y004354D01*
X002954Y005058D02*
X003017D01*
X002954Y005211D02*
X003017D01*
X003144Y005071D02*
Y005198D01*
X002827Y005071D02*
Y005198D01*
X005153Y005267D02*
Y005394D01*
X004836Y005267D02*
Y005394D01*
X004963Y005254D02*
X005026D01*
X004963Y005406D02*
X005026D01*
X005200Y005079D02*
X005327D01*
X005200Y005396D02*
X005327D01*
X005187Y005206D02*
Y005269D01*
X005340Y005206D02*
Y005269D01*
X005387Y005396D02*
X005513D01*
X005387Y005079D02*
X005513D01*
X005526Y005206D02*
Y005269D01*
X005374Y005206D02*
Y005269D01*
X004106Y005071D02*
Y005198D01*
X004424Y005071D02*
Y005198D01*
X004233Y005211D02*
X004297D01*
X004233Y005058D02*
X004297D01*
X004424Y005257D02*
Y005384D01*
X004106Y005257D02*
Y005384D01*
X004233Y005244D02*
X004297D01*
X004233Y005396D02*
X004297D01*
X004424Y004700D02*
Y004827D01*
X004106Y004700D02*
Y004827D01*
X004233Y004687D02*
X004297D01*
X004233Y004840D02*
X004297D01*
X004774Y003706D02*
Y003833D01*
X004457Y003706D02*
Y003833D01*
X004584Y003694D02*
X004647D01*
X004584Y003846D02*
X004647D01*
X004826Y004024D02*
X004953D01*
X004826Y003706D02*
X004953D01*
X004966Y003833D02*
Y003897D01*
X004814Y003833D02*
Y003897D01*
X005324Y003897D02*
Y004024D01*
X005006Y003897D02*
Y004024D01*
X005133Y003884D02*
X005197D01*
X005133Y004036D02*
X005197D01*
X005387Y003706D02*
X005514D01*
X005387Y004024D02*
X005514D01*
X005374Y003833D02*
Y003897D01*
X005526Y003833D02*
Y003897D01*
X004106Y003897D02*
Y004024D01*
X004424Y003897D02*
Y004024D01*
X004233Y004036D02*
X004297D01*
X004233Y003884D02*
X004297D01*
X004424Y003706D02*
Y003833D01*
X004106Y003706D02*
Y003833D01*
X004233Y003694D02*
X004297D01*
X004233Y003846D02*
X004297D01*
X004424Y004276D02*
Y004403D01*
X004106Y004276D02*
Y004403D01*
X004233Y004264D02*
X004297D01*
X004233Y004416D02*
X004297D01*
X004584Y005396D02*
X004647D01*
X004584Y005244D02*
X004647D01*
X004457Y005257D02*
Y005384D01*
X004774Y005257D02*
Y005384D01*
X004836Y005081D02*
Y005208D01*
X005153Y005081D02*
Y005208D01*
X004963Y005221D02*
X005026D01*
X004963Y005068D02*
X005026D01*
X004106Y004886D02*
Y005013D01*
X004424Y004886D02*
Y005013D01*
X004233Y005025D02*
X004297D01*
X004233Y004873D02*
X004297D01*
X005387Y004939D02*
X005513D01*
X005387Y004621D02*
X005513D01*
X005526Y004748D02*
Y004812D01*
X005374Y004748D02*
Y004812D01*
X004456Y003897D02*
Y004024D01*
X004774Y003897D02*
Y004024D01*
X004583Y004036D02*
X004647D01*
X004583Y003884D02*
X004647D01*
X005133Y003846D02*
X005197D01*
X005133Y003694D02*
X005197D01*
X005006Y003706D02*
Y003833D01*
X005324Y003706D02*
Y003833D01*
X004106Y004087D02*
Y004213D01*
X004424Y004087D02*
Y004213D01*
X004233Y004226D02*
X004297D01*
X004233Y004074D02*
X004297D01*
X005387Y004164D02*
X005514D01*
X005387Y004481D02*
X005514D01*
X005374Y004291D02*
Y004354D01*
X005526Y004291D02*
Y004354D01*
X004583Y005058D02*
X004647D01*
X004583Y005211D02*
X004647D01*
X004774Y005071D02*
Y005198D01*
X004456Y005071D02*
Y005198D01*
X005914Y002526D02*
Y002653D01*
X005596Y002526D02*
Y002653D01*
X005723Y002514D02*
X005787D01*
X005723Y002666D02*
X005787D01*
X005960Y002339D02*
X006087D01*
X005960Y002656D02*
X006087D01*
X005947Y002466D02*
Y002529D01*
X006100Y002466D02*
Y002529D01*
X006147Y002656D02*
X006274D01*
X006147Y002339D02*
X006274D01*
X006286Y002466D02*
Y002529D01*
X006134Y002466D02*
Y002529D01*
X004866Y002331D02*
Y002458D01*
X005183Y002331D02*
Y002458D01*
X004993Y002471D02*
X005056D01*
X004993Y002318D02*
X005056D01*
X005183Y002517D02*
Y002643D01*
X004866Y002517D02*
Y002643D01*
X004993Y002504D02*
X005056D01*
X004993Y002656D02*
X005056D01*
X005183Y001960D02*
Y002087D01*
X004866Y001960D02*
Y002087D01*
X004993Y001947D02*
X005056D01*
X004993Y002100D02*
X005056D01*
X005534Y000966D02*
Y001094D01*
X005217Y000966D02*
Y001094D01*
X005344Y000954D02*
X005407D01*
X005344Y001106D02*
X005407D01*
X005587Y001284D02*
X005713D01*
X005587Y000966D02*
X005713D01*
X005726Y001093D02*
Y001156D01*
X005574Y001093D02*
Y001156D01*
X006083Y001156D02*
Y001284D01*
X005766Y001156D02*
Y001284D01*
X005893Y001144D02*
X005956D01*
X005893Y001296D02*
X005956D01*
X006147Y000966D02*
X006274D01*
X006147Y001284D02*
X006274D01*
X006134Y001093D02*
Y001156D01*
X006286Y001093D02*
Y001156D01*
X004866Y001156D02*
Y001284D01*
X005183Y001156D02*
Y001284D01*
X004993Y001296D02*
X005056D01*
X004993Y001144D02*
X005056D01*
X005183Y000966D02*
Y001094D01*
X004866Y000966D02*
Y001094D01*
X004993Y000954D02*
X005056D01*
X004993Y001106D02*
X005056D01*
X005183Y001536D02*
Y001664D01*
X004866Y001536D02*
Y001664D01*
X004993Y001524D02*
X005056D01*
X004993Y001676D02*
X005056D01*
X005344Y002656D02*
X005407D01*
X005344Y002504D02*
X005407D01*
X005217Y002517D02*
Y002643D01*
X005534Y002517D02*
Y002643D01*
X005596Y002341D02*
Y002468D01*
X005913Y002341D02*
Y002468D01*
X005723Y002481D02*
X005787D01*
X005723Y002328D02*
X005787D01*
X004866Y002145D02*
Y002273D01*
X005183Y002145D02*
Y002273D01*
X004993Y002285D02*
X005056D01*
X004993Y002133D02*
X005056D01*
X006147Y002199D02*
X006274D01*
X006147Y001881D02*
X006274D01*
X006286Y002008D02*
Y002072D01*
X006134Y002008D02*
Y002072D01*
X005217Y001156D02*
Y001284D01*
X005534Y001156D02*
Y001284D01*
X005344Y001296D02*
X005407D01*
X005344Y001144D02*
X005407D01*
X005893Y001106D02*
X005956D01*
X005893Y000954D02*
X005956D01*
X005766Y000966D02*
Y001094D01*
X006083Y000966D02*
Y001094D01*
X004866Y001347D02*
Y001473D01*
X005183Y001347D02*
Y001473D01*
X004993Y001486D02*
X005056D01*
X004993Y001334D02*
X005056D01*
X006147Y001424D02*
X006274D01*
X006147Y001741D02*
X006274D01*
X006134Y001551D02*
Y001614D01*
X006286Y001551D02*
Y001614D01*
X005344Y002318D02*
X005407D01*
X005344Y002471D02*
X005407D01*
X005534Y002331D02*
Y002458D01*
X005217Y002331D02*
Y002458D01*
X007544Y002526D02*
Y002653D01*
X007226Y002526D02*
Y002653D01*
X007353Y002514D02*
X007417D01*
X007353Y002666D02*
X007417D01*
X007590Y002339D02*
X007717D01*
X007590Y002656D02*
X007717D01*
X007577Y002466D02*
Y002529D01*
X007730Y002466D02*
Y002529D01*
X007776Y002656D02*
X007904D01*
X007776Y002339D02*
X007904D01*
X007916Y002466D02*
Y002529D01*
X007764Y002466D02*
Y002529D01*
X006496Y002331D02*
Y002458D01*
X006814Y002331D02*
Y002458D01*
X006623Y002471D02*
X006686D01*
X006623Y002318D02*
X006686D01*
X006814Y002517D02*
Y002643D01*
X006496Y002517D02*
Y002643D01*
X006623Y002504D02*
X006686D01*
X006623Y002656D02*
X006686D01*
X006814Y001960D02*
Y002087D01*
X006496Y001960D02*
Y002087D01*
X006623Y001947D02*
X006686D01*
X006623Y002100D02*
X006686D01*
X007217Y001284D02*
X007343D01*
X007217Y000966D02*
X007343D01*
X007356Y001093D02*
Y001156D01*
X007204Y001093D02*
Y001156D01*
X007714Y001156D02*
Y001284D01*
X007396Y001156D02*
Y001284D01*
X007523Y001144D02*
X007586D01*
X007523Y001296D02*
X007586D01*
X006496Y001156D02*
Y001284D01*
X006814Y001156D02*
Y001284D01*
X006623Y001296D02*
X006686D01*
X006623Y001144D02*
X006686D01*
X006814Y000966D02*
Y001094D01*
X006496Y000966D02*
Y001094D01*
X006623Y000954D02*
X006686D01*
X006623Y001106D02*
X006686D01*
X006814Y001536D02*
Y001664D01*
X006496Y001536D02*
Y001664D01*
X006623Y001524D02*
X006686D01*
X006623Y001676D02*
X006686D01*
X006974Y002656D02*
X007037D01*
X006974Y002504D02*
X007037D01*
X006847Y002517D02*
Y002643D01*
X007164Y002517D02*
Y002643D01*
X007226Y002341D02*
Y002468D01*
X007543Y002341D02*
Y002468D01*
X007353Y002481D02*
X007417D01*
X007353Y002328D02*
X007417D01*
X006496Y002145D02*
Y002273D01*
X006814Y002145D02*
Y002273D01*
X006623Y002285D02*
X006686D01*
X006623Y002133D02*
X006686D01*
X007776Y002199D02*
X007904D01*
X007776Y001881D02*
X007904D01*
X007916Y002008D02*
Y002072D01*
X007764Y002008D02*
Y002072D01*
X006846Y001156D02*
Y001284D01*
X007164Y001156D02*
Y001284D01*
X006974Y001296D02*
X007037D01*
X006974Y001144D02*
X007037D01*
X007523Y001106D02*
X007586D01*
X007523Y000954D02*
X007586D01*
X007396Y000966D02*
Y001094D01*
X007714Y000966D02*
Y001094D01*
X006496Y001347D02*
Y001473D01*
X006814Y001347D02*
Y001473D01*
X006623Y001486D02*
X006686D01*
X006623Y001334D02*
X006686D01*
X007777Y001424D02*
X007904D01*
X007777Y001741D02*
X007904D01*
X007764Y001551D02*
Y001614D01*
X007916Y001551D02*
Y001614D01*
X006974Y002318D02*
X007037D01*
X006974Y002471D02*
X007037D01*
X007164Y002331D02*
Y002458D01*
X006846Y002331D02*
Y002458D01*
X001564Y001634D02*
X001627D01*
X001564Y001786D02*
X001627D01*
X001754Y001647D02*
Y001774D01*
X001436Y001647D02*
Y001774D01*
X000997Y002486D02*
Y002614D01*
X001314Y002486D02*
Y002614D01*
X001123Y002626D02*
X001187D01*
X001123Y002474D02*
X001187D01*
X000247Y002447D02*
Y004447D01*
Y002447D02*
X000647D01*
Y004447D01*
X000247D02*
X000647D01*
D13*
X005395Y003029D02*
Y003537D01*
X005645Y003030D02*
Y003537D01*
X005395Y003029D02*
X005644D01*
X005395Y003537D02*
X005645D01*
X005160Y003200D02*
Y003360D01*
X005340D02*
X005341Y003201D01*
X004930Y003200D02*
Y003360D01*
X005110D02*
X005111Y003201D01*
X004700Y003200D02*
Y003360D01*
X004880D02*
X004881Y003201D01*
X002120Y001757D02*
X002153Y001690D01*
X002187Y001757D01*
X002270Y001690D02*
X002237D01*
X002220Y001707D01*
Y001740D01*
X002237Y001757D01*
X002270D01*
X002287Y001740D01*
Y001723D01*
X002220D01*
X002320Y001757D02*
Y001690D01*
Y001723D01*
X002337Y001740D01*
X002353Y001757D01*
X002370D01*
X002420Y001690D02*
Y001707D01*
X002437D01*
Y001690D01*
X002420D01*
X002570D02*
X002503D01*
X002570Y001757D01*
Y001773D01*
X002553Y001790D01*
X002520D01*
X002503Y001773D01*
X002603Y001690D02*
Y001707D01*
X002620D01*
Y001690D01*
X002603D01*
X002686Y001773D02*
X002703Y001790D01*
X002736D01*
X002753Y001773D01*
Y001707D01*
X002736Y001690D01*
X002703D01*
X002686Y001707D01*
Y001773D01*
D14*
X001537Y003475D02*
Y003433D01*
X001545Y003425D01*
X001562D01*
X001570Y003433D01*
Y003475D01*
X001587Y003425D02*
X001603D01*
X001595D01*
Y003475D01*
X001587Y003467D01*
X007779Y001350D02*
Y001400D01*
X007804D01*
X007813Y001391D01*
Y001375D01*
X007804Y001366D01*
X007779D01*
X007796D02*
X007813Y001350D01*
X007829D02*
X007846D01*
X007838D01*
Y001400D01*
X007829Y001391D01*
X007871Y001400D02*
X007904D01*
Y001391D01*
X007871Y001358D01*
Y001350D01*
X005315Y004083D02*
X005265D01*
Y004108D01*
X005273Y004117D01*
X005290D01*
X005298Y004108D01*
Y004083D01*
Y004100D02*
X005315Y004117D01*
X005265Y004133D02*
Y004167D01*
X005273D01*
X005307Y004133D01*
X005315D01*
X005265Y004217D02*
Y004183D01*
X005290D01*
X005282Y004200D01*
Y004208D01*
X005290Y004217D01*
X005307D01*
X005315Y004208D01*
Y004192D01*
X005307Y004183D01*
X005017Y003637D02*
X005008Y003645D01*
X004992D01*
X004983Y003637D01*
Y003603D01*
X004992Y003595D01*
X005008D01*
X005017Y003603D01*
X005058Y003595D02*
Y003645D01*
X005033Y003620D01*
X005067D01*
X005083Y003645D02*
X005117D01*
Y003637D01*
X005083Y003603D01*
Y003595D01*
X005618Y002855D02*
Y002905D01*
X005643D01*
X005652Y002897D01*
Y002880D01*
X005643Y002872D01*
X005618D01*
X005635D02*
X005652Y002855D01*
X005668Y002905D02*
X005702D01*
Y002897D01*
X005668Y002863D01*
Y002855D01*
X005533Y005815D02*
Y005865D01*
X005558D01*
X005567Y005857D01*
Y005840D01*
X005558Y005832D01*
X005533D01*
X005550D02*
X005567Y005815D01*
X005583Y005865D02*
Y005815D01*
Y005832D01*
X005617Y005865D01*
X005592Y005840D01*
X005617Y005815D01*
X005667D02*
X005633D01*
X005667Y005848D01*
Y005857D01*
X005658Y005865D01*
X005642D01*
X005633Y005857D01*
X004988Y005815D02*
Y005865D01*
X005013D01*
X005022Y005857D01*
Y005840D01*
X005013Y005832D01*
X004988D01*
X005005D02*
X005022Y005815D01*
X005072D02*
X005038D01*
X005072Y005848D01*
Y005857D01*
X005063Y005865D01*
X005047D01*
X005038Y005857D01*
X001117Y002707D02*
X001108Y002715D01*
X001092D01*
X001083Y002707D01*
Y002673D01*
X001092Y002665D01*
X001108D01*
X001117Y002673D01*
X001133Y002707D02*
X001142Y002715D01*
X001158D01*
X001167Y002707D01*
Y002698D01*
X001158Y002690D01*
X001167Y002682D01*
Y002673D01*
X001158Y002665D01*
X001142D01*
X001133Y002673D01*
Y002682D01*
X001142Y002690D01*
X001133Y002698D01*
Y002707D01*
X001142Y002690D02*
X001158D01*
X001183Y002707D02*
X001192Y002715D01*
X001208D01*
X001217Y002707D01*
Y002698D01*
X001208Y002690D01*
X001217Y002682D01*
Y002673D01*
X001208Y002665D01*
X001192D01*
X001183Y002673D01*
Y002682D01*
X001192Y002690D01*
X001183Y002698D01*
Y002707D01*
X001192Y002690D02*
X001208D01*
X001122Y001835D02*
Y001885D01*
X001147D01*
X001155Y001877D01*
Y001860D01*
X001147Y001852D01*
X001122D01*
X001138D02*
X001155Y001835D01*
X001172Y001885D02*
Y001835D01*
Y001852D01*
X001205Y001885D01*
X001180Y001860D01*
X001205Y001835D01*
X001222D02*
X001238D01*
X001230D01*
Y001885D01*
X001222Y001877D01*
X005618Y002985D02*
X005652Y002935D01*
Y002985D02*
X005618Y002935D01*
X005702D02*
X005668D01*
X005702Y002968D01*
Y002977D01*
X005693Y002985D01*
X005677D01*
X005668Y002977D01*
X001681Y005525D02*
Y005575D01*
X001706D01*
X001714Y005567D01*
Y005550D01*
X001706Y005542D01*
X001681D01*
X001698D02*
X001714Y005525D01*
X001731D02*
X001748D01*
X001739D01*
Y005575D01*
X001731Y005567D01*
X001806Y005525D02*
X001772D01*
X001806Y005558D01*
Y005567D01*
X001797Y005575D01*
X001781D01*
X001772Y005567D01*
X001822Y005525D02*
X001839D01*
X001831D01*
Y005575D01*
X001822Y005567D01*
X001903Y005445D02*
Y005495D01*
X001928D01*
X001936Y005487D01*
Y005470D01*
X001928Y005462D01*
X001903D01*
X001919D02*
X001936Y005445D01*
X001953D02*
X001969D01*
X001961D01*
Y005495D01*
X001953Y005487D01*
X002027Y005445D02*
X001994D01*
X002027Y005478D01*
Y005487D01*
X002019Y005495D01*
X002002D01*
X001994Y005487D01*
X002044D02*
X002052Y005495D01*
X002069D01*
X002077Y005487D01*
Y005453D01*
X002069Y005445D01*
X002052D01*
X002044Y005453D01*
Y005487D01*
X002127Y005445D02*
Y005495D01*
X002152D01*
X002160Y005487D01*
Y005470D01*
X002152Y005462D01*
X002127D01*
X002143D02*
X002160Y005445D01*
X002177D02*
X002193D01*
X002185D01*
Y005495D01*
X002177Y005487D01*
X002218Y005445D02*
X002235D01*
X002227D01*
Y005495D01*
X002218Y005487D01*
X002260Y005453D02*
X002268Y005445D01*
X002285D01*
X002293Y005453D01*
Y005487D01*
X002285Y005495D01*
X002268D01*
X002260Y005487D01*
Y005478D01*
X002268Y005470D01*
X002293D01*
X000517Y005035D02*
Y005085D01*
X000542D01*
X000550Y005077D01*
Y005060D01*
X000542Y005052D01*
X000517D01*
X000533D02*
X000550Y005035D01*
X000567D02*
X000583D01*
X000575D01*
Y005085D01*
X000567Y005077D01*
X000608Y005035D02*
X000625D01*
X000617D01*
Y005085D01*
X000608Y005077D01*
X000650D02*
X000658Y005085D01*
X000675D01*
X000683Y005077D01*
Y005068D01*
X000675Y005060D01*
X000683Y005052D01*
Y005043D01*
X000675Y005035D01*
X000658D01*
X000650Y005043D01*
Y005052D01*
X000658Y005060D01*
X000650Y005068D01*
Y005077D01*
X000658Y005060D02*
X000675D01*
X000927Y005445D02*
Y005495D01*
X000952D01*
X000960Y005487D01*
Y005470D01*
X000952Y005462D01*
X000927D01*
X000943D02*
X000960Y005445D01*
X000977D02*
X000993D01*
X000985D01*
Y005495D01*
X000977Y005487D01*
X001018Y005445D02*
X001035D01*
X001027D01*
Y005495D01*
X001018Y005487D01*
X001060Y005495D02*
X001093D01*
Y005487D01*
X001060Y005453D01*
Y005445D01*
X000527Y004735D02*
Y004785D01*
X000552D01*
X000560Y004777D01*
Y004760D01*
X000552Y004752D01*
X000527D01*
X000543D02*
X000560Y004735D01*
X000577D02*
X000593D01*
X000585D01*
Y004785D01*
X000577Y004777D01*
X000618Y004735D02*
X000635D01*
X000627D01*
Y004785D01*
X000618Y004777D01*
X000693Y004785D02*
X000677Y004777D01*
X000660Y004760D01*
Y004743D01*
X000668Y004735D01*
X000685D01*
X000693Y004743D01*
Y004752D01*
X000685Y004760D01*
X000660D01*
X000855Y002937D02*
X000805D01*
Y002962D01*
X000813Y002970D01*
X000830D01*
X000838Y002962D01*
Y002937D01*
Y002953D02*
X000855Y002970D01*
Y002987D02*
Y003003D01*
Y002995D01*
X000805D01*
X000813Y002987D01*
X000855Y003028D02*
Y003045D01*
Y003037D01*
X000805D01*
X000813Y003028D01*
X000805Y003103D02*
Y003070D01*
X000830D01*
X000822Y003087D01*
Y003095D01*
X000830Y003103D01*
X000847D01*
X000855Y003095D01*
Y003078D01*
X000847Y003070D01*
X000945Y002937D02*
X000895D01*
Y002962D01*
X000903Y002970D01*
X000920D01*
X000928Y002962D01*
Y002937D01*
Y002953D02*
X000945Y002970D01*
Y002987D02*
Y003003D01*
Y002995D01*
X000895D01*
X000903Y002987D01*
X000945Y003028D02*
Y003045D01*
Y003037D01*
X000895D01*
X000903Y003028D01*
X000945Y003095D02*
X000895D01*
X000920Y003070D01*
Y003103D01*
X000987Y003025D02*
Y003075D01*
X001012D01*
X001020Y003067D01*
Y003050D01*
X001012Y003042D01*
X000987D01*
X001003D02*
X001020Y003025D01*
X001037D02*
X001053D01*
X001045D01*
Y003075D01*
X001037Y003067D01*
X001078Y003025D02*
X001095D01*
X001087D01*
Y003075D01*
X001078Y003067D01*
X001120D02*
X001128Y003075D01*
X001145D01*
X001153Y003067D01*
Y003058D01*
X001145Y003050D01*
X001137D01*
X001145D01*
X001153Y003042D01*
Y003033D01*
X001145Y003025D01*
X001128D01*
X001120Y003033D01*
X002107Y004068D02*
Y004118D01*
X002132D01*
X002140Y004110D01*
Y004093D01*
X002132Y004085D01*
X002107D01*
X002123D02*
X002140Y004068D01*
X002157D02*
X002173D01*
X002165D01*
Y004118D01*
X002157Y004110D01*
X002198Y004068D02*
X002215D01*
X002207D01*
Y004118D01*
X002198Y004110D01*
X002273Y004068D02*
X002240D01*
X002273Y004102D01*
Y004110D01*
X002265Y004118D01*
X002248D01*
X002240Y004110D01*
X000765Y003145D02*
X000715D01*
Y003170D01*
X000723Y003178D01*
X000740D01*
X000748Y003170D01*
Y003145D01*
Y003162D02*
X000765Y003178D01*
Y003195D02*
Y003212D01*
Y003203D01*
X000715D01*
X000723Y003195D01*
X000765Y003237D02*
Y003253D01*
Y003245D01*
X000715D01*
X000723Y003237D01*
X000765Y003278D02*
Y003295D01*
Y003287D01*
X000715D01*
X000723Y003278D01*
X000765Y002937D02*
X000715D01*
Y002962D01*
X000723Y002970D01*
X000740D01*
X000748Y002962D01*
Y002937D01*
Y002953D02*
X000765Y002970D01*
Y002987D02*
Y003003D01*
Y002995D01*
X000715D01*
X000723Y002987D01*
X000765Y003028D02*
Y003045D01*
Y003037D01*
X000715D01*
X000723Y003028D01*
Y003070D02*
X000715Y003078D01*
Y003095D01*
X000723Y003103D01*
X000757D01*
X000765Y003095D01*
Y003078D01*
X000757Y003070D01*
X000723D01*
X000903Y004455D02*
Y004505D01*
X000928D01*
X000936Y004497D01*
Y004480D01*
X000928Y004472D01*
X000903D01*
X000919D02*
X000936Y004455D01*
X000953D02*
X000969D01*
X000961D01*
Y004505D01*
X000953Y004497D01*
X000994D02*
X001002Y004505D01*
X001019D01*
X001027Y004497D01*
Y004463D01*
X001019Y004455D01*
X001002D01*
X000994Y004463D01*
Y004497D01*
X001044Y004463D02*
X001052Y004455D01*
X001069D01*
X001077Y004463D01*
Y004497D01*
X001069Y004505D01*
X001052D01*
X001044Y004497D01*
Y004488D01*
X001052Y004480D01*
X001077D01*
X001283Y005525D02*
Y005575D01*
X001308D01*
X001316Y005567D01*
Y005550D01*
X001308Y005542D01*
X001283D01*
X001299D02*
X001316Y005525D01*
X001333D02*
X001349D01*
X001341D01*
Y005575D01*
X001333Y005567D01*
X001374D02*
X001382Y005575D01*
X001399D01*
X001407Y005567D01*
Y005533D01*
X001399Y005525D01*
X001382D01*
X001374Y005533D01*
Y005567D01*
X001424D02*
X001432Y005575D01*
X001449D01*
X001457Y005567D01*
Y005558D01*
X001449Y005550D01*
X001457Y005542D01*
Y005533D01*
X001449Y005525D01*
X001432D01*
X001424Y005533D01*
Y005542D01*
X001432Y005550D01*
X001424Y005558D01*
Y005567D01*
X001432Y005550D02*
X001449D01*
X003293Y005525D02*
Y005575D01*
X003318D01*
X003326Y005567D01*
Y005550D01*
X003318Y005542D01*
X003293D01*
X003309D02*
X003326Y005525D01*
X003343D02*
X003359D01*
X003351D01*
Y005575D01*
X003343Y005567D01*
X003384D02*
X003392Y005575D01*
X003409D01*
X003417Y005567D01*
Y005533D01*
X003409Y005525D01*
X003392D01*
X003384Y005533D01*
Y005567D01*
X003467Y005525D02*
X003434D01*
X003467Y005558D01*
Y005567D01*
X003459Y005575D01*
X003442D01*
X003434Y005567D01*
X003541Y005455D02*
Y005505D01*
X003566D01*
X003574Y005497D01*
Y005480D01*
X003566Y005472D01*
X003541D01*
X003558D02*
X003574Y005455D01*
X003591D02*
X003608D01*
X003599D01*
Y005505D01*
X003591Y005497D01*
X003632D02*
X003641Y005505D01*
X003657D01*
X003666Y005497D01*
Y005463D01*
X003657Y005455D01*
X003641D01*
X003632Y005463D01*
Y005497D01*
X003682Y005455D02*
X003699D01*
X003691D01*
Y005505D01*
X003682Y005497D01*
X003753Y005455D02*
Y005505D01*
X003778D01*
X003786Y005497D01*
Y005480D01*
X003778Y005472D01*
X003753D01*
X003769D02*
X003786Y005455D01*
X003803D02*
X003819D01*
X003811D01*
Y005505D01*
X003803Y005497D01*
X003844D02*
X003852Y005505D01*
X003869D01*
X003877Y005497D01*
Y005463D01*
X003869Y005455D01*
X003852D01*
X003844Y005463D01*
Y005497D01*
X003894D02*
X003902Y005505D01*
X003919D01*
X003927Y005497D01*
Y005463D01*
X003919Y005455D01*
X003902D01*
X003894Y005463D01*
Y005497D01*
X002425Y005081D02*
X002375D01*
Y005106D01*
X002383Y005114D01*
X002400D01*
X002408Y005106D01*
Y005081D01*
Y005098D02*
X002425Y005114D01*
X002417Y005131D02*
X002425Y005139D01*
Y005156D01*
X002417Y005164D01*
X002383D01*
X002375Y005156D01*
Y005139D01*
X002383Y005131D01*
X002392D01*
X002400Y005139D01*
Y005164D01*
X002417Y005181D02*
X002425Y005189D01*
Y005206D01*
X002417Y005214D01*
X002383D01*
X002375Y005206D01*
Y005189D01*
X002383Y005181D01*
X002392D01*
X002400Y005189D01*
Y005214D01*
X002425Y005253D02*
X002375D01*
Y005278D01*
X002383Y005287D01*
X002400D01*
X002408Y005278D01*
Y005253D01*
Y005270D02*
X002425Y005287D01*
X002417Y005303D02*
X002425Y005312D01*
Y005328D01*
X002417Y005337D01*
X002383D01*
X002375Y005328D01*
Y005312D01*
X002383Y005303D01*
X002392D01*
X002400Y005312D01*
Y005337D01*
X002383Y005353D02*
X002375Y005362D01*
Y005378D01*
X002383Y005387D01*
X002392D01*
X002400Y005378D01*
X002408Y005387D01*
X002417D01*
X002425Y005378D01*
Y005362D01*
X002417Y005353D01*
X002408D01*
X002400Y005362D01*
X002392Y005353D01*
X002383D01*
X002400Y005362D02*
Y005378D01*
X002425Y004703D02*
X002375D01*
Y004728D01*
X002383Y004737D01*
X002400D01*
X002408Y004728D01*
Y004703D01*
Y004720D02*
X002425Y004737D01*
X002417Y004753D02*
X002425Y004762D01*
Y004778D01*
X002417Y004787D01*
X002383D01*
X002375Y004778D01*
Y004762D01*
X002383Y004753D01*
X002392D01*
X002400Y004762D01*
Y004787D01*
X002375Y004803D02*
Y004837D01*
X002383D01*
X002417Y004803D01*
X002425D01*
X002435Y003723D02*
X002385D01*
Y003748D01*
X002393Y003757D01*
X002410D01*
X002418Y003748D01*
Y003723D01*
Y003740D02*
X002435Y003757D01*
X002427Y003773D02*
X002435Y003782D01*
Y003798D01*
X002427Y003807D01*
X002393D01*
X002385Y003798D01*
Y003782D01*
X002393Y003773D01*
X002402D01*
X002410Y003782D01*
Y003807D01*
X002385Y003857D02*
X002393Y003840D01*
X002410Y003823D01*
X002427D01*
X002435Y003832D01*
Y003848D01*
X002427Y003857D01*
X002418D01*
X002410Y003848D01*
Y003823D01*
X003193Y003435D02*
Y003485D01*
X003218D01*
X003227Y003477D01*
Y003460D01*
X003218Y003452D01*
X003193D01*
X003210D02*
X003227Y003435D01*
X003243Y003443D02*
X003252Y003435D01*
X003268D01*
X003277Y003443D01*
Y003477D01*
X003268Y003485D01*
X003252D01*
X003243Y003477D01*
Y003468D01*
X003252Y003460D01*
X003277D01*
X003327Y003485D02*
X003293D01*
Y003460D01*
X003310Y003468D01*
X003318D01*
X003327Y003460D01*
Y003443D01*
X003318Y003435D01*
X003302D01*
X003293Y003443D01*
X003675Y004073D02*
X003625D01*
Y004098D01*
X003633Y004107D01*
X003650D01*
X003658Y004098D01*
Y004073D01*
Y004090D02*
X003675Y004107D01*
X003667Y004123D02*
X003675Y004132D01*
Y004148D01*
X003667Y004157D01*
X003633D01*
X003625Y004148D01*
Y004132D01*
X003633Y004123D01*
X003642D01*
X003650Y004132D01*
Y004157D01*
X003675Y004198D02*
X003625D01*
X003650Y004173D01*
Y004207D01*
X003753Y004065D02*
Y004115D01*
X003778D01*
X003787Y004107D01*
Y004090D01*
X003778Y004082D01*
X003753D01*
X003770D02*
X003787Y004065D01*
X003803Y004073D02*
X003812Y004065D01*
X003828D01*
X003837Y004073D01*
Y004107D01*
X003828Y004115D01*
X003812D01*
X003803Y004107D01*
Y004098D01*
X003812Y004090D01*
X003837D01*
X003853Y004107D02*
X003862Y004115D01*
X003878D01*
X003887Y004107D01*
Y004098D01*
X003878Y004090D01*
X003870D01*
X003878D01*
X003887Y004082D01*
Y004073D01*
X003878Y004065D01*
X003862D01*
X003853Y004073D01*
X002355Y003893D02*
X002305D01*
Y003918D01*
X002313Y003927D01*
X002330D01*
X002338Y003918D01*
Y003893D01*
Y003910D02*
X002355Y003927D01*
X002347Y003943D02*
X002355Y003952D01*
Y003968D01*
X002347Y003977D01*
X002313D01*
X002305Y003968D01*
Y003952D01*
X002313Y003943D01*
X002322D01*
X002330Y003952D01*
Y003977D01*
X002355Y004027D02*
Y003993D01*
X002322Y004027D01*
X002313D01*
X002305Y004018D01*
Y004002D01*
X002313Y003993D01*
X002355Y003722D02*
X002305D01*
Y003747D01*
X002313Y003755D01*
X002330D01*
X002338Y003747D01*
Y003722D01*
Y003738D02*
X002355Y003755D01*
X002347Y003772D02*
X002355Y003780D01*
Y003797D01*
X002347Y003805D01*
X002313D01*
X002305Y003797D01*
Y003780D01*
X002313Y003772D01*
X002322D01*
X002330Y003780D01*
Y003805D01*
X002355Y003822D02*
Y003838D01*
Y003830D01*
X002305D01*
X002313Y003822D01*
X002435Y004273D02*
X002385D01*
Y004298D01*
X002393Y004307D01*
X002410D01*
X002418Y004298D01*
Y004273D01*
Y004290D02*
X002435Y004307D01*
X002427Y004323D02*
X002435Y004332D01*
Y004348D01*
X002427Y004357D01*
X002393D01*
X002385Y004348D01*
Y004332D01*
X002393Y004323D01*
X002402D01*
X002410Y004332D01*
Y004357D01*
X002393Y004373D02*
X002385Y004382D01*
Y004398D01*
X002393Y004407D01*
X002427D01*
X002435Y004398D01*
Y004382D01*
X002427Y004373D01*
X002393D01*
X002923Y005515D02*
Y005565D01*
X002948D01*
X002957Y005557D01*
Y005540D01*
X002948Y005532D01*
X002923D01*
X002940D02*
X002957Y005515D01*
X002973Y005557D02*
X002982Y005565D01*
X002998D01*
X003007Y005557D01*
Y005548D01*
X002998Y005540D01*
X003007Y005532D01*
Y005523D01*
X002998Y005515D01*
X002982D01*
X002973Y005523D01*
Y005532D01*
X002982Y005540D01*
X002973Y005548D01*
Y005557D01*
X002982Y005540D02*
X002998D01*
X003023Y005523D02*
X003032Y005515D01*
X003048D01*
X003057Y005523D01*
Y005557D01*
X003048Y005565D01*
X003032D01*
X003023Y005557D01*
Y005548D01*
X003032Y005540D01*
X003057D01*
X004993Y005515D02*
Y005565D01*
X005018D01*
X005027Y005557D01*
Y005540D01*
X005018Y005532D01*
X004993D01*
X005010D02*
X005027Y005515D01*
X005043Y005557D02*
X005052Y005565D01*
X005068D01*
X005077Y005557D01*
Y005548D01*
X005068Y005540D01*
X005077Y005532D01*
Y005523D01*
X005068Y005515D01*
X005052D01*
X005043Y005523D01*
Y005532D01*
X005052Y005540D01*
X005043Y005548D01*
Y005557D01*
X005052Y005540D02*
X005068D01*
X005093Y005557D02*
X005102Y005565D01*
X005118D01*
X005127Y005557D01*
Y005548D01*
X005118Y005540D01*
X005110D01*
X005118D01*
X005127Y005532D01*
Y005523D01*
X005118Y005515D01*
X005102D01*
X005093Y005523D01*
X004993Y005735D02*
Y005785D01*
X005018D01*
X005027Y005777D01*
Y005760D01*
X005018Y005752D01*
X004993D01*
X005010D02*
X005027Y005735D01*
X005043Y005777D02*
X005052Y005785D01*
X005068D01*
X005077Y005777D01*
Y005768D01*
X005068Y005760D01*
X005077Y005752D01*
Y005743D01*
X005068Y005735D01*
X005052D01*
X005043Y005743D01*
Y005752D01*
X005052Y005760D01*
X005043Y005768D01*
Y005777D01*
X005052Y005760D02*
X005068D01*
X005127Y005735D02*
X005093D01*
X005127Y005768D01*
Y005777D01*
X005118Y005785D01*
X005102D01*
X005093Y005777D01*
X005152Y005815D02*
Y005865D01*
X005177D01*
X005185Y005857D01*
Y005840D01*
X005177Y005832D01*
X005152D01*
X005168D02*
X005185Y005815D01*
X005202Y005857D02*
X005210Y005865D01*
X005227D01*
X005235Y005857D01*
Y005848D01*
X005227Y005840D01*
X005235Y005832D01*
Y005823D01*
X005227Y005815D01*
X005210D01*
X005202Y005823D01*
Y005832D01*
X005210Y005840D01*
X005202Y005848D01*
Y005857D01*
X005210Y005840D02*
X005227D01*
X005252Y005815D02*
X005268D01*
X005260D01*
Y005865D01*
X005252Y005857D01*
X004055Y005081D02*
X004005D01*
Y005106D01*
X004013Y005114D01*
X004030D01*
X004038Y005106D01*
Y005081D01*
Y005098D02*
X004055Y005114D01*
X004013Y005131D02*
X004005Y005139D01*
Y005156D01*
X004013Y005164D01*
X004022D01*
X004030Y005156D01*
X004038Y005164D01*
X004047D01*
X004055Y005156D01*
Y005139D01*
X004047Y005131D01*
X004038D01*
X004030Y005139D01*
X004022Y005131D01*
X004013D01*
X004030Y005139D02*
Y005156D01*
X004013Y005181D02*
X004005Y005189D01*
Y005206D01*
X004013Y005214D01*
X004047D01*
X004055Y005206D01*
Y005189D01*
X004047Y005181D01*
X004013D01*
X004055Y005253D02*
X004005D01*
Y005278D01*
X004013Y005287D01*
X004030D01*
X004038Y005278D01*
Y005253D01*
Y005270D02*
X004055Y005287D01*
X004005Y005303D02*
Y005337D01*
X004013D01*
X004047Y005303D01*
X004055D01*
X004047Y005353D02*
X004055Y005362D01*
Y005378D01*
X004047Y005387D01*
X004013D01*
X004005Y005378D01*
Y005362D01*
X004013Y005353D01*
X004022D01*
X004030Y005362D01*
Y005387D01*
X004055Y004703D02*
X004005D01*
Y004728D01*
X004013Y004737D01*
X004030D01*
X004038Y004728D01*
Y004703D01*
Y004720D02*
X004055Y004737D01*
X004005Y004753D02*
Y004787D01*
X004013D01*
X004047Y004753D01*
X004055D01*
X004013Y004803D02*
X004005Y004812D01*
Y004828D01*
X004013Y004837D01*
X004022D01*
X004030Y004828D01*
X004038Y004837D01*
X004047D01*
X004055Y004828D01*
Y004812D01*
X004047Y004803D01*
X004038D01*
X004030Y004812D01*
X004022Y004803D01*
X004013D01*
X004030Y004812D02*
Y004828D01*
X004065Y003713D02*
X004015D01*
Y003738D01*
X004023Y003747D01*
X004040D01*
X004048Y003738D01*
Y003713D01*
Y003730D02*
X004065Y003747D01*
X004015Y003763D02*
Y003797D01*
X004023D01*
X004057Y003763D01*
X004065D01*
X004015Y003813D02*
Y003847D01*
X004023D01*
X004057Y003813D01*
X004065D01*
X004823Y003845D02*
Y003895D01*
X004848D01*
X004857Y003887D01*
Y003870D01*
X004848Y003862D01*
X004823D01*
X004840D02*
X004857Y003845D01*
X004873Y003895D02*
X004907D01*
Y003887D01*
X004873Y003853D01*
Y003845D01*
X004957Y003895D02*
X004940Y003887D01*
X004923Y003870D01*
Y003853D01*
X004932Y003845D01*
X004948D01*
X004957Y003853D01*
Y003862D01*
X004948Y003870D01*
X004923D01*
X005383Y004068D02*
Y004118D01*
X005408D01*
X005417Y004110D01*
Y004093D01*
X005408Y004085D01*
X005383D01*
X005400D02*
X005417Y004068D01*
X005433Y004118D02*
X005467D01*
Y004110D01*
X005433Y004077D01*
Y004068D01*
X005508D02*
Y004118D01*
X005483Y004093D01*
X005517D01*
X003975Y003893D02*
X003925D01*
Y003918D01*
X003933Y003927D01*
X003950D01*
X003958Y003918D01*
Y003893D01*
Y003910D02*
X003975Y003927D01*
X003925Y003943D02*
Y003977D01*
X003933D01*
X003967Y003943D01*
X003975D01*
X003933Y003993D02*
X003925Y004002D01*
Y004018D01*
X003933Y004027D01*
X003942D01*
X003950Y004018D01*
Y004010D01*
Y004018D01*
X003958Y004027D01*
X003967D01*
X003975Y004018D01*
Y004002D01*
X003967Y003993D01*
X003975Y003713D02*
X003925D01*
Y003738D01*
X003933Y003747D01*
X003950D01*
X003958Y003738D01*
Y003713D01*
Y003730D02*
X003975Y003747D01*
X003925Y003763D02*
Y003797D01*
X003933D01*
X003967Y003763D01*
X003975D01*
Y003847D02*
Y003813D01*
X003942Y003847D01*
X003933D01*
X003925Y003838D01*
Y003822D01*
X003933Y003813D01*
X004065Y004273D02*
X004015D01*
Y004298D01*
X004023Y004307D01*
X004040D01*
X004048Y004298D01*
Y004273D01*
Y004290D02*
X004065Y004307D01*
X004015Y004323D02*
Y004357D01*
X004023D01*
X004057Y004323D01*
X004065D01*
Y004373D02*
Y004390D01*
Y004382D01*
X004015D01*
X004023Y004373D01*
X004543Y005515D02*
Y005565D01*
X004568D01*
X004577Y005557D01*
Y005540D01*
X004568Y005532D01*
X004543D01*
X004560D02*
X004577Y005515D01*
X004593Y005565D02*
X004627D01*
Y005557D01*
X004593Y005523D01*
Y005515D01*
X004643Y005557D02*
X004652Y005565D01*
X004668D01*
X004677Y005557D01*
Y005523D01*
X004668Y005515D01*
X004652D01*
X004643Y005523D01*
Y005557D01*
X005493Y002765D02*
Y002815D01*
X005518D01*
X005527Y002807D01*
Y002790D01*
X005518Y002782D01*
X005493D01*
X005510D02*
X005527Y002765D01*
X005568D02*
Y002815D01*
X005543Y002790D01*
X005577D01*
X005627Y002815D02*
X005593D01*
Y002790D01*
X005610Y002798D01*
X005618D01*
X005627Y002790D01*
Y002773D01*
X005618Y002765D01*
X005602D01*
X005593Y002773D01*
X005775Y002703D02*
X005725D01*
Y002728D01*
X005733Y002737D01*
X005750D01*
X005758Y002728D01*
Y002703D01*
Y002720D02*
X005775Y002737D01*
Y002778D02*
X005725D01*
X005750Y002753D01*
Y002787D01*
X005775Y002828D02*
X005725D01*
X005750Y002803D01*
Y002837D01*
X005855Y002703D02*
X005805D01*
Y002728D01*
X005813Y002737D01*
X005830D01*
X005838Y002728D01*
Y002703D01*
Y002720D02*
X005855Y002737D01*
Y002778D02*
X005805D01*
X005830Y002753D01*
Y002787D01*
X005813Y002803D02*
X005805Y002812D01*
Y002828D01*
X005813Y002837D01*
X005822D01*
X005830Y002828D01*
Y002820D01*
Y002828D01*
X005838Y002837D01*
X005847D01*
X005855Y002828D01*
Y002812D01*
X005847Y002803D01*
X004815Y002341D02*
X004765D01*
Y002366D01*
X004773Y002374D01*
X004790D01*
X004798Y002366D01*
Y002341D01*
Y002358D02*
X004815Y002374D01*
Y002416D02*
X004765D01*
X004790Y002391D01*
Y002424D01*
X004815Y002474D02*
Y002441D01*
X004782Y002474D01*
X004773D01*
X004765Y002466D01*
Y002449D01*
X004773Y002441D01*
X004815Y002513D02*
X004765D01*
Y002538D01*
X004773Y002547D01*
X004790D01*
X004798Y002538D01*
Y002513D01*
Y002530D02*
X004815Y002547D01*
Y002588D02*
X004765D01*
X004790Y002563D01*
Y002597D01*
X004815Y002613D02*
Y002630D01*
Y002622D01*
X004765D01*
X004773Y002613D01*
X004815Y001963D02*
X004765D01*
Y001988D01*
X004773Y001997D01*
X004790D01*
X004798Y001988D01*
Y001963D01*
Y001980D02*
X004815Y001997D01*
Y002038D02*
X004765D01*
X004790Y002013D01*
Y002047D01*
X004773Y002063D02*
X004765Y002072D01*
Y002088D01*
X004773Y002097D01*
X004807D01*
X004815Y002088D01*
Y002072D01*
X004807Y002063D01*
X004773D01*
X004825Y000973D02*
X004775D01*
Y000998D01*
X004783Y001007D01*
X004800D01*
X004808Y000998D01*
Y000973D01*
Y000990D02*
X004825Y001007D01*
X004783Y001023D02*
X004775Y001032D01*
Y001048D01*
X004783Y001057D01*
X004792D01*
X004800Y001048D01*
Y001040D01*
Y001048D01*
X004808Y001057D01*
X004817D01*
X004825Y001048D01*
Y001032D01*
X004817Y001023D01*
Y001073D02*
X004825Y001082D01*
Y001098D01*
X004817Y001107D01*
X004783D01*
X004775Y001098D01*
Y001082D01*
X004783Y001073D01*
X004792D01*
X004800Y001082D01*
Y001107D01*
X005543Y000885D02*
Y000935D01*
X005568D01*
X005577Y000927D01*
Y000910D01*
X005568Y000902D01*
X005543D01*
X005560D02*
X005577Y000885D01*
X005593Y000927D02*
X005602Y000935D01*
X005618D01*
X005627Y000927D01*
Y000918D01*
X005618Y000910D01*
X005610D01*
X005618D01*
X005627Y000902D01*
Y000893D01*
X005618Y000885D01*
X005602D01*
X005593Y000893D01*
X005643Y000927D02*
X005652Y000935D01*
X005668D01*
X005677Y000927D01*
Y000918D01*
X005668Y000910D01*
X005677Y000902D01*
Y000893D01*
X005668Y000885D01*
X005652D01*
X005643Y000893D01*
Y000902D01*
X005652Y000910D01*
X005643Y000918D01*
Y000927D01*
X005652Y000910D02*
X005668D01*
X006065Y001333D02*
X006015D01*
Y001358D01*
X006023Y001367D01*
X006040D01*
X006048Y001358D01*
Y001333D01*
Y001350D02*
X006065Y001367D01*
X006023Y001383D02*
X006015Y001392D01*
Y001408D01*
X006023Y001417D01*
X006032D01*
X006040Y001408D01*
Y001400D01*
Y001408D01*
X006048Y001417D01*
X006057D01*
X006065Y001408D01*
Y001392D01*
X006057Y001383D01*
X006015Y001433D02*
Y001467D01*
X006023D01*
X006057Y001433D01*
X006065D01*
X006153Y001335D02*
Y001385D01*
X006178D01*
X006187Y001377D01*
Y001360D01*
X006178Y001352D01*
X006153D01*
X006170D02*
X006187Y001335D01*
X006203Y001377D02*
X006212Y001385D01*
X006228D01*
X006237Y001377D01*
Y001368D01*
X006228Y001360D01*
X006220D01*
X006228D01*
X006237Y001352D01*
Y001343D01*
X006228Y001335D01*
X006212D01*
X006203Y001343D01*
X006287Y001385D02*
X006270Y001377D01*
X006253Y001360D01*
Y001343D01*
X006262Y001335D01*
X006278D01*
X006287Y001343D01*
Y001352D01*
X006278Y001360D01*
X006253D01*
X004745Y001153D02*
X004695D01*
Y001178D01*
X004703Y001187D01*
X004720D01*
X004728Y001178D01*
Y001153D01*
Y001170D02*
X004745Y001187D01*
X004703Y001203D02*
X004695Y001212D01*
Y001228D01*
X004703Y001237D01*
X004712D01*
X004720Y001228D01*
Y001220D01*
Y001228D01*
X004728Y001237D01*
X004737D01*
X004745Y001228D01*
Y001212D01*
X004737Y001203D01*
X004695Y001287D02*
Y001253D01*
X004720D01*
X004712Y001270D01*
Y001278D01*
X004720Y001287D01*
X004737D01*
X004745Y001278D01*
Y001262D01*
X004737Y001253D01*
X004745Y000973D02*
X004695D01*
Y000998D01*
X004703Y001007D01*
X004720D01*
X004728Y000998D01*
Y000973D01*
Y000990D02*
X004745Y001007D01*
X004703Y001023D02*
X004695Y001032D01*
Y001048D01*
X004703Y001057D01*
X004712D01*
X004720Y001048D01*
Y001040D01*
Y001048D01*
X004728Y001057D01*
X004737D01*
X004745Y001048D01*
Y001032D01*
X004737Y001023D01*
X004745Y001098D02*
X004695D01*
X004720Y001073D01*
Y001107D01*
X004825Y001533D02*
X004775D01*
Y001558D01*
X004783Y001567D01*
X004800D01*
X004808Y001558D01*
Y001533D01*
Y001550D02*
X004825Y001567D01*
X004783Y001583D02*
X004775Y001592D01*
Y001608D01*
X004783Y001617D01*
X004792D01*
X004800Y001608D01*
Y001600D01*
Y001608D01*
X004808Y001617D01*
X004817D01*
X004825Y001608D01*
Y001592D01*
X004817Y001583D01*
X004783Y001633D02*
X004775Y001642D01*
Y001658D01*
X004783Y001667D01*
X004792D01*
X004800Y001658D01*
Y001650D01*
Y001658D01*
X004808Y001667D01*
X004817D01*
X004825Y001658D01*
Y001642D01*
X004817Y001633D01*
X005313Y002765D02*
Y002815D01*
X005338D01*
X005347Y002807D01*
Y002790D01*
X005338Y002782D01*
X005313D01*
X005330D02*
X005347Y002765D01*
X005363Y002807D02*
X005372Y002815D01*
X005388D01*
X005397Y002807D01*
Y002798D01*
X005388Y002790D01*
X005380D01*
X005388D01*
X005397Y002782D01*
Y002773D01*
X005388Y002765D01*
X005372D01*
X005363Y002773D01*
X005447Y002765D02*
X005413D01*
X005447Y002798D01*
Y002807D01*
X005438Y002815D01*
X005422D01*
X005413Y002807D01*
X007093Y002765D02*
Y002815D01*
X007118D01*
X007127Y002807D01*
Y002790D01*
X007118Y002782D01*
X007093D01*
X007110D02*
X007127Y002765D01*
X007177D02*
X007143D01*
X007177Y002798D01*
Y002807D01*
X007168Y002815D01*
X007152D01*
X007143Y002807D01*
X007227Y002815D02*
X007210Y002807D01*
X007193Y002790D01*
Y002773D01*
X007202Y002765D01*
X007218D01*
X007227Y002773D01*
Y002782D01*
X007218Y002790D01*
X007193D01*
X007345Y002693D02*
X007295D01*
Y002718D01*
X007303Y002727D01*
X007320D01*
X007328Y002718D01*
Y002693D01*
Y002710D02*
X007345Y002727D01*
Y002777D02*
Y002743D01*
X007312Y002777D01*
X007303D01*
X007295Y002768D01*
Y002752D01*
X007303Y002743D01*
X007295Y002827D02*
Y002793D01*
X007320D01*
X007312Y002810D01*
Y002818D01*
X007320Y002827D01*
X007337D01*
X007345Y002818D01*
Y002802D01*
X007337Y002793D01*
X007425Y002693D02*
X007375D01*
Y002718D01*
X007383Y002727D01*
X007400D01*
X007408Y002718D01*
Y002693D01*
Y002710D02*
X007425Y002727D01*
Y002777D02*
Y002743D01*
X007392Y002777D01*
X007383D01*
X007375Y002768D01*
Y002752D01*
X007383Y002743D01*
X007425Y002818D02*
X007375D01*
X007400Y002793D01*
Y002827D01*
X006445Y002341D02*
X006395D01*
Y002366D01*
X006403Y002374D01*
X006420D01*
X006428Y002366D01*
Y002341D01*
Y002358D02*
X006445Y002374D01*
Y002424D02*
Y002391D01*
X006412Y002424D01*
X006403D01*
X006395Y002416D01*
Y002399D01*
X006403Y002391D01*
Y002441D02*
X006395Y002449D01*
Y002466D01*
X006403Y002474D01*
X006412D01*
X006420Y002466D01*
Y002458D01*
Y002466D01*
X006428Y002474D01*
X006437D01*
X006445Y002466D01*
Y002449D01*
X006437Y002441D01*
X006445Y002513D02*
X006395D01*
Y002538D01*
X006403Y002547D01*
X006420D01*
X006428Y002538D01*
Y002513D01*
Y002530D02*
X006445Y002547D01*
Y002597D02*
Y002563D01*
X006412Y002597D01*
X006403D01*
X006395Y002588D01*
Y002572D01*
X006403Y002563D01*
X006445Y002647D02*
Y002613D01*
X006412Y002647D01*
X006403D01*
X006395Y002638D01*
Y002622D01*
X006403Y002613D01*
X006445Y001963D02*
X006395D01*
Y001988D01*
X006403Y001997D01*
X006420D01*
X006428Y001988D01*
Y001963D01*
Y001980D02*
X006445Y001997D01*
Y002047D02*
Y002013D01*
X006412Y002047D01*
X006403D01*
X006395Y002038D01*
Y002022D01*
X006403Y002013D01*
X006445Y002063D02*
Y002080D01*
Y002072D01*
X006395D01*
X006403Y002063D01*
X006455Y000973D02*
X006405D01*
Y000998D01*
X006413Y001007D01*
X006430D01*
X006438Y000998D01*
Y000973D01*
Y000990D02*
X006455Y001007D01*
Y001057D02*
Y001023D01*
X006422Y001057D01*
X006413D01*
X006405Y001048D01*
Y001032D01*
X006413Y001023D01*
Y001073D02*
X006405Y001082D01*
Y001098D01*
X006413Y001107D01*
X006447D01*
X006455Y001098D01*
Y001082D01*
X006447Y001073D01*
X006413D01*
X007222Y000890D02*
Y000940D01*
X007247D01*
X007255Y000932D01*
Y000915D01*
X007247Y000907D01*
X007222D01*
X007239D02*
X007255Y000890D01*
X007272D02*
X007289D01*
X007280D01*
Y000940D01*
X007272Y000932D01*
X007314Y000899D02*
X007322Y000890D01*
X007339D01*
X007347Y000899D01*
Y000932D01*
X007339Y000940D01*
X007322D01*
X007314Y000932D01*
Y000924D01*
X007322Y000915D01*
X007347D01*
X007705Y001338D02*
X007655D01*
Y001363D01*
X007663Y001371D01*
X007680D01*
X007688Y001363D01*
Y001338D01*
Y001354D02*
X007705Y001371D01*
Y001388D02*
Y001404D01*
Y001396D01*
X007655D01*
X007663Y001388D01*
Y001429D02*
X007655Y001437D01*
Y001454D01*
X007663Y001462D01*
X007672D01*
X007680Y001454D01*
X007688Y001462D01*
X007697D01*
X007705Y001454D01*
Y001437D01*
X007697Y001429D01*
X007688D01*
X007680Y001437D01*
X007672Y001429D01*
X007663D01*
X007680Y001437D02*
Y001454D01*
X006375Y001148D02*
X006325D01*
Y001173D01*
X006333Y001181D01*
X006350D01*
X006358Y001173D01*
Y001148D01*
Y001164D02*
X006375Y001181D01*
Y001198D02*
Y001214D01*
Y001206D01*
X006325D01*
X006333Y001198D01*
X006325Y001272D02*
X006333Y001256D01*
X006350Y001239D01*
X006367D01*
X006375Y001247D01*
Y001264D01*
X006367Y001272D01*
X006358D01*
X006350Y001264D01*
Y001239D01*
X006375Y000978D02*
X006325D01*
Y001003D01*
X006333Y001011D01*
X006350D01*
X006358Y001003D01*
Y000978D01*
Y000994D02*
X006375Y001011D01*
Y001028D02*
Y001044D01*
Y001036D01*
X006325D01*
X006333Y001028D01*
X006325Y001102D02*
Y001069D01*
X006350D01*
X006342Y001086D01*
Y001094D01*
X006350Y001102D01*
X006367D01*
X006375Y001094D01*
Y001077D01*
X006367Y001069D01*
X006455Y001533D02*
X006405D01*
Y001558D01*
X006413Y001567D01*
X006430D01*
X006438Y001558D01*
Y001533D01*
Y001550D02*
X006455Y001567D01*
Y001583D02*
Y001600D01*
Y001592D01*
X006405D01*
X006413Y001583D01*
X006455Y001650D02*
X006405D01*
X006430Y001625D01*
Y001658D01*
X006918Y002765D02*
Y002815D01*
X006943D01*
X006951Y002807D01*
Y002790D01*
X006943Y002782D01*
X006918D01*
X006934D02*
X006951Y002765D01*
X006968D02*
X006984D01*
X006976D01*
Y002815D01*
X006968Y002807D01*
X007009D02*
X007017Y002815D01*
X007034D01*
X007042Y002807D01*
Y002798D01*
X007034Y002790D01*
X007026D01*
X007034D01*
X007042Y002782D01*
Y002773D01*
X007034Y002765D01*
X007017D01*
X007009Y002773D01*
X001388Y003545D02*
Y003595D01*
X001413D01*
X001422Y003587D01*
Y003570D01*
X001413Y003562D01*
X001388D01*
X001405D02*
X001422Y003545D01*
X001472Y003595D02*
X001455Y003587D01*
X001438Y003570D01*
Y003553D01*
X001447Y003545D01*
X001463D01*
X001472Y003553D01*
Y003562D01*
X001463Y003570D01*
X001438D01*
X001218Y002975D02*
Y003025D01*
X001243D01*
X001252Y003017D01*
Y003000D01*
X001243Y002992D01*
X001218D01*
X001235D02*
X001252Y002975D01*
X001302Y003025D02*
X001268D01*
Y003000D01*
X001285Y003008D01*
X001293D01*
X001302Y003000D01*
Y002983D01*
X001293Y002975D01*
X001277D01*
X001268Y002983D01*
X002628Y002185D02*
Y002235D01*
X002653D01*
X002662Y002227D01*
Y002210D01*
X002653Y002202D01*
X002628D01*
X002645D02*
X002662Y002185D01*
X002703D02*
Y002235D01*
X002678Y002210D01*
X002712D01*
X001388Y002395D02*
Y002445D01*
X001413D01*
X001422Y002437D01*
Y002420D01*
X001413Y002412D01*
X001388D01*
X001405D02*
X001422Y002395D01*
X001438Y002437D02*
X001447Y002445D01*
X001463D01*
X001472Y002437D01*
Y002428D01*
X001463Y002420D01*
X001455D01*
X001463D01*
X001472Y002412D01*
Y002403D01*
X001463Y002395D01*
X001447D01*
X001438Y002403D01*
X001557Y001835D02*
Y001885D01*
X001582D01*
X001590Y001877D01*
Y001860D01*
X001582Y001852D01*
X001557D01*
X001573D02*
X001590Y001835D01*
X001607D02*
X001623D01*
X001615D01*
Y001885D01*
X001607Y001877D01*
X000767Y002895D02*
Y002845D01*
X000800D01*
X000817D02*
X000833D01*
X000825D01*
Y002895D01*
X000817Y002887D01*
X001465Y004563D02*
X001515D01*
Y004588D01*
X001507Y004597D01*
X001473D01*
X001465Y004588D01*
Y004563D01*
X001515Y004613D02*
X001482D01*
X001465Y004630D01*
X001482Y004647D01*
X001515D01*
X001490D01*
Y004613D01*
X001465Y004697D02*
X001473Y004680D01*
X001490Y004663D01*
X001507D01*
X001515Y004672D01*
Y004688D01*
X001507Y004697D01*
X001498D01*
X001490Y004688D01*
Y004663D01*
X003095Y004563D02*
X003145D01*
Y004588D01*
X003137Y004597D01*
X003103D01*
X003095Y004588D01*
Y004563D01*
X003145Y004613D02*
X003112D01*
X003095Y004630D01*
X003112Y004647D01*
X003145D01*
X003120D01*
Y004613D01*
X003095Y004697D02*
Y004663D01*
X003120D01*
X003112Y004680D01*
Y004688D01*
X003120Y004697D01*
X003137D01*
X003145Y004688D01*
Y004672D01*
X003137Y004663D01*
X004725Y004563D02*
X004775D01*
Y004588D01*
X004767Y004597D01*
X004733D01*
X004725Y004588D01*
Y004563D01*
X004775Y004613D02*
X004742D01*
X004725Y004630D01*
X004742Y004647D01*
X004775D01*
X004750D01*
Y004613D01*
X004775Y004688D02*
X004725D01*
X004750Y004663D01*
Y004697D01*
X005485Y001823D02*
X005535D01*
Y001848D01*
X005527Y001857D01*
X005493D01*
X005485Y001848D01*
Y001823D01*
X005535Y001873D02*
X005502D01*
X005485Y001890D01*
X005502Y001907D01*
X005535D01*
X005510D01*
Y001873D01*
X005535Y001957D02*
Y001923D01*
X005502Y001957D01*
X005493D01*
X005485Y001948D01*
Y001932D01*
X005493Y001923D01*
X007115Y001823D02*
X007165D01*
Y001848D01*
X007157Y001857D01*
X007123D01*
X007115Y001848D01*
Y001823D01*
X007165Y001873D02*
X007132D01*
X007115Y001890D01*
X007132Y001907D01*
X007165D01*
X007140D01*
Y001873D01*
X007165Y001923D02*
Y001940D01*
Y001932D01*
X007115D01*
X007123Y001923D01*
X001717Y005487D02*
X001708Y005495D01*
X001692D01*
X001683Y005487D01*
Y005453D01*
X001692Y005445D01*
X001708D01*
X001717Y005453D01*
X001733Y005495D02*
X001767D01*
Y005487D01*
X001733Y005453D01*
Y005445D01*
X001817Y005495D02*
X001783D01*
Y005470D01*
X001800Y005478D01*
X001808D01*
X001817Y005470D01*
Y005453D01*
X001808Y005445D01*
X001792D01*
X001783Y005453D01*
X000557Y004967D02*
X000548Y004975D01*
X000532D01*
X000523Y004967D01*
Y004933D01*
X000532Y004925D01*
X000548D01*
X000557Y004933D01*
X000573Y004975D02*
X000607D01*
Y004967D01*
X000573Y004933D01*
Y004925D01*
X000648D02*
Y004975D01*
X000623Y004950D01*
X000657D01*
X002157Y005026D02*
X002148Y005034D01*
X002132D01*
X002123Y005026D01*
Y004992D01*
X002132Y004984D01*
X002148D01*
X002157Y004992D01*
X002173Y005034D02*
X002207D01*
Y005026D01*
X002173Y004992D01*
Y004984D01*
X002223Y005026D02*
X002232Y005034D01*
X002248D01*
X002257Y005026D01*
Y005017D01*
X002248Y005009D01*
X002240D01*
X002248D01*
X002257Y005001D01*
Y004992D01*
X002248Y004984D01*
X002232D01*
X002223Y004992D01*
X000813Y003177D02*
X000805Y003168D01*
Y003152D01*
X000813Y003143D01*
X000847D01*
X000855Y003152D01*
Y003168D01*
X000847Y003177D01*
X000805Y003193D02*
Y003227D01*
X000813D01*
X000847Y003193D01*
X000855D01*
Y003277D02*
Y003243D01*
X000822Y003277D01*
X000813D01*
X000805Y003268D01*
Y003252D01*
X000813Y003243D01*
X001015Y002977D02*
X001007Y002985D01*
X000990D01*
X000982Y002977D01*
Y002943D01*
X000990Y002935D01*
X001007D01*
X001015Y002943D01*
X001032Y002985D02*
X001065D01*
Y002977D01*
X001032Y002943D01*
Y002935D01*
X001082D02*
X001098D01*
X001090D01*
Y002985D01*
X001082Y002977D01*
X000723Y003367D02*
X000715Y003358D01*
Y003342D01*
X000723Y003333D01*
X000757D01*
X000765Y003342D01*
Y003358D01*
X000757Y003367D01*
X000715Y003383D02*
Y003417D01*
X000723D01*
X000757Y003383D01*
X000765D01*
X000723Y003433D02*
X000715Y003442D01*
Y003458D01*
X000723Y003467D01*
X000757D01*
X000765Y003458D01*
Y003442D01*
X000757Y003433D01*
X000723D01*
X002157Y004567D02*
X002148Y004575D01*
X002132D01*
X002123Y004567D01*
Y004533D01*
X002132Y004525D01*
X002148D01*
X002157Y004533D01*
X002207Y004575D02*
X002190Y004567D01*
X002173Y004550D01*
Y004533D01*
X002182Y004525D01*
X002198D01*
X002207Y004533D01*
Y004542D01*
X002198Y004550D01*
X002173D01*
X002223Y004533D02*
X002232Y004525D01*
X002248D01*
X002257Y004533D01*
Y004567D01*
X002248Y004575D01*
X002232D01*
X002223Y004567D01*
Y004558D01*
X002232Y004550D01*
X002257D01*
X001317Y005477D02*
X001308Y005485D01*
X001292D01*
X001283Y005477D01*
Y005443D01*
X001292Y005435D01*
X001308D01*
X001317Y005443D01*
X001367Y005485D02*
X001350Y005477D01*
X001333Y005460D01*
Y005443D01*
X001342Y005435D01*
X001358D01*
X001367Y005443D01*
Y005452D01*
X001358Y005460D01*
X001333D01*
X001383Y005477D02*
X001392Y005485D01*
X001408D01*
X001417Y005477D01*
Y005468D01*
X001408Y005460D01*
X001417Y005452D01*
Y005443D01*
X001408Y005435D01*
X001392D01*
X001383Y005443D01*
Y005452D01*
X001392Y005460D01*
X001383Y005468D01*
Y005477D01*
X001392Y005460D02*
X001408D01*
X003327Y005477D02*
X003318Y005485D01*
X003302D01*
X003293Y005477D01*
Y005443D01*
X003302Y005435D01*
X003318D01*
X003327Y005443D01*
X003377Y005485D02*
X003360Y005477D01*
X003343Y005460D01*
Y005443D01*
X003352Y005435D01*
X003368D01*
X003377Y005443D01*
Y005452D01*
X003368Y005460D01*
X003343D01*
X003393Y005477D02*
X003402Y005485D01*
X003418D01*
X003427Y005477D01*
Y005468D01*
X003418Y005460D01*
X003410D01*
X003418D01*
X003427Y005452D01*
Y005443D01*
X003418Y005435D01*
X003402D01*
X003393Y005443D01*
X002383Y004926D02*
X002375Y004917D01*
Y004901D01*
X002383Y004892D01*
X002417D01*
X002425Y004901D01*
Y004917D01*
X002417Y004926D01*
X002375Y004976D02*
X002383Y004959D01*
X002400Y004942D01*
X002417D01*
X002425Y004951D01*
Y004967D01*
X002417Y004976D01*
X002408D01*
X002400Y004967D01*
Y004942D01*
X002425Y005026D02*
Y004992D01*
X002392Y005026D01*
X002383D01*
X002375Y005017D01*
Y005001D01*
X002383Y004992D01*
X003795Y005027D02*
X003787Y005035D01*
X003770D01*
X003762Y005027D01*
Y004993D01*
X003770Y004985D01*
X003787D01*
X003795Y004993D01*
X003845Y005035D02*
X003828Y005027D01*
X003812Y005010D01*
Y004993D01*
X003820Y004985D01*
X003837D01*
X003845Y004993D01*
Y005002D01*
X003837Y005010D01*
X003812D01*
X003862Y004985D02*
X003878D01*
X003870D01*
Y005035D01*
X003862Y005027D01*
X002393Y003927D02*
X002385Y003918D01*
Y003902D01*
X002393Y003893D01*
X002427D01*
X002435Y003902D01*
Y003918D01*
X002427Y003927D01*
X002385Y003977D02*
X002393Y003960D01*
X002410Y003943D01*
X002427D01*
X002435Y003952D01*
Y003968D01*
X002427Y003977D01*
X002418D01*
X002410Y003968D01*
Y003943D01*
X002393Y003993D02*
X002385Y004002D01*
Y004018D01*
X002393Y004027D01*
X002427D01*
X002435Y004018D01*
Y004002D01*
X002427Y003993D01*
X002393D01*
X003507Y003487D02*
X003498Y003495D01*
X003482D01*
X003473Y003487D01*
Y003453D01*
X003482Y003445D01*
X003498D01*
X003507Y003453D01*
X003557Y003495D02*
X003523D01*
Y003470D01*
X003540Y003478D01*
X003548D01*
X003557Y003470D01*
Y003453D01*
X003548Y003445D01*
X003532D01*
X003523Y003453D01*
X003573D02*
X003582Y003445D01*
X003598D01*
X003607Y003453D01*
Y003487D01*
X003598Y003495D01*
X003582D01*
X003573Y003487D01*
Y003478D01*
X003582Y003470D01*
X003607D01*
X002393Y004117D02*
X002385Y004108D01*
Y004092D01*
X002393Y004083D01*
X002427D01*
X002435Y004092D01*
Y004108D01*
X002427Y004117D01*
X002385Y004167D02*
Y004133D01*
X002410D01*
X002402Y004150D01*
Y004158D01*
X002410Y004167D01*
X002427D01*
X002435Y004158D01*
Y004142D01*
X002427Y004133D01*
X002393Y004183D02*
X002385Y004192D01*
Y004208D01*
X002393Y004217D01*
X002402D01*
X002410Y004208D01*
X002418Y004217D01*
X002427D01*
X002435Y004208D01*
Y004192D01*
X002427Y004183D01*
X002418D01*
X002410Y004192D01*
X002402Y004183D01*
X002393D01*
X002410Y004192D02*
Y004208D01*
X003787Y004567D02*
X003778Y004575D01*
X003762D01*
X003753Y004567D01*
Y004533D01*
X003762Y004525D01*
X003778D01*
X003787Y004533D01*
X003837Y004575D02*
X003803D01*
Y004550D01*
X003820Y004558D01*
X003828D01*
X003837Y004550D01*
Y004533D01*
X003828Y004525D01*
X003812D01*
X003803Y004533D01*
X003853Y004575D02*
X003887D01*
Y004567D01*
X003853Y004533D01*
Y004525D01*
X002947Y005467D02*
X002938Y005475D01*
X002922D01*
X002913Y005467D01*
Y005433D01*
X002922Y005425D01*
X002938D01*
X002947Y005433D01*
X002997Y005475D02*
X002963D01*
Y005450D01*
X002980Y005458D01*
X002988D01*
X002997Y005450D01*
Y005433D01*
X002988Y005425D01*
X002972D01*
X002963Y005433D01*
X003047Y005475D02*
X003030Y005467D01*
X003013Y005450D01*
Y005433D01*
X003022Y005425D01*
X003038D01*
X003047Y005433D01*
Y005442D01*
X003038Y005450D01*
X003013D01*
X005025Y005477D02*
X005017Y005485D01*
X005000D01*
X004992Y005477D01*
Y005443D01*
X005000Y005435D01*
X005017D01*
X005025Y005443D01*
X005075Y005485D02*
X005042D01*
Y005460D01*
X005058Y005468D01*
X005067D01*
X005075Y005460D01*
Y005443D01*
X005067Y005435D01*
X005050D01*
X005042Y005443D01*
X005092Y005435D02*
X005108D01*
X005100D01*
Y005485D01*
X005092Y005477D01*
X004013Y004926D02*
X004005Y004917D01*
Y004901D01*
X004013Y004892D01*
X004047D01*
X004055Y004901D01*
Y004917D01*
X004047Y004926D01*
X004005Y004976D02*
Y004942D01*
X004030D01*
X004022Y004959D01*
Y004967D01*
X004030Y004976D01*
X004047D01*
X004055Y004967D01*
Y004951D01*
X004047Y004942D01*
X004013Y004992D02*
X004005Y005001D01*
Y005017D01*
X004013Y005026D01*
X004047D01*
X004055Y005017D01*
Y005001D01*
X004047Y004992D01*
X004013D01*
X005417Y005026D02*
X005408Y005034D01*
X005392D01*
X005383Y005026D01*
Y004992D01*
X005392Y004984D01*
X005408D01*
X005417Y004992D01*
X005458Y004984D02*
Y005034D01*
X005433Y005009D01*
X005467D01*
X005483Y004992D02*
X005492Y004984D01*
X005508D01*
X005517Y004992D01*
Y005026D01*
X005508Y005034D01*
X005492D01*
X005483Y005026D01*
Y005017D01*
X005492Y005009D01*
X005517D01*
X004013Y003927D02*
X004005Y003918D01*
Y003902D01*
X004013Y003893D01*
X004047D01*
X004055Y003902D01*
Y003918D01*
X004047Y003927D01*
X004055Y003968D02*
X004005D01*
X004030Y003943D01*
Y003977D01*
X004013Y003993D02*
X004005Y004002D01*
Y004018D01*
X004013Y004027D01*
X004022D01*
X004030Y004018D01*
X004038Y004027D01*
X004047D01*
X004055Y004018D01*
Y004002D01*
X004047Y003993D01*
X004038D01*
X004030Y004002D01*
X004022Y003993D01*
X004013D01*
X004030Y004002D02*
Y004018D01*
X004023Y004117D02*
X004015Y004108D01*
Y004092D01*
X004023Y004083D01*
X004057D01*
X004065Y004092D01*
Y004108D01*
X004057Y004117D01*
X004065Y004158D02*
X004015D01*
X004040Y004133D01*
Y004167D01*
X004015Y004217D02*
X004023Y004200D01*
X004040Y004183D01*
X004057D01*
X004065Y004192D01*
Y004208D01*
X004057Y004217D01*
X004048D01*
X004040Y004208D01*
Y004183D01*
X005417Y004567D02*
X005408Y004575D01*
X005392D01*
X005383Y004567D01*
Y004533D01*
X005392Y004525D01*
X005408D01*
X005417Y004533D01*
X005458Y004525D02*
Y004575D01*
X005433Y004550D01*
X005467D01*
X005517Y004575D02*
X005483D01*
Y004550D01*
X005500Y004558D01*
X005508D01*
X005517Y004550D01*
Y004533D01*
X005508Y004525D01*
X005492D01*
X005483Y004533D01*
X004577Y005467D02*
X004568Y005475D01*
X004552D01*
X004543Y005467D01*
Y005433D01*
X004552Y005425D01*
X004568D01*
X004577Y005433D01*
X004618Y005425D02*
Y005475D01*
X004593Y005450D01*
X004627D01*
X004668Y005425D02*
Y005475D01*
X004643Y005450D01*
X004677D01*
X005527Y002737D02*
X005518Y002745D01*
X005502D01*
X005493Y002737D01*
Y002703D01*
X005502Y002695D01*
X005518D01*
X005527Y002703D01*
X005577Y002695D02*
X005543D01*
X005577Y002728D01*
Y002737D01*
X005568Y002745D01*
X005552D01*
X005543Y002737D01*
X005593Y002745D02*
X005627D01*
Y002737D01*
X005593Y002703D01*
Y002695D01*
X004773Y002186D02*
X004765Y002177D01*
Y002161D01*
X004773Y002152D01*
X004807D01*
X004815Y002161D01*
Y002177D01*
X004807Y002186D01*
X004815Y002236D02*
Y002202D01*
X004782Y002236D01*
X004773D01*
X004765Y002227D01*
Y002211D01*
X004773Y002202D01*
X004765Y002286D02*
X004773Y002269D01*
X004790Y002252D01*
X004807D01*
X004815Y002261D01*
Y002277D01*
X004807Y002286D01*
X004798D01*
X004790Y002277D01*
Y002252D01*
X006177Y002287D02*
X006168Y002295D01*
X006152D01*
X006143Y002287D01*
Y002253D01*
X006152Y002245D01*
X006168D01*
X006177Y002253D01*
X006227Y002245D02*
X006193D01*
X006227Y002278D01*
Y002287D01*
X006218Y002295D01*
X006202D01*
X006193Y002287D01*
X006277Y002295D02*
X006243D01*
Y002270D01*
X006260Y002278D01*
X006268D01*
X006277Y002270D01*
Y002253D01*
X006268Y002245D01*
X006252D01*
X006243Y002253D01*
X004783Y001187D02*
X004775Y001178D01*
Y001162D01*
X004783Y001153D01*
X004817D01*
X004825Y001162D01*
Y001178D01*
X004817Y001187D01*
X004825Y001237D02*
Y001203D01*
X004792Y001237D01*
X004783D01*
X004775Y001228D01*
Y001212D01*
X004783Y001203D01*
X004825Y001278D02*
X004775D01*
X004800Y001253D01*
Y001287D01*
X005923Y000817D02*
X005915Y000808D01*
Y000792D01*
X005923Y000783D01*
X005957D01*
X005965Y000792D01*
Y000808D01*
X005957Y000817D01*
X005965Y000867D02*
Y000833D01*
X005932Y000867D01*
X005923D01*
X005915Y000858D01*
Y000842D01*
X005923Y000833D01*
Y000883D02*
X005915Y000892D01*
Y000908D01*
X005923Y000917D01*
X005932D01*
X005940Y000908D01*
Y000900D01*
Y000908D01*
X005948Y000917D01*
X005957D01*
X005965Y000908D01*
Y000892D01*
X005957Y000883D01*
X004783Y001377D02*
X004775Y001368D01*
Y001352D01*
X004783Y001343D01*
X004817D01*
X004825Y001352D01*
Y001368D01*
X004817Y001377D01*
X004825Y001427D02*
Y001393D01*
X004792Y001427D01*
X004783D01*
X004775Y001418D01*
Y001402D01*
X004783Y001393D01*
X004825Y001477D02*
Y001443D01*
X004792Y001477D01*
X004783D01*
X004775Y001468D01*
Y001452D01*
X004783Y001443D01*
X006185Y001827D02*
X006177Y001835D01*
X006160D01*
X006152Y001827D01*
Y001793D01*
X006160Y001785D01*
X006177D01*
X006185Y001793D01*
X006235Y001785D02*
X006202D01*
X006235Y001818D01*
Y001827D01*
X006227Y001835D01*
X006210D01*
X006202Y001827D01*
X006252Y001785D02*
X006268D01*
X006260D01*
Y001835D01*
X006252Y001827D01*
X005347Y002737D02*
X005338Y002745D01*
X005322D01*
X005313Y002737D01*
Y002703D01*
X005322Y002695D01*
X005338D01*
X005347Y002703D01*
X005397Y002695D02*
X005363D01*
X005397Y002728D01*
Y002737D01*
X005388Y002745D01*
X005372D01*
X005363Y002737D01*
X005413D02*
X005422Y002745D01*
X005438D01*
X005447Y002737D01*
Y002703D01*
X005438Y002695D01*
X005422D01*
X005413Y002703D01*
Y002737D01*
X007121Y002727D02*
X007113Y002735D01*
X007096D01*
X007088Y002727D01*
Y002693D01*
X007096Y002685D01*
X007113D01*
X007121Y002693D01*
X007138Y002685D02*
X007154D01*
X007146D01*
Y002735D01*
X007138Y002727D01*
X007212Y002735D02*
X007179D01*
Y002710D01*
X007196Y002718D01*
X007204D01*
X007212Y002710D01*
Y002693D01*
X007204Y002685D01*
X007187D01*
X007179Y002693D01*
X006403Y002186D02*
X006395Y002177D01*
Y002161D01*
X006403Y002152D01*
X006437D01*
X006445Y002161D01*
Y002177D01*
X006437Y002186D01*
X006445Y002202D02*
Y002219D01*
Y002211D01*
X006395D01*
X006403Y002202D01*
X006445Y002269D02*
X006395D01*
X006420Y002244D01*
Y002277D01*
X007811Y002287D02*
X007803Y002295D01*
X007786D01*
X007778Y002287D01*
Y002253D01*
X007786Y002245D01*
X007803D01*
X007811Y002253D01*
X007828Y002245D02*
X007844D01*
X007836D01*
Y002295D01*
X007828Y002287D01*
X007869D02*
X007877Y002295D01*
X007894D01*
X007902Y002287D01*
Y002278D01*
X007894Y002270D01*
X007886D01*
X007894D01*
X007902Y002262D01*
Y002253D01*
X007894Y002245D01*
X007877D01*
X007869Y002253D01*
X006413Y001181D02*
X006405Y001173D01*
Y001156D01*
X006413Y001148D01*
X006447D01*
X006455Y001156D01*
Y001173D01*
X006447Y001181D01*
X006455Y001198D02*
Y001214D01*
Y001206D01*
X006405D01*
X006413Y001198D01*
X006455Y001272D02*
Y001239D01*
X006422Y001272D01*
X006413D01*
X006405Y001264D01*
Y001247D01*
X006413Y001239D01*
X007709Y000917D02*
X007701Y000925D01*
X007684D01*
X007676Y000917D01*
Y000883D01*
X007684Y000875D01*
X007701D01*
X007709Y000883D01*
X007726Y000875D02*
X007742D01*
X007734D01*
Y000925D01*
X007726Y000917D01*
X007767Y000875D02*
X007784D01*
X007776D01*
Y000925D01*
X007767Y000917D01*
X006413Y001377D02*
X006405Y001368D01*
Y001352D01*
X006413Y001343D01*
X006447D01*
X006455Y001352D01*
Y001368D01*
X006447Y001377D01*
X006455Y001393D02*
Y001410D01*
Y001402D01*
X006405D01*
X006413Y001393D01*
Y001435D02*
X006405Y001443D01*
Y001460D01*
X006413Y001468D01*
X006447D01*
X006455Y001460D01*
Y001443D01*
X006447Y001435D01*
X006413D01*
X007832Y001827D02*
X007823Y001835D01*
X007807D01*
X007798Y001827D01*
Y001793D01*
X007807Y001785D01*
X007823D01*
X007832Y001793D01*
X007848D02*
X007857Y001785D01*
X007873D01*
X007882Y001793D01*
Y001827D01*
X007873Y001835D01*
X007857D01*
X007848Y001827D01*
Y001818D01*
X007857Y001810D01*
X007882D01*
X006952Y002727D02*
X006943Y002735D01*
X006927D01*
X006918Y002727D01*
Y002693D01*
X006927Y002685D01*
X006943D01*
X006952Y002693D01*
X006968Y002727D02*
X006977Y002735D01*
X006993D01*
X007002Y002727D01*
Y002718D01*
X006993Y002710D01*
X007002Y002702D01*
Y002693D01*
X006993Y002685D01*
X006977D01*
X006968Y002693D01*
Y002702D01*
X006977Y002710D01*
X006968Y002718D01*
Y002727D01*
X006977Y002710D02*
X006993D01*
X005182Y003027D02*
X005173Y003035D01*
X005157D01*
X005148Y003027D01*
Y002993D01*
X005157Y002985D01*
X005173D01*
X005182Y002993D01*
X005198Y003027D02*
X005207Y003035D01*
X005223D01*
X005232Y003027D01*
Y003018D01*
X005223Y003010D01*
X005215D01*
X005223D01*
X005232Y003002D01*
Y002993D01*
X005223Y002985D01*
X005207D01*
X005198Y002993D01*
X005012Y003027D02*
X005003Y003035D01*
X004987D01*
X004978Y003027D01*
Y002993D01*
X004987Y002985D01*
X005003D01*
X005012Y002993D01*
X005062Y002985D02*
X005028D01*
X005062Y003018D01*
Y003027D01*
X005053Y003035D01*
X005037D01*
X005028Y003027D01*
X004790D02*
X004782Y003035D01*
X004765D01*
X004757Y003027D01*
Y002993D01*
X004765Y002985D01*
X004782D01*
X004790Y002993D01*
X004807Y002985D02*
X004823D01*
X004815D01*
Y003035D01*
X004807Y003027D01*
X003855Y001823D02*
X003905D01*
Y001848D01*
X003897Y001857D01*
X003863D01*
X003855Y001848D01*
Y001823D01*
X003905Y001873D02*
X003872D01*
X003855Y001890D01*
X003872Y001907D01*
X003905D01*
X003880D01*
Y001873D01*
X003863Y001923D02*
X003855Y001932D01*
Y001948D01*
X003863Y001957D01*
X003872D01*
X003880Y001948D01*
Y001940D01*
Y001948D01*
X003888Y001957D01*
X003897D01*
X003905Y001948D01*
Y001932D01*
X003897Y001923D01*
X003653Y002845D02*
Y002895D01*
X003678D01*
X003687Y002887D01*
Y002870D01*
X003678Y002862D01*
X003653D01*
X003670D02*
X003687Y002845D01*
X003737Y002895D02*
X003720Y002887D01*
X003703Y002870D01*
Y002853D01*
X003712Y002845D01*
X003728D01*
X003737Y002853D01*
Y002862D01*
X003728Y002870D01*
X003703D01*
X003778Y002845D02*
Y002895D01*
X003753Y002870D01*
X003787D01*
X003895Y002763D02*
X003845D01*
Y002788D01*
X003853Y002797D01*
X003870D01*
X003878Y002788D01*
Y002763D01*
Y002780D02*
X003895Y002797D01*
X003845Y002847D02*
X003853Y002830D01*
X003870Y002813D01*
X003887D01*
X003895Y002822D01*
Y002838D01*
X003887Y002847D01*
X003878D01*
X003870Y002838D01*
Y002813D01*
X003853Y002863D02*
X003845Y002872D01*
Y002888D01*
X003853Y002897D01*
X003862D01*
X003870Y002888D01*
Y002880D01*
Y002888D01*
X003878Y002897D01*
X003887D01*
X003895Y002888D01*
Y002872D01*
X003887Y002863D01*
X003995Y002763D02*
X003945D01*
Y002788D01*
X003953Y002797D01*
X003970D01*
X003978Y002788D01*
Y002763D01*
Y002780D02*
X003995Y002797D01*
X003945Y002847D02*
X003953Y002830D01*
X003970Y002813D01*
X003987D01*
X003995Y002822D01*
Y002838D01*
X003987Y002847D01*
X003978D01*
X003970Y002838D01*
Y002813D01*
X003995Y002897D02*
Y002863D01*
X003962Y002897D01*
X003953D01*
X003945Y002888D01*
Y002872D01*
X003953Y002863D01*
X002943Y002565D02*
Y002615D01*
X002968D01*
X002977Y002607D01*
Y002590D01*
X002968Y002582D01*
X002943D01*
X002960D02*
X002977Y002565D01*
X003027Y002615D02*
X003010Y002607D01*
X002993Y002590D01*
Y002573D01*
X003002Y002565D01*
X003018D01*
X003027Y002573D01*
Y002582D01*
X003018Y002590D01*
X002993D01*
X003043Y002607D02*
X003052Y002615D01*
X003068D01*
X003077Y002607D01*
Y002573D01*
X003068Y002565D01*
X003052D01*
X003043Y002573D01*
Y002607D01*
X003953Y000885D02*
Y000935D01*
X003978D01*
X003987Y000927D01*
Y000910D01*
X003978Y000902D01*
X003953D01*
X003970D02*
X003987Y000885D01*
X004037Y000935D02*
X004003D01*
Y000910D01*
X004020Y000918D01*
X004028D01*
X004037Y000910D01*
Y000893D01*
X004028Y000885D01*
X004012D01*
X004003Y000893D01*
X004053Y000935D02*
X004087D01*
Y000927D01*
X004053Y000893D01*
Y000885D01*
X004513Y001325D02*
Y001375D01*
X004538D01*
X004547Y001367D01*
Y001350D01*
X004538Y001342D01*
X004513D01*
X004530D02*
X004547Y001325D01*
X004597Y001375D02*
X004563D01*
Y001350D01*
X004580Y001358D01*
X004588D01*
X004597Y001350D01*
Y001333D01*
X004588Y001325D01*
X004572D01*
X004563Y001333D01*
X004647Y001375D02*
X004613D01*
Y001350D01*
X004630Y001358D01*
X004638D01*
X004647Y001350D01*
Y001333D01*
X004638Y001325D01*
X004622D01*
X004613Y001333D01*
X003195Y000963D02*
X003145D01*
Y000988D01*
X003153Y000997D01*
X003170D01*
X003178Y000988D01*
Y000963D01*
Y000980D02*
X003195Y000997D01*
X003145Y001047D02*
Y001013D01*
X003170D01*
X003162Y001030D01*
Y001038D01*
X003170Y001047D01*
X003187D01*
X003195Y001038D01*
Y001022D01*
X003187Y001013D01*
X003153Y001063D02*
X003145Y001072D01*
Y001088D01*
X003153Y001097D01*
X003162D01*
X003170Y001088D01*
Y001080D01*
Y001088D01*
X003178Y001097D01*
X003187D01*
X003195Y001088D01*
Y001072D01*
X003187Y001063D01*
X002967Y002227D02*
X002958Y002235D01*
X002942D01*
X002933Y002227D01*
Y002193D01*
X002942Y002185D01*
X002958D01*
X002967Y002193D01*
X002983Y002227D02*
X002992Y002235D01*
X003008D01*
X003017Y002227D01*
Y002218D01*
X003008Y002210D01*
X003000D01*
X003008D01*
X003017Y002202D01*
Y002193D01*
X003008Y002185D01*
X002992D01*
X002983Y002193D01*
X003033Y002227D02*
X003042Y002235D01*
X003058D01*
X003067Y002227D01*
Y002218D01*
X003058Y002210D01*
X003067Y002202D01*
Y002193D01*
X003058Y002185D01*
X003042D01*
X003033Y002193D01*
Y002202D01*
X003042Y002210D01*
X003033Y002218D01*
Y002227D01*
X003042Y002210D02*
X003058D01*
X004547Y002287D02*
X004538Y002295D01*
X004522D01*
X004513Y002287D01*
Y002253D01*
X004522Y002245D01*
X004538D01*
X004547Y002253D01*
X004563Y002287D02*
X004572Y002295D01*
X004588D01*
X004597Y002287D01*
Y002278D01*
X004588Y002270D01*
X004580D01*
X004588D01*
X004597Y002262D01*
Y002253D01*
X004588Y002245D01*
X004572D01*
X004563Y002253D01*
X004613Y002295D02*
X004647D01*
Y002287D01*
X004613Y002253D01*
Y002245D01*
X003153Y001377D02*
X003145Y001368D01*
Y001352D01*
X003153Y001343D01*
X003187D01*
X003195Y001352D01*
Y001368D01*
X003187Y001377D01*
X003153Y001393D02*
X003145Y001402D01*
Y001418D01*
X003153Y001427D01*
X003162D01*
X003170Y001418D01*
Y001410D01*
Y001418D01*
X003178Y001427D01*
X003187D01*
X003195Y001418D01*
Y001402D01*
X003187Y001393D01*
X003195Y001468D02*
X003145D01*
X003170Y001443D01*
Y001477D01*
X004547Y001827D02*
X004538Y001835D01*
X004522D01*
X004513Y001827D01*
Y001793D01*
X004522Y001785D01*
X004538D01*
X004547Y001793D01*
X004563Y001827D02*
X004572Y001835D01*
X004588D01*
X004597Y001827D01*
Y001818D01*
X004588Y001810D01*
X004580D01*
X004588D01*
X004597Y001802D01*
Y001793D01*
X004588Y001785D01*
X004572D01*
X004563Y001793D01*
X004613Y001827D02*
X004622Y001835D01*
X004638D01*
X004647Y001827D01*
Y001818D01*
X004638Y001810D01*
X004630D01*
X004638D01*
X004647Y001802D01*
Y001793D01*
X004638Y001785D01*
X004622D01*
X004613Y001793D01*
X002942Y002375D02*
Y002425D01*
X002967D01*
X002975Y002417D01*
Y002400D01*
X002967Y002392D01*
X002942D01*
X002958D02*
X002975Y002375D01*
X003025Y002425D02*
X003008Y002417D01*
X002992Y002400D01*
Y002383D01*
X003000Y002375D01*
X003017D01*
X003025Y002383D01*
Y002392D01*
X003017Y002400D01*
X002992D01*
X003042Y002375D02*
X003058D01*
X003050D01*
Y002425D01*
X003042Y002417D01*
X002933Y002015D02*
Y002065D01*
X002958D01*
X002967Y002057D01*
Y002040D01*
X002958Y002032D01*
X002933D01*
X002950D02*
X002967Y002015D01*
X003017Y002065D02*
X002983D01*
Y002040D01*
X003000Y002048D01*
X003008D01*
X003017Y002040D01*
Y002023D01*
X003008Y002015D01*
X002992D01*
X002983Y002023D01*
X003033D02*
X003042Y002015D01*
X003058D01*
X003067Y002023D01*
Y002057D01*
X003058Y002065D01*
X003042D01*
X003033Y002057D01*
Y002048D01*
X003042Y002040D01*
X003067D01*
X003593Y000575D02*
Y000625D01*
X003618D01*
X003627Y000617D01*
Y000600D01*
X003618Y000592D01*
X003593D01*
X003610D02*
X003627Y000575D01*
X003677Y000625D02*
X003643D01*
Y000600D01*
X003660Y000608D01*
X003668D01*
X003677Y000600D01*
Y000583D01*
X003668Y000575D01*
X003652D01*
X003643Y000583D01*
X003693Y000617D02*
X003702Y000625D01*
X003718D01*
X003727Y000617D01*
Y000608D01*
X003718Y000600D01*
X003727Y000592D01*
Y000583D01*
X003718Y000575D01*
X003702D01*
X003693Y000583D01*
Y000592D01*
X003702Y000600D01*
X003693Y000608D01*
Y000617D01*
X003702Y000600D02*
X003718D01*
X004445Y001333D02*
X004395D01*
Y001358D01*
X004403Y001367D01*
X004420D01*
X004428Y001358D01*
Y001333D01*
Y001350D02*
X004445Y001367D01*
X004395Y001417D02*
Y001383D01*
X004420D01*
X004412Y001400D01*
Y001408D01*
X004420Y001417D01*
X004437D01*
X004445Y001408D01*
Y001392D01*
X004437Y001383D01*
X004395Y001467D02*
X004403Y001450D01*
X004420Y001433D01*
X004437D01*
X004445Y001442D01*
Y001458D01*
X004437Y001467D01*
X004428D01*
X004420Y001458D01*
Y001433D01*
X003195Y001153D02*
X003145D01*
Y001178D01*
X003153Y001187D01*
X003170D01*
X003178Y001178D01*
Y001153D01*
Y001170D02*
X003195Y001187D01*
X003145Y001237D02*
Y001203D01*
X003170D01*
X003162Y001220D01*
Y001228D01*
X003170Y001237D01*
X003187D01*
X003195Y001228D01*
Y001212D01*
X003187Y001203D01*
X003195Y001278D02*
X003145D01*
X003170Y001253D01*
Y001287D01*
X003323Y001725D02*
Y001775D01*
X003348D01*
X003357Y001767D01*
Y001750D01*
X003348Y001742D01*
X003323D01*
X003340D02*
X003357Y001725D01*
X003407Y001775D02*
X003373D01*
Y001750D01*
X003390Y001758D01*
X003398D01*
X003407Y001750D01*
Y001733D01*
X003398Y001725D01*
X003382D01*
X003373Y001733D01*
X003457Y001725D02*
X003423D01*
X003457Y001758D01*
Y001767D01*
X003448Y001775D01*
X003432D01*
X003423Y001767D01*
X003482Y002845D02*
Y002895D01*
X003507D01*
X003515Y002887D01*
Y002870D01*
X003507Y002862D01*
X003482D01*
X003498D02*
X003515Y002845D01*
X003565Y002895D02*
X003532D01*
Y002870D01*
X003548Y002878D01*
X003557D01*
X003565Y002870D01*
Y002853D01*
X003557Y002845D01*
X003540D01*
X003532Y002853D01*
X003582Y002845D02*
X003598D01*
X003590D01*
Y002895D01*
X003582Y002887D01*
X003697Y002797D02*
X003688Y002805D01*
X003672D01*
X003663Y002797D01*
Y002763D01*
X003672Y002755D01*
X003688D01*
X003697Y002763D01*
X003713Y002797D02*
X003722Y002805D01*
X003738D01*
X003747Y002797D01*
Y002788D01*
X003738Y002780D01*
X003730D01*
X003738D01*
X003747Y002772D01*
Y002763D01*
X003738Y002755D01*
X003722D01*
X003713Y002763D01*
X003763D02*
X003772Y002755D01*
X003788D01*
X003797Y002763D01*
Y002797D01*
X003788Y002805D01*
X003772D01*
X003763Y002797D01*
Y002788D01*
X003772Y002780D01*
X003797D01*
X003627Y000697D02*
X003618Y000705D01*
X003602D01*
X003593Y000697D01*
Y000663D01*
X003602Y000655D01*
X003618D01*
X003627Y000663D01*
X003643Y000697D02*
X003652Y000705D01*
X003668D01*
X003677Y000697D01*
Y000688D01*
X003668Y000680D01*
X003660D01*
X003668D01*
X003677Y000672D01*
Y000663D01*
X003668Y000655D01*
X003652D01*
X003643Y000663D01*
X003727Y000705D02*
X003710Y000697D01*
X003693Y000680D01*
Y000663D01*
X003702Y000655D01*
X003718D01*
X003727Y000663D01*
Y000672D01*
X003718Y000680D01*
X003693D01*
X004297Y000907D02*
X004288Y000915D01*
X004272D01*
X004263Y000907D01*
Y000873D01*
X004272Y000865D01*
X004288D01*
X004297Y000873D01*
X004313Y000907D02*
X004322Y000915D01*
X004338D01*
X004347Y000907D01*
Y000898D01*
X004338Y000890D01*
X004330D01*
X004338D01*
X004347Y000882D01*
Y000873D01*
X004338Y000865D01*
X004322D01*
X004313Y000873D01*
X004397Y000915D02*
X004363D01*
Y000890D01*
X004380Y000898D01*
X004388D01*
X004397Y000890D01*
Y000873D01*
X004388Y000865D01*
X004372D01*
X004363Y000873D01*
X003507Y002797D02*
X003498Y002805D01*
X003482D01*
X003473Y002797D01*
Y002763D01*
X003482Y002755D01*
X003498D01*
X003507Y002763D01*
X003523Y002797D02*
X003532Y002805D01*
X003548D01*
X003557Y002797D01*
Y002788D01*
X003548Y002780D01*
X003540D01*
X003548D01*
X003557Y002772D01*
Y002763D01*
X003548Y002755D01*
X003532D01*
X003523Y002763D01*
X003607Y002755D02*
X003573D01*
X003607Y002788D01*
Y002797D01*
X003598Y002805D01*
X003582D01*
X003573Y002797D01*
X000287Y004555D02*
X000320Y004505D01*
Y004555D02*
X000287Y004505D01*
X000337D02*
X000353D01*
X000345D01*
Y004555D01*
X000337Y004547D01*
M02*
