G04*
G04 #@! TF.GenerationSoftware,Altium Limited,Altium Designer,23.9.2 (47)*
G04*
G04 Layer_Color=65535*
%FSAX42Y42*%
%MOMM*%
G71*
G04*
G04 #@! TF.SameCoordinates,0275EF52-C3CF-4463-BECB-0B3C2057F634*
G04*
G04*
G04 #@! TF.FilePolarity,Positive*
G04*
G01*
G75*
%ADD10C,0.25*%
%ADD11C,0.25*%
%ADD12C,0.15*%
%ADD13C,0.15*%
%ADD14C,0.20*%
%ADD15C,0.50*%
G36*
X002130Y006145D02*
Y006113D01*
X002120D01*
Y006145D01*
X002090Y006190D01*
X002101D01*
X002116Y006167D01*
X002118Y006164D01*
X002120Y006162D01*
X002121Y006159D01*
X002122Y006158D01*
X002122Y006157D01*
X002123Y006157D01*
X002123Y006156D01*
X002124Y006155D01*
X002124Y006155D01*
X002124Y006154D01*
X002125Y006154D01*
X002125Y006154D01*
X002125Y006154D01*
X002126Y006156D01*
X002127Y006158D01*
X002129Y006160D01*
X002130Y006162D01*
X002131Y006163D01*
X002131Y006164D01*
X002131Y006165D01*
X002132Y006165D01*
X002132Y006166D01*
X002132Y006166D01*
X002132Y006166D01*
X002133Y006166D01*
X002148Y006190D01*
X002160D01*
X002130Y006145D01*
D02*
G37*
G36*
X002130Y005933D02*
X002160Y005893D01*
X002148D01*
X002128Y005919D01*
X002128Y005920D01*
X002127Y005921D01*
X002126Y005923D01*
X002125Y005924D01*
X002125Y005924D01*
X002125Y005925D01*
X002125Y005925D01*
Y005925D01*
X002123Y005923D01*
X002123Y005922D01*
X002122Y005922D01*
X002122Y005921D01*
X002122Y005921D01*
X002122Y005920D01*
X002121Y005920D01*
X002102Y005893D01*
X002090D01*
X002118Y005933D01*
X002092Y005970D01*
X002103D01*
X002118Y005949D01*
X002119Y005948D01*
X002121Y005946D01*
X002122Y005944D01*
X002122Y005943D01*
X002123Y005942D01*
X002124Y005941D01*
X002124Y005941D01*
X002124Y005941D01*
X002124Y005941D01*
Y005941D01*
X002125Y005942D01*
X002126Y005943D01*
X002127Y005945D01*
X002128Y005947D01*
X002129Y005948D01*
X002129Y005948D01*
X002130Y005949D01*
X002130Y005949D01*
X002130Y005950D01*
X002130Y005950D01*
X002130Y005950D01*
X002144Y005970D01*
X002157D01*
X002130Y005933D01*
D02*
G37*
G36*
X002154Y005741D02*
X002111Y005687D01*
X002106Y005682D01*
X002155D01*
Y005673D01*
X002094D01*
Y005682D01*
X002134Y005731D01*
X002134Y005731D01*
X002134Y005732D01*
X002134Y005732D01*
X002134Y005732D01*
X002135Y005733D01*
X002135Y005733D01*
X002136Y005735D01*
X002137Y005736D01*
X002139Y005738D01*
X002140Y005739D01*
X002142Y005741D01*
X002099D01*
Y005750D01*
X002154D01*
Y005741D01*
D02*
G37*
G36*
X006694Y000816D02*
X006650Y000762D01*
X006646Y000757D01*
X006695D01*
Y000748D01*
X006634D01*
Y000757D01*
X006673Y000807D01*
X006673Y000807D01*
X006674Y000807D01*
X006674Y000807D01*
X006674Y000807D01*
X006674Y000808D01*
X006675Y000808D01*
X006676Y000810D01*
X006677Y000811D01*
X006679Y000813D01*
X006680Y000814D01*
X006681Y000816D01*
X006638D01*
Y000825D01*
X006694D01*
Y000816D01*
D02*
G37*
G36*
X006672Y000568D02*
X006700Y000528D01*
X006688D01*
X006669Y000555D01*
X006668Y000555D01*
X006668Y000556D01*
X006668Y000556D01*
X006668Y000557D01*
X006667Y000558D01*
X006667Y000558D01*
X006665Y000560D01*
Y000560D01*
X006665Y000560D01*
X006665Y000559D01*
X006665Y000559D01*
X006664Y000558D01*
X006663Y000556D01*
X006662Y000555D01*
X006662Y000555D01*
X006642Y000528D01*
X006630D01*
X006660Y000568D01*
X006633Y000605D01*
X006646D01*
X006660Y000585D01*
X006660Y000585D01*
X006660Y000585D01*
X006660Y000585D01*
X006660Y000584D01*
X006661Y000584D01*
X006661Y000583D01*
X006662Y000582D01*
X006663Y000580D01*
X006664Y000579D01*
X006665Y000577D01*
X006666Y000576D01*
Y000576D01*
X006666Y000576D01*
X006666Y000576D01*
X006666Y000576D01*
X006667Y000577D01*
X006668Y000578D01*
X006668Y000580D01*
X006669Y000581D01*
X006671Y000583D01*
X006672Y000584D01*
X006687Y000605D01*
X006698D01*
X006672Y000568D01*
D02*
G37*
G36*
X006670Y000340D02*
Y000308D01*
X006660D01*
Y000340D01*
X006630Y000385D01*
X006642D01*
X006657Y000362D01*
X006658Y000362D01*
X006658Y000361D01*
X006658Y000361D01*
X006658Y000361D01*
X006659Y000360D01*
X006659Y000359D01*
X006659Y000358D01*
X006660Y000358D01*
X006661Y000356D01*
X006663Y000353D01*
X006664Y000351D01*
X006665Y000349D01*
X006665Y000349D01*
X006665Y000349D01*
X006666Y000349D01*
X006666Y000350D01*
X006666Y000350D01*
X006667Y000351D01*
X006667Y000352D01*
X006668Y000353D01*
X006668Y000354D01*
X006669Y000355D01*
X006670Y000357D01*
X006672Y000359D01*
X006674Y000362D01*
X006689Y000385D01*
X006700D01*
X006670Y000340D01*
D02*
G37*
D10*
X007300Y002390D02*
G03*
X007300Y002390I-000012J000000D01*
G01*
X005630D02*
G03*
X005630Y002390I-000012J000000D01*
G01*
X003960D02*
G03*
X003960Y002390I-000012J000000D01*
G01*
X004885Y004086D02*
G03*
X004885Y004086I-000012J000000D01*
G01*
X001545D02*
G03*
X001545Y004086I-000012J000000D01*
G01*
X003215D02*
G03*
X003215Y004086I-000012J000000D01*
G01*
D11*
X008154Y001355D02*
G03*
X008154Y001355I-000010J000000D01*
G01*
X006484D02*
G03*
X006484Y001355I-000010J000000D01*
G01*
X004814D02*
G03*
X004814Y001355I-000010J000000D01*
G01*
X004026Y005121D02*
G03*
X004026Y005121I-000010J000000D01*
G01*
X000686D02*
G03*
X000686Y005121I-000010J000000D01*
G01*
X002356D02*
G03*
X002356Y005121I-000010J000000D01*
G01*
X001511Y001301D02*
Y001656D01*
Y001301D02*
X001828D01*
Y001656D01*
X001511D02*
Y001796D01*
Y001656D02*
X001828D01*
Y001796D01*
X001511D02*
X001828D01*
X001052D02*
X001369D01*
X001052Y001656D02*
Y001796D01*
Y001656D02*
X001369D01*
Y001796D01*
X001052Y001301D02*
Y001656D01*
Y001301D02*
X001369D01*
Y001656D01*
X002519Y002073D02*
Y002327D01*
X001829Y002073D02*
Y002327D01*
D12*
X002311Y002428D02*
G03*
X002159Y002428I-000076J000000D01*
G01*
X001613D02*
X002159D01*
X002311D02*
X002858D01*
X001613Y003418D02*
X002858D01*
Y002428D02*
Y003418D01*
X001613Y002428D02*
Y003418D01*
D13*
X006976Y000877D02*
Y001004D01*
X007293Y000877D02*
Y001004D01*
X007103Y001016D02*
X007166D01*
X007103Y000864D02*
X007166D01*
X004240Y004001D02*
X004304D01*
X004240Y003849D02*
X004304D01*
X004113Y003862D02*
Y003989D01*
X004431Y003862D02*
Y003989D01*
X006166Y001221D02*
X006230D01*
X006166Y001373D02*
X006230D01*
X006357Y001233D02*
Y001360D01*
X006039Y001233D02*
Y001360D01*
X006713Y001042D02*
X006776D01*
X006713Y001195D02*
X006776D01*
X006903Y001055D02*
Y001182D01*
X006586Y001055D02*
Y001182D01*
X007836Y001042D02*
X007900D01*
X007836Y001195D02*
X007900D01*
X008026Y001055D02*
Y001182D01*
X007709Y001055D02*
Y001182D01*
X007836Y001221D02*
X007900D01*
X007836Y001373D02*
X007900D01*
X008027Y001233D02*
Y001360D01*
X007709Y001233D02*
Y001360D01*
X006713Y002112D02*
X006776D01*
X006713Y002265D02*
X006776D01*
X006904Y002125D02*
Y002252D01*
X006586Y002125D02*
Y002252D01*
X007491Y001042D02*
X007554D01*
X007491Y001195D02*
X007554D01*
X007681Y001055D02*
Y001182D01*
X007364Y001055D02*
Y001182D01*
X006713Y001551D02*
X006776D01*
X006713Y001399D02*
X006776D01*
X006586Y001412D02*
Y001539D01*
X006904Y001412D02*
Y001539D01*
X007493Y001373D02*
X007557D01*
X007493Y001221D02*
X007557D01*
X007366Y001233D02*
Y001360D01*
X007684Y001233D02*
Y001360D01*
X007856Y002647D02*
X007920D01*
X007856Y002799D02*
X007920D01*
X008047Y002660D02*
Y002787D01*
X007729Y002660D02*
Y002787D01*
X007856Y002469D02*
X007920D01*
X007856Y002621D02*
X007920D01*
X008047Y002481D02*
Y002608D01*
X007729Y002481D02*
Y002608D01*
X007103Y001195D02*
X007166D01*
X007103Y001042D02*
X007166D01*
X006976Y001055D02*
Y001182D01*
X007293Y001055D02*
Y001182D01*
X006713Y001373D02*
X006776D01*
X006713Y001221D02*
X006776D01*
X006586Y001233D02*
Y001360D01*
X006904Y001233D02*
Y001360D01*
X007490Y002799D02*
X007554D01*
X007490Y002647D02*
X007554D01*
X007363Y002660D02*
Y002787D01*
X007681Y002660D02*
Y002787D01*
X006713Y002290D02*
X006776D01*
X006713Y002443D02*
X006776D01*
X006904Y002303D02*
Y002430D01*
X006586Y002303D02*
Y002430D01*
X007104Y002799D02*
X007167D01*
X007104Y002647D02*
X007167D01*
X006976Y002660D02*
Y002787D01*
X007294Y002660D02*
Y002787D01*
X006713Y002789D02*
X006776D01*
X006713Y002637D02*
X006776D01*
X006586Y002650D02*
Y002777D01*
X006904Y002650D02*
Y002777D01*
X006713Y001577D02*
X006776D01*
X006713Y001730D02*
X006776D01*
X006904Y001590D02*
Y001717D01*
X006586Y001590D02*
Y001717D01*
X006713Y000864D02*
X006777D01*
X006713Y001016D02*
X006777D01*
X006904Y000877D02*
Y001004D01*
X006586Y000877D02*
Y001004D01*
X007104Y001221D02*
X007167D01*
X007104Y001373D02*
X007167D01*
X007294Y001233D02*
Y001360D01*
X006976Y001233D02*
Y001360D01*
X007493Y002469D02*
X007557D01*
X007493Y002621D02*
X007557D01*
X007684Y002481D02*
Y002608D01*
X007366Y002481D02*
Y002608D01*
X007103Y002469D02*
X007167D01*
X007103Y002621D02*
X007167D01*
X007294Y002481D02*
Y002608D01*
X006976Y002481D02*
Y002608D01*
X006713Y002469D02*
X006776D01*
X006713Y002621D02*
X006776D01*
X006904Y002481D02*
Y002608D01*
X006586Y002481D02*
Y002608D01*
X006713Y002086D02*
X006776D01*
X006713Y001934D02*
X006776D01*
X006586Y001947D02*
Y002074D01*
X006904Y001947D02*
Y002074D01*
X000247Y004847D02*
X000647D01*
X000247Y002219D02*
Y004847D01*
X000647Y002219D02*
Y004847D01*
X000247Y002219D02*
X000647D01*
X005306Y000877D02*
Y001004D01*
X005623Y000877D02*
Y001004D01*
X005433Y001016D02*
X005496D01*
X005433Y000864D02*
X005496D01*
X004369Y001055D02*
Y001182D01*
X004687Y001055D02*
Y001182D01*
X004496Y001195D02*
X004560D01*
X004496Y001042D02*
X004560D01*
X004369Y001233D02*
Y001360D01*
X004687Y001233D02*
Y001360D01*
X004496Y001373D02*
X004560D01*
X004496Y001221D02*
X004560D01*
X003246Y002125D02*
Y002252D01*
X003563Y002125D02*
Y002252D01*
X003373Y002265D02*
X003437D01*
X003373Y002112D02*
X003437D01*
X003637Y001233D02*
Y001360D01*
X003954Y001233D02*
Y001360D01*
X003763Y001373D02*
X003827D01*
X003763Y001221D02*
X003827D01*
X003563Y001947D02*
Y002074D01*
X003246Y001947D02*
Y002074D01*
X003373Y001934D02*
X003437D01*
X003373Y002086D02*
X003437D01*
X003246Y001590D02*
Y001717D01*
X003563Y001590D02*
Y001717D01*
X003373Y001730D02*
X003437D01*
X003373Y001577D02*
X003437D01*
X004024Y001055D02*
Y001182D01*
X004341Y001055D02*
Y001182D01*
X004151Y001195D02*
X004214D01*
X004151Y001042D02*
X004214D01*
X003246Y000877D02*
Y001004D01*
X003564Y000877D02*
Y001004D01*
X003373Y001016D02*
X003437D01*
X003373Y000864D02*
X003437D01*
X003563Y001412D02*
Y001539D01*
X003246Y001412D02*
Y001539D01*
X003373Y001399D02*
X003437D01*
X003373Y001551D02*
X003437D01*
X004344Y001233D02*
Y001360D01*
X004026Y001233D02*
Y001360D01*
X004153Y001221D02*
X004217D01*
X004153Y001373D02*
X004217D01*
X004389Y002481D02*
Y002608D01*
X004707Y002481D02*
Y002608D01*
X004516Y002621D02*
X004580D01*
X004516Y002469D02*
X004580D01*
X003953Y001055D02*
Y001182D01*
X003636Y001055D02*
Y001182D01*
X003763Y001042D02*
X003826D01*
X003763Y001195D02*
X003826D01*
X004341Y002660D02*
Y002787D01*
X004023Y002660D02*
Y002787D01*
X004150Y002647D02*
X004214D01*
X004150Y002799D02*
X004214D01*
X003954Y002660D02*
Y002787D01*
X003637Y002660D02*
Y002787D01*
X003763Y002647D02*
X003827D01*
X003763Y002799D02*
X003827D01*
X003636Y002481D02*
Y002608D01*
X003954Y002481D02*
Y002608D01*
X003763Y002621D02*
X003827D01*
X003763Y002469D02*
X003827D01*
X003246Y002481D02*
Y002608D01*
X003563Y002481D02*
Y002608D01*
X003373Y002621D02*
X003437D01*
X003373Y002469D02*
X003437D01*
X004389Y002660D02*
Y002787D01*
X004707Y002660D02*
Y002787D01*
X004516Y002799D02*
X004580D01*
X004516Y002647D02*
X004580D01*
X003246Y001055D02*
Y001182D01*
X003563Y001055D02*
Y001182D01*
X003373Y001195D02*
X003436D01*
X003373Y001042D02*
X003436D01*
X003636Y000877D02*
Y001004D01*
X003953Y000877D02*
Y001004D01*
X003763Y001016D02*
X003826D01*
X003763Y000864D02*
X003826D01*
X003563Y001233D02*
Y001360D01*
X003246Y001233D02*
Y001360D01*
X003373Y001221D02*
X003437D01*
X003373Y001373D02*
X003437D01*
X003246Y002303D02*
Y002430D01*
X003563Y002303D02*
Y002430D01*
X003373Y002443D02*
X003437D01*
X003373Y002290D02*
X003437D01*
X003563Y002660D02*
Y002787D01*
X003246Y002660D02*
Y002787D01*
X003373Y002647D02*
X003437D01*
X003373Y002799D02*
X003437D01*
X004026Y002481D02*
Y002608D01*
X004344Y002481D02*
Y002608D01*
X004153Y002621D02*
X004217D01*
X004153Y002469D02*
X004217D01*
X001159Y002423D02*
Y002486D01*
X001311Y002423D02*
Y002486D01*
X001172Y002296D02*
X001298D01*
X001172Y002614D02*
X001298D01*
X001381Y002296D02*
X001509D01*
X001381Y002614D02*
X001509D01*
X001369Y002423D02*
Y002486D01*
X001521Y002423D02*
Y002486D01*
X001316Y002851D02*
Y002914D01*
X001164Y002851D02*
Y002914D01*
X001177Y003041D02*
X001303D01*
X001177Y002724D02*
X001303D01*
X001164Y003208D02*
Y003272D01*
X001316Y003208D02*
Y003272D01*
X001177Y003081D02*
X001303D01*
X001177Y003399D02*
X001303D01*
X006039Y001055D02*
Y001182D01*
X006356Y001055D02*
Y001182D01*
X006166Y001195D02*
X006229D01*
X006166Y001042D02*
X006229D01*
X004916Y002125D02*
Y002252D01*
X005233Y002125D02*
Y002252D01*
X005043Y002265D02*
X005106D01*
X005043Y002112D02*
X005106D01*
X004916Y000877D02*
Y001004D01*
X005234Y000877D02*
Y001004D01*
X005043Y001016D02*
X005107D01*
X005043Y000864D02*
X005107D01*
X005233Y001412D02*
Y001539D01*
X004916Y001412D02*
Y001539D01*
X005043Y001399D02*
X005106D01*
X005043Y001551D02*
X005106D01*
X006014Y001233D02*
Y001360D01*
X005696Y001233D02*
Y001360D01*
X005823Y001221D02*
X005887D01*
X005823Y001373D02*
X005887D01*
X006059Y002650D02*
Y002777D01*
X006377Y002650D02*
Y002777D01*
X006186Y002789D02*
X006250D01*
X006186Y002637D02*
X006250D01*
X006059Y002481D02*
Y002608D01*
X006377Y002481D02*
Y002608D01*
X006186Y002621D02*
X006250D01*
X006186Y002469D02*
X006250D01*
X004916Y001055D02*
Y001182D01*
X005233Y001055D02*
Y001182D01*
X005043Y001195D02*
X005106D01*
X005043Y001042D02*
X005106D01*
X005623Y001055D02*
Y001182D01*
X005306Y001055D02*
Y001182D01*
X005433Y001042D02*
X005496D01*
X005433Y001195D02*
X005496D01*
X005233Y001233D02*
Y001360D01*
X004916Y001233D02*
Y001360D01*
X005043Y001221D02*
X005106D01*
X005043Y001373D02*
X005106D01*
X006011Y002650D02*
Y002777D01*
X005693Y002650D02*
Y002777D01*
X005820Y002637D02*
X005884D01*
X005820Y002789D02*
X005884D01*
X004916Y002303D02*
Y002430D01*
X005233Y002303D02*
Y002430D01*
X005043Y002443D02*
X005106D01*
X005043Y002290D02*
X005106D01*
X005624Y002660D02*
Y002787D01*
X005306Y002660D02*
Y002787D01*
X005433Y002647D02*
X005497D01*
X005433Y002799D02*
X005497D01*
X005233Y002660D02*
Y002787D01*
X004916Y002660D02*
Y002787D01*
X005043Y002647D02*
X005106D01*
X005043Y002799D02*
X005106D01*
X005696Y002481D02*
Y002608D01*
X006014Y002481D02*
Y002608D01*
X005823Y002621D02*
X005887D01*
X005823Y002469D02*
X005887D01*
X005306Y002481D02*
Y002608D01*
X005624Y002481D02*
Y002608D01*
X005433Y002621D02*
X005497D01*
X005433Y002469D02*
X005497D01*
X004916Y002481D02*
Y002608D01*
X005233Y002481D02*
Y002608D01*
X005043Y002621D02*
X005106D01*
X005043Y002469D02*
X005106D01*
X005233Y001947D02*
Y002074D01*
X004916Y001947D02*
Y002074D01*
X005043Y001934D02*
X005106D01*
X005043Y002086D02*
X005106D01*
X004916Y001590D02*
Y001717D01*
X005233Y001590D02*
Y001717D01*
X005043Y001730D02*
X005106D01*
X005043Y001577D02*
X005106D01*
X005694Y001055D02*
Y001182D01*
X006011Y001055D02*
Y001182D01*
X005821Y001195D02*
X005884D01*
X005821Y001042D02*
X005884D01*
X005306Y001233D02*
Y001360D01*
X005624Y001233D02*
Y001360D01*
X005433Y001373D02*
X005497D01*
X005433Y001221D02*
X005497D01*
X001526Y003208D02*
Y003272D01*
X001374Y003208D02*
Y003272D01*
X001386Y003399D02*
X001514D01*
X001386Y003081D02*
X001514D01*
X001526Y002851D02*
Y002914D01*
X001374Y002851D02*
Y002914D01*
X001386Y003041D02*
X001514D01*
X001386Y002724D02*
X001514D01*
X001844Y003862D02*
Y003989D01*
X001526Y003862D02*
Y003989D01*
X001653Y003849D02*
X001717D01*
X001653Y004001D02*
X001717D01*
X002234Y003862D02*
Y003989D01*
X001917Y003862D02*
Y003989D01*
X002043Y003849D02*
X002107D01*
X002043Y004001D02*
X002107D01*
X001454Y003862D02*
Y003989D01*
X001136Y003862D02*
Y003989D01*
X001263Y003849D02*
X001327D01*
X001263Y004001D02*
X001327D01*
X002234Y005466D02*
Y005593D01*
X001916Y005466D02*
Y005593D01*
X002043Y005454D02*
X002107D01*
X002043Y005606D02*
X002107D01*
X001456Y005288D02*
Y005415D01*
X001139Y005288D02*
Y005415D01*
X001266Y005275D02*
X001329D01*
X001266Y005428D02*
X001329D01*
X002234Y004753D02*
Y004880D01*
X001917Y004753D02*
Y004880D01*
X002043Y004740D02*
X002107D01*
X002043Y004893D02*
X002107D01*
X001917Y003683D02*
Y003810D01*
X002234Y003683D02*
Y003810D01*
X002043Y003823D02*
X002107D01*
X002043Y003671D02*
X002107D01*
X001526Y003683D02*
Y003810D01*
X001843Y003683D02*
Y003810D01*
X001653Y003823D02*
X001716D01*
X001653Y003671D02*
X001716D01*
X002234Y004040D02*
Y004167D01*
X001917Y004040D02*
Y004167D01*
X002043Y004027D02*
X002107D01*
X002043Y004180D02*
X002107D01*
X001139Y003683D02*
Y003810D01*
X001457Y003683D02*
Y003810D01*
X001266Y003823D02*
X001330D01*
X001266Y003671D02*
X001330D01*
X001917Y005110D02*
Y005237D01*
X002234Y005110D02*
Y005237D01*
X002043Y005249D02*
X002107D01*
X002043Y005097D02*
X002107D01*
X001527Y005288D02*
Y005415D01*
X001844Y005288D02*
Y005415D01*
X001654Y005428D02*
X001717D01*
X001654Y005275D02*
X001717D01*
X001844Y005466D02*
Y005593D01*
X001527Y005466D02*
Y005593D01*
X001654Y005454D02*
X001717D01*
X001654Y005606D02*
X001717D01*
X002234Y005288D02*
Y005415D01*
X001917Y005288D02*
Y005415D01*
X002044Y005275D02*
X002107D01*
X002044Y005428D02*
X002107D01*
X001091Y003862D02*
Y003989D01*
X000773Y003862D02*
Y003989D01*
X000900Y003849D02*
X000964D01*
X000900Y004001D02*
X000964D01*
X001091Y003683D02*
Y003810D01*
X000773Y003683D02*
Y003810D01*
X000900Y003671D02*
X000964D01*
X000900Y003823D02*
X000964D01*
X001136Y005110D02*
Y005237D01*
X001454Y005110D02*
Y005237D01*
X001263Y005249D02*
X001327D01*
X001263Y005097D02*
X001327D01*
X001917Y004931D02*
Y005058D01*
X002234Y004931D02*
Y005058D01*
X002043Y005071D02*
X002107D01*
X002043Y004919D02*
X002107D01*
X003514Y003862D02*
Y003989D01*
X003196Y003862D02*
Y003989D01*
X003323Y003849D02*
X003387D01*
X003323Y004001D02*
X003387D01*
X003904Y003862D02*
Y003989D01*
X003587Y003862D02*
Y003989D01*
X003713Y003849D02*
X003777D01*
X003713Y004001D02*
X003777D01*
X003124Y003862D02*
Y003989D01*
X002806Y003862D02*
Y003989D01*
X002933Y003849D02*
X002997D01*
X002933Y004001D02*
X002997D01*
X003904Y005466D02*
Y005593D01*
X003586Y005466D02*
Y005593D01*
X003713Y005454D02*
X003777D01*
X003713Y005606D02*
X003777D01*
X003126Y005288D02*
Y005415D01*
X002809Y005288D02*
Y005415D01*
X002936Y005275D02*
X002999D01*
X002936Y005428D02*
X002999D01*
X003904Y004753D02*
Y004880D01*
X003587Y004753D02*
Y004880D01*
X003713Y004740D02*
X003777D01*
X003713Y004893D02*
X003777D01*
X003587Y003683D02*
Y003810D01*
X003904Y003683D02*
Y003810D01*
X003713Y003823D02*
X003777D01*
X003713Y003671D02*
X003777D01*
X003196Y003683D02*
Y003810D01*
X003513Y003683D02*
Y003810D01*
X003323Y003823D02*
X003387D01*
X003323Y003671D02*
X003387D01*
X003904Y004040D02*
Y004167D01*
X003587Y004040D02*
Y004167D01*
X003713Y004027D02*
X003777D01*
X003713Y004180D02*
X003777D01*
X002809Y003683D02*
Y003810D01*
X003127Y003683D02*
Y003810D01*
X002936Y003823D02*
X003000D01*
X002936Y003671D02*
X003000D01*
X003587Y005110D02*
Y005237D01*
X003904Y005110D02*
Y005237D01*
X003713Y005249D02*
X003777D01*
X003713Y005097D02*
X003777D01*
X003197Y005288D02*
Y005415D01*
X003514Y005288D02*
Y005415D01*
X003324Y005428D02*
X003387D01*
X003324Y005275D02*
X003387D01*
X003514Y005466D02*
Y005593D01*
X003197Y005466D02*
Y005593D01*
X003324Y005454D02*
X003387D01*
X003324Y005606D02*
X003387D01*
X003904Y005288D02*
Y005415D01*
X003587Y005288D02*
Y005415D01*
X003714Y005275D02*
X003777D01*
X003714Y005428D02*
X003777D01*
X002761Y003862D02*
Y003989D01*
X002443Y003862D02*
Y003989D01*
X002570Y003849D02*
X002634D01*
X002570Y004001D02*
X002634D01*
X002761Y003683D02*
Y003810D01*
X002443Y003683D02*
Y003810D01*
X002570Y003671D02*
X002634D01*
X002570Y003823D02*
X002634D01*
X002806Y005110D02*
Y005237D01*
X003124Y005110D02*
Y005237D01*
X002933Y005249D02*
X002997D01*
X002933Y005097D02*
X002997D01*
X003587Y004931D02*
Y005058D01*
X003904Y004931D02*
Y005058D01*
X003713Y005071D02*
X003777D01*
X003713Y004919D02*
X003777D01*
X002781Y005288D02*
Y005415D01*
X002464Y005288D02*
Y005415D01*
X002591Y005275D02*
X002654D01*
X002591Y005428D02*
X002654D01*
X002781Y005110D02*
Y005237D01*
X002463Y005110D02*
Y005237D01*
X002590Y005097D02*
X002654D01*
X002590Y005249D02*
X002654D01*
X003904Y004218D02*
Y004345D01*
X003587Y004218D02*
Y004345D01*
X003713Y004206D02*
X003777D01*
X003713Y004358D02*
X003777D01*
X003513Y005110D02*
Y005237D01*
X003196Y005110D02*
Y005237D01*
X003323Y005097D02*
X003387D01*
X003323Y005249D02*
X003387D01*
X003587Y004397D02*
Y004524D01*
X003904Y004397D02*
Y004524D01*
X003713Y004536D02*
X003777D01*
X003713Y004384D02*
X003777D01*
X001111Y005288D02*
Y005415D01*
X000793Y005288D02*
Y005415D01*
X000920Y005275D02*
X000984D01*
X000920Y005428D02*
X000984D01*
X001111Y005110D02*
Y005237D01*
X000793Y005110D02*
Y005237D01*
X000920Y005097D02*
X000984D01*
X000920Y005249D02*
X000984D01*
X002234Y004218D02*
Y004345D01*
X001917Y004218D02*
Y004345D01*
X002043Y004206D02*
X002107D01*
X002043Y004358D02*
X002107D01*
X001843Y005110D02*
Y005237D01*
X001526Y005110D02*
Y005237D01*
X001653Y005097D02*
X001717D01*
X001653Y005249D02*
X001717D01*
X001917Y004397D02*
Y004524D01*
X002234Y004397D02*
Y004524D01*
X002043Y004536D02*
X002107D01*
X002043Y004384D02*
X002107D01*
X005256Y004931D02*
Y005058D01*
X005574Y004931D02*
Y005058D01*
X005383Y005071D02*
X005447D01*
X005383Y004919D02*
X005447D01*
X004476Y005110D02*
Y005237D01*
X004794Y005110D02*
Y005237D01*
X004603Y005249D02*
X004667D01*
X004603Y005097D02*
X004667D01*
X004431Y003683D02*
Y003810D01*
X004113Y003683D02*
Y003810D01*
X004240Y003671D02*
X004304D01*
X004240Y003823D02*
X004304D01*
X005574Y005288D02*
Y005415D01*
X005257Y005288D02*
Y005415D01*
X005384Y005275D02*
X005447D01*
X005384Y005428D02*
X005447D01*
X005184Y005466D02*
Y005593D01*
X004867Y005466D02*
Y005593D01*
X004994Y005454D02*
X005057D01*
X004994Y005606D02*
X005057D01*
X004867Y005288D02*
Y005415D01*
X005184Y005288D02*
Y005415D01*
X004994Y005428D02*
X005057D01*
X004994Y005275D02*
X005057D01*
X005256Y005110D02*
Y005237D01*
X005574Y005110D02*
Y005237D01*
X005383Y005249D02*
X005447D01*
X005383Y005097D02*
X005447D01*
X004479Y003683D02*
Y003810D01*
X004797Y003683D02*
Y003810D01*
X004606Y003823D02*
X004670D01*
X004606Y003671D02*
X004670D01*
X004451Y005288D02*
Y005415D01*
X004133Y005288D02*
Y005415D01*
X004260Y005275D02*
X004324D01*
X004260Y005428D02*
X004324D01*
X004451Y005110D02*
Y005237D01*
X004133Y005110D02*
Y005237D01*
X004260Y005097D02*
X004324D01*
X004260Y005249D02*
X004324D01*
X005574Y004040D02*
Y004167D01*
X005256Y004040D02*
Y004167D01*
X005383Y004027D02*
X005447D01*
X005383Y004180D02*
X005447D01*
X004866Y003683D02*
Y003810D01*
X005183Y003683D02*
Y003810D01*
X004993Y003823D02*
X005056D01*
X004993Y003671D02*
X005056D01*
X005256Y003683D02*
Y003810D01*
X005574Y003683D02*
Y003810D01*
X005383Y003823D02*
X005447D01*
X005383Y003671D02*
X005447D01*
X005574Y004218D02*
Y004345D01*
X005256Y004218D02*
Y004345D01*
X005383Y004206D02*
X005447D01*
X005383Y004358D02*
X005447D01*
X005574Y004753D02*
Y004880D01*
X005256Y004753D02*
Y004880D01*
X005383Y004740D02*
X005447D01*
X005383Y004893D02*
X005447D01*
X004796Y005288D02*
Y005415D01*
X004479Y005288D02*
Y005415D01*
X004606Y005275D02*
X004669D01*
X004606Y005428D02*
X004669D01*
X005574Y005466D02*
Y005593D01*
X005256Y005466D02*
Y005593D01*
X005383Y005454D02*
X005447D01*
X005383Y005606D02*
X005447D01*
X005183Y005110D02*
Y005237D01*
X004866Y005110D02*
Y005237D01*
X004993Y005097D02*
X005056D01*
X004993Y005249D02*
X005056D01*
X004794Y003862D02*
Y003989D01*
X004476Y003862D02*
Y003989D01*
X004603Y003849D02*
X004667D01*
X004603Y004001D02*
X004667D01*
X005574Y003862D02*
Y003989D01*
X005256Y003862D02*
Y003989D01*
X005383Y003849D02*
X005447D01*
X005383Y004001D02*
X005447D01*
X005184Y003862D02*
Y003989D01*
X004866Y003862D02*
Y003989D01*
X004993Y003849D02*
X005057D01*
X004993Y004001D02*
X005057D01*
X005256Y004397D02*
Y004524D01*
X005574Y004397D02*
Y004524D01*
X005383Y004536D02*
X005447D01*
X005383Y004384D02*
X005447D01*
D14*
X007246Y002220D02*
Y002438D01*
X007829Y002220D02*
Y002438D01*
Y001422D02*
Y001635D01*
X007246Y001422D02*
Y001635D01*
X007624Y001422D02*
X007829D01*
X007246Y002438D02*
X007829D01*
X007246Y001422D02*
X007427D01*
X005576D02*
X005757D01*
X005576Y002438D02*
X006159D01*
X005954Y001422D02*
X006159D01*
X005576D02*
Y001635D01*
X006159Y001422D02*
Y001635D01*
Y002220D02*
Y002438D01*
X005576Y002220D02*
Y002438D01*
X003906Y002220D02*
Y002438D01*
X004489Y002220D02*
Y002438D01*
Y001422D02*
Y001635D01*
X003906Y001422D02*
Y001635D01*
X004284Y001422D02*
X004489D01*
X003906Y002438D02*
X004489D01*
X003906Y001422D02*
X004087D01*
X004733Y005054D02*
X004914D01*
X004331Y004038D02*
X004914D01*
X004331Y005054D02*
X004536D01*
X004914Y004841D02*
Y005054D01*
X004331Y004841D02*
Y005054D01*
Y004038D02*
Y004256D01*
X004914Y004038D02*
Y004256D01*
X001574Y004038D02*
Y004256D01*
X000991Y004038D02*
Y004256D01*
Y004841D02*
Y005054D01*
X001574Y004841D02*
Y005054D01*
X000991D02*
X001196D01*
X000991Y004038D02*
X001574D01*
X001393Y005054D02*
X001574D01*
X003063D02*
X003244D01*
X002661Y004038D02*
X003244D01*
X002661Y005054D02*
X002866D01*
X003244Y004841D02*
Y005054D01*
X002661Y004841D02*
Y005054D01*
Y004038D02*
Y004256D01*
X003244Y004038D02*
Y004256D01*
X005105Y003109D02*
Y003617D01*
X005355Y003110D02*
Y003617D01*
X005105Y003109D02*
X005354D01*
X005105Y003617D02*
X005355D01*
X005395D02*
X005645D01*
X005395Y003109D02*
X005644D01*
X005645Y003110D02*
Y003617D01*
X005395Y003109D02*
Y003617D01*
X004780Y003372D02*
X004939Y003373D01*
X004780Y003192D02*
X004940D01*
X004780Y003582D02*
X004939Y003583D01*
X004780Y003402D02*
X004940D01*
X004780Y003160D02*
X004939Y003161D01*
X004780Y002980D02*
X004940D01*
X002265Y002030D02*
Y002370D01*
Y002030D02*
X002404D01*
X002265Y002370D02*
X002404D01*
X002887Y002030D02*
Y002370D01*
X002747D02*
X002887D01*
X002747Y002030D02*
X002887D01*
X001575D02*
Y002370D01*
Y002030D02*
X001714D01*
X001575Y002370D02*
X001714D01*
X002197Y002030D02*
Y002370D01*
X002057D02*
X002197D01*
X002057Y002030D02*
X002197D01*
X002040Y001827D02*
X002073Y001760D01*
X002107Y001827D01*
X002190Y001760D02*
X002157D01*
X002140Y001777D01*
Y001810D01*
X002157Y001827D01*
X002190D01*
X002207Y001810D01*
Y001793D01*
X002140D01*
X002240Y001827D02*
Y001760D01*
Y001793D01*
X002257Y001810D01*
X002273Y001827D01*
X002290D01*
X002340Y001760D02*
Y001777D01*
X002357D01*
Y001760D01*
X002340D01*
X002423Y001843D02*
X002440Y001860D01*
X002473D01*
X002490Y001843D01*
Y001827D01*
X002473Y001810D01*
X002457D01*
X002473D01*
X002490Y001793D01*
Y001777D01*
X002473Y001760D01*
X002440D01*
X002423Y001777D01*
X002523Y001760D02*
Y001777D01*
X002540D01*
Y001760D01*
X002523D01*
X002606Y001843D02*
X002623Y001860D01*
X002656D01*
X002673Y001843D01*
Y001777D01*
X002656Y001760D01*
X002623D01*
X002606Y001777D01*
Y001843D01*
D15*
X004042Y003045D02*
Y003465D01*
X002910Y003045D02*
X004042D01*
X002910Y003465D02*
X004042D01*
X002910Y003045D02*
Y003465D01*
M02*
