M48
;Layer_Color=9474304
;FILE_FORMAT=4:2
METRIC
;TYPE=PLATED
T1F00S00C0.20
T2F00S00C0.30
T3F00S00C0.51
T4F00S00C0.80
T5F00S00C0.86
T6F00S00C0.95
T7F00S00C1.00
T8F00S00C2.60
%
T01
X003764Y001129
X003590Y001329
X003726Y001551
X003668Y001781
X003612Y001815
X003529Y001759
X003004Y003869
X001374
X004634
X005159Y001759
X005242Y001815
X005298Y001781
X005356Y001551
X005220Y001329
X006850
X006986Y001551
X006928Y001781
X006789Y001759
X004460Y004069
X004596Y004291
X004538Y004521
X004399Y004499
X002908Y004521
X002852Y004555
X002769Y004499
X002966Y004291
X002830Y004069
X001200
X001336Y004291
X001278Y004521
X001222Y004555
X001139Y004499
T02
X000300Y002100
X000600
X000900
X000750Y001800
X001350
X001500Y002100
X001800
X001840Y001710
X001950Y001800
X002250
X002400Y002100
X002700
X002990Y002080
X002950Y002520
X003000Y002700
X003130Y003150
X003651Y002695
X003600Y002100
X003400Y001901
X003450Y001800
X003400Y001730
X003600Y000300
X003900
X002400Y002700
X001596Y002746
X001430Y002330
Y003600
X002400Y003900
X005020Y003540
X005160Y002930
X005281Y002695
X005030Y001901
Y001730
X004800Y001500
X004480Y001340
X004460Y001770
X004580Y001810
X004810Y002030
X004470Y002280
X004050Y001800
X005100Y000900
X004950Y000600
X006450
X006750
X006600Y000300
X006300
X006450Y001200
X006110Y001340
X006080Y001770
X006210Y001810
X006450Y001800
X006440Y002030
X006660Y001901
Y001730
X007050Y001800
X006900Y002100
X006911Y002695
X006450Y002400
X006110Y002280
X007730
X007800Y002700
X007840Y001810
X007710Y001770
X007775Y001368
X007350Y000600
X008250Y001800
X008550
X008400Y002100
X005350Y004080
X005335Y004530
X005450Y004550
X005350Y005040
X005090Y005520
X005100Y005700
X004521Y005435
X004050Y005400
Y006000
X004050Y004770
X004270Y004641
X004250Y004530
X003820Y004550
X003705Y004530
X003720Y004080
X003720Y005040
X002850Y004800
X002640Y004641
X002610Y004520
X002400Y004500
X002190Y004550
X002075Y004530
X002090Y004080
X002090Y005040
X002400Y005100
X002430Y004770
X002891Y005435
X002250Y006000
X001261Y005435
X000620Y005070
X000790Y004770
X001010Y004641
X001003Y004549
X000300Y004500
T03
X001080Y001710
X001270
X005450Y005517
Y005708
T04
X005790Y000320
Y000560
Y000800
X006090
Y000560
Y000320
X002750Y005690
Y005920
Y006150
X002450
Y005920
Y005690
T05
X000347Y002547
Y002747
X000547
Y002947
Y003147
Y003347
X000347
Y003147
Y002947
X000547Y002547
Y003547
X000347
Y003747
Y003947
X000547
Y003747
Y004147
X000347
Y004347
X000547
T06
X005520Y003156
Y003410
T07
X003850Y000530
Y000830
X005170Y000710
Y000410
X005480Y000560
X004890Y005650
Y005950
X003400Y006060
Y005760
X003100Y005920
T08
X000397Y001845
X003347Y000395
X006993
X004397Y003245
X008395Y002545
X005447Y006095
X001799Y006095
M30
