G04*
G04 #@! TF.GenerationSoftware,Altium Limited,Altium Designer,22.1.2 (22)*
G04*
G04 Layer_Color=16711935*
%FSAX42Y42*%
%MOMM*%
G71*
G04*
G04 #@! TF.SameCoordinates,6AF072E4-1C14-4756-A521-AA6684F00E27*
G04*
G04*
G04 #@! TF.FilePolarity,Negative*
G04*
G01*
G75*
%ADD15C,0.50*%
%ADD16O,2.00X0.90*%
%ADD17O,0.84X1.40*%
%ADD18R,0.80X1.40*%
%ADD19R,2.00X0.90*%
%ADD20R,1.00X1.50*%
G04:AMPARAMS|DCode=26|XSize=5.2mm|YSize=3.2mm|CornerRadius=0.18mm|HoleSize=0mm|Usage=FLASHONLY|Rotation=0.000|XOffset=0mm|YOffset=0mm|HoleType=Round|Shape=RoundedRectangle|*
%AMROUNDEDRECTD26*
21,1,5.20,2.85,0,0,0.0*
21,1,4.85,3.20,0,0,0.0*
1,1,0.35,2.42,-1.43*
1,1,0.35,-2.42,-1.43*
1,1,0.35,-2.42,1.43*
1,1,0.35,2.42,1.43*
%
%ADD26ROUNDEDRECTD26*%
%ADD27C,1.57*%
%ADD28R,1.57X1.57*%
%ADD29C,2.20*%
%ADD30C,1.22*%
G04:AMPARAMS|DCode=31|XSize=3mm|YSize=3mm|CornerRadius=0.8mm|HoleSize=0mm|Usage=FLASHONLY|Rotation=180.000|XOffset=0mm|YOffset=0mm|HoleType=Round|Shape=RoundedRectangle|*
%AMROUNDEDRECTD31*
21,1,3.00,1.40,0,0,180.0*
21,1,1.40,3.00,0,0,180.0*
1,1,1.60,-0.70,0.70*
1,1,1.60,0.70,0.70*
1,1,1.60,0.70,-0.70*
1,1,1.60,-0.70,-0.70*
%
%ADD31ROUNDEDRECTD31*%
%ADD32O,2.20X1.80*%
%ADD33R,1.80X1.60*%
%ADD34O,1.80X1.60*%
%ADD35C,0.60*%
%ADD36C,0.80*%
%ADD37C,0.90*%
%ADD38C,4.20*%
G04:AMPARAMS|DCode=84|XSize=0.9mm|YSize=1.1mm|CornerRadius=0.28mm|HoleSize=0mm|Usage=FLASHONLY|Rotation=270.000|XOffset=0mm|YOffset=0mm|HoleType=Round|Shape=RoundedRectangle|*
%AMROUNDEDRECTD84*
21,1,0.90,0.55,0,0,270.0*
21,1,0.35,1.10,0,0,270.0*
1,1,0.55,-0.28,-0.18*
1,1,0.55,-0.28,0.18*
1,1,0.55,0.28,0.18*
1,1,0.55,0.28,-0.18*
%
%ADD84ROUNDEDRECTD84*%
%ADD85R,1.10X0.90*%
G04:AMPARAMS|DCode=86|XSize=1.1mm|YSize=1.15mm|CornerRadius=0.33mm|HoleSize=0mm|Usage=FLASHONLY|Rotation=180.000|XOffset=0mm|YOffset=0mm|HoleType=Round|Shape=RoundedRectangle|*
%AMROUNDEDRECTD86*
21,1,1.10,0.50,0,0,180.0*
21,1,0.45,1.15,0,0,180.0*
1,1,0.65,-0.23,0.25*
1,1,0.65,0.23,0.25*
1,1,0.65,0.23,-0.25*
1,1,0.65,-0.23,-0.25*
%
%ADD86ROUNDEDRECTD86*%
%ADD87R,1.10X1.15*%
%ADD88R,1.10X1.15*%
D15*
X007523Y001443D02*
X007553Y001473D01*
X007724Y001174D02*
X007890D01*
X007553Y001473D02*
X007596Y001517D01*
Y001582D01*
X007724Y000982D02*
Y001174D01*
X007890D02*
Y001762D01*
X007523Y001443D02*
X007523Y000982D01*
X007724D01*
X005853D02*
X006054D01*
X005853Y001443D02*
X005853Y000982D01*
X006220Y001174D02*
Y001762D01*
X006054Y000982D02*
Y001174D01*
X005926Y001517D02*
Y001582D01*
X005883Y001473D02*
X005926Y001517D01*
X006054Y001174D02*
X006220D01*
X005853Y001443D02*
X005883Y001473D01*
X004183Y001443D02*
X004213Y001473D01*
X004384Y001174D02*
X004550D01*
X004213Y001473D02*
X004256Y001517D01*
Y001582D01*
X004384Y000982D02*
Y001174D01*
X004550D02*
Y001762D01*
X004183Y001443D02*
X004183Y000982D01*
X004384D01*
X004436Y005494D02*
X004637D01*
X004637Y005033D01*
X004270Y004714D02*
Y005302D01*
X004436D02*
Y005494D01*
X004564Y004894D02*
Y004959D01*
X004607Y005003D01*
X004270Y005302D02*
X004436D01*
X004607Y005003D02*
X004637Y005033D01*
X001267Y005003D02*
X001297Y005033D01*
X000930Y005302D02*
X001096D01*
X001224Y004959D02*
X001267Y005003D01*
X001224Y004894D02*
Y004959D01*
X001096Y005302D02*
Y005494D01*
X000930Y004714D02*
Y005302D01*
X001297Y005494D02*
X001297Y005033D01*
X001096Y005494D02*
X001297D01*
X002766D02*
X002967D01*
X002967Y005033D01*
X002600Y004714D02*
Y005302D01*
X002766D02*
Y005494D01*
X002894Y004894D02*
Y004959D01*
X002937Y005003D01*
X002600Y005302D02*
X002766D01*
X002937Y005003D02*
X002967Y005033D01*
D16*
X008046Y002120D02*
D03*
Y001993D02*
D03*
Y002374D02*
D03*
Y001866D02*
D03*
Y002247D02*
D03*
Y001739D02*
D03*
Y001612D02*
D03*
Y001485D02*
D03*
X007020Y001612D02*
D03*
Y002374D02*
D03*
Y002247D02*
D03*
Y002120D02*
D03*
Y001993D02*
D03*
Y001866D02*
D03*
Y001739D02*
D03*
X005350D02*
D03*
Y001866D02*
D03*
Y001993D02*
D03*
Y002120D02*
D03*
Y002247D02*
D03*
Y002374D02*
D03*
Y001612D02*
D03*
X006376Y001485D02*
D03*
Y001612D02*
D03*
Y001739D02*
D03*
Y002247D02*
D03*
Y001866D02*
D03*
Y002374D02*
D03*
Y001993D02*
D03*
Y002120D02*
D03*
X004706D02*
D03*
Y001993D02*
D03*
Y002374D02*
D03*
Y001866D02*
D03*
Y002247D02*
D03*
Y001739D02*
D03*
Y001612D02*
D03*
Y001485D02*
D03*
X003680Y001612D02*
D03*
Y002374D02*
D03*
Y002247D02*
D03*
Y002120D02*
D03*
Y001993D02*
D03*
Y001866D02*
D03*
Y001739D02*
D03*
X005140Y004737D02*
D03*
Y004610D02*
D03*
Y004483D02*
D03*
Y004356D02*
D03*
Y004229D02*
D03*
Y004102D02*
D03*
Y004864D02*
D03*
X004114Y004991D02*
D03*
Y004864D02*
D03*
Y004737D02*
D03*
Y004229D02*
D03*
Y004610D02*
D03*
Y004102D02*
D03*
Y004483D02*
D03*
Y004356D02*
D03*
X000774D02*
D03*
Y004483D02*
D03*
Y004102D02*
D03*
Y004610D02*
D03*
Y004229D02*
D03*
Y004737D02*
D03*
Y004864D02*
D03*
Y004991D02*
D03*
X001800Y004864D02*
D03*
Y004102D02*
D03*
Y004229D02*
D03*
Y004356D02*
D03*
Y004483D02*
D03*
Y004610D02*
D03*
Y004737D02*
D03*
X003470D02*
D03*
Y004610D02*
D03*
Y004483D02*
D03*
Y004356D02*
D03*
Y004229D02*
D03*
Y004102D02*
D03*
Y004864D02*
D03*
X002444Y004991D02*
D03*
Y004864D02*
D03*
Y004737D02*
D03*
Y004229D02*
D03*
Y004610D02*
D03*
Y004102D02*
D03*
Y004483D02*
D03*
Y004356D02*
D03*
D17*
X007468Y001583D02*
D03*
X007595Y002281D02*
D03*
X007341Y001583D02*
D03*
X007722D02*
D03*
X007468Y002281D02*
D03*
X007341D02*
D03*
X007595Y001583D02*
D03*
X005925D02*
D03*
X005671Y002281D02*
D03*
X005798D02*
D03*
X006052Y001583D02*
D03*
X005671D02*
D03*
X005925Y002281D02*
D03*
X005798Y001583D02*
D03*
X004128D02*
D03*
X004255Y002281D02*
D03*
X004001Y001583D02*
D03*
X004382D02*
D03*
X004128Y002281D02*
D03*
X004001D02*
D03*
X004255Y001583D02*
D03*
X004565Y004893D02*
D03*
X004819Y004195D02*
D03*
X004692D02*
D03*
X004438Y004893D02*
D03*
X004819D02*
D03*
X004565Y004195D02*
D03*
X004692Y004893D02*
D03*
X001352D02*
D03*
X001225Y004195D02*
D03*
X001479Y004893D02*
D03*
X001098D02*
D03*
X001352Y004195D02*
D03*
X001479D02*
D03*
X001225Y004893D02*
D03*
X002895D02*
D03*
X003149Y004195D02*
D03*
X003022D02*
D03*
X002768Y004893D02*
D03*
X003149D02*
D03*
X002895Y004195D02*
D03*
X003022Y004893D02*
D03*
D18*
X007722Y002281D02*
D03*
X006052D02*
D03*
X004382D02*
D03*
X004438Y004195D02*
D03*
X001098D02*
D03*
X002768D02*
D03*
D19*
X007020Y001485D02*
D03*
X005350D02*
D03*
X003680D02*
D03*
X005140Y004991D02*
D03*
X001800D02*
D03*
X003470D02*
D03*
D20*
X007427Y001297D02*
D03*
Y001117D02*
D03*
X007617Y001297D02*
D03*
Y001117D02*
D03*
X007793Y001293D02*
D03*
X007983D02*
D03*
X006313D02*
D03*
X006123D02*
D03*
X005947Y001117D02*
D03*
Y001297D02*
D03*
X005757Y001117D02*
D03*
Y001297D02*
D03*
X004087D02*
D03*
Y001117D02*
D03*
X004277Y001297D02*
D03*
Y001117D02*
D03*
X004453Y001293D02*
D03*
X004643D02*
D03*
X004177Y005183D02*
D03*
X004367D02*
D03*
X004543Y005359D02*
D03*
Y005179D02*
D03*
X004733Y005359D02*
D03*
Y005179D02*
D03*
X001393D02*
D03*
Y005359D02*
D03*
X001203Y005179D02*
D03*
Y005359D02*
D03*
X001027Y005183D02*
D03*
X000837D02*
D03*
X002507D02*
D03*
X002697D02*
D03*
X002873Y005359D02*
D03*
Y005179D02*
D03*
X003063Y005359D02*
D03*
Y005179D02*
D03*
X007270Y002723D02*
D03*
X007080D02*
D03*
X007982D02*
D03*
X007792D02*
D03*
X007617Y002723D02*
D03*
X007427D02*
D03*
X007230Y001297D02*
D03*
X007040D02*
D03*
X006840Y001475D02*
D03*
X006650D02*
D03*
X007792Y002545D02*
D03*
X007982D02*
D03*
X007230Y000940D02*
D03*
X007040D02*
D03*
X007230Y001118D02*
D03*
X007040D02*
D03*
X006649Y001653D02*
D03*
X006839D02*
D03*
X004642Y002545D02*
D03*
X004452D02*
D03*
X003700Y000940D02*
D03*
X003890D02*
D03*
X004452Y002723D02*
D03*
X004642D02*
D03*
X004087Y002723D02*
D03*
X004277D02*
D03*
X003310Y001475D02*
D03*
X003500D02*
D03*
X003700Y002723D02*
D03*
X003890D02*
D03*
X003700Y001118D02*
D03*
X003890D02*
D03*
X003700Y001297D02*
D03*
X003890D02*
D03*
X003499Y001653D02*
D03*
X003309D02*
D03*
X005370Y001118D02*
D03*
X005560D02*
D03*
X006122Y002723D02*
D03*
X006312D02*
D03*
X005757Y002723D02*
D03*
X005947D02*
D03*
X005370Y001297D02*
D03*
X005560D02*
D03*
X004980Y001475D02*
D03*
X005170D02*
D03*
X005370Y000940D02*
D03*
X005560D02*
D03*
X005370Y002723D02*
D03*
X005560D02*
D03*
X005169Y001653D02*
D03*
X004979D02*
D03*
X006312Y002545D02*
D03*
X006122D02*
D03*
X001575Y001933D02*
D03*
X001765D02*
D03*
X001305Y001933D02*
D03*
X001115D02*
D03*
X003063Y003747D02*
D03*
X002873D02*
D03*
X001981Y004817D02*
D03*
X002171D02*
D03*
X001780Y005352D02*
D03*
X001590D02*
D03*
X001780Y003747D02*
D03*
X001590D02*
D03*
X001780Y005530D02*
D03*
X001590D02*
D03*
X000838Y003925D02*
D03*
X001028D02*
D03*
X002170Y004995D02*
D03*
X001980D02*
D03*
X001780Y005173D02*
D03*
X001590D02*
D03*
X001393Y003747D02*
D03*
X001203D02*
D03*
X001028Y003747D02*
D03*
X000838D02*
D03*
X003651Y004817D02*
D03*
X003841D02*
D03*
X003450Y005352D02*
D03*
X003260D02*
D03*
X003450Y003747D02*
D03*
X003260D02*
D03*
X003450Y005530D02*
D03*
X003260D02*
D03*
X002508Y003925D02*
D03*
X002698D02*
D03*
X003840Y004995D02*
D03*
X003650D02*
D03*
X003450Y005173D02*
D03*
X003260D02*
D03*
X002698Y003747D02*
D03*
X002508D02*
D03*
X004368D02*
D03*
X004178D02*
D03*
X004733Y003747D02*
D03*
X004543D02*
D03*
X005120Y005173D02*
D03*
X004930D02*
D03*
X005510Y004995D02*
D03*
X005320D02*
D03*
X004178Y003925D02*
D03*
X004368D02*
D03*
X005120Y005530D02*
D03*
X004930D02*
D03*
X005120Y003747D02*
D03*
X004930D02*
D03*
X005120Y005352D02*
D03*
X004930D02*
D03*
X005321Y004817D02*
D03*
X005511D02*
D03*
X005030Y003033D02*
D03*
X005220D02*
D03*
D26*
X007531Y001932D02*
D03*
X005861D02*
D03*
X004191D02*
D03*
X004629Y004544D02*
D03*
X001289D02*
D03*
X002959D02*
D03*
D27*
X000347Y004147D02*
D03*
Y004347D02*
D03*
X000547Y003947D02*
D03*
X000347D02*
D03*
X000547Y004147D02*
D03*
Y004347D02*
D03*
Y004547D02*
D03*
X000347D02*
D03*
X000547Y004747D02*
D03*
Y003747D02*
D03*
X000347Y003547D02*
D03*
X000547D02*
D03*
X000347Y003747D02*
D03*
X000547Y003347D02*
D03*
X000347Y003147D02*
D03*
X000547D02*
D03*
X000347Y003347D02*
D03*
X000547Y002947D02*
D03*
X000347D02*
D03*
X000547Y002747D02*
D03*
X000347Y002547D02*
D03*
X000547D02*
D03*
Y002347D02*
D03*
X000347Y002347D02*
D03*
Y002747D02*
D03*
D28*
Y004747D02*
D03*
D29*
X003424Y005781D02*
D03*
X004721Y005712D02*
D03*
X005370Y000710D02*
D03*
X003424Y006081D02*
D03*
X004811Y006032D02*
D03*
X004070Y000770D02*
D03*
X003980Y000450D02*
D03*
X005370Y000410D02*
D03*
D30*
X001574Y001733D02*
D03*
X001765D02*
D03*
X001115D02*
D03*
X001306D02*
D03*
D31*
X003023Y005931D02*
D03*
X005771Y000560D02*
D03*
D32*
X002635Y006151D02*
D03*
Y005931D02*
D03*
Y005711D02*
D03*
X002335Y006151D02*
D03*
Y005931D02*
D03*
Y005711D02*
D03*
X006458Y000780D02*
D03*
Y000560D02*
D03*
Y000340D02*
D03*
X006158Y000780D02*
D03*
Y000560D02*
D03*
Y000340D02*
D03*
D33*
X005230Y003236D02*
D03*
X005520D02*
D03*
D34*
X005230Y003490D02*
D03*
X005520D02*
D03*
D35*
X007523Y001440D02*
D03*
X007523Y001205D02*
D03*
X007724Y000983D02*
D03*
X007522D02*
D03*
X007889Y001521D02*
D03*
Y001763D02*
D03*
X006219D02*
D03*
Y001521D02*
D03*
X005852Y000983D02*
D03*
X006054D02*
D03*
X005853Y001205D02*
D03*
X005853Y001440D02*
D03*
X004183D02*
D03*
X004183Y001205D02*
D03*
X004384Y000983D02*
D03*
X004182D02*
D03*
X004549Y001521D02*
D03*
Y001763D02*
D03*
X004271Y004713D02*
D03*
Y004955D02*
D03*
X004638Y005493D02*
D03*
X004436D02*
D03*
X004637Y005271D02*
D03*
X004637Y005036D02*
D03*
X001297D02*
D03*
X001297Y005271D02*
D03*
X001096Y005493D02*
D03*
X001298D02*
D03*
X000931Y004955D02*
D03*
Y004713D02*
D03*
X002601D02*
D03*
Y004955D02*
D03*
X002968Y005493D02*
D03*
X002766D02*
D03*
X002967Y005271D02*
D03*
X002967Y005036D02*
D03*
D36*
X000810Y003270D02*
D03*
X001900Y002660D02*
D03*
D37*
X004120Y003450D02*
D03*
X001443Y002094D02*
D03*
X003020Y002190D02*
D03*
X004860Y003080D02*
D03*
X001100Y003150D02*
D03*
X001449Y002664D02*
D03*
X002070Y001960D02*
D03*
X002380Y003410D02*
D03*
D38*
X001799Y006095D02*
D03*
X004395Y003245D02*
D03*
X005445Y006095D02*
D03*
X000395Y001845D02*
D03*
X003345Y000395D02*
D03*
X008395Y002545D02*
D03*
X006991Y000395D02*
D03*
D84*
X006649Y001070D02*
D03*
X006650Y002435D02*
D03*
X003309Y001070D02*
D03*
X003310Y002565D02*
D03*
X004979Y001070D02*
D03*
X004980Y002565D02*
D03*
X002170Y003905D02*
D03*
X002171Y005400D02*
D03*
X003840Y003905D02*
D03*
X003841Y005400D02*
D03*
X005511D02*
D03*
X005510Y003905D02*
D03*
D85*
X006649Y001200D02*
D03*
X006839Y001135D02*
D03*
X006650Y002565D02*
D03*
X006840Y002500D02*
D03*
X003309Y001200D02*
D03*
X003499Y001135D02*
D03*
X003310Y002695D02*
D03*
X003500Y002630D02*
D03*
X005169Y001135D02*
D03*
X004979Y001200D02*
D03*
X005170Y002630D02*
D03*
X004980Y002695D02*
D03*
X002170Y003775D02*
D03*
X001980Y003840D02*
D03*
X002171Y005270D02*
D03*
X001981Y005335D02*
D03*
X003840Y003775D02*
D03*
X003650Y003840D02*
D03*
X003841Y005270D02*
D03*
X003651Y005335D02*
D03*
X005511Y005270D02*
D03*
X005321Y005335D02*
D03*
X005510Y003775D02*
D03*
X005320Y003840D02*
D03*
D86*
X005015Y003240D02*
D03*
D87*
X004825Y003240D02*
D03*
D88*
X004920Y003490D02*
D03*
M02*
