G04*
G04 #@! TF.GenerationSoftware,Altium Limited,Altium Designer,23.9.2 (47)*
G04*
G04 Layer_Color=8388736*
%FSAX42Y42*%
%MOMM*%
G71*
G04*
G04 #@! TF.SameCoordinates,0275EF52-C3CF-4463-BECB-0B3C2057F634*
G04*
G04*
G04 #@! TF.FilePolarity,Negative*
G04*
G01*
G75*
%ADD16R,1.00X1.50*%
%ADD17R,2.00X0.90*%
%ADD18O,2.00X0.90*%
%ADD19R,0.80X1.40*%
%ADD20O,0.84X1.40*%
%ADD21R,1.50X1.00*%
%ADD22R,1.20X1.90*%
%ADD23R,2.20X3.00*%
%ADD24R,1.98X1.02*%
%ADD25O,1.98X1.02*%
G04:AMPARAMS|DCode=26|XSize=5.2mm|YSize=3.2mm|CornerRadius=0.18mm|HoleSize=0mm|Usage=FLASHONLY|Rotation=0.000|XOffset=0mm|YOffset=0mm|HoleType=Round|Shape=RoundedRectangle|*
%AMROUNDEDRECTD26*
21,1,5.20,2.85,0,0,0.0*
21,1,4.85,3.20,0,0,0.0*
1,1,0.35,2.42,-1.43*
1,1,0.35,-2.42,-1.43*
1,1,0.35,-2.42,1.43*
1,1,0.35,2.42,1.43*
%
%ADD26ROUNDEDRECTD26*%
%ADD27C,2.20*%
%ADD28C,1.57*%
%ADD29R,1.57X1.57*%
%ADD30C,1.22*%
G04:AMPARAMS|DCode=31|XSize=3mm|YSize=3mm|CornerRadius=0.8mm|HoleSize=0mm|Usage=FLASHONLY|Rotation=180.000|XOffset=0mm|YOffset=0mm|HoleType=Round|Shape=RoundedRectangle|*
%AMROUNDEDRECTD31*
21,1,3.00,1.40,0,0,180.0*
21,1,1.40,3.00,0,0,180.0*
1,1,1.60,-0.70,0.70*
1,1,1.60,0.70,0.70*
1,1,1.60,0.70,-0.70*
1,1,1.60,-0.70,-0.70*
%
%ADD31ROUNDEDRECTD31*%
%ADD32O,2.20X1.80*%
%ADD33R,1.80X1.60*%
%ADD34O,1.80X1.60*%
%ADD35C,1.00*%
%ADD36C,4.20*%
D16*
X007039Y000940D02*
D03*
X007229D02*
D03*
X004367Y003925D02*
D03*
X004177D02*
D03*
X006103Y001297D02*
D03*
X006293D02*
D03*
X006649Y001118D02*
D03*
X006839D02*
D03*
X007772Y001118D02*
D03*
X007962D02*
D03*
X007773Y001297D02*
D03*
X007963D02*
D03*
X006650Y002188D02*
D03*
X006839D02*
D03*
X007427Y001118D02*
D03*
X007617D02*
D03*
X006840Y001475D02*
D03*
X006650D02*
D03*
X007620Y001297D02*
D03*
X007430D02*
D03*
X007793Y002723D02*
D03*
X007983D02*
D03*
X007793Y002545D02*
D03*
X007983D02*
D03*
X007230Y001118D02*
D03*
X007040D02*
D03*
X006840Y001297D02*
D03*
X006650D02*
D03*
X007617Y002723D02*
D03*
X007427D02*
D03*
X006650Y002367D02*
D03*
X006839D02*
D03*
X007231Y002723D02*
D03*
X007041D02*
D03*
X006840Y002713D02*
D03*
X006650D02*
D03*
X006650Y001653D02*
D03*
X006839D02*
D03*
X006650Y000940D02*
D03*
X006840D02*
D03*
X007040Y001297D02*
D03*
X007230D02*
D03*
X007430Y002545D02*
D03*
X007620D02*
D03*
X007040D02*
D03*
X007230D02*
D03*
X006650Y002545D02*
D03*
X006839D02*
D03*
X006840Y002010D02*
D03*
X006650D02*
D03*
X005559Y000940D02*
D03*
X005369D02*
D03*
X004622Y001118D02*
D03*
X004433D02*
D03*
X004623Y001297D02*
D03*
X004433D02*
D03*
X003499Y002188D02*
D03*
X003310D02*
D03*
X003890Y001297D02*
D03*
X003700D02*
D03*
X003310Y002010D02*
D03*
X003500D02*
D03*
X003499Y001653D02*
D03*
X003310D02*
D03*
X004277Y001118D02*
D03*
X004087D02*
D03*
X003500Y000940D02*
D03*
X003310D02*
D03*
X003310Y001475D02*
D03*
X003500D02*
D03*
X004090Y001297D02*
D03*
X004280D02*
D03*
X004643Y002545D02*
D03*
X004453D02*
D03*
X003700Y001118D02*
D03*
X003890D02*
D03*
X004087Y002723D02*
D03*
X004277D02*
D03*
X003701D02*
D03*
X003890D02*
D03*
X003890Y002545D02*
D03*
X003700D02*
D03*
X003499Y002545D02*
D03*
X003310D02*
D03*
X004643Y002723D02*
D03*
X004453D02*
D03*
X003499Y001118D02*
D03*
X003309D02*
D03*
X003889Y000940D02*
D03*
X003699D02*
D03*
X003310Y001297D02*
D03*
X003500D02*
D03*
X003499Y002367D02*
D03*
X003310D02*
D03*
X003310Y002723D02*
D03*
X003500D02*
D03*
X004280Y002545D02*
D03*
X004090D02*
D03*
X006292Y001118D02*
D03*
X006103D02*
D03*
X005169Y002188D02*
D03*
X004979D02*
D03*
X005170Y000940D02*
D03*
X004980D02*
D03*
X004980Y001475D02*
D03*
X005170D02*
D03*
X005760Y001297D02*
D03*
X005950D02*
D03*
X006313Y002713D02*
D03*
X006123D02*
D03*
X006313Y002545D02*
D03*
X006123D02*
D03*
X005169Y001118D02*
D03*
X004979D02*
D03*
X005370D02*
D03*
X005560D02*
D03*
X004980Y001297D02*
D03*
X005170D02*
D03*
X005757Y002713D02*
D03*
X005947D02*
D03*
X005169Y002367D02*
D03*
X004979D02*
D03*
X005371Y002723D02*
D03*
X005560D02*
D03*
X004980Y002723D02*
D03*
X005170D02*
D03*
X005950Y002545D02*
D03*
X005760D02*
D03*
X005560D02*
D03*
X005370D02*
D03*
X005169Y002545D02*
D03*
X004979D02*
D03*
X004980Y002010D02*
D03*
X005170D02*
D03*
X005169Y001653D02*
D03*
X004979D02*
D03*
X005947Y001118D02*
D03*
X005757D02*
D03*
X005560Y001297D02*
D03*
X005370D02*
D03*
X001590Y003925D02*
D03*
X001780D02*
D03*
X001981Y003925D02*
D03*
X002170D02*
D03*
X001200Y003925D02*
D03*
X001390D02*
D03*
X001980Y005530D02*
D03*
X002170D02*
D03*
X001203Y005352D02*
D03*
X001393D02*
D03*
X001981Y004817D02*
D03*
X002170D02*
D03*
X002170Y003747D02*
D03*
X001980D02*
D03*
X001779Y003747D02*
D03*
X001589D02*
D03*
X001981Y004103D02*
D03*
X002170D02*
D03*
X001393Y003747D02*
D03*
X001203D02*
D03*
X002170Y005173D02*
D03*
X001980D02*
D03*
X001780Y005352D02*
D03*
X001590D02*
D03*
X001591Y005530D02*
D03*
X001781D02*
D03*
X001981Y005352D02*
D03*
X002171D02*
D03*
X000837Y003925D02*
D03*
X001027D02*
D03*
X000837Y003747D02*
D03*
X001027D02*
D03*
X001390Y005173D02*
D03*
X001200D02*
D03*
X002170Y004995D02*
D03*
X001980D02*
D03*
X003260Y003925D02*
D03*
X003450D02*
D03*
X003651Y003925D02*
D03*
X003840D02*
D03*
X002870Y003925D02*
D03*
X003060D02*
D03*
X003650Y005530D02*
D03*
X003840D02*
D03*
X002873Y005352D02*
D03*
X003063D02*
D03*
X003651Y004817D02*
D03*
X003840D02*
D03*
X003840Y003747D02*
D03*
X003650D02*
D03*
X003449Y003747D02*
D03*
X003260D02*
D03*
X003651Y004103D02*
D03*
X003840D02*
D03*
X003063Y003747D02*
D03*
X002873D02*
D03*
X003840Y005173D02*
D03*
X003650D02*
D03*
X003450Y005352D02*
D03*
X003260D02*
D03*
X003261Y005530D02*
D03*
X003451D02*
D03*
X003651Y005352D02*
D03*
X003841D02*
D03*
X002507Y003925D02*
D03*
X002697D02*
D03*
X002507Y003747D02*
D03*
X002697D02*
D03*
X003060Y005173D02*
D03*
X002870D02*
D03*
X003840Y004995D02*
D03*
X003650D02*
D03*
X002527Y005352D02*
D03*
X002717D02*
D03*
X002527Y005173D02*
D03*
X002717D02*
D03*
X003651Y004282D02*
D03*
X003840D02*
D03*
X003260Y005173D02*
D03*
X003450D02*
D03*
X003840Y004460D02*
D03*
X003650D02*
D03*
X000857Y005352D02*
D03*
X001048D02*
D03*
X000857Y005173D02*
D03*
X001047D02*
D03*
X001981Y004282D02*
D03*
X002170D02*
D03*
X001590Y005173D02*
D03*
X001780D02*
D03*
X002170Y004460D02*
D03*
X001980D02*
D03*
X005510Y004995D02*
D03*
X005320D02*
D03*
X004730Y005173D02*
D03*
X004540D02*
D03*
X004177Y003747D02*
D03*
X004367D02*
D03*
X005321Y005352D02*
D03*
X005511D02*
D03*
X004931Y005530D02*
D03*
X005121D02*
D03*
X005120Y005352D02*
D03*
X004930D02*
D03*
X005510Y005173D02*
D03*
X005320D02*
D03*
X004733Y003747D02*
D03*
X004543D02*
D03*
X004197Y005352D02*
D03*
X004388D02*
D03*
X004197Y005173D02*
D03*
X004387D02*
D03*
X005321Y004103D02*
D03*
X005510D02*
D03*
X005119Y003747D02*
D03*
X004929D02*
D03*
X005510Y003747D02*
D03*
X005320D02*
D03*
X005321Y004282D02*
D03*
X005510D02*
D03*
X005321Y004817D02*
D03*
X005510D02*
D03*
X004543Y005352D02*
D03*
X004733D02*
D03*
X005320Y005530D02*
D03*
X005510D02*
D03*
X004930Y005173D02*
D03*
X005120D02*
D03*
X004540Y003925D02*
D03*
X004730D02*
D03*
X005321Y003925D02*
D03*
X005510D02*
D03*
X004930Y003925D02*
D03*
X005120D02*
D03*
X005510Y004460D02*
D03*
X005320D02*
D03*
D17*
X008048Y001485D02*
D03*
X006378D02*
D03*
X004708D02*
D03*
X004112Y004991D02*
D03*
X000772D02*
D03*
X002442D02*
D03*
D18*
X008048Y001612D02*
D03*
Y001739D02*
D03*
Y001866D02*
D03*
Y001993D02*
D03*
Y002120D02*
D03*
Y002247D02*
D03*
Y002374D02*
D03*
X007022D02*
D03*
Y002247D02*
D03*
Y002120D02*
D03*
Y001993D02*
D03*
Y001866D02*
D03*
Y001739D02*
D03*
Y001612D02*
D03*
Y001485D02*
D03*
X005352D02*
D03*
Y001612D02*
D03*
Y001739D02*
D03*
Y001866D02*
D03*
Y001993D02*
D03*
Y002120D02*
D03*
Y002247D02*
D03*
Y002374D02*
D03*
X006378D02*
D03*
Y002247D02*
D03*
Y002120D02*
D03*
Y001993D02*
D03*
Y001866D02*
D03*
Y001739D02*
D03*
Y001612D02*
D03*
X004708D02*
D03*
Y001739D02*
D03*
Y001866D02*
D03*
Y001993D02*
D03*
Y002120D02*
D03*
Y002247D02*
D03*
Y002374D02*
D03*
X003682D02*
D03*
Y002247D02*
D03*
Y002120D02*
D03*
Y001993D02*
D03*
Y001866D02*
D03*
Y001739D02*
D03*
Y001612D02*
D03*
Y001485D02*
D03*
X005138Y004991D02*
D03*
Y004864D02*
D03*
Y004737D02*
D03*
Y004610D02*
D03*
Y004483D02*
D03*
Y004356D02*
D03*
Y004229D02*
D03*
Y004102D02*
D03*
X004112D02*
D03*
Y004229D02*
D03*
Y004356D02*
D03*
Y004483D02*
D03*
Y004610D02*
D03*
Y004737D02*
D03*
Y004864D02*
D03*
X000772D02*
D03*
Y004737D02*
D03*
Y004610D02*
D03*
Y004483D02*
D03*
Y004356D02*
D03*
Y004229D02*
D03*
Y004102D02*
D03*
X001798D02*
D03*
Y004229D02*
D03*
Y004356D02*
D03*
Y004483D02*
D03*
Y004610D02*
D03*
Y004737D02*
D03*
Y004864D02*
D03*
Y004991D02*
D03*
X003468D02*
D03*
Y004864D02*
D03*
Y004737D02*
D03*
Y004610D02*
D03*
Y004483D02*
D03*
Y004356D02*
D03*
Y004229D02*
D03*
Y004102D02*
D03*
X002442D02*
D03*
Y004229D02*
D03*
Y004356D02*
D03*
Y004483D02*
D03*
Y004610D02*
D03*
Y004737D02*
D03*
Y004864D02*
D03*
D19*
X007341Y002281D02*
D03*
X005671D02*
D03*
X004001D02*
D03*
X004819Y004195D02*
D03*
X001479D02*
D03*
X003149D02*
D03*
D20*
X007722Y001583D02*
D03*
X007595D02*
D03*
X007468D02*
D03*
X007341D02*
D03*
X007722Y002281D02*
D03*
X007595D02*
D03*
X007468D02*
D03*
X005798D02*
D03*
X005925D02*
D03*
X006052D02*
D03*
X005671Y001583D02*
D03*
X005798D02*
D03*
X005925D02*
D03*
X006052D02*
D03*
X004382D02*
D03*
X004255D02*
D03*
X004128D02*
D03*
X004001D02*
D03*
X004382Y002281D02*
D03*
X004255D02*
D03*
X004128D02*
D03*
X004692Y004195D02*
D03*
X004565D02*
D03*
X004438D02*
D03*
X004819Y004893D02*
D03*
X004692D02*
D03*
X004565D02*
D03*
X004438D02*
D03*
X001098D02*
D03*
X001225D02*
D03*
X001352D02*
D03*
X001479D02*
D03*
X001098Y004195D02*
D03*
X001225D02*
D03*
X001352D02*
D03*
X003022D02*
D03*
X002895D02*
D03*
X002768D02*
D03*
X003149Y004893D02*
D03*
X003022D02*
D03*
X002895D02*
D03*
X002768D02*
D03*
D21*
X001235Y002550D02*
D03*
Y002360D02*
D03*
X001445Y002550D02*
D03*
Y002359D02*
D03*
X001240Y002787D02*
D03*
Y002977D02*
D03*
X001240Y003335D02*
D03*
Y003145D02*
D03*
X001450Y003145D02*
D03*
Y003335D02*
D03*
Y002787D02*
D03*
Y002977D02*
D03*
D22*
X005010Y003282D02*
D03*
X004710D02*
D03*
X005010Y003492D02*
D03*
X004710D02*
D03*
X005010Y003070D02*
D03*
X004710D02*
D03*
D23*
X002392Y002200D02*
D03*
X002760D02*
D03*
X001702D02*
D03*
X002070D02*
D03*
D24*
X002731Y003304D02*
D03*
Y003177D02*
D03*
X001740D02*
D03*
Y003304D02*
D03*
X002731Y003050D02*
D03*
Y002923D02*
D03*
Y002796D02*
D03*
Y002669D02*
D03*
X001740Y002796D02*
D03*
Y002669D02*
D03*
Y002923D02*
D03*
Y002542D02*
D03*
Y003050D02*
D03*
D25*
X002731Y002542D02*
D03*
D26*
X007531Y001932D02*
D03*
X005861D02*
D03*
X004191D02*
D03*
X004629Y004544D02*
D03*
X001289D02*
D03*
X002959D02*
D03*
D27*
X004070Y000750D02*
D03*
X003424Y005781D02*
D03*
X004721Y005712D02*
D03*
X005370Y000710D02*
D03*
X003424Y006081D02*
D03*
X004811Y006032D02*
D03*
X003980Y000450D02*
D03*
X005370Y000410D02*
D03*
D28*
X000347Y004147D02*
D03*
Y004347D02*
D03*
X000547Y003947D02*
D03*
X000347D02*
D03*
X000547Y004147D02*
D03*
Y004347D02*
D03*
Y004547D02*
D03*
X000347D02*
D03*
X000547Y004747D02*
D03*
Y003747D02*
D03*
X000347Y003547D02*
D03*
X000547D02*
D03*
X000347Y003747D02*
D03*
X000547Y003347D02*
D03*
X000347Y003147D02*
D03*
X000547D02*
D03*
X000347Y003347D02*
D03*
X000547Y002947D02*
D03*
X000347D02*
D03*
X000547Y002747D02*
D03*
X000347Y002547D02*
D03*
X000547D02*
D03*
Y002347D02*
D03*
X000347Y002347D02*
D03*
Y002747D02*
D03*
D29*
Y004747D02*
D03*
D30*
X001574Y001733D02*
D03*
X001765D02*
D03*
X001115D02*
D03*
X001306D02*
D03*
D31*
X003023Y005931D02*
D03*
X005771Y000560D02*
D03*
D32*
X002635Y006151D02*
D03*
Y005931D02*
D03*
Y005711D02*
D03*
X002335Y006151D02*
D03*
Y005931D02*
D03*
Y005711D02*
D03*
X006458Y000780D02*
D03*
Y000560D02*
D03*
Y000340D02*
D03*
X006158Y000780D02*
D03*
Y000560D02*
D03*
Y000340D02*
D03*
D33*
X005230Y003236D02*
D03*
X005520D02*
D03*
D34*
X005230Y003490D02*
D03*
X005520D02*
D03*
D35*
X007522Y000983D02*
D03*
X007724D02*
D03*
X007890Y001612D02*
D03*
X007523Y001415D02*
D03*
X005853D02*
D03*
X006220Y001612D02*
D03*
X006054Y000983D02*
D03*
X005852D02*
D03*
X004182D02*
D03*
X004384D02*
D03*
X004550Y001612D02*
D03*
X004183Y001415D02*
D03*
X004637Y005061D02*
D03*
X004270Y004864D02*
D03*
X004436Y005493D02*
D03*
X004638D02*
D03*
X001298D02*
D03*
X001096D02*
D03*
X000930Y004864D02*
D03*
X001297Y005061D02*
D03*
X002967D02*
D03*
X002600Y004864D02*
D03*
X002766Y005493D02*
D03*
X002968D02*
D03*
D36*
X001799Y006095D02*
D03*
X004395Y003245D02*
D03*
X005445Y006095D02*
D03*
X000395Y001845D02*
D03*
X003345Y000395D02*
D03*
X008395Y002545D02*
D03*
X006991Y000395D02*
D03*
M02*
