G04*
G04 #@! TF.GenerationSoftware,Altium Limited,Altium Designer,20.1.10 (176)*
G04*
G04 Layer_Physical_Order=3*
G04 Layer_Color=128*
%FSAX42Y42*%
%MOMM*%
G71*
G04*
G04 #@! TF.SameCoordinates,F61071BA-0D89-445E-BDF2-0AA7F9872C3D*
G04*
G04*
G04 #@! TF.FilePolarity,Negative*
G04*
G01*
G75*
%ADD11C,0.25*%
%ADD38C,1.20*%
%ADD49C,1.02*%
%ADD50C,0.91*%
%ADD52C,1.26*%
G04:AMPARAMS|DCode=53|XSize=2.3876mm|YSize=2.3876mm|CornerRadius=0mm|HoleSize=0mm|Usage=FLASHONLY|Rotation=0.000|XOffset=0mm|YOffset=0mm|HoleType=Round|Shape=Relief|Width=0.4mm|Gap=0.25mm|Entries=4|*
%AMTHD53*
7,0,0,2.39,1.88,0.40,45*
%
%ADD53THD53*%
%ADD54C,2.20*%
%ADD55C,2.43*%
%ADD56C,0.70*%
G04:AMPARAMS|DCode=57|XSize=1.924mm|YSize=1.924mm|CornerRadius=0mm|HoleSize=0mm|Usage=FLASHONLY|Rotation=0.000|XOffset=0mm|YOffset=0mm|HoleType=Round|Shape=Relief|Width=0.4mm|Gap=0.25mm|Entries=4|*
%AMTHD57*
7,0,0,1.92,1.42,0.40,45*
%
%ADD57THD57*%
G04:AMPARAMS|DCode=58|XSize=1.824mm|YSize=1.824mm|CornerRadius=0mm|HoleSize=0mm|Usage=FLASHONLY|Rotation=0.000|XOffset=0mm|YOffset=0mm|HoleType=Round|Shape=Relief|Width=0.4mm|Gap=0.25mm|Entries=4|*
%AMTHD58*
7,0,0,1.82,1.32,0.40,45*
%
%ADD58THD58*%
%ADD59C,0.80*%
%ADD60C,2.00*%
%ADD62C,2.90*%
D11*
X004575Y001875D02*
Y002775D01*
Y001875D02*
X004775Y001675D01*
X007425D01*
X000425Y002443D02*
X000900Y003125D01*
X000210Y002443D02*
X000425D01*
X000210Y003875D02*
X000900D01*
X000210Y002443D02*
Y003875D01*
X001525Y003475D02*
X001550Y003500D01*
X000900Y003875D02*
X001325D01*
X001550Y003500D02*
X002025D01*
X002200D01*
Y003125D02*
Y003500D01*
X000900Y003125D02*
X002200D01*
X001325Y003290D02*
X001525D01*
Y004925D01*
X001625Y005025D01*
X004000D01*
X004150Y004875D01*
Y002840D02*
Y004875D01*
Y002840D02*
X004380Y002610D01*
Y001570D02*
Y002610D01*
Y001570D02*
X004590Y001360D01*
X007425D01*
Y001675D01*
X004350Y003000D02*
X004575Y002775D01*
X004350Y003000D02*
Y005025D01*
X004150Y005225D02*
X004350Y005025D01*
X001495Y005225D02*
X004150D01*
X001325Y005055D02*
X001495Y005225D01*
X001325Y003290D02*
Y005055D01*
D38*
X002446Y003250D02*
D03*
X002700D02*
D03*
X002573Y003377D02*
D03*
D49*
X000347Y001595D02*
X000547D01*
X000571D01*
X000620Y001605D01*
X000665Y001623D01*
X000706Y001651D01*
X000741Y001686D01*
X000768Y001727D01*
X000787Y001772D01*
X000797Y001820D01*
Y001845D01*
Y002595D01*
X000798Y002620D01*
X000807Y002668D01*
X000826Y002713D01*
X000853Y002754D01*
X000888Y002788D01*
X000929Y002815D01*
X000974Y002834D01*
X001022Y002844D01*
X001047Y002845D01*
X002847D01*
X002871Y002844D01*
X002919Y002834D01*
X002964Y002815D01*
X003005Y002788D01*
X003040Y002754D01*
X003067Y002713D01*
X003086Y002668D01*
X003095Y002620D01*
X003097Y002595D01*
Y000395D02*
Y002595D01*
Y000370D02*
Y000395D01*
Y000370D02*
X003106Y000322D01*
X003125Y000277D01*
X003152Y000236D01*
X003187Y000201D01*
X003228Y000173D01*
X003274Y000155D01*
X003322Y000145D01*
X003347Y000145D01*
X003820D01*
X003837D01*
X003871Y000150D01*
X003904Y000159D01*
X003935Y000172D01*
X003964Y000190D01*
X003991Y000212D01*
X004014Y000237D01*
X004034Y000264D01*
X004042Y000280D01*
X004055Y000303D01*
X004087Y000348D01*
X004124Y000388D01*
X004166Y000422D01*
X004213Y000450D01*
X004263Y000472D01*
X004315Y000487D01*
X004369Y000494D01*
X004424D01*
X004478Y000487D01*
X004530Y000472D01*
X004580Y000450D01*
X004627Y000422D01*
X004669Y000388D01*
X004707Y000348D01*
X004738Y000303D01*
X004751Y000280D01*
X004759Y000264D01*
X004779Y000237D01*
X004802Y000212D01*
X004829Y000190D01*
X004858Y000172D01*
X004889Y000159D01*
X004922Y000150D01*
X004956Y000145D01*
X004973Y000145D01*
X006993D01*
X007018D01*
X007066Y000155D01*
X007112Y000173D01*
X007152Y000201D01*
X007170Y000218D01*
X008623Y001672D01*
X008641Y001689D01*
X008668Y001730D01*
X008687Y001776D01*
X008697Y001824D01*
X008697Y001849D02*
X008697Y001824D01*
X008697Y001849D02*
Y004645D01*
X008697Y004670D01*
X008687Y004718D02*
X008697Y004670D01*
X008668Y004763D02*
X008687Y004718D01*
X008641Y004804D02*
X008668Y004763D01*
X008606Y004839D02*
X008641Y004804D01*
X008565Y004867D02*
X008606Y004839D01*
X008520Y004885D02*
X008565Y004867D01*
X008471Y004895D02*
X008520Y004885D01*
X008447Y004895D02*
X008471Y004895D01*
X008247Y004895D02*
X008447D01*
X008222Y004895D02*
X008247Y004895D01*
X008174Y004885D02*
X008222Y004895D01*
X008128Y004867D02*
X008174Y004885D01*
X008087Y004839D02*
X008128Y004867D01*
X008052Y004804D02*
X008087Y004839D01*
X008025Y004763D02*
X008052Y004804D01*
X008006Y004718D02*
X008025Y004763D01*
X007997Y004670D02*
X008006Y004718D01*
X007997Y004645D02*
X007997Y004670D01*
X007997Y003895D02*
Y004645D01*
X007995Y003870D02*
X007997Y003895D01*
X007986Y003822D02*
X007995Y003870D01*
X007967Y003777D02*
X007986Y003822D01*
X007940Y003736D02*
X007967Y003777D01*
X007905Y003702D02*
X007940Y003736D01*
X007864Y003675D02*
X007905Y003702D01*
X007819Y003656D02*
X007864Y003675D01*
X007771Y003646D02*
X007819Y003656D01*
X007747Y003645D02*
X007771Y003646D01*
X005947Y003645D02*
X007747D01*
X005922Y003646D02*
X005947Y003645D01*
X005874Y003656D02*
X005922Y003646D01*
X005829Y003675D02*
X005874Y003656D01*
X005788Y003702D02*
X005829Y003675D01*
X005753Y003736D02*
X005788Y003702D01*
X005726Y003777D02*
X005753Y003736D01*
X005707Y003822D02*
X005726Y003777D01*
X005698Y003870D02*
X005707Y003822D01*
X005697Y003895D02*
X005698Y003870D01*
X005697Y003895D02*
Y006095D01*
X005697Y006120D02*
X005697Y006095D01*
X005687Y006168D02*
X005697Y006120D01*
X005668Y006213D02*
X005687Y006168D01*
X005641Y006254D02*
X005668Y006213D01*
X005606Y006289D02*
X005641Y006254D01*
X005565Y006317D02*
X005606Y006289D01*
X005520Y006335D02*
X005565Y006317D01*
X005471Y006345D02*
X005520Y006335D01*
X005447Y006345D02*
X005471Y006345D01*
X004973Y006345D02*
X005447D01*
X004956Y006345D02*
X004973Y006345D01*
X004922Y006340D02*
X004956Y006345D01*
X004889Y006331D02*
X004922Y006340D01*
X004858Y006318D02*
X004889Y006331D01*
X004829Y006300D02*
X004858Y006318D01*
X004802Y006278D02*
X004829Y006300D01*
X004779Y006253D02*
X004802Y006278D01*
X004759Y006226D02*
X004779Y006253D01*
X004751Y006210D02*
X004759Y006226D01*
X004738Y006187D02*
X004751Y006210D01*
X004707Y006142D02*
X004738Y006187D01*
X004669Y006102D02*
X004707Y006142D01*
X004627Y006068D02*
X004669Y006102D01*
X004580Y006040D02*
X004627Y006068D01*
X004530Y006018D02*
X004580Y006040D01*
X004478Y006003D02*
X004530Y006018D01*
X004424Y005996D02*
X004478Y006003D01*
X004369Y005996D02*
X004424D01*
X004315Y006003D02*
X004369Y005996D01*
X004263Y006018D02*
X004315Y006003D01*
X004213Y006040D02*
X004263Y006018D01*
X004166Y006068D02*
X004213Y006040D01*
X004124Y006102D02*
X004166Y006068D01*
X004087Y006142D02*
X004124Y006102D01*
X004055Y006187D02*
X004087Y006142D01*
X004042Y006210D02*
X004055Y006187D01*
X004034Y006226D02*
X004042Y006210D01*
X004014Y006253D02*
X004034Y006226D01*
X003991Y006278D02*
X004014Y006253D01*
X003964Y006300D02*
X003991Y006278D01*
X003935Y006318D02*
X003964Y006300D01*
X003904Y006331D02*
X003935Y006318D01*
X003871Y006340D02*
X003904Y006331D01*
X003837Y006345D02*
X003871Y006340D01*
X003820Y006345D02*
X003837Y006345D01*
X001800Y006345D02*
X003820D01*
X001776Y006345D02*
X001800Y006345D01*
X001727Y006335D02*
X001776Y006345D01*
X001682Y006317D02*
X001727Y006335D01*
X001641Y006289D02*
X001682Y006317D01*
X001623Y006272D02*
X001641Y006289D01*
X000170Y004818D02*
X001623Y006272D01*
X000152Y004801D02*
X000170Y004818D01*
X000125Y004760D02*
X000152Y004801D01*
X000106Y004714D02*
X000125Y004760D01*
X000097Y004666D02*
X000106Y004714D01*
X000097Y004641D02*
Y004666D01*
Y001845D02*
Y004641D01*
Y001820D02*
Y001845D01*
Y001820D02*
X000106Y001772D01*
X000125Y001727D01*
X000152Y001686D01*
X000187Y001651D01*
X000228Y001623D01*
X000274Y001605D01*
X000322Y001595D01*
X000347Y001595D01*
D50*
X005480Y004820D02*
D03*
Y005010D02*
D03*
X003280Y001670D02*
D03*
Y001480D02*
D03*
D52*
X000547Y002345D02*
D03*
X000347Y002745D02*
D03*
X000547Y002545D02*
D03*
Y002745D02*
D03*
X000347Y003145D02*
D03*
X000547Y002945D02*
D03*
X000347D02*
D03*
X000547Y003145D02*
D03*
X000347Y004145D02*
D03*
X000547D02*
D03*
X000347Y003945D02*
D03*
X000547D02*
D03*
Y003745D02*
D03*
Y003545D02*
D03*
X000347Y003345D02*
D03*
X000547D02*
D03*
X000347Y003745D02*
D03*
Y003545D02*
D03*
D53*
Y002345D02*
D03*
Y002545D02*
D03*
D54*
X006403Y003254D02*
D03*
X005654Y003508D02*
D03*
Y003000D02*
D03*
X008410Y003508D02*
D03*
Y003000D02*
D03*
D55*
X005413Y003254D02*
D03*
D56*
X004810Y005130D02*
D03*
X007802Y001740D02*
D03*
X003520Y001360D02*
D03*
X004050Y003553D02*
D03*
X004264Y003647D02*
D03*
X005223Y005128D02*
D03*
X004239Y004703D02*
D03*
X004029D02*
D03*
X004379Y005383D02*
D03*
X004800Y004014D02*
D03*
X005223Y004015D02*
D03*
X004379Y004270D02*
D03*
X003959Y002485D02*
D03*
X003536Y002485D02*
D03*
X004520Y002910D02*
D03*
X004730D02*
D03*
X004380Y002230D02*
D03*
X003960Y001366D02*
D03*
X004730Y001790D02*
D03*
X004520D02*
D03*
X004380Y001110D02*
D03*
X001756Y005362D02*
D03*
X001531Y005365D02*
D03*
X000528Y004920D02*
D03*
X001000D02*
D03*
X008275Y001740D02*
D03*
X006350Y002300D02*
D03*
Y001750D02*
D03*
D57*
X000974Y003819D02*
D03*
X001514Y005170D02*
D03*
X004278Y004878D02*
D03*
X004285Y003765D02*
D03*
X007289Y001490D02*
D03*
X004468Y002743D02*
D03*
X004474Y001615D02*
D03*
X003375Y002425D02*
D03*
X005325Y004225D02*
D03*
X001431Y002975D02*
D03*
X001432Y003401D02*
D03*
X002075Y003400D02*
D03*
X001273Y004660D02*
D03*
X007530Y002000D02*
D03*
D58*
X004519Y005383D02*
D03*
X004519Y004270D02*
D03*
X004240Y002230D02*
D03*
X004240Y001110D02*
D03*
D59*
X006942Y001249D02*
D03*
X001834Y002975D02*
D03*
X001144Y003868D02*
D03*
X003075Y003400D02*
D03*
X003150Y003275D02*
D03*
X005500Y002425D02*
D03*
X000225Y004350D02*
D03*
X001526Y004359D02*
D03*
X004269Y005695D02*
D03*
X004246Y004582D02*
D03*
X003300Y003750D02*
D03*
X005473Y004225D02*
D03*
X004569Y002113D02*
D03*
X003286Y002300D02*
D03*
X004491Y000803D02*
D03*
X003287Y001125D02*
D03*
X007225Y002300D02*
D03*
X005425Y001545D02*
D03*
X005472Y005341D02*
D03*
X000327Y004707D02*
D03*
X001453Y004660D02*
D03*
X007132Y001249D02*
D03*
X008286Y002423D02*
D03*
X008476Y001953D02*
D03*
X007350Y002000D02*
D03*
D60*
X005700Y001852D02*
D03*
Y001157D02*
D03*
Y000462D02*
D03*
Y000810D02*
D03*
Y001505D02*
D03*
X003093Y004987D02*
D03*
Y004638D02*
D03*
Y004290D02*
D03*
Y005335D02*
D03*
Y005683D02*
D03*
X006104Y000462D02*
D03*
Y000810D02*
D03*
Y001157D02*
D03*
Y001505D02*
D03*
Y001852D02*
D03*
Y002200D02*
D03*
X002689Y005683D02*
D03*
Y005335D02*
D03*
Y004987D02*
D03*
X003093Y006031D02*
D03*
X002689Y004290D02*
D03*
Y004638D02*
D03*
Y006031D02*
D03*
X005700Y002200D02*
D03*
D62*
X000397Y001845D02*
D03*
X003347Y000395D02*
D03*
X001800Y006095D02*
D03*
X008397Y004645D02*
D03*
X006993Y000395D02*
D03*
X005447Y006095D02*
D03*
X004397Y003245D02*
D03*
M02*
