G04*
G04 #@! TF.GenerationSoftware,Altium Limited,Altium Designer,22.1.2 (22)*
G04*
G04 Layer_Physical_Order=3*
G04 Layer_Color=32768*
%FSAX42Y42*%
%MOMM*%
G71*
G04*
G04 #@! TF.SameCoordinates,6FD1DDA5-32B1-4A23-A03F-20BB7E89EF8F*
G04*
G04*
G04 #@! TF.FilePolarity,Negative*
G04*
G01*
G75*
%ADD11C,0.25*%
%ADD44C,0.50*%
%ADD52C,1.02*%
%ADD58C,1.02*%
%ADD59C,1.20*%
%ADD60C,1.40*%
%ADD61C,1.35*%
%ADD62C,0.91*%
%ADD63C,1.26*%
G04:AMPARAMS|DCode=64|XSize=2.3876mm|YSize=2.3876mm|CornerRadius=0mm|HoleSize=0mm|Usage=FLASHONLY|Rotation=0.000|XOffset=0mm|YOffset=0mm|HoleType=Round|Shape=Relief|Width=0.4mm|Gap=0.25mm|Entries=4|*
%AMTHD64*
7,0,0,2.39,1.88,0.40,45*
%
%ADD64THD64*%
%ADD65C,0.70*%
G04:AMPARAMS|DCode=66|XSize=1.824mm|YSize=1.824mm|CornerRadius=0mm|HoleSize=0mm|Usage=FLASHONLY|Rotation=0.000|XOffset=0mm|YOffset=0mm|HoleType=Round|Shape=Relief|Width=0.4mm|Gap=0.25mm|Entries=4|*
%AMTHD66*
7,0,0,1.82,1.32,0.40,45*
%
%ADD66THD66*%
%ADD67C,3.00*%
G04:AMPARAMS|DCode=68|XSize=2.524mm|YSize=2.524mm|CornerRadius=0mm|HoleSize=0mm|Usage=FLASHONLY|Rotation=0.000|XOffset=0mm|YOffset=0mm|HoleType=Round|Shape=Relief|Width=0.4mm|Gap=0.25mm|Entries=4|*
%AMTHD68*
7,0,0,2.52,2.02,0.40,45*
%
%ADD68THD68*%
G04:AMPARAMS|DCode=69|XSize=2.032mm|YSize=2.032mm|CornerRadius=0mm|HoleSize=0mm|Usage=FLASHONLY|Rotation=0.000|XOffset=0mm|YOffset=0mm|HoleType=Round|Shape=Relief|Width=0.4mm|Gap=0.25mm|Entries=4|*
%AMTHD69*
7,0,0,2.03,1.52,0.40,45*
%
%ADD69THD69*%
G04:AMPARAMS|DCode=70|XSize=1.724mm|YSize=1.724mm|CornerRadius=0mm|HoleSize=0mm|Usage=FLASHONLY|Rotation=0.000|XOffset=0mm|YOffset=0mm|HoleType=Round|Shape=Relief|Width=0.4mm|Gap=0.25mm|Entries=4|*
%AMTHD70*
7,0,0,1.72,1.22,0.40,45*
%
%ADD70THD70*%
D11*
X005720Y002900D02*
X005750Y002930D01*
X002660Y003670D02*
X005710D01*
X002660Y003050D02*
Y003670D01*
X003450Y002420D02*
Y002900D01*
X005720D01*
X000425Y003050D02*
X002660D01*
X000425Y002825D02*
Y003050D01*
X000770Y002420D02*
X003450D01*
X000770D02*
Y002675D01*
X000425D02*
X000770D01*
X000425D02*
Y002825D01*
D44*
X001060Y003783D02*
Y004643D01*
Y003783D02*
X001500D01*
X001060Y004643D02*
X001500D01*
X006660Y000980D02*
Y001900D01*
Y000980D02*
X007140D01*
Y001900D01*
X006660D02*
X007140D01*
X005030Y000990D02*
Y001910D01*
Y000990D02*
X005510D01*
Y000990D02*
Y001910D01*
X005030Y001910D02*
X005510D01*
X001500Y003783D02*
Y004643D01*
X002680Y004643D02*
X003120D01*
Y003783D02*
Y004643D01*
X002680Y003783D02*
X003120D01*
X002680D02*
Y004643D01*
X004300Y004643D02*
X004750D01*
Y003783D02*
Y004643D01*
X004300Y003783D02*
X004750D01*
X004300D02*
Y004643D01*
X003400Y001910D02*
X003880D01*
Y000990D02*
Y001910D01*
X003400Y000990D02*
X003880D01*
X003400Y000990D02*
Y001910D01*
D52*
X000085Y004641D02*
D03*
X001800Y006355D02*
D03*
X001800Y006355D02*
D03*
X003820Y006355D02*
D03*
Y006355D02*
D03*
X004741Y006215D02*
D03*
X004741Y006215D02*
D03*
X005445Y006355D02*
D03*
Y006355D02*
D03*
X005705Y003095D02*
D03*
X008631Y001665D02*
D03*
X007177Y000211D02*
D03*
X004741Y000275D02*
D03*
D58*
X000085Y001845D02*
G03*
X000345Y001585I000260J000000D01*
G01*
X000161Y004825D02*
G03*
X000085Y004641I000184J-000184D01*
G01*
X001749Y006350D02*
G03*
X001615Y006279I000049J-000255D01*
G01*
X001800Y006355D02*
G03*
X001749Y006350I000000J-000260D01*
G01*
X004051Y006215D02*
G03*
X003820Y006355I-000231J-000120D01*
G01*
X004051Y006215D02*
G03*
X004473Y006013I000346J000180D01*
G01*
D02*
G03*
X004741Y006215I-000078J000382D01*
G01*
X004972Y006355D02*
G03*
X004741Y006215I000000J-000260D01*
G01*
X005705Y006095D02*
G03*
X005445Y006355I-000260J000000D01*
G01*
X005705Y003095D02*
G03*
X005945Y002855I000240J000000D01*
G01*
X008705Y002595D02*
G03*
X008445Y002855I-000260J000000D01*
G01*
X008707Y001849D02*
G03*
X008705Y001854I-000010J000000D01*
G01*
X008631Y001665D02*
G03*
X008707Y001849I-000184J000184D01*
G01*
X007043Y000140D02*
G03*
X007177Y000211I-000050J000255D01*
G01*
X006992Y000135D02*
G03*
X007043Y000140I000000J000260D01*
G01*
X004741Y000275D02*
G03*
X004972Y000135I000231J000120D01*
G01*
X004741Y000275D02*
G03*
X004322Y000478I-000346J-000180D01*
G01*
X004322D02*
G03*
X004051Y000275I000075J-000383D01*
G01*
X003869Y000140D02*
G03*
X004051Y000275I-000049J000255D01*
G01*
X003819Y000135D02*
G03*
X003869Y000140I-000000J000260D01*
G01*
X003085Y000395D02*
G03*
X003345Y000135I000260J000000D01*
G01*
X003085Y001345D02*
G03*
X002845Y001585I-000240J000000D01*
G01*
X000085Y001845D02*
Y004641D01*
X000161Y004825D02*
X001615Y006279D01*
X001800Y006355D02*
X001800D01*
Y006355D02*
X003820D01*
X003820Y006355D01*
X004741Y006215D02*
X004741Y006215D01*
X004972Y006355D02*
X005445D01*
X005445Y006355D01*
X005705Y003095D02*
Y006095D01*
X005945Y002855D02*
X008445D01*
X008705Y001854D02*
Y002595D01*
X007177Y000211D02*
X008631Y001665D01*
X004972Y000135D02*
X006992Y000135D01*
X003345D02*
X003819D01*
X003085Y000395D02*
Y001345D01*
X000345Y001585D02*
X002845D01*
D59*
X005790Y000800D02*
D03*
Y000320D02*
D03*
X006090D02*
D03*
X005790Y000560D02*
D03*
X006090D02*
D03*
Y000800D02*
D03*
X002750Y006150D02*
D03*
X002450D02*
D03*
X002750Y005920D02*
D03*
X002450D02*
D03*
Y005690D02*
D03*
X002750D02*
D03*
D60*
X003850Y000530D02*
D03*
Y000830D02*
D03*
X004890Y005950D02*
D03*
Y005650D02*
D03*
D61*
X005520Y003156D02*
D03*
Y003410D02*
D03*
D62*
X005450Y005708D02*
D03*
X001270Y001710D02*
D03*
D63*
X000347Y003747D02*
D03*
Y003947D02*
D03*
X000547Y003547D02*
D03*
X000347D02*
D03*
X000547Y003747D02*
D03*
Y003947D02*
D03*
Y004147D02*
D03*
X000347D02*
D03*
X000547Y004347D02*
D03*
X000347D02*
D03*
X000547Y003347D02*
D03*
X000347Y003147D02*
D03*
X000547D02*
D03*
X000347Y003347D02*
D03*
X000547Y002947D02*
D03*
X000347Y002747D02*
D03*
Y002947D02*
D03*
Y002547D02*
D03*
D64*
X000547Y002747D02*
D03*
Y002547D02*
D03*
D65*
X001003Y004549D02*
D03*
X007775Y001368D02*
D03*
X005160Y002930D02*
D03*
X007050Y001800D02*
D03*
X003450D02*
D03*
X003000Y002700D02*
D03*
X002400D02*
D03*
X002990Y002080D02*
D03*
X002610Y004520D02*
D03*
X004250Y004530D02*
D03*
X001430Y003600D02*
D03*
Y002330D02*
D03*
X003130Y003150D02*
D03*
X000620Y005070D02*
D03*
X005090Y005520D02*
D03*
X006440Y002030D02*
D03*
X004810D02*
D03*
X000790Y004770D02*
D03*
X002430D02*
D03*
X004050D02*
D03*
X004270Y004641D02*
D03*
X002640D02*
D03*
X001010D02*
D03*
X004460Y001770D02*
D03*
X006080D02*
D03*
X007710D02*
D03*
X005335Y004530D02*
D03*
X002090Y004080D02*
D03*
X002075Y004530D02*
D03*
X002090Y005040D02*
D03*
X002190Y004550D02*
D03*
X001261Y005435D02*
D03*
X003705Y004530D02*
D03*
X003720Y005040D02*
D03*
X005350D02*
D03*
X007730Y002280D02*
D03*
X006110D02*
D03*
X004470D02*
D03*
X001840Y001710D02*
D03*
X006911Y002695D02*
D03*
X006660Y001730D02*
D03*
Y001901D02*
D03*
X007840Y001810D02*
D03*
X005281Y002695D02*
D03*
X005030Y001730D02*
D03*
X006110Y001340D02*
D03*
X005030Y001901D02*
D03*
X006210Y001810D02*
D03*
X004521Y005435D02*
D03*
X005350Y004080D02*
D03*
X005450Y004550D02*
D03*
X002891Y005435D02*
D03*
X003720Y004080D02*
D03*
X003820Y004550D02*
D03*
X003400Y001730D02*
D03*
Y001901D02*
D03*
X004580Y001810D02*
D03*
X003651Y002695D02*
D03*
X004480Y001340D02*
D03*
D66*
X008400Y002100D02*
D03*
X008550Y001800D02*
D03*
X008250D02*
D03*
X007800Y002700D02*
D03*
X007350Y000600D02*
D03*
X006900Y002100D02*
D03*
X006750Y000600D02*
D03*
X006600Y000300D02*
D03*
X006450Y002400D02*
D03*
Y001800D02*
D03*
Y001200D02*
D03*
Y000600D02*
D03*
X006300Y000300D02*
D03*
X005100Y005700D02*
D03*
Y000900D02*
D03*
X004800Y001500D02*
D03*
X004950Y000600D02*
D03*
X004050Y006000D02*
D03*
Y005400D02*
D03*
Y001800D02*
D03*
X003900Y000300D02*
D03*
X003600Y002100D02*
D03*
Y000300D02*
D03*
X002850Y004800D02*
D03*
X002700Y002100D02*
D03*
X002400Y005100D02*
D03*
Y004500D02*
D03*
Y003900D02*
D03*
Y002100D02*
D03*
X002250Y006000D02*
D03*
Y001800D02*
D03*
X001800Y002100D02*
D03*
X001950Y001800D02*
D03*
X001500Y002100D02*
D03*
X001350Y001800D02*
D03*
X000900Y002100D02*
D03*
X000600D02*
D03*
X000750Y001800D02*
D03*
X000300Y004500D02*
D03*
Y002100D02*
D03*
X002950Y002520D02*
D03*
X001596Y002746D02*
D03*
X005020Y003540D02*
D03*
D67*
X001799Y006095D02*
D03*
X005447Y006095D02*
D03*
X000397Y001845D02*
D03*
X003347Y000395D02*
D03*
X008395Y002545D02*
D03*
X006993Y000395D02*
D03*
X004397Y003245D02*
D03*
D68*
X005170Y000410D02*
D03*
Y000710D02*
D03*
X005480Y000560D02*
D03*
X003400Y005760D02*
D03*
Y006060D02*
D03*
X003100Y005920D02*
D03*
D69*
X005450Y005517D02*
D03*
X001080Y001710D02*
D03*
D70*
X001139Y004499D02*
D03*
X001200Y004069D02*
D03*
X001374Y003869D02*
D03*
X001336Y004291D02*
D03*
X001278Y004521D02*
D03*
X001222Y004555D02*
D03*
X006789Y001759D02*
D03*
X006850Y001329D02*
D03*
X006986Y001551D02*
D03*
X006928Y001781D02*
D03*
X005159Y001759D02*
D03*
X005220Y001329D02*
D03*
X005356Y001551D02*
D03*
X005298Y001781D02*
D03*
X005242Y001815D02*
D03*
X003529Y001759D02*
D03*
X003590Y001329D02*
D03*
X003764Y001129D02*
D03*
X003726Y001551D02*
D03*
X003668Y001781D02*
D03*
X003612Y001815D02*
D03*
X004399Y004499D02*
D03*
X004460Y004069D02*
D03*
X004634Y003869D02*
D03*
X004596Y004291D02*
D03*
X004538Y004521D02*
D03*
X002769Y004499D02*
D03*
X002830Y004069D02*
D03*
X003004Y003869D02*
D03*
X002966Y004291D02*
D03*
X002908Y004521D02*
D03*
X002852Y004555D02*
D03*
M02*
