G04*
G04 #@! TF.GenerationSoftware,Altium Limited,Altium Designer,20.1.10 (176)*
G04*
G04 Layer_Physical_Order=2*
G04 Layer_Color=32768*
%FSAX42Y42*%
%MOMM*%
G71*
G04*
G04 #@! TF.SameCoordinates,63434018-A3C6-436E-83B0-3C2E02A57827*
G04*
G04*
G04 #@! TF.FilePolarity,Negative*
G04*
G01*
G75*
%ADD10C,0.25*%
%ADD49C,1.20*%
%ADD56C,3.00*%
%ADD59C,1.02*%
%ADD60C,2.20*%
G04:AMPARAMS|DCode=61|XSize=3.3274mm|YSize=3.3274mm|CornerRadius=0mm|HoleSize=0mm|Usage=FLASHONLY|Rotation=0.000|XOffset=0mm|YOffset=0mm|HoleType=Round|Shape=Relief|Width=0.4mm|Gap=0.25mm|Entries=4|*
%AMTHD61*
7,0,0,3.33,2.82,0.40,45*
%
%ADD61THD61*%
%ADD62C,2.43*%
%ADD63C,1.26*%
G04:AMPARAMS|DCode=64|XSize=2.3876mm|YSize=2.3876mm|CornerRadius=0mm|HoleSize=0mm|Usage=FLASHONLY|Rotation=0.000|XOffset=0mm|YOffset=0mm|HoleType=Round|Shape=Relief|Width=0.4mm|Gap=0.25mm|Entries=4|*
%AMTHD64*
7,0,0,2.39,1.88,0.40,45*
%
%ADD64THD64*%
%ADD65C,0.91*%
G04:AMPARAMS|DCode=66|XSize=2.032mm|YSize=2.032mm|CornerRadius=0mm|HoleSize=0mm|Usage=FLASHONLY|Rotation=0.000|XOffset=0mm|YOffset=0mm|HoleType=Round|Shape=Relief|Width=0.4mm|Gap=0.25mm|Entries=4|*
%AMTHD66*
7,0,0,2.03,1.52,0.40,45*
%
%ADD66THD66*%
%ADD67C,1.00*%
%ADD68C,0.80*%
G04:AMPARAMS|DCode=69|XSize=2.524mm|YSize=2.524mm|CornerRadius=0mm|HoleSize=0mm|Usage=FLASHONLY|Rotation=0.000|XOffset=0mm|YOffset=0mm|HoleType=Round|Shape=Relief|Width=0.4mm|Gap=0.25mm|Entries=4|*
%AMTHD69*
7,0,0,2.52,2.02,0.40,45*
%
%ADD69THD69*%
%ADD70C,1.40*%
%ADD71C,2.50*%
G04:AMPARAMS|DCode=72|XSize=1.924mm|YSize=1.924mm|CornerRadius=0mm|HoleSize=0mm|Usage=FLASHONLY|Rotation=0.000|XOffset=0mm|YOffset=0mm|HoleType=Round|Shape=Relief|Width=0.4mm|Gap=0.25mm|Entries=4|*
%AMTHD72*
7,0,0,1.92,1.42,0.40,45*
%
%ADD72THD72*%
D10*
X003300Y003425D02*
Y003725D01*
Y002825D02*
Y003150D01*
Y002825D02*
X005650D01*
X000425Y003425D02*
X003300D01*
X000425Y002825D02*
Y003425D01*
X000650Y003150D02*
X003300D01*
X000650Y002675D02*
Y003150D01*
X000425Y002675D02*
X000650D01*
X000425D02*
Y002825D01*
X005875Y003625D02*
X006050D01*
X005775Y003725D02*
X005875Y003625D01*
X003300Y003725D02*
X005775D01*
X005650Y002825D02*
X008700D01*
D49*
X004825Y003375D02*
D03*
X005079D02*
D03*
X004952Y003502D02*
D03*
D56*
X000397Y001845D02*
D03*
X003347Y000395D02*
D03*
X001800Y006095D02*
D03*
X008397Y004645D02*
D03*
X006993Y000395D02*
D03*
X005447Y006095D02*
D03*
X004397Y003245D02*
D03*
D59*
X000097Y001845D02*
G03*
X000347Y001595I000250J000000D01*
G01*
X000170Y004818D02*
G03*
X000097Y004641I000177J-000177D01*
G01*
X001800Y006345D02*
G03*
X001623Y006272I000000J-000250D01*
G01*
X004042Y006210D02*
G03*
X003820Y006345I-000222J-000115D01*
G01*
X004042Y006210D02*
G03*
X004751Y006210I000355J000185D01*
G01*
X004973Y006345D02*
G03*
X004751Y006210I000000J-000250D01*
G01*
X005697Y006095D02*
G03*
X005447Y006345I-000250J000000D01*
G01*
X005697Y003895D02*
G03*
X005947Y003645I000250J000000D01*
G01*
X007747D02*
G03*
X007997Y003895I000000J000250D01*
G01*
X008247Y004895D02*
G03*
X007997Y004645I000000J-000250D01*
G01*
X008697D02*
G03*
X008447Y004895I-000250J000000D01*
G01*
X008623Y001672D02*
G03*
X008697Y001849I-000177J000177D01*
G01*
X006993Y000145D02*
G03*
X007170Y000218I000000J000250D01*
G01*
X004751Y000280D02*
G03*
X004973Y000145I000222J000115D01*
G01*
X004751Y000280D02*
G03*
X004042Y000280I-000355J-000185D01*
G01*
X003820Y000145D02*
G03*
X004042Y000280I000000J000250D01*
G01*
X003097Y000395D02*
G03*
X003347Y000145I000250J000000D01*
G01*
X003097Y002595D02*
G03*
X002847Y002845I-000250J000000D01*
G01*
X001047D02*
G03*
X000797Y002595I000000J-000250D01*
G01*
X000547Y001595D02*
G03*
X000797Y001845I000000J000250D01*
G01*
X004751Y000280D02*
X004751D01*
X007170Y000218D02*
X007170D01*
X008623Y001672D02*
X008623D01*
X008697Y001849D02*
X008697D01*
X008697Y004645D02*
X008697D01*
X008447Y004895D02*
Y004895D01*
X008247D02*
X008247Y004895D01*
X007997Y004645D02*
X007997D01*
X007997Y003895D02*
X007997D01*
X005697D02*
X005697D01*
X005697Y006095D02*
X005697D01*
X005447Y006345D02*
X005447Y006345D01*
X004973Y006345D02*
X004973Y006345D01*
X004751Y006210D02*
X004751Y006210D01*
X004042Y006210D02*
Y006210D01*
X003820Y006345D02*
Y006345D01*
X001800Y006345D02*
Y006345D01*
X001623Y006272D02*
X001623D01*
X000347Y001595D02*
X000547D01*
X000797Y001845D02*
Y002595D01*
X001047Y002845D02*
X002847D01*
X003097Y000395D02*
Y002595D01*
X003347Y000145D02*
X003820D01*
X004973D02*
X006993D01*
X007170Y000218D02*
X008623Y001672D01*
X008697Y001849D02*
Y004645D01*
X008247Y004895D02*
X008447D01*
X007997Y003895D02*
Y004645D01*
X005947Y003645D02*
X007747D01*
X005697Y003895D02*
Y006095D01*
X004973Y006345D02*
X005447D01*
X001800D02*
X003820D01*
X000170Y004818D02*
X001623Y006272D01*
X000097Y001845D02*
Y004641D01*
D60*
X007457Y003326D02*
D03*
X008206Y003072D02*
D03*
X005450D02*
D03*
Y003580D02*
D03*
D61*
X008206D02*
D03*
D62*
X008447Y003326D02*
D03*
D63*
X000347Y003747D02*
D03*
Y003947D02*
D03*
X000547Y003547D02*
D03*
X000347D02*
D03*
X000547Y003747D02*
D03*
Y003947D02*
D03*
Y004147D02*
D03*
X000347D02*
D03*
X000547Y004347D02*
D03*
X000347D02*
D03*
X000547Y003347D02*
D03*
X000347Y003147D02*
D03*
X000547D02*
D03*
X000347Y003347D02*
D03*
X000547Y002947D02*
D03*
X000347Y002747D02*
D03*
Y002947D02*
D03*
Y002547D02*
D03*
D64*
X000547Y002747D02*
D03*
Y002547D02*
D03*
D65*
X003225Y000990D02*
D03*
X005580Y005670D02*
D03*
D66*
X003225Y000800D02*
D03*
X005580Y005479D02*
D03*
D67*
X003010Y005210D02*
D03*
X005164D02*
D03*
X004637D02*
D03*
X003564D02*
D03*
X001437D02*
D03*
X001964D02*
D03*
X004581Y002700D02*
D03*
X004053D02*
D03*
X005657D02*
D03*
X006184D02*
D03*
X007257D02*
D03*
X007784D02*
D03*
D68*
X004282Y002746D02*
D03*
X007390Y002760D02*
D03*
X002874Y004165D02*
D03*
X002719Y003830D02*
D03*
X000375Y002300D02*
D03*
X005136Y005478D02*
D03*
X004865Y005213D02*
D03*
X003375Y003475D02*
D03*
X004275Y005675D02*
D03*
X003610Y000800D02*
D03*
X006920Y002760D02*
D03*
X007853Y001320D02*
D03*
X008100Y002720D02*
D03*
X006939Y001320D02*
D03*
X006749Y002720D02*
D03*
X007094Y001655D02*
D03*
X007600Y001320D02*
D03*
X005885Y002760D02*
D03*
X005320D02*
D03*
X006253Y001320D02*
D03*
X006500Y002720D02*
D03*
X005339Y001320D02*
D03*
X005149Y002720D02*
D03*
X005494Y001655D02*
D03*
X006000Y001320D02*
D03*
X001665Y005270D02*
D03*
X001100D02*
D03*
X002033Y003830D02*
D03*
X002280Y005230D02*
D03*
X001119Y003830D02*
D03*
X000929Y005230D02*
D03*
X001274Y004165D02*
D03*
X001780Y003830D02*
D03*
X004300Y005270D02*
D03*
X005233Y003830D02*
D03*
X005480Y005230D02*
D03*
X004319Y003830D02*
D03*
X004129Y005230D02*
D03*
X004474Y004165D02*
D03*
X004980Y003830D02*
D03*
X003265Y005220D02*
D03*
X002700D02*
D03*
X003633Y003830D02*
D03*
X003880Y005230D02*
D03*
X002529D02*
D03*
X003380Y003830D02*
D03*
X004653Y001320D02*
D03*
X003739D02*
D03*
X003720Y002760D02*
D03*
X003549Y002720D02*
D03*
X004900D02*
D03*
X004400Y001320D02*
D03*
X003894Y001655D02*
D03*
D69*
X006300Y003400D02*
D03*
X006415Y000380D02*
D03*
X005415D02*
D03*
X005915D02*
D03*
X005415Y000680D02*
D03*
X005915D02*
D03*
X006415D02*
D03*
X003640Y006080D02*
D03*
X003140D02*
D03*
X002640D02*
D03*
X003140Y005780D02*
D03*
X002640D02*
D03*
X003640D02*
D03*
D70*
X006300Y003050D02*
D03*
X004000Y005425D02*
D03*
Y005900D02*
D03*
X004800Y000650D02*
D03*
Y001155D02*
D03*
X005630Y001120D02*
D03*
X005950D02*
D03*
X003165Y005400D02*
D03*
X002865D02*
D03*
X005665Y000680D02*
D03*
X005165Y000380D02*
D03*
X005665D02*
D03*
X006165D02*
D03*
X005165Y000680D02*
D03*
X006165D02*
D03*
X003390Y006080D02*
D03*
X002390D02*
D03*
X003390Y005780D02*
D03*
X002890D02*
D03*
X002390D02*
D03*
X002890Y006080D02*
D03*
D71*
X007597Y003000D02*
D03*
X007097Y003400D02*
D03*
D72*
X004900Y005825D02*
D03*
X004850Y002900D02*
D03*
X003050Y003490D02*
D03*
X003375Y003300D02*
D03*
X007109Y002690D02*
D03*
X006620Y001990D02*
D03*
X007219Y001320D02*
D03*
X005509Y002690D02*
D03*
X005020Y001990D02*
D03*
X005619Y001320D02*
D03*
X001289Y005200D02*
D03*
X000800Y004500D02*
D03*
X001399Y003830D02*
D03*
X004489Y005200D02*
D03*
X004000Y004500D02*
D03*
X004599Y003830D02*
D03*
X002400Y004500D02*
D03*
X002999Y003830D02*
D03*
X003909Y002690D02*
D03*
X004019Y001320D02*
D03*
X003420Y001990D02*
D03*
M02*
